<svg xmlns="http://www.w3.org/2000/svg" width="390" height="838" viewBox="0 0 390 838" font-family="-apple-system,Segoe UI,Roboto,sans-serif">
<defs>
<linearGradient id="soil" x1="0" y1="0" x2="0" y2="1"><stop offset="0" stop-color="#D8B98C"/><stop offset="1" stop-color="#A9824F"/></linearGradient>
<linearGradient id="water" x1="0" y1="0" x2="0" y2="1"><stop offset="0" stop-color="#74C4E8"/><stop offset="1" stop-color="#2E8FC0"/></linearGradient>
<linearGradient id="sky" x1="0" y1="0" x2="0" y2="1"><stop offset="0" stop-color="#FBFEFF"/><stop offset="1" stop-color="#EAF4F0"/></linearGradient>
</defs>
<rect width="390" height="838" fill="#F4F7F4"/>
<text x="22" y="40" font-size="22" font-weight="700" fill="#243B2E">Soil Balance</text>
<text x="22" y="58" font-size="11.5" fill="#6E8276">Vormersesluisweg 3A, Wijchen · one zone</text>
<g transform="translate(346,22)"><path d="M14 2 C19 9 22 13 22 18 a8 8 0 0 1 -16 0 C6 13 9 9 14 2 Z" fill="url(#water)" stroke="#2E8FC0" stroke-width="1"/><text x="14" y="20" font-size="9" font-weight="700" fill="#fff" text-anchor="middle">62%</text></g>
<rect x="22" y="74" width="112.66666666666667" height="46" rx="11" fill="#FFFFFF" stroke="#D8E2DA"/>
<text x="33" y="91" font-size="9" fill="#6E8276" text-transform="uppercase" letter-spacing="0.6">Planting</text>
<text x="33" y="108" font-size="13" font-weight="600" fill="#243B2E">Turf</text>
<path d="M114.66666666666669 94 l5 6 l5 -6" fill="none" stroke="#6E8276" stroke-width="1.6" stroke-linecap="round" stroke-linejoin="round"/>
<rect x="142.66666666666669" y="74" width="112.66666666666667" height="46" rx="11" fill="#FFFFFF" stroke="#D8E2DA"/>
<text x="153.66666666666669" y="91" font-size="9" fill="#6E8276" text-transform="uppercase" letter-spacing="0.6">Soil</text>
<text x="153.66666666666669" y="108" font-size="13" font-weight="600" fill="#243B2E">Clay loam</text>
<path d="M235.33333333333337 94 l5 6 l5 -6" fill="none" stroke="#6E8276" stroke-width="1.6" stroke-linecap="round" stroke-linejoin="round"/>
<rect x="263.33333333333337" y="74" width="112.66666666666667" height="46" rx="11" fill="#FFFFFF" stroke="#D8E2DA"/>
<text x="274.33333333333337" y="91" font-size="9" fill="#6E8276" text-transform="uppercase" letter-spacing="0.6">Water</text>
<text x="274.33333333333337" y="108" font-size="13" font-weight="600" fill="#243B2E">20 min</text>
<path d="M356.00000000000006 94 l5 6 l5 -6" fill="none" stroke="#6E8276" stroke-width="1.6" stroke-linecap="round" stroke-linejoin="round"/>
<rect x="14" y="134" width="370" height="470" rx="14" fill="#FFFFFF" stroke="#D8E2DA"/>
<text x="22" y="158" font-size="12.5" font-weight="700" fill="#243B2E">Root-zone soil moisture</text>
<text x="22" y="174" font-size="9.5" fill="#6E8276">last 8 days · today · next 7</text>
<g stroke="#F4C430" stroke-width="2" stroke-linecap="round">
<line x1="346.0" y1="164.0" x2="351.0" y2="164.0"/>
<line x1="342.5" y1="172.5" x2="346.0" y2="176.0"/>
<line x1="334.0" y1="176.0" x2="334.0" y2="181.0"/>
<line x1="325.5" y1="172.5" x2="322.0" y2="176.0"/>
<line x1="322.0" y1="164.0" x2="317.0" y2="164.0"/>
<line x1="325.5" y1="155.5" x2="322.0" y2="152.0"/>
<line x1="334.0" y1="152.0" x2="334.0" y2="147.0"/>
<line x1="342.5" y1="155.5" x2="346.0" y2="152.0"/>
</g>
<circle cx="334" cy="164" r="8.5" fill="#F4C430"/>
<rect x="20" y="186" width="358" height="114.0" rx="6" fill="url(#sky)"/>
<rect x="199.0" y="186" width="22.1" height="388.0" fill="#EAF3FB"/>
<text x="210.1" y="184" font-size="8.5" font-weight="700" fill="#2E8FC0" text-anchor="middle">TODAY</text>
<text x="33.1" y="198" font-size="9.5" font-weight="600" fill="#243B2E" text-anchor="middle">17°</text>
<path d="M33.1 216 l0 -9 M30.1 207 l3 -3 l3 3" fill="none" stroke="#E0913B" stroke-width="1.4" stroke-linecap="round" stroke-linejoin="round"/>
<text x="55.2" y="198" font-size="9.5" font-weight="600" fill="#243B2E" text-anchor="middle">19°</text>
<path d="M55.2 216 l0 -9 M52.2 207 l3 -3 l3 3" fill="none" stroke="#E0913B" stroke-width="1.4" stroke-linecap="round" stroke-linejoin="round"/>
<text x="77.3" y="198" font-size="9.5" font-weight="600" fill="#243B2E" text-anchor="middle">16°</text>
<path d="M77.3 206 c3 4 4.5 6 4.5 8 a4.5 4.5 0 0 1 -9 0 c0 -2 1.5 -4 4.5 -8 Z" fill="[0, 0, 9.4, 0, 0, 0, 6.1, 0, 0, 0, 0, 0, 0, 0, 4.2, 0]"/>
<ellipse cx="76.0" cy="214.5" rx="1.3" ry="2" fill="#CDEBFB"/>
<text x="77.3" y="228" font-size="7.5" fill="[0, 0, 9.4, 0, 0, 0, 6.1, 0, 0, 0, 0, 0, 0, 0, 4.2, 0]" text-anchor="middle">9.4</text>
<text x="99.4" y="198" font-size="9.5" font-weight="600" fill="#243B2E" text-anchor="middle">20°</text>
<path d="M99.4 216 l0 -9 M96.4 207 l3 -3 l3 3" fill="none" stroke="#E0913B" stroke-width="1.4" stroke-linecap="round" stroke-linejoin="round"/>
<text x="121.6" y="198" font-size="9.5" font-weight="600" fill="#243B2E" text-anchor="middle">22°</text>
<path d="M121.6 216 l0 -9 M118.6 207 l3 -3 l3 3" fill="none" stroke="#E0913B" stroke-width="1.4" stroke-linecap="round" stroke-linejoin="round"/>
<text x="143.7" y="198" font-size="9.5" font-weight="600" fill="#243B2E" text-anchor="middle">24°</text>
<path d="M143.7 216 l0 -9 M140.7 207 l3 -3 l3 3" fill="none" stroke="#E0913B" stroke-width="1.4" stroke-linecap="round" stroke-linejoin="round"/>
<text x="165.8" y="198" font-size="9.5" font-weight="600" fill="#243B2E" text-anchor="middle">20°</text>
<path d="M165.8 206 c3 4 4.5 6 4.5 8 a4.5 4.5 0 0 1 -9 0 c0 -2 1.5 -4 4.5 -8 Z" fill="[0, 0, 9.4, 0, 0, 0, 6.1, 0, 0, 0, 0, 0, 0, 0, 4.2, 0]"/>
<ellipse cx="164.5" cy="214.5" rx="1.3" ry="2" fill="#CDEBFB"/>
<text x="165.8" y="228" font-size="7.5" fill="[0, 0, 9.4, 0, 0, 0, 6.1, 0, 0, 0, 0, 0, 0, 0, 4.2, 0]" text-anchor="middle">6.1</text>
<text x="187.9" y="198" font-size="9.5" font-weight="600" fill="#243B2E" text-anchor="middle">23°</text>
<path d="M187.9 216 l0 -9 M184.9 207 l3 -3 l3 3" fill="none" stroke="#E0913B" stroke-width="1.4" stroke-linecap="round" stroke-linejoin="round"/>
<text x="210.1" y="198" font-size="9.5" font-weight="600" fill="#243B2E" text-anchor="middle">25°</text>
<path d="M210.1 216 l0 -9 M207.1 207 l3 -3 l3 3" fill="none" stroke="#E0913B" stroke-width="1.4" stroke-linecap="round" stroke-linejoin="round"/>
<text x="232.2" y="198" font-size="9.5" font-weight="600" fill="#243B2E" text-anchor="middle">26°</text>
<path d="M232.2 216 l0 -9 M229.2 207 l3 -3 l3 3" fill="none" stroke="#E0913B" stroke-width="1.4" stroke-linecap="round" stroke-linejoin="round"/>
<text x="254.3" y="198" font-size="9.5" font-weight="600" fill="#243B2E" text-anchor="middle">27°</text>
<path d="M254.3 216 l0 -9 M251.3 207 l3 -3 l3 3" fill="none" stroke="#E0913B" stroke-width="1.4" stroke-linecap="round" stroke-linejoin="round"/>
<text x="276.4" y="198" font-size="9.5" font-weight="600" fill="#243B2E" text-anchor="middle">29°</text>
<path d="M276.4 216 l0 -9 M273.4 207 l3 -3 l3 3" fill="none" stroke="#E0913B" stroke-width="1.4" stroke-linecap="round" stroke-linejoin="round"/>
<text x="298.6" y="198" font-size="9.5" font-weight="600" fill="#243B2E" text-anchor="middle">30°</text>
<path d="M298.6 216 l0 -9 M295.6 207 l3 -3 l3 3" fill="none" stroke="#E0913B" stroke-width="1.4" stroke-linecap="round" stroke-linejoin="round"/>
<text x="320.7" y="198" font-size="9.5" font-weight="600" fill="#243B2E" text-anchor="middle">24°</text>
<path d="M320.7 216 l0 -9 M317.7 207 l3 -3 l3 3" fill="none" stroke="#E0913B" stroke-width="1.4" stroke-linecap="round" stroke-linejoin="round"/>
<text x="342.8" y="198" font-size="9.5" font-weight="600" fill="#243B2E" text-anchor="middle">25°</text>
<path d="M342.8 206 c3 4 4.5 6 4.5 8 a4.5 4.5 0 0 1 -9 0 c0 -2 1.5 -4 4.5 -8 Z" fill="[0, 0, 9.4, 0, 0, 0, 6.1, 0, 0, 0, 0, 0, 0, 0, 4.2, 0]"/>
<ellipse cx="341.5" cy="214.5" rx="1.3" ry="2" fill="#CDEBFB"/>
<text x="342.8" y="228" font-size="7.5" fill="[0, 0, 9.4, 0, 0, 0, 6.1, 0, 0, 0, 0, 0, 0, 0, 4.2, 0]" text-anchor="middle">4.2</text>
<text x="364.9" y="198" font-size="9.5" font-weight="600" fill="#243B2E" text-anchor="middle">26°</text>
<path d="M364.9 216 l0 -9 M361.9 207 l3 -3 l3 3" fill="none" stroke="#E0913B" stroke-width="1.4" stroke-linecap="round" stroke-linejoin="round"/>
<rect x="24.5" y="300.0" width="17.1" height="256.0" rx="3" fill="url(#soil)"/>
<rect x="24.5" y="351.2" width="17.1" height="204.8" rx="3" fill="url(#water)" opacity="0.9"/>
<g stroke="#8a6a3f" stroke-width="0.9" fill="none" opacity="0.55">
<path d="M33.1 300.0 l0 242.0"/>
<path d="M33.1 330.0 l-5 22 M33.1 360.0 l5 26 M33.1 410.0 l-4 24"/>
</g>
<g stroke="#5BAE5B" stroke-width="1.5" stroke-linecap="round">
<line x1="29.1" y1="300.0" x2="27.9" y2="292.0"/>
<line x1="33.1" y1="300.0" x2="31.9" y2="292.0"/>
<line x1="37.1" y1="300.0" x2="35.9" y2="292.0"/>
</g>
<rect x="46.6" y="300.0" width="17.1" height="256.0" rx="3" fill="url(#soil)"/>
<rect x="46.6" y="364.0" width="17.1" height="192.0" rx="3" fill="url(#water)" opacity="0.9"/>
<g stroke="#8a6a3f" stroke-width="0.9" fill="none" opacity="0.55">
<path d="M55.2 300.0 l0 242.0"/>
<path d="M55.2 330.0 l-5 22 M55.2 360.0 l5 26 M55.2 410.0 l-4 24"/>
</g>
<g stroke="#5BAE5B" stroke-width="1.5" stroke-linecap="round">
<line x1="51.2" y1="300.0" x2="50.0" y2="292.0"/>
<line x1="55.2" y1="300.0" x2="54.0" y2="292.0"/>
<line x1="59.2" y1="300.0" x2="58.0" y2="292.0"/>
</g>
<rect x="68.8" y="300.0" width="17.1" height="256.0" rx="3" fill="url(#soil)"/>
<rect x="68.8" y="341.0" width="17.1" height="215.0" rx="3" fill="url(#water)" opacity="0.9"/>
<g stroke="#8a6a3f" stroke-width="0.9" fill="none" opacity="0.55">
<path d="M77.3 300.0 l0 242.0"/>
<path d="M77.3 330.0 l-5 22 M77.3 360.0 l5 26 M77.3 410.0 l-4 24"/>
</g>
<g stroke="#5BAE5B" stroke-width="1.5" stroke-linecap="round">
<line x1="73.3" y1="300.0" x2="72.1" y2="292.0"/>
<line x1="77.3" y1="300.0" x2="76.1" y2="292.0"/>
<line x1="81.3" y1="300.0" x2="80.1" y2="292.0"/>
</g>
<rect x="90.9" y="300.0" width="17.1" height="256.0" rx="3" fill="url(#soil)"/>
<rect x="90.9" y="356.3" width="17.1" height="199.7" rx="3" fill="url(#water)" opacity="0.9"/>
<g stroke="#8a6a3f" stroke-width="0.9" fill="none" opacity="0.55">
<path d="M99.4 300.0 l0 242.0"/>
<path d="M99.4 330.0 l-5 22 M99.4 360.0 l5 26 M99.4 410.0 l-4 24"/>
</g>
<g stroke="#5BAE5B" stroke-width="1.5" stroke-linecap="round">
<line x1="95.4" y1="300.0" x2="94.2" y2="292.0"/>
<line x1="99.4" y1="300.0" x2="98.2" y2="292.0"/>
<line x1="103.4" y1="300.0" x2="102.2" y2="292.0"/>
</g>
<rect x="113.0" y="300.0" width="17.1" height="256.0" rx="3" fill="url(#soil)"/>
<rect x="113.0" y="374.2" width="17.1" height="181.8" rx="3" fill="url(#water)" opacity="0.9"/>
<g stroke="#8a6a3f" stroke-width="0.9" fill="none" opacity="0.55">
<path d="M121.6 300.0 l0 242.0"/>
<path d="M121.6 330.0 l-5 22 M121.6 360.0 l5 26 M121.6 410.0 l-4 24"/>
</g>
<g stroke="#5BAE5B" stroke-width="1.5" stroke-linecap="round">
<line x1="117.6" y1="300.0" x2="116.4" y2="292.0"/>
<line x1="121.6" y1="300.0" x2="120.4" y2="292.0"/>
<line x1="125.6" y1="300.0" x2="124.4" y2="292.0"/>
</g>
<rect x="113.0" y="298.0" width="17.1" height="4" fill="#3FB28E"/>
<circle cx="121.6" cy="286.0" r="6.5" fill="#3FB28E"/>
<path d="M118.6 286.0 l2 2 l4 -4" stroke="#fff" stroke-width="1.4" fill="none" stroke-linecap="round" stroke-linejoin="round"/>
<rect x="135.1" y="300.0" width="17.1" height="256.0" rx="3" fill="url(#soil)"/>
<rect x="135.1" y="392.2" width="17.1" height="163.8" rx="3" fill="url(#water)" opacity="0.9"/>
<g stroke="#8a6a3f" stroke-width="0.9" fill="none" opacity="0.55">
<path d="M143.7 300.0 l0 242.0"/>
<path d="M143.7 330.0 l-5 22 M143.7 360.0 l5 26 M143.7 410.0 l-4 24"/>
</g>
<g stroke="#5BAE5B" stroke-width="1.5" stroke-linecap="round">
<line x1="139.7" y1="300.0" x2="138.5" y2="292.0"/>
<line x1="143.7" y1="300.0" x2="142.5" y2="292.0"/>
<line x1="147.7" y1="300.0" x2="146.5" y2="292.0"/>
</g>
<rect x="157.2" y="300.0" width="17.1" height="256.0" rx="3" fill="url(#soil)"/>
<rect x="157.2" y="369.1" width="17.1" height="186.9" rx="3" fill="url(#water)" opacity="0.9"/>
<g stroke="#8a6a3f" stroke-width="0.9" fill="none" opacity="0.55">
<path d="M165.8 300.0 l0 242.0"/>
<path d="M165.8 330.0 l-5 22 M165.8 360.0 l5 26 M165.8 410.0 l-4 24"/>
</g>
<g stroke="#5BAE5B" stroke-width="1.5" stroke-linecap="round">
<line x1="161.8" y1="300.0" x2="160.6" y2="292.0"/>
<line x1="165.8" y1="300.0" x2="164.6" y2="292.0"/>
<line x1="169.8" y1="300.0" x2="168.6" y2="292.0"/>
</g>
<rect x="179.4" y="300.0" width="17.1" height="256.0" rx="3" fill="url(#soil)"/>
<rect x="179.4" y="387.0" width="17.1" height="169.0" rx="3" fill="url(#water)" opacity="0.9"/>
<g stroke="#8a6a3f" stroke-width="0.9" fill="none" opacity="0.55">
<path d="M187.9 300.0 l0 242.0"/>
<path d="M187.9 330.0 l-5 22 M187.9 360.0 l5 26 M187.9 410.0 l-4 24"/>
</g>
<g stroke="#5BAE5B" stroke-width="1.5" stroke-linecap="round">
<line x1="183.9" y1="300.0" x2="182.7" y2="292.0"/>
<line x1="187.9" y1="300.0" x2="186.7" y2="292.0"/>
<line x1="191.9" y1="300.0" x2="190.7" y2="292.0"/>
</g>
<rect x="201.5" y="300.0" width="17.1" height="256.0" rx="3" fill="url(#soil)"/>
<rect x="201.5" y="397.3" width="17.1" height="158.7" rx="3" fill="url(#water)" opacity="0.9"/>
<g stroke="#8a6a3f" stroke-width="0.9" fill="none" opacity="0.55">
<path d="M210.1 300.0 l0 242.0"/>
<path d="M210.1 330.0 l-5 22 M210.1 360.0 l5 26 M210.1 410.0 l-4 24"/>
</g>
<g stroke="#5BAE5B" stroke-width="1.5" stroke-linecap="round">
<line x1="206.1" y1="300.0" x2="204.9" y2="292.0"/>
<line x1="210.1" y1="300.0" x2="208.9" y2="292.0"/>
<line x1="214.1" y1="300.0" x2="212.9" y2="292.0"/>
</g>
<rect x="223.6" y="300.0" width="17.1" height="256.0" rx="3" fill="url(#soil)"/>
<rect x="223.6" y="410.1" width="17.1" height="145.9" rx="3" fill="url(#water)" opacity="0.9"/>
<g stroke="#8a6a3f" stroke-width="0.9" fill="none" opacity="0.55">
<path d="M232.2 300.0 l0 242.0"/>
<path d="M232.2 330.0 l-5 22 M232.2 360.0 l5 26 M232.2 410.0 l-4 24"/>
</g>
<g stroke="#5BAE5B" stroke-width="1.5" stroke-linecap="round">
<line x1="228.2" y1="300.0" x2="227.0" y2="292.0"/>
<line x1="232.2" y1="300.0" x2="231.0" y2="292.0"/>
<line x1="236.2" y1="300.0" x2="235.0" y2="292.0"/>
</g>
<rect x="245.8" y="300.0" width="17.1" height="256.0" rx="3" fill="url(#soil)"/>
<rect x="245.8" y="422.9" width="17.1" height="133.1" rx="3" fill="url(#water)" opacity="0.9"/>
<g stroke="#8a6a3f" stroke-width="0.9" fill="none" opacity="0.55">
<path d="M254.3 300.0 l0 242.0"/>
<path d="M254.3 330.0 l-5 22 M254.3 360.0 l5 26 M254.3 410.0 l-4 24"/>
</g>
<g stroke="#5BAE5B" stroke-width="1.5" stroke-linecap="round">
<line x1="250.3" y1="300.0" x2="249.1" y2="292.0"/>
<line x1="254.3" y1="300.0" x2="253.1" y2="292.0"/>
<line x1="258.3" y1="300.0" x2="257.1" y2="292.0"/>
</g>
<rect x="267.9" y="300.0" width="17.1" height="256.0" rx="3" fill="url(#soil)"/>
<rect x="267.9" y="435.7" width="17.1" height="120.3" rx="3" fill="url(#water)" opacity="0.9"/>
<g stroke="#8a6a3f" stroke-width="0.9" fill="none" opacity="0.55">
<path d="M276.4 300.0 l0 242.0"/>
<path d="M276.4 330.0 l-5 22 M276.4 360.0 l5 26 M276.4 410.0 l-4 24"/>
</g>
<g stroke="#5BAE5B" stroke-width="1.5" stroke-linecap="round">
<line x1="272.4" y1="300.0" x2="271.2" y2="292.0"/>
<line x1="276.4" y1="300.0" x2="275.2" y2="292.0"/>
<line x1="280.4" y1="300.0" x2="279.2" y2="292.0"/>
</g>
<rect x="290.0" y="300.0" width="17.1" height="256.0" rx="3" fill="url(#soil)"/>
<rect x="290.0" y="445.9" width="17.1" height="110.1" rx="3" fill="url(#water)" opacity="0.9"/>
<g stroke="#8a6a3f" stroke-width="0.9" fill="none" opacity="0.55">
<path d="M298.6 300.0 l0 242.0"/>
<path d="M298.6 330.0 l-5 22 M298.6 360.0 l5 26 M298.6 410.0 l-4 24"/>
</g>
<g stroke="#5BAE5B" stroke-width="1.5" stroke-linecap="round">
<line x1="294.6" y1="300.0" x2="293.4" y2="292.0"/>
<line x1="298.6" y1="300.0" x2="297.4" y2="292.0"/>
<line x1="302.6" y1="300.0" x2="301.4" y2="292.0"/>
</g>
<rect x="312.1" y="300.0" width="17.1" height="256.0" rx="3" fill="url(#soil)"/>
<rect x="312.1" y="402.4" width="17.1" height="153.6" rx="3" fill="url(#water)" opacity="0.9"/>
<g stroke="#8a6a3f" stroke-width="0.9" fill="none" opacity="0.55">
<path d="M320.7 300.0 l0 242.0"/>
<path d="M320.7 330.0 l-5 22 M320.7 360.0 l5 26 M320.7 410.0 l-4 24"/>
</g>
<g stroke="#5BAE5B" stroke-width="1.5" stroke-linecap="round">
<line x1="316.7" y1="300.0" x2="315.5" y2="292.0"/>
<line x1="320.7" y1="300.0" x2="319.5" y2="292.0"/>
<line x1="324.7" y1="300.0" x2="323.5" y2="292.0"/>
</g>
<rect x="312.1" y="298.0" width="17.1" height="4" fill="#3FB28E"/>
<circle cx="320.7" cy="286.0" r="6.5" fill="#3FB28E"/>
<path d="M317.7 286.0 l2 2 l4 -4" stroke="#fff" stroke-width="1.4" fill="none" stroke-linecap="round" stroke-linejoin="round"/>
<rect x="334.2" y="300.0" width="17.1" height="256.0" rx="3" fill="url(#soil)"/>
<rect x="334.2" y="415.2" width="17.1" height="140.8" rx="3" fill="url(#water)" opacity="0.9"/>
<g stroke="#8a6a3f" stroke-width="0.9" fill="none" opacity="0.55">
<path d="M342.8 300.0 l0 242.0"/>
<path d="M342.8 330.0 l-5 22 M342.8 360.0 l5 26 M342.8 410.0 l-4 24"/>
</g>
<g stroke="#5BAE5B" stroke-width="1.5" stroke-linecap="round">
<line x1="338.8" y1="300.0" x2="337.6" y2="292.0"/>
<line x1="342.8" y1="300.0" x2="341.6" y2="292.0"/>
<line x1="346.8" y1="300.0" x2="345.6" y2="292.0"/>
</g>
<rect x="356.4" y="300.0" width="17.1" height="256.0" rx="3" fill="url(#soil)"/>
<rect x="356.4" y="428.0" width="17.1" height="128.0" rx="3" fill="url(#water)" opacity="0.9"/>
<g stroke="#8a6a3f" stroke-width="0.9" fill="none" opacity="0.55">
<path d="M364.9 300.0 l0 242.0"/>
<path d="M364.9 330.0 l-5 22 M364.9 360.0 l5 26 M364.9 410.0 l-4 24"/>
</g>
<g stroke="#5BAE5B" stroke-width="1.5" stroke-linecap="round">
<line x1="360.9" y1="300.0" x2="359.7" y2="292.0"/>
<line x1="364.9" y1="300.0" x2="363.7" y2="292.0"/>
<line x1="368.9" y1="300.0" x2="367.7" y2="292.0"/>
</g>
<line x1="20" y1="300.0" x2="378" y2="300.0" stroke="#8a6a3f" stroke-width="1" opacity="0.5"/>
<line x1="20" y1="428.0" x2="378" y2="428.0" stroke="#C45D5D" stroke-width="1.4" stroke-dasharray="5 4"/>
<rect x="20" y="419.0" width="72" height="14" rx="7" fill="#C45D5D"/>
<text x="56" y="429.0" font-size="8.5" font-weight="600" fill="#fff" text-anchor="middle">threshold 50%</text>
<circle cx="210.1" cy="397.3" r="3.2" fill="#fff" stroke="#2E8FC0" stroke-width="2"/>
<g transform="translate(222.1,387.3)"><rect width="44" height="20" rx="6" fill="#2E8FC0"/><text x="22" y="14" font-size="11" font-weight="700" fill="#fff" text-anchor="middle">62%</text></g>
<path d="M380 300.0 l4 0 M380 556.0 l4 0 M384 300.0 l0 256.0" fill="none" stroke="#6E8276" stroke-width="1"/>
<text x="386" y="428.0" font-size="8" fill="#6E8276" transform="rotate(90 386 428.0)" text-anchor="middle">root zone · 20 cm</text>
<text x="33.1" y="572.0" font-size="8" fill="#6E8276" text-anchor="middle">Th</text>
<text x="33.1" y="582.0" font-size="7.5" fill="#6E8276" text-anchor="middle">11</text>
<text x="55.2" y="572.0" font-size="8" fill="#6E8276" text-anchor="middle">Fr</text>
<text x="55.2" y="582.0" font-size="7.5" fill="#6E8276" text-anchor="middle">12</text>
<text x="77.3" y="572.0" font-size="8" fill="#6E8276" text-anchor="middle">Sa</text>
<text x="77.3" y="582.0" font-size="7.5" fill="#6E8276" text-anchor="middle">13</text>
<text x="99.4" y="572.0" font-size="8" fill="#6E8276" text-anchor="middle">Su</text>
<text x="99.4" y="582.0" font-size="7.5" fill="#6E8276" text-anchor="middle">14</text>
<text x="121.6" y="572.0" font-size="8" fill="#6E8276" text-anchor="middle">Mo</text>
<text x="121.6" y="582.0" font-size="7.5" fill="#6E8276" text-anchor="middle">15</text>
<text x="143.7" y="572.0" font-size="8" fill="#6E8276" text-anchor="middle">Tu</text>
<text x="143.7" y="582.0" font-size="7.5" fill="#6E8276" text-anchor="middle">16</text>
<text x="165.8" y="572.0" font-size="8" fill="#6E8276" text-anchor="middle">We</text>
<text x="165.8" y="582.0" font-size="7.5" fill="#6E8276" text-anchor="middle">17</text>
<text x="187.9" y="572.0" font-size="8" fill="#6E8276" text-anchor="middle">Th</text>
<text x="187.9" y="582.0" font-size="7.5" fill="#6E8276" text-anchor="middle">18</text>
<text x="210.1" y="572.0" font-size="8" fill="#2E8FC0" font-weight="700" text-anchor="middle">Fr</text>
<text x="210.1" y="582.0" font-size="7.5" fill="#2E8FC0" text-anchor="middle">19</text>
<text x="232.2" y="572.0" font-size="8" fill="#6E8276" text-anchor="middle">Sa</text>
<text x="232.2" y="582.0" font-size="7.5" fill="#6E8276" text-anchor="middle">20</text>
<text x="254.3" y="572.0" font-size="8" fill="#6E8276" text-anchor="middle">Su</text>
<text x="254.3" y="582.0" font-size="7.5" fill="#6E8276" text-anchor="middle">21</text>
<text x="276.4" y="572.0" font-size="8" fill="#6E8276" text-anchor="middle">Mo</text>
<text x="276.4" y="582.0" font-size="7.5" fill="#6E8276" text-anchor="middle">22</text>
<text x="298.6" y="572.0" font-size="8" fill="#6E8276" text-anchor="middle">Tu</text>
<text x="298.6" y="582.0" font-size="7.5" fill="#6E8276" text-anchor="middle">23</text>
<text x="320.7" y="572.0" font-size="8" fill="#6E8276" text-anchor="middle">We</text>
<text x="320.7" y="582.0" font-size="7.5" fill="#6E8276" text-anchor="middle">24</text>
<text x="342.8" y="572.0" font-size="8" fill="#6E8276" text-anchor="middle">Th</text>
<text x="342.8" y="582.0" font-size="7.5" fill="#6E8276" text-anchor="middle">25</text>
<text x="364.9" y="572.0" font-size="8" fill="#6E8276" text-anchor="middle">Fr</text>
<text x="364.9" y="582.0" font-size="7.5" fill="#6E8276" text-anchor="middle">26</text>
<text x="22" y="590" font-size="9" fill="#6E8276">Tap any day to water · tap again to undo</text>
<text x="22" y="628" font-size="10" font-weight="700" fill="#243B2E">Legend</text>
<rect x="22" y="639" width="14" height="14" rx="3" fill="url(#water)"/>
<text x="44" y="650" font-size="9.5" fill="#6E8276">soil water</text>
<line x1="172" y1="646" x2="187" y2="646" stroke="#C45D5D" stroke-width="1.6" stroke-dasharray="4 3"/>
<text x="194" y="650" font-size="9.5" fill="#6E8276">watering threshold</text>
<path d="M29 660 c3 4 4.5 6 4.5 8 a4.5 4.5 0 0 1 -9 0 c0 -2 1.5 -4 4.5 -8 Z" fill="[0, 0, 9.4, 0, 0, 0, 6.1, 0, 0, 0, 0, 0, 0, 0, 4.2, 0]"/><ellipse cx="27.5" cy="668.5" rx="1.4" ry="2.1" fill="#CDEBFB"/>
<text x="44" y="672" font-size="9.5" fill="#6E8276">rain in</text>
<path d="M179 673 l0 -10 M176 666 l3 -3 l3 3" fill="none" stroke="#E0913B" stroke-width="1.5" stroke-linecap="round" stroke-linejoin="round"/>
<text x="194" y="672" font-size="9.5" fill="#6E8276">ET loss</text>
<circle cx="29" cy="690" r="6.5" fill="#3FB28E"/>
<text x="44" y="694" font-size="9.5" fill="#6E8276">applied watering</text>
<text x="195.0" y="828" font-size="8" fill="#6E8276" text-anchor="middle">Open-Meteo forecast · 16-day run-up · nothing saved — resets on reload</text>
</svg>