<svg xmlns="http://www.w3.org/2000/svg" width="960" height="620" font-family="system-ui,Arial">
<rect width="960" height="620" fill="#ffffff"/>
<text x="20" y="30" font-size="20" font-weight="700">Electrical wiring from setup.wires</text>
<line x1="640" y1="22" x2="675" y2="22" stroke="#cc3333" stroke-width="4"/><text x="682" y="27" font-size="13">230 V</text>
<line x1="740" y1="22" x2="775" y2="22" stroke="#2266cc" stroke-width="4"/><text x="782" y="27" font-size="13">24 V</text>
<path d="M770,134 L680,132" stroke="#cc3333" stroke-width="2.5" fill="none"/>
<rect x="687" y="124" width="76" height="16" rx="3" fill="#fff" opacity="0.85"/>
<text x="725" y="137" font-size="11" fill="#cc3333" text-anchor="middle">live_pump</text>
<path d="M770,156 L270,285" stroke="#cc3333" stroke-width="2.5" fill="none"/>
<rect x="482" y="211" width="76" height="16" rx="3" fill="#fff" opacity="0.85"/>
<text x="520" y="224" font-size="11" fill="#cc3333" text-anchor="middle">neutral</text>
<path d="M270,264 L470,176" stroke="#cc3333" stroke-width="2.5" fill="none"/>
<rect x="332" y="211" width="76" height="16" rx="3" fill="#fff" opacity="0.85"/>
<text x="370" y="224" font-size="11" fill="#cc3333" text-anchor="middle">live</text>
<path d="M270,264 L470,176" stroke="#2266cc" stroke-width="2.5" fill="none"/>
<rect x="332" y="211" width="76" height="16" rx="3" fill="#fff" opacity="0.85"/>
<text x="370" y="224" font-size="11" fill="#2266cc" text-anchor="middle">signal_relay</text>
<path d="M141,400 L121,520" stroke="#2266cc" stroke-width="2.5" fill="none"/>
<rect x="93" y="451" width="76" height="16" rx="3" fill="#fff" opacity="0.85"/>
<text x="131" y="464" font-size="11" fill="#2266cc" text-anchor="middle">signal_1</text>
<path d="M215,400 L300,520" stroke="#2266cc" stroke-width="2.5" fill="none"/>
<rect x="220" y="451" width="76" height="16" rx="3" fill="#fff" opacity="0.85"/>
<text x="258" y="464" font-size="11" fill="#2266cc" text-anchor="middle">signal_2</text>
<path d="M270,388 L480,520" stroke="#2266cc" stroke-width="2.5" fill="none"/>
<rect x="337" y="445" width="76" height="16" rx="3" fill="#fff" opacity="0.85"/>
<text x="375" y="458" font-size="11" fill="#2266cc" text-anchor="middle">signal_3</text>
<path d="M270,362 L670,524" stroke="#2266cc" stroke-width="2.5" fill="none"/>
<rect x="432" y="434" width="76" height="16" rx="3" fill="#fff" opacity="0.85"/>
<text x="470" y="447" font-size="11" fill="#2266cc" text-anchor="middle">signal_4</text>
<path d="M270,264 L470,176" stroke="#2266cc" stroke-width="2.5" fill="none"/>
<rect x="332" y="211" width="76" height="16" rx="3" fill="#fff" opacity="0.85"/>
<text x="370" y="224" font-size="11" fill="#2266cc" text-anchor="middle">relay_common</text>
<path d="M141,400 L121,520" stroke="#2266cc" stroke-width="2.5" fill="none"/>
<rect x="93" y="451" width="76" height="16" rx="3" fill="#fff" opacity="0.85"/>
<text x="131" y="464" font-size="11" fill="#2266cc" text-anchor="middle">valve_common</text>
<path d="M215,400 L300,520" stroke="#2266cc" stroke-width="2.5" fill="none"/>
<rect x="220" y="451" width="76" height="16" rx="3" fill="#fff" opacity="0.85"/>
<text x="258" y="464" font-size="11" fill="#2266cc" text-anchor="middle">valve_common</text>
<path d="M270,388 L480,520" stroke="#2266cc" stroke-width="2.5" fill="none"/>
<rect x="337" y="445" width="76" height="16" rx="3" fill="#fff" opacity="0.85"/>
<text x="375" y="458" font-size="11" fill="#2266cc" text-anchor="middle">valve_common</text>
<path d="M270,362 L670,524" stroke="#2266cc" stroke-width="2.5" fill="none"/>
<rect x="432" y="434" width="76" height="16" rx="3" fill="#fff" opacity="0.85"/>
<text x="470" y="447" font-size="11" fill="#2266cc" text-anchor="middle">valve_common</text>
<rect x="40" y="230" width="230" height="170" rx="8" fill="#eef4ff" stroke="#333" stroke-width="1.5"/>
<text x="155" y="248" font-size="13" font-weight="700" text-anchor="middle">CONTROLLER</text>
<text x="155" y="263" font-size="11" font-weight="400" text-anchor="middle">RainMachine HD-16</text>
<text x="155" y="278" font-size="11" font-weight="400" text-anchor="middle">230V in - 24V out</text>
<text x="155" y="293" font-size="11" font-weight="400" text-anchor="middle">(transformer inside)</text>
<rect x="470" y="70" width="210" height="120" rx="8" fill="#eef4ff" stroke="#333" stroke-width="1.5"/>
<text x="575" y="88" font-size="13" font-weight="700" text-anchor="middle">RELAY PSR-22</text>
<text x="575" y="103" font-size="11" font-weight="400" text-anchor="middle">24V coil switches</text>
<text x="575" y="118" font-size="11" font-weight="400" text-anchor="middle">230V contact</text>
<rect x="770" y="90" width="160" height="90" rx="8" fill="#fff0ee" stroke="#333" stroke-width="1.5"/>
<text x="850" y="108" font-size="13" font-weight="700" text-anchor="middle">PUMP</text>
<text x="850" y="123" font-size="11" font-weight="400" text-anchor="middle">DAB JET 82 M</text>
<text x="850" y="138" font-size="11" font-weight="400" text-anchor="middle">230V motor</text>
<rect x="40" y="520" width="150" height="70" rx="8" fill="#eef4ff" stroke="#333" stroke-width="1.5"/>
<text x="115" y="538" font-size="13" font-weight="700" text-anchor="middle">Z1 valve</text>
<text x="115" y="553" font-size="11" font-weight="400" text-anchor="middle">24V solenoid</text>
<rect x="250" y="520" width="150" height="70" rx="8" fill="#eef4ff" stroke="#333" stroke-width="1.5"/>
<text x="325" y="538" font-size="13" font-weight="700" text-anchor="middle">Z2 valve</text>
<text x="325" y="553" font-size="11" font-weight="400" text-anchor="middle">24V solenoid</text>
<rect x="460" y="520" width="150" height="70" rx="8" fill="#eef4ff" stroke="#333" stroke-width="1.5"/>
<text x="535" y="538" font-size="13" font-weight="700" text-anchor="middle">Z3 valve</text>
<text x="535" y="553" font-size="11" font-weight="400" text-anchor="middle">24V solenoid</text>
<rect x="670" y="520" width="150" height="70" rx="8" fill="#eef4ff" stroke="#333" stroke-width="1.5"/>
<text x="745" y="538" font-size="13" font-weight="700" text-anchor="middle">Z4 valve</text>
<text x="745" y="553" font-size="11" font-weight="400" text-anchor="middle">24V solenoid</text>
</svg>