<svg xmlns="http://www.w3.org/2000/svg" width="980" height="1080" font-family="Segoe UI, Arial, sans-serif"><rect width="980" height="1080" fill="white"/><text x="18" y="28" font-size="20" font-weight="800" fill="#111">Irrigation fault simulator &#8212; 3 scenarios vs baseline</text><text x="18" y="50" font-size="12" fill="#555">Each panel is a live simulate() result painted on the pump&#8594;manifold&#8594;zone schematic. Head colour = grade; red-outlined valve = open while not commanded.</text><circle cx="24" cy="64" r="6" fill="#2e9e4f"/><text x="34" y="68" font-size="11" fill="#444">full / open</text><circle cx="134" cy="64" r="6" fill="#e0a106"/><text x="144" y="68" font-size="11" fill="#444">weak</text><circle cx="244" cy="64" r="6" fill="#e8590c"/><text x="254" y="68" font-size="11" fill="#444">won't-pop</text><circle cx="354" cy="64" r="6" fill="#9aa0a6"/><text x="364" y="68" font-size="11" fill="#444">dead / shut</text><g transform="translate(0,72)"><g transform="translate(0,0)"><rect x="2" y="2" width="976" height="246" rx="10" fill="#fbfbfd" stroke="#d4d7dc"/>
<text x="18" y="24" font-size="15" font-weight="700" fill="#1a1a1a">Baseline  -  Z1+Z2 commanded, no faults</text>
<text x="18" y="42" font-size="12.5" fill="#444">all running zones full   |   pump ON   |   total 3.068 m3/h</text>
<circle cx="26" cy="120" r="9" fill="#4c8bf5"/><text x="26" y="144" font-size="10" text-anchor="middle" fill="#555">well</text>
<line x1="35" y1="120" x2="80" y2="120" stroke="#4c8bf5" stroke-width="3"/>
<rect x="80" y="106" width="32" height="28" rx="5" fill="#2e9e4f"/><text x="96" y="125" font-size="11" text-anchor="middle" fill="white" font-weight="700">P</text><text x="96" y="150" font-size="10" text-anchor="middle" fill="#555">pump</text>
<line x1="112" y1="120" x2="166" y2="120" stroke="#4c8bf5" stroke-width="3"/>
<rect x="166" y="80" width="14" height="84" rx="4" fill="#6b7280"/><text x="173" y="178" font-size="10" text-anchor="middle" fill="#555">manifold</text>
<line x1="180" y1="120" x2="226" y2="78" stroke="#9bbcf7" stroke-width="2"/>
<rect x="226" y="69" width="18" height="18" rx="3" fill="#2e9e4f" stroke="#2e9e4f" stroke-width="1"/>
<text x="235" y="65" font-size="10" text-anchor="middle" fill="#333" font-weight="700">Z1</text>
<line x1="244" y1="78" x2="276" y2="78" stroke="#cfd4da" stroke-width="1.5"/>
<circle cx="285" cy="78" r="9" fill="#2e9e4f"/>
<text x="285" y="100" font-size="8.5" text-anchor="middle" fill="#666">head1</text>
<line x1="244" y1="78" x2="371" y2="78" stroke="#cfd4da" stroke-width="1.5"/>
<circle cx="380" cy="78" r="9" fill="#2e9e4f"/>
<text x="380" y="100" font-size="8.5" text-anchor="middle" fill="#666">head2</text>
<line x1="244" y1="78" x2="466" y2="78" stroke="#cfd4da" stroke-width="1.5"/>
<circle cx="475" cy="78" r="9" fill="#2e9e4f"/>
<text x="475" y="100" font-size="8.5" text-anchor="middle" fill="#666">head3</text>
<line x1="180" y1="120" x2="226" y2="114" stroke="#9bbcf7" stroke-width="2"/>
<rect x="226" y="105" width="18" height="18" rx="3" fill="#2e9e4f" stroke="#2e9e4f" stroke-width="1"/>
<text x="235" y="101" font-size="10" text-anchor="middle" fill="#333" font-weight="700">Z2</text>
<line x1="244" y1="114" x2="276" y2="114" stroke="#cfd4da" stroke-width="1.5"/>
<circle cx="285" cy="114" r="9" fill="#2e9e4f"/>
<text x="285" y="136" font-size="8.5" text-anchor="middle" fill="#666">head1</text>
<line x1="244" y1="114" x2="371" y2="114" stroke="#cfd4da" stroke-width="1.5"/>
<circle cx="380" cy="114" r="9" fill="#2e9e4f"/>
<text x="380" y="136" font-size="8.5" text-anchor="middle" fill="#666">head2</text>
<line x1="180" y1="120" x2="226" y2="150" stroke="#9bbcf7" stroke-width="2"/>
<rect x="226" y="141" width="18" height="18" rx="3" fill="#9aa0a6" stroke="#9aa0a6" stroke-width="1"/>
<text x="235" y="137" font-size="10" text-anchor="middle" fill="#333" font-weight="700">Z3</text>
<line x1="244" y1="150" x2="276" y2="150" stroke="#cfd4da" stroke-width="1.5"/>
<circle cx="285" cy="150" r="9" fill="#9aa0a6"/>
<text x="285" y="172" font-size="8.5" text-anchor="middle" fill="#666">head1</text>
<line x1="244" y1="150" x2="371" y2="150" stroke="#cfd4da" stroke-width="1.5"/>
<circle cx="380" cy="150" r="9" fill="#9aa0a6"/>
<text x="380" y="172" font-size="8.5" text-anchor="middle" fill="#666">head2</text>
<line x1="180" y1="120" x2="226" y2="186" stroke="#9bbcf7" stroke-width="2"/>
<rect x="226" y="177" width="18" height="18" rx="3" fill="#9aa0a6" stroke="#9aa0a6" stroke-width="1"/>
<text x="235" y="173" font-size="10" text-anchor="middle" fill="#333" font-weight="700">Z4</text>
<line x1="244" y1="186" x2="276" y2="186" stroke="#cfd4da" stroke-width="1.5"/>
<circle cx="285" cy="186" r="9" fill="#9aa0a6"/>
<text x="285" y="208" font-size="8.5" text-anchor="middle" fill="#666">head1</text>
<line x1="244" y1="186" x2="371" y2="186" stroke="#cfd4da" stroke-width="1.5"/>
<circle cx="380" cy="186" r="9" fill="#9aa0a6"/>
<text x="380" y="208" font-size="8.5" text-anchor="middle" fill="#666">head2</text>
<line x1="244" y1="186" x2="466" y2="186" stroke="#cfd4da" stroke-width="1.5"/>
<circle cx="475" cy="186" r="9" fill="#9aa0a6"/>
<text x="475" y="208" font-size="8.5" text-anchor="middle" fill="#666">head3</text>
<line x1="180" y1="120" x2="226" y2="222" stroke="#9bbcf7" stroke-width="2"/>
<rect x="226" y="213" width="18" height="18" rx="3" fill="#9aa0a6" stroke="#9aa0a6" stroke-width="1"/>
<text x="235" y="209" font-size="10" text-anchor="middle" fill="#333" font-weight="700">Z5(man)</text>
<line x1="244" y1="222" x2="276" y2="222" stroke="#cfd4da" stroke-width="1.5"/>
<circle cx="285" cy="222" r="9" fill="#9aa0a6"/>
<text x="285" y="244" font-size="8.5" text-anchor="middle" fill="#666">nozzle</text></g>
<g transform="translate(0,250)"><rect x="2" y="2" width="976" height="246" rx="10" fill="#fbfbfd" stroke="#d4d7dc"/>
<text x="18" y="24" font-size="15" font-weight="700" fill="#1a1a1a">S1 Electrical  -  cond.common broken (shared coil return)</text>
<text x="18" y="42" font-size="12.5" fill="#444">zones 1,2,3,4 dead   |   pump ON   |   total 0.0 m3/h</text>
<circle cx="26" cy="120" r="9" fill="#4c8bf5"/><text x="26" y="144" font-size="10" text-anchor="middle" fill="#555">well</text>
<line x1="35" y1="120" x2="80" y2="120" stroke="#4c8bf5" stroke-width="3"/>
<rect x="80" y="106" width="32" height="28" rx="5" fill="#2e9e4f"/><text x="96" y="125" font-size="11" text-anchor="middle" fill="white" font-weight="700">P</text><text x="96" y="150" font-size="10" text-anchor="middle" fill="#555">pump</text>
<line x1="112" y1="120" x2="166" y2="120" stroke="#4c8bf5" stroke-width="3"/>
<rect x="166" y="80" width="14" height="84" rx="4" fill="#6b7280"/><text x="173" y="178" font-size="10" text-anchor="middle" fill="#555">manifold</text>
<line x1="180" y1="120" x2="226" y2="78" stroke="#9bbcf7" stroke-width="2"/>
<rect x="226" y="69" width="18" height="18" rx="3" fill="#9aa0a6" stroke="#9aa0a6" stroke-width="1"/>
<text x="235" y="65" font-size="10" text-anchor="middle" fill="#333" font-weight="700">Z1</text>
<line x1="244" y1="78" x2="276" y2="78" stroke="#cfd4da" stroke-width="1.5"/>
<circle cx="285" cy="78" r="9" fill="#9aa0a6"/>
<text x="285" y="100" font-size="8.5" text-anchor="middle" fill="#666">head1</text>
<line x1="244" y1="78" x2="371" y2="78" stroke="#cfd4da" stroke-width="1.5"/>
<circle cx="380" cy="78" r="9" fill="#9aa0a6"/>
<text x="380" y="100" font-size="8.5" text-anchor="middle" fill="#666">head2</text>
<line x1="244" y1="78" x2="466" y2="78" stroke="#cfd4da" stroke-width="1.5"/>
<circle cx="475" cy="78" r="9" fill="#9aa0a6"/>
<text x="475" y="100" font-size="8.5" text-anchor="middle" fill="#666">head3</text>
<line x1="180" y1="120" x2="226" y2="114" stroke="#9bbcf7" stroke-width="2"/>
<rect x="226" y="105" width="18" height="18" rx="3" fill="#9aa0a6" stroke="#9aa0a6" stroke-width="1"/>
<text x="235" y="101" font-size="10" text-anchor="middle" fill="#333" font-weight="700">Z2</text>
<line x1="244" y1="114" x2="276" y2="114" stroke="#cfd4da" stroke-width="1.5"/>
<circle cx="285" cy="114" r="9" fill="#9aa0a6"/>
<text x="285" y="136" font-size="8.5" text-anchor="middle" fill="#666">head1</text>
<line x1="244" y1="114" x2="371" y2="114" stroke="#cfd4da" stroke-width="1.5"/>
<circle cx="380" cy="114" r="9" fill="#9aa0a6"/>
<text x="380" y="136" font-size="8.5" text-anchor="middle" fill="#666">head2</text>
<line x1="180" y1="120" x2="226" y2="150" stroke="#9bbcf7" stroke-width="2"/>
<rect x="226" y="141" width="18" height="18" rx="3" fill="#9aa0a6" stroke="#9aa0a6" stroke-width="1"/>
<text x="235" y="137" font-size="10" text-anchor="middle" fill="#333" font-weight="700">Z3</text>
<line x1="244" y1="150" x2="276" y2="150" stroke="#cfd4da" stroke-width="1.5"/>
<circle cx="285" cy="150" r="9" fill="#9aa0a6"/>
<text x="285" y="172" font-size="8.5" text-anchor="middle" fill="#666">head1</text>
<line x1="244" y1="150" x2="371" y2="150" stroke="#cfd4da" stroke-width="1.5"/>
<circle cx="380" cy="150" r="9" fill="#9aa0a6"/>
<text x="380" y="172" font-size="8.5" text-anchor="middle" fill="#666">head2</text>
<line x1="180" y1="120" x2="226" y2="186" stroke="#9bbcf7" stroke-width="2"/>
<rect x="226" y="177" width="18" height="18" rx="3" fill="#9aa0a6" stroke="#9aa0a6" stroke-width="1"/>
<text x="235" y="173" font-size="10" text-anchor="middle" fill="#333" font-weight="700">Z4</text>
<line x1="244" y1="186" x2="276" y2="186" stroke="#cfd4da" stroke-width="1.5"/>
<circle cx="285" cy="186" r="9" fill="#9aa0a6"/>
<text x="285" y="208" font-size="8.5" text-anchor="middle" fill="#666">head1</text>
<line x1="244" y1="186" x2="371" y2="186" stroke="#cfd4da" stroke-width="1.5"/>
<circle cx="380" cy="186" r="9" fill="#9aa0a6"/>
<text x="380" y="208" font-size="8.5" text-anchor="middle" fill="#666">head2</text>
<line x1="244" y1="186" x2="466" y2="186" stroke="#cfd4da" stroke-width="1.5"/>
<circle cx="475" cy="186" r="9" fill="#9aa0a6"/>
<text x="475" y="208" font-size="8.5" text-anchor="middle" fill="#666">head3</text>
<line x1="180" y1="120" x2="226" y2="222" stroke="#9bbcf7" stroke-width="2"/>
<rect x="226" y="213" width="18" height="18" rx="3" fill="#9aa0a6" stroke="#9aa0a6" stroke-width="1"/>
<text x="235" y="209" font-size="10" text-anchor="middle" fill="#333" font-weight="700">Z5(man)</text>
<line x1="244" y1="222" x2="276" y2="222" stroke="#cfd4da" stroke-width="1.5"/>
<circle cx="285" cy="222" r="9" fill="#9aa0a6"/>
<text x="285" y="244" font-size="8.5" text-anchor="middle" fill="#666">nozzle</text></g>
<g transform="translate(0,500)"><rect x="2" y="2" width="976" height="246" rx="10" fill="#fbfbfd" stroke="#d4d7dc"/>
<text x="18" y="24" font-size="15" font-weight="700" fill="#1a1a1a">S2 Valve pilot loop  -  Z1 metering_port clogged (only Z2 commanded)</text>
<text x="18" y="42" font-size="12.5" fill="#444">zones 1 running while off   |   pump ON   |   total 3.068 m3/h</text>
<circle cx="26" cy="120" r="9" fill="#4c8bf5"/><text x="26" y="144" font-size="10" text-anchor="middle" fill="#555">well</text>
<line x1="35" y1="120" x2="80" y2="120" stroke="#4c8bf5" stroke-width="3"/>
<rect x="80" y="106" width="32" height="28" rx="5" fill="#2e9e4f"/><text x="96" y="125" font-size="11" text-anchor="middle" fill="white" font-weight="700">P</text><text x="96" y="150" font-size="10" text-anchor="middle" fill="#555">pump</text>
<line x1="112" y1="120" x2="166" y2="120" stroke="#4c8bf5" stroke-width="3"/>
<rect x="166" y="80" width="14" height="84" rx="4" fill="#6b7280"/><text x="173" y="178" font-size="10" text-anchor="middle" fill="#555">manifold</text>
<line x1="180" y1="120" x2="226" y2="78" stroke="#9bbcf7" stroke-width="2"/>
<rect x="226" y="69" width="18" height="18" rx="3" fill="#2e9e4f" stroke="#d11" stroke-width="3"/>
<text x="235" y="65" font-size="10" text-anchor="middle" fill="#333" font-weight="700">Z1</text>
<line x1="244" y1="78" x2="276" y2="78" stroke="#cfd4da" stroke-width="1.5"/>
<circle cx="285" cy="78" r="9" fill="#2e9e4f"/>
<text x="285" y="100" font-size="8.5" text-anchor="middle" fill="#666">head1</text>
<line x1="244" y1="78" x2="371" y2="78" stroke="#cfd4da" stroke-width="1.5"/>
<circle cx="380" cy="78" r="9" fill="#2e9e4f"/>
<text x="380" y="100" font-size="8.5" text-anchor="middle" fill="#666">head2</text>
<line x1="244" y1="78" x2="466" y2="78" stroke="#cfd4da" stroke-width="1.5"/>
<circle cx="475" cy="78" r="9" fill="#2e9e4f"/>
<text x="475" y="100" font-size="8.5" text-anchor="middle" fill="#666">head3</text>
<line x1="180" y1="120" x2="226" y2="114" stroke="#9bbcf7" stroke-width="2"/>
<rect x="226" y="105" width="18" height="18" rx="3" fill="#2e9e4f" stroke="#2e9e4f" stroke-width="1"/>
<text x="235" y="101" font-size="10" text-anchor="middle" fill="#333" font-weight="700">Z2</text>
<line x1="244" y1="114" x2="276" y2="114" stroke="#cfd4da" stroke-width="1.5"/>
<circle cx="285" cy="114" r="9" fill="#2e9e4f"/>
<text x="285" y="136" font-size="8.5" text-anchor="middle" fill="#666">head1</text>
<line x1="244" y1="114" x2="371" y2="114" stroke="#cfd4da" stroke-width="1.5"/>
<circle cx="380" cy="114" r="9" fill="#2e9e4f"/>
<text x="380" y="136" font-size="8.5" text-anchor="middle" fill="#666">head2</text>
<line x1="180" y1="120" x2="226" y2="150" stroke="#9bbcf7" stroke-width="2"/>
<rect x="226" y="141" width="18" height="18" rx="3" fill="#9aa0a6" stroke="#9aa0a6" stroke-width="1"/>
<text x="235" y="137" font-size="10" text-anchor="middle" fill="#333" font-weight="700">Z3</text>
<line x1="244" y1="150" x2="276" y2="150" stroke="#cfd4da" stroke-width="1.5"/>
<circle cx="285" cy="150" r="9" fill="#9aa0a6"/>
<text x="285" y="172" font-size="8.5" text-anchor="middle" fill="#666">head1</text>
<line x1="244" y1="150" x2="371" y2="150" stroke="#cfd4da" stroke-width="1.5"/>
<circle cx="380" cy="150" r="9" fill="#9aa0a6"/>
<text x="380" y="172" font-size="8.5" text-anchor="middle" fill="#666">head2</text>
<line x1="180" y1="120" x2="226" y2="186" stroke="#9bbcf7" stroke-width="2"/>
<rect x="226" y="177" width="18" height="18" rx="3" fill="#9aa0a6" stroke="#9aa0a6" stroke-width="1"/>
<text x="235" y="173" font-size="10" text-anchor="middle" fill="#333" font-weight="700">Z4</text>
<line x1="244" y1="186" x2="276" y2="186" stroke="#cfd4da" stroke-width="1.5"/>
<circle cx="285" cy="186" r="9" fill="#9aa0a6"/>
<text x="285" y="208" font-size="8.5" text-anchor="middle" fill="#666">head1</text>
<line x1="244" y1="186" x2="371" y2="186" stroke="#cfd4da" stroke-width="1.5"/>
<circle cx="380" cy="186" r="9" fill="#9aa0a6"/>
<text x="380" y="208" font-size="8.5" text-anchor="middle" fill="#666">head2</text>
<line x1="244" y1="186" x2="466" y2="186" stroke="#cfd4da" stroke-width="1.5"/>
<circle cx="475" cy="186" r="9" fill="#9aa0a6"/>
<text x="475" y="208" font-size="8.5" text-anchor="middle" fill="#666">head3</text>
<line x1="180" y1="120" x2="226" y2="222" stroke="#9bbcf7" stroke-width="2"/>
<rect x="226" y="213" width="18" height="18" rx="3" fill="#9aa0a6" stroke="#9aa0a6" stroke-width="1"/>
<text x="235" y="209" font-size="10" text-anchor="middle" fill="#333" font-weight="700">Z5(man)</text>
<line x1="244" y1="222" x2="276" y2="222" stroke="#cfd4da" stroke-width="1.5"/>
<circle cx="285" cy="222" r="9" fill="#9aa0a6"/>
<text x="285" y="244" font-size="8.5" text-anchor="middle" fill="#666">nozzle</text></g>
<g transform="translate(0,750)"><rect x="2" y="2" width="976" height="246" rx="10" fill="#fbfbfd" stroke="#d4d7dc"/>
<text x="18" y="24" font-size="15" font-weight="700" fill="#1a1a1a">S3 Hydraulic leak  -  Z1.hose1 burst (Z1 commanded)</text>
<text x="18" y="42" font-size="12.5" fill="#444">zones 1 weak; 1 leak(s), biggest at Z1.hose1   |   pump ON   |   total 4.9612 m3/h</text>
<circle cx="26" cy="120" r="9" fill="#4c8bf5"/><text x="26" y="144" font-size="10" text-anchor="middle" fill="#555">well</text>
<line x1="35" y1="120" x2="80" y2="120" stroke="#4c8bf5" stroke-width="3"/>
<rect x="80" y="106" width="32" height="28" rx="5" fill="#2e9e4f"/><text x="96" y="125" font-size="11" text-anchor="middle" fill="white" font-weight="700">P</text><text x="96" y="150" font-size="10" text-anchor="middle" fill="#555">pump</text>
<line x1="112" y1="120" x2="166" y2="120" stroke="#4c8bf5" stroke-width="3"/>
<rect x="166" y="80" width="14" height="84" rx="4" fill="#6b7280"/><text x="173" y="178" font-size="10" text-anchor="middle" fill="#555">manifold</text>
<line x1="180" y1="120" x2="226" y2="78" stroke="#9bbcf7" stroke-width="2"/>
<rect x="226" y="69" width="18" height="18" rx="3" fill="#2e9e4f" stroke="#2e9e4f" stroke-width="1"/>
<text x="235" y="65" font-size="10" text-anchor="middle" fill="#333" font-weight="700">Z1</text>
<line x1="244" y1="78" x2="276" y2="78" stroke="#cfd4da" stroke-width="1.5"/>
<circle cx="285" cy="78" r="9" fill="#e0a106"/>
<text x="285" y="100" font-size="8.5" text-anchor="middle" fill="#666">head1</text>
<line x1="244" y1="78" x2="371" y2="78" stroke="#cfd4da" stroke-width="1.5"/>
<circle cx="380" cy="78" r="9" fill="#e8590c"/>
<text x="380" y="100" font-size="8.5" text-anchor="middle" fill="#666">head2</text>
<line x1="244" y1="78" x2="466" y2="78" stroke="#cfd4da" stroke-width="1.5"/>
<circle cx="475" cy="78" r="9" fill="#9aa0a6"/>
<text x="475" y="100" font-size="8.5" text-anchor="middle" fill="#666">head3</text>
<text x="256" y="82" font-size="16" fill="#d11">&#9889;</text><text x="256" y="96" font-size="8.5" fill="#d11">4.7556 m3/h leak</text>
<line x1="180" y1="120" x2="226" y2="114" stroke="#9bbcf7" stroke-width="2"/>
<rect x="226" y="105" width="18" height="18" rx="3" fill="#9aa0a6" stroke="#9aa0a6" stroke-width="1"/>
<text x="235" y="101" font-size="10" text-anchor="middle" fill="#333" font-weight="700">Z2</text>
<line x1="244" y1="114" x2="276" y2="114" stroke="#cfd4da" stroke-width="1.5"/>
<circle cx="285" cy="114" r="9" fill="#9aa0a6"/>
<text x="285" y="136" font-size="8.5" text-anchor="middle" fill="#666">head1</text>
<line x1="244" y1="114" x2="371" y2="114" stroke="#cfd4da" stroke-width="1.5"/>
<circle cx="380" cy="114" r="9" fill="#9aa0a6"/>
<text x="380" y="136" font-size="8.5" text-anchor="middle" fill="#666">head2</text>
<line x1="180" y1="120" x2="226" y2="150" stroke="#9bbcf7" stroke-width="2"/>
<rect x="226" y="141" width="18" height="18" rx="3" fill="#9aa0a6" stroke="#9aa0a6" stroke-width="1"/>
<text x="235" y="137" font-size="10" text-anchor="middle" fill="#333" font-weight="700">Z3</text>
<line x1="244" y1="150" x2="276" y2="150" stroke="#cfd4da" stroke-width="1.5"/>
<circle cx="285" cy="150" r="9" fill="#9aa0a6"/>
<text x="285" y="172" font-size="8.5" text-anchor="middle" fill="#666">head1</text>
<line x1="244" y1="150" x2="371" y2="150" stroke="#cfd4da" stroke-width="1.5"/>
<circle cx="380" cy="150" r="9" fill="#9aa0a6"/>
<text x="380" y="172" font-size="8.5" text-anchor="middle" fill="#666">head2</text>
<line x1="180" y1="120" x2="226" y2="186" stroke="#9bbcf7" stroke-width="2"/>
<rect x="226" y="177" width="18" height="18" rx="3" fill="#9aa0a6" stroke="#9aa0a6" stroke-width="1"/>
<text x="235" y="173" font-size="10" text-anchor="middle" fill="#333" font-weight="700">Z4</text>
<line x1="244" y1="186" x2="276" y2="186" stroke="#cfd4da" stroke-width="1.5"/>
<circle cx="285" cy="186" r="9" fill="#9aa0a6"/>
<text x="285" y="208" font-size="8.5" text-anchor="middle" fill="#666">head1</text>
<line x1="244" y1="186" x2="371" y2="186" stroke="#cfd4da" stroke-width="1.5"/>
<circle cx="380" cy="186" r="9" fill="#9aa0a6"/>
<text x="380" y="208" font-size="8.5" text-anchor="middle" fill="#666">head2</text>
<line x1="244" y1="186" x2="466" y2="186" stroke="#cfd4da" stroke-width="1.5"/>
<circle cx="475" cy="186" r="9" fill="#9aa0a6"/>
<text x="475" y="208" font-size="8.5" text-anchor="middle" fill="#666">head3</text>
<line x1="180" y1="120" x2="226" y2="222" stroke="#9bbcf7" stroke-width="2"/>
<rect x="226" y="213" width="18" height="18" rx="3" fill="#9aa0a6" stroke="#9aa0a6" stroke-width="1"/>
<text x="235" y="209" font-size="10" text-anchor="middle" fill="#333" font-weight="700">Z5(man)</text>
<line x1="244" y1="222" x2="276" y2="222" stroke="#cfd4da" stroke-width="1.5"/>
<circle cx="285" cy="222" r="9" fill="#9aa0a6"/>
<text x="285" y="244" font-size="8.5" text-anchor="middle" fill="#666">nozzle</text></g></g></svg>