<svg xmlns="http://www.w3.org/2000/svg" width="940" height="1558" font-family="Segoe UI, Arial, sans-serif"><rect width="940" height="1558" fill="white"/><text x="18" y="22" font-size="19" font-weight="800" fill="#111">Irrigation fault simulator &#8212; electrical ladder (controller, relay, wiring)</text><text x="18" y="40" font-size="11.5" fill="#555">Transformer hot bus &#8594; per-zone triac &#8594; field wire &#8594; solenoid coil, all returning on one shared COMMON bus to the transformer.</text><text x="18" y="55" font-size="11.5" fill="#555">The relay coil has its OWN return (so a broken common drops the zones but not the pump). Gold = energised, grey = dead, red &#10005; = injected fault.</text><g transform="translate(0,64)"><rect x="2" y="2" width="936" height="366" rx="9" fill="#fbfbfd" stroke="#d4d7dc"/><text x="40" y="22" font-size="15" font-weight="700" fill="#1a1a1a">Baseline  -  Z1+Z2 commanded, no faults</text><text x="40" y="40" font-size="12" fill="#444">pump ON (running)   |   coils energised: [1, 2]</text><rect x="90" y="62" width="40" height="266" rx="6" fill="#fff5e0" stroke="#b08a2e" stroke-width="1.2"/><text x="110" y="56" font-size="9" text-anchor="middle" fill="#7a5c12" font-weight="700">24 VAC</text><text x="110" y="338" font-size="8.5" text-anchor="middle" fill="#7a5c12">transformer (PSU)</text><rect x="40" y="70" width="12" height="14" rx="2" fill="#6b7280"/><text x="46" y="64" font-size="7.5" text-anchor="middle" fill="#555">mains</text><path d="M46,77 H68 V77 H90" fill="none" stroke="#e8a200" stroke-width="2.6"/><path d="M130,76 H160 V76 H190" fill="none" stroke="#e8a200" stroke-width="2.6"/><text x="190" y="62" font-size="8" text-anchor="middle" fill="#555">logic/hot</text><line x1="190" y1="76" x2="190" y2="314" stroke="#e8a200" stroke-width="2.6"/><text x="275" y="50" font-size="9" text-anchor="middle" fill="#9aa0a6">triac</text><text x="445" y="50" font-size="9" text-anchor="middle" fill="#9aa0a6">field wire</text><text x="580" y="50" font-size="9" text-anchor="middle" fill="#9aa0a6">solenoid coil</text><text x="700" y="50" font-size="9" text-anchor="middle" fill="#9aa0a6">return</text><path d="M190,76 H232 V76 H275" fill="none" stroke="#e8a200" stroke-width="2.6"/><circle cx="275" cy="76" r="5.5" fill="#e8a200" stroke="#9aa0a6" stroke-width="0.7"/><text x="275" y="65" font-size="8" text-anchor="middle" fill="#555">triac1</text><path d="M275,76 H360 V76 H445" fill="none" stroke="#e8a200" stroke-width="2.6"/><circle cx="445" cy="76" r="5.5" fill="#e8a200" stroke="#9aa0a6" stroke-width="0.7"/><text x="445" y="65" font-size="8" text-anchor="middle" fill="#555">field</text><path d="M445,76 H506 V76 H568" fill="none" stroke="#e8a200" stroke-width="2.6"/><rect x="569.0" y="68.0" width="22" height="16" rx="3" fill="#e8a200" stroke="#888"/><text x="580" y="65" font-size="8" text-anchor="middle" fill="#555">Z1 coil</text><path d="M592,76 H646 V76 H700" fill="none" stroke="#e8a200" stroke-width="2.6"/><circle cx="700" cy="76" r="5.5" fill="#e8a200" stroke="#9aa0a6" stroke-width="0.7"/><line x1="700" y1="76" x2="700" y2="260" stroke="#e8a200" stroke-width="2.2"/><path d="M190,120 H232 V120 H275" fill="none" stroke="#e8a200" stroke-width="2.6"/><circle cx="275" cy="120" r="5.5" fill="#e8a200" stroke="#9aa0a6" stroke-width="0.7"/><text x="275" y="109" font-size="8" text-anchor="middle" fill="#555">triac2</text><path d="M275,120 H360 V120 H445" fill="none" stroke="#e8a200" stroke-width="2.6"/><circle cx="445" cy="120" r="5.5" fill="#e8a200" stroke="#9aa0a6" stroke-width="0.7"/><text x="445" y="109" font-size="8" text-anchor="middle" fill="#555">field</text><path d="M445,120 H506 V120 H568" fill="none" stroke="#e8a200" stroke-width="2.6"/><rect x="569.0" y="112.0" width="22" height="16" rx="3" fill="#e8a200" stroke="#888"/><text x="580" y="109" font-size="8" text-anchor="middle" fill="#555">Z2 coil</text><path d="M592,120 H646 V120 H700" fill="none" stroke="#e8a200" stroke-width="2.6"/><circle cx="700" cy="120" r="5.5" fill="#e8a200" stroke="#9aa0a6" stroke-width="0.7"/><line x1="700" y1="120" x2="700" y2="260" stroke="#e8a200" stroke-width="2.2"/><path d="M190,164 H232 V164 H275" fill="none" stroke="#c9ced4" stroke-width="1.6"/><circle cx="275" cy="164" r="5.5" fill="#dfe3e8" stroke="#9aa0a6" stroke-width="0.7"/><text x="275" y="153" font-size="8" text-anchor="middle" fill="#555">triac3</text><path d="M275,164 H360 V164 H445" fill="none" stroke="#c9ced4" stroke-width="1.6"/><circle cx="445" cy="164" r="5.5" fill="#dfe3e8" stroke="#9aa0a6" stroke-width="0.7"/><text x="445" y="153" font-size="8" text-anchor="middle" fill="#555">field</text><path d="M445,164 H506 V164 H568" fill="none" stroke="#c9ced4" stroke-width="1.6"/><rect x="569.0" y="156.0" width="22" height="16" rx="3" fill="#dfe3e8" stroke="#888"/><text x="580" y="153" font-size="8" text-anchor="middle" fill="#555">Z3 coil</text><path d="M592,164 H646 V164 H700" fill="none" stroke="#c9ced4" stroke-width="1.6"/><circle cx="700" cy="164" r="5.5" fill="#dfe3e8" stroke="#9aa0a6" stroke-width="0.7"/><line x1="700" y1="164" x2="700" y2="260" stroke="#dfe3e8" stroke-width="2.2"/><path d="M190,208 H232 V208 H275" fill="none" stroke="#c9ced4" stroke-width="1.6"/><circle cx="275" cy="208" r="5.5" fill="#dfe3e8" stroke="#9aa0a6" stroke-width="0.7"/><text x="275" y="197" font-size="8" text-anchor="middle" fill="#555">triac4</text><path d="M275,208 H360 V208 H445" fill="none" stroke="#c9ced4" stroke-width="1.6"/><circle cx="445" cy="208" r="5.5" fill="#dfe3e8" stroke="#9aa0a6" stroke-width="0.7"/><text x="445" y="197" font-size="8" text-anchor="middle" fill="#555">field</text><path d="M445,208 H506 V208 H568" fill="none" stroke="#c9ced4" stroke-width="1.6"/><rect x="569.0" y="200.0" width="22" height="16" rx="3" fill="#dfe3e8" stroke="#888"/><text x="580" y="197" font-size="8" text-anchor="middle" fill="#555">Z4 coil</text><path d="M592,208 H646 V208 H700" fill="none" stroke="#c9ced4" stroke-width="1.6"/><circle cx="700" cy="208" r="5.5" fill="#dfe3e8" stroke="#9aa0a6" stroke-width="0.7"/><line x1="700" y1="208" x2="700" y2="260" stroke="#dfe3e8" stroke-width="2.2"/><line x1="190" y1="260" x2="700" y2="260" stroke="#e8a200" stroke-width="3.4"/><text x="445.0" y="275" font-size="8.5" text-anchor="middle" fill="#555">COMMON return bus (cond.common)</text><line x1="190" y1="260" x2="130" y2="260" stroke="#e8a200" stroke-width="3.4"/><line x1="130" y1="260" x2="130" y2="314" stroke="#e8a200" stroke-width="3.4"/><path d="M190,314 H232 V314 H275" fill="none" stroke="#e8a200" stroke-width="2.6"/><circle cx="275" cy="314" r="5.5" fill="#e8a200" stroke="#9aa0a6" stroke-width="0.7"/><text x="275" y="303" font-size="8" text-anchor="middle" fill="#555">pump tap</text><path d="M275,314 H360 V314 H445" fill="none" stroke="#e8a200" stroke-width="2.6"/><circle cx="445" cy="314" r="5.5" fill="#e8a200" stroke="#9aa0a6" stroke-width="0.7"/><text x="445" y="303" font-size="8" text-anchor="middle" fill="#555">sig</text><path d="M445,314 H506 V314 H568" fill="none" stroke="#e8a200" stroke-width="2.6"/><rect x="569.0" y="306.0" width="22" height="16" rx="3" fill="#e8a200" stroke="#888"/><text x="580" y="303" font-size="8" text-anchor="middle" fill="#555">relay coil</text><path d="M592,314 H646 V314 H700" fill="none" stroke="#e8a200" stroke-width="2.6"/><circle cx="700" cy="314" r="5.5" fill="#e8a200" stroke="#9aa0a6" stroke-width="0.7"/><text x="700" y="303" font-size="8" text-anchor="middle" fill="#555">rcom</text><line x1="700" y1="314" x2="700" y2="330" stroke="#e8a200" stroke-width="2"/><line x1="122" y1="330" x2="700" y2="330" stroke="#e8a200" stroke-width="2"/><line x1="122" y1="314" x2="122" y2="330" stroke="#e8a200" stroke-width="2"/><text x="405.0" y="342" font-size="8" text-anchor="middle" fill="#9a7" >relay common (separate return -> not shared)</text><rect x="44" y="355" width="880" height="34" rx="6" fill="#fbf0f0" stroke="#e2b6b6" stroke-dasharray="4 3"/><text x="52" y="351" font-size="8.5" fill="#b06">230 V power side &#8212; modelled as a chain, not a closed loop (no neutral / capacitor; see sim_spec)</text><rect x="80" y="363" width="14" height="14" rx="2" fill="#6b7280"/><text x="87" y="359" font-size="7" text-anchor="middle" fill="#555">230V</text><path d="M94,370 H142 V370 H190" fill="none" stroke="#e8a200" stroke-width="2.6"/><path d="M190,370 H190 V370 H190" fill="none" stroke="#e8a200" stroke-width="2.6"/><circle cx="190" cy="370" r="5.5" fill="#e8a200" stroke="#9aa0a6" stroke-width="0.7"/><text x="190" y="359" font-size="8" text-anchor="middle" fill="#555">line</text><path d="M190,370 H265 V370 H340" fill="none" stroke="#e8a200" stroke-width="2.6"/><circle cx="340" cy="370" r="5.5" fill="#e8a200" stroke="#9aa0a6" stroke-width="0.7"/><text x="340" y="359" font-size="8" text-anchor="middle" fill="#555">contactor</text><path d="M340,370 H425 V370 H510" fill="none" stroke="#e8a200" stroke-width="2.6"/><circle cx="510" cy="370" r="12" fill="#2e9e4f" stroke="#555"/><text x="510" y="374" font-size="10" text-anchor="middle" fill="white" font-weight="700">M</text><text x="510" y="359" font-size="8" text-anchor="middle" fill="#555">motor</text><text x="510" y="392" font-size="8" text-anchor="middle" fill="#b06">(open end &#8212; no modelled neutral)</text></g><g transform="translate(0,436)"><rect x="2" y="2" width="936" height="366" rx="9" fill="#fbfbfd" stroke="#d4d7dc"/><text x="40" y="22" font-size="15" font-weight="700" fill="#1a1a1a">S1 Electrical  -  cond.common broken (shared coil return)</text><text x="40" y="40" font-size="12" fill="#444">pump ON (running)   |   coils energised: none</text><rect x="90" y="62" width="40" height="266" rx="6" fill="#fff5e0" stroke="#b08a2e" stroke-width="1.2"/><text x="110" y="56" font-size="9" text-anchor="middle" fill="#7a5c12" font-weight="700">24 VAC</text><text x="110" y="338" font-size="8.5" text-anchor="middle" fill="#7a5c12">transformer (PSU)</text><rect x="40" y="70" width="12" height="14" rx="2" fill="#6b7280"/><text x="46" y="64" font-size="7.5" text-anchor="middle" fill="#555">mains</text><path d="M46,77 H68 V77 H90" fill="none" stroke="#e8a200" stroke-width="2.6"/><path d="M130,76 H160 V76 H190" fill="none" stroke="#e8a200" stroke-width="2.6"/><text x="190" y="62" font-size="8" text-anchor="middle" fill="#555">logic/hot</text><line x1="190" y1="76" x2="190" y2="314" stroke="#e8a200" stroke-width="2.6"/><text x="275" y="50" font-size="9" text-anchor="middle" fill="#9aa0a6">triac</text><text x="445" y="50" font-size="9" text-anchor="middle" fill="#9aa0a6">field wire</text><text x="580" y="50" font-size="9" text-anchor="middle" fill="#9aa0a6">solenoid coil</text><text x="700" y="50" font-size="9" text-anchor="middle" fill="#9aa0a6">return</text><path d="M190,76 H232 V76 H275" fill="none" stroke="#c9ced4" stroke-width="1.6"/><circle cx="275" cy="76" r="5.5" fill="#dfe3e8" stroke="#9aa0a6" stroke-width="0.7"/><text x="275" y="65" font-size="8" text-anchor="middle" fill="#555">triac1</text><path d="M275,76 H360 V76 H445" fill="none" stroke="#c9ced4" stroke-width="1.6"/><circle cx="445" cy="76" r="5.5" fill="#dfe3e8" stroke="#9aa0a6" stroke-width="0.7"/><text x="445" y="65" font-size="8" text-anchor="middle" fill="#555">field</text><path d="M445,76 H506 V76 H568" fill="none" stroke="#c9ced4" stroke-width="1.6"/><rect x="569.0" y="68.0" width="22" height="16" rx="3" fill="#dfe3e8" stroke="#888"/><text x="580" y="65" font-size="8" text-anchor="middle" fill="#555">Z1 coil</text><path d="M592,76 H646 V76 H700" fill="none" stroke="#c9ced4" stroke-width="1.6"/><circle cx="700" cy="76" r="5.5" fill="#dfe3e8" stroke="#9aa0a6" stroke-width="0.7"/><line x1="700" y1="76" x2="700" y2="260" stroke="#dfe3e8" stroke-width="2.2"/><path d="M190,120 H232 V120 H275" fill="none" stroke="#c9ced4" stroke-width="1.6"/><circle cx="275" cy="120" r="5.5" fill="#dfe3e8" stroke="#9aa0a6" stroke-width="0.7"/><text x="275" y="109" font-size="8" text-anchor="middle" fill="#555">triac2</text><path d="M275,120 H360 V120 H445" fill="none" stroke="#c9ced4" stroke-width="1.6"/><circle cx="445" cy="120" r="5.5" fill="#dfe3e8" stroke="#9aa0a6" stroke-width="0.7"/><text x="445" y="109" font-size="8" text-anchor="middle" fill="#555">field</text><path d="M445,120 H506 V120 H568" fill="none" stroke="#c9ced4" stroke-width="1.6"/><rect x="569.0" y="112.0" width="22" height="16" rx="3" fill="#dfe3e8" stroke="#888"/><text x="580" y="109" font-size="8" text-anchor="middle" fill="#555">Z2 coil</text><path d="M592,120 H646 V120 H700" fill="none" stroke="#c9ced4" stroke-width="1.6"/><circle cx="700" cy="120" r="5.5" fill="#dfe3e8" stroke="#9aa0a6" stroke-width="0.7"/><line x1="700" y1="120" x2="700" y2="260" stroke="#dfe3e8" stroke-width="2.2"/><path d="M190,164 H232 V164 H275" fill="none" stroke="#c9ced4" stroke-width="1.6"/><circle cx="275" cy="164" r="5.5" fill="#dfe3e8" stroke="#9aa0a6" stroke-width="0.7"/><text x="275" y="153" font-size="8" text-anchor="middle" fill="#555">triac3</text><path d="M275,164 H360 V164 H445" fill="none" stroke="#c9ced4" stroke-width="1.6"/><circle cx="445" cy="164" r="5.5" fill="#dfe3e8" stroke="#9aa0a6" stroke-width="0.7"/><text x="445" y="153" font-size="8" text-anchor="middle" fill="#555">field</text><path d="M445,164 H506 V164 H568" fill="none" stroke="#c9ced4" stroke-width="1.6"/><rect x="569.0" y="156.0" width="22" height="16" rx="3" fill="#dfe3e8" stroke="#888"/><text x="580" y="153" font-size="8" text-anchor="middle" fill="#555">Z3 coil</text><path d="M592,164 H646 V164 H700" fill="none" stroke="#c9ced4" stroke-width="1.6"/><circle cx="700" cy="164" r="5.5" fill="#dfe3e8" stroke="#9aa0a6" stroke-width="0.7"/><line x1="700" y1="164" x2="700" y2="260" stroke="#dfe3e8" stroke-width="2.2"/><path d="M190,208 H232 V208 H275" fill="none" stroke="#c9ced4" stroke-width="1.6"/><circle cx="275" cy="208" r="5.5" fill="#dfe3e8" stroke="#9aa0a6" stroke-width="0.7"/><text x="275" y="197" font-size="8" text-anchor="middle" fill="#555">triac4</text><path d="M275,208 H360 V208 H445" fill="none" stroke="#c9ced4" stroke-width="1.6"/><circle cx="445" cy="208" r="5.5" fill="#dfe3e8" stroke="#9aa0a6" stroke-width="0.7"/><text x="445" y="197" font-size="8" text-anchor="middle" fill="#555">field</text><path d="M445,208 H506 V208 H568" fill="none" stroke="#c9ced4" stroke-width="1.6"/><rect x="569.0" y="200.0" width="22" height="16" rx="3" fill="#dfe3e8" stroke="#888"/><text x="580" y="197" font-size="8" text-anchor="middle" fill="#555">Z4 coil</text><path d="M592,208 H646 V208 H700" fill="none" stroke="#c9ced4" stroke-width="1.6"/><circle cx="700" cy="208" r="5.5" fill="#dfe3e8" stroke="#9aa0a6" stroke-width="0.7"/><line x1="700" y1="208" x2="700" y2="260" stroke="#dfe3e8" stroke-width="2.2"/><line x1="190" y1="260" x2="700" y2="260" stroke="#dfe3e8" stroke-width="3.4"/><text x="445.0" y="275" font-size="8.5" text-anchor="middle" fill="#555">COMMON return bus (cond.common)</text><line x1="190" y1="260" x2="130" y2="260" stroke="#dfe3e8" stroke-width="3.4"/><line x1="130" y1="260" x2="130" y2="314" stroke="#dfe3e8" stroke-width="3.4"/><line x1="436.0" y1="251" x2="454.0" y2="269" stroke="#d11" stroke-width="2"/><line x1="454.0" y1="251" x2="436.0" y2="269" stroke="#d11" stroke-width="2"/><text x="445.0" y="245" font-size="8.5" text-anchor="middle" fill="#d11" font-weight="700">broken</text><path d="M190,314 H232 V314 H275" fill="none" stroke="#e8a200" stroke-width="2.6"/><circle cx="275" cy="314" r="5.5" fill="#e8a200" stroke="#9aa0a6" stroke-width="0.7"/><text x="275" y="303" font-size="8" text-anchor="middle" fill="#555">pump tap</text><path d="M275,314 H360 V314 H445" fill="none" stroke="#e8a200" stroke-width="2.6"/><circle cx="445" cy="314" r="5.5" fill="#e8a200" stroke="#9aa0a6" stroke-width="0.7"/><text x="445" y="303" font-size="8" text-anchor="middle" fill="#555">sig</text><path d="M445,314 H506 V314 H568" fill="none" stroke="#e8a200" stroke-width="2.6"/><rect x="569.0" y="306.0" width="22" height="16" rx="3" fill="#e8a200" stroke="#888"/><text x="580" y="303" font-size="8" text-anchor="middle" fill="#555">relay coil</text><path d="M592,314 H646 V314 H700" fill="none" stroke="#e8a200" stroke-width="2.6"/><circle cx="700" cy="314" r="5.5" fill="#e8a200" stroke="#9aa0a6" stroke-width="0.7"/><text x="700" y="303" font-size="8" text-anchor="middle" fill="#555">rcom</text><line x1="700" y1="314" x2="700" y2="330" stroke="#e8a200" stroke-width="2"/><line x1="122" y1="330" x2="700" y2="330" stroke="#e8a200" stroke-width="2"/><line x1="122" y1="314" x2="122" y2="330" stroke="#e8a200" stroke-width="2"/><text x="405.0" y="342" font-size="8" text-anchor="middle" fill="#9a7" >relay common (separate return -> not shared)</text><rect x="44" y="355" width="880" height="34" rx="6" fill="#fbf0f0" stroke="#e2b6b6" stroke-dasharray="4 3"/><text x="52" y="351" font-size="8.5" fill="#b06">230 V power side &#8212; modelled as a chain, not a closed loop (no neutral / capacitor; see sim_spec)</text><rect x="80" y="363" width="14" height="14" rx="2" fill="#6b7280"/><text x="87" y="359" font-size="7" text-anchor="middle" fill="#555">230V</text><path d="M94,370 H142 V370 H190" fill="none" stroke="#e8a200" stroke-width="2.6"/><path d="M190,370 H190 V370 H190" fill="none" stroke="#e8a200" stroke-width="2.6"/><circle cx="190" cy="370" r="5.5" fill="#e8a200" stroke="#9aa0a6" stroke-width="0.7"/><text x="190" y="359" font-size="8" text-anchor="middle" fill="#555">line</text><path d="M190,370 H265 V370 H340" fill="none" stroke="#e8a200" stroke-width="2.6"/><circle cx="340" cy="370" r="5.5" fill="#e8a200" stroke="#9aa0a6" stroke-width="0.7"/><text x="340" y="359" font-size="8" text-anchor="middle" fill="#555">contactor</text><path d="M340,370 H425 V370 H510" fill="none" stroke="#e8a200" stroke-width="2.6"/><circle cx="510" cy="370" r="12" fill="#2e9e4f" stroke="#555"/><text x="510" y="374" font-size="10" text-anchor="middle" fill="white" font-weight="700">M</text><text x="510" y="359" font-size="8" text-anchor="middle" fill="#555">motor</text><text x="510" y="392" font-size="8" text-anchor="middle" fill="#b06">(open end &#8212; no modelled neutral)</text></g><g transform="translate(0,808)"><rect x="2" y="2" width="936" height="366" rx="9" fill="#fbfbfd" stroke="#d4d7dc"/><text x="40" y="22" font-size="15" font-weight="700" fill="#1a1a1a">S2 Valve pilot loop  -  Z1 metering_port clogged (only Z2 commanded)</text><text x="40" y="40" font-size="12" fill="#444">pump ON (running)   |   coils energised: [2]</text><rect x="90" y="62" width="40" height="266" rx="6" fill="#fff5e0" stroke="#b08a2e" stroke-width="1.2"/><text x="110" y="56" font-size="9" text-anchor="middle" fill="#7a5c12" font-weight="700">24 VAC</text><text x="110" y="338" font-size="8.5" text-anchor="middle" fill="#7a5c12">transformer (PSU)</text><rect x="40" y="70" width="12" height="14" rx="2" fill="#6b7280"/><text x="46" y="64" font-size="7.5" text-anchor="middle" fill="#555">mains</text><path d="M46,77 H68 V77 H90" fill="none" stroke="#e8a200" stroke-width="2.6"/><path d="M130,76 H160 V76 H190" fill="none" stroke="#e8a200" stroke-width="2.6"/><text x="190" y="62" font-size="8" text-anchor="middle" fill="#555">logic/hot</text><line x1="190" y1="76" x2="190" y2="314" stroke="#e8a200" stroke-width="2.6"/><text x="275" y="50" font-size="9" text-anchor="middle" fill="#9aa0a6">triac</text><text x="445" y="50" font-size="9" text-anchor="middle" fill="#9aa0a6">field wire</text><text x="580" y="50" font-size="9" text-anchor="middle" fill="#9aa0a6">solenoid coil</text><text x="700" y="50" font-size="9" text-anchor="middle" fill="#9aa0a6">return</text><path d="M190,76 H232 V76 H275" fill="none" stroke="#c9ced4" stroke-width="1.6"/><circle cx="275" cy="76" r="5.5" fill="#dfe3e8" stroke="#9aa0a6" stroke-width="0.7"/><text x="275" y="65" font-size="8" text-anchor="middle" fill="#555">triac1</text><path d="M275,76 H360 V76 H445" fill="none" stroke="#c9ced4" stroke-width="1.6"/><circle cx="445" cy="76" r="5.5" fill="#dfe3e8" stroke="#9aa0a6" stroke-width="0.7"/><text x="445" y="65" font-size="8" text-anchor="middle" fill="#555">field</text><path d="M445,76 H506 V76 H568" fill="none" stroke="#c9ced4" stroke-width="1.6"/><rect x="569.0" y="68.0" width="22" height="16" rx="3" fill="#dfe3e8" stroke="#888"/><text x="580" y="65" font-size="8" text-anchor="middle" fill="#555">Z1 coil</text><path d="M592,76 H646 V76 H700" fill="none" stroke="#c9ced4" stroke-width="1.6"/><circle cx="700" cy="76" r="5.5" fill="#dfe3e8" stroke="#9aa0a6" stroke-width="0.7"/><line x1="700" y1="76" x2="700" y2="260" stroke="#dfe3e8" stroke-width="2.2"/><path d="M190,120 H232 V120 H275" fill="none" stroke="#e8a200" stroke-width="2.6"/><circle cx="275" cy="120" r="5.5" fill="#e8a200" stroke="#9aa0a6" stroke-width="0.7"/><text x="275" y="109" font-size="8" text-anchor="middle" fill="#555">triac2</text><path d="M275,120 H360 V120 H445" fill="none" stroke="#e8a200" stroke-width="2.6"/><circle cx="445" cy="120" r="5.5" fill="#e8a200" stroke="#9aa0a6" stroke-width="0.7"/><text x="445" y="109" font-size="8" text-anchor="middle" fill="#555">field</text><path d="M445,120 H506 V120 H568" fill="none" stroke="#e8a200" stroke-width="2.6"/><rect x="569.0" y="112.0" width="22" height="16" rx="3" fill="#e8a200" stroke="#888"/><text x="580" y="109" font-size="8" text-anchor="middle" fill="#555">Z2 coil</text><path d="M592,120 H646 V120 H700" fill="none" stroke="#e8a200" stroke-width="2.6"/><circle cx="700" cy="120" r="5.5" fill="#e8a200" stroke="#9aa0a6" stroke-width="0.7"/><line x1="700" y1="120" x2="700" y2="260" stroke="#e8a200" stroke-width="2.2"/><path d="M190,164 H232 V164 H275" fill="none" stroke="#c9ced4" stroke-width="1.6"/><circle cx="275" cy="164" r="5.5" fill="#dfe3e8" stroke="#9aa0a6" stroke-width="0.7"/><text x="275" y="153" font-size="8" text-anchor="middle" fill="#555">triac3</text><path d="M275,164 H360 V164 H445" fill="none" stroke="#c9ced4" stroke-width="1.6"/><circle cx="445" cy="164" r="5.5" fill="#dfe3e8" stroke="#9aa0a6" stroke-width="0.7"/><text x="445" y="153" font-size="8" text-anchor="middle" fill="#555">field</text><path d="M445,164 H506 V164 H568" fill="none" stroke="#c9ced4" stroke-width="1.6"/><rect x="569.0" y="156.0" width="22" height="16" rx="3" fill="#dfe3e8" stroke="#888"/><text x="580" y="153" font-size="8" text-anchor="middle" fill="#555">Z3 coil</text><path d="M592,164 H646 V164 H700" fill="none" stroke="#c9ced4" stroke-width="1.6"/><circle cx="700" cy="164" r="5.5" fill="#dfe3e8" stroke="#9aa0a6" stroke-width="0.7"/><line x1="700" y1="164" x2="700" y2="260" stroke="#dfe3e8" stroke-width="2.2"/><path d="M190,208 H232 V208 H275" fill="none" stroke="#c9ced4" stroke-width="1.6"/><circle cx="275" cy="208" r="5.5" fill="#dfe3e8" stroke="#9aa0a6" stroke-width="0.7"/><text x="275" y="197" font-size="8" text-anchor="middle" fill="#555">triac4</text><path d="M275,208 H360 V208 H445" fill="none" stroke="#c9ced4" stroke-width="1.6"/><circle cx="445" cy="208" r="5.5" fill="#dfe3e8" stroke="#9aa0a6" stroke-width="0.7"/><text x="445" y="197" font-size="8" text-anchor="middle" fill="#555">field</text><path d="M445,208 H506 V208 H568" fill="none" stroke="#c9ced4" stroke-width="1.6"/><rect x="569.0" y="200.0" width="22" height="16" rx="3" fill="#dfe3e8" stroke="#888"/><text x="580" y="197" font-size="8" text-anchor="middle" fill="#555">Z4 coil</text><path d="M592,208 H646 V208 H700" fill="none" stroke="#c9ced4" stroke-width="1.6"/><circle cx="700" cy="208" r="5.5" fill="#dfe3e8" stroke="#9aa0a6" stroke-width="0.7"/><line x1="700" y1="208" x2="700" y2="260" stroke="#dfe3e8" stroke-width="2.2"/><line x1="190" y1="260" x2="700" y2="260" stroke="#e8a200" stroke-width="3.4"/><text x="445.0" y="275" font-size="8.5" text-anchor="middle" fill="#555">COMMON return bus (cond.common)</text><line x1="190" y1="260" x2="130" y2="260" stroke="#e8a200" stroke-width="3.4"/><line x1="130" y1="260" x2="130" y2="314" stroke="#e8a200" stroke-width="3.4"/><path d="M190,314 H232 V314 H275" fill="none" stroke="#e8a200" stroke-width="2.6"/><circle cx="275" cy="314" r="5.5" fill="#e8a200" stroke="#9aa0a6" stroke-width="0.7"/><text x="275" y="303" font-size="8" text-anchor="middle" fill="#555">pump tap</text><path d="M275,314 H360 V314 H445" fill="none" stroke="#e8a200" stroke-width="2.6"/><circle cx="445" cy="314" r="5.5" fill="#e8a200" stroke="#9aa0a6" stroke-width="0.7"/><text x="445" y="303" font-size="8" text-anchor="middle" fill="#555">sig</text><path d="M445,314 H506 V314 H568" fill="none" stroke="#e8a200" stroke-width="2.6"/><rect x="569.0" y="306.0" width="22" height="16" rx="3" fill="#e8a200" stroke="#888"/><text x="580" y="303" font-size="8" text-anchor="middle" fill="#555">relay coil</text><path d="M592,314 H646 V314 H700" fill="none" stroke="#e8a200" stroke-width="2.6"/><circle cx="700" cy="314" r="5.5" fill="#e8a200" stroke="#9aa0a6" stroke-width="0.7"/><text x="700" y="303" font-size="8" text-anchor="middle" fill="#555">rcom</text><line x1="700" y1="314" x2="700" y2="330" stroke="#e8a200" stroke-width="2"/><line x1="122" y1="330" x2="700" y2="330" stroke="#e8a200" stroke-width="2"/><line x1="122" y1="314" x2="122" y2="330" stroke="#e8a200" stroke-width="2"/><text x="405.0" y="342" font-size="8" text-anchor="middle" fill="#9a7" >relay common (separate return -> not shared)</text><rect x="44" y="355" width="880" height="34" rx="6" fill="#fbf0f0" stroke="#e2b6b6" stroke-dasharray="4 3"/><text x="52" y="351" font-size="8.5" fill="#b06">230 V power side &#8212; modelled as a chain, not a closed loop (no neutral / capacitor; see sim_spec)</text><rect x="80" y="363" width="14" height="14" rx="2" fill="#6b7280"/><text x="87" y="359" font-size="7" text-anchor="middle" fill="#555">230V</text><path d="M94,370 H142 V370 H190" fill="none" stroke="#e8a200" stroke-width="2.6"/><path d="M190,370 H190 V370 H190" fill="none" stroke="#e8a200" stroke-width="2.6"/><circle cx="190" cy="370" r="5.5" fill="#e8a200" stroke="#9aa0a6" stroke-width="0.7"/><text x="190" y="359" font-size="8" text-anchor="middle" fill="#555">line</text><path d="M190,370 H265 V370 H340" fill="none" stroke="#e8a200" stroke-width="2.6"/><circle cx="340" cy="370" r="5.5" fill="#e8a200" stroke="#9aa0a6" stroke-width="0.7"/><text x="340" y="359" font-size="8" text-anchor="middle" fill="#555">contactor</text><path d="M340,370 H425 V370 H510" fill="none" stroke="#e8a200" stroke-width="2.6"/><circle cx="510" cy="370" r="12" fill="#2e9e4f" stroke="#555"/><text x="510" y="374" font-size="10" text-anchor="middle" fill="white" font-weight="700">M</text><text x="510" y="359" font-size="8" text-anchor="middle" fill="#555">motor</text><text x="510" y="392" font-size="8" text-anchor="middle" fill="#b06">(open end &#8212; no modelled neutral)</text></g><g transform="translate(0,1180)"><rect x="2" y="2" width="936" height="366" rx="9" fill="#fbfbfd" stroke="#d4d7dc"/><text x="40" y="22" font-size="15" font-weight="700" fill="#1a1a1a">S3 Hydraulic leak  -  Z1.hose1 burst (Z1 commanded)</text><text x="40" y="40" font-size="12" fill="#444">pump ON (running)   |   coils energised: [1]</text><rect x="90" y="62" width="40" height="266" rx="6" fill="#fff5e0" stroke="#b08a2e" stroke-width="1.2"/><text x="110" y="56" font-size="9" text-anchor="middle" fill="#7a5c12" font-weight="700">24 VAC</text><text x="110" y="338" font-size="8.5" text-anchor="middle" fill="#7a5c12">transformer (PSU)</text><rect x="40" y="70" width="12" height="14" rx="2" fill="#6b7280"/><text x="46" y="64" font-size="7.5" text-anchor="middle" fill="#555">mains</text><path d="M46,77 H68 V77 H90" fill="none" stroke="#e8a200" stroke-width="2.6"/><path d="M130,76 H160 V76 H190" fill="none" stroke="#e8a200" stroke-width="2.6"/><text x="190" y="62" font-size="8" text-anchor="middle" fill="#555">logic/hot</text><line x1="190" y1="76" x2="190" y2="314" stroke="#e8a200" stroke-width="2.6"/><text x="275" y="50" font-size="9" text-anchor="middle" fill="#9aa0a6">triac</text><text x="445" y="50" font-size="9" text-anchor="middle" fill="#9aa0a6">field wire</text><text x="580" y="50" font-size="9" text-anchor="middle" fill="#9aa0a6">solenoid coil</text><text x="700" y="50" font-size="9" text-anchor="middle" fill="#9aa0a6">return</text><path d="M190,76 H232 V76 H275" fill="none" stroke="#e8a200" stroke-width="2.6"/><circle cx="275" cy="76" r="5.5" fill="#e8a200" stroke="#9aa0a6" stroke-width="0.7"/><text x="275" y="65" font-size="8" text-anchor="middle" fill="#555">triac1</text><path d="M275,76 H360 V76 H445" fill="none" stroke="#e8a200" stroke-width="2.6"/><circle cx="445" cy="76" r="5.5" fill="#e8a200" stroke="#9aa0a6" stroke-width="0.7"/><text x="445" y="65" font-size="8" text-anchor="middle" fill="#555">field</text><path d="M445,76 H506 V76 H568" fill="none" stroke="#e8a200" stroke-width="2.6"/><rect x="569.0" y="68.0" width="22" height="16" rx="3" fill="#e8a200" stroke="#888"/><text x="580" y="65" font-size="8" text-anchor="middle" fill="#555">Z1 coil</text><path d="M592,76 H646 V76 H700" fill="none" stroke="#e8a200" stroke-width="2.6"/><circle cx="700" cy="76" r="5.5" fill="#e8a200" stroke="#9aa0a6" stroke-width="0.7"/><line x1="700" y1="76" x2="700" y2="260" stroke="#e8a200" stroke-width="2.2"/><path d="M190,120 H232 V120 H275" fill="none" stroke="#c9ced4" stroke-width="1.6"/><circle cx="275" cy="120" r="5.5" fill="#dfe3e8" stroke="#9aa0a6" stroke-width="0.7"/><text x="275" y="109" font-size="8" text-anchor="middle" fill="#555">triac2</text><path d="M275,120 H360 V120 H445" fill="none" stroke="#c9ced4" stroke-width="1.6"/><circle cx="445" cy="120" r="5.5" fill="#dfe3e8" stroke="#9aa0a6" stroke-width="0.7"/><text x="445" y="109" font-size="8" text-anchor="middle" fill="#555">field</text><path d="M445,120 H506 V120 H568" fill="none" stroke="#c9ced4" stroke-width="1.6"/><rect x="569.0" y="112.0" width="22" height="16" rx="3" fill="#dfe3e8" stroke="#888"/><text x="580" y="109" font-size="8" text-anchor="middle" fill="#555">Z2 coil</text><path d="M592,120 H646 V120 H700" fill="none" stroke="#c9ced4" stroke-width="1.6"/><circle cx="700" cy="120" r="5.5" fill="#dfe3e8" stroke="#9aa0a6" stroke-width="0.7"/><line x1="700" y1="120" x2="700" y2="260" stroke="#dfe3e8" stroke-width="2.2"/><path d="M190,164 H232 V164 H275" fill="none" stroke="#c9ced4" stroke-width="1.6"/><circle cx="275" cy="164" r="5.5" fill="#dfe3e8" stroke="#9aa0a6" stroke-width="0.7"/><text x="275" y="153" font-size="8" text-anchor="middle" fill="#555">triac3</text><path d="M275,164 H360 V164 H445" fill="none" stroke="#c9ced4" stroke-width="1.6"/><circle cx="445" cy="164" r="5.5" fill="#dfe3e8" stroke="#9aa0a6" stroke-width="0.7"/><text x="445" y="153" font-size="8" text-anchor="middle" fill="#555">field</text><path d="M445,164 H506 V164 H568" fill="none" stroke="#c9ced4" stroke-width="1.6"/><rect x="569.0" y="156.0" width="22" height="16" rx="3" fill="#dfe3e8" stroke="#888"/><text x="580" y="153" font-size="8" text-anchor="middle" fill="#555">Z3 coil</text><path d="M592,164 H646 V164 H700" fill="none" stroke="#c9ced4" stroke-width="1.6"/><circle cx="700" cy="164" r="5.5" fill="#dfe3e8" stroke="#9aa0a6" stroke-width="0.7"/><line x1="700" y1="164" x2="700" y2="260" stroke="#dfe3e8" stroke-width="2.2"/><path d="M190,208 H232 V208 H275" fill="none" stroke="#c9ced4" stroke-width="1.6"/><circle cx="275" cy="208" r="5.5" fill="#dfe3e8" stroke="#9aa0a6" stroke-width="0.7"/><text x="275" y="197" font-size="8" text-anchor="middle" fill="#555">triac4</text><path d="M275,208 H360 V208 H445" fill="none" stroke="#c9ced4" stroke-width="1.6"/><circle cx="445" cy="208" r="5.5" fill="#dfe3e8" stroke="#9aa0a6" stroke-width="0.7"/><text x="445" y="197" font-size="8" text-anchor="middle" fill="#555">field</text><path d="M445,208 H506 V208 H568" fill="none" stroke="#c9ced4" stroke-width="1.6"/><rect x="569.0" y="200.0" width="22" height="16" rx="3" fill="#dfe3e8" stroke="#888"/><text x="580" y="197" font-size="8" text-anchor="middle" fill="#555">Z4 coil</text><path d="M592,208 H646 V208 H700" fill="none" stroke="#c9ced4" stroke-width="1.6"/><circle cx="700" cy="208" r="5.5" fill="#dfe3e8" stroke="#9aa0a6" stroke-width="0.7"/><line x1="700" y1="208" x2="700" y2="260" stroke="#dfe3e8" stroke-width="2.2"/><line x1="190" y1="260" x2="700" y2="260" stroke="#e8a200" stroke-width="3.4"/><text x="445.0" y="275" font-size="8.5" text-anchor="middle" fill="#555">COMMON return bus (cond.common)</text><line x1="190" y1="260" x2="130" y2="260" stroke="#e8a200" stroke-width="3.4"/><line x1="130" y1="260" x2="130" y2="314" stroke="#e8a200" stroke-width="3.4"/><path d="M190,314 H232 V314 H275" fill="none" stroke="#e8a200" stroke-width="2.6"/><circle cx="275" cy="314" r="5.5" fill="#e8a200" stroke="#9aa0a6" stroke-width="0.7"/><text x="275" y="303" font-size="8" text-anchor="middle" fill="#555">pump tap</text><path d="M275,314 H360 V314 H445" fill="none" stroke="#e8a200" stroke-width="2.6"/><circle cx="445" cy="314" r="5.5" fill="#e8a200" stroke="#9aa0a6" stroke-width="0.7"/><text x="445" y="303" font-size="8" text-anchor="middle" fill="#555">sig</text><path d="M445,314 H506 V314 H568" fill="none" stroke="#e8a200" stroke-width="2.6"/><rect x="569.0" y="306.0" width="22" height="16" rx="3" fill="#e8a200" stroke="#888"/><text x="580" y="303" font-size="8" text-anchor="middle" fill="#555">relay coil</text><path d="M592,314 H646 V314 H700" fill="none" stroke="#e8a200" stroke-width="2.6"/><circle cx="700" cy="314" r="5.5" fill="#e8a200" stroke="#9aa0a6" stroke-width="0.7"/><text x="700" y="303" font-size="8" text-anchor="middle" fill="#555">rcom</text><line x1="700" y1="314" x2="700" y2="330" stroke="#e8a200" stroke-width="2"/><line x1="122" y1="330" x2="700" y2="330" stroke="#e8a200" stroke-width="2"/><line x1="122" y1="314" x2="122" y2="330" stroke="#e8a200" stroke-width="2"/><text x="405.0" y="342" font-size="8" text-anchor="middle" fill="#9a7" >relay common (separate return -> not shared)</text><rect x="44" y="355" width="880" height="34" rx="6" fill="#fbf0f0" stroke="#e2b6b6" stroke-dasharray="4 3"/><text x="52" y="351" font-size="8.5" fill="#b06">230 V power side &#8212; modelled as a chain, not a closed loop (no neutral / capacitor; see sim_spec)</text><rect x="80" y="363" width="14" height="14" rx="2" fill="#6b7280"/><text x="87" y="359" font-size="7" text-anchor="middle" fill="#555">230V</text><path d="M94,370 H142 V370 H190" fill="none" stroke="#e8a200" stroke-width="2.6"/><path d="M190,370 H190 V370 H190" fill="none" stroke="#e8a200" stroke-width="2.6"/><circle cx="190" cy="370" r="5.5" fill="#e8a200" stroke="#9aa0a6" stroke-width="0.7"/><text x="190" y="359" font-size="8" text-anchor="middle" fill="#555">line</text><path d="M190,370 H265 V370 H340" fill="none" stroke="#e8a200" stroke-width="2.6"/><circle cx="340" cy="370" r="5.5" fill="#e8a200" stroke="#9aa0a6" stroke-width="0.7"/><text x="340" y="359" font-size="8" text-anchor="middle" fill="#555">contactor</text><path d="M340,370 H425 V370 H510" fill="none" stroke="#e8a200" stroke-width="2.6"/><circle cx="510" cy="370" r="12" fill="#2e9e4f" stroke="#555"/><text x="510" y="374" font-size="10" text-anchor="middle" fill="white" font-weight="700">M</text><text x="510" y="359" font-size="8" text-anchor="middle" fill="#555">motor</text><text x="510" y="392" font-size="8" text-anchor="middle" fill="#b06">(open end &#8212; no modelled neutral)</text></g></svg>