<svg xmlns="http://www.w3.org/2000/svg" width="1120" height="1864" font-family="Segoe UI, Arial, sans-serif"><rect width="1120" height="1864" fill="white"/><text x="18" y="24" font-size="19" font-weight="800" fill="#111">Irrigation fault simulator &#8212; electrical circuit (controller, relay, wiring)</text><text x="18" y="42" font-size="11.5" fill="#555">Controller PSU/logic &#8594; per-zone triac taps &#8594; field wires &#8594; solenoid coils &#8594; shared COMMON return, plus the pump-start relay loop and 230 V motor feed. Gold = energised, grey = de-energised; red &#10005; = the injected fault.</text><g transform="translate(0,50)"><rect x="2" y="2" width="1116" height="446" rx="9" fill="#fbfbfd" stroke="#d4d7dc"/><text x="40" y="22" font-size="15" font-weight="700" fill="#1a1a1a">Baseline  -  Z1+Z2 commanded, no faults</text><text x="40" y="40" font-size="12" fill="#444">pump ON (running)   |   coils energised: [1, 2]</text><text x="358" y="60" font-size="9.5" text-anchor="middle" fill="#9aa0a6">controller taps</text><text x="550" y="60" font-size="9.5" text-anchor="middle" fill="#9aa0a6">field wire</text><text x="742" y="60" font-size="9.5" text-anchor="middle" fill="#9aa0a6">solenoid coils</text><text x="934" y="60" font-size="9.5" text-anchor="middle" fill="#9aa0a6">common return</text><path d="M70,180 L118,180 L118,180 L166,180" fill="none" stroke="#e8a200" stroke-width="2.4"/><path d="M70,180 L118,180 L118,392 L166,392" fill="none" stroke="#cfd4da" stroke-width="1.6"/><path d="M166,180 L214,180 L214,180 L262,180" fill="none" stroke="#e8a200" stroke-width="2.4"/><path d="M262,180 L310,180 L310,88 L358,88" fill="none" stroke="#e8a200" stroke-width="2.4"/><path d="M262,180 L310,180 L310,134 L358,134" fill="none" stroke="#e8a200" stroke-width="2.4"/><path d="M262,180 L310,180 L310,180 L358,180" fill="none" stroke="#cfd4da" stroke-width="1.6"/><path d="M262,180 L310,180 L310,226 L358,226" fill="none" stroke="#cfd4da" stroke-width="1.6"/><path d="M262,180 L310,180 L310,318 L358,318" fill="none" stroke="#e8a200" stroke-width="2.4"/><path d="M358,88 L406,88 L406,88 L454,88" fill="none" stroke="#e8a200" stroke-width="2.4"/><path d="M358,134 L406,134 L406,134 L454,134" fill="none" stroke="#e8a200" stroke-width="2.4"/><path d="M358,180 L406,180 L406,180 L454,180" fill="none" stroke="#cfd4da" stroke-width="1.6"/><path d="M358,226 L406,226 L406,226 L454,226" fill="none" stroke="#cfd4da" stroke-width="1.6"/><path d="M358,318 L406,318 L406,318 L454,318" fill="none" stroke="#e8a200" stroke-width="2.4"/><path d="M454,88 L502,88 L502,88 L550,88" fill="none" stroke="#e8a200" stroke-width="2.4"/><path d="M454,134 L502,134 L502,134 L550,134" fill="none" stroke="#e8a200" stroke-width="2.4"/><path d="M454,180 L502,180 L502,180 L550,180" fill="none" stroke="#cfd4da" stroke-width="1.6"/><path d="M454,226 L502,226 L502,226 L550,226" fill="none" stroke="#cfd4da" stroke-width="1.6"/><path d="M454,318 L502,318 L502,318 L550,318" fill="none" stroke="#e8a200" stroke-width="2.4"/><path d="M1030,157 L598,157 L598,180 L166,180" fill="none" stroke="#e8a200" stroke-width="2.4"/><path d="M838,318 L502,318 L502,180 L166,180" fill="none" stroke="#e8a200" stroke-width="2.4"/><path d="M550,88 L598,88 L598,88 L646,88" fill="none" stroke="#e8a200" stroke-width="2.4"/><path d="M550,134 L598,134 L598,134 L646,134" fill="none" stroke="#e8a200" stroke-width="2.4"/><path d="M550,180 L598,180 L598,180 L646,180" fill="none" stroke="#cfd4da" stroke-width="1.6"/><path d="M550,226 L598,226 L598,226 L646,226" fill="none" stroke="#cfd4da" stroke-width="1.6"/><path d="M646,88 L694,88 L694,88 L742,88" fill="none" stroke="#e8a200" stroke-width="2.4"/><path d="M646,134 L694,134 L694,134 L742,134" fill="none" stroke="#e8a200" stroke-width="2.4"/><path d="M646,180 L694,180 L694,180 L742,180" fill="none" stroke="#cfd4da" stroke-width="1.6"/><path d="M646,226 L694,226 L694,226 L742,226" fill="none" stroke="#cfd4da" stroke-width="1.6"/><path d="M742,88 L790,88 L790,88 L838,88" fill="none" stroke="#e8a200" stroke-width="2.4"/><path d="M742,134 L790,134 L790,134 L838,134" fill="none" stroke="#e8a200" stroke-width="2.4"/><path d="M742,180 L790,180 L790,180 L838,180" fill="none" stroke="#cfd4da" stroke-width="1.6"/><path d="M742,226 L790,226 L790,226 L838,226" fill="none" stroke="#cfd4da" stroke-width="1.6"/><path d="M838,88 L886,88 L886,157 L934,157" fill="none" stroke="#e8a200" stroke-width="2.4"/><path d="M838,134 L886,134 L886,157 L934,157" fill="none" stroke="#e8a200" stroke-width="2.4"/><path d="M838,180 L886,180 L886,157 L934,157" fill="none" stroke="#cfd4da" stroke-width="1.6"/><path d="M838,226 L886,226 L886,157 L934,157" fill="none" stroke="#cfd4da" stroke-width="1.6"/><path d="M934,157 L982,157 L982,157 L1030,157" fill="none" stroke="#e8a200" stroke-width="2.4"/><path d="M550,318 L598,318 L598,318 L646,318" fill="none" stroke="#e8a200" stroke-width="2.4"/><path d="M646,318 L694,318 L694,318 L742,318" fill="none" stroke="#e8a200" stroke-width="2.4"/><path d="M742,318 L790,318 L790,318 L838,318" fill="none" stroke="#e8a200" stroke-width="2.4"/><path d="M166,392 L214,392 L214,392 L262,392" fill="none" stroke="#cfd4da" stroke-width="1.6"/><path d="M262,392 L310,392 L310,392 L358,392" fill="none" stroke="#cfd4da" stroke-width="1.6"/><rect x="60" y="171" width="20" height="18" rx="3" fill="#6b7280"/><text x="70" y="184" font-size="8" text-anchor="middle" fill="white">~</text><text x="70" y="167" font-size="8" text-anchor="middle" fill="#555">mains</text><circle cx="166" cy="180" r="6" fill="#e8a200" stroke="#9aa0a6" stroke-width="0.7"/><text x="166" y="167" font-size="8" text-anchor="middle" fill="#555">PSU</text><circle cx="262" cy="180" r="6" fill="#e8a200" stroke="#9aa0a6" stroke-width="0.7"/><text x="262" y="167" font-size="8" text-anchor="middle" fill="#555">logic</text><circle cx="358" cy="88" r="6" fill="#e8a200" stroke="#9aa0a6" stroke-width="0.7"/><text x="358" y="75" font-size="8" text-anchor="middle" fill="#555">triac1</text><circle cx="358" cy="134" r="6" fill="#e8a200" stroke="#9aa0a6" stroke-width="0.7"/><text x="358" y="121" font-size="8" text-anchor="middle" fill="#555">triac2</text><circle cx="358" cy="180" r="6" fill="#dfe3e8" stroke="#9aa0a6" stroke-width="0.7"/><text x="358" y="167" font-size="8" text-anchor="middle" fill="#555">triac3</text><circle cx="358" cy="226" r="6" fill="#dfe3e8" stroke="#9aa0a6" stroke-width="0.7"/><text x="358" y="213" font-size="8" text-anchor="middle" fill="#555">triac4</text><circle cx="454" cy="88" r="6" fill="#e8a200" stroke="#9aa0a6" stroke-width="0.7"/><text x="454" y="75" font-size="8" text-anchor="middle" fill="#555">ts1</text><circle cx="454" cy="134" r="6" fill="#e8a200" stroke="#9aa0a6" stroke-width="0.7"/><text x="454" y="121" font-size="8" text-anchor="middle" fill="#555">ts2</text><circle cx="454" cy="180" r="6" fill="#dfe3e8" stroke="#9aa0a6" stroke-width="0.7"/><text x="454" y="167" font-size="8" text-anchor="middle" fill="#555">ts3</text><circle cx="454" cy="226" r="6" fill="#dfe3e8" stroke="#9aa0a6" stroke-width="0.7"/><text x="454" y="213" font-size="8" text-anchor="middle" fill="#555">ts4</text><circle cx="550" cy="88" r="6" fill="#e8a200" stroke="#9aa0a6" stroke-width="0.7"/><text x="550" y="75" font-size="8" text-anchor="middle" fill="#555">s1</text><circle cx="550" cy="134" r="6" fill="#e8a200" stroke="#9aa0a6" stroke-width="0.7"/><text x="550" y="121" font-size="8" text-anchor="middle" fill="#555">s2</text><circle cx="550" cy="180" r="6" fill="#dfe3e8" stroke="#9aa0a6" stroke-width="0.7"/><text x="550" y="167" font-size="8" text-anchor="middle" fill="#555">s3</text><circle cx="550" cy="226" r="6" fill="#dfe3e8" stroke="#9aa0a6" stroke-width="0.7"/><text x="550" y="213" font-size="8" text-anchor="middle" fill="#555">s4</text><circle cx="646" cy="88" r="6" fill="#e8a200" stroke="#9aa0a6" stroke-width="0.7"/><text x="646" y="75" font-size="8" text-anchor="middle" fill="#555">Z1</text><circle cx="646" cy="134" r="6" fill="#e8a200" stroke="#9aa0a6" stroke-width="0.7"/><text x="646" y="121" font-size="8" text-anchor="middle" fill="#555">Z2</text><circle cx="646" cy="180" r="6" fill="#dfe3e8" stroke="#9aa0a6" stroke-width="0.7"/><text x="646" y="167" font-size="8" text-anchor="middle" fill="#555">Z3</text><circle cx="646" cy="226" r="6" fill="#dfe3e8" stroke="#9aa0a6" stroke-width="0.7"/><text x="646" y="213" font-size="8" text-anchor="middle" fill="#555">Z4</text><rect x="731" y="80" width="22" height="16" rx="3" fill="#e8a200" stroke="#888"/><text x="742" y="75" font-size="8" text-anchor="middle" fill="#555">Z1 coil</text><rect x="731" y="126" width="22" height="16" rx="3" fill="#e8a200" stroke="#888"/><text x="742" y="121" font-size="8" text-anchor="middle" fill="#555">Z2 coil</text><rect x="731" y="172" width="22" height="16" rx="3" fill="#dfe3e8" stroke="#888"/><text x="742" y="167" font-size="8" text-anchor="middle" fill="#555">Z3 coil</text><rect x="731" y="218" width="22" height="16" rx="3" fill="#dfe3e8" stroke="#888"/><text x="742" y="213" font-size="8" text-anchor="middle" fill="#555">Z4 coil</text><circle cx="838" cy="88" r="6" fill="#e8a200" stroke="#9aa0a6" stroke-width="0.7"/><text x="838" y="75" font-size="8" text-anchor="middle" fill="#555">Z1c</text><circle cx="838" cy="134" r="6" fill="#e8a200" stroke="#9aa0a6" stroke-width="0.7"/><text x="838" y="121" font-size="8" text-anchor="middle" fill="#555">Z2c</text><circle cx="838" cy="180" r="6" fill="#dfe3e8" stroke="#9aa0a6" stroke-width="0.7"/><text x="838" y="167" font-size="8" text-anchor="middle" fill="#555">Z3c</text><circle cx="838" cy="226" r="6" fill="#dfe3e8" stroke="#9aa0a6" stroke-width="0.7"/><text x="838" y="213" font-size="8" text-anchor="middle" fill="#555">Z4c</text><rect x="925" y="135.0" width="18" height="44" rx="3" fill="#e8a200" stroke="#888"/><text x="934" y="130.0" font-size="8" text-anchor="middle" fill="#555">COMMON</text><circle cx="1030" cy="157.0" r="6" fill="#e8a200" stroke="#9aa0a6" stroke-width="0.7"/><text x="1030" y="144.0" font-size="8" text-anchor="middle" fill="#555">com</text><circle cx="358" cy="318" r="6" fill="#e8a200" stroke="#9aa0a6" stroke-width="0.7"/><text x="358" y="305" font-size="8" text-anchor="middle" fill="#555">P-tap</text><circle cx="454" cy="318" r="6" fill="#e8a200" stroke="#9aa0a6" stroke-width="0.7"/><text x="454" y="305" font-size="8" text-anchor="middle" fill="#555">pmv</text><circle cx="550" cy="318" r="6" fill="#e8a200" stroke="#9aa0a6" stroke-width="0.7"/><text x="550" y="305" font-size="8" text-anchor="middle" fill="#555">sig</text><rect x="635" y="310" width="22" height="16" rx="3" fill="#e8a200" stroke="#888"/><text x="646" y="305" font-size="8" text-anchor="middle" fill="#555">relay coil</text><circle cx="742" cy="318" r="6" fill="#e8a200" stroke="#9aa0a6" stroke-width="0.7"/><text x="742" y="305" font-size="8" text-anchor="middle" fill="#555">rcom</text><circle cx="838" cy="318" r="6" fill="#e8a200" stroke="#9aa0a6" stroke-width="0.7"/><text x="838" y="305" font-size="8" text-anchor="middle" fill="#555">rtn</text><circle cx="166" cy="391.59999999999997" r="6" fill="#dfe3e8" stroke="#9aa0a6" stroke-width="0.7"/><text x="166" y="378.59999999999997" font-size="8" text-anchor="middle" fill="#555">relay line</text><circle cx="262" cy="391.59999999999997" r="6" fill="#dfe3e8" stroke="#9aa0a6" stroke-width="0.7"/><text x="262" y="378.59999999999997" font-size="8" text-anchor="middle" fill="#555">contactor</text><circle cx="358" cy="391.59999999999997" r="11" fill="#2e9e4f" stroke="#555"/><text x="358" y="395.59999999999997" font-size="9" text-anchor="middle" fill="white" font-weight="700">M</text><text x="358" y="378.59999999999997" font-size="8" text-anchor="middle" fill="#555">MOTOR</text><circle cx="454" cy="391.59999999999997" r="6" fill="#dfe3e8" stroke="#9aa0a6" stroke-width="0.7"/><text x="454" y="378.59999999999997" font-size="8" text-anchor="middle" fill="#555">cap</text><circle cx="175.60000000000002" cy="88" r="6" fill="#eef1f4" stroke="#9aa0a6" stroke-width="0.7"/><text x="175.60000000000002" y="75" font-size="8" text-anchor="middle" fill="#555">sched</text><circle cx="175.60000000000002" cy="113.3" r="6" fill="#eef1f4" stroke="#9aa0a6" stroke-width="0.7"/><text x="175.60000000000002" y="100.3" font-size="8" text-anchor="middle" fill="#555">scr</text><circle cx="252.39999999999998" cy="88" r="6" fill="#eef1f4" stroke="#9aa0a6" stroke-width="0.7"/><text x="252.39999999999998" y="75" font-size="8" text-anchor="middle" fill="#555">wifi</text><circle cx="252.39999999999998" cy="113.3" r="6" fill="#eef1f4" stroke="#9aa0a6" stroke-width="0.7"/><text x="252.39999999999998" y="100.3" font-size="8" text-anchor="middle" fill="#555">cloud</text></g><g transform="translate(0,502)"><rect x="2" y="2" width="1116" height="446" rx="9" fill="#fbfbfd" stroke="#d4d7dc"/><text x="40" y="22" font-size="15" font-weight="700" fill="#1a1a1a">S1 Electrical  -  cond.common broken (shared coil return)</text><text x="40" y="40" font-size="12" fill="#444">pump ON (running)   |   coils energised: none</text><text x="358" y="60" font-size="9.5" text-anchor="middle" fill="#9aa0a6">controller taps</text><text x="550" y="60" font-size="9.5" text-anchor="middle" fill="#9aa0a6">field wire</text><text x="742" y="60" font-size="9.5" text-anchor="middle" fill="#9aa0a6">solenoid coils</text><text x="934" y="60" font-size="9.5" text-anchor="middle" fill="#9aa0a6">common return</text><path d="M70,180 L118,180 L118,180 L166,180" fill="none" stroke="#e8a200" stroke-width="2.4"/><path d="M70,180 L118,180 L118,392 L166,392" fill="none" stroke="#cfd4da" stroke-width="1.6"/><path d="M166,180 L214,180 L214,180 L262,180" fill="none" stroke="#e8a200" stroke-width="2.4"/><path d="M262,180 L310,180 L310,88 L358,88" fill="none" stroke="#cfd4da" stroke-width="1.6"/><path d="M262,180 L310,180 L310,134 L358,134" fill="none" stroke="#cfd4da" stroke-width="1.6"/><path d="M262,180 L310,180 L310,180 L358,180" fill="none" stroke="#cfd4da" stroke-width="1.6"/><path d="M262,180 L310,180 L310,226 L358,226" fill="none" stroke="#cfd4da" stroke-width="1.6"/><path d="M262,180 L310,180 L310,318 L358,318" fill="none" stroke="#e8a200" stroke-width="2.4"/><path d="M358,88 L406,88 L406,88 L454,88" fill="none" stroke="#cfd4da" stroke-width="1.6"/><path d="M358,134 L406,134 L406,134 L454,134" fill="none" stroke="#cfd4da" stroke-width="1.6"/><path d="M358,180 L406,180 L406,180 L454,180" fill="none" stroke="#cfd4da" stroke-width="1.6"/><path d="M358,226 L406,226 L406,226 L454,226" fill="none" stroke="#cfd4da" stroke-width="1.6"/><path d="M358,318 L406,318 L406,318 L454,318" fill="none" stroke="#e8a200" stroke-width="2.4"/><path d="M454,88 L502,88 L502,88 L550,88" fill="none" stroke="#cfd4da" stroke-width="1.6"/><path d="M454,134 L502,134 L502,134 L550,134" fill="none" stroke="#cfd4da" stroke-width="1.6"/><path d="M454,180 L502,180 L502,180 L550,180" fill="none" stroke="#cfd4da" stroke-width="1.6"/><path d="M454,226 L502,226 L502,226 L550,226" fill="none" stroke="#cfd4da" stroke-width="1.6"/><path d="M454,318 L502,318 L502,318 L550,318" fill="none" stroke="#e8a200" stroke-width="2.4"/><path d="M1030,157 L598,157 L598,180 L166,180" fill="none" stroke="#cfd4da" stroke-width="1.6"/><path d="M838,318 L502,318 L502,180 L166,180" fill="none" stroke="#e8a200" stroke-width="2.4"/><path d="M550,88 L598,88 L598,88 L646,88" fill="none" stroke="#cfd4da" stroke-width="1.6"/><path d="M550,134 L598,134 L598,134 L646,134" fill="none" stroke="#cfd4da" stroke-width="1.6"/><path d="M550,180 L598,180 L598,180 L646,180" fill="none" stroke="#cfd4da" stroke-width="1.6"/><path d="M550,226 L598,226 L598,226 L646,226" fill="none" stroke="#cfd4da" stroke-width="1.6"/><path d="M646,88 L694,88 L694,88 L742,88" fill="none" stroke="#cfd4da" stroke-width="1.6"/><path d="M646,134 L694,134 L694,134 L742,134" fill="none" stroke="#cfd4da" stroke-width="1.6"/><path d="M646,180 L694,180 L694,180 L742,180" fill="none" stroke="#cfd4da" stroke-width="1.6"/><path d="M646,226 L694,226 L694,226 L742,226" fill="none" stroke="#cfd4da" stroke-width="1.6"/><path d="M742,88 L790,88 L790,88 L838,88" fill="none" stroke="#cfd4da" stroke-width="1.6"/><path d="M742,134 L790,134 L790,134 L838,134" fill="none" stroke="#cfd4da" stroke-width="1.6"/><path d="M742,180 L790,180 L790,180 L838,180" fill="none" stroke="#cfd4da" stroke-width="1.6"/><path d="M742,226 L790,226 L790,226 L838,226" fill="none" stroke="#cfd4da" stroke-width="1.6"/><path d="M838,88 L886,88 L886,157 L934,157" fill="none" stroke="#cfd4da" stroke-width="1.6"/><path d="M838,134 L886,134 L886,157 L934,157" fill="none" stroke="#cfd4da" stroke-width="1.6"/><path d="M838,180 L886,180 L886,157 L934,157" fill="none" stroke="#cfd4da" stroke-width="1.6"/><path d="M838,226 L886,226 L886,157 L934,157" fill="none" stroke="#cfd4da" stroke-width="1.6"/><path d="M934,157 L982,157 L982,157 L1030,157" fill="none" stroke="#cfd4da" stroke-width="1.6"/><path d="M550,318 L598,318 L598,318 L646,318" fill="none" stroke="#e8a200" stroke-width="2.4"/><path d="M646,318 L694,318 L694,318 L742,318" fill="none" stroke="#e8a200" stroke-width="2.4"/><path d="M742,318 L790,318 L790,318 L838,318" fill="none" stroke="#e8a200" stroke-width="2.4"/><path d="M166,392 L214,392 L214,392 L262,392" fill="none" stroke="#cfd4da" stroke-width="1.6"/><path d="M262,392 L310,392 L310,392 L358,392" fill="none" stroke="#cfd4da" stroke-width="1.6"/><rect x="60" y="171" width="20" height="18" rx="3" fill="#6b7280"/><text x="70" y="184" font-size="8" text-anchor="middle" fill="white">~</text><text x="70" y="167" font-size="8" text-anchor="middle" fill="#555">mains</text><circle cx="166" cy="180" r="6" fill="#e8a200" stroke="#9aa0a6" stroke-width="0.7"/><text x="166" y="167" font-size="8" text-anchor="middle" fill="#555">PSU</text><circle cx="262" cy="180" r="6" fill="#e8a200" stroke="#9aa0a6" stroke-width="0.7"/><text x="262" y="167" font-size="8" text-anchor="middle" fill="#555">logic</text><circle cx="358" cy="88" r="6" fill="#dfe3e8" stroke="#9aa0a6" stroke-width="0.7"/><text x="358" y="75" font-size="8" text-anchor="middle" fill="#555">triac1</text><circle cx="358" cy="134" r="6" fill="#dfe3e8" stroke="#9aa0a6" stroke-width="0.7"/><text x="358" y="121" font-size="8" text-anchor="middle" fill="#555">triac2</text><circle cx="358" cy="180" r="6" fill="#dfe3e8" stroke="#9aa0a6" stroke-width="0.7"/><text x="358" y="167" font-size="8" text-anchor="middle" fill="#555">triac3</text><circle cx="358" cy="226" r="6" fill="#dfe3e8" stroke="#9aa0a6" stroke-width="0.7"/><text x="358" y="213" font-size="8" text-anchor="middle" fill="#555">triac4</text><circle cx="454" cy="88" r="6" fill="#dfe3e8" stroke="#9aa0a6" stroke-width="0.7"/><text x="454" y="75" font-size="8" text-anchor="middle" fill="#555">ts1</text><circle cx="454" cy="134" r="6" fill="#dfe3e8" stroke="#9aa0a6" stroke-width="0.7"/><text x="454" y="121" font-size="8" text-anchor="middle" fill="#555">ts2</text><circle cx="454" cy="180" r="6" fill="#dfe3e8" stroke="#9aa0a6" stroke-width="0.7"/><text x="454" y="167" font-size="8" text-anchor="middle" fill="#555">ts3</text><circle cx="454" cy="226" r="6" fill="#dfe3e8" stroke="#9aa0a6" stroke-width="0.7"/><text x="454" y="213" font-size="8" text-anchor="middle" fill="#555">ts4</text><circle cx="550" cy="88" r="6" fill="#dfe3e8" stroke="#9aa0a6" stroke-width="0.7"/><text x="550" y="75" font-size="8" text-anchor="middle" fill="#555">s1</text><circle cx="550" cy="134" r="6" fill="#dfe3e8" stroke="#9aa0a6" stroke-width="0.7"/><text x="550" y="121" font-size="8" text-anchor="middle" fill="#555">s2</text><circle cx="550" cy="180" r="6" fill="#dfe3e8" stroke="#9aa0a6" stroke-width="0.7"/><text x="550" y="167" font-size="8" text-anchor="middle" fill="#555">s3</text><circle cx="550" cy="226" r="6" fill="#dfe3e8" stroke="#9aa0a6" stroke-width="0.7"/><text x="550" y="213" font-size="8" text-anchor="middle" fill="#555">s4</text><circle cx="646" cy="88" r="6" fill="#dfe3e8" stroke="#9aa0a6" stroke-width="0.7"/><text x="646" y="75" font-size="8" text-anchor="middle" fill="#555">Z1</text><circle cx="646" cy="134" r="6" fill="#dfe3e8" stroke="#9aa0a6" stroke-width="0.7"/><text x="646" y="121" font-size="8" text-anchor="middle" fill="#555">Z2</text><circle cx="646" cy="180" r="6" fill="#dfe3e8" stroke="#9aa0a6" stroke-width="0.7"/><text x="646" y="167" font-size="8" text-anchor="middle" fill="#555">Z3</text><circle cx="646" cy="226" r="6" fill="#dfe3e8" stroke="#9aa0a6" stroke-width="0.7"/><text x="646" y="213" font-size="8" text-anchor="middle" fill="#555">Z4</text><rect x="731" y="80" width="22" height="16" rx="3" fill="#dfe3e8" stroke="#888"/><text x="742" y="75" font-size="8" text-anchor="middle" fill="#555">Z1 coil</text><rect x="731" y="126" width="22" height="16" rx="3" fill="#dfe3e8" stroke="#888"/><text x="742" y="121" font-size="8" text-anchor="middle" fill="#555">Z2 coil</text><rect x="731" y="172" width="22" height="16" rx="3" fill="#dfe3e8" stroke="#888"/><text x="742" y="167" font-size="8" text-anchor="middle" fill="#555">Z3 coil</text><rect x="731" y="218" width="22" height="16" rx="3" fill="#dfe3e8" stroke="#888"/><text x="742" y="213" font-size="8" text-anchor="middle" fill="#555">Z4 coil</text><circle cx="838" cy="88" r="6" fill="#dfe3e8" stroke="#9aa0a6" stroke-width="0.7"/><text x="838" y="75" font-size="8" text-anchor="middle" fill="#555">Z1c</text><circle cx="838" cy="134" r="6" fill="#dfe3e8" stroke="#9aa0a6" stroke-width="0.7"/><text x="838" y="121" font-size="8" text-anchor="middle" fill="#555">Z2c</text><circle cx="838" cy="180" r="6" fill="#dfe3e8" stroke="#9aa0a6" stroke-width="0.7"/><text x="838" y="167" font-size="8" text-anchor="middle" fill="#555">Z3c</text><circle cx="838" cy="226" r="6" fill="#dfe3e8" stroke="#9aa0a6" stroke-width="0.7"/><text x="838" y="213" font-size="8" text-anchor="middle" fill="#555">Z4c</text><rect x="925" y="135.0" width="18" height="44" rx="3" fill="#dfe3e8" stroke="#888"/><text x="934" y="130.0" font-size="8" text-anchor="middle" fill="#555">COMMON</text><circle cx="934" cy="157.0" r="12" fill="none" stroke="#d11" stroke-width="2"/><text x="934" y="182.0" font-size="8.5" text-anchor="middle" fill="#d11" font-weight="700">broken</text><line x1="925" y1="148.0" x2="943" y2="166.0" stroke="#d11" stroke-width="1.6"/><line x1="943" y1="148.0" x2="925" y2="166.0" stroke="#d11" stroke-width="1.6"/><circle cx="1030" cy="157.0" r="6" fill="#dfe3e8" stroke="#9aa0a6" stroke-width="0.7"/><text x="1030" y="144.0" font-size="8" text-anchor="middle" fill="#555">com</text><circle cx="358" cy="318" r="6" fill="#e8a200" stroke="#9aa0a6" stroke-width="0.7"/><text x="358" y="305" font-size="8" text-anchor="middle" fill="#555">P-tap</text><circle cx="454" cy="318" r="6" fill="#e8a200" stroke="#9aa0a6" stroke-width="0.7"/><text x="454" y="305" font-size="8" text-anchor="middle" fill="#555">pmv</text><circle cx="550" cy="318" r="6" fill="#e8a200" stroke="#9aa0a6" stroke-width="0.7"/><text x="550" y="305" font-size="8" text-anchor="middle" fill="#555">sig</text><rect x="635" y="310" width="22" height="16" rx="3" fill="#e8a200" stroke="#888"/><text x="646" y="305" font-size="8" text-anchor="middle" fill="#555">relay coil</text><circle cx="742" cy="318" r="6" fill="#e8a200" stroke="#9aa0a6" stroke-width="0.7"/><text x="742" y="305" font-size="8" text-anchor="middle" fill="#555">rcom</text><circle cx="838" cy="318" r="6" fill="#e8a200" stroke="#9aa0a6" stroke-width="0.7"/><text x="838" y="305" font-size="8" text-anchor="middle" fill="#555">rtn</text><circle cx="166" cy="391.59999999999997" r="6" fill="#dfe3e8" stroke="#9aa0a6" stroke-width="0.7"/><text x="166" y="378.59999999999997" font-size="8" text-anchor="middle" fill="#555">relay line</text><circle cx="262" cy="391.59999999999997" r="6" fill="#dfe3e8" stroke="#9aa0a6" stroke-width="0.7"/><text x="262" y="378.59999999999997" font-size="8" text-anchor="middle" fill="#555">contactor</text><circle cx="358" cy="391.59999999999997" r="11" fill="#2e9e4f" stroke="#555"/><text x="358" y="395.59999999999997" font-size="9" text-anchor="middle" fill="white" font-weight="700">M</text><text x="358" y="378.59999999999997" font-size="8" text-anchor="middle" fill="#555">MOTOR</text><circle cx="454" cy="391.59999999999997" r="6" fill="#dfe3e8" stroke="#9aa0a6" stroke-width="0.7"/><text x="454" y="378.59999999999997" font-size="8" text-anchor="middle" fill="#555">cap</text><circle cx="175.60000000000002" cy="88" r="6" fill="#eef1f4" stroke="#9aa0a6" stroke-width="0.7"/><text x="175.60000000000002" y="75" font-size="8" text-anchor="middle" fill="#555">sched</text><circle cx="175.60000000000002" cy="113.3" r="6" fill="#eef1f4" stroke="#9aa0a6" stroke-width="0.7"/><text x="175.60000000000002" y="100.3" font-size="8" text-anchor="middle" fill="#555">scr</text><circle cx="252.39999999999998" cy="88" r="6" fill="#eef1f4" stroke="#9aa0a6" stroke-width="0.7"/><text x="252.39999999999998" y="75" font-size="8" text-anchor="middle" fill="#555">wifi</text><circle cx="252.39999999999998" cy="113.3" r="6" fill="#eef1f4" stroke="#9aa0a6" stroke-width="0.7"/><text x="252.39999999999998" y="100.3" font-size="8" text-anchor="middle" fill="#555">cloud</text></g><g transform="translate(0,954)"><rect x="2" y="2" width="1116" height="446" rx="9" fill="#fbfbfd" stroke="#d4d7dc"/><text x="40" y="22" font-size="15" font-weight="700" fill="#1a1a1a">S2 Valve pilot loop  -  Z1 metering_port clogged (only Z2 commanded)</text><text x="40" y="40" font-size="12" fill="#444">pump ON (running)   |   coils energised: [2]</text><text x="358" y="60" font-size="9.5" text-anchor="middle" fill="#9aa0a6">controller taps</text><text x="550" y="60" font-size="9.5" text-anchor="middle" fill="#9aa0a6">field wire</text><text x="742" y="60" font-size="9.5" text-anchor="middle" fill="#9aa0a6">solenoid coils</text><text x="934" y="60" font-size="9.5" text-anchor="middle" fill="#9aa0a6">common return</text><path d="M70,180 L118,180 L118,180 L166,180" fill="none" stroke="#e8a200" stroke-width="2.4"/><path d="M70,180 L118,180 L118,392 L166,392" fill="none" stroke="#cfd4da" stroke-width="1.6"/><path d="M166,180 L214,180 L214,180 L262,180" fill="none" stroke="#e8a200" stroke-width="2.4"/><path d="M262,180 L310,180 L310,88 L358,88" fill="none" stroke="#cfd4da" stroke-width="1.6"/><path d="M262,180 L310,180 L310,134 L358,134" fill="none" stroke="#e8a200" stroke-width="2.4"/><path d="M262,180 L310,180 L310,180 L358,180" fill="none" stroke="#cfd4da" stroke-width="1.6"/><path d="M262,180 L310,180 L310,226 L358,226" fill="none" stroke="#cfd4da" stroke-width="1.6"/><path d="M262,180 L310,180 L310,318 L358,318" fill="none" stroke="#e8a200" stroke-width="2.4"/><path d="M358,88 L406,88 L406,88 L454,88" fill="none" stroke="#cfd4da" stroke-width="1.6"/><path d="M358,134 L406,134 L406,134 L454,134" fill="none" stroke="#e8a200" stroke-width="2.4"/><path d="M358,180 L406,180 L406,180 L454,180" fill="none" stroke="#cfd4da" stroke-width="1.6"/><path d="M358,226 L406,226 L406,226 L454,226" fill="none" stroke="#cfd4da" stroke-width="1.6"/><path d="M358,318 L406,318 L406,318 L454,318" fill="none" stroke="#e8a200" stroke-width="2.4"/><path d="M454,88 L502,88 L502,88 L550,88" fill="none" stroke="#cfd4da" stroke-width="1.6"/><path d="M454,134 L502,134 L502,134 L550,134" fill="none" stroke="#e8a200" stroke-width="2.4"/><path d="M454,180 L502,180 L502,180 L550,180" fill="none" stroke="#cfd4da" stroke-width="1.6"/><path d="M454,226 L502,226 L502,226 L550,226" fill="none" stroke="#cfd4da" stroke-width="1.6"/><path d="M454,318 L502,318 L502,318 L550,318" fill="none" stroke="#e8a200" stroke-width="2.4"/><path d="M1030,157 L598,157 L598,180 L166,180" fill="none" stroke="#e8a200" stroke-width="2.4"/><path d="M838,318 L502,318 L502,180 L166,180" fill="none" stroke="#e8a200" stroke-width="2.4"/><path d="M550,88 L598,88 L598,88 L646,88" fill="none" stroke="#cfd4da" stroke-width="1.6"/><path d="M550,134 L598,134 L598,134 L646,134" fill="none" stroke="#e8a200" stroke-width="2.4"/><path d="M550,180 L598,180 L598,180 L646,180" fill="none" stroke="#cfd4da" stroke-width="1.6"/><path d="M550,226 L598,226 L598,226 L646,226" fill="none" stroke="#cfd4da" stroke-width="1.6"/><path d="M646,88 L694,88 L694,88 L742,88" fill="none" stroke="#cfd4da" stroke-width="1.6"/><path d="M646,134 L694,134 L694,134 L742,134" fill="none" stroke="#e8a200" stroke-width="2.4"/><path d="M646,180 L694,180 L694,180 L742,180" fill="none" stroke="#cfd4da" stroke-width="1.6"/><path d="M646,226 L694,226 L694,226 L742,226" fill="none" stroke="#cfd4da" stroke-width="1.6"/><path d="M742,88 L790,88 L790,88 L838,88" fill="none" stroke="#cfd4da" stroke-width="1.6"/><path d="M742,134 L790,134 L790,134 L838,134" fill="none" stroke="#e8a200" stroke-width="2.4"/><path d="M742,180 L790,180 L790,180 L838,180" fill="none" stroke="#cfd4da" stroke-width="1.6"/><path d="M742,226 L790,226 L790,226 L838,226" fill="none" stroke="#cfd4da" stroke-width="1.6"/><path d="M838,88 L886,88 L886,157 L934,157" fill="none" stroke="#cfd4da" stroke-width="1.6"/><path d="M838,134 L886,134 L886,157 L934,157" fill="none" stroke="#e8a200" stroke-width="2.4"/><path d="M838,180 L886,180 L886,157 L934,157" fill="none" stroke="#cfd4da" stroke-width="1.6"/><path d="M838,226 L886,226 L886,157 L934,157" fill="none" stroke="#cfd4da" stroke-width="1.6"/><path d="M934,157 L982,157 L982,157 L1030,157" fill="none" stroke="#e8a200" stroke-width="2.4"/><path d="M550,318 L598,318 L598,318 L646,318" fill="none" stroke="#e8a200" stroke-width="2.4"/><path d="M646,318 L694,318 L694,318 L742,318" fill="none" stroke="#e8a200" stroke-width="2.4"/><path d="M742,318 L790,318 L790,318 L838,318" fill="none" stroke="#e8a200" stroke-width="2.4"/><path d="M166,392 L214,392 L214,392 L262,392" fill="none" stroke="#cfd4da" stroke-width="1.6"/><path d="M262,392 L310,392 L310,392 L358,392" fill="none" stroke="#cfd4da" stroke-width="1.6"/><rect x="60" y="171" width="20" height="18" rx="3" fill="#6b7280"/><text x="70" y="184" font-size="8" text-anchor="middle" fill="white">~</text><text x="70" y="167" font-size="8" text-anchor="middle" fill="#555">mains</text><circle cx="166" cy="180" r="6" fill="#e8a200" stroke="#9aa0a6" stroke-width="0.7"/><text x="166" y="167" font-size="8" text-anchor="middle" fill="#555">PSU</text><circle cx="262" cy="180" r="6" fill="#e8a200" stroke="#9aa0a6" stroke-width="0.7"/><text x="262" y="167" font-size="8" text-anchor="middle" fill="#555">logic</text><circle cx="358" cy="88" r="6" fill="#dfe3e8" stroke="#9aa0a6" stroke-width="0.7"/><text x="358" y="75" font-size="8" text-anchor="middle" fill="#555">triac1</text><circle cx="358" cy="134" r="6" fill="#e8a200" stroke="#9aa0a6" stroke-width="0.7"/><text x="358" y="121" font-size="8" text-anchor="middle" fill="#555">triac2</text><circle cx="358" cy="180" r="6" fill="#dfe3e8" stroke="#9aa0a6" stroke-width="0.7"/><text x="358" y="167" font-size="8" text-anchor="middle" fill="#555">triac3</text><circle cx="358" cy="226" r="6" fill="#dfe3e8" stroke="#9aa0a6" stroke-width="0.7"/><text x="358" y="213" font-size="8" text-anchor="middle" fill="#555">triac4</text><circle cx="454" cy="88" r="6" fill="#dfe3e8" stroke="#9aa0a6" stroke-width="0.7"/><text x="454" y="75" font-size="8" text-anchor="middle" fill="#555">ts1</text><circle cx="454" cy="134" r="6" fill="#e8a200" stroke="#9aa0a6" stroke-width="0.7"/><text x="454" y="121" font-size="8" text-anchor="middle" fill="#555">ts2</text><circle cx="454" cy="180" r="6" fill="#dfe3e8" stroke="#9aa0a6" stroke-width="0.7"/><text x="454" y="167" font-size="8" text-anchor="middle" fill="#555">ts3</text><circle cx="454" cy="226" r="6" fill="#dfe3e8" stroke="#9aa0a6" stroke-width="0.7"/><text x="454" y="213" font-size="8" text-anchor="middle" fill="#555">ts4</text><circle cx="550" cy="88" r="6" fill="#dfe3e8" stroke="#9aa0a6" stroke-width="0.7"/><text x="550" y="75" font-size="8" text-anchor="middle" fill="#555">s1</text><circle cx="550" cy="134" r="6" fill="#e8a200" stroke="#9aa0a6" stroke-width="0.7"/><text x="550" y="121" font-size="8" text-anchor="middle" fill="#555">s2</text><circle cx="550" cy="180" r="6" fill="#dfe3e8" stroke="#9aa0a6" stroke-width="0.7"/><text x="550" y="167" font-size="8" text-anchor="middle" fill="#555">s3</text><circle cx="550" cy="226" r="6" fill="#dfe3e8" stroke="#9aa0a6" stroke-width="0.7"/><text x="550" y="213" font-size="8" text-anchor="middle" fill="#555">s4</text><circle cx="646" cy="88" r="6" fill="#dfe3e8" stroke="#9aa0a6" stroke-width="0.7"/><text x="646" y="75" font-size="8" text-anchor="middle" fill="#555">Z1</text><circle cx="646" cy="134" r="6" fill="#e8a200" stroke="#9aa0a6" stroke-width="0.7"/><text x="646" y="121" font-size="8" text-anchor="middle" fill="#555">Z2</text><circle cx="646" cy="180" r="6" fill="#dfe3e8" stroke="#9aa0a6" stroke-width="0.7"/><text x="646" y="167" font-size="8" text-anchor="middle" fill="#555">Z3</text><circle cx="646" cy="226" r="6" fill="#dfe3e8" stroke="#9aa0a6" stroke-width="0.7"/><text x="646" y="213" font-size="8" text-anchor="middle" fill="#555">Z4</text><rect x="731" y="80" width="22" height="16" rx="3" fill="#dfe3e8" stroke="#888"/><text x="742" y="75" font-size="8" text-anchor="middle" fill="#555">Z1 coil</text><rect x="731" y="126" width="22" height="16" rx="3" fill="#e8a200" stroke="#888"/><text x="742" y="121" font-size="8" text-anchor="middle" fill="#555">Z2 coil</text><rect x="731" y="172" width="22" height="16" rx="3" fill="#dfe3e8" stroke="#888"/><text x="742" y="167" font-size="8" text-anchor="middle" fill="#555">Z3 coil</text><rect x="731" y="218" width="22" height="16" rx="3" fill="#dfe3e8" stroke="#888"/><text x="742" y="213" font-size="8" text-anchor="middle" fill="#555">Z4 coil</text><circle cx="838" cy="88" r="6" fill="#dfe3e8" stroke="#9aa0a6" stroke-width="0.7"/><text x="838" y="75" font-size="8" text-anchor="middle" fill="#555">Z1c</text><circle cx="838" cy="134" r="6" fill="#e8a200" stroke="#9aa0a6" stroke-width="0.7"/><text x="838" y="121" font-size="8" text-anchor="middle" fill="#555">Z2c</text><circle cx="838" cy="180" r="6" fill="#dfe3e8" stroke="#9aa0a6" stroke-width="0.7"/><text x="838" y="167" font-size="8" text-anchor="middle" fill="#555">Z3c</text><circle cx="838" cy="226" r="6" fill="#dfe3e8" stroke="#9aa0a6" stroke-width="0.7"/><text x="838" y="213" font-size="8" text-anchor="middle" fill="#555">Z4c</text><rect x="925" y="135.0" width="18" height="44" rx="3" fill="#e8a200" stroke="#888"/><text x="934" y="130.0" font-size="8" text-anchor="middle" fill="#555">COMMON</text><circle cx="1030" cy="157.0" r="6" fill="#e8a200" stroke="#9aa0a6" stroke-width="0.7"/><text x="1030" y="144.0" font-size="8" text-anchor="middle" fill="#555">com</text><circle cx="358" cy="318" r="6" fill="#e8a200" stroke="#9aa0a6" stroke-width="0.7"/><text x="358" y="305" font-size="8" text-anchor="middle" fill="#555">P-tap</text><circle cx="454" cy="318" r="6" fill="#e8a200" stroke="#9aa0a6" stroke-width="0.7"/><text x="454" y="305" font-size="8" text-anchor="middle" fill="#555">pmv</text><circle cx="550" cy="318" r="6" fill="#e8a200" stroke="#9aa0a6" stroke-width="0.7"/><text x="550" y="305" font-size="8" text-anchor="middle" fill="#555">sig</text><rect x="635" y="310" width="22" height="16" rx="3" fill="#e8a200" stroke="#888"/><text x="646" y="305" font-size="8" text-anchor="middle" fill="#555">relay coil</text><circle cx="742" cy="318" r="6" fill="#e8a200" stroke="#9aa0a6" stroke-width="0.7"/><text x="742" y="305" font-size="8" text-anchor="middle" fill="#555">rcom</text><circle cx="838" cy="318" r="6" fill="#e8a200" stroke="#9aa0a6" stroke-width="0.7"/><text x="838" y="305" font-size="8" text-anchor="middle" fill="#555">rtn</text><circle cx="166" cy="391.59999999999997" r="6" fill="#dfe3e8" stroke="#9aa0a6" stroke-width="0.7"/><text x="166" y="378.59999999999997" font-size="8" text-anchor="middle" fill="#555">relay line</text><circle cx="262" cy="391.59999999999997" r="6" fill="#dfe3e8" stroke="#9aa0a6" stroke-width="0.7"/><text x="262" y="378.59999999999997" font-size="8" text-anchor="middle" fill="#555">contactor</text><circle cx="358" cy="391.59999999999997" r="11" fill="#2e9e4f" stroke="#555"/><text x="358" y="395.59999999999997" font-size="9" text-anchor="middle" fill="white" font-weight="700">M</text><text x="358" y="378.59999999999997" font-size="8" text-anchor="middle" fill="#555">MOTOR</text><circle cx="454" cy="391.59999999999997" r="6" fill="#dfe3e8" stroke="#9aa0a6" stroke-width="0.7"/><text x="454" y="378.59999999999997" font-size="8" text-anchor="middle" fill="#555">cap</text><circle cx="175.60000000000002" cy="88" r="6" fill="#eef1f4" stroke="#9aa0a6" stroke-width="0.7"/><text x="175.60000000000002" y="75" font-size="8" text-anchor="middle" fill="#555">sched</text><circle cx="175.60000000000002" cy="113.3" r="6" fill="#eef1f4" stroke="#9aa0a6" stroke-width="0.7"/><text x="175.60000000000002" y="100.3" font-size="8" text-anchor="middle" fill="#555">scr</text><circle cx="252.39999999999998" cy="88" r="6" fill="#eef1f4" stroke="#9aa0a6" stroke-width="0.7"/><text x="252.39999999999998" y="75" font-size="8" text-anchor="middle" fill="#555">wifi</text><circle cx="252.39999999999998" cy="113.3" r="6" fill="#eef1f4" stroke="#9aa0a6" stroke-width="0.7"/><text x="252.39999999999998" y="100.3" font-size="8" text-anchor="middle" fill="#555">cloud</text></g><g transform="translate(0,1406)"><rect x="2" y="2" width="1116" height="446" rx="9" fill="#fbfbfd" stroke="#d4d7dc"/><text x="40" y="22" font-size="15" font-weight="700" fill="#1a1a1a">S3 Hydraulic leak  -  Z1.hose1 burst (Z1 commanded)</text><text x="40" y="40" font-size="12" fill="#444">pump ON (running)   |   coils energised: [1]</text><text x="358" y="60" font-size="9.5" text-anchor="middle" fill="#9aa0a6">controller taps</text><text x="550" y="60" font-size="9.5" text-anchor="middle" fill="#9aa0a6">field wire</text><text x="742" y="60" font-size="9.5" text-anchor="middle" fill="#9aa0a6">solenoid coils</text><text x="934" y="60" font-size="9.5" text-anchor="middle" fill="#9aa0a6">common return</text><path d="M70,180 L118,180 L118,180 L166,180" fill="none" stroke="#e8a200" stroke-width="2.4"/><path d="M70,180 L118,180 L118,392 L166,392" fill="none" stroke="#cfd4da" stroke-width="1.6"/><path d="M166,180 L214,180 L214,180 L262,180" fill="none" stroke="#e8a200" stroke-width="2.4"/><path d="M262,180 L310,180 L310,88 L358,88" fill="none" stroke="#e8a200" stroke-width="2.4"/><path d="M262,180 L310,180 L310,134 L358,134" fill="none" stroke="#cfd4da" stroke-width="1.6"/><path d="M262,180 L310,180 L310,180 L358,180" fill="none" stroke="#cfd4da" stroke-width="1.6"/><path d="M262,180 L310,180 L310,226 L358,226" fill="none" stroke="#cfd4da" stroke-width="1.6"/><path d="M262,180 L310,180 L310,318 L358,318" fill="none" stroke="#e8a200" stroke-width="2.4"/><path d="M358,88 L406,88 L406,88 L454,88" fill="none" stroke="#e8a200" stroke-width="2.4"/><path d="M358,134 L406,134 L406,134 L454,134" fill="none" stroke="#cfd4da" stroke-width="1.6"/><path d="M358,180 L406,180 L406,180 L454,180" fill="none" stroke="#cfd4da" stroke-width="1.6"/><path d="M358,226 L406,226 L406,226 L454,226" fill="none" stroke="#cfd4da" stroke-width="1.6"/><path d="M358,318 L406,318 L406,318 L454,318" fill="none" stroke="#e8a200" stroke-width="2.4"/><path d="M454,88 L502,88 L502,88 L550,88" fill="none" stroke="#e8a200" stroke-width="2.4"/><path d="M454,134 L502,134 L502,134 L550,134" fill="none" stroke="#cfd4da" stroke-width="1.6"/><path d="M454,180 L502,180 L502,180 L550,180" fill="none" stroke="#cfd4da" stroke-width="1.6"/><path d="M454,226 L502,226 L502,226 L550,226" fill="none" stroke="#cfd4da" stroke-width="1.6"/><path d="M454,318 L502,318 L502,318 L550,318" fill="none" stroke="#e8a200" stroke-width="2.4"/><path d="M1030,157 L598,157 L598,180 L166,180" fill="none" stroke="#e8a200" stroke-width="2.4"/><path d="M838,318 L502,318 L502,180 L166,180" fill="none" stroke="#e8a200" stroke-width="2.4"/><path d="M550,88 L598,88 L598,88 L646,88" fill="none" stroke="#e8a200" stroke-width="2.4"/><path d="M550,134 L598,134 L598,134 L646,134" fill="none" stroke="#cfd4da" stroke-width="1.6"/><path d="M550,180 L598,180 L598,180 L646,180" fill="none" stroke="#cfd4da" stroke-width="1.6"/><path d="M550,226 L598,226 L598,226 L646,226" fill="none" stroke="#cfd4da" stroke-width="1.6"/><path d="M646,88 L694,88 L694,88 L742,88" fill="none" stroke="#e8a200" stroke-width="2.4"/><path d="M646,134 L694,134 L694,134 L742,134" fill="none" stroke="#cfd4da" stroke-width="1.6"/><path d="M646,180 L694,180 L694,180 L742,180" fill="none" stroke="#cfd4da" stroke-width="1.6"/><path d="M646,226 L694,226 L694,226 L742,226" fill="none" stroke="#cfd4da" stroke-width="1.6"/><path d="M742,88 L790,88 L790,88 L838,88" fill="none" stroke="#e8a200" stroke-width="2.4"/><path d="M742,134 L790,134 L790,134 L838,134" fill="none" stroke="#cfd4da" stroke-width="1.6"/><path d="M742,180 L790,180 L790,180 L838,180" fill="none" stroke="#cfd4da" stroke-width="1.6"/><path d="M742,226 L790,226 L790,226 L838,226" fill="none" stroke="#cfd4da" stroke-width="1.6"/><path d="M838,88 L886,88 L886,157 L934,157" fill="none" stroke="#e8a200" stroke-width="2.4"/><path d="M838,134 L886,134 L886,157 L934,157" fill="none" stroke="#cfd4da" stroke-width="1.6"/><path d="M838,180 L886,180 L886,157 L934,157" fill="none" stroke="#cfd4da" stroke-width="1.6"/><path d="M838,226 L886,226 L886,157 L934,157" fill="none" stroke="#cfd4da" stroke-width="1.6"/><path d="M934,157 L982,157 L982,157 L1030,157" fill="none" stroke="#e8a200" stroke-width="2.4"/><path d="M550,318 L598,318 L598,318 L646,318" fill="none" stroke="#e8a200" stroke-width="2.4"/><path d="M646,318 L694,318 L694,318 L742,318" fill="none" stroke="#e8a200" stroke-width="2.4"/><path d="M742,318 L790,318 L790,318 L838,318" fill="none" stroke="#e8a200" stroke-width="2.4"/><path d="M166,392 L214,392 L214,392 L262,392" fill="none" stroke="#cfd4da" stroke-width="1.6"/><path d="M262,392 L310,392 L310,392 L358,392" fill="none" stroke="#cfd4da" stroke-width="1.6"/><rect x="60" y="171" width="20" height="18" rx="3" fill="#6b7280"/><text x="70" y="184" font-size="8" text-anchor="middle" fill="white">~</text><text x="70" y="167" font-size="8" text-anchor="middle" fill="#555">mains</text><circle cx="166" cy="180" r="6" fill="#e8a200" stroke="#9aa0a6" stroke-width="0.7"/><text x="166" y="167" font-size="8" text-anchor="middle" fill="#555">PSU</text><circle cx="262" cy="180" r="6" fill="#e8a200" stroke="#9aa0a6" stroke-width="0.7"/><text x="262" y="167" font-size="8" text-anchor="middle" fill="#555">logic</text><circle cx="358" cy="88" r="6" fill="#e8a200" stroke="#9aa0a6" stroke-width="0.7"/><text x="358" y="75" font-size="8" text-anchor="middle" fill="#555">triac1</text><circle cx="358" cy="134" r="6" fill="#dfe3e8" stroke="#9aa0a6" stroke-width="0.7"/><text x="358" y="121" font-size="8" text-anchor="middle" fill="#555">triac2</text><circle cx="358" cy="180" r="6" fill="#dfe3e8" stroke="#9aa0a6" stroke-width="0.7"/><text x="358" y="167" font-size="8" text-anchor="middle" fill="#555">triac3</text><circle cx="358" cy="226" r="6" fill="#dfe3e8" stroke="#9aa0a6" stroke-width="0.7"/><text x="358" y="213" font-size="8" text-anchor="middle" fill="#555">triac4</text><circle cx="454" cy="88" r="6" fill="#e8a200" stroke="#9aa0a6" stroke-width="0.7"/><text x="454" y="75" font-size="8" text-anchor="middle" fill="#555">ts1</text><circle cx="454" cy="134" r="6" fill="#dfe3e8" stroke="#9aa0a6" stroke-width="0.7"/><text x="454" y="121" font-size="8" text-anchor="middle" fill="#555">ts2</text><circle cx="454" cy="180" r="6" fill="#dfe3e8" stroke="#9aa0a6" stroke-width="0.7"/><text x="454" y="167" font-size="8" text-anchor="middle" fill="#555">ts3</text><circle cx="454" cy="226" r="6" fill="#dfe3e8" stroke="#9aa0a6" stroke-width="0.7"/><text x="454" y="213" font-size="8" text-anchor="middle" fill="#555">ts4</text><circle cx="550" cy="88" r="6" fill="#e8a200" stroke="#9aa0a6" stroke-width="0.7"/><text x="550" y="75" font-size="8" text-anchor="middle" fill="#555">s1</text><circle cx="550" cy="134" r="6" fill="#dfe3e8" stroke="#9aa0a6" stroke-width="0.7"/><text x="550" y="121" font-size="8" text-anchor="middle" fill="#555">s2</text><circle cx="550" cy="180" r="6" fill="#dfe3e8" stroke="#9aa0a6" stroke-width="0.7"/><text x="550" y="167" font-size="8" text-anchor="middle" fill="#555">s3</text><circle cx="550" cy="226" r="6" fill="#dfe3e8" stroke="#9aa0a6" stroke-width="0.7"/><text x="550" y="213" font-size="8" text-anchor="middle" fill="#555">s4</text><circle cx="646" cy="88" r="6" fill="#e8a200" stroke="#9aa0a6" stroke-width="0.7"/><text x="646" y="75" font-size="8" text-anchor="middle" fill="#555">Z1</text><circle cx="646" cy="134" r="6" fill="#dfe3e8" stroke="#9aa0a6" stroke-width="0.7"/><text x="646" y="121" font-size="8" text-anchor="middle" fill="#555">Z2</text><circle cx="646" cy="180" r="6" fill="#dfe3e8" stroke="#9aa0a6" stroke-width="0.7"/><text x="646" y="167" font-size="8" text-anchor="middle" fill="#555">Z3</text><circle cx="646" cy="226" r="6" fill="#dfe3e8" stroke="#9aa0a6" stroke-width="0.7"/><text x="646" y="213" font-size="8" text-anchor="middle" fill="#555">Z4</text><rect x="731" y="80" width="22" height="16" rx="3" fill="#e8a200" stroke="#888"/><text x="742" y="75" font-size="8" text-anchor="middle" fill="#555">Z1 coil</text><rect x="731" y="126" width="22" height="16" rx="3" fill="#dfe3e8" stroke="#888"/><text x="742" y="121" font-size="8" text-anchor="middle" fill="#555">Z2 coil</text><rect x="731" y="172" width="22" height="16" rx="3" fill="#dfe3e8" stroke="#888"/><text x="742" y="167" font-size="8" text-anchor="middle" fill="#555">Z3 coil</text><rect x="731" y="218" width="22" height="16" rx="3" fill="#dfe3e8" stroke="#888"/><text x="742" y="213" font-size="8" text-anchor="middle" fill="#555">Z4 coil</text><circle cx="838" cy="88" r="6" fill="#e8a200" stroke="#9aa0a6" stroke-width="0.7"/><text x="838" y="75" font-size="8" text-anchor="middle" fill="#555">Z1c</text><circle cx="838" cy="134" r="6" fill="#dfe3e8" stroke="#9aa0a6" stroke-width="0.7"/><text x="838" y="121" font-size="8" text-anchor="middle" fill="#555">Z2c</text><circle cx="838" cy="180" r="6" fill="#dfe3e8" stroke="#9aa0a6" stroke-width="0.7"/><text x="838" y="167" font-size="8" text-anchor="middle" fill="#555">Z3c</text><circle cx="838" cy="226" r="6" fill="#dfe3e8" stroke="#9aa0a6" stroke-width="0.7"/><text x="838" y="213" font-size="8" text-anchor="middle" fill="#555">Z4c</text><rect x="925" y="135.0" width="18" height="44" rx="3" fill="#e8a200" stroke="#888"/><text x="934" y="130.0" font-size="8" text-anchor="middle" fill="#555">COMMON</text><circle cx="1030" cy="157.0" r="6" fill="#e8a200" stroke="#9aa0a6" stroke-width="0.7"/><text x="1030" y="144.0" font-size="8" text-anchor="middle" fill="#555">com</text><circle cx="358" cy="318" r="6" fill="#e8a200" stroke="#9aa0a6" stroke-width="0.7"/><text x="358" y="305" font-size="8" text-anchor="middle" fill="#555">P-tap</text><circle cx="454" cy="318" r="6" fill="#e8a200" stroke="#9aa0a6" stroke-width="0.7"/><text x="454" y="305" font-size="8" text-anchor="middle" fill="#555">pmv</text><circle cx="550" cy="318" r="6" fill="#e8a200" stroke="#9aa0a6" stroke-width="0.7"/><text x="550" y="305" font-size="8" text-anchor="middle" fill="#555">sig</text><rect x="635" y="310" width="22" height="16" rx="3" fill="#e8a200" stroke="#888"/><text x="646" y="305" font-size="8" text-anchor="middle" fill="#555">relay coil</text><circle cx="742" cy="318" r="6" fill="#e8a200" stroke="#9aa0a6" stroke-width="0.7"/><text x="742" y="305" font-size="8" text-anchor="middle" fill="#555">rcom</text><circle cx="838" cy="318" r="6" fill="#e8a200" stroke="#9aa0a6" stroke-width="0.7"/><text x="838" y="305" font-size="8" text-anchor="middle" fill="#555">rtn</text><circle cx="166" cy="391.59999999999997" r="6" fill="#dfe3e8" stroke="#9aa0a6" stroke-width="0.7"/><text x="166" y="378.59999999999997" font-size="8" text-anchor="middle" fill="#555">relay line</text><circle cx="262" cy="391.59999999999997" r="6" fill="#dfe3e8" stroke="#9aa0a6" stroke-width="0.7"/><text x="262" y="378.59999999999997" font-size="8" text-anchor="middle" fill="#555">contactor</text><circle cx="358" cy="391.59999999999997" r="11" fill="#2e9e4f" stroke="#555"/><text x="358" y="395.59999999999997" font-size="9" text-anchor="middle" fill="white" font-weight="700">M</text><text x="358" y="378.59999999999997" font-size="8" text-anchor="middle" fill="#555">MOTOR</text><circle cx="454" cy="391.59999999999997" r="6" fill="#dfe3e8" stroke="#9aa0a6" stroke-width="0.7"/><text x="454" y="378.59999999999997" font-size="8" text-anchor="middle" fill="#555">cap</text><circle cx="175.60000000000002" cy="88" r="6" fill="#eef1f4" stroke="#9aa0a6" stroke-width="0.7"/><text x="175.60000000000002" y="75" font-size="8" text-anchor="middle" fill="#555">sched</text><circle cx="175.60000000000002" cy="113.3" r="6" fill="#eef1f4" stroke="#9aa0a6" stroke-width="0.7"/><text x="175.60000000000002" y="100.3" font-size="8" text-anchor="middle" fill="#555">scr</text><circle cx="252.39999999999998" cy="88" r="6" fill="#eef1f4" stroke="#9aa0a6" stroke-width="0.7"/><text x="252.39999999999998" y="75" font-size="8" text-anchor="middle" fill="#555">wifi</text><circle cx="252.39999999999998" cy="113.3" r="6" fill="#eef1f4" stroke="#9aa0a6" stroke-width="0.7"/><text x="252.39999999999998" y="100.3" font-size="8" text-anchor="middle" fill="#555">cloud</text></g></svg>