<svg xmlns="http://www.w3.org/2000/svg" width="384" height="360" viewBox="0 0 384 360"><rect width="384" height="360" fill="#fcfbf7"/><text x="14" y="24" font-family="Segoe UI,Helvetica,sans-serif" font-size="15" font-weight="600" fill="#4f4636">Soil moisture &#183; day by day</text><rect x="14" y="40" width="356" height="92" fill="#eaf3f5"/><rect x="185.9" y="36" width="184.1" height="264" fill="#000000" opacity="0.025"/><rect x="15.8" y="140.4" width="8.6" height="159.6" rx="1.5" fill="#9bb07a" opacity="1"/><rect x="28.1" y="145.9" width="8.6" height="154.1" rx="1.5" fill="#9bb07a" opacity="1"/><rect x="40.4" y="132.7" width="8.6" height="167.3" rx="1.5" fill="#9bb07a" opacity="1"/><rect x="52.7" y="132.0" width="8.6" height="168.0" rx="1.5" fill="#9bb07a" opacity="1"/><rect x="64.9" y="132.0" width="8.6" height="168.0" rx="1.5" fill="#9bb07a" opacity="1"/><rect x="77.2" y="132.0" width="8.6" height="168.0" rx="1.5" fill="#9bb07a" opacity="1"/><rect x="89.5" y="141.4" width="8.6" height="158.6" rx="1.5" fill="#9bb07a" opacity="1"/><rect x="101.8" y="154.7" width="8.6" height="145.3" rx="1.5" fill="#9bb07a" opacity="1"/><rect x="114.0" y="167.0" width="8.6" height="133.0" rx="1.5" fill="#9bb07a" opacity="1"/><rect x="126.3" y="183.1" width="8.6" height="116.9" rx="1.5" fill="#9bb07a" opacity="1"/><rect x="138.6" y="193.7" width="8.6" height="106.3" rx="1.5" fill="#9bb07a" opacity="1"/><rect x="150.9" y="215.0" width="8.6" height="85.0" rx="1.5" fill="#9bb07a" opacity="1"/><rect x="163.2" y="225.1" width="8.6" height="74.9" rx="1.5" fill="#c4c193" opacity="1"/><rect x="175.4" y="235.1" width="8.6" height="64.9" rx="1.5" fill="#c4c193" opacity="1"/><rect x="187.7" y="256.0" width="8.6" height="44.0" rx="1.5" fill="#c4c193" opacity="0.55"/><rect x="200.0" y="281.0" width="8.6" height="19.0" rx="1.5" fill="#e3d2b4" opacity="0.55"/><rect x="212.3" y="300.0" width="8.6" height="0.0" rx="1.5" fill="#e3d2b4" opacity="0.55"/><rect x="224.5" y="300.0" width="8.6" height="0.0" rx="1.5" fill="#e3d2b4" opacity="0.55"/><rect x="236.8" y="300.0" width="8.6" height="0.0" rx="1.5" fill="#e3d2b4" opacity="0.55"/><rect x="249.1" y="300.0" width="8.6" height="0.0" rx="1.5" fill="#e3d2b4" opacity="0.55"/><rect x="261.4" y="300.0" width="8.6" height="0.0" rx="1.5" fill="#e3d2b4" opacity="0.55"/><rect x="273.6" y="300.0" width="8.6" height="0.0" rx="1.5" fill="#e3d2b4" opacity="0.55"/><rect x="285.9" y="300.0" width="8.6" height="0.0" rx="1.5" fill="#e3d2b4" opacity="0.55"/><rect x="298.2" y="274.7" width="8.6" height="25.3" rx="1.5" fill="#e3d2b4" opacity="0.55"/><rect x="310.5" y="217.1" width="8.6" height="82.9" rx="1.5" fill="#9bb07a" opacity="0.55"/><rect x="322.7" y="226.6" width="8.6" height="73.4" rx="1.5" fill="#c4c193" opacity="0.55"/><rect x="335.0" y="232.6" width="8.6" height="67.4" rx="1.5" fill="#c4c193" opacity="0.55"/><rect x="347.3" y="233.7" width="8.6" height="66.3" rx="1.5" fill="#c4c193" opacity="0.55"/><rect x="359.6" y="256.9" width="8.6" height="43.1" rx="1.5" fill="#c4c193" opacity="0.55"/><path d="M 20.1 140.4 C 22.2 141.3 28.3 147.2 32.4 145.9 C 36.5 144.6 40.6 135.0 44.7 132.7 C 48.8 130.4 52.9 132.1 57.0 132.0 C 61.1 131.9 65.1 132.0 69.2 132.0 C 73.3 132.0 77.4 130.4 81.5 132.0 C 85.6 133.6 89.7 137.6 93.8 141.4 C 97.9 145.2 102.0 150.4 106.1 154.7 C 110.2 158.9 114.3 162.3 118.3 167.0 C 122.4 171.8 126.5 178.7 130.6 183.1 C 134.7 187.6 138.8 188.4 142.9 193.7 C 147.0 199.0 151.1 209.8 155.2 215.0 C 159.3 220.2 163.4 221.7 167.4 225.1 C 171.5 228.4 175.6 230.0 179.7 235.1 C 183.8 240.3 187.9 248.4 192.0 256.0 C 196.1 263.7 200.2 273.7 204.3 281.0 C 208.4 288.3 212.5 296.8 216.6 300.0 C 220.6 303.2 224.7 300.0 228.8 300.0 C 232.9 300.0 237.0 300.0 241.1 300.0 C 245.2 300.0 249.3 300.0 253.4 300.0 C 257.5 300.0 261.6 300.0 265.7 300.0 C 269.7 300.0 273.8 300.0 277.9 300.0 C 282.0 300.0 286.1 304.2 290.2 300.0 C 294.3 295.8 298.4 288.5 302.5 274.7 C 306.6 260.9 310.7 225.1 314.8 217.1 C 318.9 209.1 322.9 224.1 327.0 226.6 C 331.1 229.2 335.2 231.4 339.3 232.6 C 343.4 233.7 347.5 229.7 351.6 233.7 C 355.7 237.8 361.8 253.1 363.9 256.9 " fill="none" stroke="#4a7c59" stroke-width="2"/><circle cx="20.1" cy="57.8" r="1.5" fill="#6fa3c0" opacity="0.85"/><circle cx="32.4" cy="57.4" r="1.6" fill="#6fa3c0" opacity="0.85"/><circle cx="44.7" cy="54.2" r="2.6" fill="#6fa3c0" opacity="0.85"/><circle cx="57.0" cy="54.6" r="2.5" fill="#6fa3c0" opacity="0.85"/><circle cx="69.2" cy="55.1" r="2.3" fill="#6fa3c0" opacity="0.85"/><circle cx="81.5" cy="55.2" r="2.3" fill="#6fa3c0" opacity="0.85"/><circle cx="93.8" cy="57.8" r="1.5" fill="#6fa3c0" opacity="0.85"/><circle cx="106.1" cy="57.9" r="1.4" fill="#6fa3c0" opacity="0.85"/><circle cx="130.6" cy="57.9" r="1.4" fill="#6fa3c0" opacity="0.85"/><circle cx="142.9" cy="57.9" r="1.4" fill="#6fa3c0" opacity="0.85"/><circle cx="167.4" cy="56.1" r="2.0" fill="#6fa3c0" opacity="0.85"/><circle cx="179.7" cy="56.1" r="2.0" fill="#6fa3c0" opacity="0.85"/><circle cx="265.7" cy="57.0" r="1.7" fill="#6fa3c0" opacity="0.85"/><circle cx="290.2" cy="56.0" r="2.0" fill="#6fa3c0" opacity="0.85"/><circle cx="302.5" cy="52.3" r="3.2" fill="#6fa3c0" opacity="0.85"/><circle cx="314.8" cy="48.0" r="4.6" fill="#6fa3c0" opacity="0.85"/><circle cx="327.0" cy="57.0" r="1.7" fill="#6fa3c0" opacity="0.85"/><circle cx="339.3" cy="56.7" r="1.8" fill="#6fa3c0" opacity="0.85"/><circle cx="351.6" cy="56.4" r="1.9" fill="#6fa3c0" opacity="0.85"/><rect x="14" y="132" width="356" height="168" fill="none" stroke="#cdbfa3"/><line x1="185.9" y1="36" x2="185.9" y2="300" stroke="#9a8f7a" stroke-width="1" stroke-dasharray="2 3"/><text x="188.9" y="46" font-family="Segoe UI,sans-serif" font-size="9" fill="#9a8f7a">today</text><text x="370" y="129" text-anchor="end" font-size="9" font-family="Segoe UI,sans-serif" fill="#9a8f7a">full 39 mm</text><text x="370" y="312" text-anchor="end" font-size="9" font-family="Segoe UI,sans-serif" fill="#9a8f7a">empty</text><text x="20.1" y="324" text-anchor="middle" font-size="8.5" font-family="Segoe UI,sans-serif" fill="#9a8f7a">Su 07</text><text x="106.1" y="324" text-anchor="middle" font-size="8.5" font-family="Segoe UI,sans-serif" fill="#9a8f7a">Su 14</text><text x="192.0" y="324" text-anchor="middle" font-size="8.5" font-family="Segoe UI,sans-serif" fill="#9a8f7a">Su 21</text><text x="277.9" y="324" text-anchor="middle" font-size="8.5" font-family="Segoe UI,sans-serif" fill="#9a8f7a">Su 28</text><text x="363.9" y="324" text-anchor="middle" font-size="8.5" font-family="Segoe UI,sans-serif" fill="#9a8f7a">Su 05</text><g font-family="Segoe UI,sans-serif" font-size="9.5" fill="#4f4636"><circle cx="20" cy="346" r="3.5" fill="#6fa3c0"/><text x="28" y="349">rain (size = mm)</text><rect x="142" y="341" width="10" height="9" fill="#9bb07a"/><rect x="154" y="341" width="10" height="9" fill="#e3d2b4"/><text x="168" y="349">wet &#8594; dry</text></g></svg>