<svg xmlns="http://www.w3.org/2000/svg" width="944" height="1154" viewBox="0 0 944 1154" font-family="ui-sans-serif,Segoe UI,system-ui,sans-serif">
<rect width="944" height="1154" fill="#E7E4DA"/>
<text x="28" y="52" font-size="22" font-weight="700" fill="#4A463C">soil-balance.html — chrome colours (26, grouped by hue)</text>
<text x="28" y="90" font-size="13" font-weight="700" letter-spacing="1.5" fill="#8A8270">NEUTRALS — BACKGROUNDS / SURFACES / BORDERS</text>
<rect x="28" y="98" width="210" height="46" rx="4" fill="#E7E4DA" stroke="#00000018"/>
<text x="38" y="126" font-size="14" font-weight="700" font-family="ui-monospace,Menlo,monospace" fill="#2a2620">#E7E4DA</text>
<text x="38" y="159" font-size="12" fill="#5B5547">--bg  page</text>
<rect x="254" y="98" width="210" height="46" rx="4" fill="#FBFAF6" stroke="#00000018"/>
<text x="264" y="126" font-size="14" font-weight="700" font-family="ui-monospace,Menlo,monospace" fill="#2a2620">#FBFAF6</text>
<text x="264" y="159" font-size="12" fill="#5B5547">surface</text>
<rect x="480" y="98" width="210" height="46" rx="4" fill="#FFFFFF" stroke="#00000018"/>
<text x="490" y="126" font-size="14" font-weight="700" font-family="ui-monospace,Menlo,monospace" fill="#2a2620">#FFFFFF</text>
<text x="490" y="159" font-size="12" fill="#5B5547">pure white</text>
<rect x="706" y="98" width="210" height="46" rx="4" fill="#ECE7D8" stroke="#00000018"/>
<text x="716" y="126" font-size="14" font-weight="700" font-family="ui-monospace,Menlo,monospace" fill="#2a2620">#ECE7D8</text>
<text x="716" y="159" font-size="12" fill="#5B5547">hairline / track</text>
<rect x="28" y="178" width="210" height="46" rx="4" fill="#E0DBCD" stroke="#00000018"/>
<text x="38" y="206" font-size="14" font-weight="700" font-family="ui-monospace,Menlo,monospace" fill="#2a2620">#E0DBCD</text>
<text x="38" y="239" font-size="12" fill="#5B5547">borders / track / axis</text>
<rect x="254" y="178" width="210" height="46" rx="4" fill="#F3F0E7" stroke="#00000018"/>
<text x="264" y="206" font-size="14" font-weight="700" font-family="ui-monospace,Menlo,monospace" fill="#2a2620">#F3F0E7</text>
<text x="264" y="239" font-size="12" fill="#5B5547">controls grad top</text>
<rect x="480" y="178" width="210" height="46" rx="4" fill="#CDBF9F" stroke="#00000018"/>
<text x="490" y="206" font-size="14" font-weight="700" font-family="ui-monospace,Menlo,monospace" fill="#2a2620">#CDBF9F</text>
<text x="490" y="239" font-size="12" fill="#5B5547">seg hover border</text>
<text x="28" y="300" font-size="13" font-weight="700" letter-spacing="1.5" fill="#8A8270">TAUPE &amp; GREYS — TEXT / UI</text>
<rect x="28" y="308" width="210" height="46" rx="4" fill="#4A463C" stroke="#00000018"/>
<text x="38" y="336" font-size="14" font-weight="700" font-family="ui-monospace,Menlo,monospace" fill="#ffffff">#4A463C</text>
<text x="38" y="369" font-size="12" fill="#5B5547">--ink  body text</text>
<rect x="254" y="308" width="210" height="46" rx="4" fill="#5A4A33" stroke="#00000018"/>
<text x="264" y="336" font-size="14" font-weight="700" font-family="ui-monospace,Menlo,monospace" fill="#ffffff">#5A4A33</text>
<text x="264" y="369" font-size="12" fill="#5B5547">--surface  (illustration)</text>
<rect x="480" y="308" width="210" height="46" rx="4" fill="#5B5547" stroke="#00000018"/>
<text x="490" y="336" font-size="14" font-weight="700" font-family="ui-monospace,Menlo,monospace" fill="#ffffff">#5B5547</text>
<text x="490" y="369" font-size="12" fill="#5B5547">control text</text>
<rect x="706" y="308" width="210" height="46" rx="4" fill="#8A8270" stroke="#00000018"/>
<text x="716" y="336" font-size="14" font-weight="700" font-family="ui-monospace,Menlo,monospace" fill="#ffffff">#8A8270</text>
<text x="716" y="369" font-size="12" fill="#5B5547">labels / sub / kick</text>
<rect x="28" y="388" width="210" height="46" rx="4" fill="#9A9484" stroke="#00000018"/>
<text x="38" y="416" font-size="14" font-weight="700" font-family="ui-monospace,Menlo,monospace" fill="#ffffff">#9A9484</text>
<text x="38" y="449" font-size="12" fill="#5B5547">--faint  muted</text>
<rect x="254" y="388" width="210" height="46" rx="4" fill="#BDB6A4" stroke="#00000018"/>
<text x="264" y="416" font-size="14" font-weight="700" font-family="ui-monospace,Menlo,monospace" fill="#2a2620">#BDB6A4</text>
<text x="264" y="449" font-size="12" fill="#5B5547">scrollbar thumb</text>
<rect x="480" y="388" width="210" height="46" rx="4" fill="#A89F8B" stroke="#00000018"/>
<text x="490" y="416" font-size="14" font-weight="700" font-family="ui-monospace,Menlo,monospace" fill="#2a2620">#A89F8B</text>
<text x="490" y="449" font-size="12" fill="#5B5547">thumb active</text>
<text x="28" y="510" font-size="13" font-weight="700" letter-spacing="1.5" fill="#8A8270">GREENS</text>
<rect x="28" y="518" width="210" height="46" rx="4" fill="#4F6B4A" stroke="#00000018"/>
<text x="38" y="546" font-size="14" font-weight="700" font-family="ui-monospace,Menlo,monospace" fill="#ffffff">#4F6B4A</text>
<text x="38" y="579" font-size="12" fill="#5B5547">--today / status-good</text>
<rect x="254" y="518" width="210" height="46" rx="4" fill="#6E8E68" stroke="#00000018"/>
<text x="264" y="546" font-size="14" font-weight="700" font-family="ui-monospace,Menlo,monospace" fill="#ffffff">#6E8E68</text>
<text x="264" y="579" font-size="12" fill="#5B5547">primary accent</text>
<rect x="480" y="518" width="210" height="46" rx="4" fill="#3E5639" stroke="#00000018"/>
<text x="490" y="546" font-size="14" font-weight="700" font-family="ui-monospace,Menlo,monospace" fill="#ffffff">#3E5639</text>
<text x="490" y="579" font-size="12" fill="#5B5547">h1</text>
<text x="28" y="640" font-size="13" font-weight="700" letter-spacing="1.5" fill="#8A8270">TEALS</text>
<rect x="28" y="648" width="210" height="46" rx="4" fill="#1FA6BE" stroke="#00000018"/>
<text x="38" y="676" font-size="14" font-weight="700" font-family="ui-monospace,Menlo,monospace" fill="#ffffff">#1FA6BE</text>
<text x="38" y="709" font-size="12" fill="#5B5547">--table  water table</text>
<rect x="254" y="648" width="210" height="46" rx="4" fill="#1696AE" stroke="#00000018"/>
<text x="264" y="676" font-size="14" font-weight="700" font-family="ui-monospace,Menlo,monospace" fill="#ffffff">#1696AE</text>
<text x="264" y="709" font-size="12" fill="#5B5547">axis water</text>
<text x="28" y="770" font-size="13" font-weight="700" letter-spacing="1.5" fill="#8A8270">WARM ACCENTS</text>
<rect x="28" y="778" width="210" height="46" rx="4" fill="#D98A2B" stroke="#00000018"/>
<text x="38" y="806" font-size="14" font-weight="700" font-family="ui-monospace,Menlo,monospace" fill="#2a2620">#D98A2B</text>
<text x="38" y="839" font-size="12" fill="#5B5547">--amber  water-by</text>
<rect x="254" y="778" width="210" height="46" rx="4" fill="#B5471F" stroke="#00000018"/>
<text x="264" y="806" font-size="14" font-weight="700" font-family="ui-monospace,Menlo,monospace" fill="#ffffff">#B5471F</text>
<text x="264" y="839" font-size="12" fill="#5B5547">--rust  refill / alert</text>
<rect x="480" y="778" width="210" height="46" rx="4" fill="#9C4A2E" stroke="#00000018"/>
<text x="490" y="806" font-size="14" font-weight="700" font-family="ui-monospace,Menlo,monospace" fill="#ffffff">#9C4A2E</text>
<text x="490" y="839" font-size="12" fill="#5B5547">error text/icon</text>
<text x="28" y="900" font-size="13" font-weight="700" letter-spacing="1.5" fill="#8A8270">TINTED BACKGROUNDS</text>
<rect x="28" y="908" width="210" height="46" rx="4" fill="#F1E1DA" stroke="#00000018"/>
<text x="38" y="936" font-size="14" font-weight="700" font-family="ui-monospace,Menlo,monospace" fill="#2a2620">#F1E1DA</text>
<text x="38" y="969" font-size="12" fill="#5B5547">error icon bg</text>
<rect x="254" y="908" width="210" height="46" rx="4" fill="#E9EEE7" stroke="#00000018"/>
<text x="264" y="936" font-size="14" font-weight="700" font-family="ui-monospace,Menlo,monospace" fill="#2a2620">#E9EEE7</text>
<text x="264" y="969" font-size="12" fill="#5B5547">demo-on bg</text>
<text x="28" y="1030" font-size="13" font-weight="700" letter-spacing="1.5" fill="#8A8270">RGBA</text>
<rect x="28" y="1038" width="210" height="46" fill="#9a9486"/>
<rect x="28" y="1038" width="210" height="46" fill="rgba(243,240,231,0)" stroke="#00000022"/>
<text x="38" y="1066" font-size="14" font-weight="700" font-family="ui-monospace,Menlo,monospace" fill="#2a2620">rgba(243,240,231,0)</text>
<text x="38" y="1099" font-size="12" fill="#5B5547">controls fade</text>
<rect x="254" y="1038" width="210" height="46" fill="#9a9486"/>
<rect x="254" y="1038" width="210" height="46" fill="rgba(79,107,74,.7)" stroke="#00000022"/>
<text x="264" y="1066" font-size="14" font-weight="700" font-family="ui-monospace,Menlo,monospace" fill="#2a2620">rgba(79,107,74,.7)</text>
<text x="264" y="1099" font-size="12" fill="#5B5547">pressed shadow</text>
</svg>