<svg xmlns="http://www.w3.org/2000/svg" width="384" height="360" viewBox="0 0 384 360"><rect width="384" height="360" fill="#fcfbf7"/><defs><linearGradient id="soilA" x1="0" y1="0" x2="0" y2="1"><stop offset="0" stop-color="#9bb07a"/><stop offset="1" stop-color="#e3d2b4"/></linearGradient></defs><text x="14" y="24" font-family="Segoe UI,Helvetica,sans-serif" font-size="15" font-weight="600" fill="#4f4636">Soil moisture &#183; 4-week window</text><rect x="14" y="40" width="356" height="92" fill="#eaf3f5"/><rect x="185.9" y="36" width="184.1" height="264" fill="#000000" opacity="0.025"/><path d="M 20.1 140.4 C 22.2 141.3 28.3 147.2 32.4 145.9 C 36.5 144.6 40.6 135.0 44.7 132.7 C 48.8 130.4 52.9 132.1 57.0 132.0 C 61.1 131.9 65.1 132.0 69.2 132.0 C 73.3 132.0 77.4 130.4 81.5 132.0 C 85.6 133.6 89.7 137.6 93.8 141.4 C 97.9 145.2 102.0 150.4 106.1 154.7 C 110.2 158.9 114.3 162.3 118.3 167.0 C 122.4 171.8 126.5 178.7 130.6 183.1 C 134.7 187.6 138.8 188.4 142.9 193.7 C 147.0 199.0 151.1 209.8 155.2 215.0 C 159.3 220.2 163.4 221.7 167.4 225.1 C 171.5 228.4 175.6 230.0 179.7 235.1 C 183.8 240.3 187.9 248.4 192.0 256.0 C 196.1 263.7 200.2 273.7 204.3 281.0 C 208.4 288.3 212.5 296.8 216.6 300.0 C 220.6 303.2 224.7 300.0 228.8 300.0 C 232.9 300.0 237.0 300.0 241.1 300.0 C 245.2 300.0 249.3 300.0 253.4 300.0 C 257.5 300.0 261.6 300.0 265.7 300.0 C 269.7 300.0 273.8 300.0 277.9 300.0 C 282.0 300.0 286.1 304.2 290.2 300.0 C 294.3 295.8 298.4 288.5 302.5 274.7 C 306.6 260.9 310.7 225.1 314.8 217.1 C 318.9 209.1 322.9 224.1 327.0 226.6 C 331.1 229.2 335.2 231.4 339.3 232.6 C 343.4 233.7 347.5 229.7 351.6 233.7 C 355.7 237.8 361.8 253.1 363.9 256.9  L 363.9 300 L 20.1 300 Z" fill="url(#soilA)"/><line x1="20.1" y1="40.0" x2="20.1" y2="41.4" stroke="#6fa3c0" stroke-width="3" stroke-linecap="round" opacity="0.8"/><line x1="32.4" y1="40.0" x2="32.4" y2="45.2" stroke="#6fa3c0" stroke-width="3" stroke-linecap="round" opacity="0.8"/><line x1="44.7" y1="40.0" x2="44.7" y2="72.4" stroke="#6fa3c0" stroke-width="3" stroke-linecap="round" opacity="0.8"/><line x1="57.0" y1="40.0" x2="57.0" y2="69.1" stroke="#6fa3c0" stroke-width="3" stroke-linecap="round" opacity="0.8"/><line x1="69.2" y1="40.0" x2="69.2" y2="64.9" stroke="#6fa3c0" stroke-width="3" stroke-linecap="round" opacity="0.8"/><line x1="81.5" y1="40.0" x2="81.5" y2="64.0" stroke="#6fa3c0" stroke-width="3" stroke-linecap="round" opacity="0.8"/><line x1="93.8" y1="40.0" x2="93.8" y2="41.4" stroke="#6fa3c0" stroke-width="3" stroke-linecap="round" opacity="0.8"/><line x1="106.1" y1="40.0" x2="106.1" y2="40.9" stroke="#6fa3c0" stroke-width="3" stroke-linecap="round" opacity="0.8"/><line x1="130.6" y1="40.0" x2="130.6" y2="40.5" stroke="#6fa3c0" stroke-width="3" stroke-linecap="round" opacity="0.8"/><line x1="142.9" y1="40.0" x2="142.9" y2="40.9" stroke="#6fa3c0" stroke-width="3" stroke-linecap="round" opacity="0.8"/><line x1="167.4" y1="40.0" x2="167.4" y2="56.0" stroke="#6fa3c0" stroke-width="3" stroke-linecap="round" opacity="0.8"/><line x1="179.7" y1="40.0" x2="179.7" y2="56.0" stroke="#6fa3c0" stroke-width="3" stroke-linecap="round" opacity="0.8"/><line x1="265.7" y1="40.0" x2="265.7" y2="48.5" stroke="#6fa3c0" stroke-width="3" stroke-linecap="round" opacity="0.8"/><line x1="290.2" y1="40.0" x2="290.2" y2="56.9" stroke="#6fa3c0" stroke-width="3" stroke-linecap="round" opacity="0.8"/><line x1="302.5" y1="40.0" x2="302.5" y2="89.3" stroke="#6fa3c0" stroke-width="3" stroke-linecap="round" opacity="0.8"/><line x1="314.8" y1="40.0" x2="314.8" y2="126.0" stroke="#6fa3c0" stroke-width="3" stroke-linecap="round" opacity="0.8"/><line x1="327.0" y1="40.0" x2="327.0" y2="48.5" stroke="#6fa3c0" stroke-width="3" stroke-linecap="round" opacity="0.8"/><line x1="339.3" y1="40.0" x2="339.3" y2="51.3" stroke="#6fa3c0" stroke-width="3" stroke-linecap="round" opacity="0.8"/><line x1="351.6" y1="40.0" x2="351.6" y2="54.1" stroke="#6fa3c0" stroke-width="3" stroke-linecap="round" opacity="0.8"/><path d="M 20.1 140.4 C 22.2 141.3 28.3 147.2 32.4 145.9 C 36.5 144.6 40.6 135.0 44.7 132.7 C 48.8 130.4 52.9 132.1 57.0 132.0 C 61.1 131.9 65.1 132.0 69.2 132.0 C 73.3 132.0 77.4 130.4 81.5 132.0 C 85.6 133.6 89.7 137.6 93.8 141.4 C 97.9 145.2 102.0 150.4 106.1 154.7 C 110.2 158.9 114.3 162.3 118.3 167.0 C 122.4 171.8 126.5 178.7 130.6 183.1 C 134.7 187.6 138.8 188.4 142.9 193.7 C 147.0 199.0 151.1 209.8 155.2 215.0 C 159.3 220.2 163.4 221.7 167.4 225.1 C 171.5 228.4 175.6 230.0 179.7 235.1 C 183.8 240.3 187.9 248.4 192.0 256.0 C 196.1 263.7 200.2 273.7 204.3 281.0 C 208.4 288.3 212.5 296.8 216.6 300.0 C 220.6 303.2 224.7 300.0 228.8 300.0 C 232.9 300.0 237.0 300.0 241.1 300.0 C 245.2 300.0 249.3 300.0 253.4 300.0 C 257.5 300.0 261.6 300.0 265.7 300.0 C 269.7 300.0 273.8 300.0 277.9 300.0 C 282.0 300.0 286.1 304.2 290.2 300.0 C 294.3 295.8 298.4 288.5 302.5 274.7 C 306.6 260.9 310.7 225.1 314.8 217.1 C 318.9 209.1 322.9 224.1 327.0 226.6 C 331.1 229.2 335.2 231.4 339.3 232.6 C 343.4 233.7 347.5 229.7 351.6 233.7 C 355.7 237.8 361.8 253.1 363.9 256.9 " fill="none" stroke="#4a7c59" stroke-width="2.5"/><line x1="20.1" y1="137.4" x2="20.1" y2="134.1" stroke="#e0a85a" stroke-width="2" opacity="0.7"/><line x1="32.4" y1="142.9" x2="32.4" y2="139.7" stroke="#e0a85a" stroke-width="2" opacity="0.7"/><line x1="44.7" y1="129.7" x2="44.7" y2="126.0" stroke="#e0a85a" stroke-width="2" opacity="0.7"/><line x1="57.0" y1="129.0" x2="57.0" y2="124.7" stroke="#e0a85a" stroke-width="2" opacity="0.7"/><line x1="69.2" y1="129.0" x2="69.2" y2="125.6" stroke="#e0a85a" stroke-width="2" opacity="0.7"/><line x1="81.5" y1="129.0" x2="81.5" y2="127.9" stroke="#e0a85a" stroke-width="2" opacity="0.7"/><line x1="93.8" y1="138.4" x2="93.8" y2="134.8" stroke="#e0a85a" stroke-width="2" opacity="0.7"/><line x1="106.1" y1="151.7" x2="106.1" y2="146.8" stroke="#e0a85a" stroke-width="2" opacity="0.7"/><line x1="118.3" y1="164.0" x2="118.3" y2="159.7" stroke="#e0a85a" stroke-width="2" opacity="0.7"/><line x1="130.6" y1="180.1" x2="130.6" y2="174.4" stroke="#e0a85a" stroke-width="2" opacity="0.7"/><line x1="142.9" y1="190.7" x2="142.9" y2="186.8" stroke="#e0a85a" stroke-width="2" opacity="0.7"/><line x1="155.2" y1="212.0" x2="155.2" y2="204.6" stroke="#e0a85a" stroke-width="2" opacity="0.7"/><line x1="167.4" y1="222.1" x2="167.4" y2="214.5" stroke="#e0a85a" stroke-width="2" opacity="0.7"/><line x1="179.7" y1="232.1" x2="179.7" y2="224.5" stroke="#e0a85a" stroke-width="2" opacity="0.7"/><line x1="192.0" y1="253.0" x2="192.0" y2="245.8" stroke="#e0a85a" stroke-width="2" opacity="0.7"/><line x1="204.3" y1="278.0" x2="204.3" y2="269.3" stroke="#e0a85a" stroke-width="2" opacity="0.7"/><line x1="216.6" y1="297.0" x2="216.6" y2="289.4" stroke="#e0a85a" stroke-width="2" opacity="0.7"/><line x1="228.8" y1="297.0" x2="228.8" y2="289.2" stroke="#e0a85a" stroke-width="2" opacity="0.7"/><line x1="241.1" y1="297.0" x2="241.1" y2="288.3" stroke="#e0a85a" stroke-width="2" opacity="0.7"/><line x1="253.4" y1="297.0" x2="253.4" y2="288.0" stroke="#e0a85a" stroke-width="2" opacity="0.7"/><line x1="265.7" y1="297.0" x2="265.7" y2="289.4" stroke="#e0a85a" stroke-width="2" opacity="0.7"/><line x1="277.9" y1="297.0" x2="277.9" y2="289.1" stroke="#e0a85a" stroke-width="2" opacity="0.7"/><line x1="290.2" y1="297.0" x2="290.2" y2="289.0" stroke="#e0a85a" stroke-width="2" opacity="0.7"/><line x1="302.5" y1="271.7" x2="302.5" y2="267.9" stroke="#e0a85a" stroke-width="2" opacity="0.7"/><line x1="314.8" y1="214.1" x2="314.8" y2="212.2" stroke="#e0a85a" stroke-width="2" opacity="0.7"/><line x1="327.0" y1="223.6" x2="327.0" y2="218.2" stroke="#e0a85a" stroke-width="2" opacity="0.7"/><line x1="339.3" y1="229.6" x2="339.3" y2="224.6" stroke="#e0a85a" stroke-width="2" opacity="0.7"/><line x1="351.6" y1="230.7" x2="351.6" y2="226.7" stroke="#e0a85a" stroke-width="2" opacity="0.7"/><line x1="363.9" y1="253.9" x2="363.9" y2="245.8" stroke="#e0a85a" stroke-width="2" opacity="0.7"/><rect x="14" y="132" width="356" height="168" fill="none" stroke="#cdbfa3"/><line x1="185.9" y1="36" x2="185.9" y2="300" stroke="#9a8f7a" stroke-width="1" stroke-dasharray="2 3"/><text x="188.9" y="46" font-family="Segoe UI,sans-serif" font-size="9" fill="#9a8f7a">today</text><text x="370" y="129" text-anchor="end" font-size="9" font-family="Segoe UI,sans-serif" fill="#9a8f7a">full 39 mm</text><text x="370" y="312" text-anchor="end" font-size="9" font-family="Segoe UI,sans-serif" fill="#9a8f7a">empty</text><text x="20.1" y="324" text-anchor="middle" font-size="8.5" font-family="Segoe UI,sans-serif" fill="#9a8f7a">Su 07</text><text x="106.1" y="324" text-anchor="middle" font-size="8.5" font-family="Segoe UI,sans-serif" fill="#9a8f7a">Su 14</text><text x="192.0" y="324" text-anchor="middle" font-size="8.5" font-family="Segoe UI,sans-serif" fill="#9a8f7a">Su 21</text><text x="277.9" y="324" text-anchor="middle" font-size="8.5" font-family="Segoe UI,sans-serif" fill="#9a8f7a">Su 28</text><text x="363.9" y="324" text-anchor="middle" font-size="8.5" font-family="Segoe UI,sans-serif" fill="#9a8f7a">Su 05</text><g font-family="Segoe UI,sans-serif" font-size="9.5" fill="#4f4636"><line x1="14" y1="346" x2="28" y2="346" stroke="#6fa3c0" stroke-width="3"/><text x="32" y="349">rain in</text><line x1="92" y1="346" x2="106" y2="346" stroke="#e0a85a" stroke-width="3"/><text x="110" y="349">ET loss</text><rect x="172" y="341" width="12" height="9" fill="#9bb07a"/><text x="188" y="349">water held</text></g></svg>