<svg xmlns="http://www.w3.org/2000/svg" width="384" height="360" viewBox="0 0 384 360"><rect width="384" height="360" fill="#fcfbf7"/><defs><linearGradient id="soilC" x1="0" y1="0" x2="0" y2="1"><stop offset="0" stop-color="#a7c4a0"/><stop offset="0.55" stop-color="#9bb07a"/><stop offset="1" stop-color="#7d8a5a"/></linearGradient></defs><text x="14" y="24" font-family="Segoe UI,Helvetica,sans-serif" font-size="15" font-weight="600" fill="#4f4636">Soil moisture &#183; in vs out</text><rect x="14" y="40" width="356" height="92" fill="#eaf3f5"/><rect x="185.9" y="36" width="184.1" height="264" fill="#000000" opacity="0.025"/><path d="M 20.1 140.4 C 22.2 141.3 28.3 147.2 32.4 145.9 C 36.5 144.6 40.6 135.0 44.7 132.7 C 48.8 130.4 52.9 132.1 57.0 132.0 C 61.1 131.9 65.1 132.0 69.2 132.0 C 73.3 132.0 77.4 130.4 81.5 132.0 C 85.6 133.6 89.7 137.6 93.8 141.4 C 97.9 145.2 102.0 150.4 106.1 154.7 C 110.2 158.9 114.3 162.3 118.3 167.0 C 122.4 171.8 126.5 178.7 130.6 183.1 C 134.7 187.6 138.8 188.4 142.9 193.7 C 147.0 199.0 151.1 209.8 155.2 215.0 C 159.3 220.2 163.4 221.7 167.4 225.1 C 171.5 228.4 175.6 230.0 179.7 235.1 C 183.8 240.3 187.9 248.4 192.0 256.0 C 196.1 263.7 200.2 273.7 204.3 281.0 C 208.4 288.3 212.5 296.8 216.6 300.0 C 220.6 303.2 224.7 300.0 228.8 300.0 C 232.9 300.0 237.0 300.0 241.1 300.0 C 245.2 300.0 249.3 300.0 253.4 300.0 C 257.5 300.0 261.6 300.0 265.7 300.0 C 269.7 300.0 273.8 300.0 277.9 300.0 C 282.0 300.0 286.1 304.2 290.2 300.0 C 294.3 295.8 298.4 288.5 302.5 274.7 C 306.6 260.9 310.7 225.1 314.8 217.1 C 318.9 209.1 322.9 224.1 327.0 226.6 C 331.1 229.2 335.2 231.4 339.3 232.6 C 343.4 233.7 347.5 229.7 351.6 233.7 C 355.7 237.8 361.8 253.1 363.9 256.9  L 363.9 300 L 20.1 300 Z" fill="url(#soilC)"/><path d="M 17.5 135.7 L 22.7 135.7 L 20.1 136.4 Z" fill="#6fa3c0" opacity="0.85"/><path d="M 17.5 134.4 L 22.7 134.4 L 20.1 127.8 Z" fill="#e0a85a" opacity="0.55"/><path d="M 29.8 139.3 L 35.0 139.3 L 32.4 141.9 Z" fill="#6fa3c0" opacity="0.85"/><path d="M 29.8 139.9 L 35.0 139.9 L 32.4 133.4 Z" fill="#e0a85a" opacity="0.55"/><path d="M 42.1 112.1 L 47.3 112.1 L 44.7 128.7 Z" fill="#6fa3c0" opacity="0.85"/><path d="M 42.1 126.7 L 47.3 126.7 L 44.7 119.3 Z" fill="#e0a85a" opacity="0.55"/><path d="M 54.4 113.1 L 59.6 113.1 L 57.0 128.0 Z" fill="#6fa3c0" opacity="0.85"/><path d="M 54.4 126.0 L 59.6 126.0 L 57.0 117.5 Z" fill="#e0a85a" opacity="0.55"/><path d="M 66.6 115.3 L 71.8 115.3 L 69.2 128.0 Z" fill="#6fa3c0" opacity="0.85"/><path d="M 66.6 126.0 L 71.8 126.0 L 69.2 119.2 Z" fill="#e0a85a" opacity="0.55"/><path d="M 78.9 115.8 L 84.1 115.8 L 81.5 128.0 Z" fill="#6fa3c0" opacity="0.85"/><path d="M 78.9 126.0 L 84.1 126.0 L 81.5 123.7 Z" fill="#e0a85a" opacity="0.55"/><path d="M 91.2 136.7 L 96.4 136.7 L 93.8 137.4 Z" fill="#6fa3c0" opacity="0.85"/><path d="M 91.2 135.4 L 96.4 135.4 L 93.8 128.1 Z" fill="#e0a85a" opacity="0.55"/><path d="M 103.5 150.2 L 108.7 150.2 L 106.1 150.7 Z" fill="#6fa3c0" opacity="0.85"/><path d="M 103.5 148.7 L 108.7 148.7 L 106.1 138.9 Z" fill="#e0a85a" opacity="0.55"/><path d="M 115.7 161.0 L 120.9 161.0 L 118.3 152.4 Z" fill="#e0a85a" opacity="0.55"/><path d="M 128.0 178.9 L 133.2 178.9 L 130.6 179.1 Z" fill="#6fa3c0" opacity="0.85"/><path d="M 128.0 177.1 L 133.2 177.1 L 130.6 165.7 Z" fill="#e0a85a" opacity="0.55"/><path d="M 140.3 189.2 L 145.5 189.2 L 142.9 189.7 Z" fill="#6fa3c0" opacity="0.85"/><path d="M 140.3 187.7 L 145.5 187.7 L 142.9 179.8 Z" fill="#e0a85a" opacity="0.55"/><path d="M 152.6 209.0 L 157.8 209.0 L 155.2 194.2 Z" fill="#e0a85a" opacity="0.55"/><path d="M 164.8 212.9 L 170.0 212.9 L 167.4 221.1 Z" fill="#6fa3c0" opacity="0.85"/><path d="M 164.8 219.1 L 170.0 219.1 L 167.4 203.9 Z" fill="#e0a85a" opacity="0.55"/><path d="M 177.1 223.0 L 182.3 223.0 L 179.7 231.1 Z" fill="#6fa3c0" opacity="0.85"/><path d="M 177.1 229.1 L 182.3 229.1 L 179.7 214.0 Z" fill="#e0a85a" opacity="0.55"/><path d="M 189.4 250.0 L 194.6 250.0 L 192.0 235.5 Z" fill="#e0a85a" opacity="0.55"/><path d="M 201.7 275.0 L 206.9 275.0 L 204.3 257.6 Z" fill="#e0a85a" opacity="0.55"/><path d="M 214.0 294.0 L 219.2 294.0 L 216.6 278.8 Z" fill="#e0a85a" opacity="0.55"/><path d="M 226.2 294.0 L 231.4 294.0 L 228.8 278.4 Z" fill="#e0a85a" opacity="0.55"/><path d="M 238.5 294.0 L 243.7 294.0 L 241.1 276.7 Z" fill="#e0a85a" opacity="0.55"/><path d="M 250.8 294.0 L 256.0 294.0 L 253.4 276.0 Z" fill="#e0a85a" opacity="0.55"/><path d="M 263.1 291.7 L 268.3 291.7 L 265.7 296.0 Z" fill="#6fa3c0" opacity="0.85"/><path d="M 263.1 294.0 L 268.3 294.0 L 265.7 278.7 Z" fill="#e0a85a" opacity="0.55"/><path d="M 275.3 294.0 L 280.5 294.0 L 277.9 278.2 Z" fill="#e0a85a" opacity="0.55"/><path d="M 287.6 287.4 L 292.8 287.4 L 290.2 296.0 Z" fill="#6fa3c0" opacity="0.85"/><path d="M 287.6 294.0 L 292.8 294.0 L 290.2 278.1 Z" fill="#e0a85a" opacity="0.55"/><path d="M 299.9 245.5 L 305.1 245.5 L 302.5 270.7 Z" fill="#6fa3c0" opacity="0.85"/><path d="M 299.9 268.7 L 305.1 268.7 L 302.5 261.1 Z" fill="#e0a85a" opacity="0.55"/><path d="M 312.2 187.1 L 317.4 187.1 L 314.8 213.1 Z" fill="#6fa3c0" opacity="0.85"/><path d="M 312.2 211.1 L 317.4 211.1 L 314.8 207.3 Z" fill="#e0a85a" opacity="0.55"/><path d="M 324.4 218.3 L 329.6 218.3 L 327.0 222.6 Z" fill="#6fa3c0" opacity="0.85"/><path d="M 324.4 220.6 L 329.6 220.6 L 327.0 209.7 Z" fill="#e0a85a" opacity="0.55"/><path d="M 336.7 222.8 L 341.9 222.8 L 339.3 228.6 Z" fill="#6fa3c0" opacity="0.85"/><path d="M 336.7 226.6 L 341.9 226.6 L 339.3 216.7 Z" fill="#e0a85a" opacity="0.55"/><path d="M 349.0 222.5 L 354.2 222.5 L 351.6 229.7 Z" fill="#6fa3c0" opacity="0.85"/><path d="M 349.0 227.7 L 354.2 227.7 L 351.6 219.7 Z" fill="#e0a85a" opacity="0.55"/><path d="M 361.3 250.9 L 366.5 250.9 L 363.9 234.8 Z" fill="#e0a85a" opacity="0.55"/><path d="M 20.1 140.4 C 22.2 141.3 28.3 147.2 32.4 145.9 C 36.5 144.6 40.6 135.0 44.7 132.7 C 48.8 130.4 52.9 132.1 57.0 132.0 C 61.1 131.9 65.1 132.0 69.2 132.0 C 73.3 132.0 77.4 130.4 81.5 132.0 C 85.6 133.6 89.7 137.6 93.8 141.4 C 97.9 145.2 102.0 150.4 106.1 154.7 C 110.2 158.9 114.3 162.3 118.3 167.0 C 122.4 171.8 126.5 178.7 130.6 183.1 C 134.7 187.6 138.8 188.4 142.9 193.7 C 147.0 199.0 151.1 209.8 155.2 215.0 C 159.3 220.2 163.4 221.7 167.4 225.1 C 171.5 228.4 175.6 230.0 179.7 235.1 C 183.8 240.3 187.9 248.4 192.0 256.0 C 196.1 263.7 200.2 273.7 204.3 281.0 C 208.4 288.3 212.5 296.8 216.6 300.0 C 220.6 303.2 224.7 300.0 228.8 300.0 C 232.9 300.0 237.0 300.0 241.1 300.0 C 245.2 300.0 249.3 300.0 253.4 300.0 C 257.5 300.0 261.6 300.0 265.7 300.0 C 269.7 300.0 273.8 300.0 277.9 300.0 C 282.0 300.0 286.1 304.2 290.2 300.0 C 294.3 295.8 298.4 288.5 302.5 274.7 C 306.6 260.9 310.7 225.1 314.8 217.1 C 318.9 209.1 322.9 224.1 327.0 226.6 C 331.1 229.2 335.2 231.4 339.3 232.6 C 343.4 233.7 347.5 229.7 351.6 233.7 C 355.7 237.8 361.8 253.1 363.9 256.9 " fill="none" stroke="#4a7c59" stroke-width="2.5"/><rect x="14" y="132" width="356" height="168" fill="none" stroke="#cdbfa3"/><line x1="185.9" y1="36" x2="185.9" y2="300" stroke="#9a8f7a" stroke-width="1" stroke-dasharray="2 3"/><text x="188.9" y="46" font-family="Segoe UI,sans-serif" font-size="9" fill="#9a8f7a">today</text><text x="370" y="129" text-anchor="end" font-size="9" font-family="Segoe UI,sans-serif" fill="#9a8f7a">full 39 mm</text><text x="370" y="312" text-anchor="end" font-size="9" font-family="Segoe UI,sans-serif" fill="#9a8f7a">empty</text><text x="20.1" y="324" text-anchor="middle" font-size="8.5" font-family="Segoe UI,sans-serif" fill="#9a8f7a">Su 07</text><text x="106.1" y="324" text-anchor="middle" font-size="8.5" font-family="Segoe UI,sans-serif" fill="#9a8f7a">Su 14</text><text x="192.0" y="324" text-anchor="middle" font-size="8.5" font-family="Segoe UI,sans-serif" fill="#9a8f7a">Su 21</text><text x="277.9" y="324" text-anchor="middle" font-size="8.5" font-family="Segoe UI,sans-serif" fill="#9a8f7a">Su 28</text><text x="363.9" y="324" text-anchor="middle" font-size="8.5" font-family="Segoe UI,sans-serif" fill="#9a8f7a">Su 05</text><g font-family="Segoe UI,sans-serif" font-size="9.5" fill="#4f4636"><path d="M 14  342 L 24 342 L 19 350 Z" fill="#6fa3c0"/><text x="29" y="349">water in</text><path d="M 94 350 L 104 350 L 99 342 Z" fill="#e0a85a" opacity="0.7"/><text x="109" y="349">water out (ET)</text></g></svg>