<svg xmlns="http://www.w3.org/2000/svg" width="384" height="360" viewBox="0 0 384 360"><rect width="384" height="360" fill="#fcfbf7"/><defs><linearGradient id="soilD" x1="0" y1="0" x2="0" y2="1"><stop offset="0" stop-color="#9bb07a"/><stop offset="1" stop-color="#e3d2b4"/></linearGradient></defs><text x="14" y="24" font-family="Segoe UI,Helvetica,sans-serif" font-size="15" font-weight="600" fill="#4f4636">Soil moisture &#183; rain vs sun</text><rect x="14" y="40" width="356" height="92" fill="#eaf3f5"/><rect x="185.9" y="36" width="184.1" height="264" fill="#000000" opacity="0.025"/><circle cx="20.1" cy="60.0" r="4.2" fill="#e0a85a" opacity="0.46"/><line x1="25.8" y1="60.0" x2="28.3" y2="60.0" stroke="#e0a85a" stroke-width="1.1" stroke-linecap="round" opacity="0.46"/><line x1="24.2" y1="64.0" x2="25.9" y2="65.8" stroke="#e0a85a" stroke-width="1.1" stroke-linecap="round" opacity="0.46"/><line x1="20.1" y1="65.7" x2="20.1" y2="68.2" stroke="#e0a85a" stroke-width="1.1" stroke-linecap="round" opacity="0.46"/><line x1="16.1" y1="64.0" x2="14.3" y2="65.8" stroke="#e0a85a" stroke-width="1.1" stroke-linecap="round" opacity="0.46"/><line x1="14.4" y1="60.0" x2="11.9" y2="60.0" stroke="#e0a85a" stroke-width="1.1" stroke-linecap="round" opacity="0.46"/><line x1="16.1" y1="56.0" x2="14.3" y2="54.2" stroke="#e0a85a" stroke-width="1.1" stroke-linecap="round" opacity="0.46"/><line x1="20.1" y1="54.3" x2="20.1" y2="51.8" stroke="#e0a85a" stroke-width="1.1" stroke-linecap="round" opacity="0.46"/><line x1="24.2" y1="56.0" x2="25.9" y2="54.2" stroke="#e0a85a" stroke-width="1.1" stroke-linecap="round" opacity="0.46"/><path d="M 20.1 80.7 Q 21.8 83.5 20.1 84.0 Q 18.5 83.5 20.1 80.7 Z" fill="#6fa3c0" opacity="0.8"/><circle cx="32.4" cy="60.0" r="4.2" fill="#e0a85a" opacity="0.46"/><line x1="38.1" y1="60.0" x2="40.6" y2="60.0" stroke="#e0a85a" stroke-width="1.1" stroke-linecap="round" opacity="0.46"/><line x1="36.4" y1="64.0" x2="38.2" y2="65.8" stroke="#e0a85a" stroke-width="1.1" stroke-linecap="round" opacity="0.46"/><line x1="32.4" y1="65.7" x2="32.4" y2="68.2" stroke="#e0a85a" stroke-width="1.1" stroke-linecap="round" opacity="0.46"/><line x1="28.4" y1="64.0" x2="26.6" y2="65.8" stroke="#e0a85a" stroke-width="1.1" stroke-linecap="round" opacity="0.46"/><line x1="26.7" y1="60.0" x2="24.2" y2="60.0" stroke="#e0a85a" stroke-width="1.1" stroke-linecap="round" opacity="0.46"/><line x1="28.4" y1="56.0" x2="26.6" y2="54.2" stroke="#e0a85a" stroke-width="1.1" stroke-linecap="round" opacity="0.46"/><line x1="32.4" y1="54.3" x2="32.4" y2="51.8" stroke="#e0a85a" stroke-width="1.1" stroke-linecap="round" opacity="0.46"/><line x1="36.4" y1="56.0" x2="38.2" y2="54.2" stroke="#e0a85a" stroke-width="1.1" stroke-linecap="round" opacity="0.46"/><path d="M 32.4 80.5 Q 34.2 83.5 32.4 84.0 Q 30.7 83.5 32.4 80.5 Z" fill="#6fa3c0" opacity="0.8"/><circle cx="44.7" cy="60.0" r="4.4" fill="#e0a85a" opacity="0.48"/><line x1="50.6" y1="60.0" x2="53.1" y2="60.0" stroke="#e0a85a" stroke-width="1.1" stroke-linecap="round" opacity="0.48"/><line x1="48.9" y1="64.2" x2="50.6" y2="65.9" stroke="#e0a85a" stroke-width="1.1" stroke-linecap="round" opacity="0.48"/><line x1="44.7" y1="65.9" x2="44.7" y2="68.4" stroke="#e0a85a" stroke-width="1.1" stroke-linecap="round" opacity="0.48"/><line x1="40.5" y1="64.2" x2="38.7" y2="65.9" stroke="#e0a85a" stroke-width="1.1" stroke-linecap="round" opacity="0.48"/><line x1="38.8" y1="60.0" x2="36.3" y2="60.0" stroke="#e0a85a" stroke-width="1.1" stroke-linecap="round" opacity="0.48"/><line x1="40.5" y1="55.8" x2="38.7" y2="54.1" stroke="#e0a85a" stroke-width="1.1" stroke-linecap="round" opacity="0.48"/><line x1="44.7" y1="54.1" x2="44.7" y2="51.6" stroke="#e0a85a" stroke-width="1.1" stroke-linecap="round" opacity="0.48"/><line x1="48.9" y1="55.8" x2="50.6" y2="54.1" stroke="#e0a85a" stroke-width="1.1" stroke-linecap="round" opacity="0.48"/><path d="M 44.7 79.0 Q 47.2 83.2 44.7 84.0 Q 42.2 83.2 44.7 79.0 Z" fill="#6fa3c0" opacity="0.8"/><path d="M 44.7 87.5 Q 47.2 91.8 44.7 92.5 Q 42.2 91.8 44.7 87.5 Z" fill="#6fa3c0" opacity="0.8"/><circle cx="57.0" cy="60.0" r="4.7" fill="#e0a85a" opacity="0.51"/><line x1="63.1" y1="60.0" x2="65.6" y2="60.0" stroke="#e0a85a" stroke-width="1.1" stroke-linecap="round" opacity="0.51"/><line x1="61.3" y1="64.4" x2="63.1" y2="66.1" stroke="#e0a85a" stroke-width="1.1" stroke-linecap="round" opacity="0.51"/><line x1="57.0" y1="66.2" x2="57.0" y2="68.7" stroke="#e0a85a" stroke-width="1.1" stroke-linecap="round" opacity="0.51"/><line x1="52.6" y1="64.4" x2="50.8" y2="66.1" stroke="#e0a85a" stroke-width="1.1" stroke-linecap="round" opacity="0.51"/><line x1="50.8" y1="60.0" x2="48.3" y2="60.0" stroke="#e0a85a" stroke-width="1.1" stroke-linecap="round" opacity="0.51"/><line x1="52.6" y1="55.6" x2="50.8" y2="53.9" stroke="#e0a85a" stroke-width="1.1" stroke-linecap="round" opacity="0.51"/><line x1="57.0" y1="53.8" x2="57.0" y2="51.3" stroke="#e0a85a" stroke-width="1.1" stroke-linecap="round" opacity="0.51"/><line x1="61.3" y1="55.6" x2="63.1" y2="53.9" stroke="#e0a85a" stroke-width="1.1" stroke-linecap="round" opacity="0.51"/><path d="M 57.0 79.2 Q 59.4 83.3 57.0 84.0 Q 54.6 83.3 57.0 79.2 Z" fill="#6fa3c0" opacity="0.8"/><path d="M 57.0 87.4 Q 59.4 91.6 57.0 92.3 Q 54.6 91.6 57.0 87.4 Z" fill="#6fa3c0" opacity="0.8"/><circle cx="69.2" cy="60.0" r="4.3" fill="#e0a85a" opacity="0.47"/><line x1="75.0" y1="60.0" x2="77.5" y2="60.0" stroke="#e0a85a" stroke-width="1.1" stroke-linecap="round" opacity="0.47"/><line x1="73.3" y1="64.1" x2="75.1" y2="65.8" stroke="#e0a85a" stroke-width="1.1" stroke-linecap="round" opacity="0.47"/><line x1="69.2" y1="65.8" x2="69.2" y2="68.3" stroke="#e0a85a" stroke-width="1.1" stroke-linecap="round" opacity="0.47"/><line x1="65.2" y1="64.1" x2="63.4" y2="65.8" stroke="#e0a85a" stroke-width="1.1" stroke-linecap="round" opacity="0.47"/><line x1="63.5" y1="60.0" x2="61.0" y2="60.0" stroke="#e0a85a" stroke-width="1.1" stroke-linecap="round" opacity="0.47"/><line x1="65.2" y1="55.9" x2="63.4" y2="54.2" stroke="#e0a85a" stroke-width="1.1" stroke-linecap="round" opacity="0.47"/><line x1="69.2" y1="54.2" x2="69.2" y2="51.7" stroke="#e0a85a" stroke-width="1.1" stroke-linecap="round" opacity="0.47"/><line x1="73.3" y1="55.9" x2="75.1" y2="54.2" stroke="#e0a85a" stroke-width="1.1" stroke-linecap="round" opacity="0.47"/><path d="M 69.2 79.4 Q 71.5 83.3 69.2 84.0 Q 66.9 83.3 69.2 79.4 Z" fill="#6fa3c0" opacity="0.8"/><path d="M 69.2 87.4 Q 71.5 91.3 69.2 92.0 Q 66.9 91.3 69.2 87.4 Z" fill="#6fa3c0" opacity="0.8"/><path d="M 81.5 79.5 Q 83.8 83.3 81.5 84.0 Q 79.2 83.3 81.5 79.5 Z" fill="#6fa3c0" opacity="0.8"/><path d="M 81.5 87.4 Q 83.8 91.2 81.5 91.9 Q 79.2 91.2 81.5 87.4 Z" fill="#6fa3c0" opacity="0.8"/><circle cx="93.8" cy="60.0" r="4.4" fill="#e0a85a" opacity="0.48"/><line x1="99.7" y1="60.0" x2="102.2" y2="60.0" stroke="#e0a85a" stroke-width="1.1" stroke-linecap="round" opacity="0.48"/><line x1="97.9" y1="64.2" x2="99.7" y2="65.9" stroke="#e0a85a" stroke-width="1.1" stroke-linecap="round" opacity="0.48"/><line x1="93.8" y1="65.9" x2="93.8" y2="68.4" stroke="#e0a85a" stroke-width="1.1" stroke-linecap="round" opacity="0.48"/><line x1="89.6" y1="64.2" x2="87.9" y2="65.9" stroke="#e0a85a" stroke-width="1.1" stroke-linecap="round" opacity="0.48"/><line x1="87.9" y1="60.0" x2="85.4" y2="60.0" stroke="#e0a85a" stroke-width="1.1" stroke-linecap="round" opacity="0.48"/><line x1="89.6" y1="55.8" x2="87.9" y2="54.1" stroke="#e0a85a" stroke-width="1.1" stroke-linecap="round" opacity="0.48"/><line x1="93.8" y1="54.1" x2="93.8" y2="51.6" stroke="#e0a85a" stroke-width="1.1" stroke-linecap="round" opacity="0.48"/><line x1="97.9" y1="55.8" x2="99.7" y2="54.1" stroke="#e0a85a" stroke-width="1.1" stroke-linecap="round" opacity="0.48"/><path d="M 93.8 80.7 Q 95.4 83.5 93.8 84.0 Q 92.2 83.5 93.8 80.7 Z" fill="#6fa3c0" opacity="0.8"/><circle cx="106.1" cy="60.0" r="5.0" fill="#e0a85a" opacity="0.54"/><line x1="112.5" y1="60.0" x2="115.0" y2="60.0" stroke="#e0a85a" stroke-width="1.1" stroke-linecap="round" opacity="0.54"/><line x1="110.6" y1="64.6" x2="112.4" y2="66.3" stroke="#e0a85a" stroke-width="1.1" stroke-linecap="round" opacity="0.54"/><line x1="106.1" y1="66.5" x2="106.1" y2="69.0" stroke="#e0a85a" stroke-width="1.1" stroke-linecap="round" opacity="0.54"/><line x1="101.5" y1="64.6" x2="99.7" y2="66.3" stroke="#e0a85a" stroke-width="1.1" stroke-linecap="round" opacity="0.54"/><line x1="99.6" y1="60.0" x2="97.1" y2="60.0" stroke="#e0a85a" stroke-width="1.1" stroke-linecap="round" opacity="0.54"/><line x1="101.5" y1="55.4" x2="99.7" y2="53.7" stroke="#e0a85a" stroke-width="1.1" stroke-linecap="round" opacity="0.54"/><line x1="106.1" y1="53.5" x2="106.1" y2="51.0" stroke="#e0a85a" stroke-width="1.1" stroke-linecap="round" opacity="0.54"/><line x1="110.6" y1="55.4" x2="112.4" y2="53.7" stroke="#e0a85a" stroke-width="1.1" stroke-linecap="round" opacity="0.54"/><circle cx="118.3" cy="60.0" r="4.7" fill="#e0a85a" opacity="0.52"/><line x1="124.6" y1="60.0" x2="127.1" y2="60.0" stroke="#e0a85a" stroke-width="1.1" stroke-linecap="round" opacity="0.52"/><line x1="122.7" y1="64.4" x2="124.5" y2="66.2" stroke="#e0a85a" stroke-width="1.1" stroke-linecap="round" opacity="0.52"/><line x1="118.3" y1="66.2" x2="118.3" y2="68.7" stroke="#e0a85a" stroke-width="1.1" stroke-linecap="round" opacity="0.52"/><line x1="114.0" y1="64.4" x2="112.2" y2="66.2" stroke="#e0a85a" stroke-width="1.1" stroke-linecap="round" opacity="0.52"/><line x1="112.1" y1="60.0" x2="109.6" y2="60.0" stroke="#e0a85a" stroke-width="1.1" stroke-linecap="round" opacity="0.52"/><line x1="114.0" y1="55.6" x2="112.2" y2="53.8" stroke="#e0a85a" stroke-width="1.1" stroke-linecap="round" opacity="0.52"/><line x1="118.3" y1="53.8" x2="118.3" y2="51.3" stroke="#e0a85a" stroke-width="1.1" stroke-linecap="round" opacity="0.52"/><line x1="122.7" y1="55.6" x2="124.5" y2="53.8" stroke="#e0a85a" stroke-width="1.1" stroke-linecap="round" opacity="0.52"/><circle cx="130.6" cy="60.0" r="5.4" fill="#e0a85a" opacity="0.59"/><line x1="137.5" y1="60.0" x2="140.0" y2="60.0" stroke="#e0a85a" stroke-width="1.1" stroke-linecap="round" opacity="0.59"/><line x1="135.5" y1="64.9" x2="137.3" y2="66.6" stroke="#e0a85a" stroke-width="1.1" stroke-linecap="round" opacity="0.59"/><line x1="130.6" y1="66.9" x2="130.6" y2="69.4" stroke="#e0a85a" stroke-width="1.1" stroke-linecap="round" opacity="0.59"/><line x1="125.7" y1="64.9" x2="124.0" y2="66.6" stroke="#e0a85a" stroke-width="1.1" stroke-linecap="round" opacity="0.59"/><line x1="123.7" y1="60.0" x2="121.2" y2="60.0" stroke="#e0a85a" stroke-width="1.1" stroke-linecap="round" opacity="0.59"/><line x1="125.7" y1="55.1" x2="124.0" y2="53.4" stroke="#e0a85a" stroke-width="1.1" stroke-linecap="round" opacity="0.59"/><line x1="130.6" y1="53.1" x2="130.6" y2="50.6" stroke="#e0a85a" stroke-width="1.1" stroke-linecap="round" opacity="0.59"/><line x1="135.5" y1="55.1" x2="137.3" y2="53.4" stroke="#e0a85a" stroke-width="1.1" stroke-linecap="round" opacity="0.59"/><circle cx="142.9" cy="60.0" r="4.5" fill="#e0a85a" opacity="0.50"/><line x1="148.9" y1="60.0" x2="151.4" y2="60.0" stroke="#e0a85a" stroke-width="1.1" stroke-linecap="round" opacity="0.50"/><line x1="147.2" y1="64.3" x2="148.9" y2="66.0" stroke="#e0a85a" stroke-width="1.1" stroke-linecap="round" opacity="0.50"/><line x1="142.9" y1="66.0" x2="142.9" y2="68.5" stroke="#e0a85a" stroke-width="1.1" stroke-linecap="round" opacity="0.50"/><line x1="138.6" y1="64.3" x2="136.9" y2="66.0" stroke="#e0a85a" stroke-width="1.1" stroke-linecap="round" opacity="0.50"/><line x1="136.9" y1="60.0" x2="134.4" y2="60.0" stroke="#e0a85a" stroke-width="1.1" stroke-linecap="round" opacity="0.50"/><line x1="138.6" y1="55.7" x2="136.9" y2="54.0" stroke="#e0a85a" stroke-width="1.1" stroke-linecap="round" opacity="0.50"/><line x1="142.9" y1="54.0" x2="142.9" y2="51.5" stroke="#e0a85a" stroke-width="1.1" stroke-linecap="round" opacity="0.50"/><line x1="147.2" y1="55.7" x2="148.9" y2="54.0" stroke="#e0a85a" stroke-width="1.1" stroke-linecap="round" opacity="0.50"/><circle cx="155.2" cy="60.0" r="6.2" fill="#e0a85a" opacity="0.67"/><line x1="162.9" y1="60.0" x2="165.4" y2="60.0" stroke="#e0a85a" stroke-width="1.1" stroke-linecap="round" opacity="0.67"/><line x1="160.6" y1="65.5" x2="162.4" y2="67.2" stroke="#e0a85a" stroke-width="1.1" stroke-linecap="round" opacity="0.67"/><line x1="155.2" y1="67.7" x2="155.2" y2="70.2" stroke="#e0a85a" stroke-width="1.1" stroke-linecap="round" opacity="0.67"/><line x1="149.7" y1="65.5" x2="147.9" y2="67.2" stroke="#e0a85a" stroke-width="1.1" stroke-linecap="round" opacity="0.67"/><line x1="147.4" y1="60.0" x2="144.9" y2="60.0" stroke="#e0a85a" stroke-width="1.1" stroke-linecap="round" opacity="0.67"/><line x1="149.7" y1="54.5" x2="147.9" y2="52.8" stroke="#e0a85a" stroke-width="1.1" stroke-linecap="round" opacity="0.67"/><line x1="155.2" y1="52.3" x2="155.2" y2="49.8" stroke="#e0a85a" stroke-width="1.1" stroke-linecap="round" opacity="0.67"/><line x1="160.6" y1="54.5" x2="162.4" y2="52.8" stroke="#e0a85a" stroke-width="1.1" stroke-linecap="round" opacity="0.67"/><circle cx="167.4" cy="60.0" r="6.3" fill="#e0a85a" opacity="0.68"/><line x1="175.3" y1="60.0" x2="177.8" y2="60.0" stroke="#e0a85a" stroke-width="1.1" stroke-linecap="round" opacity="0.68"/><line x1="173.0" y1="65.5" x2="174.7" y2="67.3" stroke="#e0a85a" stroke-width="1.1" stroke-linecap="round" opacity="0.68"/><line x1="167.4" y1="67.8" x2="167.4" y2="70.3" stroke="#e0a85a" stroke-width="1.1" stroke-linecap="round" opacity="0.68"/><line x1="161.9" y1="65.5" x2="160.2" y2="67.3" stroke="#e0a85a" stroke-width="1.1" stroke-linecap="round" opacity="0.68"/><line x1="159.6" y1="60.0" x2="157.1" y2="60.0" stroke="#e0a85a" stroke-width="1.1" stroke-linecap="round" opacity="0.68"/><line x1="161.9" y1="54.5" x2="160.2" y2="52.7" stroke="#e0a85a" stroke-width="1.1" stroke-linecap="round" opacity="0.68"/><line x1="167.4" y1="52.2" x2="167.4" y2="49.7" stroke="#e0a85a" stroke-width="1.1" stroke-linecap="round" opacity="0.68"/><line x1="173.0" y1="54.5" x2="174.7" y2="52.7" stroke="#e0a85a" stroke-width="1.1" stroke-linecap="round" opacity="0.68"/><path d="M 167.4 79.9 Q 169.5 83.4 167.4 84.0 Q 165.4 83.4 167.4 79.9 Z" fill="#6fa3c0" opacity="0.8"/><circle cx="179.7" cy="60.0" r="6.3" fill="#e0a85a" opacity="0.68"/><line x1="187.5" y1="60.0" x2="190.0" y2="60.0" stroke="#e0a85a" stroke-width="1.1" stroke-linecap="round" opacity="0.68"/><line x1="185.2" y1="65.5" x2="187.0" y2="67.3" stroke="#e0a85a" stroke-width="1.1" stroke-linecap="round" opacity="0.68"/><line x1="179.7" y1="67.8" x2="179.7" y2="70.3" stroke="#e0a85a" stroke-width="1.1" stroke-linecap="round" opacity="0.68"/><line x1="174.2" y1="65.5" x2="172.4" y2="67.3" stroke="#e0a85a" stroke-width="1.1" stroke-linecap="round" opacity="0.68"/><line x1="171.9" y1="60.0" x2="169.4" y2="60.0" stroke="#e0a85a" stroke-width="1.1" stroke-linecap="round" opacity="0.68"/><line x1="174.2" y1="54.5" x2="172.4" y2="52.7" stroke="#e0a85a" stroke-width="1.1" stroke-linecap="round" opacity="0.68"/><line x1="179.7" y1="52.2" x2="179.7" y2="49.7" stroke="#e0a85a" stroke-width="1.1" stroke-linecap="round" opacity="0.68"/><line x1="185.2" y1="54.5" x2="187.0" y2="52.7" stroke="#e0a85a" stroke-width="1.1" stroke-linecap="round" opacity="0.68"/><path d="M 179.7 79.9 Q 181.8 83.4 179.7 84.0 Q 177.7 83.4 179.7 79.9 Z" fill="#6fa3c0" opacity="0.8"/><circle cx="192.0" cy="60.0" r="6.2" fill="#e0a85a" opacity="0.66"/><line x1="199.7" y1="60.0" x2="202.2" y2="60.0" stroke="#e0a85a" stroke-width="1.1" stroke-linecap="round" opacity="0.66"/><line x1="197.4" y1="65.4" x2="199.2" y2="67.2" stroke="#e0a85a" stroke-width="1.1" stroke-linecap="round" opacity="0.66"/><line x1="192.0" y1="67.7" x2="192.0" y2="70.2" stroke="#e0a85a" stroke-width="1.1" stroke-linecap="round" opacity="0.66"/><line x1="186.6" y1="65.4" x2="184.8" y2="67.2" stroke="#e0a85a" stroke-width="1.1" stroke-linecap="round" opacity="0.66"/><line x1="184.3" y1="60.0" x2="181.8" y2="60.0" stroke="#e0a85a" stroke-width="1.1" stroke-linecap="round" opacity="0.66"/><line x1="186.6" y1="54.6" x2="184.8" y2="52.8" stroke="#e0a85a" stroke-width="1.1" stroke-linecap="round" opacity="0.66"/><line x1="192.0" y1="52.3" x2="192.0" y2="49.8" stroke="#e0a85a" stroke-width="1.1" stroke-linecap="round" opacity="0.66"/><line x1="197.4" y1="54.6" x2="199.2" y2="52.8" stroke="#e0a85a" stroke-width="1.1" stroke-linecap="round" opacity="0.66"/><circle cx="204.3" cy="60.0" r="6.9" fill="#e0a85a" opacity="0.74"/><line x1="212.6" y1="60.0" x2="215.1" y2="60.0" stroke="#e0a85a" stroke-width="1.1" stroke-linecap="round" opacity="0.74"/><line x1="210.2" y1="65.9" x2="212.0" y2="67.7" stroke="#e0a85a" stroke-width="1.1" stroke-linecap="round" opacity="0.74"/><line x1="204.3" y1="68.4" x2="204.3" y2="70.9" stroke="#e0a85a" stroke-width="1.1" stroke-linecap="round" opacity="0.74"/><line x1="198.4" y1="65.9" x2="196.6" y2="67.7" stroke="#e0a85a" stroke-width="1.1" stroke-linecap="round" opacity="0.74"/><line x1="195.9" y1="60.0" x2="193.4" y2="60.0" stroke="#e0a85a" stroke-width="1.1" stroke-linecap="round" opacity="0.74"/><line x1="198.4" y1="54.1" x2="196.6" y2="52.3" stroke="#e0a85a" stroke-width="1.1" stroke-linecap="round" opacity="0.74"/><line x1="204.3" y1="51.6" x2="204.3" y2="49.1" stroke="#e0a85a" stroke-width="1.1" stroke-linecap="round" opacity="0.74"/><line x1="210.2" y1="54.1" x2="212.0" y2="52.3" stroke="#e0a85a" stroke-width="1.1" stroke-linecap="round" opacity="0.74"/><circle cx="216.6" cy="60.0" r="6.3" fill="#e0a85a" opacity="0.68"/><line x1="224.4" y1="60.0" x2="226.9" y2="60.0" stroke="#e0a85a" stroke-width="1.1" stroke-linecap="round" opacity="0.68"/><line x1="222.1" y1="65.5" x2="223.8" y2="67.3" stroke="#e0a85a" stroke-width="1.1" stroke-linecap="round" opacity="0.68"/><line x1="216.6" y1="67.8" x2="216.6" y2="70.3" stroke="#e0a85a" stroke-width="1.1" stroke-linecap="round" opacity="0.68"/><line x1="211.0" y1="65.5" x2="209.3" y2="67.3" stroke="#e0a85a" stroke-width="1.1" stroke-linecap="round" opacity="0.68"/><line x1="208.7" y1="60.0" x2="206.2" y2="60.0" stroke="#e0a85a" stroke-width="1.1" stroke-linecap="round" opacity="0.68"/><line x1="211.0" y1="54.5" x2="209.3" y2="52.7" stroke="#e0a85a" stroke-width="1.1" stroke-linecap="round" opacity="0.68"/><line x1="216.6" y1="52.2" x2="216.6" y2="49.7" stroke="#e0a85a" stroke-width="1.1" stroke-linecap="round" opacity="0.68"/><line x1="222.1" y1="54.5" x2="223.8" y2="52.7" stroke="#e0a85a" stroke-width="1.1" stroke-linecap="round" opacity="0.68"/><circle cx="228.8" cy="60.0" r="6.4" fill="#e0a85a" opacity="0.69"/><line x1="236.7" y1="60.0" x2="239.2" y2="60.0" stroke="#e0a85a" stroke-width="1.1" stroke-linecap="round" opacity="0.69"/><line x1="234.4" y1="65.6" x2="236.2" y2="67.4" stroke="#e0a85a" stroke-width="1.1" stroke-linecap="round" opacity="0.69"/><line x1="228.8" y1="67.9" x2="228.8" y2="70.4" stroke="#e0a85a" stroke-width="1.1" stroke-linecap="round" opacity="0.69"/><line x1="223.2" y1="65.6" x2="221.5" y2="67.4" stroke="#e0a85a" stroke-width="1.1" stroke-linecap="round" opacity="0.69"/><line x1="220.9" y1="60.0" x2="218.4" y2="60.0" stroke="#e0a85a" stroke-width="1.1" stroke-linecap="round" opacity="0.69"/><line x1="223.2" y1="54.4" x2="221.5" y2="52.6" stroke="#e0a85a" stroke-width="1.1" stroke-linecap="round" opacity="0.69"/><line x1="228.8" y1="52.1" x2="228.8" y2="49.6" stroke="#e0a85a" stroke-width="1.1" stroke-linecap="round" opacity="0.69"/><line x1="234.4" y1="54.4" x2="236.2" y2="52.6" stroke="#e0a85a" stroke-width="1.1" stroke-linecap="round" opacity="0.69"/><circle cx="241.1" cy="60.0" r="6.8" fill="#e0a85a" opacity="0.73"/><line x1="249.4" y1="60.0" x2="251.9" y2="60.0" stroke="#e0a85a" stroke-width="1.1" stroke-linecap="round" opacity="0.73"/><line x1="247.0" y1="65.9" x2="248.8" y2="67.7" stroke="#e0a85a" stroke-width="1.1" stroke-linecap="round" opacity="0.73"/><line x1="241.1" y1="68.3" x2="241.1" y2="70.8" stroke="#e0a85a" stroke-width="1.1" stroke-linecap="round" opacity="0.73"/><line x1="235.2" y1="65.9" x2="233.4" y2="67.7" stroke="#e0a85a" stroke-width="1.1" stroke-linecap="round" opacity="0.73"/><line x1="232.8" y1="60.0" x2="230.3" y2="60.0" stroke="#e0a85a" stroke-width="1.1" stroke-linecap="round" opacity="0.73"/><line x1="235.2" y1="54.1" x2="233.4" y2="52.3" stroke="#e0a85a" stroke-width="1.1" stroke-linecap="round" opacity="0.73"/><line x1="241.1" y1="51.7" x2="241.1" y2="49.2" stroke="#e0a85a" stroke-width="1.1" stroke-linecap="round" opacity="0.73"/><line x1="247.0" y1="54.1" x2="248.8" y2="52.3" stroke="#e0a85a" stroke-width="1.1" stroke-linecap="round" opacity="0.73"/><circle cx="253.4" cy="60.0" r="7.0" fill="#e0a85a" opacity="0.75"/><line x1="261.9" y1="60.0" x2="264.4" y2="60.0" stroke="#e0a85a" stroke-width="1.1" stroke-linecap="round" opacity="0.75"/><line x1="259.4" y1="66.0" x2="261.2" y2="67.8" stroke="#e0a85a" stroke-width="1.1" stroke-linecap="round" opacity="0.75"/><line x1="253.4" y1="68.5" x2="253.4" y2="71.0" stroke="#e0a85a" stroke-width="1.1" stroke-linecap="round" opacity="0.75"/><line x1="247.4" y1="66.0" x2="245.6" y2="67.8" stroke="#e0a85a" stroke-width="1.1" stroke-linecap="round" opacity="0.75"/><line x1="244.9" y1="60.0" x2="242.4" y2="60.0" stroke="#e0a85a" stroke-width="1.1" stroke-linecap="round" opacity="0.75"/><line x1="247.4" y1="54.0" x2="245.6" y2="52.2" stroke="#e0a85a" stroke-width="1.1" stroke-linecap="round" opacity="0.75"/><line x1="253.4" y1="51.5" x2="253.4" y2="49.0" stroke="#e0a85a" stroke-width="1.1" stroke-linecap="round" opacity="0.75"/><line x1="259.4" y1="54.0" x2="261.2" y2="52.2" stroke="#e0a85a" stroke-width="1.1" stroke-linecap="round" opacity="0.75"/><circle cx="265.7" cy="60.0" r="6.3" fill="#e0a85a" opacity="0.68"/><line x1="273.5" y1="60.0" x2="276.0" y2="60.0" stroke="#e0a85a" stroke-width="1.1" stroke-linecap="round" opacity="0.68"/><line x1="271.2" y1="65.5" x2="273.0" y2="67.3" stroke="#e0a85a" stroke-width="1.1" stroke-linecap="round" opacity="0.68"/><line x1="265.7" y1="67.8" x2="265.7" y2="70.3" stroke="#e0a85a" stroke-width="1.1" stroke-linecap="round" opacity="0.68"/><line x1="260.1" y1="65.5" x2="258.3" y2="67.3" stroke="#e0a85a" stroke-width="1.1" stroke-linecap="round" opacity="0.68"/><line x1="257.8" y1="60.0" x2="255.3" y2="60.0" stroke="#e0a85a" stroke-width="1.1" stroke-linecap="round" opacity="0.68"/><line x1="260.1" y1="54.5" x2="258.3" y2="52.7" stroke="#e0a85a" stroke-width="1.1" stroke-linecap="round" opacity="0.68"/><line x1="265.7" y1="52.2" x2="265.7" y2="49.7" stroke="#e0a85a" stroke-width="1.1" stroke-linecap="round" opacity="0.68"/><line x1="271.2" y1="54.5" x2="273.0" y2="52.7" stroke="#e0a85a" stroke-width="1.1" stroke-linecap="round" opacity="0.68"/><path d="M 265.7 80.3 Q 267.5 83.4 265.7 84.0 Q 263.8 83.4 265.7 80.3 Z" fill="#6fa3c0" opacity="0.8"/><circle cx="277.9" cy="60.0" r="6.5" fill="#e0a85a" opacity="0.70"/><line x1="285.9" y1="60.0" x2="288.4" y2="60.0" stroke="#e0a85a" stroke-width="1.1" stroke-linecap="round" opacity="0.70"/><line x1="283.6" y1="65.6" x2="285.3" y2="67.4" stroke="#e0a85a" stroke-width="1.1" stroke-linecap="round" opacity="0.70"/><line x1="277.9" y1="68.0" x2="277.9" y2="70.5" stroke="#e0a85a" stroke-width="1.1" stroke-linecap="round" opacity="0.70"/><line x1="272.3" y1="65.6" x2="270.5" y2="67.4" stroke="#e0a85a" stroke-width="1.1" stroke-linecap="round" opacity="0.70"/><line x1="270.0" y1="60.0" x2="267.5" y2="60.0" stroke="#e0a85a" stroke-width="1.1" stroke-linecap="round" opacity="0.70"/><line x1="272.3" y1="54.4" x2="270.5" y2="52.6" stroke="#e0a85a" stroke-width="1.1" stroke-linecap="round" opacity="0.70"/><line x1="277.9" y1="52.0" x2="277.9" y2="49.5" stroke="#e0a85a" stroke-width="1.1" stroke-linecap="round" opacity="0.70"/><line x1="283.6" y1="54.4" x2="285.3" y2="52.6" stroke="#e0a85a" stroke-width="1.1" stroke-linecap="round" opacity="0.70"/><circle cx="290.2" cy="60.0" r="6.5" fill="#e0a85a" opacity="0.70"/><line x1="298.2" y1="60.0" x2="300.7" y2="60.0" stroke="#e0a85a" stroke-width="1.1" stroke-linecap="round" opacity="0.70"/><line x1="295.9" y1="65.7" x2="297.6" y2="67.4" stroke="#e0a85a" stroke-width="1.1" stroke-linecap="round" opacity="0.70"/><line x1="290.2" y1="68.0" x2="290.2" y2="70.5" stroke="#e0a85a" stroke-width="1.1" stroke-linecap="round" opacity="0.70"/><line x1="284.6" y1="65.7" x2="282.8" y2="67.4" stroke="#e0a85a" stroke-width="1.1" stroke-linecap="round" opacity="0.70"/><line x1="282.2" y1="60.0" x2="279.7" y2="60.0" stroke="#e0a85a" stroke-width="1.1" stroke-linecap="round" opacity="0.70"/><line x1="284.6" y1="54.3" x2="282.8" y2="52.6" stroke="#e0a85a" stroke-width="1.1" stroke-linecap="round" opacity="0.70"/><line x1="290.2" y1="52.0" x2="290.2" y2="49.5" stroke="#e0a85a" stroke-width="1.1" stroke-linecap="round" opacity="0.70"/><line x1="295.9" y1="54.3" x2="297.6" y2="52.6" stroke="#e0a85a" stroke-width="1.1" stroke-linecap="round" opacity="0.70"/><path d="M 290.2 79.9 Q 292.3 83.4 290.2 84.0 Q 288.1 83.4 290.2 79.9 Z" fill="#6fa3c0" opacity="0.8"/><circle cx="302.5" cy="60.0" r="4.4" fill="#e0a85a" opacity="0.49"/><line x1="308.4" y1="60.0" x2="310.9" y2="60.0" stroke="#e0a85a" stroke-width="1.1" stroke-linecap="round" opacity="0.49"/><line x1="306.7" y1="64.2" x2="308.5" y2="66.0" stroke="#e0a85a" stroke-width="1.1" stroke-linecap="round" opacity="0.49"/><line x1="302.5" y1="65.9" x2="302.5" y2="68.4" stroke="#e0a85a" stroke-width="1.1" stroke-linecap="round" opacity="0.49"/><line x1="298.3" y1="64.2" x2="296.5" y2="66.0" stroke="#e0a85a" stroke-width="1.1" stroke-linecap="round" opacity="0.49"/><line x1="296.5" y1="60.0" x2="294.0" y2="60.0" stroke="#e0a85a" stroke-width="1.1" stroke-linecap="round" opacity="0.49"/><line x1="298.3" y1="55.8" x2="296.5" y2="54.0" stroke="#e0a85a" stroke-width="1.1" stroke-linecap="round" opacity="0.49"/><line x1="302.5" y1="54.1" x2="302.5" y2="51.6" stroke="#e0a85a" stroke-width="1.1" stroke-linecap="round" opacity="0.49"/><line x1="306.7" y1="55.8" x2="308.5" y2="54.0" stroke="#e0a85a" stroke-width="1.1" stroke-linecap="round" opacity="0.49"/><path d="M 302.5 78.0 Q 305.5 83.1 302.5 84.0 Q 299.5 83.1 302.5 78.0 Z" fill="#6fa3c0" opacity="0.8"/><path d="M 302.5 87.8 Q 305.5 92.8 302.5 93.7 Q 299.5 92.8 302.5 87.8 Z" fill="#6fa3c0" opacity="0.8"/><path d="M 302.5 97.5 Q 305.5 102.6 302.5 103.5 Q 299.5 102.6 302.5 97.5 Z" fill="#6fa3c0" opacity="0.8"/><path d="M 314.8 76.0 Q 318.8 82.8 314.8 84.0 Q 310.8 82.8 314.8 76.0 Z" fill="#6fa3c0" opacity="0.8"/><path d="M 314.8 88.4 Q 318.8 95.2 314.8 96.4 Q 310.8 95.2 314.8 88.4 Z" fill="#6fa3c0" opacity="0.8"/><path d="M 314.8 100.8 Q 318.8 107.6 314.8 108.8 Q 310.8 107.6 314.8 100.8 Z" fill="#6fa3c0" opacity="0.8"/><circle cx="327.0" cy="60.0" r="5.3" fill="#e0a85a" opacity="0.57"/><line x1="333.8" y1="60.0" x2="336.3" y2="60.0" stroke="#e0a85a" stroke-width="1.1" stroke-linecap="round" opacity="0.57"/><line x1="331.8" y1="64.8" x2="333.6" y2="66.6" stroke="#e0a85a" stroke-width="1.1" stroke-linecap="round" opacity="0.57"/><line x1="327.0" y1="66.8" x2="327.0" y2="69.3" stroke="#e0a85a" stroke-width="1.1" stroke-linecap="round" opacity="0.57"/><line x1="322.2" y1="64.8" x2="320.5" y2="66.6" stroke="#e0a85a" stroke-width="1.1" stroke-linecap="round" opacity="0.57"/><line x1="320.3" y1="60.0" x2="317.8" y2="60.0" stroke="#e0a85a" stroke-width="1.1" stroke-linecap="round" opacity="0.57"/><line x1="322.2" y1="55.2" x2="320.5" y2="53.4" stroke="#e0a85a" stroke-width="1.1" stroke-linecap="round" opacity="0.57"/><line x1="327.0" y1="53.2" x2="327.0" y2="50.7" stroke="#e0a85a" stroke-width="1.1" stroke-linecap="round" opacity="0.57"/><line x1="331.8" y1="55.2" x2="333.6" y2="53.4" stroke="#e0a85a" stroke-width="1.1" stroke-linecap="round" opacity="0.57"/><path d="M 327.0 80.3 Q 328.9 83.4 327.0 84.0 Q 325.2 83.4 327.0 80.3 Z" fill="#6fa3c0" opacity="0.8"/><circle cx="339.3" cy="60.0" r="5.0" fill="#e0a85a" opacity="0.55"/><line x1="345.8" y1="60.0" x2="348.3" y2="60.0" stroke="#e0a85a" stroke-width="1.1" stroke-linecap="round" opacity="0.55"/><line x1="343.9" y1="64.6" x2="345.7" y2="66.4" stroke="#e0a85a" stroke-width="1.1" stroke-linecap="round" opacity="0.55"/><line x1="339.3" y1="66.5" x2="339.3" y2="69.0" stroke="#e0a85a" stroke-width="1.1" stroke-linecap="round" opacity="0.55"/><line x1="334.7" y1="64.6" x2="332.9" y2="66.4" stroke="#e0a85a" stroke-width="1.1" stroke-linecap="round" opacity="0.55"/><line x1="332.8" y1="60.0" x2="330.3" y2="60.0" stroke="#e0a85a" stroke-width="1.1" stroke-linecap="round" opacity="0.55"/><line x1="334.7" y1="55.4" x2="332.9" y2="53.6" stroke="#e0a85a" stroke-width="1.1" stroke-linecap="round" opacity="0.55"/><line x1="339.3" y1="53.5" x2="339.3" y2="51.0" stroke="#e0a85a" stroke-width="1.1" stroke-linecap="round" opacity="0.55"/><line x1="343.9" y1="55.4" x2="345.7" y2="53.6" stroke="#e0a85a" stroke-width="1.1" stroke-linecap="round" opacity="0.55"/><path d="M 339.3 80.2 Q 341.2 83.4 339.3 84.0 Q 337.4 83.4 339.3 80.2 Z" fill="#6fa3c0" opacity="0.8"/><circle cx="351.6" cy="60.0" r="4.6" fill="#e0a85a" opacity="0.50"/><line x1="357.6" y1="60.0" x2="360.1" y2="60.0" stroke="#e0a85a" stroke-width="1.1" stroke-linecap="round" opacity="0.50"/><line x1="355.9" y1="64.3" x2="357.6" y2="66.1" stroke="#e0a85a" stroke-width="1.1" stroke-linecap="round" opacity="0.50"/><line x1="351.6" y1="66.1" x2="351.6" y2="68.6" stroke="#e0a85a" stroke-width="1.1" stroke-linecap="round" opacity="0.50"/><line x1="347.3" y1="64.3" x2="345.5" y2="66.1" stroke="#e0a85a" stroke-width="1.1" stroke-linecap="round" opacity="0.50"/><line x1="345.5" y1="60.0" x2="343.0" y2="60.0" stroke="#e0a85a" stroke-width="1.1" stroke-linecap="round" opacity="0.50"/><line x1="347.3" y1="55.7" x2="345.5" y2="53.9" stroke="#e0a85a" stroke-width="1.1" stroke-linecap="round" opacity="0.50"/><line x1="351.6" y1="53.9" x2="351.6" y2="51.4" stroke="#e0a85a" stroke-width="1.1" stroke-linecap="round" opacity="0.50"/><line x1="355.9" y1="55.7" x2="357.6" y2="53.9" stroke="#e0a85a" stroke-width="1.1" stroke-linecap="round" opacity="0.50"/><path d="M 351.6 80.0 Q 353.6 83.4 351.6 84.0 Q 349.6 83.4 351.6 80.0 Z" fill="#6fa3c0" opacity="0.8"/><circle cx="363.9" cy="60.0" r="6.6" fill="#e0a85a" opacity="0.70"/><line x1="371.9" y1="60.0" x2="374.4" y2="60.0" stroke="#e0a85a" stroke-width="1.1" stroke-linecap="round" opacity="0.70"/><line x1="369.6" y1="65.7" x2="371.3" y2="67.5" stroke="#e0a85a" stroke-width="1.1" stroke-linecap="round" opacity="0.70"/><line x1="363.9" y1="68.1" x2="363.9" y2="70.6" stroke="#e0a85a" stroke-width="1.1" stroke-linecap="round" opacity="0.70"/><line x1="358.2" y1="65.7" x2="356.4" y2="67.5" stroke="#e0a85a" stroke-width="1.1" stroke-linecap="round" opacity="0.70"/><line x1="355.8" y1="60.0" x2="353.3" y2="60.0" stroke="#e0a85a" stroke-width="1.1" stroke-linecap="round" opacity="0.70"/><line x1="358.2" y1="54.3" x2="356.4" y2="52.5" stroke="#e0a85a" stroke-width="1.1" stroke-linecap="round" opacity="0.70"/><line x1="363.9" y1="51.9" x2="363.9" y2="49.4" stroke="#e0a85a" stroke-width="1.1" stroke-linecap="round" opacity="0.70"/><line x1="369.6" y1="54.3" x2="371.3" y2="52.5" stroke="#e0a85a" stroke-width="1.1" stroke-linecap="round" opacity="0.70"/><path d="M 20.1 140.4 C 22.2 141.3 28.3 147.2 32.4 145.9 C 36.5 144.6 40.6 135.0 44.7 132.7 C 48.8 130.4 52.9 132.1 57.0 132.0 C 61.1 131.9 65.1 132.0 69.2 132.0 C 73.3 132.0 77.4 130.4 81.5 132.0 C 85.6 133.6 89.7 137.6 93.8 141.4 C 97.9 145.2 102.0 150.4 106.1 154.7 C 110.2 158.9 114.3 162.3 118.3 167.0 C 122.4 171.8 126.5 178.7 130.6 183.1 C 134.7 187.6 138.8 188.4 142.9 193.7 C 147.0 199.0 151.1 209.8 155.2 215.0 C 159.3 220.2 163.4 221.7 167.4 225.1 C 171.5 228.4 175.6 230.0 179.7 235.1 C 183.8 240.3 187.9 248.4 192.0 256.0 C 196.1 263.7 200.2 273.7 204.3 281.0 C 208.4 288.3 212.5 296.8 216.6 300.0 C 220.6 303.2 224.7 300.0 228.8 300.0 C 232.9 300.0 237.0 300.0 241.1 300.0 C 245.2 300.0 249.3 300.0 253.4 300.0 C 257.5 300.0 261.6 300.0 265.7 300.0 C 269.7 300.0 273.8 300.0 277.9 300.0 C 282.0 300.0 286.1 304.2 290.2 300.0 C 294.3 295.8 298.4 288.5 302.5 274.7 C 306.6 260.9 310.7 225.1 314.8 217.1 C 318.9 209.1 322.9 224.1 327.0 226.6 C 331.1 229.2 335.2 231.4 339.3 232.6 C 343.4 233.7 347.5 229.7 351.6 233.7 C 355.7 237.8 361.8 253.1 363.9 256.9  L 363.9 300 L 20.1 300 Z" fill="url(#soilD)"/><path d="M 20.1 140.4 C 22.2 141.3 28.3 147.2 32.4 145.9 C 36.5 144.6 40.6 135.0 44.7 132.7 C 48.8 130.4 52.9 132.1 57.0 132.0 C 61.1 131.9 65.1 132.0 69.2 132.0 C 73.3 132.0 77.4 130.4 81.5 132.0 C 85.6 133.6 89.7 137.6 93.8 141.4 C 97.9 145.2 102.0 150.4 106.1 154.7 C 110.2 158.9 114.3 162.3 118.3 167.0 C 122.4 171.8 126.5 178.7 130.6 183.1 C 134.7 187.6 138.8 188.4 142.9 193.7 C 147.0 199.0 151.1 209.8 155.2 215.0 C 159.3 220.2 163.4 221.7 167.4 225.1 C 171.5 228.4 175.6 230.0 179.7 235.1 C 183.8 240.3 187.9 248.4 192.0 256.0 C 196.1 263.7 200.2 273.7 204.3 281.0 C 208.4 288.3 212.5 296.8 216.6 300.0 C 220.6 303.2 224.7 300.0 228.8 300.0 C 232.9 300.0 237.0 300.0 241.1 300.0 C 245.2 300.0 249.3 300.0 253.4 300.0 C 257.5 300.0 261.6 300.0 265.7 300.0 C 269.7 300.0 273.8 300.0 277.9 300.0 C 282.0 300.0 286.1 304.2 290.2 300.0 C 294.3 295.8 298.4 288.5 302.5 274.7 C 306.6 260.9 310.7 225.1 314.8 217.1 C 318.9 209.1 322.9 224.1 327.0 226.6 C 331.1 229.2 335.2 231.4 339.3 232.6 C 343.4 233.7 347.5 229.7 351.6 233.7 C 355.7 237.8 361.8 253.1 363.9 256.9 " fill="none" stroke="#4a7c59" stroke-width="2.5"/><rect x="14" y="132" width="356" height="168" fill="none" stroke="#cdbfa3"/><line x1="185.9" y1="36" x2="185.9" y2="300" stroke="#9a8f7a" stroke-width="1" stroke-dasharray="2 3"/><text x="188.9" y="46" font-family="Segoe UI,sans-serif" font-size="9" fill="#9a8f7a">today</text><text x="370" y="129" text-anchor="end" font-size="9" font-family="Segoe UI,sans-serif" fill="#9a8f7a">full 39 mm</text><text x="370" y="312" text-anchor="end" font-size="9" font-family="Segoe UI,sans-serif" fill="#9a8f7a">empty</text><text x="20.1" y="324" text-anchor="middle" font-size="8.5" font-family="Segoe UI,sans-serif" fill="#9a8f7a">Su 07</text><text x="106.1" y="324" text-anchor="middle" font-size="8.5" font-family="Segoe UI,sans-serif" fill="#9a8f7a">Su 14</text><text x="192.0" y="324" text-anchor="middle" font-size="8.5" font-family="Segoe UI,sans-serif" fill="#9a8f7a">Su 21</text><text x="277.9" y="324" text-anchor="middle" font-size="8.5" font-family="Segoe UI,sans-serif" fill="#9a8f7a">Su 28</text><text x="363.9" y="324" text-anchor="middle" font-size="8.5" font-family="Segoe UI,sans-serif" fill="#9a8f7a">Su 05</text><g font-family="Segoe UI,sans-serif" font-size="9.5" fill="#4f4636"><circle cx="19.0" cy="345.0" r="4.0" fill="#e0a85a" opacity="0.7"/><line x1="24.5" y1="345.0" x2="27.0" y2="345.0" stroke="#e0a85a" stroke-width="1.1" stroke-linecap="round" opacity="0.7"/><line x1="22.9" y1="348.9" x2="24.7" y2="350.7" stroke="#e0a85a" stroke-width="1.1" stroke-linecap="round" opacity="0.7"/><line x1="19.0" y1="350.5" x2="19.0" y2="353.0" stroke="#e0a85a" stroke-width="1.1" stroke-linecap="round" opacity="0.7"/><line x1="15.1" y1="348.9" x2="13.3" y2="350.7" stroke="#e0a85a" stroke-width="1.1" stroke-linecap="round" opacity="0.7"/><line x1="13.5" y1="345.0" x2="11.0" y2="345.0" stroke="#e0a85a" stroke-width="1.1" stroke-linecap="round" opacity="0.7"/><line x1="15.1" y1="341.1" x2="13.3" y2="339.3" stroke="#e0a85a" stroke-width="1.1" stroke-linecap="round" opacity="0.7"/><line x1="19.0" y1="339.5" x2="19.0" y2="337.0" stroke="#e0a85a" stroke-width="1.1" stroke-linecap="round" opacity="0.7"/><line x1="22.9" y1="341.1" x2="24.7" y2="339.3" stroke="#e0a85a" stroke-width="1.1" stroke-linecap="round" opacity="0.7"/><text x="30" y="349">sun dries it out</text><path d="M 132.0 342.8 Q 134.6 347.2 132.0 348.0 Q 129.4 347.2 132.0 342.8 Z" fill="#6fa3c0" opacity="0.8"/><text x="140" y="349">rain feeds it</text><rect x="226" y="341" width="12" height="9" fill="#9bb07a"/><text x="242" y="349">water held</text></g></svg>