<svg xmlns="http://www.w3.org/2000/svg" width="1000" height="562" viewBox="0 0 1000 562" font-family="Segoe UI, Helvetica, Arial, sans-serif">
<defs><linearGradient id="sat" x1="0" y1="0" x2="0" y2="1"><stop offset="0" stop-color="#cfe8f7"/><stop offset="1" stop-color="#3f86bd"/></linearGradient></defs>
<rect width="1000" height="562" fill="#ffffff"/>
<text x="40" y="34" font-size="20" font-weight="700" fill="#37474f">Soil-Balance</text>
<text x="362" y="34" font-size="13" fill="#78909c">Vormersesluisweg 3A, Wijchen &#183; one zone</text>
<rect x="40" y="52" width="150" height="46" rx="9" fill="#f6f8fa" stroke="#cfd8dc"/>
<text x="52" y="70" font-size="10.5" fill="#78909c">SOIL TYPE</text>
<text x="52" y="89" font-size="14" font-weight="600" fill="#37474f">Sandy ▾</text>
<text x="178" y="89" font-size="11" fill="#78909c" text-anchor="end">25 mm</text>
<rect x="200" y="52" width="150" height="46" rx="9" fill="#f6f8fa" stroke="#cfd8dc"/>
<text x="212" y="70" font-size="10.5" fill="#78909c">PLANTING</text>
<text x="212" y="89" font-size="14" font-weight="600" fill="#37474f">Turf ▾</text>
<text x="338" y="89" font-size="11" fill="#78909c" text-anchor="end">Kᴄ 0.9</text>
<rect x="360" y="52" width="210" height="46" rx="9" fill="#f6f8fa" stroke="#cfd8dc"/>
<text x="372" y="70" font-size="10.5" fill="#78909c">WATERING DURATION</text>
<text x="372" y="89" font-size="14" font-weight="600" fill="#37474f">60 min</text>
<text x="558" y="89" font-size="11" fill="#78909c" text-anchor="end">≈ 2.8 mm net</text>
<rect x="580" y="52" width="150" height="46" rx="9" fill="#f6f8fa" stroke="#cfd8dc"/>
<text x="592" y="70" font-size="10.5" fill="#78909c">STRESS THRESHOLD</text>
<text x="592" y="89" font-size="14" font-weight="600" fill="#37474f">50%</text>
<text x="718" y="89" font-size="11" fill="#78909c" text-anchor="end">depletion</text>
<text x="960" y="74" font-size="10.5" fill="#78909c" text-anchor="end">RESERVOIR (derived)</text>
<text x="960" y="91" font-size="14" font-weight="600" fill="#37474f" text-anchor="end">25 mm usable</text>
<text x="40" y="140" font-size="13" font-weight="600" fill="#37474f">How much water is in the soil</text>
<text x="262" y="140" font-size="11" fill="#78909c">blue = water the roots can use &#183; tan = dry soil</text>
<rect x="510.0" y="150" width="50.6" height="250.0" fill="#fff7d6" opacity="0.7"/>
<rect x="80" y="150" width="860.0" height="36" fill="#eaf4fb"/>
<rect x="80" y="186" width="860.0" height="212" fill="#e7d9bd"/>
<circle cx="359.6" cy="222.6" r="1.7" fill="#cdb993" opacity="0.55"/><circle cx="144.9" cy="300.8" r="1.4" fill="#cdb993" opacity="0.55"/><circle cx="132.5" cy="295.0" r="1.0" fill="#cdb993" opacity="0.55"/><circle cx="453.3" cy="206.2" r="1.1" fill="#cdb993" opacity="0.55"/><circle cx="445.5" cy="359.9" r="1.1" fill="#cdb993" opacity="0.55"/><circle cx="273.6" cy="319.4" r="2.0" fill="#cdb993" opacity="0.55"/><circle cx="575.8" cy="272.5" r="2.1" fill="#cdb993" opacity="0.55"/><circle cx="122.8" cy="366.3" r="1.3" fill="#cdb993" opacity="0.55"/><circle cx="206.2" cy="215.9" r="1.3" fill="#cdb993" opacity="0.55"/><circle cx="780.0" cy="228.7" r="1.6" fill="#cdb993" opacity="0.55"/><circle cx="628.6" cy="267.6" r="1.6" fill="#cdb993" opacity="0.55"/><circle cx="136.6" cy="204.1" r="1.2" fill="#cdb993" opacity="0.55"/><circle cx="664.1" cy="278.8" r="1.3" fill="#cdb993" opacity="0.55"/><circle cx="583.1" cy="284.0" r="1.3" fill="#cdb993" opacity="0.55"/><circle cx="761.4" cy="333.9" r="1.3" fill="#cdb993" opacity="0.55"/><circle cx="573.6" cy="298.6" r="2.0" fill="#cdb993" opacity="0.55"/><circle cx="705.9" cy="250.5" r="2.1" fill="#cdb993" opacity="0.55"/><circle cx="183.8" cy="276.9" r="1.8" fill="#cdb993" opacity="0.55"/><circle cx="212.8" cy="291.3" r="1.0" fill="#cdb993" opacity="0.55"/><circle cx="653.7" cy="347.2" r="1.6" fill="#cdb993" opacity="0.55"/><circle cx="830.7" cy="255.7" r="1.8" fill="#cdb993" opacity="0.55"/><circle cx="590.6" cy="309.7" r="1.5" fill="#cdb993" opacity="0.55"/><circle cx="800.3" cy="383.8" r="1.5" fill="#cdb993" opacity="0.55"/><circle cx="650.2" cy="204.3" r="1.8" fill="#cdb993" opacity="0.55"/><circle cx="635.6" cy="393.6" r="1.9" fill="#cdb993" opacity="0.55"/><circle cx="326.0" cy="270.3" r="1.7" fill="#cdb993" opacity="0.55"/><circle cx="102.3" cy="285.7" r="1.2" fill="#cdb993" opacity="0.55"/><circle cx="183.0" cy="204.0" r="1.8" fill="#cdb993" opacity="0.55"/><circle cx="193.5" cy="242.3" r="1.4" fill="#cdb993" opacity="0.55"/><circle cx="827.2" cy="208.4" r="1.5" fill="#cdb993" opacity="0.55"/><circle cx="552.2" cy="371.3" r="1.9" fill="#cdb993" opacity="0.55"/><circle cx="820.8" cy="248.5" r="1.5" fill="#cdb993" opacity="0.55"/><circle cx="389.4" cy="371.5" r="2.1" fill="#cdb993" opacity="0.55"/><circle cx="211.9" cy="227.8" r="1.3" fill="#cdb993" opacity="0.55"/><circle cx="282.3" cy="290.4" r="1.6" fill="#cdb993" opacity="0.55"/><circle cx="307.4" cy="192.8" r="1.5" fill="#cdb993" opacity="0.55"/><circle cx="398.3" cy="307.0" r="2.0" fill="#cdb993" opacity="0.55"/><circle cx="672.7" cy="296.6" r="1.7" fill="#cdb993" opacity="0.55"/><circle cx="660.5" cy="203.0" r="2.0" fill="#cdb993" opacity="0.55"/><circle cx="749.1" cy="369.5" r="1.9" fill="#cdb993" opacity="0.55"/><circle cx="418.1" cy="273.0" r="1.1" fill="#cdb993" opacity="0.55"/><circle cx="624.7" cy="204.6" r="1.1" fill="#cdb993" opacity="0.55"/><circle cx="261.3" cy="224.9" r="1.4" fill="#cdb993" opacity="0.55"/><circle cx="127.9" cy="192.0" r="1.2" fill="#cdb993" opacity="0.55"/><circle cx="169.7" cy="265.8" r="1.0" fill="#cdb993" opacity="0.55"/><circle cx="829.7" cy="316.7" r="1.2" fill="#cdb993" opacity="0.55"/><circle cx="298.4" cy="262.5" r="1.4" fill="#cdb993" opacity="0.55"/><circle cx="187.9" cy="364.3" r="2.1" fill="#cdb993" opacity="0.55"/><circle cx="481.0" cy="290.2" r="1.1" fill="#cdb993" opacity="0.55"/><circle cx="170.3" cy="261.6" r="1.3" fill="#cdb993" opacity="0.55"/><circle cx="790.8" cy="224.8" r="1.0" fill="#cdb993" opacity="0.55"/><circle cx="895.1" cy="299.2" r="1.2" fill="#cdb993" opacity="0.55"/><circle cx="546.9" cy="197.5" r="1.6" fill="#cdb993" opacity="0.55"/><circle cx="918.6" cy="367.3" r="1.8" fill="#cdb993" opacity="0.55"/><circle cx="306.0" cy="266.4" r="1.2" fill="#cdb993" opacity="0.55"/><circle cx="742.2" cy="300.1" r="1.9" fill="#cdb993" opacity="0.55"/><circle cx="364.5" cy="237.3" r="1.9" fill="#cdb993" opacity="0.55"/><circle cx="924.1" cy="365.1" r="1.9" fill="#cdb993" opacity="0.55"/><circle cx="781.9" cy="342.2" r="1.2" fill="#cdb993" opacity="0.55"/><circle cx="525.1" cy="264.2" r="1.0" fill="#cdb993" opacity="0.55"/><circle cx="106.9" cy="248.7" r="1.3" fill="#cdb993" opacity="0.55"/><circle cx="674.4" cy="386.2" r="1.5" fill="#cdb993" opacity="0.55"/><circle cx="883.2" cy="392.6" r="2.1" fill="#cdb993" opacity="0.55"/><circle cx="394.4" cy="236.8" r="1.2" fill="#cdb993" opacity="0.55"/><circle cx="251.0" cy="233.5" r="1.7" fill="#cdb993" opacity="0.55"/><circle cx="851.9" cy="362.6" r="1.5" fill="#cdb993" opacity="0.55"/><circle cx="640.6" cy="354.3" r="1.1" fill="#cdb993" opacity="0.55"/><circle cx="647.1" cy="376.7" r="1.9" fill="#cdb993" opacity="0.55"/><circle cx="723.6" cy="289.0" r="1.2" fill="#cdb993" opacity="0.55"/><circle cx="756.9" cy="259.5" r="1.9" fill="#cdb993" opacity="0.55"/><circle cx="912.8" cy="272.4" r="1.4" fill="#cdb993" opacity="0.55"/><circle cx="891.6" cy="339.1" r="1.2" fill="#cdb993" opacity="0.55"/><circle cx="191.5" cy="222.7" r="2.0" fill="#cdb993" opacity="0.55"/><circle cx="771.8" cy="221.7" r="1.9" fill="#cdb993" opacity="0.55"/><circle cx="920.2" cy="325.4" r="1.4" fill="#cdb993" opacity="0.55"/><circle cx="551.6" cy="218.6" r="1.0" fill="#cdb993" opacity="0.55"/><circle cx="912.1" cy="323.9" r="1.6" fill="#cdb993" opacity="0.55"/><circle cx="880.3" cy="280.1" r="2.0" fill="#cdb993" opacity="0.55"/><circle cx="788.5" cy="234.8" r="1.3" fill="#cdb993" opacity="0.55"/><circle cx="333.2" cy="240.8" r="1.6" fill="#cdb993" opacity="0.55"/><circle cx="304.5" cy="277.1" r="1.1" fill="#cdb993" opacity="0.55"/><circle cx="860.2" cy="263.8" r="1.5" fill="#cdb993" opacity="0.55"/><circle cx="581.2" cy="375.6" r="1.5" fill="#cdb993" opacity="0.55"/><circle cx="866.7" cy="293.8" r="1.6" fill="#cdb993" opacity="0.55"/><circle cx="530.1" cy="195.8" r="1.5" fill="#cdb993" opacity="0.55"/><circle cx="239.4" cy="192.8" r="1.9" fill="#cdb993" opacity="0.55"/><circle cx="230.2" cy="288.1" r="1.8" fill="#cdb993" opacity="0.55"/><circle cx="558.2" cy="258.2" r="1.6" fill="#cdb993" opacity="0.55"/><circle cx="557.3" cy="351.2" r="1.1" fill="#cdb993" opacity="0.55"/><circle cx="561.5" cy="242.4" r="1.3" fill="#cdb993" opacity="0.55"/><circle cx="742.5" cy="295.1" r="1.6" fill="#cdb993" opacity="0.55"/><circle cx="732.0" cy="377.2" r="1.5" fill="#cdb993" opacity="0.55"/><circle cx="606.1" cy="294.6" r="1.6" fill="#cdb993" opacity="0.55"/><circle cx="674.6" cy="283.8" r="1.6" fill="#cdb993" opacity="0.55"/><circle cx="491.2" cy="383.1" r="1.8" fill="#cdb993" opacity="0.55"/><circle cx="831.6" cy="383.3" r="1.3" fill="#cdb993" opacity="0.55"/><circle cx="560.8" cy="383.5" r="1.9" fill="#cdb993" opacity="0.55"/><circle cx="200.1" cy="216.7" r="1.5" fill="#cdb993" opacity="0.55"/><circle cx="145.0" cy="240.8" r="1.1" fill="#cdb993" opacity="0.55"/><circle cx="654.7" cy="351.1" r="2.0" fill="#cdb993" opacity="0.55"/><circle cx="214.9" cy="337.4" r="1.7" fill="#cdb993" opacity="0.55"/><circle cx="205.1" cy="371.2" r="2.1" fill="#cdb993" opacity="0.55"/><circle cx="270.5" cy="385.4" r="1.4" fill="#cdb993" opacity="0.55"/><circle cx="499.1" cy="392.9" r="1.9" fill="#cdb993" opacity="0.55"/><circle cx="220.9" cy="279.6" r="1.6" fill="#cdb993" opacity="0.55"/><circle cx="372.6" cy="231.7" r="1.4" fill="#cdb993" opacity="0.55"/><circle cx="699.7" cy="196.0" r="1.6" fill="#cdb993" opacity="0.55"/><circle cx="459.2" cy="195.7" r="1.4" fill="#cdb993" opacity="0.55"/><circle cx="615.8" cy="296.0" r="1.1" fill="#cdb993" opacity="0.55"/><circle cx="924.3" cy="352.0" r="2.1" fill="#cdb993" opacity="0.55"/><circle cx="172.5" cy="245.9" r="1.0" fill="#cdb993" opacity="0.55"/><circle cx="748.3" cy="246.9" r="1.1" fill="#cdb993" opacity="0.55"/><circle cx="443.6" cy="377.0" r="1.9" fill="#cdb993" opacity="0.55"/><circle cx="303.9" cy="222.3" r="2.0" fill="#cdb993" opacity="0.55"/><circle cx="570.3" cy="334.2" r="1.1" fill="#cdb993" opacity="0.55"/><circle cx="132.1" cy="331.7" r="1.5" fill="#cdb993" opacity="0.55"/><circle cx="144.8" cy="382.5" r="1.7" fill="#cdb993" opacity="0.55"/><circle cx="767.6" cy="209.0" r="1.9" fill="#cdb993" opacity="0.55"/><circle cx="139.9" cy="367.1" r="1.5" fill="#cdb993" opacity="0.55"/><circle cx="372.6" cy="304.3" r="2.0" fill="#cdb993" opacity="0.55"/><circle cx="311.8" cy="218.2" r="1.6" fill="#cdb993" opacity="0.55"/><circle cx="286.6" cy="214.2" r="1.2" fill="#cdb993" opacity="0.55"/><circle cx="126.0" cy="233.0" r="1.3" fill="#cdb993" opacity="0.55"/><circle cx="343.5" cy="346.2" r="1.3" fill="#cdb993" opacity="0.55"/><circle cx="510.1" cy="228.1" r="1.4" fill="#cdb993" opacity="0.55"/><circle cx="98.5" cy="242.8" r="1.0" fill="#cdb993" opacity="0.55"/><circle cx="709.1" cy="303.9" r="1.2" fill="#cdb993" opacity="0.55"/><circle cx="488.4" cy="381.7" r="1.1" fill="#cdb993" opacity="0.55"/><circle cx="782.4" cy="279.7" r="1.5" fill="#cdb993" opacity="0.55"/><circle cx="795.8" cy="271.8" r="1.6" fill="#cdb993" opacity="0.55"/><circle cx="670.3" cy="391.4" r="1.4" fill="#cdb993" opacity="0.55"/><circle cx="793.8" cy="335.5" r="1.7" fill="#cdb993" opacity="0.55"/><circle cx="428.6" cy="262.6" r="1.1" fill="#cdb993" opacity="0.55"/><circle cx="193.9" cy="206.4" r="1.8" fill="#cdb993" opacity="0.55"/><circle cx="301.3" cy="225.1" r="1.1" fill="#cdb993" opacity="0.55"/><circle cx="801.4" cy="368.7" r="1.7" fill="#cdb993" opacity="0.55"/><circle cx="323.8" cy="241.2" r="1.3" fill="#cdb993" opacity="0.55"/><circle cx="475.4" cy="224.0" r="1.5" fill="#cdb993" opacity="0.55"/><circle cx="307.8" cy="387.2" r="2.1" fill="#cdb993" opacity="0.55"/><circle cx="550.2" cy="241.6" r="2.1" fill="#cdb993" opacity="0.55"/><circle cx="347.4" cy="264.4" r="1.0" fill="#cdb993" opacity="0.55"/><circle cx="408.9" cy="288.4" r="1.6" fill="#cdb993" opacity="0.55"/><circle cx="254.6" cy="294.5" r="1.0" fill="#cdb993" opacity="0.55"/><circle cx="308.6" cy="210.2" r="1.4" fill="#cdb993" opacity="0.55"/><circle cx="118.6" cy="196.6" r="1.3" fill="#cdb993" opacity="0.55"/><circle cx="281.8" cy="310.9" r="1.6" fill="#cdb993" opacity="0.55"/><circle cx="724.0" cy="325.5" r="1.8" fill="#cdb993" opacity="0.55"/><circle cx="833.7" cy="271.1" r="1.4" fill="#cdb993" opacity="0.55"/><circle cx="924.0" cy="222.3" r="1.8" fill="#cdb993" opacity="0.55"/><circle cx="632.3" cy="200.9" r="1.9" fill="#cdb993" opacity="0.55"/>
<polygon points="80,398 80.0,241.1 130.6,253.8 181.2,247.5 231.8,264.4 282.4,270.8 332.9,287.8 383.5,300.5 434.1,313.2 484.7,323.8 535.3,304.7 585.9,313.2 636.5,321.7 687.1,328.0 737.6,336.5 788.2,317.4 838.8,325.9 889.4,332.3 940.0,338.6 940,398" fill="url(#sat)" opacity="0.82"/>
<rect x="80" y="182" width="860.0" height="4" fill="#5fae3f"/>
<path d="M 84.0 182 l -1.6 -5 M 84.0 182 l 1.6 -6" stroke="#5fae3f" stroke-width="1.1" fill="none"/><path d="M 91.0 182 l -1.6 -5 M 91.0 182 l 1.6 -6" stroke="#5fae3f" stroke-width="1.1" fill="none"/><path d="M 98.0 182 l -1.6 -5 M 98.0 182 l 1.6 -6" stroke="#5fae3f" stroke-width="1.1" fill="none"/><path d="M 105.0 182 l -1.6 -5 M 105.0 182 l 1.6 -6" stroke="#5fae3f" stroke-width="1.1" fill="none"/><path d="M 112.0 182 l -1.6 -5 M 112.0 182 l 1.6 -6" stroke="#5fae3f" stroke-width="1.1" fill="none"/><path d="M 119.0 182 l -1.6 -5 M 119.0 182 l 1.6 -6" stroke="#5fae3f" stroke-width="1.1" fill="none"/><path d="M 126.0 182 l -1.6 -5 M 126.0 182 l 1.6 -6" stroke="#5fae3f" stroke-width="1.1" fill="none"/><path d="M 133.0 182 l -1.6 -5 M 133.0 182 l 1.6 -6" stroke="#5fae3f" stroke-width="1.1" fill="none"/><path d="M 140.0 182 l -1.6 -5 M 140.0 182 l 1.6 -6" stroke="#5fae3f" stroke-width="1.1" fill="none"/><path d="M 147.0 182 l -1.6 -5 M 147.0 182 l 1.6 -6" stroke="#5fae3f" stroke-width="1.1" fill="none"/><path d="M 154.0 182 l -1.6 -5 M 154.0 182 l 1.6 -6" stroke="#5fae3f" stroke-width="1.1" fill="none"/><path d="M 161.0 182 l -1.6 -5 M 161.0 182 l 1.6 -6" stroke="#5fae3f" stroke-width="1.1" fill="none"/><path d="M 168.0 182 l -1.6 -5 M 168.0 182 l 1.6 -6" stroke="#5fae3f" stroke-width="1.1" fill="none"/><path d="M 175.0 182 l -1.6 -5 M 175.0 182 l 1.6 -6" stroke="#5fae3f" stroke-width="1.1" fill="none"/><path d="M 182.0 182 l -1.6 -5 M 182.0 182 l 1.6 -6" stroke="#5fae3f" stroke-width="1.1" fill="none"/><path d="M 189.0 182 l -1.6 -5 M 189.0 182 l 1.6 -6" stroke="#5fae3f" stroke-width="1.1" fill="none"/><path d="M 196.0 182 l -1.6 -5 M 196.0 182 l 1.6 -6" stroke="#5fae3f" stroke-width="1.1" fill="none"/><path d="M 203.0 182 l -1.6 -5 M 203.0 182 l 1.6 -6" stroke="#5fae3f" stroke-width="1.1" fill="none"/><path d="M 210.0 182 l -1.6 -5 M 210.0 182 l 1.6 -6" stroke="#5fae3f" stroke-width="1.1" fill="none"/><path d="M 217.0 182 l -1.6 -5 M 217.0 182 l 1.6 -6" stroke="#5fae3f" stroke-width="1.1" fill="none"/><path d="M 224.0 182 l -1.6 -5 M 224.0 182 l 1.6 -6" stroke="#5fae3f" stroke-width="1.1" fill="none"/><path d="M 231.0 182 l -1.6 -5 M 231.0 182 l 1.6 -6" stroke="#5fae3f" stroke-width="1.1" fill="none"/><path d="M 238.0 182 l -1.6 -5 M 238.0 182 l 1.6 -6" stroke="#5fae3f" stroke-width="1.1" fill="none"/><path d="M 245.0 182 l -1.6 -5 M 245.0 182 l 1.6 -6" stroke="#5fae3f" stroke-width="1.1" fill="none"/><path d="M 252.0 182 l -1.6 -5 M 252.0 182 l 1.6 -6" stroke="#5fae3f" stroke-width="1.1" fill="none"/><path d="M 259.0 182 l -1.6 -5 M 259.0 182 l 1.6 -6" stroke="#5fae3f" stroke-width="1.1" fill="none"/><path d="M 266.0 182 l -1.6 -5 M 266.0 182 l 1.6 -6" stroke="#5fae3f" stroke-width="1.1" fill="none"/><path d="M 273.0 182 l -1.6 -5 M 273.0 182 l 1.6 -6" stroke="#5fae3f" stroke-width="1.1" fill="none"/><path d="M 280.0 182 l -1.6 -5 M 280.0 182 l 1.6 -6" stroke="#5fae3f" stroke-width="1.1" fill="none"/><path d="M 287.0 182 l -1.6 -5 M 287.0 182 l 1.6 -6" stroke="#5fae3f" stroke-width="1.1" fill="none"/><path d="M 294.0 182 l -1.6 -5 M 294.0 182 l 1.6 -6" stroke="#5fae3f" stroke-width="1.1" fill="none"/><path d="M 301.0 182 l -1.6 -5 M 301.0 182 l 1.6 -6" stroke="#5fae3f" stroke-width="1.1" fill="none"/><path d="M 308.0 182 l -1.6 -5 M 308.0 182 l 1.6 -6" stroke="#5fae3f" stroke-width="1.1" fill="none"/><path d="M 315.0 182 l -1.6 -5 M 315.0 182 l 1.6 -6" stroke="#5fae3f" stroke-width="1.1" fill="none"/><path d="M 322.0 182 l -1.6 -5 M 322.0 182 l 1.6 -6" stroke="#5fae3f" stroke-width="1.1" fill="none"/><path d="M 329.0 182 l -1.6 -5 M 329.0 182 l 1.6 -6" stroke="#5fae3f" stroke-width="1.1" fill="none"/><path d="M 336.0 182 l -1.6 -5 M 336.0 182 l 1.6 -6" stroke="#5fae3f" stroke-width="1.1" fill="none"/><path d="M 343.0 182 l -1.6 -5 M 343.0 182 l 1.6 -6" stroke="#5fae3f" stroke-width="1.1" fill="none"/><path d="M 350.0 182 l -1.6 -5 M 350.0 182 l 1.6 -6" stroke="#5fae3f" stroke-width="1.1" fill="none"/><path d="M 357.0 182 l -1.6 -5 M 357.0 182 l 1.6 -6" stroke="#5fae3f" stroke-width="1.1" fill="none"/><path d="M 364.0 182 l -1.6 -5 M 364.0 182 l 1.6 -6" stroke="#5fae3f" stroke-width="1.1" fill="none"/><path d="M 371.0 182 l -1.6 -5 M 371.0 182 l 1.6 -6" stroke="#5fae3f" stroke-width="1.1" fill="none"/><path d="M 378.0 182 l -1.6 -5 M 378.0 182 l 1.6 -6" stroke="#5fae3f" stroke-width="1.1" fill="none"/><path d="M 385.0 182 l -1.6 -5 M 385.0 182 l 1.6 -6" stroke="#5fae3f" stroke-width="1.1" fill="none"/><path d="M 392.0 182 l -1.6 -5 M 392.0 182 l 1.6 -6" stroke="#5fae3f" stroke-width="1.1" fill="none"/><path d="M 399.0 182 l -1.6 -5 M 399.0 182 l 1.6 -6" stroke="#5fae3f" stroke-width="1.1" fill="none"/><path d="M 406.0 182 l -1.6 -5 M 406.0 182 l 1.6 -6" stroke="#5fae3f" stroke-width="1.1" fill="none"/><path d="M 413.0 182 l -1.6 -5 M 413.0 182 l 1.6 -6" stroke="#5fae3f" stroke-width="1.1" fill="none"/><path d="M 420.0 182 l -1.6 -5 M 420.0 182 l 1.6 -6" stroke="#5fae3f" stroke-width="1.1" fill="none"/><path d="M 427.0 182 l -1.6 -5 M 427.0 182 l 1.6 -6" stroke="#5fae3f" stroke-width="1.1" fill="none"/><path d="M 434.0 182 l -1.6 -5 M 434.0 182 l 1.6 -6" stroke="#5fae3f" stroke-width="1.1" fill="none"/><path d="M 441.0 182 l -1.6 -5 M 441.0 182 l 1.6 -6" stroke="#5fae3f" stroke-width="1.1" fill="none"/><path d="M 448.0 182 l -1.6 -5 M 448.0 182 l 1.6 -6" stroke="#5fae3f" stroke-width="1.1" fill="none"/><path d="M 455.0 182 l -1.6 -5 M 455.0 182 l 1.6 -6" stroke="#5fae3f" stroke-width="1.1" fill="none"/><path d="M 462.0 182 l -1.6 -5 M 462.0 182 l 1.6 -6" stroke="#5fae3f" stroke-width="1.1" fill="none"/><path d="M 469.0 182 l -1.6 -5 M 469.0 182 l 1.6 -6" stroke="#5fae3f" stroke-width="1.1" fill="none"/><path d="M 476.0 182 l -1.6 -5 M 476.0 182 l 1.6 -6" stroke="#5fae3f" stroke-width="1.1" fill="none"/><path d="M 483.0 182 l -1.6 -5 M 483.0 182 l 1.6 -6" stroke="#5fae3f" stroke-width="1.1" fill="none"/><path d="M 490.0 182 l -1.6 -5 M 490.0 182 l 1.6 -6" stroke="#5fae3f" stroke-width="1.1" fill="none"/><path d="M 497.0 182 l -1.6 -5 M 497.0 182 l 1.6 -6" stroke="#5fae3f" stroke-width="1.1" fill="none"/><path d="M 504.0 182 l -1.6 -5 M 504.0 182 l 1.6 -6" stroke="#5fae3f" stroke-width="1.1" fill="none"/><path d="M 511.0 182 l -1.6 -5 M 511.0 182 l 1.6 -6" stroke="#5fae3f" stroke-width="1.1" fill="none"/><path d="M 518.0 182 l -1.6 -5 M 518.0 182 l 1.6 -6" stroke="#5fae3f" stroke-width="1.1" fill="none"/><path d="M 525.0 182 l -1.6 -5 M 525.0 182 l 1.6 -6" stroke="#5fae3f" stroke-width="1.1" fill="none"/><path d="M 532.0 182 l -1.6 -5 M 532.0 182 l 1.6 -6" stroke="#5fae3f" stroke-width="1.1" fill="none"/><path d="M 539.0 182 l -1.6 -5 M 539.0 182 l 1.6 -6" stroke="#5fae3f" stroke-width="1.1" fill="none"/><path d="M 546.0 182 l -1.6 -5 M 546.0 182 l 1.6 -6" stroke="#5fae3f" stroke-width="1.1" fill="none"/><path d="M 553.0 182 l -1.6 -5 M 553.0 182 l 1.6 -6" stroke="#5fae3f" stroke-width="1.1" fill="none"/><path d="M 560.0 182 l -1.6 -5 M 560.0 182 l 1.6 -6" stroke="#5fae3f" stroke-width="1.1" fill="none"/><path d="M 567.0 182 l -1.6 -5 M 567.0 182 l 1.6 -6" stroke="#5fae3f" stroke-width="1.1" fill="none"/><path d="M 574.0 182 l -1.6 -5 M 574.0 182 l 1.6 -6" stroke="#5fae3f" stroke-width="1.1" fill="none"/><path d="M 581.0 182 l -1.6 -5 M 581.0 182 l 1.6 -6" stroke="#5fae3f" stroke-width="1.1" fill="none"/><path d="M 588.0 182 l -1.6 -5 M 588.0 182 l 1.6 -6" stroke="#5fae3f" stroke-width="1.1" fill="none"/><path d="M 595.0 182 l -1.6 -5 M 595.0 182 l 1.6 -6" stroke="#5fae3f" stroke-width="1.1" fill="none"/><path d="M 602.0 182 l -1.6 -5 M 602.0 182 l 1.6 -6" stroke="#5fae3f" stroke-width="1.1" fill="none"/><path d="M 609.0 182 l -1.6 -5 M 609.0 182 l 1.6 -6" stroke="#5fae3f" stroke-width="1.1" fill="none"/><path d="M 616.0 182 l -1.6 -5 M 616.0 182 l 1.6 -6" stroke="#5fae3f" stroke-width="1.1" fill="none"/><path d="M 623.0 182 l -1.6 -5 M 623.0 182 l 1.6 -6" stroke="#5fae3f" stroke-width="1.1" fill="none"/><path d="M 630.0 182 l -1.6 -5 M 630.0 182 l 1.6 -6" stroke="#5fae3f" stroke-width="1.1" fill="none"/><path d="M 637.0 182 l -1.6 -5 M 637.0 182 l 1.6 -6" stroke="#5fae3f" stroke-width="1.1" fill="none"/><path d="M 644.0 182 l -1.6 -5 M 644.0 182 l 1.6 -6" stroke="#5fae3f" stroke-width="1.1" fill="none"/><path d="M 651.0 182 l -1.6 -5 M 651.0 182 l 1.6 -6" stroke="#5fae3f" stroke-width="1.1" fill="none"/><path d="M 658.0 182 l -1.6 -5 M 658.0 182 l 1.6 -6" stroke="#5fae3f" stroke-width="1.1" fill="none"/><path d="M 665.0 182 l -1.6 -5 M 665.0 182 l 1.6 -6" stroke="#5fae3f" stroke-width="1.1" fill="none"/><path d="M 672.0 182 l -1.6 -5 M 672.0 182 l 1.6 -6" stroke="#5fae3f" stroke-width="1.1" fill="none"/><path d="M 679.0 182 l -1.6 -5 M 679.0 182 l 1.6 -6" stroke="#5fae3f" stroke-width="1.1" fill="none"/><path d="M 686.0 182 l -1.6 -5 M 686.0 182 l 1.6 -6" stroke="#5fae3f" stroke-width="1.1" fill="none"/><path d="M 693.0 182 l -1.6 -5 M 693.0 182 l 1.6 -6" stroke="#5fae3f" stroke-width="1.1" fill="none"/><path d="M 700.0 182 l -1.6 -5 M 700.0 182 l 1.6 -6" stroke="#5fae3f" stroke-width="1.1" fill="none"/><path d="M 707.0 182 l -1.6 -5 M 707.0 182 l 1.6 -6" stroke="#5fae3f" stroke-width="1.1" fill="none"/><path d="M 714.0 182 l -1.6 -5 M 714.0 182 l 1.6 -6" stroke="#5fae3f" stroke-width="1.1" fill="none"/><path d="M 721.0 182 l -1.6 -5 M 721.0 182 l 1.6 -6" stroke="#5fae3f" stroke-width="1.1" fill="none"/><path d="M 728.0 182 l -1.6 -5 M 728.0 182 l 1.6 -6" stroke="#5fae3f" stroke-width="1.1" fill="none"/><path d="M 735.0 182 l -1.6 -5 M 735.0 182 l 1.6 -6" stroke="#5fae3f" stroke-width="1.1" fill="none"/><path d="M 742.0 182 l -1.6 -5 M 742.0 182 l 1.6 -6" stroke="#5fae3f" stroke-width="1.1" fill="none"/><path d="M 749.0 182 l -1.6 -5 M 749.0 182 l 1.6 -6" stroke="#5fae3f" stroke-width="1.1" fill="none"/><path d="M 756.0 182 l -1.6 -5 M 756.0 182 l 1.6 -6" stroke="#5fae3f" stroke-width="1.1" fill="none"/><path d="M 763.0 182 l -1.6 -5 M 763.0 182 l 1.6 -6" stroke="#5fae3f" stroke-width="1.1" fill="none"/><path d="M 770.0 182 l -1.6 -5 M 770.0 182 l 1.6 -6" stroke="#5fae3f" stroke-width="1.1" fill="none"/><path d="M 777.0 182 l -1.6 -5 M 777.0 182 l 1.6 -6" stroke="#5fae3f" stroke-width="1.1" fill="none"/><path d="M 784.0 182 l -1.6 -5 M 784.0 182 l 1.6 -6" stroke="#5fae3f" stroke-width="1.1" fill="none"/><path d="M 791.0 182 l -1.6 -5 M 791.0 182 l 1.6 -6" stroke="#5fae3f" stroke-width="1.1" fill="none"/><path d="M 798.0 182 l -1.6 -5 M 798.0 182 l 1.6 -6" stroke="#5fae3f" stroke-width="1.1" fill="none"/><path d="M 805.0 182 l -1.6 -5 M 805.0 182 l 1.6 -6" stroke="#5fae3f" stroke-width="1.1" fill="none"/><path d="M 812.0 182 l -1.6 -5 M 812.0 182 l 1.6 -6" stroke="#5fae3f" stroke-width="1.1" fill="none"/><path d="M 819.0 182 l -1.6 -5 M 819.0 182 l 1.6 -6" stroke="#5fae3f" stroke-width="1.1" fill="none"/><path d="M 826.0 182 l -1.6 -5 M 826.0 182 l 1.6 -6" stroke="#5fae3f" stroke-width="1.1" fill="none"/><path d="M 833.0 182 l -1.6 -5 M 833.0 182 l 1.6 -6" stroke="#5fae3f" stroke-width="1.1" fill="none"/><path d="M 840.0 182 l -1.6 -5 M 840.0 182 l 1.6 -6" stroke="#5fae3f" stroke-width="1.1" fill="none"/><path d="M 847.0 182 l -1.6 -5 M 847.0 182 l 1.6 -6" stroke="#5fae3f" stroke-width="1.1" fill="none"/><path d="M 854.0 182 l -1.6 -5 M 854.0 182 l 1.6 -6" stroke="#5fae3f" stroke-width="1.1" fill="none"/><path d="M 861.0 182 l -1.6 -5 M 861.0 182 l 1.6 -6" stroke="#5fae3f" stroke-width="1.1" fill="none"/><path d="M 868.0 182 l -1.6 -5 M 868.0 182 l 1.6 -6" stroke="#5fae3f" stroke-width="1.1" fill="none"/><path d="M 875.0 182 l -1.6 -5 M 875.0 182 l 1.6 -6" stroke="#5fae3f" stroke-width="1.1" fill="none"/><path d="M 882.0 182 l -1.6 -5 M 882.0 182 l 1.6 -6" stroke="#5fae3f" stroke-width="1.1" fill="none"/><path d="M 889.0 182 l -1.6 -5 M 889.0 182 l 1.6 -6" stroke="#5fae3f" stroke-width="1.1" fill="none"/><path d="M 896.0 182 l -1.6 -5 M 896.0 182 l 1.6 -6" stroke="#5fae3f" stroke-width="1.1" fill="none"/><path d="M 903.0 182 l -1.6 -5 M 903.0 182 l 1.6 -6" stroke="#5fae3f" stroke-width="1.1" fill="none"/><path d="M 910.0 182 l -1.6 -5 M 910.0 182 l 1.6 -6" stroke="#5fae3f" stroke-width="1.1" fill="none"/><path d="M 917.0 182 l -1.6 -5 M 917.0 182 l 1.6 -6" stroke="#5fae3f" stroke-width="1.1" fill="none"/><path d="M 924.0 182 l -1.6 -5 M 924.0 182 l 1.6 -6" stroke="#5fae3f" stroke-width="1.1" fill="none"/><path d="M 931.0 182 l -1.6 -5 M 931.0 182 l 1.6 -6" stroke="#5fae3f" stroke-width="1.1" fill="none"/><path d="M 938.0 182 l -1.6 -5 M 938.0 182 l 1.6 -6" stroke="#5fae3f" stroke-width="1.1" fill="none"/>
<text x="70" y="190.0" font-size="10" fill="#78909c" text-anchor="end">100%</text>
<text x="70" y="398.0" font-size="10" fill="#78909c" text-anchor="end">0%</text>
<text x="70" y="202.0" font-size="9" fill="#1f6f9e" text-anchor="end">wet</text>
<text x="70" y="392.0" font-size="9" fill="#e7d9bd" text-anchor="end">dry</text>
<line x1="80" y1="292.0" x2="940" y2="292.0" stroke="#c62828" stroke-width="1.6" stroke-dasharray="6 4"/>
<text x="936" y="286.0" font-size="10.5" fill="#c62828" text-anchor="end">stress threshold &#8212; turf starts to wilt below 50%</text>
<polyline points="80.0,241.1 130.6,253.8 181.2,247.5 231.8,264.4 282.4,270.8 332.9,287.8 383.5,300.5 434.1,313.2 484.7,323.8 535.3,304.7 585.9,313.2 636.5,321.7 687.1,328.0 737.6,336.5 788.2,317.4 838.8,325.9 889.4,332.3 940.0,338.6" fill="none" stroke="#1f6f9e" stroke-width="2.4"/>
<circle cx="80.0" cy="241.1" r="2.4" fill="#1f6f9e"/>
<circle cx="130.6" cy="253.8" r="2.4" fill="#1f6f9e"/>
<circle cx="181.2" cy="247.5" r="2.4" fill="#1f6f9e"/>
<circle cx="231.8" cy="264.4" r="2.4" fill="#1f6f9e"/>
<circle cx="282.4" cy="270.8" r="2.4" fill="#1f6f9e"/>
<circle cx="332.9" cy="287.8" r="2.4" fill="#1f6f9e"/>
<circle cx="383.5" cy="300.5" r="2.4" fill="#1f6f9e"/>
<circle cx="434.1" cy="313.2" r="2.4" fill="#1f6f9e"/>
<circle cx="484.7" cy="323.8" r="2.4" fill="#1f6f9e"/>
<circle cx="535.3" cy="304.7" r="5.5" fill="#fff" stroke="#1e88e5" stroke-width="2.4"/>
<circle cx="585.9" cy="313.2" r="2.4" fill="#1f6f9e"/>
<circle cx="636.5" cy="321.7" r="2.4" fill="#1f6f9e"/>
<circle cx="687.1" cy="328.0" r="2.4" fill="#1f6f9e"/>
<circle cx="737.6" cy="336.5" r="2.4" fill="#1f6f9e"/>
<circle cx="788.2" cy="317.4" r="5.5" fill="#fff" stroke="#1e88e5" stroke-width="2.4"/>
<circle cx="838.8" cy="325.9" r="2.4" fill="#1f6f9e"/>
<circle cx="889.4" cy="332.3" r="2.4" fill="#1f6f9e"/>
<circle cx="940.0" cy="338.6" r="2.4" fill="#1f6f9e"/>
<text x="70" y="163.0" font-size="9" fill="#78909c" text-anchor="end">air °C</text>
<text x="80.0" y="163.0" font-size="10.5" fill="#78909c" text-anchor="middle">19°</text>
<text x="130.6" y="163.0" font-size="10.5" fill="#78909c" text-anchor="middle">21°</text>
<text x="181.2" y="163.0" font-size="10.5" fill="#78909c" text-anchor="middle">22°</text>
<text x="231.8" y="163.0" font-size="10.5" fill="#78909c" text-anchor="middle">24°</text>
<text x="282.4" y="163.0" font-size="10.5" fill="#78909c" text-anchor="middle">26°</text>
<text x="332.9" y="163.0" font-size="10.5" fill="#78909c" text-anchor="middle">27°</text>
<text x="383.5" y="163.0" font-size="10.5" fill="#78909c" text-anchor="middle">25°</text>
<text x="434.1" y="163.0" font-size="10.5" fill="#78909c" text-anchor="middle">28°</text>
<text x="484.7" y="163.0" font-size="10.5" fill="#78909c" text-anchor="middle">29°</text>
<text x="535.3" y="163.0" font-size="10.5" fill="#78909c" text-anchor="middle">30°</text>
<text x="585.9" y="163.0" font-size="10.5" fill="#78909c" text-anchor="middle">28°</text>
<text x="636.5" y="163.0" font-size="10.5" fill="#78909c" text-anchor="middle">27°</text>
<text x="687.1" y="163.0" font-size="10.5" fill="#78909c" text-anchor="middle">26°</text>
<text x="737.6" y="163.0" font-size="10.5" fill="#78909c" text-anchor="middle">29°</text>
<text x="788.2" y="163.0" font-size="10.5" fill="#78909c" text-anchor="middle">31°</text>
<text x="838.8" y="163.0" font-size="10.5" fill="#78909c" text-anchor="middle">28°</text>
<text x="889.4" y="163.0" font-size="10.5" fill="#78909c" text-anchor="middle">26°</text>
<text x="940.0" y="163.0" font-size="10.5" fill="#78909c" text-anchor="middle">25°</text>
<path d="M 177.2 170.0 q 3.6 4.8 0 7.8 q -3.6 -3.0 0 -7.8 z" fill="#5aa9e0"/>
<path d="M 185.2 170.0 q 3.6 4.8 0 7.8 q -3.6 -3.0 0 -7.8 z" fill="#5aa9e0"/>
<path d="M 529.3 168.0 q 4.2 5.6 0 9.1 q -4.2 -3.5 0 -9.1 z" fill="#1e88e5"/>
<path d="M 535.3 168.0 q 4.2 5.6 0 9.1 q -4.2 -3.5 0 -9.1 z" fill="#1e88e5"/>
<path d="M 541.3 168.0 q 4.2 5.6 0 9.1 q -4.2 -3.5 0 -9.1 z" fill="#1e88e5"/>
<path d="M 782.2 168.0 q 4.2 5.6 0 9.1 q -4.2 -3.5 0 -9.1 z" fill="#1e88e5"/>
<path d="M 788.2 168.0 q 4.2 5.6 0 9.1 q -4.2 -3.5 0 -9.1 z" fill="#1e88e5"/>
<path d="M 794.2 168.0 q 4.2 5.6 0 9.1 q -4.2 -3.5 0 -9.1 z" fill="#1e88e5"/>
<rect x="509.3" y="270.7" width="52" height="22" rx="5" fill="#1f6f9e"/>
<text x="535.3" y="285.7" font-size="12" font-weight="700" fill="#fff" text-anchor="middle">44%</text>
<path d="M 530.3 292.7 L 540.3 292.7 L 535.3 299.7 z" fill="#1f6f9e"/>
<text x="80.0" y="420" font-size="10.5" fill="#78909c" font-weight="400" text-anchor="middle">Wed</text>
<text x="80.0" y="435" font-size="10" fill="#78909c" font-weight="400" text-anchor="middle">10 Jun</text>
<text x="130.6" y="420" font-size="10.5" fill="#78909c" font-weight="400" text-anchor="middle">Thu</text>
<text x="130.6" y="435" font-size="10" fill="#78909c" font-weight="400" text-anchor="middle">11 Jun</text>
<text x="181.2" y="420" font-size="10.5" fill="#78909c" font-weight="400" text-anchor="middle">Fri</text>
<text x="181.2" y="435" font-size="10" fill="#78909c" font-weight="400" text-anchor="middle">12 Jun</text>
<text x="231.8" y="420" font-size="10.5" fill="#78909c" font-weight="400" text-anchor="middle">Sat</text>
<text x="231.8" y="435" font-size="10" fill="#78909c" font-weight="400" text-anchor="middle">13 Jun</text>
<text x="282.4" y="420" font-size="10.5" fill="#78909c" font-weight="400" text-anchor="middle">Sun</text>
<text x="282.4" y="435" font-size="10" fill="#78909c" font-weight="400" text-anchor="middle">14 Jun</text>
<text x="332.9" y="420" font-size="10.5" fill="#78909c" font-weight="400" text-anchor="middle">Mon</text>
<text x="332.9" y="435" font-size="10" fill="#78909c" font-weight="400" text-anchor="middle">15 Jun</text>
<text x="383.5" y="420" font-size="10.5" fill="#78909c" font-weight="400" text-anchor="middle">Tue</text>
<text x="383.5" y="435" font-size="10" fill="#78909c" font-weight="400" text-anchor="middle">16 Jun</text>
<text x="434.1" y="420" font-size="10.5" fill="#78909c" font-weight="400" text-anchor="middle">Wed</text>
<text x="434.1" y="435" font-size="10" fill="#78909c" font-weight="400" text-anchor="middle">17 Jun</text>
<text x="484.7" y="420" font-size="10.5" fill="#78909c" font-weight="400" text-anchor="middle">Thu</text>
<text x="484.7" y="435" font-size="10" fill="#78909c" font-weight="400" text-anchor="middle">18 Jun</text>
<text x="535.3" y="420" font-size="10.5" fill="#37474f" font-weight="700" text-anchor="middle">Today</text>
<text x="535.3" y="435" font-size="10" fill="#37474f" font-weight="700" text-anchor="middle">19 Jun</text>
<text x="585.9" y="420" font-size="10.5" fill="#78909c" font-weight="400" text-anchor="middle">Sat</text>
<text x="585.9" y="435" font-size="10" fill="#78909c" font-weight="400" text-anchor="middle">20 Jun</text>
<text x="636.5" y="420" font-size="10.5" fill="#78909c" font-weight="400" text-anchor="middle">Sun</text>
<text x="636.5" y="435" font-size="10" fill="#78909c" font-weight="400" text-anchor="middle">21 Jun</text>
<text x="687.1" y="420" font-size="10.5" fill="#78909c" font-weight="400" text-anchor="middle">Mon</text>
<text x="687.1" y="435" font-size="10" fill="#78909c" font-weight="400" text-anchor="middle">22 Jun</text>
<text x="737.6" y="420" font-size="10.5" fill="#78909c" font-weight="400" text-anchor="middle">Tue</text>
<text x="737.6" y="435" font-size="10" fill="#78909c" font-weight="400" text-anchor="middle">23 Jun</text>
<text x="788.2" y="420" font-size="10.5" fill="#78909c" font-weight="400" text-anchor="middle">Wed</text>
<text x="788.2" y="435" font-size="10" fill="#78909c" font-weight="400" text-anchor="middle">24 Jun</text>
<text x="838.8" y="420" font-size="10.5" fill="#78909c" font-weight="400" text-anchor="middle">Thu</text>
<text x="838.8" y="435" font-size="10" fill="#78909c" font-weight="400" text-anchor="middle">25 Jun</text>
<text x="889.4" y="420" font-size="10.5" fill="#78909c" font-weight="400" text-anchor="middle">Fri</text>
<text x="889.4" y="435" font-size="10" fill="#78909c" font-weight="400" text-anchor="middle">26 Jun</text>
<text x="940.0" y="420" font-size="10.5" fill="#78909c" font-weight="400" text-anchor="middle">Sat</text>
<text x="940.0" y="435" font-size="10" fill="#78909c" font-weight="400" text-anchor="middle">27 Jun</text>
<text x="50" y="292" font-size="22" fill="#cfd8dc">‹</text>
<text x="952" y="292" font-size="22" fill="#cfd8dc">›</text>
<text x="500" y="454" font-size="10" fill="#78909c" text-anchor="middle">← scroll to the 32 run-up days &#183; or 8 more forecast days →</text>
<rect x="40" y="476" width="16" height="13" fill="url(#sat)"/>
<text x="70" y="488" font-size="11" fill="#37474f">water in soil</text>
<rect x="180" y="476" width="16" height="13" fill="#e7d9bd"/>
<circle cx="185" cy="481" r="1.4" fill="#cdb993"/><circle cx="191" cy="484" r="1.4" fill="#cdb993"/>
<text x="210" y="488" font-size="11" fill="#37474f">dry soil</text>
<line x1="300" y1="483" x2="322" y2="483" stroke="#c62828" stroke-width="1.6" stroke-dasharray="5 3"/>
<text x="328" y="488" font-size="11" fill="#37474f">stress threshold</text>
<path d="M 457.0 475.0 q 4.2 5.6 0 9.1 q -4.2 -3.5 0 -9.1 z" fill="#1e88e5"/>
<text x="480" y="488" font-size="11" fill="#37474f">rain / watering</text>
<circle cx="617" cy="483" r="5" fill="#fff" stroke="#1e88e5" stroke-width="2"/>
<text x="628" y="488" font-size="11" fill="#37474f">a day you watered (click to toggle)</text>
<rect x="40" y="506" width="920" height="0.8" fill="#cfd8dc"/>
<text x="40" y="532" font-size="11" fill="#78909c">Click any day to apply / cancel a 60-min dose (past or future). Illustrative data &#183; static page, settings reset on reload.</text>
</svg>