<svg xmlns="http://www.w3.org/2000/svg" width="1000" height="545" viewBox="0 0 1000 545" font-family="Segoe UI, Helvetica, Arial, sans-serif">
<rect width="1000" height="545" fill="#ffffff"/>
<text x="40" y="34" font-size="20" font-weight="700" fill="#37474f">Soil-Balance</text>
<text x="362" y="34" font-size="13" fill="#78909c">Vormersesluisweg 3A, Wijchen &#183; one zone</text>
<rect x="40" y="52" width="150" height="46" rx="9" fill="#f6f8fa" stroke="#cfd8dc"/>
<text x="52" y="70" font-size="10.5" fill="#78909c">SOIL TYPE</text>
<text x="52" y="89" font-size="14" font-weight="600" fill="#37474f">Sandy ▾</text>
<text x="178" y="89" font-size="11" fill="#78909c" text-anchor="end">25 mm</text>
<rect x="200" y="52" width="150" height="46" rx="9" fill="#f6f8fa" stroke="#cfd8dc"/>
<text x="212" y="70" font-size="10.5" fill="#78909c">PLANTING</text>
<text x="212" y="89" font-size="14" font-weight="600" fill="#37474f">Turf ▾</text>
<text x="338" y="89" font-size="11" fill="#78909c" text-anchor="end">Kᴄ 0.9</text>
<rect x="360" y="52" width="210" height="46" rx="9" fill="#f6f8fa" stroke="#cfd8dc"/>
<text x="372" y="70" font-size="10.5" fill="#78909c">WATERING DURATION</text>
<text x="372" y="89" font-size="14" font-weight="600" fill="#37474f">60 min</text>
<text x="558" y="89" font-size="11" fill="#78909c" text-anchor="end">≈ 2.8 mm net</text>
<rect x="580" y="52" width="150" height="46" rx="9" fill="#f6f8fa" stroke="#cfd8dc"/>
<text x="592" y="70" font-size="10.5" fill="#78909c">STRESS THRESHOLD</text>
<text x="592" y="89" font-size="14" font-weight="600" fill="#37474f">50%</text>
<text x="718" y="89" font-size="11" fill="#78909c" text-anchor="end">depletion</text>
<text x="960" y="74" font-size="10.5" fill="#78909c" text-anchor="end">RESERVOIR (derived)</text>
<text x="960" y="91" font-size="14" font-weight="600" fill="#37474f" text-anchor="end">25 mm usable</text>
<rect x="510.0" y="110" width="50.6" height="318" fill="#fff7d6"/>
<text x="68" y="128" font-size="11" fill="#78909c" text-anchor="end">Mean &#176;C</text>
<text x="80.0" y="128" font-size="11" fill="#37474f" text-anchor="middle">19</text>
<text x="130.6" y="128" font-size="11" fill="#37474f" text-anchor="middle">21</text>
<text x="181.2" y="128" font-size="11" fill="#37474f" text-anchor="middle">22</text>
<text x="231.8" y="128" font-size="11" fill="#37474f" text-anchor="middle">24</text>
<text x="282.4" y="128" font-size="11" fill="#37474f" text-anchor="middle">26</text>
<text x="332.9" y="128" font-size="11" fill="#37474f" text-anchor="middle">27</text>
<text x="383.5" y="128" font-size="11" fill="#37474f" text-anchor="middle">25</text>
<text x="434.1" y="128" font-size="11" fill="#37474f" text-anchor="middle">28</text>
<text x="484.7" y="128" font-size="11" fill="#37474f" text-anchor="middle">29</text>
<text x="535.3" y="128" font-size="11" fill="#37474f" text-anchor="middle">30</text>
<text x="585.9" y="128" font-size="11" fill="#37474f" text-anchor="middle">28</text>
<text x="636.5" y="128" font-size="11" fill="#37474f" text-anchor="middle">27</text>
<text x="687.1" y="128" font-size="11" fill="#37474f" text-anchor="middle">26</text>
<text x="737.6" y="128" font-size="11" fill="#37474f" text-anchor="middle">29</text>
<text x="788.2" y="128" font-size="11" fill="#37474f" text-anchor="middle">31</text>
<text x="838.8" y="128" font-size="11" fill="#37474f" text-anchor="middle">28</text>
<text x="889.4" y="128" font-size="11" fill="#37474f" text-anchor="middle">26</text>
<text x="940.0" y="128" font-size="11" fill="#37474f" text-anchor="middle">25</text>
<text x="40" y="152" font-size="12" font-weight="600" fill="#37474f">Soil moisture &amp; daily balance</text>
<line x1="80" y1="384.0" x2="940" y2="384.0" stroke="#cfd8dc" stroke-width="1"/>
<text x="72" y="388.0" font-size="10" fill="#78909c" text-anchor="end">0%</text>
<line x1="80" y1="276.0" x2="940" y2="276.0" stroke="#cfd8dc" stroke-width="1"/>
<text x="72" y="280.0" font-size="10" fill="#78909c" text-anchor="end">50%</text>
<line x1="80" y1="168.0" x2="940" y2="168.0" stroke="#cfd8dc" stroke-width="1"/>
<text x="72" y="172.0" font-size="10" fill="#78909c" text-anchor="end">100%</text>
<rect x="80" y="276.0" width="860.0" height="108.0" fill="#fdecea"/>
<line x1="80" y1="276.0" x2="940" y2="276.0" stroke="#c62828" stroke-width="1.6" stroke-dasharray="6 4"/>
<text x="940" y="270.0" font-size="10.5" fill="#c62828" text-anchor="end">stress threshold 50%</text>
<line x1="80" y1="366" x2="940" y2="366" stroke="#78909c" stroke-width="0.8" stroke-dasharray="3 3"/>
<text x="948" y="355.0" font-size="9.5" fill="#78909c">+2</text>
<text x="948" y="369.0" font-size="9.5" fill="#78909c">0</text>
<text x="948" y="383.0" font-size="9.5" fill="#78909c">−2</text>
<text x="948" y="340.0" font-size="9.5" fill="#78909c">mm/d</text>
<rect x="69.9" y="366.0" width="20.2" height="10.5" fill="#b08968" opacity="0.85"/>
<rect x="120.5" y="366.0" width="20.2" height="10.5" fill="#b08968" opacity="0.85"/>
<rect x="171.1" y="360.8" width="20.2" height="5.2" fill="#43a047" opacity="0.85"/>
<rect x="221.6" y="366.0" width="20.2" height="14.0" fill="#b08968" opacity="0.85"/>
<rect x="272.2" y="366.0" width="20.2" height="5.2" fill="#b08968" opacity="0.85"/>
<rect x="322.8" y="366.0" width="20.2" height="14.0" fill="#b08968" opacity="0.85"/>
<rect x="373.4" y="366.0" width="20.2" height="10.5" fill="#b08968" opacity="0.85"/>
<rect x="424.0" y="366.0" width="20.2" height="10.5" fill="#b08968" opacity="0.85"/>
<rect x="474.6" y="366.0" width="20.2" height="8.8" fill="#b08968" opacity="0.85"/>
<rect x="525.2" y="350.2" width="20.2" height="15.8" fill="#1e88e5" opacity="0.85"/>
<path d="M 535.3 336.2 q 6 8 0 13 q -6 -5 0 -13 z" fill="#1e88e5"/>
<rect x="575.8" y="366.0" width="20.2" height="7.0" fill="#b08968" opacity="0.85"/>
<rect x="626.4" y="366.0" width="20.2" height="7.0" fill="#b08968" opacity="0.85"/>
<rect x="676.9" y="366.0" width="20.2" height="5.2" fill="#b08968" opacity="0.85"/>
<rect x="727.5" y="366.0" width="20.2" height="7.0" fill="#b08968" opacity="0.85"/>
<rect x="778.1" y="350.2" width="20.2" height="15.8" fill="#1e88e5" opacity="0.85"/>
<path d="M 788.2 336.2 q 6 8 0 13 q -6 -5 0 -13 z" fill="#1e88e5"/>
<rect x="828.7" y="366.0" width="20.2" height="7.0" fill="#b08968" opacity="0.85"/>
<rect x="879.3" y="366.0" width="20.2" height="5.2" fill="#b08968" opacity="0.85"/>
<rect x="929.9" y="366.0" width="20.2" height="5.2" fill="#b08968" opacity="0.85"/>
<polyline points="80.0,224.2 130.6,237.1 181.2,230.6 231.8,247.9 282.4,254.4 332.9,271.7 383.5,284.6 434.1,297.6 484.7,308.4 535.3,289.0 585.9,297.6 636.5,306.2 687.1,312.7 737.6,321.4 788.2,301.9 838.8,310.6 889.4,317.0 940.0,323.5" fill="none" stroke="#2e7d32" stroke-width="2.6"/>
<circle cx="80.0" cy="224.2" r="2.6" fill="#2e7d32"/>
<circle cx="130.6" cy="237.1" r="2.6" fill="#2e7d32"/>
<circle cx="181.2" cy="230.6" r="2.6" fill="#2e7d32"/>
<circle cx="231.8" cy="247.9" r="2.6" fill="#2e7d32"/>
<circle cx="282.4" cy="254.4" r="2.6" fill="#2e7d32"/>
<circle cx="332.9" cy="271.7" r="2.6" fill="#2e7d32"/>
<circle cx="383.5" cy="284.6" r="2.6" fill="#2e7d32"/>
<circle cx="434.1" cy="297.6" r="2.6" fill="#2e7d32"/>
<circle cx="484.7" cy="308.4" r="2.6" fill="#2e7d32"/>
<circle cx="535.3" cy="289.0" r="5.5" fill="#fff" stroke="#1e88e5" stroke-width="2.4"/>
<circle cx="585.9" cy="297.6" r="2.6" fill="#2e7d32"/>
<circle cx="636.5" cy="306.2" r="2.6" fill="#2e7d32"/>
<circle cx="687.1" cy="312.7" r="2.6" fill="#2e7d32"/>
<circle cx="737.6" cy="321.4" r="2.6" fill="#2e7d32"/>
<circle cx="788.2" cy="301.9" r="5.5" fill="#fff" stroke="#1e88e5" stroke-width="2.4"/>
<circle cx="838.8" cy="310.6" r="2.6" fill="#2e7d32"/>
<circle cx="889.4" cy="317.0" r="2.6" fill="#2e7d32"/>
<circle cx="940.0" cy="323.5" r="2.6" fill="#2e7d32"/>
<text x="80.0" y="408" font-size="10.5" fill="#78909c" font-weight="400" text-anchor="middle">Wed</text>
<text x="80.0" y="424" font-size="10" fill="#78909c" font-weight="400" text-anchor="middle">10 Jun</text>
<text x="130.6" y="408" font-size="10.5" fill="#78909c" font-weight="400" text-anchor="middle">Thu</text>
<text x="130.6" y="424" font-size="10" fill="#78909c" font-weight="400" text-anchor="middle">11 Jun</text>
<text x="181.2" y="408" font-size="10.5" fill="#78909c" font-weight="400" text-anchor="middle">Fri</text>
<text x="181.2" y="424" font-size="10" fill="#78909c" font-weight="400" text-anchor="middle">12 Jun</text>
<text x="231.8" y="408" font-size="10.5" fill="#78909c" font-weight="400" text-anchor="middle">Sat</text>
<text x="231.8" y="424" font-size="10" fill="#78909c" font-weight="400" text-anchor="middle">13 Jun</text>
<text x="282.4" y="408" font-size="10.5" fill="#78909c" font-weight="400" text-anchor="middle">Sun</text>
<text x="282.4" y="424" font-size="10" fill="#78909c" font-weight="400" text-anchor="middle">14 Jun</text>
<text x="332.9" y="408" font-size="10.5" fill="#78909c" font-weight="400" text-anchor="middle">Mon</text>
<text x="332.9" y="424" font-size="10" fill="#78909c" font-weight="400" text-anchor="middle">15 Jun</text>
<text x="383.5" y="408" font-size="10.5" fill="#78909c" font-weight="400" text-anchor="middle">Tue</text>
<text x="383.5" y="424" font-size="10" fill="#78909c" font-weight="400" text-anchor="middle">16 Jun</text>
<text x="434.1" y="408" font-size="10.5" fill="#78909c" font-weight="400" text-anchor="middle">Wed</text>
<text x="434.1" y="424" font-size="10" fill="#78909c" font-weight="400" text-anchor="middle">17 Jun</text>
<text x="484.7" y="408" font-size="10.5" fill="#78909c" font-weight="400" text-anchor="middle">Thu</text>
<text x="484.7" y="424" font-size="10" fill="#78909c" font-weight="400" text-anchor="middle">18 Jun</text>
<text x="535.3" y="408" font-size="10.5" fill="#37474f" font-weight="700" text-anchor="middle">Today</text>
<text x="535.3" y="424" font-size="10" fill="#37474f" font-weight="700" text-anchor="middle">19 Jun</text>
<text x="585.9" y="408" font-size="10.5" fill="#78909c" font-weight="400" text-anchor="middle">Sat</text>
<text x="585.9" y="424" font-size="10" fill="#78909c" font-weight="400" text-anchor="middle">20 Jun</text>
<text x="636.5" y="408" font-size="10.5" fill="#78909c" font-weight="400" text-anchor="middle">Sun</text>
<text x="636.5" y="424" font-size="10" fill="#78909c" font-weight="400" text-anchor="middle">21 Jun</text>
<text x="687.1" y="408" font-size="10.5" fill="#78909c" font-weight="400" text-anchor="middle">Mon</text>
<text x="687.1" y="424" font-size="10" fill="#78909c" font-weight="400" text-anchor="middle">22 Jun</text>
<text x="737.6" y="408" font-size="10.5" fill="#78909c" font-weight="400" text-anchor="middle">Tue</text>
<text x="737.6" y="424" font-size="10" fill="#78909c" font-weight="400" text-anchor="middle">23 Jun</text>
<text x="788.2" y="408" font-size="10.5" fill="#78909c" font-weight="400" text-anchor="middle">Wed</text>
<text x="788.2" y="424" font-size="10" fill="#78909c" font-weight="400" text-anchor="middle">24 Jun</text>
<text x="838.8" y="408" font-size="10.5" fill="#78909c" font-weight="400" text-anchor="middle">Thu</text>
<text x="838.8" y="424" font-size="10" fill="#78909c" font-weight="400" text-anchor="middle">25 Jun</text>
<text x="889.4" y="408" font-size="10.5" fill="#78909c" font-weight="400" text-anchor="middle">Fri</text>
<text x="889.4" y="424" font-size="10" fill="#78909c" font-weight="400" text-anchor="middle">26 Jun</text>
<text x="940.0" y="408" font-size="10.5" fill="#78909c" font-weight="400" text-anchor="middle">Sat</text>
<text x="940.0" y="424" font-size="10" fill="#78909c" font-weight="400" text-anchor="middle">27 Jun</text>
<text x="50" y="276" font-size="22" fill="#cfd8dc">‹</text>
<text x="970" y="276" font-size="22" fill="#cfd8dc">›</text>
<text x="500" y="446" font-size="10" fill="#78909c" text-anchor="middle">← scroll to the 32 run-up days &#183; or 8 more forecast days →</text>
<line x1="40" y1="472" x2="62" y2="472" stroke="#2e7d32" stroke-width="2.6"/>
<text x="68" y="476" font-size="11" fill="#37474f">soil moisture (%)</text>
<line x1="200" y1="472" x2="222" y2="472" stroke="#c62828" stroke-width="1.6" stroke-dasharray="5 3"/>
<text x="228" y="476" font-size="11" fill="#37474f">stress threshold</text>
<rect x="350" y="465" width="14" height="12" fill="#43a047"/>
<text x="378" y="476" font-size="11" fill="#37474f">gain (mm)</text>
<rect x="450" y="465" width="14" height="12" fill="#b08968"/>
<text x="478" y="476" font-size="11" fill="#37474f">loss (mm)</text>
<rect x="545" y="465" width="14" height="12" fill="#1e88e5"/>
<text x="573" y="476" font-size="11" fill="#37474f">watering (click a day)</text>
<rect x="40" y="494" width="920" height="0.8" fill="#cfd8dc"/>
<text x="40" y="520" font-size="11" fill="#78909c">Click any day to apply / cancel a 60-min dose (past or future). Illustrative data &#183; static page, settings reset on reload.</text>
</svg>