<svg xmlns="http://www.w3.org/2000/svg" width="1000" height="600" viewBox="0 0 1000 600" font-family="Segoe UI, Helvetica, Arial, sans-serif">
<rect width="1000" height="600" fill="#ffffff"/>
<text x="40" y="34" font-size="20" font-weight="700" fill="#37474f">Soil-Balance</text>
<text x="362" y="34" font-size="13" fill="#78909c">Vormersesluisweg 3A, Wijchen &#183; one zone</text>
<rect x="40" y="52" width="150" height="46" rx="9" fill="#f6f8fa" stroke="#cfd8dc"/>
<text x="52" y="70" font-size="10.5" fill="#78909c">SOIL TYPE</text>
<text x="52" y="89" font-size="14" font-weight="600" fill="#37474f">Sandy ▾</text>
<text x="178" y="89" font-size="11" fill="#78909c" text-anchor="end">25 mm</text>
<rect x="200" y="52" width="150" height="46" rx="9" fill="#f6f8fa" stroke="#cfd8dc"/>
<text x="212" y="70" font-size="10.5" fill="#78909c">PLANTING</text>
<text x="212" y="89" font-size="14" font-weight="600" fill="#37474f">Turf ▾</text>
<text x="338" y="89" font-size="11" fill="#78909c" text-anchor="end">Kᴄ 0.9</text>
<rect x="360" y="52" width="210" height="46" rx="9" fill="#f6f8fa" stroke="#cfd8dc"/>
<text x="372" y="70" font-size="10.5" fill="#78909c">WATERING DURATION</text>
<text x="372" y="89" font-size="14" font-weight="600" fill="#37474f">60 min</text>
<text x="558" y="89" font-size="11" fill="#78909c" text-anchor="end">≈ 2.8 mm net</text>
<rect x="580" y="52" width="150" height="46" rx="9" fill="#f6f8fa" stroke="#cfd8dc"/>
<text x="592" y="70" font-size="10.5" fill="#78909c">STRESS THRESHOLD</text>
<text x="592" y="89" font-size="14" font-weight="600" fill="#37474f">50%</text>
<text x="718" y="89" font-size="11" fill="#78909c" text-anchor="end">depletion</text>
<text x="960" y="74" font-size="10.5" fill="#78909c" text-anchor="end">RESERVOIR (derived)</text>
<text x="960" y="91" font-size="14" font-weight="600" fill="#37474f" text-anchor="end">25 mm usable</text>
<rect x="510.0" y="110" width="50.6" height="362" fill="#fff7d6"/>
<text x="68" y="128" font-size="11" fill="#78909c" text-anchor="end">Mean &#176;C</text>
<text x="80.0" y="128" font-size="11" fill="#37474f" text-anchor="middle">19</text>
<text x="130.6" y="128" font-size="11" fill="#37474f" text-anchor="middle">21</text>
<text x="181.2" y="128" font-size="11" fill="#37474f" text-anchor="middle">22</text>
<text x="231.8" y="128" font-size="11" fill="#37474f" text-anchor="middle">24</text>
<text x="282.4" y="128" font-size="11" fill="#37474f" text-anchor="middle">26</text>
<text x="332.9" y="128" font-size="11" fill="#37474f" text-anchor="middle">27</text>
<text x="383.5" y="128" font-size="11" fill="#37474f" text-anchor="middle">25</text>
<text x="434.1" y="128" font-size="11" fill="#37474f" text-anchor="middle">28</text>
<text x="484.7" y="128" font-size="11" fill="#37474f" text-anchor="middle">29</text>
<text x="535.3" y="128" font-size="11" fill="#37474f" text-anchor="middle">30</text>
<text x="585.9" y="128" font-size="11" fill="#37474f" text-anchor="middle">28</text>
<text x="636.5" y="128" font-size="11" fill="#37474f" text-anchor="middle">27</text>
<text x="687.1" y="128" font-size="11" fill="#37474f" text-anchor="middle">26</text>
<text x="737.6" y="128" font-size="11" fill="#37474f" text-anchor="middle">29</text>
<text x="788.2" y="128" font-size="11" fill="#37474f" text-anchor="middle">31</text>
<text x="838.8" y="128" font-size="11" fill="#37474f" text-anchor="middle">28</text>
<text x="889.4" y="128" font-size="11" fill="#37474f" text-anchor="middle">26</text>
<text x="940.0" y="128" font-size="11" fill="#37474f" text-anchor="middle">25</text>
<text x="40" y="152" font-size="12" font-weight="600" fill="#37474f">Soil moisture</text>
<line x1="80" y1="336.0" x2="940" y2="336.0" stroke="#cfd8dc" stroke-width="1"/>
<text x="72" y="340.0" font-size="10" fill="#78909c" text-anchor="end">0%</text>
<line x1="80" y1="250.0" x2="940" y2="250.0" stroke="#cfd8dc" stroke-width="1"/>
<text x="72" y="254.0" font-size="10" fill="#78909c" text-anchor="end">50%</text>
<line x1="80" y1="164.0" x2="940" y2="164.0" stroke="#cfd8dc" stroke-width="1"/>
<text x="72" y="168.0" font-size="10" fill="#78909c" text-anchor="end">100%</text>
<rect x="80" y="250.0" width="860.0" height="86.0" fill="#fdecea"/>
<line x1="80" y1="250.0" x2="940" y2="250.0" stroke="#c62828" stroke-width="1.6" stroke-dasharray="6 4"/>
<text x="940" y="244.0" font-size="10.5" fill="#c62828" text-anchor="end">stress threshold 50%</text>
<polyline points="80.0,336 80.0,208.7 130.6,219.0 181.2,213.9 231.8,227.6 282.4,232.8 332.9,246.6 383.5,256.9 434.1,267.2 484.7,275.8 535.3,260.3 585.9,267.2 636.5,274.1 687.1,279.2 737.6,286.1 788.2,270.6 838.8,277.5 889.4,282.7 940.0,287.8 940.0,336" fill="#2e7d32" opacity="0.08"/>
<polyline points="80.0,208.7 130.6,219.0 181.2,213.9 231.8,227.6 282.4,232.8 332.9,246.6 383.5,256.9 434.1,267.2 484.7,275.8 535.3,260.3 585.9,267.2 636.5,274.1 687.1,279.2 737.6,286.1 788.2,270.6 838.8,277.5 889.4,282.7 940.0,287.8" fill="none" stroke="#2e7d32" stroke-width="2.6"/>
<circle cx="80.0" cy="208.7" r="2.6" fill="#2e7d32"/>
<circle cx="130.6" cy="219.0" r="2.6" fill="#2e7d32"/>
<circle cx="181.2" cy="213.9" r="2.6" fill="#2e7d32"/>
<circle cx="231.8" cy="227.6" r="2.6" fill="#2e7d32"/>
<circle cx="282.4" cy="232.8" r="2.6" fill="#2e7d32"/>
<circle cx="332.9" cy="246.6" r="2.6" fill="#2e7d32"/>
<circle cx="383.5" cy="256.9" r="2.6" fill="#2e7d32"/>
<circle cx="434.1" cy="267.2" r="2.6" fill="#2e7d32"/>
<circle cx="484.7" cy="275.8" r="2.6" fill="#2e7d32"/>
<circle cx="535.3" cy="260.3" r="5.5" fill="#fff" stroke="#1e88e5" stroke-width="2.4"/>
<circle cx="585.9" cy="267.2" r="2.6" fill="#2e7d32"/>
<circle cx="636.5" cy="274.1" r="2.6" fill="#2e7d32"/>
<circle cx="687.1" cy="279.2" r="2.6" fill="#2e7d32"/>
<circle cx="737.6" cy="286.1" r="2.6" fill="#2e7d32"/>
<circle cx="788.2" cy="270.6" r="5.5" fill="#fff" stroke="#1e88e5" stroke-width="2.4"/>
<circle cx="838.8" cy="277.5" r="2.6" fill="#2e7d32"/>
<circle cx="889.4" cy="282.7" r="2.6" fill="#2e7d32"/>
<circle cx="940.0" cy="287.8" r="2.6" fill="#2e7d32"/>
<text x="40" y="370" font-size="12" font-weight="600" fill="#37474f">Daily balance</text>
<line x1="80" y1="412" x2="940" y2="412" stroke="#78909c" stroke-width="1"/>
<text x="72" y="416" font-size="10" fill="#78909c" text-anchor="end">0</text>
<rect x="68.4" y="412" width="23.3" height="27.0" fill="#b08968"/>
<rect x="119.0" y="412" width="23.3" height="27.0" fill="#b08968"/>
<rect x="169.5" y="398.5" width="23.3" height="13.5" fill="#43a047"/>
<rect x="220.1" y="412" width="23.3" height="36.0" fill="#b08968"/>
<rect x="270.7" y="412" width="23.3" height="13.5" fill="#b08968"/>
<rect x="321.3" y="412" width="23.3" height="36.0" fill="#b08968"/>
<rect x="371.9" y="412" width="23.3" height="27.0" fill="#b08968"/>
<rect x="422.5" y="412" width="23.3" height="27.0" fill="#b08968"/>
<rect x="473.1" y="412" width="23.3" height="22.5" fill="#b08968"/>
<rect x="523.7" y="412" width="23.3" height="36.0" fill="#b08968"/>
<rect x="523.7" y="386.8" width="23.3" height="25.2" fill="#1e88e5"/>
<path d="M 535.3 363.8 q 6 8 0 13 q -6 -5 0 -13 z" fill="#1e88e5"/>
<rect x="574.2" y="412" width="23.3" height="18.0" fill="#b08968"/>
<rect x="624.8" y="412" width="23.3" height="18.0" fill="#b08968"/>
<rect x="675.4" y="412" width="23.3" height="13.5" fill="#b08968"/>
<rect x="726.0" y="412" width="23.3" height="18.0" fill="#b08968"/>
<rect x="776.6" y="412" width="23.3" height="36.0" fill="#b08968"/>
<rect x="776.6" y="386.8" width="23.3" height="25.2" fill="#1e88e5"/>
<path d="M 788.2 363.8 q 6 8 0 13 q -6 -5 0 -13 z" fill="#1e88e5"/>
<rect x="827.2" y="412" width="23.3" height="18.0" fill="#b08968"/>
<rect x="877.8" y="412" width="23.3" height="13.5" fill="#b08968"/>
<rect x="928.4" y="412" width="23.3" height="13.5" fill="#b08968"/>
<text x="80.0" y="468" font-size="10.5" fill="#78909c" font-weight="400" text-anchor="middle">−9</text>
<text x="130.6" y="468" font-size="10.5" fill="#78909c" font-weight="400" text-anchor="middle">−8</text>
<text x="181.2" y="468" font-size="10.5" fill="#78909c" font-weight="400" text-anchor="middle">−7</text>
<text x="231.8" y="468" font-size="10.5" fill="#78909c" font-weight="400" text-anchor="middle">−6</text>
<text x="282.4" y="468" font-size="10.5" fill="#78909c" font-weight="400" text-anchor="middle">−5</text>
<text x="332.9" y="468" font-size="10.5" fill="#78909c" font-weight="400" text-anchor="middle">−4</text>
<text x="383.5" y="468" font-size="10.5" fill="#78909c" font-weight="400" text-anchor="middle">−3</text>
<text x="434.1" y="468" font-size="10.5" fill="#78909c" font-weight="400" text-anchor="middle">−2</text>
<text x="484.7" y="468" font-size="10.5" fill="#78909c" font-weight="400" text-anchor="middle">−1</text>
<text x="535.3" y="468" font-size="10.5" fill="#37474f" font-weight="700" text-anchor="middle">Today</text>
<text x="585.9" y="468" font-size="10.5" fill="#78909c" font-weight="400" text-anchor="middle">+1</text>
<text x="636.5" y="468" font-size="10.5" fill="#78909c" font-weight="400" text-anchor="middle">+2</text>
<text x="687.1" y="468" font-size="10.5" fill="#78909c" font-weight="400" text-anchor="middle">+3</text>
<text x="737.6" y="468" font-size="10.5" fill="#78909c" font-weight="400" text-anchor="middle">+4</text>
<text x="788.2" y="468" font-size="10.5" fill="#78909c" font-weight="400" text-anchor="middle">+5</text>
<text x="838.8" y="468" font-size="10.5" fill="#78909c" font-weight="400" text-anchor="middle">+6</text>
<text x="889.4" y="468" font-size="10.5" fill="#78909c" font-weight="400" text-anchor="middle">+7</text>
<text x="940.0" y="468" font-size="10.5" fill="#78909c" font-weight="400" text-anchor="middle">+8</text>
<text x="50" y="250" font-size="22" fill="#cfd8dc">‹</text>
<text x="954" y="250" font-size="22" fill="#cfd8dc">›</text>
<text x="500" y="486" font-size="10" fill="#78909c" text-anchor="middle">← scroll to the 32 run-up days &#183; or 8 more forecast days →</text>
<line x1="40" y1="512" x2="62" y2="512" stroke="#2e7d32" stroke-width="2.6"/>
<text x="68" y="516" font-size="11" fill="#37474f">soil moisture</text>
<line x1="170" y1="512" x2="192" y2="512" stroke="#c62828" stroke-width="1.6" stroke-dasharray="5 3"/>
<text x="198" y="516" font-size="11" fill="#37474f">stress threshold</text>
<rect x="320" y="505" width="14" height="12" fill="#43a047"/>
<text x="348" y="516" font-size="11" fill="#37474f">rain / gain</text>
<rect x="430" y="505" width="14" height="12" fill="#b08968"/>
<text x="458" y="516" font-size="11" fill="#37474f">demand / loss</text>
<circle cx="568" cy="512" r="6" fill="#1e88e5"/>
<text x="588" y="516" font-size="11" fill="#37474f">watering (click a day)</text>
<rect x="40" y="534" width="920" height="0.8" fill="#cfd8dc"/>
<text x="40" y="560" font-size="11" fill="#78909c">Click any day to apply / cancel a 60-min dose (past or future). Illustrative data &#183; static page, settings reset on reload.</text>
</svg>