<svg xmlns="http://www.w3.org/2000/svg" width="1000" height="660" viewBox="0 0 1000 660" font-family="Segoe UI, Helvetica, Arial, sans-serif">
<defs><linearGradient id="sat" x1="0" y1="0" x2="0" y2="1"><stop offset="0" stop-color="#cfe8f7"/><stop offset="1" stop-color="#3f86bd"/></linearGradient></defs>
<rect width="1000" height="660" fill="#ffffff"/>
<text x="40" y="34" font-size="20" font-weight="700" fill="#37474f">Soil-Balance</text>
<text x="190" y="34" font-size="14" fill="#37474f">&#183; what-if watering</text>
<text x="40" y="54" font-size="12" fill="#78909c">Click a day to toggle a 60-min dose (+2.8 mm net) &#8212; the soil estimate responds at once.</text>
<rect x="750" y="22" width="210" height="40" rx="9" fill="#f6f8fa" stroke="#cfd8dc"/>
<text x="762" y="38" font-size="10" fill="#78909c">WATERING DURATION (UI-4)</text>
<text x="762" y="55" font-size="13" font-weight="600" fill="#37474f">60 min</text>
<text x="948" y="55" font-size="11" fill="#78909c" text-anchor="end">&#8776; 2.8 mm net</text>
<text x="40" y="84" font-size="13" font-weight="700" fill="#37474f">Before</text>
<text x="86" y="84" font-size="11.5" fill="#78909c">&#8212; Mon 22 Jun not watered: the soil keeps drying past the threshold</text>
<rect x="110" y="96" width="840.0" height="32" fill="#eaf4fb"/>
<line x1="937.0" y1="110.0" x2="940.0" y2="110.0" stroke="#f6b73c" stroke-width="1.6" stroke-linecap="round"/>
<line x1="934.4" y1="116.4" x2="936.5" y2="118.5" stroke="#f6b73c" stroke-width="1.6" stroke-linecap="round"/>
<line x1="928.0" y1="119.0" x2="928.0" y2="122.0" stroke="#f6b73c" stroke-width="1.6" stroke-linecap="round"/>
<line x1="921.6" y1="116.4" x2="919.5" y2="118.5" stroke="#f6b73c" stroke-width="1.6" stroke-linecap="round"/>
<line x1="919.0" y1="110.0" x2="916.0" y2="110.0" stroke="#f6b73c" stroke-width="1.6" stroke-linecap="round"/>
<line x1="921.6" y1="103.6" x2="919.5" y2="101.5" stroke="#f6b73c" stroke-width="1.6" stroke-linecap="round"/>
<line x1="928.0" y1="101.0" x2="928.0" y2="98.0" stroke="#f6b73c" stroke-width="1.6" stroke-linecap="round"/>
<line x1="934.4" y1="103.6" x2="936.5" y2="101.5" stroke="#f6b73c" stroke-width="1.6" stroke-linecap="round"/>
<circle cx="928" cy="110" r="7" fill="#f6b73c"/>
<rect x="110" y="128" width="840.0" height="172" fill="#e7d9bd"/>
<rect x="110" y="124" width="840.0" height="4" fill="#5fae3f"/>
<path d="M 115.0 124 l -1.4 -4 M 115.0 124 l 1.4 -5" stroke="#5fae3f" stroke-width="1" fill="none"/><path d="M 124.0 124 l -1.4 -4 M 124.0 124 l 1.4 -5" stroke="#5fae3f" stroke-width="1" fill="none"/><path d="M 133.0 124 l -1.4 -4 M 133.0 124 l 1.4 -5" stroke="#5fae3f" stroke-width="1" fill="none"/><path d="M 142.0 124 l -1.4 -4 M 142.0 124 l 1.4 -5" stroke="#5fae3f" stroke-width="1" fill="none"/><path d="M 151.0 124 l -1.4 -4 M 151.0 124 l 1.4 -5" stroke="#5fae3f" stroke-width="1" fill="none"/><path d="M 160.0 124 l -1.4 -4 M 160.0 124 l 1.4 -5" stroke="#5fae3f" stroke-width="1" fill="none"/><path d="M 169.0 124 l -1.4 -4 M 169.0 124 l 1.4 -5" stroke="#5fae3f" stroke-width="1" fill="none"/><path d="M 178.0 124 l -1.4 -4 M 178.0 124 l 1.4 -5" stroke="#5fae3f" stroke-width="1" fill="none"/><path d="M 187.0 124 l -1.4 -4 M 187.0 124 l 1.4 -5" stroke="#5fae3f" stroke-width="1" fill="none"/><path d="M 196.0 124 l -1.4 -4 M 196.0 124 l 1.4 -5" stroke="#5fae3f" stroke-width="1" fill="none"/><path d="M 205.0 124 l -1.4 -4 M 205.0 124 l 1.4 -5" stroke="#5fae3f" stroke-width="1" fill="none"/><path d="M 214.0 124 l -1.4 -4 M 214.0 124 l 1.4 -5" stroke="#5fae3f" stroke-width="1" fill="none"/><path d="M 223.0 124 l -1.4 -4 M 223.0 124 l 1.4 -5" stroke="#5fae3f" stroke-width="1" fill="none"/><path d="M 232.0 124 l -1.4 -4 M 232.0 124 l 1.4 -5" stroke="#5fae3f" stroke-width="1" fill="none"/><path d="M 241.0 124 l -1.4 -4 M 241.0 124 l 1.4 -5" stroke="#5fae3f" stroke-width="1" fill="none"/><path d="M 250.0 124 l -1.4 -4 M 250.0 124 l 1.4 -5" stroke="#5fae3f" stroke-width="1" fill="none"/><path d="M 259.0 124 l -1.4 -4 M 259.0 124 l 1.4 -5" stroke="#5fae3f" stroke-width="1" fill="none"/><path d="M 268.0 124 l -1.4 -4 M 268.0 124 l 1.4 -5" stroke="#5fae3f" stroke-width="1" fill="none"/><path d="M 277.0 124 l -1.4 -4 M 277.0 124 l 1.4 -5" stroke="#5fae3f" stroke-width="1" fill="none"/><path d="M 286.0 124 l -1.4 -4 M 286.0 124 l 1.4 -5" stroke="#5fae3f" stroke-width="1" fill="none"/><path d="M 295.0 124 l -1.4 -4 M 295.0 124 l 1.4 -5" stroke="#5fae3f" stroke-width="1" fill="none"/><path d="M 304.0 124 l -1.4 -4 M 304.0 124 l 1.4 -5" stroke="#5fae3f" stroke-width="1" fill="none"/><path d="M 313.0 124 l -1.4 -4 M 313.0 124 l 1.4 -5" stroke="#5fae3f" stroke-width="1" fill="none"/><path d="M 322.0 124 l -1.4 -4 M 322.0 124 l 1.4 -5" stroke="#5fae3f" stroke-width="1" fill="none"/><path d="M 331.0 124 l -1.4 -4 M 331.0 124 l 1.4 -5" stroke="#5fae3f" stroke-width="1" fill="none"/><path d="M 340.0 124 l -1.4 -4 M 340.0 124 l 1.4 -5" stroke="#5fae3f" stroke-width="1" fill="none"/><path d="M 349.0 124 l -1.4 -4 M 349.0 124 l 1.4 -5" stroke="#5fae3f" stroke-width="1" fill="none"/><path d="M 358.0 124 l -1.4 -4 M 358.0 124 l 1.4 -5" stroke="#5fae3f" stroke-width="1" fill="none"/><path d="M 367.0 124 l -1.4 -4 M 367.0 124 l 1.4 -5" stroke="#5fae3f" stroke-width="1" fill="none"/><path d="M 376.0 124 l -1.4 -4 M 376.0 124 l 1.4 -5" stroke="#5fae3f" stroke-width="1" fill="none"/><path d="M 385.0 124 l -1.4 -4 M 385.0 124 l 1.4 -5" stroke="#5fae3f" stroke-width="1" fill="none"/><path d="M 394.0 124 l -1.4 -4 M 394.0 124 l 1.4 -5" stroke="#5fae3f" stroke-width="1" fill="none"/><path d="M 403.0 124 l -1.4 -4 M 403.0 124 l 1.4 -5" stroke="#5fae3f" stroke-width="1" fill="none"/><path d="M 412.0 124 l -1.4 -4 M 412.0 124 l 1.4 -5" stroke="#5fae3f" stroke-width="1" fill="none"/><path d="M 421.0 124 l -1.4 -4 M 421.0 124 l 1.4 -5" stroke="#5fae3f" stroke-width="1" fill="none"/><path d="M 430.0 124 l -1.4 -4 M 430.0 124 l 1.4 -5" stroke="#5fae3f" stroke-width="1" fill="none"/><path d="M 439.0 124 l -1.4 -4 M 439.0 124 l 1.4 -5" stroke="#5fae3f" stroke-width="1" fill="none"/><path d="M 448.0 124 l -1.4 -4 M 448.0 124 l 1.4 -5" stroke="#5fae3f" stroke-width="1" fill="none"/><path d="M 457.0 124 l -1.4 -4 M 457.0 124 l 1.4 -5" stroke="#5fae3f" stroke-width="1" fill="none"/><path d="M 466.0 124 l -1.4 -4 M 466.0 124 l 1.4 -5" stroke="#5fae3f" stroke-width="1" fill="none"/><path d="M 475.0 124 l -1.4 -4 M 475.0 124 l 1.4 -5" stroke="#5fae3f" stroke-width="1" fill="none"/><path d="M 484.0 124 l -1.4 -4 M 484.0 124 l 1.4 -5" stroke="#5fae3f" stroke-width="1" fill="none"/><path d="M 493.0 124 l -1.4 -4 M 493.0 124 l 1.4 -5" stroke="#5fae3f" stroke-width="1" fill="none"/><path d="M 502.0 124 l -1.4 -4 M 502.0 124 l 1.4 -5" stroke="#5fae3f" stroke-width="1" fill="none"/><path d="M 511.0 124 l -1.4 -4 M 511.0 124 l 1.4 -5" stroke="#5fae3f" stroke-width="1" fill="none"/><path d="M 520.0 124 l -1.4 -4 M 520.0 124 l 1.4 -5" stroke="#5fae3f" stroke-width="1" fill="none"/><path d="M 529.0 124 l -1.4 -4 M 529.0 124 l 1.4 -5" stroke="#5fae3f" stroke-width="1" fill="none"/><path d="M 538.0 124 l -1.4 -4 M 538.0 124 l 1.4 -5" stroke="#5fae3f" stroke-width="1" fill="none"/><path d="M 547.0 124 l -1.4 -4 M 547.0 124 l 1.4 -5" stroke="#5fae3f" stroke-width="1" fill="none"/><path d="M 556.0 124 l -1.4 -4 M 556.0 124 l 1.4 -5" stroke="#5fae3f" stroke-width="1" fill="none"/><path d="M 565.0 124 l -1.4 -4 M 565.0 124 l 1.4 -5" stroke="#5fae3f" stroke-width="1" fill="none"/><path d="M 574.0 124 l -1.4 -4 M 574.0 124 l 1.4 -5" stroke="#5fae3f" stroke-width="1" fill="none"/><path d="M 583.0 124 l -1.4 -4 M 583.0 124 l 1.4 -5" stroke="#5fae3f" stroke-width="1" fill="none"/><path d="M 592.0 124 l -1.4 -4 M 592.0 124 l 1.4 -5" stroke="#5fae3f" stroke-width="1" fill="none"/><path d="M 601.0 124 l -1.4 -4 M 601.0 124 l 1.4 -5" stroke="#5fae3f" stroke-width="1" fill="none"/><path d="M 610.0 124 l -1.4 -4 M 610.0 124 l 1.4 -5" stroke="#5fae3f" stroke-width="1" fill="none"/><path d="M 619.0 124 l -1.4 -4 M 619.0 124 l 1.4 -5" stroke="#5fae3f" stroke-width="1" fill="none"/><path d="M 628.0 124 l -1.4 -4 M 628.0 124 l 1.4 -5" stroke="#5fae3f" stroke-width="1" fill="none"/><path d="M 637.0 124 l -1.4 -4 M 637.0 124 l 1.4 -5" stroke="#5fae3f" stroke-width="1" fill="none"/><path d="M 646.0 124 l -1.4 -4 M 646.0 124 l 1.4 -5" stroke="#5fae3f" stroke-width="1" fill="none"/><path d="M 655.0 124 l -1.4 -4 M 655.0 124 l 1.4 -5" stroke="#5fae3f" stroke-width="1" fill="none"/><path d="M 664.0 124 l -1.4 -4 M 664.0 124 l 1.4 -5" stroke="#5fae3f" stroke-width="1" fill="none"/><path d="M 673.0 124 l -1.4 -4 M 673.0 124 l 1.4 -5" stroke="#5fae3f" stroke-width="1" fill="none"/><path d="M 682.0 124 l -1.4 -4 M 682.0 124 l 1.4 -5" stroke="#5fae3f" stroke-width="1" fill="none"/><path d="M 691.0 124 l -1.4 -4 M 691.0 124 l 1.4 -5" stroke="#5fae3f" stroke-width="1" fill="none"/><path d="M 700.0 124 l -1.4 -4 M 700.0 124 l 1.4 -5" stroke="#5fae3f" stroke-width="1" fill="none"/><path d="M 709.0 124 l -1.4 -4 M 709.0 124 l 1.4 -5" stroke="#5fae3f" stroke-width="1" fill="none"/><path d="M 718.0 124 l -1.4 -4 M 718.0 124 l 1.4 -5" stroke="#5fae3f" stroke-width="1" fill="none"/><path d="M 727.0 124 l -1.4 -4 M 727.0 124 l 1.4 -5" stroke="#5fae3f" stroke-width="1" fill="none"/><path d="M 736.0 124 l -1.4 -4 M 736.0 124 l 1.4 -5" stroke="#5fae3f" stroke-width="1" fill="none"/><path d="M 745.0 124 l -1.4 -4 M 745.0 124 l 1.4 -5" stroke="#5fae3f" stroke-width="1" fill="none"/><path d="M 754.0 124 l -1.4 -4 M 754.0 124 l 1.4 -5" stroke="#5fae3f" stroke-width="1" fill="none"/><path d="M 763.0 124 l -1.4 -4 M 763.0 124 l 1.4 -5" stroke="#5fae3f" stroke-width="1" fill="none"/><path d="M 772.0 124 l -1.4 -4 M 772.0 124 l 1.4 -5" stroke="#5fae3f" stroke-width="1" fill="none"/><path d="M 781.0 124 l -1.4 -4 M 781.0 124 l 1.4 -5" stroke="#5fae3f" stroke-width="1" fill="none"/><path d="M 790.0 124 l -1.4 -4 M 790.0 124 l 1.4 -5" stroke="#5fae3f" stroke-width="1" fill="none"/><path d="M 799.0 124 l -1.4 -4 M 799.0 124 l 1.4 -5" stroke="#5fae3f" stroke-width="1" fill="none"/><path d="M 808.0 124 l -1.4 -4 M 808.0 124 l 1.4 -5" stroke="#5fae3f" stroke-width="1" fill="none"/><path d="M 817.0 124 l -1.4 -4 M 817.0 124 l 1.4 -5" stroke="#5fae3f" stroke-width="1" fill="none"/><path d="M 826.0 124 l -1.4 -4 M 826.0 124 l 1.4 -5" stroke="#5fae3f" stroke-width="1" fill="none"/><path d="M 835.0 124 l -1.4 -4 M 835.0 124 l 1.4 -5" stroke="#5fae3f" stroke-width="1" fill="none"/><path d="M 844.0 124 l -1.4 -4 M 844.0 124 l 1.4 -5" stroke="#5fae3f" stroke-width="1" fill="none"/><path d="M 853.0 124 l -1.4 -4 M 853.0 124 l 1.4 -5" stroke="#5fae3f" stroke-width="1" fill="none"/><path d="M 862.0 124 l -1.4 -4 M 862.0 124 l 1.4 -5" stroke="#5fae3f" stroke-width="1" fill="none"/><path d="M 871.0 124 l -1.4 -4 M 871.0 124 l 1.4 -5" stroke="#5fae3f" stroke-width="1" fill="none"/><path d="M 880.0 124 l -1.4 -4 M 880.0 124 l 1.4 -5" stroke="#5fae3f" stroke-width="1" fill="none"/><path d="M 889.0 124 l -1.4 -4 M 889.0 124 l 1.4 -5" stroke="#5fae3f" stroke-width="1" fill="none"/><path d="M 898.0 124 l -1.4 -4 M 898.0 124 l 1.4 -5" stroke="#5fae3f" stroke-width="1" fill="none"/><path d="M 907.0 124 l -1.4 -4 M 907.0 124 l 1.4 -5" stroke="#5fae3f" stroke-width="1" fill="none"/><path d="M 916.0 124 l -1.4 -4 M 916.0 124 l 1.4 -5" stroke="#5fae3f" stroke-width="1" fill="none"/><path d="M 925.0 124 l -1.4 -4 M 925.0 124 l 1.4 -5" stroke="#5fae3f" stroke-width="1" fill="none"/><path d="M 934.0 124 l -1.4 -4 M 934.0 124 l 1.4 -5" stroke="#5fae3f" stroke-width="1" fill="none"/><path d="M 943.0 124 l -1.4 -4 M 943.0 124 l 1.4 -5" stroke="#5fae3f" stroke-width="1" fill="none"/>
<polygon points="110,300 110.0,165.2 174.6,176.2 239.2,176.2 303.8,187.9 368.5,198.9 433.1,211.2 497.7,222.9 562.3,234.0 626.9,244.3 691.5,255.3 756.2,264.9 820.8,275.2 885.4,284.2 950.0,293.8 950,300" fill="url(#sat)" opacity="0.82"/>
<line x1="110" y1="214.0" x2="950" y2="214.0" stroke="#c62828" stroke-width="1.5" stroke-dasharray="6 4"/>
<text x="946" y="209.0" font-size="10" fill="#c62828" text-anchor="end">stress threshold (50%)</text>
<polyline points="110.0,165.2 174.6,176.2 239.2,176.2 303.8,187.9 368.5,198.9 433.1,211.2 497.7,222.9 562.3,234.0 626.9,244.3 691.5,255.3 756.2,264.9 820.8,275.2 885.4,284.2 950.0,293.8" fill="none" stroke="#1f6f9e" stroke-width="2.4"/>
<circle cx="110.0" cy="165.2" r="2.3" fill="#1f6f9e"/>
<circle cx="174.6" cy="176.2" r="2.3" fill="#1f6f9e"/>
<circle cx="239.2" cy="176.2" r="2.3" fill="#1f6f9e"/>
<circle cx="303.8" cy="187.9" r="2.3" fill="#1f6f9e"/>
<circle cx="368.5" cy="198.9" r="2.3" fill="#1f6f9e"/>
<circle cx="433.1" cy="211.2" r="2.3" fill="#1f6f9e"/>
<circle cx="497.7" cy="222.9" r="2.3" fill="#1f6f9e"/>
<circle cx="562.3" cy="234.0" r="2.3" fill="#1f6f9e"/>
<circle cx="626.9" cy="244.3" r="2.3" fill="#1f6f9e"/>
<circle cx="691.5" cy="255.3" r="2.3" fill="#1f6f9e"/>
<circle cx="756.2" cy="264.9" r="2.3" fill="#1f6f9e"/>
<circle cx="820.8" cy="275.2" r="2.3" fill="#1f6f9e"/>
<circle cx="885.4" cy="284.2" r="2.3" fill="#1f6f9e"/>
<circle cx="950.0" cy="293.8" r="2.3" fill="#1f6f9e"/>
<circle cx="562.3" cy="234.0" r="7" fill="none" stroke="#1e88e5" stroke-width="2" stroke-dasharray="3 2.5"/>
<text x="562.3" y="256.0" font-size="10.5" fill="#1e88e5" text-anchor="middle" font-weight="600">click to water</text>
<rect x="540.3" y="200.0" width="44" height="20" rx="5" fill="#90a4ae"/>
<text x="562.3" y="214.0" font-size="11.5" font-weight="700" fill="#fff" text-anchor="middle">38%</text>
<text x="110.0" y="317.0" font-size="10" fill="#78909c" font-weight="400" text-anchor="middle">Mon 15</text>
<text x="174.6" y="317.0" font-size="10" fill="#78909c" font-weight="400" text-anchor="middle">Tue 16</text>
<text x="239.2" y="317.0" font-size="10" fill="#78909c" font-weight="400" text-anchor="middle">Wed 17</text>
<text x="303.8" y="317.0" font-size="10" fill="#78909c" font-weight="400" text-anchor="middle">Thu 18</text>
<text x="368.5" y="317.0" font-size="10" fill="#37474f" font-weight="700" text-anchor="middle">Today 19</text>
<text x="433.1" y="317.0" font-size="10" fill="#78909c" font-weight="400" text-anchor="middle">Sat 20</text>
<text x="497.7" y="317.0" font-size="10" fill="#78909c" font-weight="400" text-anchor="middle">Sun 21</text>
<text x="562.3" y="317.0" font-size="10" fill="#1e88e5" font-weight="700" text-anchor="middle">Mon 22</text>
<text x="626.9" y="317.0" font-size="10" fill="#78909c" font-weight="400" text-anchor="middle">Tue 23</text>
<text x="691.5" y="317.0" font-size="10" fill="#78909c" font-weight="400" text-anchor="middle">Wed 24</text>
<text x="756.2" y="317.0" font-size="10" fill="#78909c" font-weight="400" text-anchor="middle">Thu 25</text>
<text x="820.8" y="317.0" font-size="10" fill="#78909c" font-weight="400" text-anchor="middle">Fri 26</text>
<text x="885.4" y="317.0" font-size="10" fill="#78909c" font-weight="400" text-anchor="middle">Sat 27</text>
<text x="950.0" y="317.0" font-size="10" fill="#78909c" font-weight="400" text-anchor="middle">Sun 28</text>
<line x1="562.3" y1="312" x2="562.3" y2="372" stroke="#1e88e5" stroke-width="2.2"/>
<path d="M 556.3 366 L 568.3 366 L 562.3 376 z" fill="#1e88e5"/>
<text x="576.3" y="346" font-size="12" font-weight="600" fill="#1e88e5">click Mon 22 Jun &#8594; apply 60-min dose</text>
<text x="40" y="388" font-size="13" font-weight="700" fill="#37474f">After</text>
<text x="78" y="388" font-size="11.5" fill="#78909c">&#8212; one dose lifts the estimate from that day on (baseline dashed; gain shaded)</text>
<rect x="110" y="400" width="840.0" height="32" fill="#eaf4fb"/>
<line x1="937.0" y1="414.0" x2="940.0" y2="414.0" stroke="#f6b73c" stroke-width="1.6" stroke-linecap="round"/>
<line x1="934.4" y1="420.4" x2="936.5" y2="422.5" stroke="#f6b73c" stroke-width="1.6" stroke-linecap="round"/>
<line x1="928.0" y1="423.0" x2="928.0" y2="426.0" stroke="#f6b73c" stroke-width="1.6" stroke-linecap="round"/>
<line x1="921.6" y1="420.4" x2="919.5" y2="422.5" stroke="#f6b73c" stroke-width="1.6" stroke-linecap="round"/>
<line x1="919.0" y1="414.0" x2="916.0" y2="414.0" stroke="#f6b73c" stroke-width="1.6" stroke-linecap="round"/>
<line x1="921.6" y1="407.6" x2="919.5" y2="405.5" stroke="#f6b73c" stroke-width="1.6" stroke-linecap="round"/>
<line x1="928.0" y1="405.0" x2="928.0" y2="402.0" stroke="#f6b73c" stroke-width="1.6" stroke-linecap="round"/>
<line x1="934.4" y1="407.6" x2="936.5" y2="405.5" stroke="#f6b73c" stroke-width="1.6" stroke-linecap="round"/>
<circle cx="928" cy="414" r="7" fill="#f6b73c"/>
<rect x="110" y="432" width="840.0" height="168" fill="#e7d9bd"/>
<rect x="110" y="428" width="840.0" height="4" fill="#5fae3f"/>
<path d="M 115.0 428 l -1.4 -4 M 115.0 428 l 1.4 -5" stroke="#5fae3f" stroke-width="1" fill="none"/><path d="M 124.0 428 l -1.4 -4 M 124.0 428 l 1.4 -5" stroke="#5fae3f" stroke-width="1" fill="none"/><path d="M 133.0 428 l -1.4 -4 M 133.0 428 l 1.4 -5" stroke="#5fae3f" stroke-width="1" fill="none"/><path d="M 142.0 428 l -1.4 -4 M 142.0 428 l 1.4 -5" stroke="#5fae3f" stroke-width="1" fill="none"/><path d="M 151.0 428 l -1.4 -4 M 151.0 428 l 1.4 -5" stroke="#5fae3f" stroke-width="1" fill="none"/><path d="M 160.0 428 l -1.4 -4 M 160.0 428 l 1.4 -5" stroke="#5fae3f" stroke-width="1" fill="none"/><path d="M 169.0 428 l -1.4 -4 M 169.0 428 l 1.4 -5" stroke="#5fae3f" stroke-width="1" fill="none"/><path d="M 178.0 428 l -1.4 -4 M 178.0 428 l 1.4 -5" stroke="#5fae3f" stroke-width="1" fill="none"/><path d="M 187.0 428 l -1.4 -4 M 187.0 428 l 1.4 -5" stroke="#5fae3f" stroke-width="1" fill="none"/><path d="M 196.0 428 l -1.4 -4 M 196.0 428 l 1.4 -5" stroke="#5fae3f" stroke-width="1" fill="none"/><path d="M 205.0 428 l -1.4 -4 M 205.0 428 l 1.4 -5" stroke="#5fae3f" stroke-width="1" fill="none"/><path d="M 214.0 428 l -1.4 -4 M 214.0 428 l 1.4 -5" stroke="#5fae3f" stroke-width="1" fill="none"/><path d="M 223.0 428 l -1.4 -4 M 223.0 428 l 1.4 -5" stroke="#5fae3f" stroke-width="1" fill="none"/><path d="M 232.0 428 l -1.4 -4 M 232.0 428 l 1.4 -5" stroke="#5fae3f" stroke-width="1" fill="none"/><path d="M 241.0 428 l -1.4 -4 M 241.0 428 l 1.4 -5" stroke="#5fae3f" stroke-width="1" fill="none"/><path d="M 250.0 428 l -1.4 -4 M 250.0 428 l 1.4 -5" stroke="#5fae3f" stroke-width="1" fill="none"/><path d="M 259.0 428 l -1.4 -4 M 259.0 428 l 1.4 -5" stroke="#5fae3f" stroke-width="1" fill="none"/><path d="M 268.0 428 l -1.4 -4 M 268.0 428 l 1.4 -5" stroke="#5fae3f" stroke-width="1" fill="none"/><path d="M 277.0 428 l -1.4 -4 M 277.0 428 l 1.4 -5" stroke="#5fae3f" stroke-width="1" fill="none"/><path d="M 286.0 428 l -1.4 -4 M 286.0 428 l 1.4 -5" stroke="#5fae3f" stroke-width="1" fill="none"/><path d="M 295.0 428 l -1.4 -4 M 295.0 428 l 1.4 -5" stroke="#5fae3f" stroke-width="1" fill="none"/><path d="M 304.0 428 l -1.4 -4 M 304.0 428 l 1.4 -5" stroke="#5fae3f" stroke-width="1" fill="none"/><path d="M 313.0 428 l -1.4 -4 M 313.0 428 l 1.4 -5" stroke="#5fae3f" stroke-width="1" fill="none"/><path d="M 322.0 428 l -1.4 -4 M 322.0 428 l 1.4 -5" stroke="#5fae3f" stroke-width="1" fill="none"/><path d="M 331.0 428 l -1.4 -4 M 331.0 428 l 1.4 -5" stroke="#5fae3f" stroke-width="1" fill="none"/><path d="M 340.0 428 l -1.4 -4 M 340.0 428 l 1.4 -5" stroke="#5fae3f" stroke-width="1" fill="none"/><path d="M 349.0 428 l -1.4 -4 M 349.0 428 l 1.4 -5" stroke="#5fae3f" stroke-width="1" fill="none"/><path d="M 358.0 428 l -1.4 -4 M 358.0 428 l 1.4 -5" stroke="#5fae3f" stroke-width="1" fill="none"/><path d="M 367.0 428 l -1.4 -4 M 367.0 428 l 1.4 -5" stroke="#5fae3f" stroke-width="1" fill="none"/><path d="M 376.0 428 l -1.4 -4 M 376.0 428 l 1.4 -5" stroke="#5fae3f" stroke-width="1" fill="none"/><path d="M 385.0 428 l -1.4 -4 M 385.0 428 l 1.4 -5" stroke="#5fae3f" stroke-width="1" fill="none"/><path d="M 394.0 428 l -1.4 -4 M 394.0 428 l 1.4 -5" stroke="#5fae3f" stroke-width="1" fill="none"/><path d="M 403.0 428 l -1.4 -4 M 403.0 428 l 1.4 -5" stroke="#5fae3f" stroke-width="1" fill="none"/><path d="M 412.0 428 l -1.4 -4 M 412.0 428 l 1.4 -5" stroke="#5fae3f" stroke-width="1" fill="none"/><path d="M 421.0 428 l -1.4 -4 M 421.0 428 l 1.4 -5" stroke="#5fae3f" stroke-width="1" fill="none"/><path d="M 430.0 428 l -1.4 -4 M 430.0 428 l 1.4 -5" stroke="#5fae3f" stroke-width="1" fill="none"/><path d="M 439.0 428 l -1.4 -4 M 439.0 428 l 1.4 -5" stroke="#5fae3f" stroke-width="1" fill="none"/><path d="M 448.0 428 l -1.4 -4 M 448.0 428 l 1.4 -5" stroke="#5fae3f" stroke-width="1" fill="none"/><path d="M 457.0 428 l -1.4 -4 M 457.0 428 l 1.4 -5" stroke="#5fae3f" stroke-width="1" fill="none"/><path d="M 466.0 428 l -1.4 -4 M 466.0 428 l 1.4 -5" stroke="#5fae3f" stroke-width="1" fill="none"/><path d="M 475.0 428 l -1.4 -4 M 475.0 428 l 1.4 -5" stroke="#5fae3f" stroke-width="1" fill="none"/><path d="M 484.0 428 l -1.4 -4 M 484.0 428 l 1.4 -5" stroke="#5fae3f" stroke-width="1" fill="none"/><path d="M 493.0 428 l -1.4 -4 M 493.0 428 l 1.4 -5" stroke="#5fae3f" stroke-width="1" fill="none"/><path d="M 502.0 428 l -1.4 -4 M 502.0 428 l 1.4 -5" stroke="#5fae3f" stroke-width="1" fill="none"/><path d="M 511.0 428 l -1.4 -4 M 511.0 428 l 1.4 -5" stroke="#5fae3f" stroke-width="1" fill="none"/><path d="M 520.0 428 l -1.4 -4 M 520.0 428 l 1.4 -5" stroke="#5fae3f" stroke-width="1" fill="none"/><path d="M 529.0 428 l -1.4 -4 M 529.0 428 l 1.4 -5" stroke="#5fae3f" stroke-width="1" fill="none"/><path d="M 538.0 428 l -1.4 -4 M 538.0 428 l 1.4 -5" stroke="#5fae3f" stroke-width="1" fill="none"/><path d="M 547.0 428 l -1.4 -4 M 547.0 428 l 1.4 -5" stroke="#5fae3f" stroke-width="1" fill="none"/><path d="M 556.0 428 l -1.4 -4 M 556.0 428 l 1.4 -5" stroke="#5fae3f" stroke-width="1" fill="none"/><path d="M 565.0 428 l -1.4 -4 M 565.0 428 l 1.4 -5" stroke="#5fae3f" stroke-width="1" fill="none"/><path d="M 574.0 428 l -1.4 -4 M 574.0 428 l 1.4 -5" stroke="#5fae3f" stroke-width="1" fill="none"/><path d="M 583.0 428 l -1.4 -4 M 583.0 428 l 1.4 -5" stroke="#5fae3f" stroke-width="1" fill="none"/><path d="M 592.0 428 l -1.4 -4 M 592.0 428 l 1.4 -5" stroke="#5fae3f" stroke-width="1" fill="none"/><path d="M 601.0 428 l -1.4 -4 M 601.0 428 l 1.4 -5" stroke="#5fae3f" stroke-width="1" fill="none"/><path d="M 610.0 428 l -1.4 -4 M 610.0 428 l 1.4 -5" stroke="#5fae3f" stroke-width="1" fill="none"/><path d="M 619.0 428 l -1.4 -4 M 619.0 428 l 1.4 -5" stroke="#5fae3f" stroke-width="1" fill="none"/><path d="M 628.0 428 l -1.4 -4 M 628.0 428 l 1.4 -5" stroke="#5fae3f" stroke-width="1" fill="none"/><path d="M 637.0 428 l -1.4 -4 M 637.0 428 l 1.4 -5" stroke="#5fae3f" stroke-width="1" fill="none"/><path d="M 646.0 428 l -1.4 -4 M 646.0 428 l 1.4 -5" stroke="#5fae3f" stroke-width="1" fill="none"/><path d="M 655.0 428 l -1.4 -4 M 655.0 428 l 1.4 -5" stroke="#5fae3f" stroke-width="1" fill="none"/><path d="M 664.0 428 l -1.4 -4 M 664.0 428 l 1.4 -5" stroke="#5fae3f" stroke-width="1" fill="none"/><path d="M 673.0 428 l -1.4 -4 M 673.0 428 l 1.4 -5" stroke="#5fae3f" stroke-width="1" fill="none"/><path d="M 682.0 428 l -1.4 -4 M 682.0 428 l 1.4 -5" stroke="#5fae3f" stroke-width="1" fill="none"/><path d="M 691.0 428 l -1.4 -4 M 691.0 428 l 1.4 -5" stroke="#5fae3f" stroke-width="1" fill="none"/><path d="M 700.0 428 l -1.4 -4 M 700.0 428 l 1.4 -5" stroke="#5fae3f" stroke-width="1" fill="none"/><path d="M 709.0 428 l -1.4 -4 M 709.0 428 l 1.4 -5" stroke="#5fae3f" stroke-width="1" fill="none"/><path d="M 718.0 428 l -1.4 -4 M 718.0 428 l 1.4 -5" stroke="#5fae3f" stroke-width="1" fill="none"/><path d="M 727.0 428 l -1.4 -4 M 727.0 428 l 1.4 -5" stroke="#5fae3f" stroke-width="1" fill="none"/><path d="M 736.0 428 l -1.4 -4 M 736.0 428 l 1.4 -5" stroke="#5fae3f" stroke-width="1" fill="none"/><path d="M 745.0 428 l -1.4 -4 M 745.0 428 l 1.4 -5" stroke="#5fae3f" stroke-width="1" fill="none"/><path d="M 754.0 428 l -1.4 -4 M 754.0 428 l 1.4 -5" stroke="#5fae3f" stroke-width="1" fill="none"/><path d="M 763.0 428 l -1.4 -4 M 763.0 428 l 1.4 -5" stroke="#5fae3f" stroke-width="1" fill="none"/><path d="M 772.0 428 l -1.4 -4 M 772.0 428 l 1.4 -5" stroke="#5fae3f" stroke-width="1" fill="none"/><path d="M 781.0 428 l -1.4 -4 M 781.0 428 l 1.4 -5" stroke="#5fae3f" stroke-width="1" fill="none"/><path d="M 790.0 428 l -1.4 -4 M 790.0 428 l 1.4 -5" stroke="#5fae3f" stroke-width="1" fill="none"/><path d="M 799.0 428 l -1.4 -4 M 799.0 428 l 1.4 -5" stroke="#5fae3f" stroke-width="1" fill="none"/><path d="M 808.0 428 l -1.4 -4 M 808.0 428 l 1.4 -5" stroke="#5fae3f" stroke-width="1" fill="none"/><path d="M 817.0 428 l -1.4 -4 M 817.0 428 l 1.4 -5" stroke="#5fae3f" stroke-width="1" fill="none"/><path d="M 826.0 428 l -1.4 -4 M 826.0 428 l 1.4 -5" stroke="#5fae3f" stroke-width="1" fill="none"/><path d="M 835.0 428 l -1.4 -4 M 835.0 428 l 1.4 -5" stroke="#5fae3f" stroke-width="1" fill="none"/><path d="M 844.0 428 l -1.4 -4 M 844.0 428 l 1.4 -5" stroke="#5fae3f" stroke-width="1" fill="none"/><path d="M 853.0 428 l -1.4 -4 M 853.0 428 l 1.4 -5" stroke="#5fae3f" stroke-width="1" fill="none"/><path d="M 862.0 428 l -1.4 -4 M 862.0 428 l 1.4 -5" stroke="#5fae3f" stroke-width="1" fill="none"/><path d="M 871.0 428 l -1.4 -4 M 871.0 428 l 1.4 -5" stroke="#5fae3f" stroke-width="1" fill="none"/><path d="M 880.0 428 l -1.4 -4 M 880.0 428 l 1.4 -5" stroke="#5fae3f" stroke-width="1" fill="none"/><path d="M 889.0 428 l -1.4 -4 M 889.0 428 l 1.4 -5" stroke="#5fae3f" stroke-width="1" fill="none"/><path d="M 898.0 428 l -1.4 -4 M 898.0 428 l 1.4 -5" stroke="#5fae3f" stroke-width="1" fill="none"/><path d="M 907.0 428 l -1.4 -4 M 907.0 428 l 1.4 -5" stroke="#5fae3f" stroke-width="1" fill="none"/><path d="M 916.0 428 l -1.4 -4 M 916.0 428 l 1.4 -5" stroke="#5fae3f" stroke-width="1" fill="none"/><path d="M 925.0 428 l -1.4 -4 M 925.0 428 l 1.4 -5" stroke="#5fae3f" stroke-width="1" fill="none"/><path d="M 934.0 428 l -1.4 -4 M 934.0 428 l 1.4 -5" stroke="#5fae3f" stroke-width="1" fill="none"/><path d="M 943.0 428 l -1.4 -4 M 943.0 428 l 1.4 -5" stroke="#5fae3f" stroke-width="1" fill="none"/>
<polygon points="110,600 110.0,468.3 174.6,479.0 239.2,479.0 303.8,490.5 368.5,501.2 433.1,513.3 497.7,524.7 562.3,516.7 626.9,526.8 691.5,537.5 756.2,546.9 820.8,557.0 885.4,565.7 950.0,575.1 950,600" fill="url(#sat)" opacity="0.82"/>
<polygon points="562.3,516.7 626.9,526.8 691.5,537.5 756.2,546.9 820.8,557.0 885.4,565.7 950.0,575.1 950.0,594.0 885.4,584.5 820.8,575.8 756.2,565.7 691.5,556.3 626.9,545.6 562.3,535.5" fill="#9ad0f0" opacity="0.55"/>
<polyline points="110.0,468.3 174.6,479.0 239.2,479.0 303.8,490.5 368.5,501.2 433.1,513.3 497.7,524.7 562.3,535.5 626.9,545.6 691.5,556.3 756.2,565.7 820.8,575.8 885.4,584.5 950.0,594.0" fill="none" stroke="#90a4ae" stroke-width="1.6" stroke-dasharray="4 4" opacity="0.85"/>
<line x1="110" y1="516.0" x2="950" y2="516.0" stroke="#c62828" stroke-width="1.5" stroke-dasharray="6 4"/>
<text x="946" y="511.0" font-size="10" fill="#c62828" text-anchor="end">stress threshold (50%)</text>
<polyline points="110.0,468.3 174.6,479.0 239.2,479.0 303.8,490.5 368.5,501.2 433.1,513.3 497.7,524.7 562.3,516.7 626.9,526.8 691.5,537.5 756.2,546.9 820.8,557.0 885.4,565.7 950.0,575.1" fill="none" stroke="#1f6f9e" stroke-width="2.4"/>
<circle cx="110.0" cy="468.3" r="2.3" fill="#1f6f9e"/>
<circle cx="174.6" cy="479.0" r="2.3" fill="#1f6f9e"/>
<circle cx="239.2" cy="479.0" r="2.3" fill="#1f6f9e"/>
<circle cx="303.8" cy="490.5" r="2.3" fill="#1f6f9e"/>
<circle cx="368.5" cy="501.2" r="2.3" fill="#1f6f9e"/>
<circle cx="433.1" cy="513.3" r="2.3" fill="#1f6f9e"/>
<circle cx="497.7" cy="524.7" r="2.3" fill="#1f6f9e"/>
<circle cx="562.3" cy="516.7" r="2.3" fill="#1f6f9e"/>
<circle cx="626.9" cy="526.8" r="2.3" fill="#1f6f9e"/>
<circle cx="691.5" cy="537.5" r="2.3" fill="#1f6f9e"/>
<circle cx="756.2" cy="546.9" r="2.3" fill="#1f6f9e"/>
<circle cx="820.8" cy="557.0" r="2.3" fill="#1f6f9e"/>
<circle cx="885.4" cy="565.7" r="2.3" fill="#1f6f9e"/>
<circle cx="950.0" cy="575.1" r="2.3" fill="#1f6f9e"/>
<path d="M 556.3 416.0 q 4 5.5 0 9 q -4 -3.5 0 -9 z" fill="#1e88e5"/>
<path d="M 562.3 416.0 q 4 5.5 0 9 q -4 -3.5 0 -9 z" fill="#1e88e5"/>
<path d="M 568.3 416.0 q 4 5.5 0 9 q -4 -3.5 0 -9 z" fill="#1e88e5"/>
<circle cx="562.3" cy="516.7" r="6" fill="#fff" stroke="#1e88e5" stroke-width="2.6"/>
<rect x="540.3" y="482.7" width="44" height="20" rx="5" fill="#1f6f9e"/>
<text x="562.3" y="496.7" font-size="11.5" font-weight="700" fill="#fff" text-anchor="middle">50%</text>
<text x="110.0" y="617.0" font-size="10" fill="#78909c" font-weight="400" text-anchor="middle">Mon 15</text>
<text x="174.6" y="617.0" font-size="10" fill="#78909c" font-weight="400" text-anchor="middle">Tue 16</text>
<text x="239.2" y="617.0" font-size="10" fill="#78909c" font-weight="400" text-anchor="middle">Wed 17</text>
<text x="303.8" y="617.0" font-size="10" fill="#78909c" font-weight="400" text-anchor="middle">Thu 18</text>
<text x="368.5" y="617.0" font-size="10" fill="#37474f" font-weight="700" text-anchor="middle">Today 19</text>
<text x="433.1" y="617.0" font-size="10" fill="#78909c" font-weight="400" text-anchor="middle">Sat 20</text>
<text x="497.7" y="617.0" font-size="10" fill="#78909c" font-weight="400" text-anchor="middle">Sun 21</text>
<text x="562.3" y="617.0" font-size="10" fill="#1e88e5" font-weight="700" text-anchor="middle">Mon 22</text>
<text x="626.9" y="617.0" font-size="10" fill="#78909c" font-weight="400" text-anchor="middle">Tue 23</text>
<text x="691.5" y="617.0" font-size="10" fill="#78909c" font-weight="400" text-anchor="middle">Wed 24</text>
<text x="756.2" y="617.0" font-size="10" fill="#78909c" font-weight="400" text-anchor="middle">Thu 25</text>
<text x="820.8" y="617.0" font-size="10" fill="#78909c" font-weight="400" text-anchor="middle">Fri 26</text>
<text x="885.4" y="617.0" font-size="10" fill="#78909c" font-weight="400" text-anchor="middle">Sat 27</text>
<text x="950.0" y="617.0" font-size="10" fill="#78909c" font-weight="400" text-anchor="middle">Sun 28</text>
<text x="944.0" y="584.5" font-size="10.5" font-weight="600" fill="#1f6f9e" text-anchor="end">gain from watering</text>
<rect x="40" y="616" width="920" height="0.8" fill="#cfd8dc"/>
<circle cx="48" cy="634" r="6" fill="#fff" stroke="#1e88e5" stroke-width="2.4"/>
<text x="60" y="638" font-size="11" fill="#37474f">watered day (click again to cancel &#8212; UI-2)</text>
<line x1="320" y1="634" x2="346" y2="634" stroke="#90a4ae" stroke-width="1.6" stroke-dasharray="4 4"/>
<text x="352" y="638" font-size="11" fill="#37474f">baseline (un-watered)</text>
<rect x="520" y="628" width="15" height="12" fill="#9ad0f0" opacity="0.7"/>
<text x="542" y="638" font-size="11" fill="#37474f">gain from the dose</text>
<line x1="690" y1="634" x2="716" y2="634" stroke="#c62828" stroke-width="1.6" stroke-dasharray="5 3"/>
<text x="722" y="638" font-size="11" fill="#37474f">stress threshold</text>
</svg>