<?xml version="1.0" encoding="UTF-8"?>
<!-- Generator: visioncortex VTracer 0.6.12 -->
<svg version="1.1" xmlns="http://www.w3.org/2000/svg" width="1024" height="1024" viewBox="0 0 1024 1024">
<path d="M0 0 C337.92 0 675.84 0 1024 0 C1024 337.92 1024 675.84 1024 1024 C686.08 1024 348.16 1024 0 1024 C0 686.08 0 348.16 0 0 Z " fill="#FEFEFE" transform="translate(0,0)"/>
<path d="M0 0 C1.1 -0 2.21 -0.01 3.34 -0.01 C3.94 -0.01 3.94 -0.01 6.98 -0.02 C8.23 -0.01 9.48 0 10.78 0.01 C12.03 0 13.29 -0.01 14.59 -0.02 C15.18 -0.02 15.18 -0.02 18.22 -0.01 C19.32 -0.01 20.42 -0 21.55 0 C22.43 0.13 23.31 0.26 24.21 0.39 C24.54 0.88 24.54 0.88 26.21 3.39 C28.49 3.76 28.49 3.76 31.36 3.76 C32.44 3.76 33.51 3.77 34.62 3.78 C35.79 3.77 36.95 3.77 38.16 3.76 C40.62 3.78 43.09 3.79 45.55 3.81 C49.44 3.82 53.33 3.83 57.22 3.82 C60.97 3.83 64.72 3.85 68.47 3.88 C69.63 3.88 70.78 3.87 71.97 3.86 C79.71 3.93 85.24 4.9 91.24 10.17 C91.68 10.74 92.13 11.3 92.59 11.89 C92.82 12.17 92.82 12.17 93.99 13.61 C97.13 18.17 97.53 21.95 97.55 27.44 C97.55 27.83 97.55 27.83 97.57 29.8 C97.58 31.45 97.58 33.1 97.58 34.74 C97.59 37.25 97.62 39.75 97.66 42.26 C97.67 43.86 97.67 45.47 97.67 47.07 C97.69 47.81 97.7 48.56 97.72 49.32 C97.66 55.47 95.64 59.11 91.21 63.26 C89.21 64.39 89.21 64.39 85.21 64.39 C85.21 65.52 85.22 66.65 85.22 67.82 C85.24 78.49 85.25 89.16 85.26 99.83 C85.27 105.31 85.28 110.8 85.29 116.28 C85.3 121.57 85.3 126.86 85.31 132.15 C85.31 134.18 85.31 136.2 85.32 138.22 C85.33 141.04 85.33 143.87 85.33 146.69 C85.33 147.53 85.33 148.37 85.34 149.24 C85.33 152.55 85.27 155.23 84.21 158.39 C84.54 158.72 84.87 159.05 85.21 159.39 C85.31 161.43 85.33 163.47 85.33 165.51 C85.33 165.83 85.33 165.83 85.34 167.46 C85.34 169.64 85.33 171.83 85.33 174.01 C85.33 175.56 85.33 177.12 85.33 178.68 C85.33 182.92 85.32 187.15 85.31 191.39 C85.31 195.82 85.31 200.25 85.31 204.67 C85.3 213.06 85.29 221.44 85.28 229.83 C85.27 239.38 85.27 248.92 85.26 258.47 C85.25 278.11 85.23 297.75 85.21 317.39 C86 317.52 86.78 317.65 87.58 317.79 C91.51 318.68 93.24 320.68 95.21 324.15 C96.58 326.87 97.88 329.6 99.07 332.4 C103.04 341.24 110.41 346.76 118.01 352.43 C123.77 357.56 123.93 363 124.4 370.33 C124.48 371.48 124.55 372.64 124.63 373.83 C125.33 386.57 125.59 399.32 125.73 412.07 C125.76 414.53 125.8 416.99 125.86 419.45 C125.93 422.96 125.95 426.46 125.97 429.97 C126 431.04 126.03 432.1 126.06 433.19 C126.01 440.34 126.01 440.34 123.67 443.39 C118.96 447.52 115.88 448.51 109.59 448.45 C108.4 448.44 107.21 448.43 105.99 448.42 C105.07 448.41 104.16 448.4 103.21 448.39 C103.22 449.14 103.23 449.89 103.25 450.67 C103.35 457.78 103.42 464.88 103.47 471.99 C103.5 475.64 103.53 479.3 103.59 482.95 C103.64 486.48 103.67 490 103.69 493.53 C103.7 495.53 103.74 497.52 103.78 499.52 C103.78 500.74 103.78 501.96 103.78 503.22 C103.79 504.29 103.8 505.37 103.81 506.47 C102.99 510.49 101.38 511.83 98.21 514.39 C94.86 515.02 94.86 515.02 90.96 515.03 C90.24 515.04 89.52 515.05 88.78 515.06 C86.38 515.08 83.97 515.06 81.57 515.05 C79.84 515.06 78.11 515.07 76.39 515.08 C71.7 515.11 67.02 515.1 62.33 515.09 C58.42 515.09 54.51 515.09 50.6 515.1 C41.37 515.12 32.14 515.12 22.91 515.09 C13.39 515.07 3.87 515.09 -5.65 515.13 C-13.82 515.16 -22 515.17 -30.17 515.16 C-35.05 515.15 -39.93 515.15 -44.82 515.18 C-49.41 515.2 -54 515.19 -58.59 515.16 C-60.27 515.15 -61.96 515.16 -63.64 515.17 C-65.94 515.19 -68.24 515.17 -70.54 515.14 C-71.82 515.14 -73.11 515.14 -74.44 515.14 C-79.13 514.09 -80.16 512.35 -82.79 508.39 C-83.39 505.39 -83.39 505.39 -83.35 502.2 C-83.35 501 -83.35 499.8 -83.35 498.56 C-83.33 497.28 -83.3 496 -83.28 494.68 C-83.27 493.34 -83.26 492 -83.25 490.67 C-83.24 487.17 -83.19 483.66 -83.13 480.16 C-83.08 476.58 -83.06 473 -83.03 469.42 C-82.98 462.41 -82.89 455.4 -82.79 448.39 C-83.68 448.41 -84.58 448.43 -85.5 448.45 C-86.68 448.47 -87.85 448.48 -89.06 448.5 C-90.23 448.52 -91.39 448.54 -92.59 448.56 C-97.81 448.28 -99.99 446.43 -103.41 442.54 C-105.03 440.01 -105.17 438.63 -105.18 435.65 C-105.18 434.71 -105.19 433.77 -105.2 432.8 C-105.2 431.78 -105.19 430.76 -105.19 429.71 C-105.19 428.65 -105.19 427.58 -105.2 426.48 C-105.21 423.01 -105.19 419.54 -105.16 416.08 C-105.16 414.9 -105.15 413.73 -105.15 412.52 C-105.08 398.37 -104.9 384.24 -103.72 370.14 C-103.64 368.93 -103.56 367.72 -103.47 366.48 C-102.39 355.93 -97.38 351.07 -89.16 344.83 C-82.95 339.85 -79.58 335.68 -76.79 328.26 C-75.17 323.99 -73.52 321.21 -69.79 318.39 C-68.13 318 -66.47 317.66 -64.79 317.39 C-64.79 316.58 -64.79 315.78 -64.79 314.95 C-64.81 295.36 -64.83 275.77 -64.84 256.18 C-64.84 246.71 -64.85 237.24 -64.86 227.77 C-64.87 219.51 -64.88 211.26 -64.88 203 C-64.88 198.63 -64.89 194.26 -64.89 189.89 C-64.9 185.77 -64.9 181.66 -64.9 177.55 C-64.9 176.03 -64.9 174.52 -64.91 173.01 C-64.91 170.95 -64.91 168.89 -64.91 166.83 C-64.91 165.68 -64.91 164.52 -64.91 163.33 C-64.81 160.82 -64.41 158.8 -63.79 156.39 C-64.12 156.06 -64.45 155.73 -64.79 155.39 C-64.88 152.56 -64.91 149.75 -64.9 146.92 C-64.9 146.03 -64.9 145.15 -64.9 144.23 C-64.9 141.28 -64.89 138.33 -64.89 135.38 C-64.88 133.35 -64.88 131.31 -64.88 129.27 C-64.88 123.89 -64.87 118.51 -64.86 113.14 C-64.85 107.65 -64.84 102.17 -64.84 96.69 C-64.83 85.92 -64.81 75.15 -64.79 64.39 C-65.72 64.27 -66.65 64.16 -67.61 64.04 C-71.17 63.31 -72.68 62.16 -74.84 59.25 C-76.63 55.74 -76.52 52.21 -76.49 48.33 C-76.49 47.47 -76.5 46.61 -76.51 45.73 C-76.52 43.91 -76.51 42.1 -76.49 40.29 C-76.47 37.53 -76.51 34.77 -76.56 32.02 C-76.56 30.25 -76.56 28.48 -76.55 26.71 C-76.56 25.89 -76.58 25.08 -76.6 24.24 C-76.47 17.82 -74.21 13.98 -69.79 9.39 C-65.29 5.64 -61.26 4.27 -55.45 4.23 C-54.35 4.22 -53.26 4.21 -52.14 4.2 C-51.55 4.2 -51.55 4.2 -48.57 4.18 C-46.09 4.15 -43.6 4.12 -41.12 4.09 C-37.2 4.05 -33.27 4.01 -29.35 3.99 C-25.57 3.96 -21.79 3.91 -18.01 3.86 C-16.83 3.86 -15.65 3.86 -14.44 3.85 C-13.89 3.85 -13.89 3.85 -11.13 3.8 C-10.17 3.8 -9.21 3.79 -8.22 3.78 C-4.5 3.18 -3.74 0.52 0 0 Z " fill="#232F36" transform="translate(501.787353515625,255.61181640625)"/>
<path d="M0 0 C1.06 -0 2.12 -0.01 3.21 -0.01 C3.8 -0.01 3.8 -0.01 6.77 -0 C7.99 -0 9.22 -0.01 10.49 -0.01 C13.86 -0.01 17.24 -0.01 20.61 -0.01 C24.14 -0 27.67 -0.01 31.19 -0.01 C37.11 -0.01 43.03 -0.01 48.96 -0 C55.81 0 62.67 0 69.52 -0.01 C75.4 -0.01 81.28 -0.01 87.15 -0.01 C90.67 -0.01 94.18 -0.01 97.69 -0.01 C101.61 -0.01 105.52 -0.01 109.44 -0 C110.61 -0 111.79 -0.01 112.99 -0.01 C113.52 -0.01 113.52 -0.01 116.21 0 C117.13 0 118.06 0 119.01 0 C121.1 0.13 121.1 0.13 122.1 1.13 C122.2 3.13 122.22 5.13 122.22 7.13 C122.22 7.78 122.22 7.78 122.23 11.09 C122.22 12.55 122.22 14.01 122.22 15.47 C122.22 17 122.22 18.52 122.22 20.05 C122.22 24.21 122.21 28.37 122.2 32.53 C122.2 36.87 122.2 41.21 122.2 45.55 C122.19 53.78 122.19 62.01 122.18 70.23 C122.16 79.6 122.16 88.96 122.15 98.32 C122.14 117.59 122.13 136.86 122.1 156.13 C105.56 156.15 89.02 156.17 72.48 156.18 C64.8 156.18 57.12 156.19 49.44 156.2 C42.75 156.21 36.06 156.22 29.36 156.22 C25.82 156.22 22.27 156.23 18.73 156.23 C14.78 156.24 10.83 156.24 6.87 156.24 C5.69 156.24 4.51 156.25 3.29 156.25 C2.22 156.25 1.15 156.25 0.04 156.25 C-0.42 156.25 -0.42 156.25 -2.79 156.25 C-4.9 156.13 -4.9 156.13 -5.9 155.13 C-6 153.14 -6.02 151.15 -6.02 149.17 C-6.03 147.87 -6.03 146.58 -6.03 145.24 C-6.03 143.79 -6.03 142.34 -6.03 140.89 C-6.03 139.38 -6.03 137.86 -6.03 136.35 C-6.04 132.22 -6.03 128.09 -6.03 123.96 C-6.03 119.65 -6.03 115.34 -6.03 111.03 C-6.03 103.79 -6.03 96.55 -6.03 89.31 C-6.02 80.93 -6.02 72.55 -6.03 64.16 C-6.03 56.98 -6.03 49.8 -6.03 42.61 C-6.03 38.32 -6.03 34.02 -6.03 29.72 C-6.04 25.68 -6.03 21.65 -6.03 17.61 C-6.03 16.12 -6.03 14.63 -6.03 13.15 C-6.03 11.13 -6.03 9.11 -6.02 7.09 C-6.02 5.95 -6.02 4.82 -6.02 3.65 C-5.8 -0.76 -3.93 0 0 0 Z " fill="#C9D2D4" transform="translate(453.89697265625,417.8730163574219)"/>
<path d="M0 0 C1.07 -0 2.14 -0 3.24 -0 C4.43 -0 5.61 0 6.83 0.01 C7.45 0.01 7.45 0.01 10.58 0.01 C13.99 0.01 17.4 0.01 20.8 0.02 C24.36 0.03 27.92 0.03 31.48 0.03 C38.21 0.03 44.95 0.04 51.69 0.05 C60.8 0.06 69.9 0.07 79.01 0.07 C93.36 0.08 107.71 0.1 122.06 0.12 C122.06 29.16 122.06 58.2 122.06 88.12 C79.82 88.12 37.58 88.12 -5.94 88.12 C-5.96 73.79 -5.98 59.45 -6 44.68 C-6.01 40.15 -6.02 35.62 -6.03 30.95 C-6.04 25.43 -6.04 25.43 -6.04 22.85 C-6.04 21.04 -6.04 19.23 -6.05 17.42 C-6.05 14.69 -6.06 11.95 -6.06 9.22 C-6.06 8.41 -6.06 7.6 -6.07 6.76 C-6.05 -0.01 -6.05 -0.01 0 0 Z " fill="#C5CFD4" transform="translate(453.94166564941406,319.87974548339844)"/>
<path d="M0 0 C42.9 0 85.8 0 130 0 C130 18.48 130 36.96 130 56 C87.1 56 44.2 56 0 56 C0 37.52 0 19.04 0 0 Z " fill="#576063" transform="translate(431,703)"/>
<path d="M0 0 C34.32 0 68.64 0 104 0 C104 0.33 104 0.66 104 1 C82.22 1 60.44 1 38 1 C38 50.83 38 100.66 38 152 C49.06 152.16 49.06 152.16 105 153 C105 153.33 105 153.66 105 154 C70.35 154 35.7 154 0 154 C0 103.18 0 52.36 0 0 Z " fill="#F1F7FB" transform="translate(448,419)"/>
<path d="M0 0 C0.56 -0.01 0.56 -0.01 3.37 -0.04 C4.57 -0.04 5.77 -0.03 7 -0.03 C7.62 -0.03 7.62 -0.03 10.74 -0.05 C14.01 -0.05 17.28 -0.05 20.56 -0.04 C22.56 -0.03 24.57 -0.05 26.58 -0.06 C30.43 -0.09 34.28 -0.1 38.13 -0.09 C39.33 -0.1 40.53 -0.11 41.77 -0.13 C42.32 -0.12 42.32 -0.12 45.13 -0.1 C46.11 -0.1 47.09 -0.1 48.1 -0.1 C50.57 0.4 50.57 0.4 52.38 2.17 C53.64 4.55 53.95 5.9 53.97 8.57 C53.98 9.38 54 10.19 54.01 11.03 C54.01 11.9 54 12.77 54 13.67 C54.01 14.57 54.01 15.48 54.02 16.41 C54.02 18.32 54.02 20.24 54.01 22.16 C54 25.06 54.03 27.97 54.06 30.88 C54.07 32.75 54.07 34.61 54.06 36.48 C54.07 36.91 54.07 36.91 54.1 39.08 C53.99 48.46 50.02 56.64 43.57 63.4 C34.41 70.49 25.39 71.64 14 70.04 C5.54 67.81 -1.23 61.02 -5.5 53.59 C-7.61 49.46 -8.55 45.78 -8.59 41.14 C-8.6 40.31 -8.61 39.48 -8.62 38.62 C-8.63 37.74 -8.63 36.85 -8.64 35.93 C-8.64 35.01 -8.65 34.09 -8.65 33.15 C-8.66 31.2 -8.67 29.26 -8.67 27.32 C-8.68 24.35 -8.71 21.38 -8.75 18.4 C-8.75 16.52 -8.76 14.63 -8.76 12.74 C-8.77 11.85 -8.79 10.96 -8.8 10.04 C-8.8 9.22 -8.79 8.39 -8.79 7.54 C-8.79 7.17 -8.79 7.17 -8.8 5.33 C-7.85 0.36 -4.5 0.02 0 0 Z " fill="#1E73A9" transform="translate(489.43359375,328.595947265625)"/>
<path d="M0 0 C16.41 -0.02 32.82 -0.04 49.23 -0.05 C56.85 -0.06 64.47 -0.06 72.09 -0.08 C78.73 -0.09 85.37 -0.09 92.01 -0.09 C95.53 -0.1 99.04 -0.1 102.56 -0.11 C106.48 -0.11 110.4 -0.11 114.32 -0.11 C115.49 -0.12 116.67 -0.12 117.88 -0.12 C118.41 -0.12 118.41 -0.12 121.1 -0.12 C122.02 -0.12 122.95 -0.12 123.91 -0.12 C126 0 126 0 127 1 C127.1 3 127.12 5 127.12 7 C127.12 7.66 127.12 7.66 127.12 10.96 C127.12 12.42 127.12 13.88 127.11 15.34 C127.11 16.87 127.11 18.4 127.11 19.92 C127.11 24.08 127.11 28.24 127.1 32.4 C127.1 36.74 127.09 41.08 127.09 45.43 C127.09 53.65 127.08 61.88 127.07 70.11 C127.06 81.22 127.05 92.33 127.05 103.45 C127.04 120.96 127.02 138.48 127 156 C85.09 156 43.18 156 0 156 C0 155.67 0 155.34 0 155 C34.32 155 68.64 155 104 155 C103.67 104.18 103.34 53.36 103 1 C69.01 1 35.02 1 0 1 C0 0.67 0 0.34 0 0 Z " fill="#A1A7AB" transform="translate(449,418)"/>
<path d="M0 0 C0.33 0.17 0.33 0.17 2 1 C7.28 1 12.56 1 18 1 C18 51.16 18 101.32 18 153 C11 154 11 154 0 154 C0 103.18 0 52.36 0 0 Z " fill="#C8D0D4" transform="translate(448,419)"/>
<path d="M0 0 C2.88 1 2.88 1 5 2 C5 2.99 5 3.98 5 5 C8.49 5.87 10.57 5.91 14 5 C16.33 4.96 18.67 4.96 21 5 C22.63 9.79 23.21 13.06 22 18 C23.88 17.75 23.88 17.75 26 17 C26.15 16.68 26.15 16.68 26.94 15.06 C28.39 12.25 30.07 11.93 33 11 C33 9.35 33 7.7 33 6 C35.64 6 38.28 6 41 6 C40.91 6.3 40.91 6.3 40.44 7.81 C40 10 40 10 41 13 C42.65 12.34 44.3 11.68 46 11 C46 9.35 46 7.7 46 6 C48.31 6 50.62 6 53 6 C53 7.65 53 9.3 53 11 C54.65 11.33 56.3 11.66 58 12 C58.66 10.35 59.32 8.7 60 7 C59.01 6.67 58.02 6.34 57 6 C59.52 4.74 60.85 5.08 63.62 5.44 C64.44 5.54 65.26 5.64 66.1 5.75 C66.73 5.83 67.35 5.91 68 6 C67.01 7.65 66.02 9.3 65 11 C67.31 11.33 69.62 11.66 72 12 C72 16.62 72 21.24 72 26 C67.77 26 64.95 25.79 61 25 C60.67 25.33 60.34 25.66 60 26 C57.55 26.09 55.13 26.12 52.68 26.1 C51.95 26.1 51.22 26.09 50.47 26.09 C48.12 26.09 45.78 26.08 43.44 26.06 C41.85 26.06 40.27 26.05 38.68 26.05 C34.79 26.04 30.89 26.02 27 26 C27 25.67 27 25.34 27 25 C28.98 24.34 30.96 23.68 33 23 C32.84 22.34 32.84 22.34 32 19 C29.69 19.33 27.38 19.66 25 20 C25 20.99 25 21.98 25 23 C23.35 23 21.7 23 20 23 C20 22.01 20 21.02 20 20 C18.02 20 16.04 20 14 20 C14 21.65 14 23.3 14 25 C14.47 24.9 14.47 24.9 16.88 24.38 C17.39 24.31 17.39 24.31 20 24 C20.33 24.33 20.33 24.33 22 26 C21.08 25.99 20.17 25.98 19.23 25.96 C18.04 25.96 16.85 25.95 15.62 25.94 C14.44 25.93 13.26 25.91 12.04 25.9 C9 26 9 26 7 27 C0.81 27.23 0.81 27.23 -2 26.44 C-5.07 25.77 -7.92 26.55 -11 27 C-11.5 26.83 -11.5 26.83 -14 26 C-16.19 25.92 -18.38 25.89 -20.57 25.9 C-21.86 25.91 -23.15 25.91 -24.47 25.91 C-25.84 25.92 -27.2 25.93 -28.56 25.94 C-29.93 25.94 -31.3 25.95 -32.66 25.95 C-36.11 25.96 -39.55 25.98 -43 26 C-43.66 26 -44.32 26 -45 26 C-45.93 26.02 -46.86 26.04 -47.81 26.06 C-50.69 26.01 -53.19 25.56 -56 25 C-56.33 25.33 -56.66 25.66 -57 26 C-65.38 26.41 -65.38 26.41 -69 24 C-69 24.66 -69 25.32 -69 26 C-71.97 26 -74.94 26 -78 26 C-77.98 24.85 -77.96 23.69 -77.94 22.5 C-77.93 18.26 -78.4 14.2 -79 10 C-77.68 9.34 -76.36 8.68 -75 8 C-75.33 10.31 -75.66 12.62 -76 15 C-74.35 15.33 -72.7 15.66 -71 16 C-71 16.99 -71 17.98 -71 19 C-72.65 19.33 -74.3 19.66 -76 20 C-76 21.32 -76 22.64 -76 24 C-74.02 24 -72.04 24 -70 24 C-70 22.68 -70 21.36 -70 20 C-68.68 20 -67.36 20 -66 20 C-66 19.01 -66 18.02 -66 17 C-65.34 16.34 -64.68 15.68 -64 15 C-64.66 14.34 -65.32 13.68 -66 13 C-67.88 13.38 -67.88 13.38 -70 14 C-71.32 14 -72.64 14 -74 14 C-73.34 13.34 -72.68 12.68 -72 12 C-71.38 9.88 -71.38 9.88 -71 8 C-71.99 7.67 -72.98 7.34 -74 7 C-71.35 5.54 -70.11 5 -67 5 C-66.98 5.29 -66.98 5.29 -66.88 6.75 C-65.56 10.13 -63.03 11.19 -60 13 C-61.75 18.75 -61.75 18.75 -64 21 C-64 21.99 -64 22.98 -64 24 C-61.06 23.75 -61.06 23.75 -58 23 C-57.44 21.06 -57.44 21.06 -57 19 C-54.44 17.75 -54.44 17.75 -52 17 C-52 13.73 -52.3 11.15 -53 8 C-52.61 8.5 -52.22 8.99 -51.81 9.5 C-49.45 11.46 -47.99 11.24 -45 11 C-45.17 10.18 -45.17 10.18 -46 6 C-22.06 3.99 -22.06 3.99 -16.91 5.69 C-14.02 6.16 -12.88 4.81 -10.62 3.06 C-6.89 0.42 -4.69 -0.85 0 0 Z " fill="#556167" transform="translate(515,266)"/>
<path d="M0 0 C10.56 0 21.12 0 32 0 C32 18.48 32 36.96 32 56 C21.44 56 10.88 56 0 56 C0 37.52 0 19.04 0 0 Z " fill="#3D474C" transform="translate(561,703)"/>
<path d="M0 0 C6.93 0 13.86 0 21 0 C21.05 11.07 21.08 22.13 21.1 33.2 C21.11 38.33 21.13 43.47 21.15 48.61 C21.17 53.56 21.18 58.52 21.19 63.47 C21.19 65.36 21.2 67.26 21.21 69.15 C21.23 71.8 21.23 74.44 21.23 77.08 C21.23 77.48 21.23 77.48 21.25 79.48 C21.24 81.32 21.13 83.16 21 85 C14.74 88.13 6.99 85.37 0 85 C0 56.95 0 28.9 0 0 Z " fill="#9FA7AA" transform="translate(553,322)"/>
<path d="M0 0 C1.07 -0 2.14 -0 3.24 -0 C4.43 -0 5.61 0 6.83 0.01 C7.45 0.01 7.45 0.01 10.58 0.01 C13.99 0.01 17.4 0.01 20.8 0.02 C24.36 0.03 27.92 0.03 31.48 0.03 C38.21 0.03 44.95 0.04 51.69 0.05 C60.8 0.06 69.9 0.07 79.01 0.07 C93.36 0.08 107.71 0.1 122.06 0.12 C122.06 29.16 122.06 58.2 122.06 88.12 C121.73 88.12 121.4 88.12 121.06 88.12 C121.06 59.41 121.06 30.7 121.06 1.12 C85.09 1.45 49.12 1.78 12.06 2.12 C12.06 30.17 12.06 58.22 12.06 87.12 C6.78 87.12 1.5 87.12 -3.94 87.12 C-4.27 87.29 -4.27 87.29 -5.94 88.12 C-5.96 76.79 -5.98 65.47 -5.99 54.14 C-6 48.88 -6.01 43.62 -6.02 38.37 C-6.03 33.3 -6.03 28.23 -6.04 23.15 C-6.04 21.22 -6.04 19.28 -6.05 17.34 C-6.05 14.63 -6.06 11.93 -6.06 9.22 C-6.06 8.41 -6.06 7.6 -6.07 6.77 C-6.05 -0.01 -6.05 -0.01 0 0 Z " fill="#C1C9CD" transform="translate(453.94166564941406,319.87974548339844)"/>
<path d="M0 0 C14.19 0 28.38 0 43 0 C43 0.33 43 0.66 43 1 C36.4 1 29.8 1 23 1 C23 2.32 23 3.64 23 5 C27.29 5.17 27.29 5.17 49 6 C49 6.33 49 6.66 49 7 C48.17 7.01 47.35 7.03 46.49 7.04 C42.74 7.12 39 7.22 35.25 7.31 C34.6 7.32 34.6 7.32 31.3 7.38 C30.68 7.4 30.68 7.4 27.52 7.49 C26.36 7.51 25.21 7.54 24.02 7.57 C19.19 8.26 19.19 8.26 17 11 C16.4 14.04 16.44 17.04 16.47 20.13 C16.46 21.03 16.46 21.94 16.46 22.87 C16.45 24.79 16.46 26.7 16.48 28.62 C16.5 31.53 16.48 34.43 16.45 37.34 C16.43 55.2 16.43 55.2 21 63 C22.18 65.37 22.13 66.8 22.12 69.44 C22.13 69.83 22.13 69.83 22.13 71.81 C21.94 76.55 21.43 81.27 21 86 C38.82 86 56.64 86 75 86 C75 86.33 75 86.66 75 87 C44.97 87 14.94 87 -16 87 C-16 82.38 -16 77.76 -16 73 C-15.67 73 -15.34 73 -15 73 C-15 77.29 -15 81.58 -15 86 C-9.72 86 -4.44 86 1 86 C0.67 57.62 0.34 29.24 0 0 Z " fill="#FBFDFE" transform="translate(465,321)"/>
<path d="M0 0 C8.25 0 16.5 0 25 0 C25 18.48 25 36.96 25 56 C16.75 56 8.5 56 0 56 C0 37.52 0 19.04 0 0 Z " fill="#4D575A" transform="translate(431,703)"/>
<path d="M0 0 C50.16 0 100.32 0 152 0 C152 8 152 8 151 9 C149.08 9.1 147.16 9.13 145.24 9.13 C143.98 9.13 142.73 9.13 141.44 9.14 C140.04 9.13 138.64 9.13 137.24 9.13 C135.78 9.13 134.31 9.13 132.85 9.13 C128.86 9.14 124.87 9.14 120.88 9.13 C116.71 9.13 112.54 9.13 108.38 9.14 C101.38 9.14 94.38 9.14 87.37 9.13 C79.27 9.12 71.17 9.13 63.07 9.13 C56.12 9.14 49.18 9.14 42.23 9.13 C38.08 9.13 33.93 9.13 29.78 9.14 C25.87 9.14 21.97 9.14 18.06 9.13 C16.63 9.13 15.19 9.13 13.75 9.13 C11.8 9.14 9.84 9.13 7.89 9.13 C6.79 9.13 5.7 9.13 4.57 9.13 C2 9 2 9 0 8 C0 5.36 0 2.72 0 0 Z " fill="#566167" transform="translate(436,301)"/>
<path d="M0 0 C7.92 0 15.84 0 24 0 C24 18.48 24 36.96 24 56 C16.08 56 8.16 56 0 56 C0 37.52 0 19.04 0 0 Z " fill="#848B8F" transform="translate(456,703)"/>
<path d="M0 0 C0.56 -0.01 0.56 -0.01 3.37 -0.04 C4.57 -0.04 5.77 -0.03 7 -0.03 C7.62 -0.03 7.62 -0.03 10.74 -0.05 C14.01 -0.05 17.28 -0.05 20.56 -0.04 C22.56 -0.03 24.57 -0.05 26.58 -0.06 C30.43 -0.09 34.28 -0.1 38.13 -0.09 C39.33 -0.1 40.53 -0.11 41.77 -0.13 C42.32 -0.12 42.32 -0.12 45.13 -0.1 C46.11 -0.1 47.09 -0.1 48.1 -0.1 C50.57 0.4 50.57 0.4 52.38 2.17 C53.64 4.55 53.95 5.9 53.97 8.57 C53.98 9.38 54 10.19 54.01 11.03 C54.01 11.9 54 12.77 54 13.67 C54.01 14.57 54.01 15.48 54.02 16.41 C54.02 18.32 54.02 20.24 54.01 22.16 C54 25.06 54.03 27.97 54.06 30.88 C54.07 32.75 54.07 34.61 54.06 36.48 C54.07 36.91 54.07 36.91 54.1 39.08 C53.99 48.46 50.02 56.64 43.57 63.4 C34.41 70.49 25.39 71.64 14 70.04 C5.54 67.81 -1.23 61.02 -5.5 53.59 C-7.61 49.46 -8.55 45.78 -8.59 41.14 C-8.6 40.31 -8.61 39.48 -8.62 38.62 C-8.63 37.74 -8.63 36.85 -8.64 35.93 C-8.64 35.01 -8.65 34.09 -8.65 33.15 C-8.66 31.2 -8.67 29.26 -8.67 27.32 C-8.68 24.35 -8.71 21.38 -8.75 18.4 C-8.75 16.52 -8.76 14.63 -8.76 12.74 C-8.77 11.85 -8.79 10.96 -8.8 10.04 C-8.8 9.22 -8.79 8.39 -8.79 7.54 C-8.79 7.17 -8.79 7.17 -8.8 5.33 C-7.85 0.36 -4.5 0.02 0 0 Z M4.82 3.78 C3.69 3.85 2.56 3.92 1.39 3.99 C-1.43 4.4 -1.43 4.4 -3.43 6.4 C-3.71 9.29 -3.86 12.07 -3.91 14.96 C-3.93 15.82 -3.94 16.68 -3.96 17.57 C-3.99 19.39 -4.01 21.22 -4.02 23.04 C-4.06 25.8 -4.15 28.56 -4.23 31.32 C-4.42 42.09 -3.75 49.62 4.57 57.4 C11.75 63.43 19.21 65.52 28.57 64.4 C34.57 62.96 39.75 60.53 42.95 55.03 C46.3 48.46 47.72 43.45 47.7 36.05 C47.7 35.24 47.7 34.42 47.7 33.58 C47.7 31.86 47.7 30.14 47.7 28.42 C47.69 25.78 47.7 23.14 47.7 20.5 C47.7 18.83 47.7 17.16 47.7 15.49 C47.7 14.7 47.7 13.9 47.71 13.08 C47.68 7.52 47.68 7.52 46.57 6.4 C43.87 6.33 41.2 6.31 38.5 6.34 C38.12 6.34 38.12 6.34 36.21 6.36 C34.33 6.37 32.45 6.38 30.57 6.4 C30.53 7.02 30.49 7.63 30.45 8.27 C30.39 9.08 30.32 9.88 30.25 10.72 C30.22 11.12 30.22 11.12 30.08 13.14 C29.48 15.77 28.61 16.71 26.57 18.4 C25.91 18.07 25.25 17.74 24.57 17.4 C24.9 17.07 25.23 16.74 25.57 16.4 C25.64 14.88 25.65 13.36 25.63 11.84 C25.62 11.02 25.61 10.19 25.6 9.34 C25.59 8.7 25.58 8.06 25.57 7.4 C23.59 7.4 21.61 7.4 19.57 7.4 C19.57 6.74 19.57 6.08 19.57 5.4 C18.91 5.4 18.25 5.4 17.57 5.4 C17.57 4.74 17.57 4.08 17.57 3.4 C13.3 3.37 9.08 3.49 4.82 3.78 Z " fill="#222C36" transform="translate(489.43359375,328.595947265625)"/>
<path d="M0 0 C3.63 0 7.26 0 11 0 C17.45 17.17 16.6 34.72 16.34 52.75 C16.29 56.85 16.27 60.95 16.24 65.04 C16.19 73.03 16.1 81.01 16 89 C11.38 89 6.76 89 2 89 C1.97 86.73 1.95 84.46 1.92 82.12 C1.84 74.58 1.75 67.04 1.66 59.5 C1.61 54.94 1.55 50.37 1.5 45.8 C1.45 41.39 1.4 36.97 1.35 32.56 C1.33 30.88 1.31 29.2 1.29 27.53 C1.2 18.3 0.91 9.19 0 0 Z " fill="#5B6368" transform="translate(529,604)"/>
<path d="M0 0 C3.63 0 7.26 0 11 0 C10.93 0.8 10.86 1.61 10.79 2.44 C10.02 12.22 9.79 21.96 9.68 31.77 C9.66 33.43 9.64 35.1 9.62 36.76 C9.57 41.08 9.52 45.4 9.47 49.73 C9.42 54.16 9.36 58.59 9.31 63.02 C9.2 71.68 9.1 80.34 9 89 C4.38 89 -0.24 89 -5 89 C-5.11 80.94 -5.21 72.88 -5.26 64.82 C-5.28 61.07 -5.32 57.33 -5.38 53.58 C-5.65 35.11 -4.8 17.99 0 0 Z " fill="#5A6467" transform="translate(484,604)"/>
<path d="M0 0 C16.51 -0.12 33.01 -0.2 49.52 -0.26 C57.19 -0.28 64.85 -0.32 72.51 -0.38 C79.19 -0.43 85.87 -0.46 92.55 -0.47 C96.09 -0.48 99.63 -0.49 103.16 -0.53 C107.11 -0.57 111.05 -0.57 115 -0.57 C116.18 -0.59 117.35 -0.6 118.57 -0.62 C119.64 -0.62 120.71 -0.61 121.82 -0.6 C122.75 -0.61 123.69 -0.61 124.65 -0.62 C127 0 127 0 128.82 2.29 C130 5 130 5 130 9 C78.52 9 27.04 9 -26 9 C-26 8.67 -26 8.34 -26 8 C-17.42 8 -8.84 8 0 8 C0 5.36 0 2.72 0 0 Z " fill="#51595F" transform="translate(460,584)"/>
<path d="M0 0 C2.08 -0.25 2.08 -0.25 4.87 -0.24 C5.92 -0.24 6.97 -0.25 8.06 -0.25 C8.64 -0.25 8.64 -0.25 11.59 -0.23 C12.81 -0.23 14.03 -0.23 15.28 -0.23 C18.64 -0.23 21.99 -0.22 25.34 -0.2 C28.84 -0.19 32.34 -0.19 35.84 -0.19 C42.48 -0.18 49.11 -0.16 55.74 -0.14 C63.29 -0.12 70.84 -0.11 78.4 -0.1 C93.93 -0.08 109.47 -0.04 125 0 C124.67 2.97 124.34 5.94 124 9 C83.41 9 42.82 9 1 9 C1.66 7.02 2.32 5.04 3 3 C5.12 2.12 5.12 2.12 7 2 C4.36 2 1.72 2 -1 2 C-0.67 1.34 -0.34 0.68 0 0 Z " fill="#222F35" transform="translate(449,409)"/>
<path d="M0 0 C14.19 0 28.38 0 43 0 C43 0.33 43 0.66 43 1 C36.4 1 29.8 1 23 1 C23 2.32 23 3.64 23 5 C27.29 5.17 27.29 5.17 49 6 C49 6.33 49 6.66 49 7 C48.17 7.02 47.35 7.04 46.49 7.06 C42.75 7.16 39 7.26 35.25 7.38 C33.95 7.41 32.65 7.44 31.3 7.47 C30.05 7.51 28.8 7.55 27.52 7.59 C26.36 7.62 25.21 7.65 24.02 7.68 C21.12 7.99 19.53 8.66 17 10 C16.34 9.67 15.68 9.34 15 9 C15 21.54 15 34.08 15 47 C13.68 47 12.36 47 11 47 C11 52.28 11 57.56 11 63 C9.68 63 8.36 63 7 63 C7 57.72 7 52.44 7 47 C5.68 47 4.36 47 3 47 C3 58.22 3 69.44 3 81 C2.67 81 2.34 81 2 81 C2 59.22 2 37.44 2 15 C3.65 15 5.3 15 7 15 C7 13.68 7 12.36 7 11 C5.02 11 3.04 11 1 11 C0.67 7.37 0.34 3.74 0 0 Z " fill="#F1F8FB" transform="translate(465,321)"/>
<path d="M0 0 C4.87 -0.96 4.87 -0.96 8 0 C11.25 3.3 13.62 7.04 16 11 C16.69 12.07 17.38 13.14 18.09 14.24 C20.21 17.97 20.48 20.99 20.45 25.31 C20.45 26.01 20.46 26.7 20.46 27.41 C20.45 29.68 20.42 31.95 20.39 34.21 C20.38 35.8 20.38 37.38 20.37 38.96 C20.36 43.11 20.32 47.25 20.27 51.39 C20.23 55.63 20.22 59.87 20.2 64.1 C20.15 72.4 20.08 80.7 20 89 C17.36 89 14.72 89 12 89 C11.99 88.09 11.99 87.19 11.98 86.26 C11.92 77.72 11.85 69.19 11.76 60.65 C11.72 56.27 11.68 51.88 11.65 47.49 C11.63 43.26 11.59 39.02 11.54 34.79 C11.52 33.17 11.51 31.56 11.5 29.94 C11.49 27.68 11.46 25.42 11.43 23.16 C11.42 21.87 11.41 20.58 11.4 19.25 C10.98 15.8 10.25 14.56 8 12 C8 11.34 8 10.68 8 10 C7.34 10 6.68 10 6 10 C4.49 7.81 4.49 7.81 2.88 5 C2.34 4.07 1.8 3.14 1.24 2.19 C0.83 1.47 0.42 0.74 0 0 Z " fill="#626D72" transform="translate(573,604)"/>
<path d="M0 0 C1.22 0.14 2.43 0.29 3.69 0.44 C-1.68 8.66 -1.68 8.66 -4.62 12.31 C-7.68 16.16 -7.46 19.63 -7.52 24.39 C-7.52 24.74 -7.52 24.74 -7.55 26.52 C-7.58 28.84 -7.6 31.16 -7.63 33.48 C-7.65 35.09 -7.67 36.7 -7.69 38.31 C-7.75 42.55 -7.8 46.78 -7.84 51.02 C-7.89 55.34 -7.95 59.67 -8.01 63.99 C-8.11 72.47 -8.21 80.96 -8.31 89.44 C-15.19 89.56 -15.19 89.56 -16.31 88.44 C-16.44 86.28 -16.5 84.12 -16.54 81.97 C-16.54 81.63 -16.54 81.63 -16.57 79.91 C-16.68 72.8 -16.73 65.69 -16.77 58.58 C-16.79 55.21 -16.84 51.84 -16.9 48.47 C-16.97 44.4 -17 40.33 -17.02 36.25 C-17.03 34.71 -17.05 33.16 -17.08 31.61 C-17.3 21.56 -16.11 15.28 -9.31 7.44 C-8.49 6.07 -7.68 4.69 -6.88 3.31 C-4.1 0.2 -3.87 0.02 0 0 Z " fill="#5F6B71" transform="translate(447.3125,603.5625)"/>
<path d="M0 0 C7.92 0 15.84 0 24 0 C24 9.57 24 19.14 24 29 C16.08 29 8.16 29 0 29 C0 19.43 0 9.86 0 0 Z " fill="#4F595E" transform="translate(553,664)"/>
<path d="M0 0 C7.92 0 15.84 0 24 0 C24 9.57 24 19.14 24 29 C20.23 29.02 16.45 29.04 12.56 29.06 C11.37 29.07 10.18 29.08 8.95 29.09 C8.49 29.09 8.49 29.09 6.13 29.1 C5.17 29.1 4.21 29.11 3.22 29.11 C1 29 1 29 0 28 C-0.09 25.93 -0.11 23.85 -0.1 21.78 C-0.09 20.52 -0.09 19.26 -0.09 17.96 C-0.08 16.62 -0.07 15.28 -0.06 13.94 C-0.06 12.59 -0.05 11.25 -0.05 9.9 C-0.04 6.6 -0.02 3.3 0 0 Z " fill="#535D61" transform="translate(447,664)"/>
<path d="M0 0 C7.26 0 14.52 0 22 0 C22 9.57 22 19.14 22 29 C14.74 29 7.48 29 0 29 C0 19.43 0 9.86 0 0 Z " fill="#555E63" transform="translate(501,664)"/>
<path d="M0 0 C16.41 -0.02 32.82 -0.04 49.23 -0.05 C56.85 -0.06 64.47 -0.06 72.09 -0.08 C78.73 -0.09 85.37 -0.09 92.01 -0.09 C95.53 -0.1 99.04 -0.1 102.56 -0.11 C106.48 -0.11 110.4 -0.11 114.32 -0.11 C115.49 -0.12 116.67 -0.12 117.88 -0.12 C118.41 -0.12 118.41 -0.12 121.1 -0.12 C122.02 -0.12 122.95 -0.12 123.91 -0.12 C126 0 126 0 127 1 C127.1 3 127.12 5 127.12 7 C127.12 7.66 127.12 7.66 127.12 10.96 C127.12 12.42 127.12 13.88 127.11 15.34 C127.11 16.87 127.11 18.4 127.11 19.92 C127.11 24.08 127.11 28.24 127.1 32.4 C127.1 36.74 127.09 41.08 127.09 45.43 C127.09 53.65 127.08 61.88 127.07 70.11 C127.06 81.22 127.05 92.33 127.05 103.45 C127.04 120.96 127.02 138.48 127 156 C85.09 156 43.18 156 0 156 C0 155.67 0 155.34 0 155 C41.25 154.67 82.5 154.34 125 154 C125 103.84 125 53.68 125 2 C118.07 2 111.14 2 104 2 C104 7.28 104 12.56 104 18 C103.67 18 103.34 18 103 18 C103 12.39 103 6.78 103 1 C69.01 1 35.02 1 0 1 C0 0.67 0 0.34 0 0 Z " fill="#949BA1" transform="translate(449,418)"/>
<path d="M0 0 C0.52 0 0.52 0 3.15 0 C3.72 0.01 3.72 0.01 6.55 0.05 C7.7 0.05 8.85 0.06 10.04 0.06 C13.72 0.08 17.4 0.11 21.07 0.15 C23.57 0.17 26.06 0.18 28.55 0.19 C34.66 0.23 40.77 0.28 46.89 0.34 C46.89 0.67 46.89 1 46.89 1.34 C43.26 1.67 39.63 2 35.89 2.34 C35.89 3 35.89 3.66 35.89 4.34 C34.59 4.3 33.29 4.26 31.95 4.22 C29.73 4.15 29.73 4.15 27.89 4.34 C27.56 5 27.23 5.66 26.89 6.34 C24.56 6.75 22.23 7.08 19.89 7.34 C19.89 6.68 19.89 6.02 19.89 5.34 C19.23 5.34 18.57 5.34 17.89 5.34 C17.89 4.68 17.89 4.02 17.89 3.34 C14.74 3.65 11.59 3.96 8.45 4.28 C7.55 4.37 6.65 4.45 5.73 4.54 C4.87 4.63 4.02 4.72 3.14 4.81 C2.74 4.84 2.74 4.84 0.74 5.04 C-1.11 5.34 -1.11 5.34 -2.11 6.34 C-2.48 11.86 -2.56 17.37 -2.63 22.9 C-2.66 24.76 -2.71 26.62 -2.77 28.48 C-3.41 47.15 -3.41 47.15 3.96 55.17 C5.89 57.34 5.89 57.34 6.95 60.04 C7.89 62.34 7.89 62.34 10.98 63.65 C15.19 64.4 19.07 64.57 23.32 64.47 C24.06 64.46 24.79 64.45 25.54 64.44 C27.32 64.41 29.1 64.38 30.89 64.34 C30.89 65 30.89 65.66 30.89 66.34 C29.9 66.67 28.91 67 27.89 67.34 C28.88 67.67 29.87 68 30.89 68.34 C30.89 69 30.89 69.66 30.89 70.34 C17.68 70.85 9.88 70.12 0.12 60.82 C-5.07 55.07 -8.2 48.87 -8.28 41.08 C-8.28 40.25 -8.29 39.42 -8.3 38.56 C-8.31 37.67 -8.31 36.78 -8.32 35.87 C-8.32 34.95 -8.33 34.03 -8.33 33.08 C-8.34 31.14 -8.35 29.2 -8.35 27.26 C-8.36 24.29 -8.4 21.31 -8.43 18.34 C-8.43 16.45 -8.44 14.57 -8.44 12.68 C-8.45 11.79 -8.47 10.9 -8.48 9.98 C-8.48 9.15 -8.47 8.33 -8.47 7.47 C-8.47 7.11 -8.47 7.11 -8.48 5.27 C-7.56 0.44 -4.4 -0.03 0 0 Z " fill="#222F3C" transform="translate(489.114013671875,328.659423828125)"/>
<path d="M0 0 C1.69 0.09 3.38 0.25 5.06 0.44 C5.52 0.49 5.52 0.49 7.85 0.75 C8.56 0.83 9.27 0.91 10 1 C9.01 2.65 8.02 4.3 7 6 C9.31 6.33 11.62 6.66 14 7 C14 11.62 14 16.24 14 21 C9.77 21 6.95 20.79 3 20 C2.67 20.33 2.34 20.66 2 21 C-13.12 21.87 -13.12 21.87 -19 19 C-19.62 16.5 -19.62 16.5 -20 14 C-22.56 12.69 -22.56 12.69 -25 12 C-24.86 11.44 -24.71 10.89 -24.56 10.31 C-23.97 7.89 -23.48 5.45 -23 3 C-22.01 3 -21.02 3 -20 3 C-20 4.32 -20 5.64 -20 7 C-19.01 6.67 -18.02 6.34 -17 6 C-17 6.66 -17 7.32 -17 8 C-15.35 7.34 -13.7 6.68 -12 6 C-12 4.35 -12 2.7 -12 1 C-9.69 1 -7.38 1 -5 1 C-5 2.65 -5 4.3 -5 6 C-4.17 6.17 -4.17 6.17 0 7 C0.66 5.35 1.32 3.7 2 2 C1.01 1.67 0.02 1.34 -1 1 C-0.67 0.67 -0.34 0.34 0 0 Z " fill="#3E4B51" transform="translate(573,271)"/>
<path d="M0 0 C5.28 0 10.56 0 16 0 C16.63 4.38 17.14 8.36 17.32 12.71 C17.36 13.73 17.4 14.75 17.44 15.79 C17.48 16.83 17.52 17.87 17.56 18.94 C17.61 20 17.65 21.07 17.69 22.17 C17.8 24.78 17.9 27.39 18 30 C11.73 30 5.46 30 -1 30 C-1.03 26.5 -1.05 23 -1.06 19.5 C-1.07 18.52 -1.08 17.54 -1.09 16.52 C-1.11 10.91 -0.84 5.55 0 0 Z " fill="#495359" transform="translate(504,604)"/>
<path d="M0 0 C2.08 -0.25 2.08 -0.25 4.87 -0.24 C5.92 -0.24 6.97 -0.25 8.06 -0.25 C8.64 -0.25 8.64 -0.25 11.59 -0.23 C12.81 -0.23 14.03 -0.23 15.28 -0.23 C18.64 -0.23 21.99 -0.22 25.34 -0.2 C28.84 -0.19 32.34 -0.19 35.84 -0.19 C42.48 -0.18 49.11 -0.16 55.74 -0.14 C63.29 -0.12 70.84 -0.11 78.4 -0.1 C93.93 -0.08 109.47 -0.04 125 0 C125 0.66 125 1.32 125 2 C96.62 1.67 68.24 1.34 39 1 C39.17 1.99 39.17 1.99 40 7 C67.72 7 95.44 7 124 7 C124 7.66 124 8.32 124 9 C83.41 9 42.82 9 1 9 C1.66 7.02 2.32 5.04 3 3 C5.12 2.12 5.12 2.12 7 2 C4.36 2 1.72 2 -1 2 C-0.67 1.34 -0.34 0.68 0 0 Z " fill="#20282D" transform="translate(449,409)"/>
<path d="M0 0 C0 4 0 4 -1 5 C-0.05 4.81 0.9 4.63 1.88 4.44 C5 4 5 4 7 5 C7.05 5.33 7.05 5.33 7.31 7 C7.43 7.33 7.43 7.33 8 9 C10.56 9.75 10.56 9.75 13 10 C13.33 8.35 13.66 6.7 14 5 C15.98 5 17.96 5 20 5 C20.62 6.88 20.62 6.88 21 9 C19 11 19 11 17.19 11.81 C15 13 15 13 12.44 15.62 C10 18 10 18 7 18 C7 19.32 7 20.64 7 22 C5.02 22 3.04 22 1 22 C0.34 20.35 -0.32 18.7 -1 17 C-1.99 17.33 -2.98 17.66 -4 18 C-5.19 16.25 -5.19 16.25 -6 14 C-4.62 11.75 -4.62 11.75 -3 10 C-6.02 10.59 -9.02 11.23 -12 12 C-12 12.99 -12 13.98 -12 15 C-15 17 -15 17 -18 17 C-18 18.65 -18 20.3 -18 22 C-19.98 22.33 -21.96 22.66 -24 23 C-24.33 21.35 -24.66 19.7 -25 18 C-23.35 17.01 -21.7 16.02 -20 15 C-20.33 14.01 -20.66 13.02 -21 12 C-21.99 11.67 -22.98 11.34 -24 11 C-24.04 11.64 -24.08 12.28 -24.12 12.94 C-24.41 13.62 -24.7 14.3 -25 15 C-28.06 15.75 -28.06 15.75 -31 16 C-31.88 13.53 -32.09 12.3 -31.31 9.75 C-30.88 9.17 -30.45 8.6 -30 8 C-28.68 8 -27.36 8 -26 8 C-25.67 7.01 -25.34 6.02 -25 5 C-22.12 4.75 -22.12 4.75 -19 5 C-17.88 6.94 -17.88 6.94 -17 9 C-14.88 9.75 -14.88 9.75 -13 10 C-13.33 8.68 -13.66 7.36 -14 6 C-10.84 4.13 -8.64 3.9 -5 4 C-4.67 3.67 -4.34 3.34 -4 3 C-4.99 2.67 -5.98 2.34 -7 2 C-4 0 -4 0 0 0 Z " fill="#333E45" transform="translate(515,268)"/>
<path d="M0 0 C-0.03 0.28 -0.03 0.28 -0.18 1.7 C-0.66 6.48 -1.02 11.21 -1.11 16.01 C-1.14 16.89 -1.16 17.77 -1.18 18.68 C-1.23 20.46 -1.25 22.23 -1.26 24 C-1.38 28.48 -1.51 30.4 -4.42 33.98 C-5.27 34.64 -6.12 35.31 -7 36 C-7.66 36.66 -8.32 37.32 -9 38 C-8.62 41.12 -8.62 41.12 -8 44 C-7.01 43.84 -7.01 43.84 -2 43 C-2 45.31 -2 47.62 -2 50 C-9.85 50.3 -9.85 50.3 -13 48 C-13.17 47.5 -13.17 47.5 -14 45 C-14.66 45.16 -14.66 45.16 -18 46 C-17.87 45.11 -17.73 44.23 -17.6 43.32 C-17.51 42.7 -17.51 42.7 -17.06 39.56 C-16.96 38.89 -16.87 38.23 -16.77 37.54 C-16.26 33.86 -15.95 30.29 -15.96 26.57 C-15.96 17.8 -15.11 12.32 -8.42 5.98 C-7.62 5.33 -6.82 4.67 -6 4 C-5.1 3.25 -4.2 2.51 -3.27 1.74 C-1 0 -1 0 0 0 Z " fill="#495559" transform="translate(425,605)"/>
<path d="M0 0 C4.95 0 9.9 0 15 0 C15 9.57 15 19.14 15 29 C10.05 29 5.1 29 0 29 C0 19.43 0 9.86 0 0 Z " fill="#545F61" transform="translate(408,664)"/>
<path d="M0 0 C4.95 0 9.9 0 15 0 C15.05 3.97 15.09 7.94 15.11 11.91 C15.12 13.26 15.13 14.61 15.15 15.96 C15.18 17.9 15.19 19.84 15.2 21.78 C15.21 22.95 15.22 24.11 15.23 25.32 C15.19 25.76 15.19 25.76 15 28 C12.25 29.37 10 29.13 6.94 29.12 C6.4 29.13 6.4 29.13 3.65 29.13 C1 29 1 29 0 28 C-0.09 25.93 -0.11 23.85 -0.1 21.78 C-0.09 20.52 -0.09 19.26 -0.09 17.96 C-0.08 16.62 -0.07 15.28 -0.06 13.94 C-0.06 12.59 -0.05 11.25 -0.05 9.9 C-0.04 6.6 -0.02 3.3 0 0 Z " fill="#4F5A5F" transform="translate(601,664)"/>
<path d="M0 0 C17.82 0 35.64 0 54 0 C54 2.64 54 5.28 54 8 C46.63 8.03 39.26 8.04 31.89 8.05 C29.38 8.06 26.88 8.07 24.37 8.08 C20.77 8.09 17.17 8.09 13.57 8.1 C13.01 8.1 13.01 8.1 10.15 8.11 C9.11 8.11 8.07 8.11 7 8.11 C6.08 8.12 5.16 8.12 4.21 8.12 C2 8 2 8 0 7 C0 4.69 0 2.38 0 0 Z " fill="#798388" transform="translate(436,302)"/>
<path d="M0 0 C0 0.66 0 1.32 0 2 C0.66 2 1.32 2 2 2 C2 2.66 2 3.32 2 4 C3.98 4 5.96 4 8 4 C8.03 5.48 8.05 6.96 8.06 8.44 C8.07 9.26 8.09 10.08 8.1 10.93 C8 13 8 13 7 14 C7.66 14.33 8.32 14.66 9 15 C11.87 12.62 12.42 11 12.69 7.31 C12.75 6.5 12.82 5.7 12.89 4.86 C12.92 4.25 12.96 3.63 13 3 C15.65 2.97 18.29 2.95 20.94 2.94 C21.31 2.93 21.31 2.93 23.22 2.91 C28.89 2.89 28.89 2.89 30 4 C30.09 6.74 30.12 9.45 30.1 12.19 C30.1 13.01 30.09 13.83 30.09 14.68 C30.09 17.3 30.08 19.93 30.06 22.56 C30.06 24.34 30.05 26.12 30.05 27.9 C30.04 32.26 30.02 36.63 30 41 C29.67 41 29.34 41 29 41 C28.67 29.12 28.34 17.24 28 5 C23.71 5 19.42 5 15 5 C15.08 6.05 15.16 7.1 15.25 8.19 C14.96 12.57 14.05 13.95 11 17 C7.78 18.61 4.5 18.44 1 18 C-2 16.69 -2 16.69 -4 14 C-4.42 10.23 -4.23 6.81 -4 3 C-8.95 3 -13.9 3 -19 3 C-19 16.53 -19 30.06 -19 44 C-19.66 43.67 -20.32 43.34 -21 43 C-21.2 40.04 -21.28 37.18 -21.27 34.22 C-21.27 33.34 -21.27 32.46 -21.27 31.55 C-21.27 29.68 -21.27 27.81 -21.26 25.94 C-21.25 23.08 -21.26 20.21 -21.27 17.35 C-21.27 15.53 -21.27 13.72 -21.27 11.91 C-21.27 11.05 -21.27 10.19 -21.28 9.3 C-21.23 3.23 -21.23 3.23 -19 1 C-16.17 0.59 -16.17 0.59 -12.75 0.38 C-12.19 0.34 -12.19 0.34 -9.36 0.15 C-6.23 0.01 -3.13 -0.03 0 0 Z " fill="#1F3850" transform="translate(507,332)"/>
<path d="M0 0 C2.05 1.28 4.02 2.61 6 4 C6.67 4.44 7.35 4.89 8.04 5.35 C12.49 8.67 14.5 11.09 15.22 16.69 C15.35 18.79 15.44 20.89 15.5 23 C15.56 24.05 15.62 25.11 15.68 26.2 C15.96 31.46 16.06 36.72 16 42 C15.56 41.61 15.13 41.23 14.68 40.83 C11.76 38.28 8.89 35.84 5.62 33.75 C3 32 3 32 2 30 C1.79 27.39 1.62 24.8 1.5 22.19 C1.42 20.65 1.34 19.11 1.25 17.58 C1.23 17.19 1.23 17.19 1.13 15.25 C0.84 10.16 0.42 5.08 0 0 Z " fill="#485258" transform="translate(600,607)"/>
<path d="M0 0 C2.88 1 2.88 1 5 2 C5 2.99 5 3.98 5 5 C8.49 5.87 10.57 5.91 14 5 C16.33 4.96 18.67 4.96 21 5 C21 5.99 21 6.98 21 8 C18.69 8 16.38 8 14 8 C13.67 9.32 13.34 10.64 13 12 C12.34 12 11.68 12 11 12 C10.67 12.66 10.34 13.32 10 14 C10 13.01 10 12.02 10 11 C8.68 11.33 7.36 11.66 6 12 C6.33 10.35 6.66 8.7 7 7 C-0.75 7.88 -0.75 7.88 -3 9 C-2.67 8.01 -2.34 7.02 -2 6 C-1.34 6 -0.68 6 0 6 C0 4.68 0 3.36 0 2 C-1.98 2.66 -3.96 3.32 -6 4 C-5.34 4.33 -4.68 4.66 -4 5 C-4.33 5.66 -4.66 6.32 -5 7 C-7 7.04 -9 7.04 -11 7 C-11.66 7.33 -12.32 7.66 -13 8 C-13 9.32 -13 10.64 -13 12 C-15.44 11.69 -15.44 11.69 -18 11 C-18.33 10.01 -18.66 9.02 -19 8 C-21.88 7.75 -21.88 7.75 -25 8 C-26.12 9.88 -26.12 9.88 -27 12 C-27.66 12.28 -28.33 12.56 -29.01 12.85 C-31 14 -31 14 -31.57 16.13 C-31.61 16.93 -31.65 17.74 -31.69 18.56 C-31.93 22.93 -31.93 22.93 -33 24 C-34.67 24.04 -36.33 24.04 -38 24 C-38.03 23.61 -38.03 23.61 -38.19 21.62 C-39 19 -39 19 -41.56 17.69 C-42.37 17.46 -43.17 17.23 -44 17 C-44 15.35 -44 13.7 -44 12 C-43.01 11.67 -42.02 11.34 -41 11 C-41 10.01 -41 9.02 -41 8 C-40.01 7.67 -39.02 7.34 -38 7 C-38.33 6.34 -38.66 5.68 -39 5 C-35.75 4.97 -32.5 4.95 -29.25 4.94 C-28.79 4.93 -28.79 4.93 -26.46 4.91 C-26.02 4.91 -26.02 4.91 -23.77 4.9 C-22.95 4.9 -22.13 4.89 -21.29 4.89 C-19 5 -19 5 -16.84 5.58 C-15 6 -15 6 -12.85 4.79 C-12.48 4.5 -12.48 4.5 -10.62 3.06 C-6.89 0.42 -4.69 -0.85 0 0 Z " fill="#414A52" transform="translate(515,266)"/>
<path d="M0 0 C0.66 0.33 1.32 0.66 2 1 C2 1.66 2 2.32 2 3 C60.08 3 118.16 3 178 3 C178 3.66 178 4.32 178 5 C155.1 5.09 132.21 5.16 109.31 5.21 C98.68 5.23 88.05 5.26 77.42 5.3 C68.16 5.34 58.9 5.37 49.63 5.38 C44.73 5.38 39.82 5.39 34.91 5.42 C30.3 5.45 25.68 5.46 21.07 5.45 C19.37 5.45 17.67 5.46 15.98 5.48 C13.66 5.5 11.35 5.49 9.04 5.48 C7.75 5.48 6.45 5.49 5.12 5.49 C2 5 2 5 0.06 2.97 C-0.29 2.32 -0.64 1.67 -1 1 C-0.67 0.67 -0.34 0.34 0 0 Z " fill="#313438" transform="translate(422,765)"/>
<path d="M0 0 C0 50.49 0 100.98 0 153 C-4.85 143.3 -3.14 130.57 -3.09 119.89 C-3.09 118.29 -3.08 116.7 -3.08 115.1 C-3.02 94.86 -2.83 74.63 -2.63 54.39 C-2.57 48.76 -2.52 43.13 -2.47 37.5 C-2.43 33.12 -2.39 28.74 -2.35 24.37 C-2.33 22.29 -2.31 20.21 -2.29 18.12 C-2.27 15.26 -2.24 12.39 -2.21 9.52 C-2.2 8.67 -2.19 7.81 -2.19 6.93 C-2.1 0 -2.1 0 0 0 Z " fill="#21242B" transform="translate(448,420)"/>
<path d="M0 0 C1.32 0 2.64 0 4 0 C4 9.24 4 18.48 4 28 C-0.62 28 -5.24 28 -10 28 C-10 20.08 -10 12.16 -10 4 C-6.7 4 -3.4 4 0 4 C0 2.68 0 1.36 0 0 Z " fill="#FEFEFE" transform="translate(476,516)"/>
<path d="M0 0 C0.66 0 1.32 0 2 0 C2.2 19.6 2.38 39.2 2.55 58.8 C2.62 67.91 2.7 77.01 2.8 86.11 C2.88 94.04 2.95 101.97 3.01 109.91 C3.05 114.11 3.08 118.31 3.13 122.51 C3.18 126.46 3.21 130.41 3.23 134.37 C3.24 135.82 3.26 137.27 3.28 138.72 C3.31 140.7 3.32 142.68 3.32 144.67 C3.33 145.78 3.34 146.88 3.35 148.03 C2.96 151.37 1.92 153.27 0 156 C-0.66 155.67 -1.32 155.34 -2 155 C-1.67 154.67 -1.34 154.34 -1 154 C-0.89 152.01 -0.85 150.02 -0.84 148.03 C-0.83 146.74 -0.82 145.44 -0.81 144.1 C-0.81 142.65 -0.8 141.2 -0.79 139.75 C-0.79 138.23 -0.78 136.72 -0.76 135.2 C-0.74 131.07 -0.72 126.93 -0.7 122.8 C-0.67 118.49 -0.65 114.17 -0.62 109.86 C-0.57 101.69 -0.53 93.51 -0.48 85.34 C-0.43 76.04 -0.38 66.73 -0.32 57.43 C-0.21 38.29 -0.1 19.14 0 0 Z " fill="#21252E" transform="translate(576,420)"/>
<path d="M0 0 C0.78 0.04 1.57 0.08 2.38 0.12 C2.4 0.41 2.4 0.41 2.5 1.88 C3.82 5.26 6.34 6.32 9.38 8.12 C7.62 13.88 7.62 13.88 5.38 16.12 C5.38 17.12 5.38 18.11 5.38 19.12 C8.31 18.88 8.31 18.88 11.38 18.12 C11.94 16.19 11.94 16.19 12.38 14.12 C14.94 12.88 14.94 12.88 17.38 12.12 C17.38 8.85 17.08 6.28 16.38 3.12 C16.59 3.36 16.59 3.36 17.69 4.56 C19.38 6.12 19.38 6.12 22.38 7.12 C23.06 9.19 23.06 9.19 23.38 11.12 C22.38 11.45 21.39 11.79 20.38 12.12 C21.01 12.19 21.65 12.25 22.31 12.31 C22.99 12.58 23.67 12.85 24.38 13.12 C25.49 16.39 25.48 17.81 24.38 21.12 C20.52 21.21 17.14 20.88 13.38 20.12 C13.05 20.45 12.71 20.79 12.38 21.12 C3.99 21.54 3.99 21.54 0.38 19.12 C0.38 19.79 0.38 20.44 0.38 21.12 C-2.6 21.12 -5.56 21.12 -8.62 21.12 C-8.6 19.97 -8.58 18.81 -8.56 17.62 C-8.55 13.38 -9.03 9.32 -9.62 5.12 C-8.31 4.46 -6.99 3.81 -5.62 3.12 C-5.95 5.44 -6.29 7.75 -6.62 10.12 C-4.98 10.45 -3.32 10.79 -1.62 11.12 C-1.62 12.12 -1.62 13.11 -1.62 14.12 C-3.27 14.45 -4.93 14.79 -6.62 15.12 C-6.62 16.44 -6.62 17.76 -6.62 19.12 C-4.64 19.12 -2.67 19.12 -0.62 19.12 C-0.62 17.81 -0.62 16.49 -0.62 15.12 C0.69 15.12 2.01 15.12 3.38 15.12 C3.38 14.13 3.38 13.14 3.38 12.12 C4.04 11.46 4.69 10.81 5.38 10.12 C4.71 9.46 4.06 8.81 3.38 8.12 C1.5 8.5 1.5 8.5 -0.62 9.12 C-1.94 9.12 -3.26 9.12 -4.62 9.12 C-3.96 8.46 -3.31 7.81 -2.62 7.12 C-2 5 -2 5 -1.62 3.12 C-2.62 2.8 -3.61 2.46 -4.62 2.12 C-2.62 0.12 -2.62 0.12 0 0 Z " fill="#515D64" transform="translate(445.625,270.875)"/>
<path d="M0 0 C6.93 0 13.86 0 21 0 C21 2.64 21 5.28 21 8 C47.07 8 73.14 8 100 8 C100 8.33 100 8.66 100 9 C58.42 9 16.84 9 -26 9 C-26 8.67 -26 8.34 -26 8 C-17.42 8 -8.84 8 0 8 C0 5.36 0 2.72 0 0 Z " fill="#788187" transform="translate(460,584)"/>
<path d="M0 0 C3.71 2.66 4.86 4.08 5.56 8.62 C5 12 5 12 3.06 13.38 C-0 15.79 0.34 18.39 0.08 22.14 C0.05 22.75 0.03 23.37 0 24 C-2.38 24.69 -2.38 24.69 -5 25 C-7 22 -7 22 -7.38 18.56 C-8 15 -8 15 -10.12 13 C-12 11 -12 11 -12.06 7.5 C-10.2 1.38 -6.37 -1.19 0 0 Z " fill="#1C364E" transform="translate(515,362)"/>
<path d="M0 0 C0.33 0 0.66 0 1 0 C1 23.1 1 46.2 1 70 C-1.31 70 -3.62 70 -6 70 C-6 51.52 -6 33.04 -6 14 C-5.67 14 -5.34 14 -5 14 C-4.67 25.55 -4.34 37.1 -4 49 C-3.67 46.36 -3.34 43.72 -3 41 C-2.34 41 -1.68 41 -1 41 C-1.01 40.14 -1.02 39.27 -1.04 38.38 C-1.13 25.57 -0.58 12.8 0 0 Z " fill="#6C757C" transform="translate(438,623)"/>
<path d="M0 0 C0.33 0 0.66 0 1 0 C1 29.37 1 58.74 1 89 C0.34 88.67 -0.32 88.34 -1 88 C-1.98 83.09 -2.13 78.3 -2.15 73.31 C-2.15 72.57 -2.15 71.84 -2.16 71.08 C-2.16 68.68 -2.17 66.27 -2.17 63.87 C-2.17 62.19 -2.17 60.5 -2.18 58.82 C-2.18 55.31 -2.19 51.79 -2.19 48.28 C-2.19 43.78 -2.2 39.28 -2.22 34.78 C-2.23 31.31 -2.23 27.84 -2.23 24.37 C-2.23 22.71 -2.23 21.05 -2.24 19.39 C-2.25 17.07 -2.25 14.75 -2.24 12.43 C-2.24 11.12 -2.25 9.8 -2.25 8.44 C-2.01 5.17 -1.42 2.93 0 0 Z " fill="#20252D" transform="translate(447,320)"/>
<path d="M0 0 C8 7.92 8 7.92 8 11 C8.66 11 9.32 11 10 11 C10 18.59 10 26.18 10 34 C8 34 8 34 6.38 32.62 C5 31 5 31 5 29 C4.01 28.67 3.02 28.34 2 28 C-0.3 24.55 -0.24 23.29 -0.2 19.24 C-0.19 18.12 -0.18 17 -0.18 15.85 C-0.16 14.68 -0.14 13.52 -0.12 12.31 C-0.12 11.13 -0.11 9.95 -0.1 8.74 C-0.07 5.83 -0.04 2.91 0 0 Z " fill="#435056" transform="translate(567,612)"/>
<path d="M0 0 C7.26 0 14.52 0 22 0 C22 3.63 22 7.26 22 11 C14.74 11 7.48 11 0 11 C0 7.37 0 3.74 0 0 Z " fill="#737E84" transform="translate(501,644)"/>
<path d="M0 0 C0.66 0 1.32 0 2 0 C2 16.5 2 33 2 50 C2.33 49.01 2.66 48.02 3 47 C4.65 47 6.3 47 8 47 C8 53.93 8 60.86 8 68 C5.36 68 2.72 68 0 68 C0 45.56 0 23.12 0 0 Z " fill="#677479" transform="translate(585,625)"/>
<path d="M0 0 C1.32 0 2.64 0 4 0 C4.1 6.12 4.17 12.24 4.22 18.36 C4.24 20.44 4.27 22.52 4.3 24.6 C4.35 27.6 4.37 30.59 4.39 33.59 C4.41 34.51 4.43 35.44 4.45 36.39 C4.46 44.28 2.11 50.15 -3.25 56 C-3.77 56.58 -4.29 57.15 -4.83 57.75 C-5.21 58.16 -5.6 58.57 -6 59 C-6.66 57.68 -7.32 56.36 -8 55 C-6.68 55 -5.36 55 -4 55 C-4.02 54.44 -4.02 54.44 -4.12 51.62 C-4 48 -4 48 -2 46 C-0.61 41.32 -0.78 36.39 -0.68 31.54 C-0.66 30.64 -0.64 29.74 -0.62 28.81 C-0.56 25.93 -0.5 23.06 -0.44 20.19 C-0.39 18.24 -0.35 16.28 -0.31 14.33 C-0.2 9.55 -0.1 4.78 0 0 Z " fill="#1F2632" transform="translate(538,334)"/>
<path d="M0 0 C0.35 3.5 0.62 7 0.88 10.5 C0.92 10.99 0.92 10.99 1.17 13.48 C1.6 19.91 0.87 23.44 -3.39 28.36 C-4.92 29.92 -6.45 31.47 -8 33 C-8.66 32.67 -9.32 32.34 -10 32 C-10.17 29.93 -10.17 29.93 -10.05 27.23 C-10 26.26 -9.96 25.29 -9.92 24.29 C-9.86 23.26 -9.81 22.24 -9.75 21.19 C-9.71 20.18 -9.67 19.16 -9.63 18.12 C-9.23 10.04 -7.99 6.68 -2 1 C-1 0 -1 0 0 0 Z " fill="#495358" transform="translate(457,612)"/>
<path d="M0 0 C4.27 -0.14 8.54 -0.23 12.81 -0.31 C13.42 -0.33 13.42 -0.33 16.49 -0.44 C17.66 -0.46 18.82 -0.47 20.02 -0.49 C20.56 -0.5 20.56 -0.5 23.27 -0.57 C26 0 26 0 27.87 2.34 C29 5 29 5 29 8 C19.43 8 9.86 8 0 8 C0 5.36 0 2.72 0 0 Z " fill="#4A555A" transform="translate(561,584)"/>
<path d="M0 0 C0.99 0 1.98 0 3 0 C5.01 2.91 5.25 5.38 5.23 8.86 C5.23 9.8 5.23 10.75 5.23 11.72 C5.21 12.72 5.2 13.72 5.19 14.75 C5.18 15.77 5.17 16.79 5.17 17.84 C5.08 26.26 4.68 34.62 4 43 C3.34 43 2.68 43 2 43 C2.04 44.3 2.08 45.6 2.12 46.94 C2.2 49.15 2.2 49.15 2 51 C1.67 51.16 1.67 51.16 0 52 C0 34.84 0 17.68 0 0 Z " fill="#656F74" transform="translate(433,621)"/>
<path d="M0 0 C0.99 0 1.98 0 3 0 C3 29.37 3 58.74 3 89 C2.5 89.16 2.5 89.16 0 90 C0 60.3 0 30.6 0 0 Z " fill="#1F262C" transform="translate(584,322)"/>
<path d="M0 0 C2.03 0.01 4.06 0.01 6.09 0.01 C10.97 0.02 15.86 0.04 20.75 0.06 C20.75 0.39 20.75 0.72 20.75 1.06 C19.73 1.09 18.71 1.11 17.66 1.14 C13.88 1.23 10.11 1.33 6.33 1.43 C4.7 1.48 3.06 1.52 1.43 1.56 C-0.92 1.62 -3.27 1.68 -5.62 1.75 C-6.35 1.76 -7.08 1.78 -7.84 1.8 C-13.02 1.95 -13.02 1.95 -15.25 3.06 C-15.25 3.72 -15.25 4.38 -15.25 5.06 C-11.62 5.23 -11.62 5.23 6.75 6.06 C6.75 6.39 6.75 6.72 6.75 7.06 C-6.03 7.18 -18.79 7.11 -31.56 6.69 C-32.68 6.66 -33.8 6.63 -34.96 6.59 C-36 6.56 -37.04 6.52 -38.11 6.48 C-39.03 6.45 -39.95 6.41 -40.9 6.38 C-43.25 6.06 -43.25 6.06 -46.25 4.06 C-45.26 4.06 -44.27 4.06 -43.25 4.06 C-43.25 3.07 -43.25 2.08 -43.25 1.06 C-28.82 0.18 -14.45 -0.06 0 0 Z " fill="#D4DDE4" transform="translate(531.25,320.9375)"/>
<path d="M0 0 C4.44 -0.03 8.87 -0.05 13.31 -0.06 C14.58 -0.07 15.84 -0.08 17.14 -0.09 C17.74 -0.09 17.74 -0.09 20.8 -0.1 C21.92 -0.1 23.03 -0.11 24.18 -0.11 C27 0 27 0 30 1 C29.67 2.98 29.34 4.96 29 7 C25.05 7.02 21.1 7.04 17.15 7.05 C15.14 7.06 13.13 7.08 11.13 7.09 C10.5 7.09 10.5 7.09 7.32 7.1 C6.74 7.1 6.74 7.1 3.8 7.11 C1 7 1 7 -1 6 C-0.67 4.02 -0.34 2.04 0 0 Z " fill="#666F75" transform="translate(437,303)"/>
<path d="M0 0 C2.97 0 5.94 0 9 0 C8.67 0.66 8.34 1.32 8 2 C7.01 2 6.02 2 5 2 C5 2.99 5 3.98 5 5 C4.67 5.17 4.67 5.17 3 6 C2.88 8.56 2.88 8.56 3 11 C3.82 11.33 3.82 11.33 8 13 C8 14.65 8 16.3 8 18 C10.44 17.81 10.44 17.81 13 17 C13.12 16.2 13.25 15.39 13.38 14.56 C13.48 14.14 13.48 14.14 14 12 C16.31 11.26 18.65 10.59 21 10 C21.33 9.01 21.66 8.02 22 7 C23.94 7.31 23.94 7.31 26 8 C26.33 8.99 26.66 9.98 27 11 C26.18 11.39 25.35 11.78 24.5 12.19 C22 14 22 14 21.69 16.69 C21.79 17.45 21.89 18.21 22 19 C24.31 19 26.62 19 29 19 C29 19.33 29 19.66 29 20 C20.42 20 11.84 20 3 20 C3 19.34 3 18.68 3 18 C2.34 17.67 1.68 17.34 1 17 C0.86 16.18 0.71 15.35 0.56 14.5 C0.38 13.68 0.19 12.85 0 12 C-0.99 11.67 -1.98 11.34 -3 11 C-2.67 10.34 -2.34 9.68 -2 9 C-1.34 9.33 -0.68 9.66 0 10 C-0.33 8.68 -0.66 7.36 -1 6 C-0.34 5.67 0.32 5.34 1 5 C0.67 3.35 0.34 1.7 0 0 Z " fill="#616B72" transform="translate(469,272)"/>
<path d="M0 0 C0.33 0.66 0.66 1.32 1 2 C1.65 2.28 2.31 2.55 2.98 2.84 C5 4 5 4 5.83 6.16 C5.97 6.98 6.11 7.79 6.25 8.62 C6.4 9.44 6.55 10.26 6.7 11.1 C6.8 11.73 6.9 12.35 7 13 C8.32 13 9.64 13 11 13 C11.01 12.69 11.01 12.69 11.04 11.14 C11.44 4.45 11.44 4.45 14.56 1.94 C15.37 1.63 16.17 1.32 17 1 C17.18 4.95 17.09 7.6 15 11 C15.66 11 16.32 11 17 11 C17 12.32 17 13.64 17 15 C18.32 15 19.64 15 21 15 C20.67 13.68 20.34 12.36 20 11 C20.99 11.17 20.99 11.17 26 12 C26.33 11.01 26.66 10.02 27 9 C28.29 7.63 29.62 6.29 31 5 C30.58 9.87 28.55 11.79 25 15 C24.55 15.56 24.09 16.11 23.62 16.69 C18.54 20.79 11.19 20.53 5 20 C1.38 19 1.38 19 -1 18 C2.58 16.76 5.34 17.25 9 18 C8.2 17.36 7.39 16.72 6.56 16.06 C3.25 12.1 3.12 9.03 3 4 C2.01 4 1.02 4 0 4 C0 2.68 0 1.36 0 0 Z " fill="#216C9C" transform="translate(503,373)"/>
<path d="M0 0 C0.99 0 1.98 0.01 3 0.01 C4.04 0.02 5.08 0.03 6.15 0.04 C6.67 0.04 6.67 0.04 9.32 0.05 C11.91 0.06 14.5 0.08 17.09 0.1 C17.09 2.74 17.09 5.38 17.09 8.1 C8.51 8.1 -0.07 8.1 -8.91 8.1 C-5.43 -0.03 -5.43 -0.03 0 0 Z " fill="#4F595F" transform="translate(442.91015625,583.90234375)"/>
<path d="M0 0 C2.97 0 5.94 0 9 0 C8.45 6.48 7.22 12.57 5.7 18.89 C4.87 22.6 4.37 26.22 4 30 C2.68 30 1.36 30 0 30 C0 20.1 0 10.2 0 0 Z " fill="#646E74" transform="translate(466,604)"/>
<path d="M0 0 C2.97 0 5.94 0 9 0 C9 9.9 9 19.8 9 30 C7.68 30 6.36 30 5 30 C4.81 28.76 4.61 27.51 4.41 26.23 C3.05 17.47 1.64 8.72 0 0 Z " fill="#5F6A6F" transform="translate(549,604)"/>
<path d="M0 0 C1.98 0 3.96 0 6 0 C6.62 1.88 6.62 1.88 7 4 C5 6 5 6 3.19 6.81 C1 8 1 8 -1.56 10.62 C-4 13 -4 13 -7 13 C-7 14.32 -7 15.64 -7 17 C-9.81 17.38 -9.81 17.38 -13 17 C-14.88 14 -14.88 14 -16 11 C-15.34 11 -14.68 11 -14 11 C-14.02 10.03 -14.04 9.06 -14.06 8.06 C-14 5 -14 5 -13 4 C-11.54 3.9 -10.08 3.87 -8.62 3.88 C-7.83 3.87 -7.04 3.87 -6.23 3.87 C-4 4 -4 4 -1 5 C-0.67 3.35 -0.34 1.7 0 0 Z " fill="#48535A" transform="translate(529,273)"/>
<path d="M0 0 C2.34 0.26 4.68 0.59 7 1 C7.33 1.66 7.66 2.32 8 3 C8.35 3.55 8.69 4.1 9.05 4.67 C10.38 7.92 10.25 10.71 10.26 14.22 C10.26 14.93 10.27 15.65 10.27 16.39 C10.28 18.77 10.27 21.14 10.27 23.51 C10.27 25.16 10.27 26.8 10.27 28.45 C10.27 31.91 10.27 35.36 10.26 38.81 C10.25 43.24 10.26 47.67 10.27 52.1 C10.28 55.5 10.27 58.9 10.27 62.3 C10.27 63.94 10.27 65.57 10.27 67.21 C10.28 69.49 10.27 71.76 10.26 74.04 C10.26 74.69 10.26 74.69 10.25 77.98 C10 81 10 81 8 83 C8 57.26 8 31.52 8 5 C7.01 4.83 7.01 4.83 2 4 C0.62 1.94 0.62 1.94 0 0 Z " fill="#24292C" transform="translate(429,315)"/>
<path d="M0 0 C26.07 0 52.14 0 79 0 C79 2.64 79 5.28 79 8 C88.57 8 98.14 8 108 8 C108 8.33 108 8.66 108 9 C103.78 9.05 99.57 9.09 95.35 9.11 C93.91 9.12 92.48 9.13 91.04 9.15 C88.98 9.18 86.92 9.19 84.86 9.2 C83.61 9.21 82.37 9.22 81.09 9.23 C78 9 78 9 75 7 C75 6.34 75 5.68 75 5 C71.99 4.07 71.13 3.96 68 5 C67.67 4.67 67.67 4.67 66 3 C57.83 1.61 49.28 1.81 41.02 1.68 C39.83 1.66 38.65 1.64 37.43 1.62 C33.71 1.56 29.98 1.5 26.25 1.44 C23.7 1.39 21.16 1.35 18.61 1.31 C12.41 1.2 6.2 1.1 0 1 C0 0.67 0 0.34 0 0 Z " fill="#5A646A" transform="translate(482,584)"/>
<path d="M0 0 C0 14.85 0 29.7 0 45 C-1.32 44.67 -2.64 44.34 -4 44 C-4.05 38.06 -4.09 32.11 -4.11 26.17 C-4.12 24.14 -4.13 22.12 -4.15 20.1 C-4.18 17.19 -4.19 14.29 -4.2 11.38 C-4.21 10.47 -4.22 9.57 -4.23 8.63 C-4.23 7.79 -4.23 6.95 -4.23 6.08 C-4.23 5.34 -4.24 4.6 -4.24 3.83 C-3.87 1.03 -2.83 0 0 0 Z " fill="#2D3032" transform="translate(485,330)"/>
<path d="M0 0 C4.46 -0.09 8.92 -0.14 13.38 -0.19 C14.65 -0.21 15.92 -0.24 17.23 -0.26 C18.44 -0.27 19.65 -0.28 20.9 -0.29 C22.02 -0.31 23.14 -0.32 24.29 -0.34 C25.19 -0.23 26.08 -0.12 27 0 C27.66 0.99 28.32 1.98 29 3 C31.33 3.4 31.33 3.4 34.28 3.43 C34.83 3.44 34.83 3.44 37.61 3.49 C38.8 3.5 40 3.51 41.23 3.51 C42.44 3.53 43.66 3.55 44.92 3.57 C48.82 3.62 52.72 3.65 56.62 3.69 C59.27 3.72 61.91 3.76 64.55 3.79 C71.03 3.88 77.52 3.94 84 4 C84 4.33 84 4.66 84 5 C76.75 5.15 69.5 5.3 62.25 5.44 C58.88 5.51 55.52 5.58 52.15 5.65 C48.28 5.73 44.41 5.81 40.54 5.88 C39.94 5.89 39.94 5.89 36.88 5.96 C35.76 5.98 34.64 6 33.48 6.02 C32.49 6.04 31.5 6.06 30.49 6.08 C28 6 28 6 25 5 C23.01 4.85 21.01 4.75 19.02 4.68 C17.86 4.64 16.69 4.6 15.49 4.56 C14.89 4.54 14.89 4.54 11.81 4.44 C10.59 4.39 9.36 4.35 8.1 4.31 C5.06 4.2 2.03 4.1 -1 4 C-0.67 2.68 -0.34 1.36 0 0 Z " fill="#46494A" transform="translate(499,256)"/>
<path d="M0 0 C2.88 1 2.88 1 5 2 C5 2.99 5 3.98 5 5 C8.49 5.87 10.57 5.91 14 5 C16.33 4.96 18.67 4.96 21 5 C21 5.99 21 6.98 21 8 C18.69 8 16.38 8 14 8 C13.67 9.32 13.34 10.64 13 12 C12.34 12 11.68 12 11 12 C10.67 12.66 10.34 13.32 10 14 C10 13.01 10 12.02 10 11 C8.68 11.33 7.36 11.66 6 12 C6.33 10.35 6.66 8.7 7 7 C-0.75 7.88 -0.75 7.88 -3 9 C-2.67 8.01 -2.34 7.02 -2 6 C-1.34 6 -0.68 6 0 6 C0 4.68 0 3.36 0 2 C-1.98 2.66 -3.96 3.32 -6 4 C-5.34 4.33 -4.68 4.66 -4 5 C-4.33 5.66 -4.66 6.32 -5 7 C-7 7.04 -9 7.04 -11 7 C-11.33 7.17 -11.33 7.17 -13 8 C-13 9.32 -13 10.64 -13 12 C-15.44 11.69 -15.44 11.69 -18 11 C-18.33 10.01 -18.66 9.02 -19 8 C-22.06 6.81 -22.06 6.81 -25 6 C-25 5.67 -25 5.34 -25 5 C-19.36 4.87 -19.36 4.87 -17.07 5.69 C-14.06 6.14 -12.99 4.89 -10.62 3.06 C-6.89 0.42 -4.69 -0.85 0 0 Z " fill="#46545A" transform="translate(515,266)"/>
<path d="M0 0 C0.66 0 1.32 0 2 0 C2 8.58 2 17.16 2 26 C2.66 25.67 3.32 25.34 4 25 C4 24.34 4 23.68 4 23 C4.66 23 5.32 23 6 23 C6 23.99 6 24.98 6 26 C10.95 26 15.9 26 21 26 C21 25.01 21 24.02 21 23 C21.66 23 22.32 23 23 23 C23 15.41 23 7.82 23 0 C23.33 0 23.66 0 24 0 C24 9.57 24 19.14 24 29 C20.23 29.02 16.45 29.04 12.56 29.06 C11.37 29.07 10.18 29.08 8.95 29.09 C8.49 29.09 8.49 29.09 6.13 29.1 C5.17 29.1 4.21 29.11 3.22 29.11 C1 29 1 29 0 28 C-0.09 25.93 -0.11 23.85 -0.1 21.78 C-0.09 20.52 -0.09 19.26 -0.09 17.96 C-0.08 16.62 -0.07 15.28 -0.06 13.94 C-0.06 12.59 -0.05 11.25 -0.05 9.9 C-0.04 6.6 -0.02 3.3 0 0 Z " fill="#576367" transform="translate(447,664)"/>
<path d="M0 0 C8.19 -0.61 8.19 -0.61 11.81 2.12 C14 5 16 8 18 11 C12.06 11 6.12 11 0 11 C0 7.37 0 3.74 0 0 Z " fill="#6B777C" transform="translate(553,644)"/>
<path d="M0 0 C1.42 0.06 2.85 0.12 4.31 0.19 C4.31 3.82 4.31 7.45 4.31 11.19 C-1.63 11.19 -7.57 11.19 -13.69 11.19 C-5.27 -0.23 -5.27 -0.23 0 0 Z " fill="#7C898F" transform="translate(466.6875,643.8125)"/>
<path d="M0 0 C2.42 3.63 2.29 5.41 2.37 9.73 C2.38 10.41 2.4 11.09 2.41 11.8 C2.46 14.04 2.49 16.29 2.52 18.54 C2.55 20.1 2.57 21.66 2.6 23.22 C2.65 26.49 2.7 29.75 2.74 33.02 C2.8 37.22 2.88 41.42 2.96 45.61 C3.02 48.83 3.07 52.05 3.11 55.27 C3.13 56.82 3.16 58.37 3.19 59.92 C3.24 62.08 3.26 64.23 3.28 66.39 C3.29 67.01 3.29 67.01 3.34 70.12 C3.23 71.07 3.11 72.02 3 73 C2.5 73.33 2.5 73.33 0 75 C0 50.25 0 25.5 0 0 Z " fill="#20242D" transform="translate(576,333)"/>
<path d="M0 0 C2.81 -0.38 2.81 -0.38 6 0 C8.36 3.2 9.07 5.09 8.75 9.06 C8.5 10.03 8.25 11 8 12 C7.81 12.95 7.63 13.9 7.44 14.88 C7.29 15.58 7.15 16.28 7 17 C5.02 17.33 3.04 17.66 1 18 C0.67 16.35 0.34 14.7 0 13 C1.65 12.01 3.3 11.02 5 10 C4.67 9.01 4.34 8.02 4 7 C3.01 6.67 2.02 6.34 1 6 C0.96 6.64 0.92 7.28 0.88 7.94 C0.59 8.62 0.3 9.3 0 10 C-3.06 10.75 -3.06 10.75 -6 11 C-6.88 8.53 -7.09 7.3 -6.31 4.75 C-6.1 4.46 -6.1 4.46 -5 3 C-3.68 3 -2.36 3 -1 3 C-0.67 2.01 -0.34 1.02 0 0 Z " fill="#363E46" transform="translate(490,273)"/>
<path d="M0 0 C2.64 0 5.28 0 8 0 C7.67 1.98 7.34 3.96 7 6 C6.34 6 5.68 6 5 6 C5 4.68 5 3.36 5 2 C4.01 2 3.02 2 2 2 C2.21 2.62 2.41 3.24 2.62 3.88 C2.75 4.58 2.87 5.28 3 6 C2.34 6.66 1.68 7.32 1 8 C1 8.99 1 9.98 1 11 C2.65 11.33 4.3 11.66 6 12 C6 13.98 6 15.96 6 18 C8.31 18.33 10.62 18.66 13 19 C13 19.33 13 19.66 13 20 C6.73 20 0.46 20 -6 20 C-6 19.67 -6 19.34 -6 19 C-4.02 18.34 -2.04 17.68 0 17 C-0.33 15.68 -0.66 14.36 -1 13 C-3.31 13.33 -5.62 13.66 -8 14 C-8 14.99 -8 15.98 -8 17 C-9.65 17 -11.3 17 -13 17 C-12.81 14.56 -12.81 14.56 -12 12 C-10.34 11.62 -8.68 11.29 -7 11 C-6.32 9.68 -5.65 8.34 -5 7 C-2.38 5.75 -2.38 5.75 0 5 C0 3.35 0 1.7 0 0 Z " fill="#5C686E" transform="translate(548,272)"/>
<path d="M0 0 C2.97 0 5.94 0 9 0 C8.63 0.91 8.26 1.81 7.88 2.75 C7 6 7 6 7.88 8.38 C8.25 8.91 8.62 9.45 9 10 C7.75 11.5 7.75 11.5 6 13 C4.68 13 3.36 13 2 13 C1.67 14.65 1.34 16.3 1 18 C-0.98 18 -2.96 18 -5 18 C-5.33 16.68 -5.66 15.36 -6 14 C-5.01 13.34 -4.02 12.68 -3 12 C-1.15 8.19 0 4.25 0 0 Z " fill="#3D474E" transform="translate(456,272)"/>
<path d="M0 0 C16.5 0 33 0 50 0 C50 0.33 50 0.66 50 1 C46.37 1.33 42.74 1.66 39 2 C39 2.66 39 3.32 39 4 C37.7 3.96 36.4 3.92 35.06 3.88 C32.85 3.8 32.85 3.8 31 4 C30.67 4.66 30.34 5.32 30 6 C27.68 6.41 25.34 6.74 23 7 C23 6.34 23 5.68 23 5 C22.34 5 21.68 5 21 5 C21 4.34 21 3.68 21 3 C19.35 3 17.7 3 16 3 C16 2.67 16 2.34 16 2 C10.59 1.88 5.37 2.32 0 3 C0 2.01 0 1.02 0 0 Z " fill="#202B31" transform="translate(486,329)"/>
<path d="M0 0 C0.33 0 0.66 0 1 0 C1 23.1 1 46.2 1 70 C-1.31 70 -3.62 70 -6 70 C-6 69.01 -6 68.02 -6 67 C-4.68 67 -3.36 67 -2 67 C-1.97 65.86 -1.95 64.72 -1.92 63.54 C-1.46 42.35 -0.97 21.17 0 0 Z " fill="#737E84" transform="translate(438,623)"/>
<path d="M0 0 C2.31 0 4.62 0 7 0 C6.81 2.31 6.81 2.31 6 5 C4.34 6.01 2.67 7.01 1 8 C1 9.32 1 10.64 1 12 C-0.98 12.66 -2.96 13.32 -5 14 C-5 15.32 -5 16.64 -5 18 C-5.66 18 -6.32 18 -7 18 C-7.03 17.61 -7.03 17.61 -7.19 15.62 C-8 13 -8 13 -10.56 11.69 C-11.37 11.46 -12.17 11.23 -13 11 C-12.86 10.44 -12.71 9.89 -12.56 9.31 C-11.97 6.89 -11.48 4.45 -11 2 C-10.01 2 -9.02 2 -8 2 C-8 3.32 -8 4.64 -8 6 C-7.01 5.67 -6.02 5.34 -5 5 C-5 5.66 -5 6.32 -5 7 C-3.35 6.34 -1.7 5.68 0 5 C0 3.35 0 1.7 0 0 Z " fill="#3C474E" transform="translate(561,272)"/>
<path d="M0 0 C0.33 0 0.66 0 1 0 C1 12.87 1 25.74 1 39 C-6.92 39 -14.84 39 -23 39 C-23 38.01 -23 37.02 -23 36 C-15.74 36.33 -8.48 36.66 -1 37 C-1.01 34.66 -1.02 32.33 -1.04 29.92 C-1.04 27.65 -1.05 25.39 -1.05 23.12 C-1.06 21.55 -1.07 19.97 -1.08 18.4 C-1.09 16.14 -1.09 13.87 -1.1 11.61 C-1.1 10.91 -1.11 10.21 -1.11 9.48 C-1.11 6.18 -1.03 3.16 0 0 Z " fill="#899193" transform="translate(479,720)"/>
<path d="M0 0 C0.33 0 0.66 0 1 0 C1 9.57 1 19.14 1 29 C-3.95 29 -8.9 29 -14 29 C-14 19.76 -14 10.52 -14 1 C-12.19 4.63 -11.73 5.95 -11.59 9.77 C-11.55 10.66 -11.51 11.54 -11.47 12.46 C-11.44 13.38 -11.41 14.3 -11.38 15.25 C-11.34 16.19 -11.3 17.12 -11.26 18.09 C-11.16 20.39 -11.08 22.7 -11 25 C-8.03 25.33 -5.06 25.66 -2 26 C-1.01 23.02 -0.8 20.8 -0.68 17.68 C-0.64 16.65 -0.6 15.62 -0.56 14.56 C-0.52 13.49 -0.48 12.42 -0.44 11.31 C-0.39 10.23 -0.35 9.15 -0.31 8.03 C-0.2 5.35 -0.1 2.68 0 0 Z " fill="#5C676B" transform="translate(422,664)"/>
<path d="M0 0 C1.32 0.01 2.63 0.01 3.99 0.02 C7.03 0.16 9.74 0.47 12.69 1.19 C12.36 2.18 12.03 3.17 11.69 4.19 C6.41 3.86 1.13 3.53 -4.31 3.19 C-4.31 6.16 -4.31 9.13 -4.31 12.19 C-5.3 12.52 -6.29 12.85 -7.31 13.19 C-7.64 14.18 -7.97 15.17 -8.31 16.19 C-9.3 15.53 -10.29 14.87 -11.31 14.19 C-10.98 13.86 -10.65 13.53 -10.31 13.19 C-10.08 11.67 -9.9 10.15 -9.75 8.62 C-9.67 7.8 -9.58 6.97 -9.5 6.12 C-9.44 5.48 -9.37 4.84 -9.31 4.19 C-10.96 4.19 -12.61 4.19 -14.31 4.19 C-14.31 3.86 -14.31 3.53 -14.31 3.19 C-13.53 3.06 -12.75 2.94 -11.94 2.81 C-0.12 -0 -0.12 -0 0 0 Z " fill="#21313C" transform="translate(524.3125,331.8125)"/>
<path d="M0 0 C-1.19 2 -1.19 2 -3 4 C-5.69 4.25 -5.69 4.25 -8 4 C-7 5 -7 5 -5.38 6.31 C-4 8 -4 8 -3.88 10.06 C-5 12 -5 12 -8.19 13.31 C-11.91 13.98 -14.36 13.89 -18 13 C-17.34 12.67 -16.68 12.34 -16 12 C-15.88 9.44 -15.88 9.44 -16 7 C-14.02 6.34 -12.04 5.68 -10 5 C-10.33 3.68 -10.66 2.36 -11 1 C-6.88 -0.63 -4.29 -1.26 0 0 Z " fill="#48535A" transform="translate(513,278)"/>
<path d="M0 0 C0.94 2.44 0.94 2.44 1 5 C-2 7 -2 7 -5 7 C-5.12 7.62 -5.25 8.24 -5.38 8.88 C-6 11 -6 11 -8 13 C-10.12 12.62 -10.12 12.62 -12 12 C-11.81 11.11 -11.63 10.23 -11.44 9.31 C-11.02 6.14 -11.3 4.08 -12 1 C-9.41 -1.59 -3.15 -1.7 0 0 Z " fill="#364148" transform="translate(548,272)"/>
<path d="M0 0 C0.88 1.94 0.88 1.94 1 4 C0.34 4.66 -0.32 5.32 -1 6 C-0.67 6.66 -0.34 7.32 0 8 C-6.62 8.25 -6.62 8.25 -10 6 C-10 6.66 -10 7.32 -10 8 C-13.3 8 -16.6 8 -20 8 C-20 7.67 -20 7.34 -20 7 C-18.35 6.67 -16.7 6.34 -15 6 C-16.32 6 -17.64 6 -19 6 C-19 4.35 -19 2.7 -19 1 C-17.02 0.67 -15.04 0.34 -13 0 C-12.67 0.66 -12.34 1.32 -12 2 C-12.33 2.66 -12.66 3.32 -13 4 C-12.01 3.67 -11.02 3.34 -10 3 C-9.34 3.33 -8.68 3.66 -8 4 C-8 3.01 -8 2.02 -8 1 C-5.19 -1.01 -3.17 -1.53 0 0 Z " fill="#333E45" transform="translate(548,285)"/>
<path d="M0 0 C5.88 0.88 5.88 0.88 7 2 C7.14 4.67 7.04 7.32 7 10 C6.34 10 5.68 10 5 10 C4.89 10.64 4.78 11.28 4.67 11.93 C4.51 12.76 4.35 13.59 4.19 14.44 C4.04 15.26 3.89 16.08 3.73 16.93 C3.49 17.62 3.25 18.3 3 19 C2.01 19.33 1.02 19.66 0 20 C-0.84 13.1 -1.02 6.89 0 0 Z " fill="#212C35" transform="translate(510,365)"/>
<path d="M0 0 C0.89 0 1.79 0.01 2.71 0.01 C3.17 0.01 3.17 0.01 5.52 0.04 C6.46 0.04 7.4 0.04 8.37 0.05 C10.69 0.06 13.01 0.08 15.33 0.1 C15 0.76 14.67 1.42 14.33 2.1 C14.66 3.43 14.99 4.77 15.33 6.1 C13.66 7.77 11.59 7.16 9.33 7.1 C8.21 3.35 8.21 3.35 9.33 1.1 C6.36 1.1 3.39 1.1 0.33 1.1 C0.66 3.08 0.99 5.06 1.33 7.1 C-1.15 8.02 -2.18 8.35 -4.59 7.1 C-5.19 6.63 -5.8 6.15 -6.42 5.66 C-7.03 5.19 -7.65 4.71 -8.28 4.23 C-8.74 3.85 -9.2 3.48 -9.67 3.1 C-6.65 0.08 -4.07 -0.03 0 0 Z " fill="#2C353B" transform="translate(455.66796875,270.90234375)"/>
<path d="M0 0 C0.66 0 1.32 0 2 0 C3.16 5.78 3.41 11.57 3.69 17.44 C3.75 18.45 3.81 19.46 3.87 20.5 C4.14 26.16 3.96 30.67 2 36 C1.34 36 0.68 36 0 36 C0 24.12 0 12.24 0 0 Z " fill="#232729" transform="translate(426,275)"/>
<path d="M0 0 C2.06 3.09 2.25 3.71 2.23 7.2 C2.23 8.04 2.23 8.88 2.23 9.74 C2.22 10.65 2.21 11.55 2.2 12.48 C2.19 13.41 2.19 14.34 2.19 15.29 C2.18 18.26 2.15 21.22 2.12 24.19 C2.11 26.2 2.11 28.21 2.1 30.22 C2.08 35.14 2.04 40.07 2 45 C1.67 45 1.34 45 1 45 C1 31.47 1 17.94 1 4 C-2 5 -2 5 -4 7 C-4 5.68 -4 4.36 -4 3 C-4.85 2.95 -5.71 2.9 -6.59 2.85 C-7.14 2.81 -7.14 2.81 -9.94 2.62 C-11.04 2.56 -12.14 2.49 -13.28 2.41 C-14.18 2.28 -15.07 2.14 -16 2 C-16.33 1.34 -16.66 0.68 -17 0 C-15.11 -0.2 -13.21 -0.38 -11.31 -0.56 C-10.78 -0.61 -10.78 -0.61 -8.11 -0.88 C-5.13 -0.99 -2.84 -0.91 0 0 Z " fill="#39434C" transform="translate(541,330)"/>
<path d="M0 0 C0.98 0.16 1.96 0.33 2.97 0.5 C7.14 1.09 11.23 1.11 15.44 1.06 C16.17 1.06 16.9 1.05 17.65 1.05 C19.44 1.04 21.22 1.02 23 1 C23 1.66 23 2.32 23 3 C22.01 3.33 21.02 3.66 20 4 C20.99 4.33 21.98 4.66 23 5 C23 5.66 23 6.32 23 7 C14.64 7.32 7.78 7.22 0 4 C0 2.67 0 1.33 0 0 Z " fill="#25313D" transform="translate(497,392)"/>
<path d="M0 0 C4.95 0 9.9 0 15 0 C15 2.97 15 5.94 15 9 C14.34 9 13.68 9 13 9 C13 6.69 13 4.38 13 2 C9.04 2 5.08 2 1 2 C0.95 7.54 0.91 13.07 0.89 18.61 C0.88 20.49 0.87 22.38 0.85 24.26 C0.82 26.97 0.81 29.67 0.8 32.37 C0.79 33.22 0.78 34.07 0.77 34.94 C0.77 36.96 0.88 38.98 1 41 C1.66 41.33 2.32 41.66 3 42 C4.69 44.94 4.69 44.94 6 48 C5.67 48.66 5.34 49.32 5 50 C0.39 44.01 -0.71 39.5 -0.49 32.03 C-0.48 31.11 -0.47 30.19 -0.47 29.24 C-0.44 26.33 -0.38 23.41 -0.31 20.5 C-0.29 18.51 -0.26 16.53 -0.24 14.54 C-0.19 9.69 -0.1 4.85 0 0 Z " fill="#35709D" transform="translate(488,335)"/>
<path d="M0 0 C-0.06 0.56 -0.12 1.12 -0.18 1.7 C-0.66 6.48 -1.02 11.21 -1.11 16.01 C-1.14 16.89 -1.16 17.77 -1.18 18.68 C-1.23 20.46 -1.25 22.23 -1.26 24 C-1.38 28.23 -1.47 31.01 -4.55 34.1 C-5.36 34.73 -6.17 35.35 -7 36 C-7.66 35.67 -8.32 35.34 -9 35 C-7.62 33 -7.62 33 -6 31 C-5.34 31 -4.68 31 -4 31 C-4 25.06 -4 19.12 -4 13 C-4.33 13 -4.66 13 -5 13 C-4.96 12.2 -4.92 11.39 -4.88 10.56 C-4.92 9.72 -4.96 8.87 -5 8 C-5.66 7.67 -6.32 7.34 -7 7 C-6.04 4.12 -3.56 0 0 0 Z " fill="#4E595F" transform="translate(425,605)"/>
<path d="M0 0 C0.33 0 0.66 0 1 0 C1.05 3.97 1.09 7.94 1.11 11.91 C1.12 13.26 1.13 14.61 1.15 15.96 C1.18 17.9 1.19 19.84 1.2 21.78 C1.21 22.95 1.22 24.11 1.23 25.32 C1.19 25.76 1.19 25.76 1 28 C-1.75 29.37 -4 29.13 -7.06 29.12 C-7.6 29.13 -7.6 29.13 -10.35 29.13 C-13 29 -13 29 -14 28 C-14.09 26.66 -14.11 25.31 -14.1 23.96 C-14.09 23.16 -14.09 22.35 -14.09 21.51 C-14.08 20.66 -14.07 19.81 -14.06 18.94 C-14.06 18.08 -14.05 17.23 -14.05 16.35 C-14.04 14.23 -14.02 12.12 -14 10 C-10.71 13.29 -11.54 17.64 -11.34 22.13 C-11.29 22.6 -11.29 22.6 -11 25 C-9 26 -9 26 0 27 C0 18.09 0 9.18 0 0 Z " fill="#566368" transform="translate(615,664)"/>
<path d="M0 0 C0.99 0 1.98 0 3 0 C4.41 9.22 4.18 14.68 -1.61 22.04 C-3.03 23.74 -4.49 25.38 -6 27 C-6.66 25.68 -7.32 24.36 -8 23 C-6.68 23 -5.36 23 -4 23 C-4.04 21.89 -4.08 20.77 -4.12 19.62 C-4 16 -4 16 -2 14 C-1.54 11.64 -1.18 9.26 -0.88 6.88 C-0.71 5.59 -0.54 4.31 -0.37 2.99 C-0.25 2 -0.12 1.02 0 0 Z " fill="#252E35" transform="translate(538,366)"/>
<path d="M0 0 C0.66 0 1.32 0 2 0 C2.66 1.65 3.32 3.3 4 5 C5.98 4.67 7.96 4.34 10 4 C10 6.31 10 8.62 10 11 C2.15 11.3 2.15 11.3 -1 9 C-1.33 8.01 -1.66 7.02 -2 6 C-3.32 6.33 -4.64 6.66 -6 7 C-5.67 6.01 -5.34 5.02 -5 4 C-3.67 3.67 -2.33 3.33 -1 3 C-0.67 2.01 -0.34 1.02 0 0 Z " fill="#3C4A52" transform="translate(413,644)"/>
<path d="M0 0 C5.23 0.09 10.47 0.2 15.7 0.32 C17.48 0.36 19.26 0.39 21.04 0.42 C23.6 0.47 26.15 0.53 28.71 0.59 C29.51 0.6 30.31 0.61 31.13 0.62 C36.77 0.77 36.77 0.77 39 3 C34.55 3.17 30.11 3.33 25.66 3.48 C24.15 3.54 22.64 3.59 21.12 3.65 C18.95 3.73 16.77 3.81 14.59 3.88 C13.93 3.9 13.93 3.9 10.62 4.02 C7.28 4 4.27 3.66 1 3 C1 4.65 1 6.3 1 8 C0.67 8 0.34 8 0 8 C0 5.36 0 2.72 0 0 Z " fill="#4B5559" transform="translate(481,584)"/>
<path d="M0 0 C2.48 -0.03 4.96 -0.05 7.44 -0.06 C8.14 -0.07 8.85 -0.08 9.58 -0.09 C14.89 -0.11 14.89 -0.11 16 1 C16.09 3.74 16.12 6.45 16.1 9.19 C16.1 10.01 16.09 10.83 16.09 11.68 C16.09 14.3 16.08 16.93 16.06 19.56 C16.06 21.34 16.05 23.12 16.05 24.9 C16.04 29.26 16.02 33.63 16 38 C15.67 38 15.34 38 15 38 C14.67 26.12 14.34 14.24 14 2 C9.71 2 5.42 2 1 2 C1 4.31 1 6.62 1 9 C0.67 9 0.34 9 0 9 C0 6.03 0 3.06 0 0 Z " fill="#2B6288" transform="translate(521,335)"/>
<path d="M0 0 C3.18 4.77 2.53 10.03 2.69 15.66 C2.75 17.73 2.83 19.8 2.92 21.87 C2.96 23.18 3 24.5 3.05 25.86 C3.09 27.06 3.13 28.26 3.17 29.5 C2.98 33.37 2.2 36.34 1 40 C0.67 40 0.34 40 0 40 C0 26.8 0 13.6 0 0 Z " fill="#1F2227" transform="translate(397,652)"/>
<path d="M0 0 C1 3 1 3 -0.62 5.94 C-5.28 11.94 -9.79 14.6 -17.46 15.19 C-22.38 15.31 -26.4 14.94 -31 13 C-28.43 12.11 -27.02 12 -24.31 12.56 C-20.49 13.07 -17.74 12.43 -14.05 11.47 C-12 11 -12 11 -9 11 C-9.33 9.35 -9.66 7.7 -10 6 C-9.01 6.17 -9.01 6.17 -4 7 C-3.67 6.01 -3.34 5.02 -3 4 C-2.03 2.64 -1.04 1.31 0 0 Z " fill="#2B6B94" transform="translate(533,378)"/>
<path d="M0 0 C1.94 0.25 1.94 0.25 4 1 C4.66 1.99 5.32 2.98 6 4 C5.01 4.33 4.02 4.66 3 5 C3 5.99 3 6.98 3 8 C1.68 8 0.36 8 -1 8 C-1 9.32 -1 10.64 -1 12 C-2.98 12 -4.96 12 -7 12 C-7 10.68 -7 9.36 -7 8 C-5.35 7.67 -3.7 7.34 -2 7 C-2 6.01 -2 5.02 -2 4 C-3.98 4 -5.96 4 -8 4 C-6.75 2.5 -6.75 2.5 -5 1 C-3.68 1 -2.36 1 -1 1 C-0.67 0.67 -0.34 0.34 0 0 Z " fill="#2C363E" transform="translate(446,278)"/>
<path d="M0 0 C0 0.99 0 1.98 0 3 C-7.92 3 -15.84 3 -24 3 C-24 1.68 -24 0.36 -24 -1 C-22.87 -0.99 -21.74 -0.98 -20.57 -0.96 C-19.09 -0.96 -17.61 -0.95 -16.12 -0.94 C-15.38 -0.93 -14.63 -0.92 -13.86 -0.91 C-2.33 -0.86 -2.33 -0.86 0 0 Z " fill="#444F53" transform="translate(590,589)"/>
<path d="M0 0 C1.98 0 3.96 0 6 0 C6.62 1.88 6.62 1.88 7 4 C5 6 5 6 3.06 6.88 C1 8 1 8 -0.5 10.19 C-0.75 10.49 -0.75 10.49 -2 12 C-4.12 12 -4.12 12 -6 11 C-6.75 8.94 -6.75 8.94 -7 7 C-3.25 5 -3.25 5 -1 5 C-0.67 3.35 -0.34 1.7 0 0 Z " fill="#2E3940" transform="translate(529,273)"/>
<path d="M0 0 C3.72 2.32 6.61 4.29 9 8 C7.68 7.67 6.36 7.34 5 7 C3.77 11.77 3.89 16.42 3.94 21.31 C3.94 22.15 3.95 22.98 3.95 23.85 C3.96 25.9 3.98 27.95 4 30 C3.34 30 2.68 30 2 30 C1.97 29.46 1.97 29.46 1.82 26.74 C1.31 17.82 0.73 8.91 0 0 Z " fill="#4D5A60" transform="translate(600,607)"/>
<path d="M0 0 C-0.75 4.75 -0.75 4.75 -3 7 C-5.12 7.62 -5.12 7.62 -7 8 C-7 8.99 -7 9.98 -7 11 C-8.65 11.66 -10.3 12.32 -12 13 C-12.62 11.19 -12.62 11.19 -13 9 C-12.34 8.01 -11.68 7.02 -11 6 C-10.01 6 -9.02 6 -8 6 C-8.33 4.68 -8.66 3.36 -9 2 C-5.56 -0.29 -4.01 -0.18 0 0 Z " fill="#27323A" transform="translate(510,272)"/>
<path d="M0 0 C2.97 0 5.94 0 9 0 C8.67 0.66 8.34 1.32 8 2 C7.01 2 6.02 2 5 2 C5 2.99 5 3.98 5 5 C4.67 5.17 4.67 5.17 3 6 C2.88 8.56 2.88 8.56 3 11 C3.82 11.33 3.82 11.33 8 13 C7.67 14.65 7.34 16.3 7 18 C5.19 17.81 5.19 17.81 3 17 C1.97 15.35 0.97 13.68 0 12 C-0.99 11.67 -1.98 11.34 -3 11 C-2.67 10.34 -2.34 9.68 -2 9 C-1.34 9.33 -0.68 9.66 0 10 C-0.33 8.68 -0.66 7.36 -1 6 C-0.34 5.67 0.32 5.34 1 5 C0.67 3.35 0.34 1.7 0 0 Z " fill="#6C767C" transform="translate(469,272)"/>
<path d="M0 0 C-0.33 1.32 -0.66 2.64 -1 4 C0.32 4 1.64 4 3 4 C3 4.66 3 5.32 3 6 C3.63 5.97 4.25 5.93 4.9 5.89 C5.72 5.87 6.53 5.84 7.38 5.81 C8.19 5.78 9 5.74 9.84 5.71 C10.55 5.8 11.26 5.9 12 6 C12.33 6.5 12.33 6.5 14 9 C16.12 10.19 16.12 10.19 18 11 C12.9 12.67 8.06 11.39 3 10 C-0.44 8.01 -1.65 7.07 -2.88 3.31 C-2.92 2.55 -2.96 1.79 -3 1 C-2 0 -2 0 0 0 Z " fill="#2475A4" transform="translate(496,380)"/>
<path d="M0 0 C2.97 0 5.94 0 9 0 C9 0.33 9 0.66 9 1 C6.69 1 4.38 1 2 1 C2 3.64 2 6.28 2 9 C3.98 8.84 3.98 8.84 14 8 C13.01 7.34 12.02 6.68 11 6 C11.33 5.01 11.66 4.02 12 3 C13 4.14 14 5.29 15 6.44 C15.56 7.08 16.11 7.71 16.69 8.37 C18 10 18 10 18 11 C12.06 11 6.12 11 0 11 C0 7.37 0 3.74 0 0 Z " fill="#727F85" transform="translate(553,644)"/>
<path d="M0 0 C7.88 -0.12 7.88 -0.12 9 1 C9.14 2.15 9.29 3.31 9.44 4.5 C9.62 5.65 9.81 6.81 10 8 C10.66 8.33 11.32 8.66 12 9 C11.67 10.32 11.34 11.64 11 13 C10.01 12.67 9.02 12.34 8 12 C8 11.34 8 10.68 8 10 C7.34 10 6.68 10 6 10 C4.49 7.81 4.49 7.81 2.88 5 C2.34 4.07 1.8 3.14 1.24 2.19 C0.83 1.47 0.42 0.74 0 0 Z " fill="#58666C" transform="translate(573,604)"/>
<path d="M0 0 C0.38 2.33 0.71 4.66 1 7 C-0.68 8.68 -2.77 8.09 -5.06 8.06 C-5.98 8.05 -6.9 8.04 -7.85 8.04 C-8.56 8.02 -9.27 8.01 -10 8 C-10 7.01 -10 6.02 -10 5 C-9.34 5 -8.68 5 -8 5 C-8 4.01 -8 3.02 -8 2 C-5.07 0.01 -3.69 0 0 0 Z " fill="#758186" transform="translate(468,645)"/>
<path d="M0 0 C4.04 1.22 7.55 2.54 11 5 C11.33 5.99 11.66 6.98 12 8 C8.04 10.76 4.78 11.53 0 12 C-0.33 11.34 -0.66 10.68 -1 10 C0.65 9.34 2.3 8.68 4 8 C4 7.01 4 6.02 4 5 C3.01 4.34 2.02 3.68 1 3 C0.67 2.01 0.34 1.02 0 0 Z " fill="#5F6A70" transform="translate(504,281)"/>
<path d="M0 0 C0.33 0 0.66 0 1 0 C1.02 5.28 1.04 10.57 1.05 15.85 C1.06 17.65 1.07 19.44 1.08 21.24 C1.09 23.83 1.09 26.41 1.1 29 C1.1 29.8 1.11 30.59 1.11 31.41 C1.11 36.05 0.77 40.43 0 45 C-0.99 45 -1.98 45 -3 45 C-3 45.66 -3 46.32 -3 47 C-3.66 46.67 -4.32 46.34 -5 46 C-4.72 45.49 -4.44 44.99 -4.15 44.47 C0.04 35.73 -0.33 26.86 -0.25 17.38 C-0.22 15.69 -0.19 14 -0.16 12.31 C-0.09 8.21 -0.04 4.1 0 0 Z " fill="#1D374E" transform="translate(537,337)"/>
<path d="M0 0 C0.12 2.94 0.12 2.94 0 6 C-0.33 6.17 -0.33 6.17 -2 7 C-2.41 9.94 -2.41 9.94 -2.62 13.56 C-2.7 14.76 -2.77 15.96 -2.85 17.19 C-2.9 18.12 -2.95 19.05 -3 20 C-3.66 20 -4.32 20 -5 20 C-5.03 16.85 -5.05 13.71 -5.06 10.56 C-5.07 9.66 -5.08 8.77 -5.09 7.84 C-5.09 6.99 -5.09 6.13 -5.1 5.25 C-5.1 4.86 -5.1 4.86 -5.11 2.86 C-4.89 -0.76 -3.79 0 0 0 Z " fill="#F8FCFE" transform="translate(471,424)"/>
<path d="M0 0 C0 4.62 0 9.24 0 14 C-1.98 14 -3.96 14 -6 14 C-5.68 13.91 -5.68 13.91 -4.06 13.44 C-2 12 -2 12 -1.25 8.38 C-1.17 7.26 -1.09 6.15 -1 5 C-4.26 6.8 -5.89 7.83 -8 11 C-8.66 9.68 -9.32 8.36 -10 7 C-9.34 6.38 -8.68 5.76 -8 5.12 C-6 3 -6 3 -6 1 C-3 0 -3 0 0 0 Z " fill="#47565B" transform="translate(587,278)"/>
<path d="M0 0 C2.97 0 5.94 0 9 0 C9 9.9 9 19.8 9 30 C7.68 30 6.36 30 5 30 C5 27.36 5 24.72 5 22 C5.33 22 5.66 22 6 22 C6 24.31 6 26.62 6 29 C6.66 29 7.32 29 8 29 C8 19.76 8 10.52 8 1 C3 2 3 2 1.69 4.06 C1.46 4.7 1.23 5.34 1 6 C0.67 4.02 0.34 2.04 0 0 Z " fill="#6E7A80" transform="translate(549,604)"/>
<path d="M0 0 C0 0.99 0 1.98 0 3 C-2.31 3 -4.62 3 -7 3 C-7.33 4.32 -7.66 5.64 -8 7 C-8.66 7 -9.32 7 -10 7 C-10.33 7.66 -10.66 8.32 -11 9 C-11 8.01 -11 7.02 -11 6 C-12.32 6.33 -13.64 6.66 -15 7 C-14.67 5.02 -14.34 3.04 -14 1 C-9.28 0.23 -4.78 -0.1 0 0 Z " fill="#5A646B" transform="translate(536,271)"/>
<path d="M0 0 C2.97 0 5.94 0 9 0 C8.67 0.99 8.34 1.98 8 3 C8 2.34 8 1.68 8 1 C6.02 1.33 4.04 1.66 2 2 C1.97 4.1 1.95 6.21 1.94 8.31 C1.93 9.48 1.91 10.66 1.9 11.86 C2 15 2 15 3 18 C2.34 18 1.68 18 1 18 C1 21.63 1 25.26 1 29 C1.66 29 2.32 29 3 29 C3.33 28.01 3.66 27.02 4 26 C4 27.32 4 28.64 4 30 C2.68 30 1.36 30 0 30 C0 20.1 0 10.2 0 0 Z " fill="#6D767D" transform="translate(466,604)"/>
<path d="M0 0 C0.57 0.3 1.15 0.59 1.74 0.9 C10.76 5.3 19.17 6.07 29 4 C24.67 8.33 18.5 7.31 12.76 7.22 C8.08 6.95 5.08 6.28 1 4 C0.3 1.89 0.3 1.89 0 0 Z " fill="#1B3856" transform="translate(495,387)"/>
<path d="M0 0 C0 2.64 0 5.28 0 8 C-3.75 9.12 -3.75 9.12 -6 8 C-6.19 4.5 -6.19 4.5 -6 1 C-4.32 -0.68 -2.25 -0.06 0 0 Z " fill="#CEE0E5" transform="translate(515,336)"/>
<path d="M0 0 C2.64 0 5.28 0 8 0 C8 1.98 8 3.96 8 6 C6.02 6.66 4.04 7.32 2 8 C0.74 5.09 0 3.2 0 0 Z " fill="#27333A" transform="translate(554,271)"/>
<path d="M0 0 C0.6 0.64 1.2 1.28 1.81 1.94 C4 4 4 4 7 5 C8.19 8.06 8.19 8.06 9 11 C4.32 10.72 2.25 8.67 -0.86 5.47 C-2 4 -2 4 -2 2 C-1.34 2 -0.68 2 0 2 C0 1.34 0 0.68 0 0 Z " fill="#232933" transform="translate(489,383)"/>
<path d="M0 0 C0.33 0 0.66 0 1 0 C1.14 4.93 1.29 9.86 1.43 14.79 C1.48 16.47 1.52 18.14 1.57 19.82 C1.64 22.23 1.71 24.64 1.78 27.05 C1.8 27.8 1.82 28.55 1.85 29.32 C1.93 32.22 2 35.11 2 38 C1.67 38.16 1.67 38.16 0 39 C0 38.34 0 37.68 0 37 C-0.66 36.67 -1.32 36.34 -2 36 C-1.84 35.84 -1.84 35.84 -1 35 C-0.84 32.41 -0.74 29.84 -0.68 27.25 C-0.66 26.47 -0.64 25.7 -0.62 24.9 C-0.56 22.41 -0.5 19.92 -0.44 17.44 C-0.39 15.76 -0.35 14.07 -0.31 12.39 C-0.2 8.26 -0.1 4.13 0 0 Z " fill="#212A2F" transform="translate(601,729)"/>
<path d="M0 0 C0 1.65 0 3.3 0 5 C-0.99 5.33 -1.98 5.66 -3 6 C-3.16 6.66 -3.33 7.32 -3.5 8 C-3.66 8.66 -3.83 9.32 -4 10 C-4.99 10.33 -5.98 10.66 -7 11 C-7.81 8.31 -7.81 8.31 -8 5 C-4.09 0 -4.09 0 0 0 Z " fill="#202D42" transform="translate(534,384)"/>
<path d="M0 0 C0.66 0.33 1.32 0.66 2 1 C1.5 1.41 1.01 1.82 0.5 2.25 C-1 4 -1 4 -1 8 C-3.44 7.69 -3.44 7.69 -6 7 C-6.33 6.01 -6.66 5.02 -7 4 C-10.06 2.81 -10.06 2.81 -13 2 C-13 1.67 -13 1.34 -13 1 C-7.44 0.87 -7.44 0.87 -4.81 1.62 C-3 2 -3 2 0 0 Z " fill="#5C666E" transform="translate(503,270)"/>
<path d="M0 0 C2.31 0 4.62 0 7 0 C6.81 2.31 6.81 2.31 6 5 C4.34 6.01 2.67 7.01 1 8 C1 9.32 1 10.64 1 12 C-0.32 11.67 -1.64 11.34 -3 11 C-2.34 11 -1.68 11 -1 11 C-0.67 7.37 -0.34 3.74 0 0 Z " fill="#525F65" transform="translate(561,272)"/>
<path d="M0 0 C2 0.12 2 0.12 4 1 C5.25 3.06 5.25 3.06 6 5 C5.01 5.99 4.02 6.98 3 8 C-0.76 6.54 -0.76 6.54 -1.88 4 C-1.92 3.34 -1.96 2.68 -2 2 C-1.34 1.34 -0.68 0.68 0 0 Z " fill="#262E35" transform="translate(459,277)"/>
<path d="M0 0 C0.88 6.54 1.35 11.77 -1 18 C-1.66 18 -2.32 18 -3 18 C-3 14.37 -3 10.74 -3 7 C-2.34 7 -1.68 7 -1 7 C-1.19 6.03 -1.37 5.06 -1.56 4.06 C-1.71 3.05 -1.85 2.04 -2 1 C-1 0 -1 0 0 0 Z " fill="#5E666D" transform="translate(470,615)"/>
<path d="M0 0 C1.94 0.14 3.88 0.29 5.81 0.44 C6.35 0.48 6.35 0.48 9.08 0.68 C12 1 12 1 15 2 C15 2.66 15 3.32 15 4 C10.38 4 5.76 4 1 4 C0.67 2.68 0.34 1.36 0 0 Z " fill="#2E353A" transform="translate(505,395)"/>
<path d="M0 0 C3.65 1.25 4.78 1.67 7 5 C7.44 8.5 7.44 8.5 7 12 C4.5 13.94 4.5 13.94 2 15 C2 14.34 2 13.68 2 13 C2.66 13 3.32 13 4 13 C3.67 12.01 3.34 11.02 3 10 C2.86 8.85 2.71 7.69 2.56 6.5 C2 3 2 3 0 0 Z " fill="#1D3A5A" transform="translate(513,362)"/>
<path d="M0 0 C0.33 0.66 0.66 1.32 1 2 C1.65 2.28 2.31 2.55 2.98 2.84 C5 4 5 4 5.83 6.16 C5.97 6.98 6.11 7.79 6.25 8.62 C6.4 9.44 6.55 10.26 6.7 11.1 C6.8 11.73 6.9 12.35 7 13 C8.65 13 10.3 13 12 13 C11.67 14.32 11.34 15.64 11 17 C8.62 16.69 8.62 16.69 6 16 C3.98 12.96 3.68 11.81 3.38 8.31 C3.3 7.5 3.23 6.7 3.15 5.86 C3.12 5.56 3.12 5.56 3 4 C2.01 4 1.02 4 0 4 C0 2.68 0 1.36 0 0 Z " fill="#326D94" transform="translate(503,373)"/>
<path d="M0 0 C2.19 0.88 2.19 0.88 4 2 C3.67 3.65 3.34 5.3 3 7 C1.02 7 -0.96 7 -3 7 C-3.19 4.62 -3.19 4.62 -3 2 C-2.01 1.34 -1.02 0.68 0 0 Z " fill="#252D32" transform="translate(467,283)"/>
<path d="M0 0 C7.92 0.66 15.84 1.32 24 2 C24 2.33 24 2.66 24 3 C16.08 3 8.16 3 0 3 C0 2.01 0 1.02 0 0 Z " fill="#8B969A" transform="translate(456,756)"/>
<path d="M0 0 C1.92 2.78 2.06 3.75 1.31 7.12 C0 10 0 10 -3 12 C-4.13 8.5 -4.09 7.21 -2.62 3.75 C-1 1 -1 1 0 0 Z " fill="#283232" transform="translate(429,577)"/>
<path d="M0 0 C10.56 -0.18 10.56 -0.18 15 1 C14.67 1.99 14.34 2.98 14 4 C9.05 3.67 4.1 3.34 -1 3 C-0.67 2.01 -0.34 1.02 0 0 Z " fill="#20354B" transform="translate(522,332)"/>
<path d="M0 0 C2.62 0.38 2.62 0.38 5 1 C4.81 3.44 4.81 3.44 4 6 C1.44 6.81 1.44 6.81 -1 7 C-1.62 4.62 -1.62 4.62 -2 2 C-1.34 1.34 -0.68 0.68 0 0 Z " fill="#232D34" transform="translate(557,284)"/>
<path d="M0 0 C3.26 0.42 4.63 0.63 7 3 C5.68 4.32 4.36 5.64 3 7 C1 6.25 1 6.25 -1 5 C-1 1 -1 1 0 0 Z " fill="#28333C" transform="translate(563,278)"/>
<path d="M0 0 C1.98 0 3.96 0 6 0 C6.62 1.88 6.62 1.88 7 4 C6.34 4.66 5.68 5.32 5 6 C1.88 5.62 1.88 5.62 -1 5 C-0.67 3.35 -0.34 1.7 0 0 Z " fill="#282F38" transform="translate(529,273)"/>
<path d="M0 0 C0.38 2.69 0.38 2.69 0 6 C-1.82 8.06 -3.73 9.39 -6 11 C-6.68 9.23 -6.68 9.23 -7 7 C-5.82 5.08 -5.82 5.08 -4.12 3.25 C-3.57 2.64 -3.02 2.02 -2.45 1.39 C-1 0 -1 0 0 0 Z " fill="#2D3133" transform="translate(407,606)"/>
<path d="M0 0 C0 2.31 0 4.62 0 7 C-1.65 7.33 -3.3 7.66 -5 8 C-5.75 5.69 -5.75 5.69 -6 3 C-3.99 0.99 -2.89 0 0 0 Z " fill="#243037" transform="translate(586,283)"/>
<path d="M0 0 C3.04 -0.41 5.92 -0.13 9 0 C9 3.63 9 7.26 9 11 C4.71 11 0.42 11 -4 11 C-4 10.67 -4 10.34 -4 10 C-0.04 10 3.92 10 8 10 C8 7.03 8 4.06 8 1 C4.7 1.66 1.4 2.32 -2 3 C-1.34 2.01 -0.68 1.02 0 0 Z " fill="#849196" transform="translate(462,644)"/>
<path d="M0 0 C0.7 0.08 1.4 0.17 2.12 0.25 C3.03 0.36 3.94 0.46 4.88 0.56 C5.78 0.67 6.68 0.77 7.62 0.88 C10 1 10 1 12 0 C14.33 -0.04 16.67 -0.04 19 0 C19 0.66 19 1.32 19 2 C12.74 4.09 6.06 3.55 0 1 C0 0.67 0 0.34 0 0 Z " fill="#30658E" transform="translate(502,390)"/>
<path d="M0 0 C0.33 0 0.66 0 1 0 C1.77 9.96 1.77 9.96 -1 13.69 C-5.09 15.48 -7.55 15.5 -12 15 C-13.74 13.47 -13.74 13.47 -15 12 C-14.69 12.04 -14.69 12.04 -13.14 12.22 C-12.33 12.31 -11.52 12.4 -10.69 12.5 C-9.89 12.59 -9.09 12.69 -8.26 12.78 C-6 13 -6 13 -3 13 C-3 12.01 -3 11.02 -3 10 C-2.34 9.67 -1.68 9.34 -1 9 C-0.59 6.93 -0.59 6.93 -0.38 4.44 C-0.3 3.61 -0.23 2.78 -0.15 1.93 C-0.1 1.3 -0.05 0.66 0 0 Z " fill="#163C5B" transform="translate(520,335)"/>
</svg>
