<?xml version="1.0" encoding="UTF-8"?>
<!-- Generator: visioncortex VTracer 0.6.12 -->
<svg version="1.1" xmlns="http://www.w3.org/2000/svg" width="1024" height="1024" viewBox="0 0 1024 1024">
<path d="M0 0 C337.92 0 675.84 0 1024 0 C1024 337.92 1024 675.84 1024 1024 C686.08 1024 348.16 1024 0 1024 C0 686.08 0 348.16 0 0 Z " fill="#FEFEFE" transform="translate(0,0)"/>
<path d="M0 0 C2.97 0 5.94 0 9 0 C9.09 24.49 9.16 48.97 9.21 73.46 C9.23 84.83 9.26 96.2 9.3 107.57 C9.34 117.48 9.37 127.39 9.38 137.31 C9.38 142.55 9.39 147.8 9.42 153.05 C9.45 157.99 9.46 162.93 9.45 167.87 C9.45 169.68 9.46 171.49 9.48 173.3 C9.5 175.78 9.49 178.26 9.48 180.74 C9.49 181.45 9.5 182.16 9.52 182.89 C9.44 189.2 7.86 191.56 5 198 C17.87 198 30.74 198 44 198 C42.68 194.04 41.36 190.08 40 186 C39.67 183.02 39.47 180.44 39.52 177.5 C39.52 176.73 39.51 175.96 39.51 175.16 C39.5 172.63 39.52 170.1 39.55 167.56 C39.55 165.73 39.55 163.89 39.54 162.06 C39.54 157.12 39.57 152.17 39.59 147.22 C39.62 142.04 39.62 136.86 39.63 131.68 C39.64 121.89 39.67 112.09 39.71 102.29 C39.76 91.14 39.78 79.98 39.8 68.82 C39.84 45.88 39.91 22.94 40 0 C42.97 0 45.94 0 49 0 C49 0.96 49 1.92 49 2.9 C49.02 26.24 49.06 49.58 49.13 72.91 C49.17 84.2 49.19 95.49 49.2 106.77 C49.2 116.61 49.22 126.45 49.26 136.29 C49.28 141.5 49.29 146.71 49.29 151.91 C49.28 156.82 49.29 161.73 49.33 166.64 C49.34 168.43 49.34 170.23 49.33 172.02 C49.28 181.42 49.55 189.04 53.92 197.62 C55.64 201.41 55.19 203.81 54.44 207.88 C54.38 208.21 54.38 208.21 54.1 209.88 C53.87 211.24 53.63 212.6 53.37 213.96 C52.76 217.29 52.33 220.64 51.88 224 C51.58 226 51.29 228 51 230 C51.39 230.05 51.39 230.05 53.38 230.31 C56 231 56 231 58 234 C58.41 238.13 58.37 242.25 58.37 246.4 C58.37 248.43 58.41 250.46 58.45 252.49 C58.45 253.77 58.46 255.05 58.46 256.37 C58.47 257.55 58.48 258.72 58.49 259.93 C57.9 263.62 56.98 264.81 54 267 C50.75 267.25 50.75 267.25 48 267 C47.57 291.88 47.57 291.88 54.74 298.79 C57.45 301.44 59.33 304.39 61.25 307.62 C61.91 308.73 62.57 309.83 63.25 310.97 C63.54 311.47 63.54 311.47 65 314 C65.42 314.73 65.85 315.46 66.29 316.22 C69.27 321.76 72 328.65 72 335 C72.83 334.98 73.65 334.96 74.51 334.94 C78.25 334.85 82 334.8 85.75 334.75 C87.05 334.72 88.35 334.68 89.7 334.65 C90.95 334.64 92.2 334.62 93.48 334.61 C94.64 334.59 95.79 334.57 96.98 334.55 C100.64 335.1 101.82 336.04 104 339 C104 339.99 104 340.98 104 342 C104.9 341.95 105.79 341.91 106.72 341.86 C120.82 341.45 133.45 344.33 146 351 C146.84 351.44 147.68 351.88 148.54 352.34 C155.16 356.05 160.6 360.7 166 366 C166.32 366.31 166.32 366.31 167.94 367.86 C181.39 381.88 186.17 403.3 186.12 422.03 C186.12 423.26 186.12 424.48 186.12 425.74 C186.12 429.12 186.12 432.51 186.12 435.89 C186.11 439.54 186.11 443.19 186.11 446.85 C186.11 453.17 186.11 459.5 186.11 465.82 C186.1 474.97 186.09 484.11 186.09 493.26 C186.09 508.1 186.08 522.93 186.08 537.77 C186.07 552.18 186.06 566.6 186.05 581.01 C186.05 581.9 186.05 582.79 186.05 583.7 C186.05 588.16 186.05 592.62 186.05 597.08 C186.04 634.05 186.02 671.03 186 708 C183.03 708 180.06 708 177 708 C177 707.38 177 706.75 177 706.11 C176.96 669.05 176.91 631.99 176.82 594.93 C176.81 590.47 176.8 586.02 176.79 581.56 C176.79 580.67 176.79 579.79 176.79 578.87 C176.76 564.53 176.74 550.19 176.73 535.86 C176.71 521.13 176.69 506.4 176.65 491.68 C176.62 482.6 176.61 473.52 176.61 464.44 C176.61 458.21 176.59 451.97 176.57 445.74 C176.55 442.15 176.54 438.56 176.55 434.97 C176.59 420.78 176.61 407.54 172 394 C171.71 393.06 171.42 392.12 171.12 391.14 C166.1 375.45 152.06 364.33 137.78 357.54 C127.15 353 116.55 351.89 105 351 C105 361.56 105 372.12 105 383 C107.64 383 110.28 383 113 383 C123.86 384.82 131.63 390.33 137.56 399.48 C142.76 408.6 143.15 417.51 143.12 427.77 C143.12 428.96 143.12 430.16 143.12 431.39 C143.12 434.69 143.12 437.99 143.12 441.3 C143.11 444.86 143.11 448.43 143.11 452 C143.11 458.17 143.11 464.35 143.11 470.53 C143.1 479.46 143.09 488.39 143.09 497.32 C143.09 511.8 143.08 526.29 143.08 540.78 C143.07 554.85 143.06 568.93 143.05 583 C143.05 583.87 143.05 584.74 143.05 585.63 C143.05 589.98 143.05 594.34 143.05 598.69 C143.04 634.79 143.02 670.9 143 707 C140.36 707 137.72 707 135 707 C135 706.4 135 705.8 135 705.19 C134.92 669.69 134.82 634.19 134.72 598.69 C134.71 594.43 134.69 590.16 134.68 585.89 C134.68 585.47 134.68 585.47 134.68 583.32 C134.64 569.58 134.6 555.85 134.57 542.11 C134.54 528.01 134.5 513.91 134.46 499.8 C134.43 491.11 134.41 482.41 134.39 473.71 C134.38 467.74 134.36 461.77 134.34 455.8 C134.33 452.36 134.32 448.92 134.32 445.48 C134.31 441.74 134.3 438 134.28 434.26 C134.28 433.73 134.28 433.73 134.28 431.01 C134.19 418.18 132.8 407.17 123.69 397.56 C117.5 393.96 111.06 392.64 104 392 C103.9 392.6 103.79 393.2 103.69 393.81 C102.86 396.43 102.21 397.36 100 399 C97.29 399.16 97.29 399.16 94.05 398.91 C75.39 398.07 75.39 398.07 71.19 401.46 C68.56 405.47 67.66 410.07 66.63 414.69 C65.61 418.42 63.78 421.54 61.75 424.81 C61.38 425.42 61 426.03 60.62 426.66 C55.74 434.34 48.6 444.54 40 448 C35.57 448.55 31.18 448.46 26.73 448.39 C25.45 448.38 24.17 448.38 22.85 448.37 C19.47 448.35 16.08 448.32 12.7 448.27 C9.24 448.23 5.78 448.22 2.32 448.2 C-4.45 448.15 -11.23 448.08 -18 448 C-17.97 448.97 -17.94 449.94 -17.92 450.95 C-17.9 452.22 -17.87 453.49 -17.85 454.79 C-17.82 456.05 -17.8 457.31 -17.77 458.61 C-17.99 461.89 -18.08 463.07 -20.38 465.31 C-26.55 469.28 -34.26 468.99 -41.38 467.5 C-45.4 465.97 -47.46 463.98 -49 460 C-49 457.69 -49 455.38 -49 453 C-61.54 453 -74.08 453 -87 453 C-82.47 466.6 -82.47 466.6 -79.19 470.5 C-78.56 471.27 -77.94 472.05 -77.29 472.84 C-70.59 479.15 -65.22 479.53 -56.31 479.5 C-54.27 479.49 -52.22 479.5 -50.18 479.53 C-49.73 479.53 -49.73 479.53 -47.45 479.52 C-44.15 480.17 -43 481.32 -41 484 C-40.5 486.43 -40.5 486.43 -40.5 489.1 C-40.5 490.06 -40.5 491.03 -40.5 492.03 C-40.52 493.03 -40.54 494.03 -40.56 495.06 C-40.56 496.07 -40.55 497.07 -40.54 498.11 C-40.61 505.5 -40.61 505.5 -42.28 507.62 C-45.32 510.06 -49.26 509.41 -53 509.38 C-53.93 509.39 -54.86 509.39 -55.82 509.4 C-58.95 509.41 -62.09 509.4 -65.22 509.39 C-67.46 509.39 -69.71 509.4 -71.95 509.4 C-78.05 509.42 -84.15 509.41 -90.25 509.4 C-96.62 509.4 -102.99 509.4 -109.36 509.41 C-120.75 509.41 -132.14 509.4 -143.53 509.39 C-153.86 509.37 -164.19 509.38 -174.53 509.39 C-186.52 509.41 -198.51 509.41 -210.5 509.4 C-216.85 509.4 -223.2 509.4 -229.55 509.41 C-235.52 509.42 -241.49 509.41 -247.46 509.39 C-249.65 509.39 -251.85 509.39 -254.04 509.4 C-257.03 509.41 -260.02 509.4 -263 509.38 C-263.88 509.39 -264.76 509.39 -265.66 509.4 C-271.57 509.34 -271.57 509.34 -273.72 507.62 C-276.41 504.21 -275.47 499.21 -275.44 495.06 C-275.46 494.06 -275.48 493.06 -275.5 492.03 C-275.5 491.54 -275.5 491.54 -275.5 489.1 C-275.5 488.22 -275.5 487.33 -275.5 486.43 C-274.82 483.15 -273.67 481.98 -271 480 C-268.49 479.55 -268.49 479.55 -265.68 479.6 C-264.65 479.6 -263.62 479.59 -262.56 479.59 C-260.41 479.61 -258.27 479.65 -256.13 479.69 C-247.31 479.62 -241.98 477.2 -235.91 470.8 C-235.7 470.46 -235.7 470.46 -234.62 468.75 C-234.4 468.42 -234.4 468.42 -233.29 466.73 C-231.38 462.68 -230.29 458.29 -229 454 C-235.76 453.84 -235.76 453.84 -270 453 C-270 454.65 -270 456.3 -270 458 C-273.47 460.32 -274.85 460.26 -278.95 460.29 C-279.56 460.3 -279.56 460.3 -282.66 460.33 C-284 460.33 -285.35 460.33 -286.69 460.34 C-288.07 460.34 -289.45 460.35 -290.83 460.36 C-293.73 460.37 -296.64 460.37 -299.54 460.37 C-303.23 460.37 -306.92 460.4 -310.61 460.43 C-313.47 460.45 -316.33 460.46 -319.19 460.46 C-321.2 460.46 -323.21 460.48 -325.23 460.5 C-340.63 460.43 -351.71 454.78 -362.38 443.75 C-370.32 434.35 -372.14 423.7 -372.18 411.83 C-372.18 410.81 -372.19 409.79 -372.2 408.74 C-372.22 405.36 -372.23 401.98 -372.24 398.6 C-372.24 397.44 -372.25 396.28 -372.25 395.09 C-372.27 388.95 -372.29 382.81 -372.3 376.68 C-372.31 370.37 -372.34 364.05 -372.38 357.74 C-372.41 352.87 -372.41 347.99 -372.42 343.12 C-372.42 340.79 -372.43 338.47 -372.45 336.14 C-372.69 304.85 -372.69 304.85 -362 292 C-361.71 291.65 -361.71 291.65 -360.26 289.89 C-349.43 277.96 -335.88 275.68 -320.61 275.7 C-319.21 275.7 -317.81 275.69 -316.41 275.69 C-313.5 275.68 -310.58 275.68 -307.67 275.68 C-303.92 275.69 -300.18 275.67 -296.44 275.65 C-293.56 275.64 -290.68 275.63 -287.8 275.64 C-286.42 275.64 -285.04 275.63 -283.66 275.62 C-281.74 275.61 -279.82 275.62 -277.9 275.63 C-277.35 275.63 -277.35 275.63 -274.59 275.63 C-273.73 275.75 -272.88 275.87 -272 276 C-270 279 -270 279 -270 283 C-261.09 283 -252.18 283 -243 283 C-243.03 280.92 -243.07 278.83 -243.11 276.68 C-243.13 274.64 -243.15 272.61 -243.16 270.57 C-243.18 269.16 -243.2 267.75 -243.23 266.35 C-243.26 264.31 -243.28 262.28 -243.29 260.25 C-243.31 259.03 -243.32 257.81 -243.34 256.55 C-242.77 250.56 -240.73 246.01 -236 242.12 C-235.32 241.55 -234.64 240.98 -233.94 240.38 C-229.65 237.32 -225.01 237.84 -219.97 237.82 C-219.51 237.82 -219.51 237.82 -217.17 237.8 C-214.11 237.78 -211.05 237.77 -207.99 237.76 C-206.94 237.76 -205.9 237.75 -204.82 237.75 C-199.28 237.73 -193.74 237.71 -188.2 237.7 C-182.48 237.69 -176.77 237.66 -171.05 237.62 C-166.65 237.59 -162.25 237.59 -157.85 237.58 C-155.75 237.58 -153.64 237.57 -151.53 237.55 C-148.58 237.52 -145.63 237.52 -142.67 237.53 C-142.24 237.52 -142.24 237.52 -140.05 237.49 C-133.65 237.55 -128.19 238.97 -123.44 243.48 C-119.25 248.3 -118.86 252.17 -118.9 258.29 C-118.9 258.65 -118.9 258.65 -118.91 260.43 C-118.91 262.68 -118.92 264.94 -118.94 267.19 C-118.94 268.72 -118.95 270.24 -118.95 271.77 C-118.96 275.51 -118.98 279.26 -119 283 C-112.07 283 -105.14 283 -98 283 C-98.25 275.69 -98.25 275.69 -98.36 273.4 C-98.41 270.2 -98.4 268.45 -96.23 266.02 C-94 265 -94 265 -90 265 C-90 256.09 -90 247.18 -90 238 C-91.98 237.34 -93.96 236.68 -96 236 C-105.17 228.56 -111.71 219.88 -112.34 207.77 C-112.64 192.95 -110.1 183.5 -99 173 C-95.66 170.1 -92.49 168.1 -88.44 166.31 C-87.51 165.9 -86.58 165.48 -85.62 165.05 C-75.41 160.96 -64.91 162.73 -55 167 C-44.43 172.93 -37.42 181.49 -33.66 193.02 C-30.82 205.88 -33.79 217.33 -41.29 227.93 C-45.33 232.83 -50.3 237.15 -56 240 C-56.66 240 -57.32 240 -58 240 C-58 248.25 -58 256.5 -58 265 C-55.36 265 -52.72 265 -50 265 C-49.34 265.33 -48.68 265.66 -48 266 C-46.25 266.09 -44.49 266.13 -42.73 266.14 C-41.68 266.16 -40.62 266.18 -39.54 266.2 C-37.32 266.23 -35.09 266.25 -32.87 266.25 C-23.82 266.46 -23.82 266.46 -20.8 269.42 C-17.02 274.84 -17.93 279.45 -18 286 C-12.06 286 -6.12 286 0 286 C0 279.73 0 273.46 0 267 C-1.98 266.67 -3.96 266.34 -6 266 C-7.85 264.84 -7.85 264.84 -9 263 C-9.57 258.88 -9.47 254.76 -9.45 250.6 C-9.44 248.57 -9.47 246.54 -9.5 244.51 C-9.5 243.23 -9.5 241.95 -9.5 240.63 C-9.5 239.45 -9.5 238.28 -9.5 237.07 C-8.9 233.4 -7.97 232.18 -5 230 C-4.01 230 -3.02 230 -2 230 C-2.09 229.42 -2.18 228.83 -2.28 228.23 C-2.69 225.53 -3.1 222.83 -3.5 220.12 C-3.64 219.21 -3.79 218.29 -3.93 217.34 C-6.27 201.51 -6.27 201.51 -3.01 194.34 C0.02 186.24 -0.43 178.03 -0.45 169.49 C-0.45 167.64 -0.43 165.79 -0.42 163.93 C-0.4 158.93 -0.39 153.93 -0.39 148.92 C-0.39 143.68 -0.36 138.44 -0.34 133.2 C-0.3 123.29 -0.28 113.38 -0.27 103.48 C-0.25 92.19 -0.21 80.9 -0.17 69.62 C-0.09 46.41 -0.04 23.21 0 0 Z " fill="#202D32" transform="translate(611,142)"/>
<path d="M0 0 C72.93 0 145.86 0 221 0 C221 50.49 221 100.98 221 153 C148.07 153 75.14 153 0 153 C0 102.51 0 52.02 0 0 Z " fill="#596365" transform="translate(341,433)"/>
<path d="M0 0 C0 54.78 0 109.56 0 166 C-64 166 -64 166 -76.69 153.31 C-82.7 145.49 -84.75 137.3 -84.63 127.61 C-84.64 126.53 -84.65 125.45 -84.65 124.34 C-84.67 120.81 -84.65 117.28 -84.63 113.74 C-84.63 111.27 -84.63 108.79 -84.64 106.32 C-84.64 101.15 -84.62 95.98 -84.6 90.81 C-84.56 84.2 -84.57 77.59 -84.59 70.98 C-84.6 65.88 -84.59 60.77 -84.57 55.67 C-84.57 53.23 -84.57 50.79 -84.58 48.36 C-84.58 44.95 -84.56 41.54 -84.53 38.13 C-84.54 37.13 -84.55 36.13 -84.55 35.11 C-84.41 24.46 -80.1 15.61 -72.25 8.38 C-52.16 -8.57 -25.85 0 0 0 Z " fill="#576161" transform="translate(332,427)"/>
<path d="M0 0 C21.56 0 40.28 5.42 55.44 21.6 C67.75 35.99 72.16 52.34 72.13 70.99 C72.13 71.6 72.13 71.6 72.13 74.68 C72.14 78.05 72.13 81.42 72.13 84.79 C72.13 88.43 72.13 92.07 72.13 95.7 C72.14 102.83 72.14 109.95 72.14 117.07 C72.13 122.86 72.13 128.64 72.13 134.43 C72.13 135.25 72.13 136.07 72.13 136.92 C72.13 138.6 72.13 140.27 72.14 141.94 C72.14 157.62 72.13 173.29 72.13 188.97 C72.12 202.43 72.13 215.9 72.13 229.36 C72.14 244.99 72.14 260.62 72.13 276.25 C72.13 277.91 72.13 279.58 72.13 281.24 C72.13 281.65 72.13 281.65 72.13 283.72 C72.13 289.51 72.13 295.29 72.14 301.07 C72.14 308.11 72.14 315.16 72.13 322.2 C72.13 325.79 72.13 329.39 72.13 332.98 C72.14 336.87 72.13 340.76 72.13 344.64 C72.13 345.22 72.13 345.22 72.13 348.13 C72.13 348.64 72.13 348.64 72.13 351.26 C72.13 352.15 72.13 353.05 72.13 353.98 C72 356 72 356 71 357 C68.72 357 66.44 356.94 64.16 356.84 C63.81 356.83 63.81 356.83 62.08 356.77 C59.14 356.65 56.2 356.53 53.27 356.41 C51.12 356.32 48.98 356.24 46.84 356.16 C45.56 356.1 44.27 356.05 42.94 355.99 C40 356 40 356 39 357 C35.7 357 32.4 357 29 357 C29 262.62 29 168.24 29 71 C29.33 71 29.66 71 30 71 C30 165.05 30 259.1 30 356 C32.64 356 35.28 356 38 356 C37.94 319.13 37.87 282.27 37.77 245.4 C37.76 241.04 37.75 236.69 37.74 232.33 C37.74 231.46 37.73 230.6 37.73 229.7 C37.7 215.68 37.67 201.65 37.65 187.62 C37.63 173.22 37.59 158.82 37.55 144.42 C37.52 135.54 37.51 126.66 37.5 117.77 C37.5 111.68 37.48 105.58 37.45 99.49 C37.44 95.97 37.43 92.46 37.43 88.95 C37.44 85.13 37.42 81.31 37.4 77.49 C37.4 76.39 37.41 75.3 37.41 74.17 C37.3 61.48 34.63 48.94 24.89 40.09 C17.22 34.57 9.25 33.16 0 32 C0 21.44 0 10.88 0 0 Z " fill="#B8BEC2" transform="translate(716,493)"/>
<path d="M0 0 C56.85 0 56.85 0 67 9.94 C75.34 20.12 79.61 33.5 83 46 C83.37 47.17 83.74 48.35 84.12 49.56 C85.64 55.77 85.3 62.21 85.25 68.56 C85.25 68.9 85.25 68.9 85.24 70.6 C85.06 95.04 79.56 120.35 61 138 C45.33 151.06 20.4 143 0 143 C0 95.81 0 48.62 0 0 Z " fill="#576162" transform="translate(593,438)"/>
<path d="M0 0 C0.78 2.33 1.42 4.61 2 7 C2.66 6.01 3.32 5.02 4 4 C4.16 4.5 4.16 4.5 5 7 C5.83 6.98 6.65 6.96 7.51 6.94 C11.25 6.85 15 6.8 18.75 6.75 C20.05 6.72 21.35 6.68 22.7 6.65 C23.95 6.64 25.2 6.62 26.48 6.61 C27.64 6.59 28.79 6.57 29.98 6.55 C33.64 7.1 34.82 8.04 37 11 C37 11.99 37 12.98 37 14 C37.9 13.95 38.79 13.91 39.72 13.86 C53.82 13.45 66.45 16.33 79 23 C79.84 23.44 80.68 23.88 81.54 24.34 C88.16 28.05 93.6 32.7 99 38 C99.64 38.61 100.28 39.23 100.94 39.86 C114.39 53.88 119.17 75.3 119.12 94.03 C119.12 94.65 119.12 94.65 119.12 97.74 C119.12 101.12 119.12 104.51 119.12 107.89 C119.11 111.54 119.11 115.19 119.11 118.85 C119.11 125.17 119.11 131.5 119.11 137.82 C119.1 146.97 119.09 156.11 119.09 165.26 C119.09 180.1 119.08 194.93 119.08 209.77 C119.07 224.18 119.06 238.6 119.05 253.01 C119.05 253.9 119.05 254.79 119.05 255.7 C119.05 260.16 119.05 264.62 119.05 269.08 C119.04 306.05 119.02 343.03 119 380 C116.03 380 113.06 380 110 380 C110 379.38 110 378.75 110 378.11 C109.96 341.05 109.91 303.99 109.82 266.93 C109.81 262.47 109.8 258.02 109.79 253.56 C109.79 252.67 109.79 251.79 109.79 250.87 C109.76 236.53 109.74 222.19 109.73 207.86 C109.71 193.13 109.69 178.4 109.65 163.68 C109.62 154.6 109.61 145.52 109.61 136.44 C109.61 130.21 109.59 123.97 109.57 117.74 C109.55 114.15 109.54 110.56 109.55 106.97 C109.59 92.78 109.61 79.54 105 66 C104.71 65.06 104.42 64.12 104.12 63.14 C99.1 47.45 85.06 36.33 70.78 29.54 C60.15 25 49.55 23.89 38 23 C38 33.56 38 44.12 38 55 C40.64 55 43.28 55 46 55 C56.86 56.82 64.63 62.33 70.56 71.48 C75.76 80.6 76.15 89.51 76.12 99.77 C76.12 100.37 76.12 100.37 76.12 103.39 C76.12 106.69 76.12 109.99 76.12 113.3 C76.11 116.86 76.11 120.43 76.11 124 C76.11 130.17 76.11 136.35 76.11 142.53 C76.1 151.46 76.09 160.39 76.09 169.32 C76.09 183.8 76.08 198.29 76.08 212.78 C76.07 226.85 76.06 240.93 76.05 255 C76.05 255.87 76.05 256.74 76.05 257.63 C76.05 261.98 76.05 266.34 76.05 270.69 C76.04 306.79 76.02 342.9 76 379 C73.36 379 70.72 379 68 379 C68 378.4 68 377.8 68 377.19 C67.92 341.69 67.82 306.19 67.72 270.69 C67.71 266.43 67.69 262.16 67.68 257.89 C67.68 257.04 67.68 256.2 67.68 255.32 C67.64 241.58 67.6 227.85 67.57 214.11 C67.54 200.01 67.5 185.91 67.46 171.8 C67.43 163.11 67.41 154.41 67.39 145.71 C67.38 139.74 67.36 133.77 67.34 127.8 C67.33 124.36 67.32 120.92 67.32 117.48 C67.31 113.74 67.3 110 67.28 106.26 C67.28 105.73 67.28 105.73 67.28 103.01 C67.19 90.18 65.8 79.17 56.69 69.56 C50.5 65.96 44.06 64.64 37 64 C36.9 64.6 36.79 65.2 36.69 65.81 C35.86 68.43 35.21 69.36 33 71 C30.29 71.16 30.29 71.16 27.05 70.91 C8.39 70.07 8.39 70.07 4.19 73.46 C1.56 77.47 0.66 82.07 -0.37 86.69 C-1.39 90.42 -3.22 93.54 -5.25 96.81 C-5.62 97.42 -6 98.03 -6.38 98.66 C-11.26 106.33 -18.4 116.56 -27 120 C-31.48 120.55 -35.92 120.44 -40.42 120.35 C-41.72 120.33 -43.01 120.32 -44.35 120.3 C-47.08 120.26 -49.82 120.21 -52.55 120.15 C-56.06 120.07 -59.56 120.03 -63.07 120.01 C-66.42 119.98 -69.76 119.91 -73.11 119.85 C-74.37 119.84 -75.63 119.83 -76.93 119.82 C-78.09 119.79 -79.26 119.76 -80.45 119.72 C-81.48 119.7 -82.5 119.69 -83.56 119.67 C-86 119 -86 119 -87.53 116.64 C-88 114 -88 114 -86.95 112.21 C-84.39 110.63 -82.76 110.65 -79.75 110.69 C-78.68 110.7 -77.61 110.71 -76.51 110.71 C-75.93 110.72 -75.93 110.72 -72.99 110.77 C-70.54 110.77 -68.08 110.77 -65.62 110.77 C-61.75 110.79 -57.88 110.81 -54.01 110.87 C-50.28 110.91 -46.54 110.91 -42.8 110.89 C-42.23 110.91 -42.23 110.91 -39.33 110.98 C-31.88 110.92 -28.09 109.41 -22.82 104.11 C-15.89 96.07 -11.52 86.53 -7 77 C-6.78 76.55 -6.78 76.55 -5.67 74.27 C-0.35 62.4 -0.81 49.31 -0.75 36.56 C-0.74 35.26 -0.73 33.95 -0.72 32.61 C-0.74 26.02 -1.08 20.3 -3 14 C-4.76 5.03 -4.76 5.03 -2.06 1.38 C-1.38 0.92 -0.7 0.47 0 0 Z " fill="#223035" transform="translate(678,470)"/>
<path d="M0 0 C2.97 0 5.94 0 9 0 C9.09 24.49 9.16 48.97 9.21 73.46 C9.23 84.83 9.26 96.2 9.3 107.57 C9.34 117.48 9.37 127.39 9.38 137.31 C9.38 142.55 9.39 147.8 9.42 153.05 C9.45 157.99 9.46 162.93 9.45 167.87 C9.45 169.68 9.46 171.49 9.48 173.3 C9.5 175.78 9.49 178.26 9.48 180.74 C9.49 181.45 9.5 182.16 9.52 182.89 C9.44 189.2 7.86 191.56 5 198 C17.87 198 30.74 198 44 198 C43.34 196.02 43.34 196.02 40 186 C39.67 183.02 39.47 180.44 39.52 177.5 C39.52 176.73 39.51 175.96 39.51 175.16 C39.5 172.63 39.52 170.1 39.55 167.56 C39.55 165.73 39.55 163.89 39.54 162.06 C39.54 157.12 39.57 152.17 39.59 147.22 C39.62 142.04 39.62 136.86 39.63 131.68 C39.64 121.89 39.67 112.09 39.71 102.29 C39.76 91.14 39.78 79.98 39.8 68.82 C39.84 45.88 39.91 22.94 40 0 C42.97 0 45.94 0 49 0 C49 0.96 49 1.92 49 2.9 C49.02 26.24 49.06 49.58 49.13 72.91 C49.17 84.2 49.19 95.49 49.2 106.77 C49.2 116.61 49.22 126.45 49.26 136.29 C49.28 141.5 49.29 146.71 49.29 151.91 C49.28 156.82 49.29 161.73 49.33 166.64 C49.34 168.43 49.34 170.23 49.33 172.02 C49.28 181.42 49.55 189.04 53.92 197.62 C55.64 201.41 55.19 203.81 54.44 207.88 C54.33 208.54 54.21 209.2 54.1 209.88 C53.87 211.24 53.63 212.6 53.37 213.96 C52.76 217.29 52.33 220.64 51.88 224 C51.58 226 51.29 228 51 230 C51.78 230.1 52.57 230.21 53.38 230.31 C56 231 56 231 58 234 C58.26 236.7 58.26 236.7 58.27 239.91 C58.27 240.49 58.27 240.49 58.27 243.41 C58.27 244.61 58.26 245.82 58.25 247.06 C58.25 247.67 58.25 247.67 58.27 250.73 C58.27 251.88 58.27 253.03 58.27 254.22 C58.26 255.28 58.26 256.34 58.26 257.43 C58 260 58 260 56 262 C55.67 256.72 55.34 251.44 55 246 C54.34 246.33 53.68 246.66 53 247 C52.66 249.25 52.66 249.25 52.5 252 C52.34 254.75 52.34 254.75 52 257 C51.34 257.33 50.68 257.66 50 258 C50 251.4 50 244.8 50 238 C33.5 238 17 238 0 238 C0 244.93 0 251.86 0 259 C2.56 258.98 5.12 258.96 7.75 258.94 C17.85 258.9 27.92 259.41 38 260 C37.67 260.66 37.34 261.32 37 262 C34.09 262.18 31.28 262.23 28.37 262.2 C27.51 262.19 26.64 262.19 25.75 262.19 C22.98 262.18 20.21 262.15 17.44 262.12 C15.56 262.11 13.69 262.11 11.81 262.1 C7.21 262.08 2.6 262.04 -2 262 C-1.67 263.32 -1.34 264.64 -1 266 C-5.46 266.36 -5.46 266.36 -7.64 264.89 C-10.49 260.93 -9.48 255.31 -9.45 250.6 C-9.44 248.57 -9.47 246.54 -9.5 244.51 C-9.5 243.23 -9.5 241.95 -9.5 240.63 C-9.5 239.45 -9.5 238.28 -9.5 237.07 C-8.9 233.4 -7.97 232.18 -5 230 C-4.01 230 -3.02 230 -2 230 C-2.09 229.42 -2.18 228.83 -2.28 228.23 C-2.69 225.53 -3.1 222.83 -3.5 220.12 C-3.64 219.21 -3.79 218.29 -3.93 217.34 C-6.27 201.51 -6.27 201.51 -3.01 194.34 C0.02 186.24 -0.43 178.03 -0.45 169.49 C-0.45 167.64 -0.43 165.79 -0.42 163.93 C-0.4 158.93 -0.39 153.93 -0.39 148.92 C-0.39 143.68 -0.36 138.44 -0.34 133.2 C-0.3 123.29 -0.28 113.38 -0.27 103.48 C-0.25 92.19 -0.21 80.9 -0.17 69.62 C-0.09 46.41 -0.04 23.21 0 0 Z " fill="#1F2B30" transform="translate(611,142)"/>
<path d="M0 0 C9.9 0 19.8 0 30 0 C30.01 2.32 30.02 4.64 30.02 7.03 C30.1 28.87 30.19 50.71 30.29 72.55 C30.34 83.77 30.38 95 30.42 106.23 C30.45 116.01 30.49 125.8 30.54 135.58 C30.57 140.77 30.59 145.95 30.6 151.13 C30.62 156.01 30.64 160.88 30.67 165.76 C30.68 167.55 30.68 169.34 30.68 171.13 C30.69 173.57 30.7 176.02 30.72 178.46 C30.72 179.17 30.72 179.88 30.72 180.62 C30.76 184.27 31.05 186.88 33 190 C34.3 192.96 35 194.73 35 198 C22.13 198 9.26 198 -4 198 C-3.01 195.03 -2.02 192.06 -1 189 C-0.73 186.17 -0.58 183.56 -0.6 180.74 C-0.59 179.96 -0.59 179.18 -0.58 178.38 C-0.56 175.8 -0.57 173.21 -0.57 170.63 C-0.56 168.77 -0.55 166.9 -0.54 165.04 C-0.51 160 -0.5 154.96 -0.49 149.92 C-0.48 144.65 -0.46 139.38 -0.43 134.1 C-0.39 124.13 -0.36 114.15 -0.34 104.17 C-0.31 92.81 -0.27 81.45 -0.22 70.09 C-0.13 46.73 -0.06 23.36 0 0 Z " fill="#B7BFC3" transform="translate(620,142)"/>
<path d="M0 0 C21.56 0 40.28 5.42 55.44 21.6 C67.75 35.99 72.16 52.34 72.13 70.99 C72.13 71.6 72.13 71.6 72.13 74.68 C72.14 78.05 72.13 81.42 72.13 84.79 C72.13 88.43 72.13 92.07 72.13 95.7 C72.14 102.83 72.14 109.95 72.14 117.07 C72.13 122.86 72.13 128.64 72.13 134.43 C72.13 135.25 72.13 136.07 72.13 136.92 C72.13 138.6 72.13 140.27 72.14 141.94 C72.14 157.62 72.13 173.29 72.13 188.97 C72.12 202.43 72.13 215.9 72.13 229.36 C72.14 244.99 72.14 260.62 72.13 276.25 C72.13 277.91 72.13 279.58 72.13 281.24 C72.13 281.65 72.13 281.65 72.13 283.72 C72.13 289.51 72.13 295.29 72.14 301.07 C72.14 308.11 72.14 315.16 72.13 322.2 C72.13 325.79 72.13 329.39 72.13 332.98 C72.14 336.87 72.13 340.76 72.13 344.64 C72.13 345.22 72.13 345.22 72.13 348.13 C72.13 348.64 72.13 348.64 72.13 351.26 C72.13 352.15 72.13 353.05 72.13 353.98 C72 356 72 356 71 357 C66.81 357.16 63.08 356.89 59 356 C59 355.39 59 354.79 59 354.17 C58.96 318.23 58.91 282.3 58.82 246.37 C58.81 242.05 58.8 237.73 58.79 233.4 C58.79 232.54 58.79 231.68 58.79 230.8 C58.76 216.9 58.74 202.99 58.73 189.09 C58.71 174.81 58.69 160.53 58.65 146.26 C58.62 137.45 58.61 128.65 58.61 119.85 C58.61 113.81 58.59 107.76 58.57 101.71 C58.55 98.23 58.54 94.75 58.55 91.27 C58.58 77.29 58.52 64.34 54 51 C53.61 49.79 53.22 48.59 52.82 47.34 C50.26 39.66 46.54 33.88 41 28 C40.74 27.72 40.74 27.72 39.42 26.3 C28.57 15.89 15.29 13.76 1 12 C1 18.6 1 25.2 1 32 C0.67 32 0.34 32 0 32 C0 21.44 0 10.88 0 0 Z " fill="#BBC4C6" transform="translate(716,493)"/>
<path d="M0 0 C0.92 -0.01 1.84 -0.02 2.78 -0.02 C5.83 -0.05 8.88 -0.07 11.93 -0.08 C12.45 -0.08 12.45 -0.08 15.08 -0.1 C20.59 -0.12 26.09 -0.14 31.6 -0.16 C37.29 -0.17 42.98 -0.22 48.67 -0.27 C53.04 -0.3 57.41 -0.31 61.78 -0.32 C63.88 -0.33 65.97 -0.34 68.07 -0.37 C71.01 -0.4 73.94 -0.4 76.88 -0.39 C77.74 -0.41 78.61 -0.42 79.5 -0.44 C83.91 -0.39 85.59 -0.24 89.15 2.6 C97.21 13.13 92.13 15.46 92.13 36.19 C56.82 36.19 21.51 36.19 -14.87 36.19 C-14.87 6.19 -14.87 6.19 -10.87 1.19 C-7.51 -0.49 -3.7 0.02 0 0 Z " fill="#576263" transform="translate(391.868408203125,388.80712890625)"/>
<path d="M0 0 C40.92 0 81.84 0 124 0 C125.65 4.95 127.3 9.9 129 15 C133.31 21.38 133.31 21.38 135.43 24.02 C137 26 137 26 137 27 C87.83 27 38.66 27 -12 27 C-9.69 23.37 -7.38 19.74 -5 16 C-2.78 10.5 -1.16 5.79 0 0 Z " fill="#586264" transform="translate(391,595)"/>
<path d="M0 0 C0.33 0 0.66 0 1 0 C2.1 6.17 2.12 12.18 2.06 18.44 C2.06 19.46 2.05 20.47 2.05 21.52 C2.04 24.01 2.02 26.51 2 29 C3.32 29 4.64 29 6 29 C6.33 21.08 6.66 13.16 7 5 C7.33 5 7.66 5 8 5 C8 15.89 8 26.78 8 38 C10.97 38 13.94 38 17 38 C27.85 39.76 35.65 45.36 41.56 54.48 C46.76 63.6 47.15 72.51 47.12 82.77 C47.12 83.96 47.12 85.16 47.12 86.39 C47.12 89.69 47.12 92.99 47.12 96.3 C47.11 99.86 47.11 103.43 47.11 107 C47.11 113.17 47.11 119.35 47.11 125.53 C47.1 134.46 47.09 143.39 47.09 152.32 C47.09 166.8 47.08 181.29 47.08 195.78 C47.07 209.85 47.06 223.93 47.05 238 C47.05 238.87 47.05 239.74 47.05 240.63 C47.05 244.98 47.05 249.34 47.05 253.69 C47.04 289.79 47.02 325.9 47 362 C44.36 362 41.72 362 39 362 C39 361.7 39 361.7 39 360.19 C38.92 324.69 38.82 289.19 38.72 253.69 C38.71 249.43 38.69 245.16 38.68 240.89 C38.68 240.04 38.68 239.2 38.68 238.32 C38.64 224.58 38.6 210.85 38.57 197.11 C38.54 183.01 38.5 168.91 38.46 154.8 C38.43 146.11 38.41 137.41 38.39 128.71 C38.38 122.74 38.36 116.77 38.34 110.8 C38.33 107.36 38.32 103.92 38.32 100.48 C38.31 96.74 38.3 93 38.28 89.26 C38.28 88.19 38.28 87.11 38.28 86.01 C38.19 73.18 36.8 62.17 27.69 52.56 C21.5 48.96 15.06 47.64 8 47 C7.9 47.6 7.79 48.2 7.69 48.81 C6.87 51.43 6.18 52.34 4 54 C1.36 54.34 1.36 54.34 -1.76 54.29 C-2.88 54.28 -4 54.27 -5.15 54.26 C-6.32 54.24 -7.48 54.21 -8.69 54.19 C-9.87 54.17 -11.05 54.16 -12.26 54.15 C-15.17 54.11 -18.09 54.06 -21 54 C-18.24 51.24 -16.29 50.94 -12.42 51.12 C-11.54 51.23 -10.66 51.33 -9.75 51.44 C-8.86 51.54 -7.97 51.64 -7.05 51.75 C-6.37 51.83 -5.7 51.91 -5 52 C-5.33 50.35 -5.66 48.7 -6 47 C-10.29 47 -14.58 47 -19 47 C-19 46.67 -19 46.34 -19 46 C-12.73 46 -6.46 46 0 46 C0 30.82 0 15.64 0 0 Z " fill="#1F2A2F" transform="translate(707,487)"/>
<path d="M0 0 C0.33 0 0.66 0 1 0 C1.03 0.68 1.05 1.36 1.08 2.06 C1.19 5.15 1.31 8.23 1.44 11.31 C1.48 12.38 1.52 13.46 1.56 14.56 C1.6 15.59 1.64 16.62 1.68 17.68 C1.72 18.62 1.76 19.57 1.79 20.55 C2 23 2 23 3 26 C1.44 28.19 1.44 28.19 -1 30 C-4.15 30.11 -4.15 30.11 -7 30 C-7.43 54.88 -7.43 54.88 -0.26 61.79 C2.45 64.44 4.33 67.39 6.25 70.62 C6.91 71.73 7.57 72.83 8.25 73.96 C12.22 80.84 14.92 87.32 17 95 C16.34 95 15.68 95 15 95 C14.84 95.66 14.84 95.66 14 99 C13.34 98.67 12.68 98.34 12 98 C11.88 94.94 11.88 94.94 12 92 C10.5 93.12 10.5 93.12 9 95 C8.81 98.19 8.81 98.19 9 101 C6.92 97.88 6.03 95.24 4.88 91.69 C0.9 80.15 -5.55 65.73 -17 60 C-18.79 59.88 -20.58 59.82 -22.37 59.79 C-22.93 59.78 -22.93 59.78 -25.76 59.73 C-26.37 59.73 -26.37 59.73 -29.45 59.68 C-30.07 59.67 -30.07 59.67 -33.2 59.62 C-36.5 59.57 -39.8 59.52 -43.1 59.47 C-46.46 59.42 -49.83 59.36 -53.19 59.31 C-59.79 59.2 -66.4 59.1 -73 59 C-73 58.67 -73 58.34 -73 58 C-67.88 57.83 -67.88 57.83 -42 57 C-42 56.01 -42 55.02 -42 54 C-43.32 53.3 -44.65 52.63 -46 52 C-46 51.34 -46 50.68 -46 50 C-40.06 50 -34.12 50 -28 50 C-34.27 49.67 -40.54 49.34 -47 49 C-47.16 46.86 -47.16 46.86 -48 36 C-50.72 39.62 -51.42 40.81 -52 45 C-53.91 41.73 -54.36 39.01 -54.62 35.25 C-54.7 34.27 -54.77 33.28 -54.85 32.27 C-54.9 31.52 -54.95 30.77 -55 30 C-56.32 29.67 -57.64 29.34 -59 29 C-58.01 29 -57.02 29 -56 29 C-56.33 27.68 -56.66 26.36 -57 25 C-53.24 23.75 -49.75 23.88 -45.83 23.9 C-45.13 23.9 -44.42 23.9 -43.7 23.91 C-41.07 23.91 -38.44 23.92 -35.81 23.94 C-29.93 23.96 -24.06 23.98 -18 24 C-24.11 23.67 -24.11 23.67 -55 22 C-55 15.07 -55 8.14 -55 1 C-38.5 1 -22 1 -5 1 C-4.84 4.13 -4.84 4.13 -4 20 C-3.94 19.2 -3.94 19.2 -3.62 15.12 C-3.25 10.25 -3.25 10.25 -1 8 C-0.59 6.05 -0.59 6.05 -0.38 3.88 C-0.31 3.24 -0.31 3.24 0 0 Z " fill="#202E33" transform="translate(666,379)"/>
<path d="M0 0 C2.97 0 5.94 0 9 0 C9 0.96 9 1.92 9 2.9 C9.02 26.24 9.06 49.58 9.13 72.91 C9.17 84.2 9.19 95.49 9.2 106.77 C9.2 116.61 9.22 126.45 9.26 136.29 C9.28 141.5 9.29 146.71 9.29 151.91 C9.28 156.82 9.29 161.73 9.33 166.64 C9.34 168.43 9.34 170.23 9.33 172.02 C9.28 181.43 9.54 189.04 13.95 197.61 C15.51 201.16 15.08 203.36 14 207 C13.01 206.67 12.02 206.34 11 206 C11 207.98 11 209.96 11 212 C9.68 212 8.36 212 7 212 C6.67 211.34 6.34 210.68 6 210 C5.01 216.6 4.02 223.2 3 230 C-9.21 230 -21.42 230 -34 230 C-35.15 219.64 -36 211.07 -36 201 C-32.35 198.57 -29.7 198.81 -25.5 198.94 C-18.36 199.12 -18.36 199.12 -15 198 C-13.52 197.92 -12.03 197.89 -10.55 197.9 C-9.7 197.91 -8.86 197.91 -7.98 197.91 C-7.1 197.92 -6.22 197.93 -5.31 197.94 C-4.87 197.94 -4.87 197.94 -2.61 197.95 C-0.4 197.96 1.8 197.98 4 198 C3.72 197.35 3.43 196.7 3.14 196.02 C-0.57 186.46 -0.54 177.65 -0.45 167.56 C-0.45 165.73 -0.45 163.89 -0.46 162.06 C-0.46 157.12 -0.43 152.17 -0.41 147.22 C-0.38 142.04 -0.38 136.86 -0.37 131.68 C-0.36 121.89 -0.33 112.09 -0.29 102.29 C-0.24 91.14 -0.22 79.98 -0.2 68.82 C-0.16 45.88 -0.09 22.94 0 0 Z " fill="#293438" transform="translate(651,142)"/>
<path d="M0 0 C6.79 5.76 11.72 12.06 12.5 21.23 C12.72 29.65 12.08 35.89 7.23 43.01 C7.03 43.3 7.03 43.3 6.06 44.78 C1.06 51.51 -6.81 55.39 -15 56.42 C-25.06 56.7 -32.58 54.65 -40.19 47.86 C-47.16 40.45 -50.2 32.65 -50.05 22.47 C-49.08 13.89 -44.27 5.65 -37.6 0.25 C-25.71 -8.02 -12.05 -8.64 0 0 Z " fill="#E9EEEF" transform="translate(556.7734375,319.98828125)"/>
<path d="M0 0 C3.89 6.75 3.14 14.5 3.12 22.03 C3.12 23.26 3.12 24.48 3.12 25.74 C3.12 29.12 3.12 32.51 3.12 35.89 C3.11 39.54 3.11 43.19 3.11 46.85 C3.11 53.17 3.11 59.5 3.11 65.82 C3.1 74.97 3.09 84.11 3.09 93.26 C3.09 108.1 3.08 122.93 3.08 137.77 C3.07 152.18 3.06 166.6 3.05 181.01 C3.05 181.9 3.05 182.79 3.05 183.7 C3.05 188.16 3.05 192.62 3.05 197.08 C3.04 234.05 3.02 271.03 3 308 C0.03 308 -2.94 308 -6 308 C-6.02 271.24 -6.04 234.49 -6.05 197.73 C-6.05 193.39 -6.05 189.04 -6.05 184.7 C-6.06 183.84 -6.06 182.97 -6.06 182.08 C-6.06 168.1 -6.07 154.11 -6.08 140.13 C-6.09 125.77 -6.09 111.41 -6.09 97.05 C-6.1 88.2 -6.1 79.34 -6.11 70.49 C-6.11 64.41 -6.11 58.34 -6.11 52.26 C-6.11 48.76 -6.11 45.25 -6.12 41.75 C-6.12 37.94 -6.12 34.14 -6.12 30.33 C-6.12 29.24 -6.13 28.14 -6.13 27.01 C-6.12 20.29 -5.73 13.68 -5 7 C-4.67 7.66 -4.34 8.32 -4 9 C-3.34 8.67 -2.68 8.34 -2 8 C-2 6.85 -2 5.69 -2 4.5 C-2 3.35 -2 2.19 -2 1 C-1.34 0.67 -0.68 0.34 0 0 Z " fill="#283137" transform="translate(794,542)"/>
<path d="M0 0 C71.94 0 143.88 0 218 0 C218 3.96 218 7.92 218 12 C146.06 12 74.12 12 0 12 C0 8.04 0 4.08 0 0 Z " fill="#5A6667" transform="translate(344,631)"/>
<path d="M0 0 C0.66 0 1.32 0 2 0 C2.04 0.34 2.04 0.34 2.23 2.08 C3.31 9.53 3.31 9.53 7.12 12.12 C8.07 12.41 9.02 12.7 10 13 C9.67 12.01 9.67 12.01 8 7 C8.66 7 9.32 7 10 7 C11.1 8.67 12.13 10.39 13.12 12.12 C16.76 18.04 20.8 21.9 27 25 C28.69 25.11 30.39 25.16 32.09 25.18 C32.59 25.19 32.59 25.19 35.16 25.25 C37.29 25.29 39.43 25.32 41.57 25.34 C42.08 25.36 42.08 25.36 44.65 25.43 C45.11 25.43 45.11 25.43 47.47 25.47 C50.8 26.17 51.98 27.29 54 30 C54.5 32.43 54.5 32.43 54.5 35.1 C54.5 36.06 54.5 37.03 54.5 38.03 C54.48 39.03 54.46 40.03 54.44 41.06 C54.44 42.07 54.45 43.07 54.46 44.11 C54.39 51.5 54.39 51.5 52.72 53.62 C49.68 56.06 45.76 55.4 42.02 55.36 C41.56 55.36 41.56 55.36 39.2 55.37 C36.08 55.37 32.95 55.36 29.82 55.34 C27.58 55.34 25.35 55.34 23.11 55.34 C17.03 55.34 10.94 55.33 4.86 55.3 C-1.5 55.29 -7.85 55.28 -14.2 55.28 C-24.87 55.27 -35.54 55.25 -46.21 55.23 C-57.2 55.2 -68.19 55.18 -79.18 55.16 C-79.86 55.16 -80.53 55.16 -81.23 55.16 C-84.63 55.16 -88.03 55.15 -91.42 55.15 C-119.62 55.12 -147.81 55.07 -176 55 C-176 54.67 -176 54.34 -176 54 C-157.52 53.67 -139.04 53.34 -120 53 C-120 52.67 -120 52.34 -120 52 C-114.72 52 -109.44 52 -104 52 C-104 51.34 -104 50.68 -104 50 C-104.52 50.01 -104.52 50.01 -107.14 50.04 C-108.51 50.04 -109.88 50.05 -111.25 50.06 C-111.59 50.07 -111.59 50.07 -113.32 50.09 C-116.72 50.1 -119.72 49.9 -123 49 C-123.33 49.33 -123.66 49.66 -124 50 C-126.69 50.24 -129.36 50.42 -132.06 50.56 C-133.37 50.63 -133.37 50.63 -140 51 C-134.72 51.33 -129.44 51.66 -124 52 C-124 52.33 -124 52.66 -124 53 C-140.5 53 -157 53 -174 53 C-173.34 52.84 -173.34 52.84 -170 52 C-169.67 50.35 -169.34 48.7 -169 47 C-98.05 47 -27.1 47 46 47 C46 42.71 46 38.42 46 34 C-25.94 34 -97.88 34 -172 34 C-172 33.67 -172 33.34 -172 33 C-111.28 32.67 -50.56 32.34 12 32 C12 30.68 12 29.36 12 28 C11.38 28 10.77 28 10.13 28.01 C-22.93 28.12 -55.95 27.97 -89 27 C-89 26.67 -89 26.34 -89 26 C-56 25.67 -23 25.34 11 25 C8.36 21.37 5.72 17.74 3 14 C0.73 9.11 -0.4 5.38 0 0 Z " fill="#1F2D31" transform="translate(516,596)"/>
<path d="M0 0 C4.29 0 8.58 0 13 0 C13 60.72 13 121.44 13 184 C8.71 184 4.42 184 0 184 C0 123.28 0 62.56 0 0 Z " fill="#596465" transform="translate(571,417)"/>
<path d="M0 0 C14.72 0 14.72 0 20.25 1.38 C21.33 1.63 22.41 1.89 23.52 2.15 C26 3 26 3 27 5 C26.01 5 25.02 5 24 5 C23.81 8.19 23.81 8.19 25 12 C27.57 13.6 30.2 14.64 33.02 15.77 C47.05 21.57 53.55 32.25 58.62 45.88 C63.32 59.42 64.16 72.85 64.12 87.11 C64.12 88.27 64.12 89.43 64.12 90.62 C64.12 94.47 64.12 98.31 64.11 102.16 C64.11 104.93 64.11 107.7 64.11 110.47 C64.11 116.41 64.11 122.36 64.11 128.31 C64.1 136.91 64.09 145.51 64.09 154.1 C64.09 168.06 64.08 182.01 64.08 195.96 C64.07 209.51 64.06 223.06 64.05 236.6 C64.05 237.44 64.05 238.28 64.05 239.14 C64.05 243.33 64.05 247.53 64.05 251.72 C64.04 286.48 64.02 321.24 64 356 C62.35 356 60.7 356 59 356 C59 355.39 59 354.79 59 354.17 C58.96 318.23 58.91 282.3 58.82 246.37 C58.81 242.05 58.8 237.73 58.79 233.4 C58.79 232.54 58.79 231.68 58.79 230.8 C58.76 216.9 58.74 202.99 58.73 189.09 C58.71 174.81 58.69 160.53 58.65 146.26 C58.62 137.45 58.61 128.65 58.61 119.85 C58.61 113.81 58.59 107.76 58.57 101.71 C58.55 98.23 58.54 94.75 58.55 91.27 C58.58 77.29 58.52 64.34 54 51 C53.61 49.79 53.22 48.59 52.82 47.34 C50.26 39.66 46.54 33.88 41 28 C40.74 27.72 40.74 27.72 39.42 26.3 C28.57 15.89 15.29 13.76 1 12 C1 18.6 1 25.2 1 32 C0.67 32 0.34 32 0 32 C0 21.44 0 10.88 0 0 Z " fill="#D6DDDF" transform="translate(716,493)"/>
<path d="M0 0 C3.3 0 6.6 0 10 0 C10.05 24.98 10.08 49.96 10.1 74.95 C10.11 86.54 10.13 98.14 10.15 109.74 C10.17 119.85 10.18 129.96 10.19 140.06 C10.19 145.42 10.2 150.77 10.21 156.13 C10.22 161.16 10.23 166.2 10.23 171.23 C10.23 173.08 10.23 174.93 10.24 176.79 C10.25 179.31 10.25 181.83 10.24 184.35 C10.25 185.09 10.25 185.83 10.26 186.59 C10.24 190.29 10.11 191.84 8 195 C6.05 195.29 6.05 195.29 3.88 195.19 C2.6 195.13 1.32 195.06 0 195 C-0.92 190.34 -1.13 185.84 -1.08 181.1 C-1.08 180.33 -1.08 179.55 -1.07 178.75 C-1.06 176.16 -1.04 173.56 -1.02 170.97 C-1.01 169.11 -1 167.24 -0.99 165.38 C-0.97 160.33 -0.93 155.28 -0.9 150.23 C-0.87 144.95 -0.84 139.66 -0.81 134.38 C-0.75 124.39 -0.69 114.39 -0.63 104.39 C-0.55 93.01 -0.49 81.62 -0.42 70.24 C-0.29 46.83 -0.15 23.41 0 0 Z " fill="#C5CCCF" transform="translate(620,142)"/>
<path d="M0 0 C0.33 0 0.66 0 1 0 C1 5.94 1 11.88 1 18 C8.59 18 16.18 18 24 18 C20.26 19.87 19.49 20.25 15.67 19.98 C14.87 19.93 14.07 19.87 13.25 19.82 C12.42 19.76 11.6 19.69 10.75 19.62 C9.91 19.57 9.07 19.51 8.2 19.45 C6.13 19.31 4.07 19.16 2 19 C3.26 21.51 4.5 21.87 7 23 C6.84 23.5 6.84 23.5 6 26 C13.26 26 20.52 26 28 26 C28 26.33 28 26.66 28 27 C10.51 27 -6.98 27 -25 27 C-25 74.85 -25 122.7 -25 172 C-7.51 172 9.98 172 28 172 C28 172.33 28 172.66 28 173 C10.18 173.33 -7.64 173.66 -26 174 C-26 175.32 -26 176.64 -26 178 C-8.18 178.33 9.64 178.66 28 179 C28 179.33 28 179.66 28 180 C10.51 180 -6.98 180 -25 180 C-25 184.62 -25 189.24 -25 194 C-25.99 194.99 -26.98 195.98 -28 197 C-28 196.34 -28 195.68 -28 195 C-28.66 194.67 -29.32 194.34 -30 194 C-30 192.68 -30 191.36 -30 190 C-30.66 190 -31.32 190 -32 190 C-32.83 187.08 -33.14 184.47 -33.16 181.44 C-33.18 180.53 -33.19 179.62 -33.2 178.68 C-33.21 177.69 -33.21 176.69 -33.22 175.67 C-33.23 174.61 -33.24 173.55 -33.26 172.47 C-33.29 168.95 -33.32 165.43 -33.35 161.91 C-33.38 159.43 -33.4 156.95 -33.42 154.47 C-33.49 147.84 -33.54 141.22 -33.59 134.6 C-33.62 131.19 -33.65 127.79 -33.68 124.39 C-34.01 85.58 -34.15 46.8 -33 8 C-32.17 8.33 -32.17 8.33 -28 10 C-28 12.64 -28 15.28 -28 18 C-21.07 18 -14.14 18 -7 18 C-7 12.72 -7 7.44 -7 2 C-6.67 2 -6.34 2 -6 2 C-5.67 4.64 -5.34 7.28 -5 10 C-2.09 6.71 -0.5 4.4 0 0 Z " fill="#1E2C31" transform="translate(618,410)"/>
<path d="M0 0 C0.38 -0 0.38 -0 2.29 -0.01 C4.84 -0.02 7.38 -0.01 9.93 -0 C11.75 -0.01 13.57 -0.01 15.39 -0.02 C20.34 -0.02 25.29 -0.02 30.24 -0.01 C35.42 -0.01 40.59 -0.01 45.76 -0.02 C54.45 -0.02 63.14 -0.02 71.83 -0.01 C81.89 0 91.95 0 102 -0.01 C110.63 -0.02 119.25 -0.02 127.87 -0.02 C133.03 -0.01 138.18 -0.01 143.34 -0.02 C148.18 -0.02 153.03 -0.02 157.88 -0.01 C159.66 -0.01 161.44 -0.01 163.22 -0.01 C165.65 -0.02 168.07 -0.01 170.5 0 C171.21 -0 171.92 -0.01 172.66 -0.01 C177.52 0.03 177.52 0.03 179.75 2.25 C180 4.75 180 4.75 179.75 7.25 C176.93 10.08 174.24 9.53 170.46 9.51 C169.7 9.52 168.94 9.52 168.16 9.53 C165.6 9.54 163.04 9.53 160.48 9.53 C158.65 9.53 156.82 9.54 154.99 9.54 C150.01 9.56 145.03 9.56 140.05 9.56 C135.9 9.55 131.75 9.56 127.6 9.56 C117.82 9.58 108.03 9.58 98.24 9.57 C88.13 9.56 78.02 9.58 67.9 9.6 C59.24 9.61 50.57 9.62 41.9 9.62 C36.71 9.62 31.53 9.62 26.35 9.63 C21.47 9.64 16.6 9.64 11.73 9.63 C9.94 9.63 8.15 9.63 6.35 9.64 C3.91 9.65 1.48 9.64 -0.96 9.63 C-1.32 9.63 -1.32 9.63 -3.13 9.65 C-5.11 9.63 -5.11 9.63 -8.25 9.25 C-10.25 6.25 -10.25 6.25 -10 4.19 C-8.1 -0.73 -4.55 -0.03 0 0 Z " fill="#1F2B33" transform="translate(366.2503662109375,450.74603271484375)"/>
<path d="M0 0 C24.22 -0.05 48.43 -0.08 72.65 -0.1 C83.89 -0.11 95.14 -0.13 106.38 -0.15 C116.18 -0.17 125.97 -0.18 135.77 -0.19 C140.96 -0.19 146.15 -0.2 151.34 -0.21 C156.22 -0.22 161.1 -0.23 165.98 -0.23 C167.78 -0.23 169.57 -0.23 171.37 -0.24 C173.81 -0.25 176.26 -0.25 178.7 -0.24 C179.42 -0.25 180.13 -0.25 180.87 -0.26 C185.77 -0.23 185.77 -0.23 188 2 C188.25 4.5 188.25 4.5 188 7 C185.18 9.82 182.52 9.28 178.75 9.25 C178.37 9.26 178.37 9.26 176.46 9.26 C173.91 9.27 171.37 9.27 168.82 9.26 C167 9.26 165.18 9.27 163.36 9.27 C158.41 9.28 153.46 9.27 148.51 9.27 C143.33 9.26 138.16 9.27 132.99 9.27 C124.3 9.28 115.61 9.27 106.92 9.26 C96.86 9.25 86.8 9.25 76.75 9.26 C68.12 9.27 59.5 9.27 50.88 9.27 C45.72 9.27 40.57 9.27 35.41 9.27 C30.57 9.28 25.72 9.27 20.87 9.26 C19.09 9.26 17.31 9.26 15.53 9.27 C13.1 9.27 10.68 9.26 8.25 9.25 C7.89 9.26 7.89 9.26 6.09 9.27 C1.23 9.23 1.23 9.23 -1 7 C-0.62 3.38 -0.62 3.38 0 0 Z " fill="#212E33" transform="translate(358,533)"/>
<path d="M0 0 C0.76 -0 1.53 -0 2.31 -0 C4.89 -0.01 7.47 -0.01 10.05 -0 C11.89 -0 13.73 -0.01 15.57 -0.01 C20.59 -0.01 25.6 -0.01 30.62 -0.01 C35.85 -0 41.09 -0.01 46.32 -0.01 C55.12 -0.01 63.91 -0.01 72.7 -0 C82.88 0 93.07 0 103.25 -0.01 C111.97 -0.01 120.7 -0.01 129.42 -0.01 C134.64 -0.01 139.86 -0.01 145.08 -0.01 C149.99 -0.01 154.89 -0.01 159.8 -0 C161.6 -0 163.41 -0 165.21 -0.01 C167.67 -0.01 170.12 -0.01 172.57 0 C173.3 -0 174.02 -0 174.77 -0.01 C179.67 0.01 179.67 0.01 180.79 1.13 C181.1 3.5 181.1 3.5 180.79 6.13 C177.46 9.63 173.98 9.55 169.42 9.5 C169.04 9.5 169.04 9.5 167.16 9.51 C164.66 9.52 162.17 9.51 159.67 9.5 C157.88 9.5 156.1 9.51 154.31 9.51 C149.45 9.52 144.59 9.51 139.73 9.5 C134.65 9.49 129.57 9.49 124.49 9.49 C115.96 9.49 107.42 9.48 98.89 9.46 C89.02 9.44 79.15 9.44 69.28 9.44 C59.79 9.45 50.3 9.44 40.81 9.43 C36.77 9.43 32.73 9.43 28.69 9.43 C23.93 9.43 19.17 9.42 14.42 9.41 C12.67 9.4 10.92 9.4 9.17 9.41 C6.79 9.41 4.41 9.4 2.03 9.39 C1.33 9.39 0.64 9.4 -0.08 9.4 C-3.69 9.37 -5.11 9.19 -8.21 7.13 C-8.46 4.06 -8.46 4.06 -8.21 1.13 C-6.28 -0.8 -2.63 -0.01 0 0 Z " fill="#1D2B31" transform="translate(365.2127685546875,478.8730163574219)"/>
<path d="M0 0 C0.38 -0 0.38 -0 2.29 -0.01 C4.84 -0.02 7.38 -0.01 9.93 -0 C11.75 -0.01 13.57 -0.01 15.39 -0.02 C20.34 -0.02 25.29 -0.02 30.24 -0.01 C35.42 -0.01 40.59 -0.01 45.76 -0.02 C54.45 -0.02 63.14 -0.02 71.83 -0.01 C81.89 0 91.95 0 102 -0.01 C110.63 -0.02 119.25 -0.02 127.87 -0.02 C133.03 -0.01 138.18 -0.01 143.34 -0.02 C148.18 -0.02 153.03 -0.02 157.88 -0.01 C159.66 -0.01 161.44 -0.01 163.22 -0.01 C165.65 -0.02 168.07 -0.01 170.5 0 C171.21 -0 171.92 -0.01 172.66 -0.01 C177.52 0.03 177.52 0.03 179.75 2.25 C179.56 4.75 179.56 4.75 178.75 7.25 C175.17 9.64 172.63 9.53 168.5 9.51 C167.76 9.51 167.01 9.51 166.25 9.52 C163.75 9.53 161.25 9.52 158.75 9.51 C156.96 9.52 155.17 9.52 153.38 9.52 C148.52 9.53 143.66 9.53 138.79 9.52 C133.71 9.52 128.63 9.52 123.54 9.53 C115 9.53 106.47 9.52 97.93 9.51 C88.05 9.5 78.17 9.51 68.29 9.52 C59.82 9.53 51.35 9.53 42.87 9.52 C37.81 9.52 32.75 9.52 27.68 9.53 C22.92 9.53 18.16 9.53 13.4 9.52 C11.65 9.51 9.9 9.51 8.15 9.52 C5.77 9.52 3.38 9.52 1 9.51 C0.3 9.51 -0.4 9.52 -1.11 9.52 C-4.73 9.49 -6.15 9.32 -9.25 7.25 C-9.56 4.75 -9.56 4.75 -9.25 2.25 C-6.43 -0.56 -3.77 -0.02 0 0 Z " fill="#202E33" transform="translate(366.2503662109375,559.7460327148438)"/>
<path d="M0 0 C0.76 -0 1.53 -0 2.31 -0 C4.89 -0.01 7.47 -0.01 10.05 -0 C11.89 -0 13.73 -0.01 15.57 -0.01 C20.59 -0.01 25.6 -0.01 30.62 -0.01 C35.85 -0 41.09 -0.01 46.32 -0.01 C55.12 -0.01 63.91 -0.01 72.7 -0 C82.88 0 93.07 0 103.25 -0.01 C111.97 -0.01 120.7 -0.01 129.42 -0.01 C134.64 -0.01 139.86 -0.01 145.08 -0.01 C149.99 -0.01 154.89 -0.01 159.8 -0 C161.6 -0 163.41 -0 165.21 -0.01 C167.67 -0.01 170.12 -0.01 172.57 0 C173.3 -0 174.02 -0 174.77 -0.01 C179.67 0.01 179.67 0.01 180.79 1.13 C180.97 3.56 180.97 3.56 180.79 6.13 C177.97 8.95 175.31 8.4 171.54 8.38 C171.16 8.38 171.16 8.38 169.25 8.39 C166.7 8.4 164.16 8.39 161.61 8.39 C159.79 8.39 157.97 8.39 156.15 8.4 C151.2 8.41 146.25 8.4 141.29 8.4 C136.12 8.39 130.95 8.4 125.77 8.4 C117.08 8.4 108.39 8.4 99.71 8.39 C89.65 8.38 79.59 8.38 69.53 8.39 C60.91 8.4 52.29 8.4 43.67 8.4 C38.51 8.39 33.35 8.39 28.2 8.4 C23.35 8.41 18.51 8.4 13.66 8.39 C11.88 8.39 10.1 8.39 8.31 8.39 C5.89 8.4 3.46 8.39 1.04 8.38 C0.68 8.38 0.68 8.38 -1.12 8.39 C-5.98 8.36 -5.98 8.36 -8.21 6.13 C-8.4 3.56 -8.4 3.56 -8.21 1.13 C-6.28 -0.8 -2.63 -0.01 0 0 Z " fill="#1B2A2E" transform="translate(365.2127685546875,505.8730163574219)"/>
<path d="M0 0 C8.97 3.68 15.37 10.07 19 19 C21.44 26.31 21.19 35.63 17.81 42.56 C16.92 44.07 15.99 45.55 15 47 C14.8 47.3 14.8 47.3 13.8 48.8 C10.98 52.58 7.53 55.6 3 57 C-0.09 57.02 -2.98 56.63 -6 56 C-6 55.67 -6 55.34 -6 55 C-8.29 54.95 -10.58 54.91 -12.88 54.88 C-13.51 54.86 -13.51 54.86 -16.74 54.8 C-20 55 -20 55 -22 57 C-23 54 -23 54 -23 51 C-23.99 51.17 -23.99 51.17 -29 52 C-29 51.01 -29 50.02 -29 49 C-27.95 48.73 -26.9 48.46 -25.81 48.19 C-22.35 47.11 -19.83 46.24 -17 44 C-16.19 41.31 -16.19 41.31 -16 39 C-15.34 39 -14.68 39 -14 39 C-14 35 -14 35 -16.06 33.06 C-18 31 -18 31 -17.94 28.61 C-16.68 25.12 -15.01 24.16 -11.94 22.12 C-6.97 18.71 -2.44 15.07 2 11 C1.51 10.57 1.02 10.14 0.52 9.69 C-1.72 7.2 -1.27 5.23 -1 2 C-0.67 1.34 -0.34 0.68 0 0 Z " fill="#E2E7E7" transform="translate(549,316)"/>
<path d="M0 0 C0.92 -0.01 1.85 -0.01 2.8 -0.02 C5.86 -0.04 8.92 -0.05 11.99 -0.06 C13.03 -0.07 14.08 -0.07 15.16 -0.07 C20.7 -0.09 26.24 -0.11 31.78 -0.12 C37.49 -0.13 43.21 -0.16 48.92 -0.2 C53.32 -0.23 57.72 -0.24 62.12 -0.24 C64.23 -0.25 66.33 -0.26 68.44 -0.28 C71.39 -0.3 74.35 -0.3 77.3 -0.29 C78.16 -0.31 79.03 -0.32 79.92 -0.33 C87.1 -0.27 93.01 1.68 97.91 7.11 C101.63 12.63 101.04 17.91 100.66 24.3 C100.63 25.11 100.59 25.92 100.55 26.76 C100.51 27.54 100.47 28.32 100.42 29.12 C100.4 29.48 100.4 29.48 100.31 31.26 C99.97 33.18 99.97 33.18 97.97 36.18 C97.64 33.21 97.31 30.24 96.97 27.18 C95.98 27.51 94.99 27.84 93.97 28.18 C93.97 24.22 93.97 20.26 93.97 16.18 C93.31 16.18 92.65 16.18 91.97 16.18 C90.96 14.52 89.96 12.85 88.97 11.18 C85.61 9.5 81.81 10 78.11 9.98 C77.65 9.98 77.65 9.98 75.32 9.96 C72.27 9.93 69.22 9.92 66.17 9.9 C65.13 9.9 64.09 9.89 63.02 9.89 C57.52 9.86 52.01 9.84 46.51 9.83 C40.82 9.81 35.13 9.77 29.44 9.71 C25.07 9.68 20.7 9.67 16.33 9.66 C14.23 9.66 12.13 9.64 10.04 9.62 C7.1 9.59 4.17 9.59 1.23 9.59 C0.36 9.58 -0.5 9.56 -1.4 9.54 C-5.83 9.59 -7.46 9.7 -10.98 12.65 C-11.65 13.48 -12.33 14.32 -13.03 15.18 C-13.69 15.51 -14.35 15.84 -15.03 16.18 C-14.93 15.86 -14.93 15.86 -14.46 14.24 C-14.32 13.56 -14.17 12.88 -14.03 12.18 C-14.19 12.01 -14.19 12.01 -15.03 11.18 C-15.03 10.19 -15.03 9.2 -15.03 8.18 C-15.69 8.18 -16.35 8.18 -17.03 8.18 C-20.95 13.51 -21.16 18.97 -21.09 25.42 C-21.08 26.56 -21.07 27.71 -21.07 28.9 C-21.05 30.08 -21.04 31.27 -21.03 32.49 C-21 34.86 -20.98 37.23 -20.96 39.6 C-20.95 40.65 -20.94 41.69 -20.93 42.77 C-21.03 45.18 -21.03 45.18 -22.03 46.18 C-24.1 46.26 -26.17 46.28 -28.25 46.27 C-29.51 46.27 -30.77 46.27 -32.07 46.26 C-33.41 46.26 -34.75 46.25 -36.09 46.24 C-37.43 46.23 -38.78 46.23 -40.12 46.23 C-43.42 46.21 -46.72 46.2 -50.03 46.18 C-50.03 45.85 -50.03 45.52 -50.03 45.18 C-41.12 45.18 -32.21 45.18 -23.03 45.18 C-23.06 43.09 -23.1 41.01 -23.13 38.86 C-23.16 36.82 -23.17 34.78 -23.19 32.74 C-23.21 31.34 -23.23 29.93 -23.25 28.52 C-23.29 26.49 -23.31 24.46 -23.32 22.42 C-23.33 21.2 -23.35 19.98 -23.37 18.73 C-22.79 12.74 -20.75 8.19 -16.03 4.3 C-15.35 3.73 -14.66 3.15 -13.96 2.56 C-9.68 -0.5 -5.04 0.02 0 0 Z " fill="#212E33" transform="translate(391.026123046875,379.822998046875)"/>
<path d="M0 0 C0.66 0 1.32 0 2 0 C2.04 0.34 2.04 0.34 2.23 2.08 C3.31 9.53 3.31 9.53 7.12 12.12 C8.07 12.41 9.02 12.7 10 13 C9.67 12.01 9.67 12.01 8 7 C8.66 7 9.32 7 10 7 C11.1 8.67 12.13 10.39 13.12 12.12 C16.76 18.04 20.8 21.9 27 25 C28.69 25.11 30.39 25.16 32.09 25.18 C32.59 25.19 32.59 25.19 35.16 25.25 C37.29 25.29 39.43 25.32 41.57 25.34 C42.08 25.36 42.08 25.36 44.65 25.43 C45.11 25.43 45.11 25.43 47.47 25.47 C50.8 26.17 51.98 27.29 54 30 C54.5 32.43 54.5 32.43 54.5 35.1 C54.5 36.06 54.5 37.03 54.5 38.03 C54.48 39.03 54.46 40.03 54.44 41.06 C54.44 42.07 54.45 43.07 54.46 44.11 C54.39 51.5 54.39 51.5 52.72 53.62 C49.68 56.06 45.76 55.4 42.02 55.36 C41.56 55.36 41.56 55.36 39.2 55.37 C36.08 55.37 32.95 55.36 29.82 55.34 C27.58 55.34 25.35 55.34 23.11 55.34 C17.03 55.34 10.94 55.33 4.86 55.3 C-1.5 55.29 -7.85 55.28 -14.2 55.28 C-24.87 55.27 -35.54 55.25 -46.21 55.23 C-57.2 55.2 -68.19 55.18 -79.18 55.16 C-79.86 55.16 -80.53 55.16 -81.23 55.16 C-84.63 55.16 -88.03 55.15 -91.42 55.15 C-119.62 55.12 -147.81 55.07 -176 55 C-176 54.67 -176 54.34 -176 54 C-174.84 54 -173.67 53.99 -172.47 53.99 C-144.87 53.89 -117.28 53.78 -89.68 53.67 C-86.28 53.66 -82.89 53.64 -79.5 53.63 C-78.82 53.62 -78.15 53.62 -77.45 53.62 C-66.5 53.58 -55.54 53.53 -44.59 53.5 C-33.36 53.45 -22.13 53.41 -10.9 53.36 C-4.58 53.34 1.73 53.31 8.04 53.29 C13.97 53.27 19.91 53.25 25.84 53.22 C28.02 53.21 30.21 53.2 32.39 53.2 C35.36 53.19 38.33 53.17 41.3 53.16 C42.18 53.16 43.05 53.16 43.96 53.16 C49.89 53.11 49.89 53.11 51 52 C51.07 49.14 51.09 46.3 51.06 43.44 C51.06 43.03 51.06 43.03 51.05 40.99 C51.04 39 51.02 37 51 35 C48.49 36.26 48.13 37.5 47 40 C46.67 38.35 46.34 36.7 46 35 C10.03 34.84 10.03 34.84 -172 34 C-172 33.67 -172 33.34 -172 33 C-111.28 32.67 -50.56 32.34 12 32 C12 30.68 12 29.36 12 28 C11.38 28 10.77 28 10.13 28.01 C-22.93 28.12 -55.95 27.97 -89 27 C-89 26.67 -89 26.34 -89 26 C-56 25.67 -23 25.34 11 25 C8.36 21.37 5.72 17.74 3 14 C0.73 9.11 -0.4 5.38 0 0 Z " fill="#182126" transform="translate(516,596)"/>
<path d="M0 0 C4.29 0 8.58 0 13 0 C13 60.72 13 121.44 13 184 C8.71 184 4.42 184 0 184 C0 123.28 0 62.56 0 0 Z M1 62 C0.98 76.6 0.96 91.19 0.95 105.79 C0.94 112.56 0.94 119.34 0.92 126.12 C0.91 132.66 0.91 139.2 0.91 145.74 C0.9 148.24 0.9 150.73 0.89 153.23 C0.89 156.72 0.89 160.22 0.89 163.72 C0.88 164.75 0.88 165.77 0.88 166.83 C0.88 172.32 1.19 177.57 2 183 C5.3 183 8.6 183 12 183 C12 143.07 12 103.14 12 62 C8.37 62 4.74 62 1 62 Z " fill="#757F82" transform="translate(571,417)"/>
<path d="M0 0 C16.17 0 32.34 0 49 0 C49 6.93 49 13.86 49 21 C32.83 21 16.66 21 0 21 C0 14.07 0 7.14 0 0 Z " fill="#4F595C" transform="translate(611,380)"/>
<path d="M0 0 C0.99 0 1.98 0 3 0 C3.32 4.45 3.62 8.91 3.91 13.36 C4.01 14.86 4.11 16.36 4.22 17.86 C4.93 27.68 4.97 37.34 4.53 47.17 C3.73 67.58 3.85 87.99 3.87 108.41 C3.87 114.09 3.87 119.77 3.86 125.46 C3.86 134.96 3.86 144.47 3.87 153.98 C3.88 164.97 3.87 175.96 3.87 186.94 C3.86 196.42 3.86 205.9 3.87 215.38 C3.87 221.03 3.87 226.67 3.86 232.31 C3.86 237.6 3.86 242.88 3.87 248.16 C3.87 250.1 3.87 252.04 3.87 253.97 C3.86 256.61 3.87 259.25 3.87 261.89 C3.87 262.66 3.87 263.43 3.87 264.23 C3.88 267.62 3.93 270.75 5 274 C3.35 274 1.7 274 0 274 C0 183.58 0 93.16 0 0 Z " fill="#1F2D35" transform="translate(790,574)"/>
<path d="M0 0 C1.65 0 3.3 0 5 0 C5.05 25 5.08 50 5.1 75 C5.11 86.6 5.13 98.21 5.15 109.82 C5.17 119.93 5.18 130.04 5.19 140.16 C5.19 145.52 5.2 150.87 5.21 156.23 C5.22 161.27 5.23 166.31 5.23 171.34 C5.23 173.2 5.23 175.05 5.24 176.91 C5.25 179.43 5.25 181.95 5.24 184.47 C5.25 185.21 5.25 185.95 5.26 186.72 C5.23 191.77 5.23 191.77 3 194 C2.01 194 1.02 194 0 194 C0 129.98 0 65.96 0 0 Z " fill="#DBE1E3" transform="translate(625,142)"/>
<path d="M0 0 C13.86 0 27.72 0 42 0 C41.5 3.96 41.5 3.96 39 24 C26.79 24 14.58 24 2 24 C0 6 0 6 0 0 Z " fill="#B8BFC4" transform="translate(615,348)"/>
<path d="M0 0 C6.6 0 13.2 0 20 0 C20 15.18 20 30.36 20 46 C13.4 46 6.8 46 0 46 C0 30.82 0 15.64 0 0 Z " fill="#545F60" transform="translate(687,486)"/>
<path d="M0 0 C1.07 -0.01 2.14 -0.02 3.25 -0.03 C4.41 -0.03 5.57 -0.04 6.77 -0.04 C7.95 -0.05 9.14 -0.05 10.37 -0.06 C12.89 -0.07 15.4 -0.08 17.92 -0.08 C21.78 -0.09 25.64 -0.12 29.5 -0.15 C31.94 -0.16 34.39 -0.16 36.83 -0.17 C37.99 -0.18 39.15 -0.19 40.34 -0.2 C40.88 -0.2 40.88 -0.2 43.6 -0.2 C44.54 -0.2 45.49 -0.2 46.47 -0.21 C49.3 0.23 50.19 0.87 51.86 3.16 C52.19 5.57 52.19 5.57 52.11 8.22 C52.1 9.1 52.08 9.98 52.07 10.88 C51.86 13.16 51.86 13.16 50.86 15.16 C48.56 15.42 48.56 15.42 45.47 15.44 C44.32 15.45 43.17 15.45 41.98 15.46 C40.73 15.46 39.48 15.46 38.18 15.46 C36.9 15.47 35.63 15.47 34.31 15.47 C31.6 15.48 28.88 15.48 26.17 15.48 C22.7 15.47 19.22 15.49 15.74 15.51 C12.43 15.53 9.12 15.53 5.81 15.52 C5.18 15.53 5.18 15.53 2.02 15.55 C0.86 15.55 -0.29 15.54 -1.49 15.53 C-2 15.53 -2 15.53 -4.58 15.54 C-7.53 15.1 -8.4 14.55 -10.14 12.16 C-11.07 9.29 -11.07 9.29 -11.14 6.16 C-7.89 1.12 -5.82 0.04 0 0 Z " fill="#80888A" transform="translate(275.136474609375,448.8388671875)"/>
<path d="M0 0 C0.33 0 0.66 0 1 0 C1.02 36.29 1.04 72.58 1.05 108.87 C1.05 113.15 1.05 117.43 1.05 121.71 C1.06 122.56 1.06 123.41 1.06 124.29 C1.06 138.11 1.07 151.92 1.08 165.74 C1.09 179.9 1.09 194.07 1.09 208.23 C1.1 216.98 1.1 225.73 1.11 234.47 C1.11 240.46 1.11 246.45 1.11 252.44 C1.11 255.91 1.11 259.37 1.12 262.83 C1.12 266.57 1.12 270.32 1.12 274.06 C1.12 275.17 1.13 276.27 1.13 277.41 C1.13 278.41 1.13 279.4 1.12 280.43 C1.12 281.29 1.12 282.16 1.12 283.05 C1 285 1 285 0 286 C-2.31 286 -4.62 286 -7 286 C-7 247.39 -7 208.78 -7 169 C-6.67 169 -6.34 169 -6 169 C-5.95 170.13 -5.9 171.26 -5.85 172.43 C-5.78 173.91 -5.7 175.39 -5.62 176.88 C-5.59 177.62 -5.56 178.37 -5.53 179.14 C-5.23 184.77 -5.23 184.77 -3 187 C-2.83 189.51 -2.77 191.91 -2.8 194.41 C-2.81 195.14 -2.81 195.87 -2.81 196.63 C-2.82 198.96 -2.85 201.29 -2.88 203.62 C-2.89 205.21 -2.89 206.79 -2.9 208.37 C-2.92 212.24 -2.96 216.12 -3 220 C-2.67 220 -2.34 220 -2 220 C-2 219.38 -1.99 218.75 -1.99 218.11 C-1.85 197.82 -1.71 177.54 -1.56 157.25 C-1.56 156.48 -1.55 155.7 -1.55 154.91 C-1.26 114.44 -0.94 73.97 -0.44 33.5 C-0.43 33.06 -0.43 33.06 -0.4 30.81 C-0.27 20.54 -0.14 10.27 0 0 Z M-3 180 C-2.67 180 -2.34 180 -2 180 C-2 181.98 -2 183.96 -2 186 C-2.33 186 -2.66 186 -3 186 C-3 184.02 -3 182.04 -3 180 Z " fill="#C5CED0" transform="translate(787,564)"/>
<path d="M0 0 C-0.66 0.66 -1.32 1.32 -2 2 C-1.67 2.5 -1.67 2.5 0 5 C-2 7 -2 7 -4 8 C-4.23 10.41 -4.23 10.41 -4.2 13.57 C-4.19 14.69 -4.18 15.82 -4.18 16.97 C-4.16 18.16 -4.14 19.34 -4.12 20.56 C-4.12 21.75 -4.11 22.94 -4.1 24.16 C-4.07 27.11 -4.04 30.05 -4 33 C-2.72 32.96 -1.44 32.92 -0.12 32.88 C3.75 32.75 3.75 32.75 6 35 C4 38 4 38 1.38 38.69 C0.98 38.74 0.98 38.74 -1 39 C-1 39.33 -1 39.66 -1 40 C-5.95 39.83 -5.95 39.83 -31 39 C-31 38.67 -31 38.34 -31 38 C-26.38 38 -21.76 38 -17 38 C-17.33 36.35 -17.66 34.7 -18 33 C-21.3 33 -24.6 33 -28 33 C-28.05 29.19 -28.09 25.38 -28.12 21.56 C-28.14 20.47 -28.16 19.39 -28.18 18.26 C-28.18 17.23 -28.19 16.19 -28.2 15.13 C-28.21 14.17 -28.22 13.21 -28.23 12.22 C-28.15 11.49 -28.08 10.76 -28 10 C-27.34 9.67 -26.68 9.34 -26 9 C-26 8.01 -26 7.02 -26 6 C-25.01 5.67 -24.02 5.34 -23 5 C-23.66 4.34 -24.32 3.68 -25 3 C-24.38 3.05 -23.77 3.09 -23.13 3.14 C-17.21 3.39 -13.16 2.62 -7.91 -0.12 C-4.9 -1.5 -3.1 -1.03 0 0 Z " fill="#222E34" transform="translate(557,374)"/>
<path d="M0 0 C0.33 0 0.66 0 1 0 C1.01 1.2 1.03 2.41 1.04 3.65 C1.09 5.22 1.14 6.8 1.19 8.38 C1.19 9.17 1.2 9.96 1.21 10.78 C1.29 13.09 1.29 13.09 2 17 C4.54 18.24 4.54 18.24 7 19 C7.02 30.73 7.04 42.46 7.05 54.19 C7.06 59.63 7.06 65.08 7.08 70.53 C7.09 75.81 7.09 81.09 7.09 86.36 C7.1 88.36 7.1 90.35 7.11 92.34 C7.14 106.59 6.73 120.77 6 135 C5.01 135 4.02 135 3 135 C2.34 136.98 1.68 138.96 1 141 C0.67 141 0.34 141 0 141 C0 94.47 0 47.94 0 0 Z " fill="#202D32" transform="translate(586,442)"/>
<path d="M0 0 C16.94 -1.79 34.76 8.11 47 19 C47.7 19.6 48.4 20.21 49.12 20.83 C59.08 30.04 67.38 44.33 68.18 58.14 C67.87 62.77 67.87 62.77 67 65 C66.5 65.16 66.5 65.16 64 66 C63.49 68.07 63.49 68.07 63.31 70.56 C63.25 71.39 63.18 72.22 63.11 73.07 C63.09 73.39 63.09 73.39 63 75 C62.67 75 62.34 75 62 75 C61.85 73.89 61.71 72.77 61.55 71.62 C58.7 51.57 52.66 34.26 35.74 21.77 C21.44 12.53 6.69 9.17 -10 7 C-10 6.67 -10 6.34 -10 6 C-8.08 5.97 -6.17 5.95 -4.25 5.94 C-3.72 5.93 -3.72 5.93 -1.02 5.9 C1.53 5.98 3.58 6.25 6 7 C6 5.68 6 4.36 6 3 C4.02 2.34 2.04 1.68 0 1 C0 0.67 0 0.34 0 0 Z " fill="#222C31" transform="translate(726,485)"/>
<path d="M0 0 C23.17 -0.05 46.35 -0.08 69.52 -0.1 C80.28 -0.11 91.04 -0.13 101.8 -0.15 C111.17 -0.17 120.55 -0.18 129.92 -0.19 C134.89 -0.19 139.86 -0.2 144.82 -0.21 C149.49 -0.22 154.16 -0.23 158.83 -0.23 C160.55 -0.23 162.27 -0.23 163.99 -0.24 C166.33 -0.25 168.66 -0.25 171 -0.24 C171.66 -0.24 171.66 -0.24 174.97 -0.25 C178 0 178 0 180 2 C180.25 4.5 180.25 4.5 180 7 C177.18 9.82 174.52 9.28 170.75 9.25 C170.37 9.26 170.37 9.26 168.46 9.26 C165.91 9.27 163.37 9.27 160.82 9.26 C159 9.26 157.18 9.27 155.36 9.27 C150.41 9.28 145.46 9.27 140.51 9.27 C135.33 9.26 130.16 9.27 124.99 9.27 C116.3 9.28 107.61 9.27 98.92 9.26 C88.86 9.25 78.8 9.25 68.75 9.26 C60.12 9.27 51.5 9.27 42.88 9.27 C37.72 9.27 32.57 9.27 27.41 9.27 C22.57 9.28 17.72 9.27 12.87 9.26 C11.09 9.26 9.31 9.26 7.53 9.27 C5.1 9.27 2.68 9.26 0.25 9.25 C-0.11 9.26 -0.11 9.26 -1.91 9.27 C-6.77 9.23 -6.77 9.23 -9 7 C-9.12 4.38 -9.12 4.38 -9 2 C-8.01 1.67 -7.02 1.34 -6 1 C-6.33 1.99 -6.66 2.98 -7 4 C-6.67 4.66 -6.34 5.32 -6 6 C-3.59 6.21 -1.3 6.29 1.11 6.28 C1.86 6.28 2.61 6.29 3.39 6.3 C5.92 6.31 8.46 6.32 11 6.32 C12.82 6.33 14.63 6.34 16.44 6.35 C21.38 6.38 26.32 6.39 31.26 6.4 C36.41 6.42 41.57 6.45 46.72 6.47 C56.49 6.52 66.25 6.56 76.02 6.59 C87.14 6.63 98.26 6.68 109.37 6.73 C132.25 6.83 155.12 6.92 178 7 C177.67 5.35 177.34 3.7 177 2 C176.09 2 175.19 2 174.25 2.01 C152.24 2.05 130.22 2.08 108.21 2.1 C97.56 2.11 86.92 2.13 76.27 2.15 C67 2.17 57.72 2.18 48.44 2.19 C43.53 2.19 38.61 2.2 33.7 2.21 C29.08 2.22 24.46 2.23 19.84 2.23 C18.14 2.23 16.44 2.23 14.74 2.24 C12.43 2.25 10.11 2.25 7.8 2.24 C6.5 2.24 5.21 2.24 3.87 2.25 C2.92 2.16 1.98 2.08 1 2 C0.67 1.34 0.34 0.68 0 0 Z " fill="#1C282C" transform="translate(366,533)"/>
<path d="M0 0 C0.33 0 0.66 0 1 0 C1.33 12.21 1.66 24.42 2 37 C2.33 37 2.66 37 3 37 C3.33 33.04 3.66 29.08 4 25 C4.33 25 4.66 25 5 25 C5 19.06 5 13.12 5 7 C5.99 7 6.98 7 8 7 C7.67 56.83 7.34 106.66 7 158 C6.01 158 5.02 158 4 158 C2.65 155.29 2.93 152.99 3 150 C2.34 150 1.68 150 1 150 C0 118.55 -0.13 87.12 -0.07 55.66 C-0.06 49.35 -0.05 43.05 -0.05 36.74 C-0.04 24.5 -0.02 12.25 0 0 Z " fill="#1A262A" transform="translate(333,426)"/>
<path d="M0 0 C71.94 0 143.88 0 218 0 C218 3.96 218 7.92 218 12 C146.06 12 74.12 12 0 12 C0 8.04 0 4.08 0 0 Z M3 1 C2.67 3.64 2.34 6.28 2 9 C5.81 10.27 9.4 10.15 13.37 10.16 C14.24 10.16 15.1 10.17 15.99 10.17 C18.9 10.19 21.8 10.2 24.71 10.21 C26.79 10.21 28.87 10.22 30.95 10.24 C36.6 10.26 42.26 10.28 47.91 10.3 C53.82 10.33 59.72 10.35 65.63 10.38 C76.82 10.43 88 10.47 99.19 10.52 C111.93 10.57 124.66 10.62 137.4 10.68 C163.6 10.79 189.8 10.9 216 11 C216.33 7.7 216.66 4.4 217 1 C146.38 1 75.76 1 3 1 Z " fill="#646F72" transform="translate(344,631)"/>
<path d="M0 0 C1.32 0 2.64 0 4 0 C4 61.38 4 122.76 4 186 C3.34 185.01 2.68 184.02 2 183 C1.84 183.33 1.84 183.33 1 185 C0.34 185 -0.32 185 -1 185 C-2.43 182.13 -2.14 179.67 -2.15 176.47 C-2.15 175.8 -2.15 175.13 -2.16 174.44 C-2.16 172.22 -2.17 170 -2.17 167.78 C-2.17 166.24 -2.17 164.7 -2.18 163.16 C-2.18 159.94 -2.19 156.71 -2.19 153.48 C-2.19 149.34 -2.2 145.19 -2.22 141.05 C-2.23 137.87 -2.23 134.69 -2.23 131.51 C-2.23 129.98 -2.23 128.46 -2.24 126.93 C-2.25 124.8 -2.25 122.66 -2.24 120.53 C-2.24 119.31 -2.25 118.1 -2.25 116.85 C-2 114 -2 114 0 112 C0.27 110.09 0.27 110.09 0.29 107.72 C0.3 106.82 0.31 105.92 0.33 105 C0.33 104.5 0.33 104.5 0.34 102 C0.36 100.95 0.37 99.91 0.39 98.84 C0.42 96.56 0.44 94.29 0.46 92.02 C0.53 85.93 0.62 79.83 0.71 73.74 C0.73 72.47 0.75 71.19 0.77 69.88 C1.02 55.29 1.53 40.71 2.06 26.12 C2.11 24.86 2.15 23.59 2.2 22.28 C2.46 15.19 2.73 8.09 3 1 C2.01 0.67 1.02 0.34 0 0 Z " fill="#1C272D" transform="translate(656,143)"/>
<path d="M0 0 C0.33 0 0.66 0 1 0 C1.33 37.95 1.66 75.9 2 115 C2.99 115.33 3.98 115.66 5 116 C5 151.64 5 187.28 5 224 C3.35 224 1.7 224 0 224 C0 150.08 0 76.16 0 0 Z " fill="#D2D9DB" transform="translate(775,625)"/>
<path d="M0 0 C6.5 -0.08 12.99 -0.13 19.49 -0.16 C21.7 -0.18 23.91 -0.2 26.12 -0.23 C29.3 -0.26 32.47 -0.28 35.64 -0.29 C36.64 -0.31 37.63 -0.32 38.65 -0.34 C39.57 -0.34 40.49 -0.34 41.44 -0.34 C42.25 -0.35 43.06 -0.35 43.89 -0.36 C46.54 0.09 47.41 0.86 49 3 C49.64 8.14 49.64 8.14 47.76 10.67 C45.53 12.36 44.32 12.37 41.54 12.36 C40.65 12.36 39.75 12.36 38.82 12.37 C37.86 12.35 36.89 12.34 35.9 12.33 C34.91 12.33 33.91 12.32 32.89 12.32 C30.8 12.32 28.7 12.3 26.6 12.28 C23.38 12.25 20.16 12.24 16.94 12.23 C14.9 12.23 12.87 12.21 10.84 12.2 C9.87 12.2 8.9 12.19 7.9 12.19 C7.01 12.18 6.11 12.17 5.2 12.16 C4.41 12.15 3.62 12.15 2.81 12.14 C1 12 1 12 0 11 C-0.07 9.15 -0.08 7.29 -0.06 5.44 C-0.05 4.43 -0.04 3.41 -0.04 2.37 C-0.02 1.59 -0.01 0.81 0 0 Z " fill="#7D8687" transform="translate(598,457)"/>
<path d="M0 0 C0.33 0 0.66 0 1 0 C1.13 13.37 1.26 26.75 1.39 40.12 C1.45 46.33 1.51 52.55 1.57 58.76 C1.87 88.84 2.08 118.92 2 149 C2.66 149 3.32 149 4 149 C4.33 150.98 4.66 152.96 5 155 C5.33 138.5 5.66 122 6 105 C6.33 105 6.66 105 7 105 C7.33 72.33 7.66 39.66 8 6 C8.33 6 8.66 6 9 6 C9 56.49 9 106.98 9 159 C12.96 159 16.92 159 21 159 C21 159.33 21 159.66 21 160 C20.01 160.06 19.03 160.12 18.01 160.18 C16.73 160.27 15.45 160.35 14.12 160.44 C12.85 160.52 11.57 160.6 10.26 160.68 C7 161 7 161 5 162 C4.67 163.65 4.34 165.3 4 167 C-15.14 167 -34.28 167 -54 167 C-54 166.67 -54 166.34 -54 166 C-36.18 166 -18.36 166 0 166 C0 111.22 0 56.44 0 0 Z " fill="#263337" transform="translate(332,427)"/>
<path d="M0 0 C3.97 -0.02 7.94 -0.04 11.91 -0.05 C13.26 -0.06 14.61 -0.07 15.96 -0.08 C17.9 -0.09 19.84 -0.09 21.78 -0.1 C22.36 -0.1 22.36 -0.1 25.32 -0.11 C28 0 28 0 29 1 C29.18 3.1 29.27 5.21 29.31 7.31 C29.35 8.46 29.39 9.61 29.43 10.8 C28.91 14.71 28.07 15.61 25 18 C22.25 18.45 22.25 18.45 19.14 18.39 C18.03 18.38 16.91 18.36 15.76 18.35 C15.18 18.33 15.18 18.33 12.25 18.25 C11.08 18.23 9.9 18.21 8.69 18.2 C5.79 18.15 2.9 18.08 0 18 C0 12.06 0 6.12 0 0 Z " fill="#535E62" transform="translate(620,410)"/>
<path d="M0 0 C0.33 0 0.66 0 1 0 C1.33 54.12 1.66 108.24 2 164 C2.66 162.02 3.32 160.04 4 158 C4.66 158 5.32 158 6 158 C6.33 150.74 6.66 143.48 7 136 C7.33 136 7.66 136 8 136 C8 145.24 8 154.48 8 164 C25.49 164 42.98 164 61 164 C61 164.33 61 164.66 61 165 C43.18 165.33 25.36 165.66 7 166 C7 167.32 7 168.64 7 170 C24.82 170.33 42.64 170.66 61 171 C61 171.33 61 171.66 61 172 C43.51 172 26.02 172 8 172 C8 176.62 8 181.24 8 186 C7.01 186.99 6.02 187.98 5 189 C5 188.34 5 187.68 5 187 C4.34 186.67 3.68 186.34 3 186 C3 184.68 3 183.36 3 182 C2.34 182 1.68 182 1 182 C0.17 179.08 -0.14 176.47 -0.16 173.44 C-0.18 172.53 -0.19 171.62 -0.2 170.68 C-0.21 169.69 -0.21 168.69 -0.22 167.67 C-0.23 166.61 -0.24 165.55 -0.26 164.47 C-0.29 160.95 -0.32 157.43 -0.35 153.91 C-0.38 151.43 -0.4 148.95 -0.42 146.47 C-0.49 139.84 -0.54 133.22 -0.59 126.6 C-0.62 123.19 -0.65 119.79 -0.68 116.39 C-1.01 77.58 -1.15 38.8 0 0 Z " fill="#1A2529" transform="translate(585,418)"/>
<path d="M0 0 C1.65 0 3.3 0 5 0 C5.05 8.69 5.08 17.39 5.1 26.08 C5.11 30.12 5.13 34.16 5.15 38.19 C5.17 42.1 5.18 46 5.19 49.9 C5.19 51.39 5.2 52.87 5.21 54.35 C5.27 62.43 5.08 70.14 3 78 C2.67 78 2.34 78 2 78 C1.67 114.96 1.34 151.92 1 190 C0.67 190 0.34 190 0 190 C0 127.3 0 64.6 0 0 Z " fill="#D0D9DB" transform="translate(620,142)"/>
<path d="M0 0 C23.83 -0.05 47.65 -0.08 71.48 -0.1 C82.54 -0.11 93.6 -0.13 104.66 -0.15 C114.3 -0.17 123.94 -0.18 133.58 -0.19 C138.69 -0.19 143.79 -0.2 148.9 -0.21 C153.7 -0.22 158.5 -0.23 163.3 -0.23 C165.07 -0.23 166.84 -0.23 168.6 -0.24 C171.01 -0.25 173.41 -0.25 175.81 -0.24 C176.52 -0.25 177.22 -0.25 177.95 -0.26 C182.77 -0.23 182.77 -0.23 185 2 C184.62 4.62 184.62 4.62 184 7 C183.67 6.34 183.34 5.68 183 5 C182.49 5.16 181.98 5.33 181.46 5.49 C178.18 6.17 174.98 6.13 171.65 6.12 C171.28 6.12 171.28 6.12 169.4 6.12 C166.91 6.12 164.42 6.12 161.93 6.11 C160.15 6.11 158.36 6.11 156.58 6.11 C151.73 6.11 146.89 6.11 142.05 6.1 C136.98 6.1 131.92 6.09 126.86 6.09 C117.27 6.09 107.68 6.08 98.1 6.07 C87.18 6.06 76.27 6.06 65.36 6.05 C42.9 6.04 20.45 6.02 -2 6 C-2 5.67 -2 5.34 -2 5 C16.81 4.84 16.81 4.84 112 4 C112 3.67 112 3.34 112 3 C124.87 3 137.74 3 151 3 C151 3.33 151 3.66 151 4 C154.31 4.06 157.62 4.09 160.94 4.12 C161.88 4.14 162.83 4.16 163.8 4.18 C164.7 4.18 165.6 4.19 166.53 4.2 C166.94 4.2 166.94 4.2 169.05 4.23 C169.69 4.15 170.34 4.08 171 4 C171.33 3.34 171.66 2.68 172 2 C115.24 1.67 58.48 1.34 0 1 C0 0.67 0 0.34 0 0 Z " fill="#1A282E" transform="translate(361,560)"/>
<path d="M0 0 C0.92 -0 1.83 -0 2.78 -0 C5.82 0 8.85 0.01 11.89 0.02 C13.99 0.02 16.09 0.02 18.2 0.02 C23.73 0.02 29.27 0.03 34.81 0.04 C40.46 0.06 46.11 0.06 51.76 0.06 C62.85 0.08 73.94 0.09 85.03 0.11 C85.03 0.44 85.03 0.77 85.03 1.11 C56.98 1.44 28.93 1.77 0.03 2.11 C3.33 2.44 6.63 2.77 10.03 3.11 C10.03 3.44 10.03 3.77 10.03 4.11 C8.38 4.11 6.73 4.11 5.03 4.11 C5.03 4.77 5.03 5.43 5.03 6.11 C31.43 6.44 57.83 6.77 85.03 7.11 C85.03 7.44 85.03 7.77 85.03 8.11 C84.47 8.12 84.47 8.12 81.65 8.13 C71.15 8.19 60.64 8.26 50.14 8.35 C44.74 8.39 39.34 8.43 33.94 8.46 C28.72 8.49 23.51 8.53 18.3 8.58 C16.31 8.59 14.32 8.6 12.33 8.61 C9.55 8.62 6.76 8.65 3.97 8.68 C3.56 8.68 3.56 8.68 1.49 8.68 C-5.54 8.79 -10.2 10.79 -14.97 16.11 C-14.88 15.79 -14.88 15.79 -14.41 14.18 C-14.26 13.5 -14.12 12.81 -13.97 12.11 C-14.13 11.95 -14.13 11.95 -14.97 11.11 C-14.97 10.12 -14.97 9.13 -14.97 8.11 C-15.63 8.11 -16.29 8.11 -16.97 8.11 C-20.89 13.45 -21.1 18.91 -21.03 25.35 C-21.02 26.5 -21.02 27.65 -21.01 28.83 C-21 30.02 -20.98 31.2 -20.97 32.43 C-20.94 34.8 -20.92 37.17 -20.91 39.54 C-20.9 40.59 -20.88 41.63 -20.87 42.71 C-20.97 45.11 -20.97 45.11 -21.97 46.11 C-24.04 46.2 -26.12 46.22 -28.19 46.21 C-29.45 46.21 -30.71 46.2 -32.01 46.2 C-33.35 46.19 -34.69 46.18 -36.03 46.18 C-37.38 46.17 -38.72 46.17 -40.07 46.16 C-43.37 46.15 -46.67 46.13 -49.97 46.11 C-49.97 45.78 -49.97 45.45 -49.97 45.11 C-41.06 45.11 -32.15 45.11 -22.97 45.11 C-23 43.03 -23.04 40.94 -23.07 38.8 C-23.1 36.76 -23.12 34.72 -23.13 32.68 C-23.15 31.27 -23.17 29.87 -23.2 28.46 C-23.23 26.43 -23.25 24.39 -23.26 22.36 C-23.28 21.14 -23.29 19.92 -23.31 18.66 C-22.74 12.68 -20.7 8.13 -15.97 4.24 C-15.29 3.66 -14.61 3.09 -13.91 2.5 C-9.62 -0.56 -5.03 -0.02 0 0 Z " fill="#162023" transform="translate(390.969482421875,379.886474609375)"/>
<path d="M0 0 C6.93 0 13.86 0 21 0 C21.06 3.09 21.12 6.19 21.19 9.38 C21.21 10.35 21.24 11.32 21.27 12.33 C21.28 13.09 21.29 13.86 21.29 14.65 C21.31 15.43 21.32 16.22 21.34 17.03 C21 19 21 19 18 21 C16.01 21.23 16.01 21.23 13.77 21.2 C13.05 21.19 12.32 21.19 11.58 21.18 C10.66 21.16 9.75 21.14 8.81 21.12 C5.9 21.08 3 21.04 0 21 C0 14.07 0 7.14 0 0 Z " fill="#717A7D" transform="translate(611,380)"/>
<path d="M0 0 C6.6 0 13.2 0 20 0 C20 6.93 20 13.86 20 21 C13.73 21 7.46 21 1 21 C-0.03 13.8 -0.07 7.25 0 0 Z " fill="#747E81" transform="translate(687,486)"/>
<path d="M0 0 C59.73 0 119.46 0 181 0 C181 0.33 181 0.66 181 1 C149.98 1.33 118.96 1.66 87 2 C88.65 2.33 90.3 2.66 92 3 C91.67 4.32 91.34 5.64 91 7 C91.66 7 92.32 7 93 7 C93 7.66 93 8.32 93 9 C88.71 9.09 84.42 9.14 80.12 9.19 C79.51 9.2 79.51 9.2 76.42 9.26 C75.83 9.27 75.83 9.27 72.88 9.29 C72.34 9.3 72.34 9.3 69.61 9.34 C68.75 9.23 67.89 9.12 67 9 C66.67 8.5 66.67 8.5 65 6 C65.66 6 66.32 6 67 6 C66.84 5.67 66.84 5.67 66 4 C63.6 3.82 61.31 3.77 58.9 3.8 C58.19 3.81 57.48 3.81 56.75 3.81 C54.48 3.82 52.21 3.85 49.94 3.88 C48.4 3.89 46.86 3.89 45.33 3.9 C41.55 3.92 37.78 3.96 34 4 C34 3.67 34 3.34 34 3 C44.23 3 54.46 3 65 3 C65 2.34 65 1.68 65 1 C43.55 1 22.1 1 0 1 C0 0.67 0 0.34 0 0 Z " fill="#253338" transform="translate(359,451)"/>
<path d="M0 0 C0.33 0 0.66 0 1 0 C1 3.63 1 7.26 1 11 C1.99 11.33 2.98 11.66 4 12 C3.67 13.32 3.34 14.64 3 16 C9.27 16 15.54 16 22 16 C22 15.67 22 15.34 22 15 C22.4 14.97 22.4 14.97 24.42 14.83 C28.03 14.58 31.64 14.32 35.25 14.06 C36.5 13.98 37.76 13.89 39.05 13.8 C40.26 13.71 41.46 13.62 42.7 13.54 C43.81 13.46 44.92 13.38 46.07 13.3 C49 13 49 13 51.33 12.4 C51.61 12.34 51.61 12.34 53 12 C53.17 12.16 53.17 12.16 54 13 C56.53 13.24 59.03 13.42 61.56 13.56 C62.27 13.61 62.98 13.65 63.72 13.69 C65.48 13.8 67.24 13.9 69 14 C69 14.66 69 15.32 69 16 C93.75 16.16 93.75 16.16 219 17 C219 17.33 219 17.66 219 18 C189.96 18.18 160.92 18.34 131.88 18.49 C129.2 18.51 126.51 18.52 123.83 18.54 C123.5 18.54 123.5 18.54 121.81 18.55 C111.01 18.6 100.21 18.67 89.41 18.74 C78.34 18.8 67.26 18.87 56.18 18.92 C49.96 18.95 43.73 18.98 37.51 19.03 C31.66 19.07 25.81 19.1 19.95 19.12 C17.8 19.13 15.65 19.14 13.49 19.16 C10.56 19.18 7.64 19.19 4.71 19.2 C3.84 19.21 2.98 19.22 2.09 19.23 C-3.77 19.23 -3.77 19.23 -6 17 C-5.94 14.94 -5.94 14.94 -5 13 C-3.35 12.67 -1.7 12.34 0 12 C0 8.04 0 4.08 0 0 Z " fill="#283338" transform="translate(343,632)"/>
<path d="M0 0 C13.53 0 27.06 0 41 0 C41 2.97 41 5.94 41 9 C27.47 9 13.94 9 0 9 C0 6.03 0 3.06 0 0 Z " fill="#556064" transform="translate(521,416)"/>
<path d="M0 0 C5.61 0.33 11.22 0.66 17 1 C17.07 8.58 17.07 15.49 16 23 C10.72 23 5.44 23 0 23 C0 15.41 0 7.82 0 0 Z " fill="#4A5559" transform="translate(529,384)"/>
<path d="M0 0 C12.23 -0.61 23.76 3.65 32.55 12.24 C33.37 14.42 33.55 15.93 33.55 18.24 C32.73 17.91 32.73 17.91 28.55 16.24 C28.55 16.9 28.55 17.56 28.55 18.24 C29.21 18.57 29.87 18.9 30.55 19.24 C26.86 18.53 23.87 16.97 20.55 15.24 C19.18 14.55 17.8 13.87 16.43 13.18 C14.47 12.2 12.55 11.24 10.67 10.13 C4.21 7.42 -4.67 9.2 -11.45 10.24 C-11.01 7.24 -10.68 4.96 -9.45 2.24 C-6.11 0.54 -3.67 0.36 0 0 Z " fill="#253134" transform="translate(534.44921875,304.7578125)"/>
<path d="M0 0 C0.66 0.66 1.32 1.32 2 2 C1.62 5.62 1.62 5.62 1 9 C2.32 9 3.64 9 5 9 C5 9.66 5 10.32 5 11 C6.32 11 7.64 11 9 11 C9 12.32 9 13.64 9 15 C10.32 15 11.64 15 13 15 C13 13.02 13 11.04 13 9 C16.31 7.88 16.31 7.88 20 7 C20.99 7.66 21.98 8.32 23 9 C22.02 10.35 21.02 11.68 20 13 C19.61 13.54 19.22 14.07 18.81 14.62 C16.32 16.52 13.79 16.84 10.74 17.38 C10.45 17.48 10.45 17.48 9 18 C8.67 18.99 8.34 19.98 8 21 C5.56 20.25 5.56 20.25 3 19 C2.19 16.88 2.19 16.88 2 15 C1.01 15 0.02 15 -1 15 C-1 13.68 -1 12.36 -1 11 C-1.66 11 -2.32 11 -3 11 C-3 12.32 -3 13.64 -3 15 C-3.66 15 -4.32 15 -5 15 C-5 13.68 -5 12.36 -5 11 C-5.66 11 -6.32 11 -7 11 C-7 11.66 -7 12.32 -7 13 C-8.32 12.67 -9.64 12.34 -11 12 C-11.34 13.44 -11.67 14.87 -12 16.31 C-12.19 17.11 -12.37 17.91 -12.56 18.74 C-13 21 -13 21 -13 24 C-12.34 24 -11.68 24 -11 24 C-11.08 25.18 -11.17 26.35 -11.25 27.56 C-11.28 30.95 -10.72 32.94 -8.94 35.81 C-8.3 36.86 -7.66 37.92 -7 39 C-8 42 -8 42 -10 43 C-10.82 41.44 -11.63 39.88 -12.44 38.31 C-12.89 37.44 -13.34 36.57 -13.81 35.68 C-17.43 27.54 -16.78 19.46 -13.29 11.44 C-11.28 7.63 -8.76 4.3 -6 1 C-6 3.62 -6.31 5.51 -7 8 C-5 6 -5 6 -4 3 C-1.94 1.31 -1.94 1.31 0 0 Z " fill="#E1E7E7" transform="translate(523,321)"/>
<path d="M0 0 C0.33 0 0.66 0 1 0 C1.05 13.73 1.08 27.47 1.1 41.2 C1.11 47.58 1.13 53.96 1.15 60.33 C1.17 66.49 1.18 72.64 1.19 78.79 C1.19 81.14 1.2 83.49 1.21 85.84 C1.23 89.13 1.23 92.41 1.23 95.7 C1.23 96.68 1.24 97.65 1.25 98.65 C1.23 103.26 1.08 106.79 -1 111 C-1.2 113.68 -1.2 113.68 -1.12 116.31 C-1.11 117.2 -1.09 118.08 -1.07 118.99 C-1.05 119.65 -1.02 120.32 -1 121 C-7.02 113.74 -7.45 104.28 -7.34 95.2 C-7.34 94.19 -7.34 93.17 -7.34 92.13 C-7.34 88.81 -7.32 85.49 -7.29 82.18 C-7.29 79.86 -7.28 77.54 -7.28 75.23 C-7.27 69.16 -7.24 63.1 -7.21 57.03 C-7.18 50.83 -7.16 44.63 -7.15 38.43 C-7.11 26.29 -7.06 14.14 -7 2 C-6.67 2 -6.34 2 -6 2 C-5.34 35.66 -4.68 69.32 -4 104 C-1 102 -1 102 -0.62 100.16 C-0.61 99.41 -0.61 98.66 -0.6 97.89 C-0.59 97.03 -0.58 96.17 -0.56 95.28 C-0.56 94.33 -0.57 93.38 -0.57 92.41 C-0.56 91.41 -0.55 90.42 -0.54 89.39 C-0.51 86.09 -0.5 82.79 -0.49 79.49 C-0.47 77.21 -0.45 74.92 -0.43 72.64 C-0.39 66.62 -0.36 60.6 -0.33 54.58 C-0.3 48.44 -0.25 42.3 -0.21 36.16 C-0.12 24.11 -0.06 12.05 0 0 Z " fill="#161E21" transform="translate(246,458)"/>
<path d="M0 0 C17.49 0 34.98 0 53 0 C53 54.78 53 109.56 53 166 C35.18 166 17.36 166 -1 166 C-1 165.67 -1 165.34 -1 165 C16.49 165 33.98 165 52 165 C51.67 111.21 51.34 57.42 51 2 C36.48 2 21.96 2 7 2 C4.69 1.67 2.38 1.34 0 1 C0 0.67 0 0.34 0 0 Z " fill="#677173" transform="translate(279,427)"/>
<path d="M0 0 C0.33 0 0.66 0 1 0 C1 7.59 1 15.18 1 23 C1.66 23 2.32 23 3 23 C3 22.34 3 21.68 3 21 C3.4 21.02 3.4 21.02 5.44 21.12 C6.28 21.08 7.13 21.04 8 21 C8.33 20.34 8.66 19.68 9 19 C9 19.99 9 20.98 9 22 C9.99 22.33 10.98 22.66 12 23 C12 63.59 12 104.18 12 146 C7.71 146 3.42 146 -1 146 C-1.02 130.06 -1.04 114.13 -1.05 98.19 C-1.06 90.79 -1.06 83.39 -1.08 75.99 C-1.09 69.53 -1.09 63.07 -1.09 56.6 C-1.1 53.19 -1.1 49.78 -1.11 46.37 C-1.14 30.88 -0.94 15.46 0 0 Z M0 24 C-0.02 38.6 -0.04 53.19 -0.05 67.79 C-0.06 74.56 -0.06 81.34 -0.08 88.12 C-0.09 94.66 -0.09 101.2 -0.09 107.74 C-0.1 110.24 -0.1 112.73 -0.11 115.23 C-0.11 118.72 -0.11 122.22 -0.11 125.72 C-0.12 126.75 -0.12 127.77 -0.12 128.83 C-0.12 134.32 0.19 139.57 1 145 C4.3 145 7.6 145 11 145 C11 105.07 11 65.14 11 24 C7.37 24 3.74 24 0 24 Z " fill="#697476" transform="translate(572,455)"/>
<path d="M0 0 C14.72 0 14.72 0 20.25 1.38 C21.33 1.63 22.41 1.89 23.52 2.15 C26 3 26 3 27 5 C26.01 5 25.02 5 24 5 C24.02 5.95 24.04 6.9 24.06 7.88 C24 11 24 11 23 13 C17.85 14.15 13.22 13.88 8.06 13.06 C5.73 12.71 3.4 12.36 1 12 C1 18.6 1 25.2 1 32 C0.67 32 0.34 32 0 32 C0 21.44 0 10.88 0 0 Z " fill="#D9E1E5" transform="translate(716,493)"/>
<path d="M0 0 C0.66 0.66 0.66 0.66 4 4 C-45.17 4 -94.34 4 -145 4 C-144.34 3.01 -143.68 2.02 -143 1 C-142.45 1.16 -141.9 1.33 -141.33 1.49 C-138.7 2.06 -136.34 2.12 -133.64 2.11 C-132.56 2.11 -131.47 2.11 -130.35 2.11 C-129.17 2.11 -127.98 2.1 -126.76 2.1 C-125.5 2.1 -124.25 2.09 -122.95 2.09 C-120.23 2.09 -117.5 2.08 -114.78 2.08 C-110.46 2.06 -106.14 2.06 -101.83 2.05 C-91.88 2.04 -81.93 2.02 -71.98 1.99 C-62.87 1.97 -53.77 1.96 -44.66 1.95 C-40.37 1.94 -36.09 1.93 -31.81 1.92 C-29.78 1.91 -27.75 1.91 -25.72 1.91 C-23.25 1.9 -20.79 1.9 -18.33 1.89 C-12.13 1.89 -6.14 2.18 0 3 C0 2.01 0 1.02 0 0 Z " fill="#5E686B" transform="translate(524,618)"/>
<path d="M0 0 C1.87 0.9 1.87 0.9 2.91 2.63 C2.85 6.27 0.67 7.74 -1.82 10.28 C-4.62 13.16 -7.07 15.81 -9.27 19.18 C-11.13 21.9 -11.13 21.9 -14.13 23.03 C-17.13 22.9 -17.13 22.9 -19.57 21.28 C-21.13 18.9 -21.13 18.9 -21.05 16.5 C-19.81 12.99 -18.07 12.01 -15 9.96 C-11.51 7.58 -8.28 5.23 -5.19 2.34 C-2.13 -0.1 -2.13 -0.1 0 0 Z " fill="#262F31" transform="translate(552.12890625,328.09765625)"/>
<path d="M0 0 C6.25 3.84 12.26 8.13 17.28 13.52 C17.28 14.18 17.28 14.84 17.28 15.52 C16.62 15.52 15.96 15.52 15.28 15.52 C14.7 14.78 14.13 14.03 13.53 13.27 C11.08 10.27 8.56 8.53 5.28 6.52 C5.28 7.18 5.28 7.84 5.28 8.52 C5.94 8.85 6.6 9.18 7.28 9.52 C6.95 10.01 6.95 10.01 5.28 12.52 C1.06 11.64 -2.43 9.74 -6.24 7.78 C-8.21 6.78 -10.24 5.88 -12.28 5.02 C-14.72 3.52 -14.72 3.52 -15.66 0.96 C-15.72 -1.48 -15.72 -1.48 -14.72 -3.48 C-9.4 -5.25 -4.75 -2.59 0 0 Z " fill="#C0C8CD" transform="translate(754.71875,501.48046875)"/>
<path d="M0 0 C3.02 3.74 3.34 6.59 3.19 11.31 C3.16 12.38 3.13 13.45 3.11 14.55 C3.07 15.36 3.04 16.17 3 17 C2.01 17 1.02 17 0 17 C-0.66 15.68 -1.32 14.36 -2 13 C-2.33 16.96 -2.66 20.92 -3 25 C-3.33 25 -3.66 25 -4 25 C-4.33 38.86 -4.66 52.72 -5 67 C-5.33 67 -5.66 67 -6 67 C-6 46.54 -6 26.08 -6 5 C-6.66 5 -7.32 5 -8 5 C-8 3.68 -8 2.36 -8 1 C-8.61 1.02 -9.23 1.05 -9.86 1.07 C-10.27 1.08 -10.27 1.08 -12.31 1.12 C-13.11 1.15 -13.91 1.17 -14.74 1.2 C-17 1 -17 1 -20 -1 C-17.6 -1.22 -15.21 -1.43 -12.81 -1.62 C-12.14 -1.69 -11.47 -1.75 -10.77 -1.82 C-6.65 -2.14 -3.57 -2.17 0 0 Z " fill="#263239" transform="translate(590,411)"/>
<path d="M0 0 C11.05 1.04 22.67 9.92 29.59 18.07 C33.17 22.97 33.17 22.97 32.62 26.25 C32.42 26.83 32.21 27.4 32 28 C27.69 25.36 24.95 22.91 21.81 18.88 C15.09 11.18 6.12 7.28 -3 3 C-1.62 1.49 -1.62 1.49 0 0 Z " fill="#DCE2E6" transform="translate(737,504)"/>
<path d="M0 0 C0.85 0 1.7 0.01 2.57 0.01 C3.45 0.02 4.33 0.03 5.24 0.04 C5.68 0.04 5.68 0.04 7.94 0.05 C10.15 0.06 12.35 0.08 14.55 0.1 C13.56 3.06 13.56 3.06 11.55 6.1 C8.56 6.66 6.37 6.8 3.38 6.68 C2.59 6.68 1.79 6.67 0.97 6.66 C-1.56 6.62 -4.1 6.55 -6.64 6.47 C-8.36 6.44 -10.08 6.42 -11.8 6.39 C-16.02 6.32 -20.23 6.22 -24.45 6.1 C-24.78 5.11 -25.11 4.12 -25.45 3.1 C-21.8 0.66 -19.15 0.9 -14.95 1.04 C-9.77 1.17 -5.1 -0.03 0 0 Z " fill="#212C32" transform="translate(640.44921875,339.90234375)"/>
<path d="M0 0 C1.98 0 3.96 0 6 0 C7.86 4.7 8.25 8.88 8.12 13.88 C8.08 16.23 8.04 18.58 8 21 C13.94 21 19.88 21 26 21 C26 21.33 26 21.66 26 22 C16.43 22 6.86 22 -3 22 C-4.12 10.75 -4.12 10.75 -4.06 6.38 C-4.05 5.54 -4.04 4.7 -4.04 3.84 C-4.02 3.23 -4.01 2.62 -4 2 C-1.65 5.71 -1.57 9.49 -1.38 13.75 C-1.34 14.45 -1.3 15.14 -1.26 15.86 C-1.16 17.58 -1.08 19.29 -1 21 C-0.01 21 0.98 21 2 21 C1.34 14.07 0.68 7.14 0 0 Z " fill="#DBE2E6" transform="translate(620,350)"/>
<path d="M0 0 C0.33 0 0.66 0 1 0 C1 9.9 1 19.8 1 30 C7.93 30 14.86 30 22 30 C22 26.37 22 22.74 22 19 C22.33 19 22.66 19 23 19 C23 22.96 23 26.92 23 31 C21.44 31.06 19.87 31.12 18.26 31.18 C16.21 31.27 14.17 31.35 12.12 31.44 C11.09 31.48 10.06 31.52 9 31.56 C8.01 31.6 7.02 31.64 6.01 31.68 C5.55 31.7 5.55 31.7 3.25 31.79 C1 32 1 32 -1 33 C-1.66 31.35 -2.32 29.7 -3 28 C-4.32 28.33 -5.64 28.66 -7 29 C-7 19.76 -7 10.52 -7 1 C-6.67 1 -6.34 1 -6 1 C-5.84 3.05 -5.67 5.1 -5.51 7.15 C-5.34 7.76 -5.17 8.37 -5 9 C-4.01 9.33 -3.02 9.66 -2 10 C-1.67 12.64 -1.34 15.28 -1 18 C-0.83 15.03 -0.83 15.03 0 0 Z " fill="#162227" transform="translate(491,395)"/>
<path d="M0 0 C3.63 0 7.26 0 11 0 C11 5.61 11 11.22 11 17 C7.37 17 3.74 17 0 17 C0 11.39 0 5.78 0 0 Z " fill="#8C9CA1" transform="translate(620,410)"/>
<path d="M0 0 C2.97 0 5.94 0 9 0 C10.25 6.62 10.25 6.62 8 10 C7.62 11.99 7.29 13.99 7 16 C6.68 17.34 6.36 18.67 6 20 C4.68 20.17 4.68 20.17 -2 21 C-2.28 13.75 -1.51 7.09 0 0 Z " fill="#A7B0B4" transform="translate(646,349)"/>
<path d="M0 0 C0 2.64 0 5.28 0 8 C-12.54 7.67 -25.08 7.34 -38 7 C-38 6.67 -38 6.34 -38 6 C-36.91 5.9 -35.81 5.79 -34.69 5.69 C-29.99 4.81 -29.99 4.81 -28 2 C-28 1.67 -28 1.34 -28 1 C-27.22 1.01 -26.44 1.01 -25.63 1.02 C-22.11 1.04 -18.58 1.05 -15.06 1.06 C-13.83 1.07 -12.6 1.08 -11.33 1.09 C-10.16 1.09 -8.99 1.09 -7.79 1.1 C-6.7 1.1 -5.62 1.11 -4.5 1.11 C-2.13 1.01 -1.87 0 0 0 Z " fill="#5A6569" transform="translate(562,417)"/>
<path d="M0 0 C40.59 0 81.18 0 123 0 C126 10 126 10 125 14 C124.84 13.5 124.84 13.5 124 11 C122.26 6.13 122.26 6.13 120 5 C120 3.68 120 2.36 120 1 C80.4 1 40.8 1 0 1 C0 0.67 0 0.34 0 0 Z " fill="#646F71" transform="translate(392,595)"/>
<path d="M0 0 C0.33 0 0.66 0 1 0 C1.03 0.68 1.05 1.36 1.08 2.06 C1.19 5.15 1.31 8.23 1.44 11.31 C1.48 12.38 1.52 13.46 1.56 14.56 C1.6 15.59 1.64 16.62 1.68 17.68 C1.7 18.15 1.7 18.15 1.79 20.55 C2 23 2 23 3 26 C2.67 26.66 2.34 27.32 2 28 C0.68 27.67 -0.64 27.34 -2 27 C-2 26.34 -2 25.68 -2 25 C-3.32 25 -4.64 25 -6 25 C-6 24.34 -6 23.68 -6 23 C-16.23 23 -26.46 23 -37 23 C-37 22.67 -37 22.34 -37 22 C-26.77 22 -16.54 22 -6 22 C-6 15.07 -6 8.14 -6 1 C-5.67 1 -5.34 1 -5 1 C-4.84 4.13 -4.84 4.13 -4 20 C-3.94 19.2 -3.94 19.2 -3.62 15.12 C-3.25 10.25 -3.25 10.25 -1 8 C-0.59 6.05 -0.59 6.05 -0.38 3.88 C-0.31 3.24 -0.31 3.24 0 0 Z " fill="#25353B" transform="translate(666,379)"/>
<path d="M0 0 C0.33 0.66 0.66 1.32 1 2 C1.66 2.33 2.32 2.66 3 3 C3 3.99 3 4.98 3 6 C3.99 5.67 4.98 5.34 6 5 C6.71 6.66 6.71 6.66 7 9 C5.64 11.66 5.64 11.66 3.69 14.5 C1.58 17.61 -0.42 20.59 -2 24 C-2.99 23.67 -3.98 23.34 -5 23 C-4.67 22.67 -4.34 22.34 -4 22 C-4.66 21.67 -5.32 21.34 -6 21 C-6.62 18.44 -6.62 18.44 -7 16 C-6.34 16 -5.68 16 -5 16 C-5.25 15.46 -5.5 14.93 -5.75 14.38 C-6.13 10.74 -4.05 8.93 -2 6 C-0.75 2.62 -0.75 2.62 0 0 Z " fill="#253134" transform="translate(381,600)"/>
<path d="M0 0 C2.44 0.31 2.44 0.31 5 1 C5.33 1.99 5.66 2.98 6 4 C6.66 2.68 7.32 1.36 8 0 C8.79 10.17 6.16 18.86 0 27 C0 24.05 0.44 22.51 1.5 19.81 C1.78 19.1 2.06 18.38 2.34 17.64 C2.56 17.1 2.78 16.56 3 16 C0 16 0 16 -1.69 17.5 C-2.12 18 -2.55 18.49 -3 19 C-4.16 15.51 -3.76 14.59 -2.62 11.19 C-1.43 7.46 -0.51 3.89 0 0 Z " fill="#1E2A2D" transform="translate(570,342)"/>
<path d="M0 0 C13.86 0 27.72 0 42 0 C41.34 1.32 40.68 2.64 40 4 C40 3.01 40 2.02 40 1 C30.76 1 21.52 1 12 1 C11.67 1.99 11.34 2.98 11 4 C11 3.34 11 2.68 11 2 C9.02 2 7.04 2 5 2 C5.14 2.59 5.29 3.19 5.44 3.8 C6.89 10.29 7.23 16.37 7 23 C6.01 23 5.02 23 4 23 C3.88 21.94 3.76 20.88 3.63 19.79 C3.46 18.4 3.29 17.01 3.12 15.62 C3.05 14.93 2.97 14.23 2.89 13.51 C2.23 8.23 2.23 8.23 0 6 C0 4.02 0 2.04 0 0 Z " fill="#C7D0D4" transform="translate(615,348)"/>
<path d="M0 0 C0.99 0 1.98 0 3 0 C3.11 11.39 2.95 22.65 2 34 C1.34 34 0.68 34 0 34 C0 38.62 0 43.24 0 48 C-0.33 48 -0.66 48 -1 48 C-1.03 41.49 -1.04 34.97 -1.05 28.46 C-1.06 26.24 -1.07 24.02 -1.08 21.8 C-1.09 18.62 -1.09 15.44 -1.1 12.26 C-1.1 11.26 -1.11 10.27 -1.11 9.24 C-1.11 8.32 -1.11 7.4 -1.11 6.45 C-1.12 5.64 -1.12 4.82 -1.12 3.99 C-1 2 -1 2 0 0 Z " fill="#C3CBCE" transform="translate(622,142)"/>
<path d="M0 0 C0 2.64 0 5.28 0 8 C-0.66 8 -1.32 8 -2 8 C-2 13.94 -2 19.88 -2 26 C-2.33 25.01 -2.66 24.02 -3 23 C-3.66 23.33 -4.32 23.66 -5 24 C-5.25 27.05 -5.37 30.01 -5.41 33.07 C-5.43 33.98 -5.45 34.88 -5.47 35.82 C-5.53 38.73 -5.58 41.65 -5.62 44.56 C-5.66 46.53 -5.7 48.5 -5.74 50.47 C-5.84 55.32 -5.92 60.16 -6 65 C-6.33 65 -6.66 65 -7 65 C-7.33 47.18 -7.66 29.36 -8 11 C-7.01 11.33 -6.02 11.66 -5 12 C-5 12.66 -5 13.32 -5 14 C-4.34 14 -3.68 14 -3 14 C-3.08 13.07 -3.17 12.15 -3.25 11.19 C-3.3 10.59 -3.3 10.59 -3.56 7.56 C-3.61 6.97 -3.61 6.97 -3.88 3.94 C-4.04 -0.06 -4.01 0 0 0 Z " fill="#B5BEBF" transform="translate(788,552)"/>
<path d="M0 0 C9.41 -1 18.6 1.8 27 6 C26.67 6.99 26.34 7.98 26 9 C26 8.34 26 7.68 26 7 C24.02 7 22.04 7 20 7 C20 6.34 20 5.68 20 5 C18.68 4.67 17.36 4.34 16 4 C16 4.99 16 5.98 16 7 C16.99 6.67 17.98 6.34 19 6 C18.67 7.32 18.34 8.64 18 10 C17.01 9.67 16.02 9.34 15 9 C13.34 8.65 11.67 8.32 10 8 C10 8.33 10 8.66 10 9 C7.79 8.86 5.58 8.71 3.38 8.56 C2.15 8.48 0.92 8.4 -0.35 8.32 C-3.62 8.03 -6.78 7.59 -10 7 C-10 6.67 -10 6.34 -10 6 C-8.08 5.97 -6.17 5.95 -4.25 5.94 C-3.72 5.93 -3.72 5.93 -1.02 5.9 C1.53 5.98 3.58 6.25 6 7 C6 5.68 6 4.36 6 3 C4.02 2.34 2.04 1.68 0 1 C0 0.67 0 0.34 0 0 Z " fill="#1D282B" transform="translate(726,485)"/>
<path d="M0 0 C0.33 0 0.66 0 1 0 C1.33 3.96 1.66 7.92 2 12 C2.33 12 2.66 12 3 12 C3.03 13.81 3.05 15.62 3.06 17.44 C3.07 18.45 3.09 19.46 3.1 20.5 C3 23 3 23 2 24 C1.91 26 1.89 28 1.9 30 C1.91 31.22 1.91 32.43 1.91 33.69 C1.92 34.96 1.93 36.24 1.94 37.56 C1.94 38.2 1.94 38.2 1.95 41.45 C1.96 44.63 1.98 47.82 2 51 C2.33 51 2.66 51 3 51 C3 57.93 3 64.86 3 72 C2.67 72 2.34 72 2 72 C1.67 73.98 1.34 75.96 1 78 C0.67 78 0.34 78 0 78 C0 52.26 0 26.52 0 0 Z " fill="#C1CACC" transform="translate(621,200)"/>
<path d="M0 0 C3.96 1.67 6.84 4.13 10 7 C10 7.66 10 8.32 10 9 C10.66 9 11.32 9 12 9 C13.76 12.33 14.11 13.59 13.12 17.31 C12.75 18.2 12.38 19.09 12 20 C11.01 20 10.02 20 9 20 C7.79 18.46 7.79 18.46 6.62 16.38 C4.99 13.55 3.34 11.15 1.12 8.75 C-1 6 -1 6 -0.81 3.75 C-0.54 3.17 -0.28 2.6 0 2 C0 1.34 0 0.68 0 0 Z " fill="#B8C0C5" transform="translate(760,508)"/>
<path d="M0 0 C0.3 5.59 -0.24 10.96 -1 16.5 C-1.05 16.86 -1.05 16.86 -1.29 18.7 C-1.52 20.47 -1.76 22.23 -2 24 C-2.33 24 -2.66 24 -3 24 C-3 20.04 -3 16.08 -3 12 C-8 15 -8 15 -8.71 17.26 C-8.74 18.06 -8.78 18.86 -8.81 19.69 C-8.86 20.5 -8.91 21.3 -8.96 22.14 C-8.97 22.75 -8.99 23.37 -9 24 C-9.33 24 -9.66 24 -10 24 C-10.05 21.44 -10.09 18.88 -10.12 16.31 C-10.13 15.95 -10.13 15.95 -10.18 14.13 C-10.21 9.95 -9.88 6.75 -8 3 C-7.01 3 -6.02 3 -5 3 C-5 2.01 -5 1.02 -5 0 C-2 -1 -2 -1 0 0 Z " fill="#182424" transform="translate(509,328)"/>
<path d="M0 0 C0.99 0 1.98 0 3 0 C5.68 6.26 7.1 12.3 5 19 C4.01 19.33 3.02 19.66 2 20 C1.49 22.07 1.49 22.07 1.31 24.56 C1.25 25.39 1.18 26.22 1.11 27.07 C1.08 27.7 1.04 28.34 1 29 C0.67 29 0.34 29 0 29 C-0.34 26.77 -0.67 24.54 -1 22.31 C-1.19 21.07 -1.37 19.83 -1.56 18.55 C-1.92 15.64 -2.09 12.92 -2 10 C-1.34 10 -0.68 10 0 10 C-0.19 8.91 -0.37 7.81 -0.56 6.69 C-1 3 -1 3 0 0 Z " fill="#1C262B" transform="translate(788,531)"/>
<path d="M0 0 C-0.04 0.78 -0.08 1.57 -0.12 2.38 C0 5 0 5 2 7 C4.65 7.25 7.2 7.37 9.85 7.41 C10.63 7.43 11.4 7.45 12.2 7.47 C14.67 7.53 17.15 7.58 19.62 7.62 C21.3 7.66 22.98 7.7 24.66 7.74 C28.77 7.84 32.89 7.92 37 8 C37 8.33 37 8.66 37 9 C25.12 9 13.24 9 1 9 C1 11.97 1 14.94 1 18 C0.67 18 0.34 18 0 18 C-0.33 16.02 -0.66 14.04 -1 12 C-1.66 13.32 -2.32 14.64 -3 16 C-3 15.34 -3 14.68 -3 14 C-3.66 14 -4.32 14 -5 14 C-7.58 6.26 -7.58 6.26 -6 2 C-3 0 -3 0 0 0 Z " fill="#2C393D" transform="translate(520,407)"/>
<path d="M0 0 C0.66 0 1.32 0 2 0 C2.66 0.99 3.32 1.98 4 3 C4.33 3.33 4.66 3.66 5 4 C5.37 9.47 5.36 13.41 2 18 C-1.19 18.98 -2.97 19.51 -6 18 C-6 19.32 -6 20.64 -6 22 C-6.66 22 -7.32 22 -8 22 C-8 19.36 -8 16.72 -8 14 C-6.68 14 -5.36 14 -4 14 C-4 13.34 -4 12.68 -4 12 C-3.34 12 -2.68 12 -2 12 C-2 11.34 -2 10.68 -2 10 C-1.34 10 -0.68 10 0 10 C0 6.7 0 3.4 0 0 Z " fill="#EBF0F1" transform="translate(564,338)"/>
<path d="M0 0 C0.93 -0 1.85 -0 2.81 -0 C5.88 0 8.94 0.02 12.01 0.03 C14.14 0.04 16.26 0.04 18.39 0.04 C23.99 0.05 29.59 0.07 35.18 0.09 C40.89 0.11 46.6 0.12 52.32 0.13 C63.52 0.15 74.73 0.18 85.94 0.23 C85.94 0.56 85.94 0.89 85.94 1.23 C84.81 1.24 83.67 1.25 82.5 1.26 C71.84 1.36 61.17 1.46 50.5 1.57 C45.01 1.62 39.53 1.68 34.04 1.72 C28.75 1.77 23.46 1.82 18.17 1.88 C16.15 1.9 14.13 1.92 12.11 1.94 C9.28 1.96 6.46 1.99 3.63 2.02 C2.79 2.03 1.95 2.03 1.09 2.04 C-2.21 2.08 -4.91 2.18 -8.06 3.23 C-8.06 4.55 -8.06 5.87 -8.06 7.23 C-8.72 7.23 -9.38 7.23 -10.06 7.23 C-10.06 6.57 -10.06 5.91 -10.06 5.23 C-11.05 5.56 -12.04 5.89 -13.06 6.23 C-11.86 -1 -6.05 -0.05 0 0 Z " fill="#646F73" transform="translate(392.061279296875,388.77294921875)"/>
<path d="M0 0 C-0.33 1.65 -0.66 3.3 -1 5 C-0.13 4.83 0.73 4.67 1.62 4.5 C7.7 3.61 13.88 3.92 20 4 C20 4.33 20 4.66 20 5 C19.2 5.03 18.4 5.05 17.58 5.08 C10.38 5.45 4.29 6.59 -2.44 9.16 C-5 10 -5 10 -9 10 C-9 9.34 -9 8.68 -9 8 C-11.31 8.66 -13.62 9.32 -16 10 C-12.79 5.67 -6.08 -3.04 0 0 Z " fill="#1D272B" transform="translate(525,309)"/>
<path d="M0 0 C3.26 1.09 3.79 1.71 5.81 4.31 C8.57 7.67 11.28 9.78 15 12 C11.96 13.52 10.06 12.17 7 11 C6.67 10.67 6.34 10.34 6 10 C3.94 10.44 3.94 10.44 2 11 C3.65 12.65 5.3 14.3 7 16 C3.23 15.43 1.46 13.86 -1.19 11.19 C-1.88 10.5 -2.58 9.81 -3.29 9.11 C-5.01 6.99 -5.6 5.66 -6 3 C-4.68 3.33 -3.36 3.66 -2 4 C-1.34 2.68 -0.68 1.36 0 0 Z " fill="#1D2527" transform="translate(510,361)"/>
<path d="M0 0 C0.33 0 0.66 0 1 0 C1 6.93 1 13.86 1 21 C3.72 20.98 6.45 20.96 9.25 20.94 C19.52 20.9 29.75 21.39 40 22 C39.67 22.66 39.34 23.32 39 24 C36.09 24.18 33.28 24.23 30.37 24.2 C29.51 24.19 28.64 24.19 27.75 24.19 C24.98 24.18 22.21 24.15 19.44 24.12 C17.56 24.11 15.69 24.11 13.81 24.1 C9.21 24.08 4.61 24.04 0 24 C0 16.08 0 8.16 0 0 Z M0 24 C0.33 25.32 0.66 26.64 1 28 C-1.38 28.19 -1.38 28.19 -4 28 C-4.66 27.01 -5.32 26.02 -6 25 C-4 24 -4 24 0 24 Z " fill="#1A282D" transform="translate(609,380)"/>
<path d="M0 0 C7.75 0.88 7.75 0.88 10 2 C11.76 2.12 13.52 2.18 15.28 2.21 C16.38 2.23 17.48 2.25 18.61 2.27 C19.8 2.28 21 2.3 22.23 2.32 C23.44 2.34 24.66 2.36 25.92 2.38 C29.82 2.44 33.72 2.5 37.62 2.56 C40.27 2.61 42.91 2.65 45.55 2.69 C52.03 2.8 58.52 2.9 65 3 C65 3.33 65 3.66 65 4 C64.25 4 63.51 4 62.74 3.99 C55.72 3.97 48.71 3.96 41.69 3.95 C38.08 3.94 34.47 3.94 30.86 3.92 C27.38 3.91 23.9 3.91 20.42 3.91 C18.44 3.9 16.46 3.89 14.49 3.89 C13.89 3.89 13.89 3.89 10.85 3.89 C10.32 3.89 10.32 3.89 7.64 3.88 C5 4 5 4 2 5 C3 7 3 7 6.56 8.12 C7.13 8.27 7.13 8.27 10 9 C10 9.33 10 9.66 10 10 C2.61 9.52 2.61 9.52 -0.06 7.25 C-1.24 4.43 -0.88 2.88 0 0 Z " fill="#142126" transform="translate(268,591)"/>
<path d="M0 0 C0.66 0.33 1.32 0.66 2 1 C1.65 1.5 1.3 1.99 0.94 2.5 C-0.46 6.23 0.35 9.1 1 13 C1.66 13 2.32 13 3 13 C2.67 11.35 2.34 9.7 2 8 C2.66 7.67 3.32 7.34 4 7 C4 11.62 4 16.24 4 21 C2.35 21.33 0.7 21.66 -1 22 C-1.81 24.06 -1.81 24.06 -2 26 C-4.42 23.58 -3.23 17.38 -3.25 14.12 C-3.27 13.11 -3.29 12.09 -3.31 11.04 C-3.32 10.06 -3.32 9.08 -3.33 8.07 C-3.34 7.17 -3.35 6.27 -3.36 5.34 C-2.94 2.58 -2.15 1.72 0 0 Z " fill="#1E292B" transform="translate(339,623)"/>
<path d="M0 0 C0 4.95 0 9.9 0 15 C-2.31 15 -4.62 15 -7 15 C-7.05 12.69 -7.09 10.38 -7.12 8.06 C-7.15 6.77 -7.17 5.49 -7.2 4.16 C-7.13 3.12 -7.07 2.07 -7 1 C-5 0 -5 0 0 0 Z " fill="#97A8AE" transform="translate(537,392)"/>
<path d="M0 0 C-0.33 1.65 -0.66 3.3 -1 5 C-1.59 4.94 -2.19 4.88 -2.8 4.82 C-9.2 4.17 -15.6 3.57 -22 3 C-22 1.68 -22 0.36 -22 -1 C-14.3 -2.3 -7.64 -1.43 0 0 Z " fill="#BCC6CA" transform="translate(739,495)"/>
<path d="M0 0 C2.63 -0.08 5.25 -0.14 7.88 -0.19 C8.25 -0.2 8.25 -0.2 10.14 -0.26 C12.3 -0.29 12.3 -0.29 16 0 C18 3 18 3 17.51 5.17 C16 7 16 7 13.18 7.39 C12.09 7.34 11 7.3 9.88 7.25 C8.78 7.21 7.68 7.18 6.55 7.14 C5.71 7.09 4.87 7.05 4 7 C4 6.01 4 5.02 4 4 C2.68 3.3 1.35 2.63 0 2 C0 1.34 0 0.68 0 0 Z " fill="#26393C" transform="translate(620,429)"/>
<path d="M0 0 C0.99 0.66 1.98 1.32 3 2 C2.86 4.38 2.86 4.38 2.19 7.12 C1.97 8.04 1.76 8.95 1.54 9.88 C1.36 10.58 1.18 11.28 1 12 C0.34 12 -0.32 12 -1 12 C-1.99 15.3 -2.98 18.6 -4 22 C-4.33 22 -4.66 22 -5 22 C-5.33 18.7 -5.66 15.4 -6 12 C-6.33 12 -6.66 12 -7 12 C-6.67 9.03 -6.34 6.06 -6 3 C-5.34 3.66 -4.68 4.32 -4 5 C-2.68 3.35 -1.36 1.7 0 0 Z " fill="#1F2B2E" transform="translate(247,446)"/>
<path d="M0 0 C1.32 0.33 2.64 0.66 4 1 C4 1.66 4 2.32 4 3 C4.54 2.81 5.07 2.63 5.62 2.44 C8.62 1.89 11.04 2.39 14 3 C14 6 14 6 11.88 8.25 C8.18 10.5 7.13 10.17 3 9 C2.15 8.79 1.3 8.57 0.43 8.36 C-4.84 6.95 -4.84 6.95 -7 6 C-7.33 5.01 -7.66 4.02 -8 3 C-7.68 3.04 -7.68 3.04 -6.07 3.22 C-5.24 3.31 -4.41 3.4 -3.56 3.5 C-3.15 3.55 -3.15 3.55 -1.07 3.78 C1 4 1 4 2 4 C1.34 3.67 0.68 3.34 0 3 C0 2.01 0 1.02 0 0 Z " fill="#253036" transform="translate(742,489)"/>
<path d="M0 0 C0.66 0.33 1.32 0.66 2 1 C1.79 1.95 1.59 2.9 1.38 3.88 C1.25 4.91 1.13 5.94 1 7 C1.66 7.66 2.32 8.32 3 9 C-1.39 13 -1.39 13 -3 14 C-3.99 13.67 -4.98 13.34 -6 13 C-6.33 13.17 -6.33 13.17 -8 14 C-8.33 13.01 -8.66 12.02 -9 11 C-9.66 11.66 -10.32 12.32 -11 13 C-10.44 9.18 -8.8 7.45 -6.06 4.81 C-5.71 4.47 -5.71 4.47 -3.91 2.71 C-2 1 -2 1 0 0 Z " fill="#1E2829" transform="translate(259,425)"/>
<path d="M0 0 C3 3.62 3 3.62 3 7 C-9.87 7 -22.74 7 -36 7 C-35.34 5.68 -34.68 4.36 -34 3 C-33.67 3.66 -33.34 4.32 -33 5 C-30.45 5.18 -28.01 5.23 -25.46 5.2 C-24.71 5.19 -23.96 5.19 -23.18 5.19 C-20.77 5.18 -18.35 5.15 -15.94 5.12 C-14.3 5.11 -12.67 5.11 -11.04 5.1 C-7.02 5.08 -3.01 5.04 1 5 C0.84 4.18 0.84 4.18 0 0 Z " fill="#CBD5DA" transform="translate(652,333)"/>
<path d="M0 0 C0.33 0.66 0.66 1.32 1 2 C1.66 2 2.32 2 3 2 C3.19 23.53 3.19 23.53 2 34 C1.67 34 1.34 34 1 34 C0.05 30 -0.12 26.28 -0.1 22.17 C-0.09 20.88 -0.09 19.58 -0.09 18.25 C-0.08 16.9 -0.07 15.54 -0.06 14.19 C-0.06 12.81 -0.05 11.44 -0.05 10.06 C-0.04 6.71 -0.02 3.35 0 0 Z " fill="#1D2A2C" transform="translate(655,150)"/>
<path d="M0 0 C0.62 0.17 1.24 0.33 1.88 0.5 C1.22 0.83 1.22 0.83 -2.12 2.5 C0.18 2.67 0.18 2.67 11.88 3.5 C11.88 3.83 11.88 4.16 11.88 4.5 C2.97 4.5 -5.95 4.5 -15.12 4.5 C-15.46 3.51 -15.78 2.52 -16.12 1.5 C-11.26 -1.75 -5.64 -0.9 0 0 Z " fill="#263237" transform="translate(631.125,341.5)"/>
<path d="M0 0 C0.33 0 0.66 0 1 0 C1 2.31 1 4.62 1 7 C1.66 7 2.32 7 3 7 C3 13.93 3 20.86 3 28 C2.01 28 1.02 28 0 28 C0 18.76 0 9.52 0 0 Z " fill="#4D595C" transform="translate(687,500)"/>
<path d="M0 0 C0.16 0.33 0.16 0.33 1 2 C-12.02 2.82 -24.96 3.12 -38 3 C-38 4.65 -38 6.3 -38 8 C-39.06 6.19 -39.06 6.19 -40 4 C-39.67 3.01 -39.34 2.02 -39 1 C-33.46 0.81 -27.93 0.63 -22.39 0.46 C-20.51 0.4 -18.62 0.34 -16.74 0.28 C-14.04 0.18 -11.33 0.1 -8.63 0.02 C-8.2 0.01 -8.2 0.01 -6.06 -0.07 C-4.04 -0.13 -2.02 -0.07 0 0 Z " fill="#1B2529" transform="translate(562,592)"/>
<path d="M0 0 C0.33 0 0.66 0 1 0 C1 5.28 1 10.56 1 16 C3.64 15.67 6.28 15.34 9 15 C8.67 10.38 8.34 5.76 8 1 C6.68 0.67 5.36 0.34 4 0 C6.31 0 8.62 0 11 0 C11 5.61 11 11.22 11 17 C7.37 17 3.74 17 0 17 C0 11.39 0 5.78 0 0 Z " fill="#9FB1B7" transform="translate(620,410)"/>
<path d="M0 0 C1.32 0 2.64 0 4 0 C4.08 2.44 4.14 4.87 4.19 7.31 C4.2 7.66 4.2 7.66 4.26 9.4 C4.34 14.54 4.34 14.54 2.55 16.98 C1 18 1 18 0 18 C0 12.06 0 6.12 0 0 Z " fill="#636D71" transform="translate(612,382)"/>
<path d="M0 0 C4.29 0 8.58 0 13 0 C13 1.32 13 2.64 13 4 C10.24 5.38 7.95 5.1 4.88 5.06 C3.78 5.05 2.68 5.04 1.55 5.04 C1.13 5.03 1.13 5.03 -1 5 C-0.67 3.35 -0.34 1.7 0 0 Z " fill="#AFBEC3" transform="translate(531,365)"/>
<path d="M0 0 C0.66 0.66 1.32 1.32 2 2 C1.61 4.79 1.61 4.79 0.75 8.06 C0.48 9.15 0.2 10.23 -0.08 11.35 C-1 14 -1 14 -3 15 C-3 14.34 -3 13.68 -3 13 C-3.66 13 -4.32 13 -5 13 C-5.33 13.66 -5.66 14.32 -6 15 C-8.12 10.38 -8.12 10.38 -7 7 C-6.34 7.33 -5.68 7.66 -5 8 C-5 6.68 -5 5.36 -5 4 C-3.68 4.33 -2.36 4.66 -1 5 C-0.67 3.35 -0.34 1.7 0 0 Z " fill="#1E2A2E" transform="translate(390,592)"/>
<path d="M0 0 C6.68 -0.05 13.35 -0.09 20.03 -0.11 C22.3 -0.12 24.57 -0.13 26.84 -0.15 C30.1 -0.18 33.36 -0.19 36.62 -0.2 C37.13 -0.2 37.13 -0.2 39.72 -0.23 C40.66 -0.23 41.6 -0.23 42.57 -0.23 C43.4 -0.23 44.24 -0.24 45.1 -0.24 C45.41 -0.2 45.41 -0.2 47 0 C48.35 2.71 48.07 5.01 48 8 C47.01 8 46.02 8 45 8 C45 6.02 45 4.04 45 2 C30.15 1.67 15.3 1.34 0 1 C0 0.67 0 0.34 0 0 Z " fill="#899698" transform="translate(599,458)"/>
<path d="M0 0 C0.66 0 1.32 0 2 0 C2.78 5.02 3.13 8.98 2 14 C0 12 0 12 0 9 C-1.32 9 -2.64 9 -4 9 C-4.33 10.65 -4.66 12.3 -5 14 C-5.33 14 -5.66 14 -6 14 C-6.12 7.38 -6.12 7.38 -5 4 C-3.68 4 -2.36 4 -1 4 C-0.67 2.68 -0.34 1.36 0 0 Z " fill="#283236" transform="translate(575,334)"/>
<path d="M0 0 C3.36 1.44 5.59 3.25 8 6 C8 6.66 8 7.32 8 8 C7.03 8.29 6.06 8.58 5.06 8.88 C2 10 2 10 1 12 C-0.32 10.35 -1.64 8.7 -3 7 C-2.34 7 -1.68 7 -1 7 C-0.67 4.69 -0.34 2.38 0 0 Z " fill="#1D272A" transform="translate(770,503)"/>
<path d="M0 0 C0.33 0 0.66 0 1 0 C0.64 6.65 -1.15 11.52 -5 17 C-5.66 17.33 -6.32 17.66 -7 18 C-6.71 17.3 -6.42 16.6 -6.12 15.88 C-4.98 12.95 -3.97 9.99 -3 7 C-6 7 -6 7 -7.69 8.5 C-8.12 9 -8.55 9.49 -9 10 C-10 7 -10 7 -9.19 4.81 C-8.8 4.21 -8.4 3.62 -8 3 C-6 3 -6 3 -5 4 C-5 3.67 -5 3.34 -5 3 C-3.35 3 -1.7 3 0 3 C0 2.01 0 1.02 0 0 Z " fill="#1B2325" transform="translate(576,351)"/>
<path d="M0 0 C2 0.88 2 0.88 4 2 C4 2.66 4 3.32 4 4 C4.66 4 5.32 4 6 4 C7.76 7.33 8.11 8.59 7.12 12.31 C6.75 13.2 6.38 14.09 6 15 C5.01 15 4.02 15 3 15 C2.3 10.61 1.89 6.44 2 2 C1.34 2 0.68 2 0 2 C0 1.34 0 0.68 0 0 Z " fill="#B4BCC0" transform="translate(766,513)"/>
<path d="M0 0 C2.13 0.83 4.2 1.68 6.26 2.68 C6.61 2.84 6.61 2.84 8.37 3.67 C10.07 4.8 10.07 4.8 11.07 7.8 C4.83 8.63 0.36 5.73 -4.93 2.8 C-2.48 -0.25 -2.48 -0.25 0 0 Z " fill="#E8EEF1" transform="translate(738.92578125,504.1953125)"/>
<path d="M0 0 C9.24 0 18.48 0 28 0 C28 4.62 28 9.24 28 14 C27.67 14 27.34 14 27 14 C26.84 11.86 26.84 11.86 26 1 C23.79 1.14 21.58 1.29 19.38 1.44 C18.15 1.52 16.92 1.6 15.65 1.68 C12 2 12 2 8.75 2.59 C5.34 3.1 3.16 2.28 0 1 C0 0.67 0 0.34 0 0 Z " fill="#566265" transform="translate(632,380)"/>
<path d="M0 0 C2.66 0.38 5.33 0.69 8 1 C7 3 7 3 4.5 4.12 C0.24 5.19 -3.64 5.17 -8 5 C-7.69 2.56 -7.69 2.56 -7 0 C-3.65 -1.12 -3.24 -0.88 0 0 Z " fill="#EDF2F3" transform="translate(544,371)"/>
<path d="M0 0 C1.38 2.56 1.38 2.56 2 5 C-3.27 8.22 -3.27 8.22 -5 9 C-5.66 8.67 -6.32 8.34 -7 8 C-6.34 7.34 -5.68 6.68 -5 6 C-5.66 5.01 -6.32 4.02 -7 3 C-7.66 3 -8.32 3 -9 3 C-7.32 -2.04 -4.67 -1.36 0 0 Z " fill="#1D292A" transform="translate(561,372)"/>
<path d="M0 0 C2.38 0.19 2.38 0.19 5 1 C6.25 3.38 6.25 3.38 7 6 C7.33 6.99 7.66 7.98 8 9 C6.19 11.19 6.19 11.19 4 13 C3.34 13 2.68 13 2 13 C1.86 12.22 1.71 11.43 1.56 10.62 C1 8 1 8 0 6 C0.99 5.67 1.98 5.34 3 5 C2.75 4.77 2.75 4.77 1.5 3.62 C0 2 0 2 0 0 Z " fill="#273236" transform="translate(526,610)"/>
<path d="M0 0 C-0.33 4.62 -0.66 9.24 -1 14 C-1.99 14 -2.98 14 -4 14 C-4 11.03 -4 8.06 -4 5 C-4.66 5 -5.32 5 -6 5 C-4.87 0 -4.87 0 0 0 Z " fill="#1F2C37" transform="translate(794,559)"/>
<path d="M0 0 C3 1 3 1 4.25 3.31 C5.33 8.64 4.64 13.64 4 19 C3.67 19 3.34 19 3 19 C3 15.04 3 11.08 3 7 C1.02 7.99 -0.96 8.98 -3 10 C-2.67 7.36 -2.34 4.72 -2 2 C-1.34 2 -0.68 2 0 2 C0 1.34 0 0.68 0 0 Z " fill="#1A282B" transform="translate(503,333)"/>
<path d="M0 0 C-2.25 2.5 -2.25 2.5 -5 5 C-6.32 5 -7.64 5 -9 5 C-9 4.34 -9 3.68 -9 3 C-11.31 3.33 -13.62 3.66 -16 4 C-11.24 -1.51 -6.67 -1.13 0 0 Z " fill="#DDE5E7" transform="translate(537,316)"/>
<path d="M0 0 C0.99 0.33 1.98 0.66 3 1 C5.66 1.15 8.29 1.26 10.95 1.32 C11.34 1.33 11.34 1.33 13.29 1.38 C15.76 1.44 18.22 1.5 20.69 1.56 C22.36 1.61 24.03 1.65 25.71 1.69 C29.8 1.8 33.9 1.9 38 2 C38 2.33 38 2.66 38 3 C24.8 3 11.6 3 -2 3 C-1.34 2.01 -0.68 1.02 0 0 Z " fill="#626D71" transform="translate(381,619)"/>
<path d="M0 0 C0.99 0.66 1.98 1.32 3 2 C2.88 4.56 2.88 4.56 2 7 C1.01 7.33 0.02 7.66 -1 8 C-1.66 8.66 -2.32 9.32 -3 10 C-3 9.34 -3 8.68 -3 8 C-3.99 8 -4.98 8 -6 8 C-6.33 9.32 -6.66 10.64 -7 12 C-6.67 9.03 -6.34 6.06 -6 3 C-5.34 3.66 -4.68 4.32 -4 5 C-2.68 3.35 -1.36 1.7 0 0 Z " fill="#1C2428" transform="translate(247,446)"/>
<path d="M0 0 C0.33 0.66 0.66 1.32 1 2 C-5.66 3.9 -12.2 5.27 -19 3 C-19 2.34 -19 1.68 -19 1 C-15.86 0.78 -12.71 0.57 -9.56 0.38 C-8.66 0.31 -7.77 0.25 -6.84 0.18 C-5.99 0.13 -5.13 0.08 -4.25 0.02 C-3.46 -0.03 -2.67 -0.08 -1.86 -0.14 C-1.24 -0.09 -0.63 -0.05 0 0 Z " fill="#1B2528" transform="translate(611,427)"/>
<path d="M0 0 C2.56 -0.12 2.56 -0.12 5 0 C4.67 2.64 4.34 5.28 4 8 C2.68 8 1.36 8 0 8 C0 9.98 0 11.96 0 14 C-0.33 14 -0.66 14 -1 14 C-1.03 12.04 -1.05 10.08 -1.06 8.12 C-1.07 7.03 -1.09 5.94 -1.1 4.82 C-1 2 -1 2 0 0 Z " fill="#808A8F" transform="translate(532,392)"/>
<path d="M0 0 C2.64 0.33 5.28 0.66 8 1 C6.69 3 6.69 3 5 5 C4.01 5 3.02 5 2 5 C3 7 3 7 6.56 8.12 C7.13 8.27 7.13 8.27 10 9 C10 9.33 10 9.66 10 10 C2.61 9.52 2.61 9.52 -0.06 7.25 C-1.24 4.43 -0.88 2.88 0 0 Z " fill="#1A272B" transform="translate(268,591)"/>
<path d="M0 0 C0.66 0 1.32 0 2 0 C2 6.27 2 12.54 2 19 C0.68 18.67 -0.64 18.34 -2 18 C-2.33 18.99 -2.66 19.98 -3 21 C-3.33 20.34 -3.66 19.68 -4 19 C-4.66 18.67 -5.32 18.34 -6 18 C-5.68 17.92 -5.68 17.92 -4.06 17.5 C-1.5 15.64 -1.61 14.92 -1.25 11.88 C-1.17 10.6 -1.09 9.32 -1 8 C-0.67 8 -0.34 8 0 8 C0 5.36 0 2.72 0 0 Z " fill="#27373C" transform="translate(648,410)"/>
<path d="M0 0 C1.65 1.65 3.3 3.3 5 5 C4.38 5.06 3.76 5.12 3.12 5.19 C1 6 1 6 -0.25 8.56 C-0.5 9.37 -0.75 10.17 -1 11 C-3.65 8.42 -5.94 6.08 -8 3 C-6.68 3.33 -5.36 3.66 -4 4 C-4 3.34 -4 2.68 -4 2 C-3.17 2.33 -3.17 2.33 1 4 C0.67 2.68 0.34 1.36 0 0 Z " fill="#1A2428" transform="translate(567,319)"/>
<path d="M0 0 C0.33 0 0.66 0 1 0 C1.03 0.68 1.05 1.36 1.08 2.06 C1.19 5.15 1.31 8.23 1.44 11.31 C1.48 12.38 1.52 13.46 1.56 14.56 C1.58 15.07 1.58 15.07 1.68 17.68 C1.72 18.62 1.76 19.57 1.79 20.55 C2 23 2 23 3 26 C2.67 26.66 2.34 27.32 2 28 C0.06 27.75 0.06 27.75 -2 27 C-2.75 24.94 -2.75 24.94 -3 23 C-2.01 23 -1.02 23 0 23 C0 15.41 0 7.82 0 0 Z " fill="#2A353C" transform="translate(666,379)"/>
<path d="M0 0 C0.33 0 0.66 0 1 0 C1.38 8.01 1.07 15.48 -2 23 C-2.66 23.33 -3.32 23.66 -4 24 C-4.05 22.19 -4.09 20.38 -4.12 18.56 C-4.15 17.55 -4.17 16.54 -4.2 15.5 C-4.13 14.68 -4.07 13.85 -4 13 C-3.34 12.67 -2.68 12.34 -2 12 C-1.37 9.28 -1.37 9.28 -0.88 5.94 C-0.71 4.83 -0.54 3.73 -0.37 2.59 C-0.25 1.74 -0.12 0.88 0 0 Z " fill="#616D6F" transform="translate(676,520)"/>
<path d="M0 0 C4.42 4.03 8.32 8.62 11 14 C10.67 14.99 10.34 15.98 10 17 C5.99 14.59 5.37 12.36 4 8 C2.68 5.99 1.35 3.99 0 2 C0 1.34 0 0.68 0 0 Z " fill="#1E272A" transform="translate(662,437)"/>
<path d="M0 0 C4.43 1.21 6.98 2.52 10 6 C9.48 5.99 9.48 5.99 6.88 5.94 C3.45 5.99 0.35 6.35 -3 7 C-2.34 6.34 -1.68 5.68 -1 5 C-0.38 2.38 -0.38 2.38 0 0 Z " fill="#253135" transform="translate(730,527)"/>
<path d="M0 0 C1.01 0.01 2.02 0.02 3.07 0.03 C3.46 0.03 3.46 0.03 5.44 0.06 C2.82 3.03 2.82 3.03 -0.62 3.31 C-1.59 3.56 -2.56 3.81 -3.56 4.06 C-4.94 7.62 -4.94 7.62 -5.56 11.06 C-5.89 11.06 -6.22 11.06 -6.56 11.06 C-6.59 9.42 -6.61 7.77 -6.62 6.12 C-6.64 5.21 -6.65 4.29 -6.66 3.35 C-6.47 -1.1 -3.82 -0.04 0 0 Z " fill="#687274" transform="translate(578.5625,416.9375)"/>
<path d="M0 0 C0.33 0 0.66 0 1 0 C1 4.95 1 9.9 1 15 C-1.31 14.67 -3.62 14.34 -6 14 C-6 13.34 -6 12.68 -6 12 C-4.68 12 -3.36 12 -2 12 C-2 10.02 -2 8.04 -2 6 C-1.67 6 -1.34 6 -1 6 C-0.67 4.02 -0.34 2.04 0 0 Z " fill="#777F82" transform="translate(630,384)"/>
<path d="M0 0 C0.66 0.33 1.32 0.66 2 1 C1.5 1.97 1.01 2.94 0.5 3.94 C-2.18 10.86 -1.22 18.71 -1 26 C-1.66 25.67 -2.32 25.34 -3 25 C-3.47 21.4 -3.32 17.75 -3.31 14.12 C-3.33 13.11 -3.34 12.09 -3.36 11.04 C-3.36 10.06 -3.36 9.08 -3.36 8.07 C-3.37 7.17 -3.37 6.27 -3.37 5.34 C-2.93 2.59 -2.14 1.72 0 0 Z " fill="#14191A" transform="translate(339,623)"/>
<path d="M0 0 C0.66 0 1.32 0 2 0 C2 0.66 2 1.32 2 2 C8.93 2 15.86 2 23 2 C23 2.33 23 2.66 23 3 C21.82 3.04 20.64 3.07 19.42 3.11 C17.86 3.18 16.31 3.25 14.75 3.31 C13.97 3.34 13.2 3.36 12.39 3.38 C8.06 3.58 5.22 3.77 2 7 C0 4 0 4 0 0 Z " fill="#283841" transform="translate(684,530)"/>
<path d="M0 0 C0.99 0 1.98 0 3 0 C2.89 2.77 2.76 5.54 2.62 8.31 C2.59 9.1 2.56 9.88 2.53 10.69 C2.49 11.45 2.45 12.21 2.41 12.99 C2.38 13.68 2.35 14.38 2.32 15.1 C2 17 2 17 0 20 C0 13.4 0 6.8 0 0 Z " fill="#BDC4C8" transform="translate(622,142)"/>
<path d="M0 0 C0.33 0.99 0.66 1.98 1 3 C1.66 3 2.32 3 3 3 C3.33 2.34 3.66 1.68 4 1 C4.21 6.79 3.59 11.43 2 17 C1.67 17 1.34 17 1 17 C0.67 11.39 0.34 5.78 0 0 Z " fill="#DCE3E5" transform="translate(774,555)"/>
</svg>
