<?xml version="1.0" encoding="UTF-8"?>
<!-- Generator: visioncortex VTracer 0.6.12 -->
<svg version="1.1" xmlns="http://www.w3.org/2000/svg" width="1024" height="1024" viewBox="0 0 1024 1024">
<path d="M0 0 C337.92 0 675.84 0 1024 0 C1024 337.92 1024 675.84 1024 1024 C686.08 1024 348.16 1024 0 1024 C0 686.08 0 348.16 0 0 Z " fill="#FEFEFE" transform="translate(0,0)"/>
<path d="M0 0 C4.92 2.37 7.37 5.27 10 10 C10.37 12.8 10.53 15.19 10.48 17.97 C10.48 18.76 10.49 19.54 10.49 20.35 C10.5 22.97 10.48 25.59 10.45 28.21 C10.45 30.1 10.45 31.98 10.46 33.86 C10.46 38.97 10.43 44.07 10.41 49.18 C10.38 54.51 10.38 59.85 10.37 65.19 C10.36 75.29 10.33 85.4 10.29 95.5 C10.24 107 10.22 118.51 10.2 130.01 C10.16 153.68 10.09 177.34 10 201 C10.31 200.99 10.31 200.99 11.86 200.95 C12.66 200.93 13.47 200.92 14.3 200.9 C14.7 200.89 14.7 200.89 16.72 200.85 C22.49 201.23 26.12 205.96 29.7 210.02 C35.97 219.57 33 230.98 33 242 C65.67 242 98.34 242 132 242 C132 232.76 132 223.52 132 214 C136.51 207.23 136.51 207.23 139.62 204.69 C140.22 204.2 140.81 203.71 141.41 203.2 C145.22 200.32 149.06 200.89 153.62 200.94 C154.43 200.94 155.23 200.95 156.05 200.95 C158.04 200.96 160.02 200.98 162 201 C162 199.99 161.99 198.99 161.99 197.95 C161.9 173.48 161.83 149.01 161.79 124.54 C161.77 112.71 161.74 100.88 161.7 89.04 C161.66 78.73 161.63 68.42 161.62 58.11 C161.62 52.64 161.61 47.18 161.58 41.72 C161.55 36.58 161.54 31.45 161.55 26.31 C161.55 24.42 161.54 22.53 161.52 20.64 C161.5 18.07 161.51 15.5 161.52 12.92 C161.51 12.17 161.5 11.42 161.48 10.65 C161.52 7.2 161.75 5.33 163.85 2.54 C166.83 0.41 168.41 0.34 172 1 C175.55 3.72 176.86 5.19 177.62 9.66 C177.64 11.11 177.63 12.56 177.6 14 C177.61 14.8 177.61 15.61 177.61 16.43 C177.62 19.11 177.59 21.79 177.57 24.47 C177.57 26.39 177.57 28.31 177.57 30.23 C177.57 35.45 177.54 40.67 177.51 45.88 C177.48 51.34 177.47 56.79 177.47 62.24 C177.45 72.56 177.41 82.89 177.36 93.21 C177.3 104.96 177.28 116.72 177.25 128.47 C177.2 152.65 177.11 176.82 177 201 C178.03 200.98 179.06 200.97 180.12 200.95 C181.49 200.93 182.85 200.92 184.21 200.91 C184.55 200.9 184.55 200.9 186.27 200.87 C191.73 200.83 195.8 201.41 200 205 C204.95 210.42 207.13 214.56 207.1 221.98 C207.09 223.14 207.09 224.31 207.09 225.51 C207.08 226.72 207.07 227.94 207.06 229.19 C207.06 230.41 207.05 231.64 207.05 232.9 C207.04 235.94 207.02 238.97 207 242 C207.61 241.99 208.21 241.99 208.84 241.98 C215.18 241.91 221.52 241.87 227.87 241.84 C230.23 241.82 232.6 241.8 234.96 241.77 C238.37 241.74 241.78 241.72 245.18 241.71 C246.23 241.69 247.28 241.68 248.36 241.66 C261.29 241.66 271.4 246.55 280.36 255.87 C285.48 262.54 289.12 270.38 289.13 278.8 C289.13 280.01 289.14 281.23 289.14 282.48 C289.14 283.84 289.14 285.2 289.13 286.56 C289.14 287.99 289.14 289.43 289.14 290.87 C289.15 294.82 289.15 298.78 289.15 302.74 C289.15 307 289.15 311.26 289.16 315.53 C289.16 323.89 289.17 332.24 289.17 340.6 C289.17 347.4 289.17 354.19 289.17 360.98 C289.18 380.24 289.19 399.49 289.19 418.75 C289.19 419.27 289.19 419.27 289.19 421.9 C289.19 422.94 289.19 423.98 289.19 425.05 C289.18 441.9 289.19 458.75 289.21 475.6 C289.22 492.89 289.23 510.18 289.23 527.48 C289.23 537.19 289.23 546.9 289.24 556.61 C289.25 564.88 289.25 573.15 289.25 581.42 C289.24 585.64 289.24 589.86 289.25 594.08 C289.26 597.95 289.26 601.81 289.25 605.68 C289.25 607.07 289.25 608.47 289.26 609.87 C289.31 624.44 286.8 634.76 276.7 645.59 C266.68 654.52 256.77 656.16 243.91 656.1 C242.86 656.1 241.8 656.09 240.71 656.09 C237.35 656.09 233.99 656.08 230.62 656.06 C228.34 656.06 226.05 656.05 223.77 656.05 C218.18 656.04 212.59 656.02 207 656 C207.01 656.39 207.01 656.39 207.08 658.35 C207.18 661.9 207.25 665.45 207.31 669 C207.35 670.22 207.4 671.44 207.44 672.7 C207.55 681.18 206.52 686.49 200.45 692.55 C195.41 697 191.26 697.14 184.81 697.06 C184.06 697.06 183.31 697.05 182.54 697.05 C180.69 697.04 178.85 697.02 177 697 C177 697.89 177.01 698.78 177.01 699.69 C177.1 721.28 177.17 742.87 177.21 764.46 C177.23 774.9 177.26 785.34 177.3 795.78 C177.34 804.88 177.37 813.98 177.38 823.08 C177.38 827.9 177.39 832.72 177.42 837.54 C177.45 842.07 177.46 846.61 177.45 851.14 C177.45 852.81 177.46 854.47 177.48 856.14 C177.5 858.41 177.49 860.68 177.48 862.95 C177.48 864.22 177.49 865.5 177.49 866.81 C176.91 870.58 176.06 871.77 173 874 C169.15 874.55 167.01 874.73 163.81 872.41 C161.35 869.14 161.51 867.03 161.52 862.95 C161.52 862.24 161.51 861.53 161.51 860.8 C161.5 858.42 161.52 856.04 161.55 853.67 C161.55 851.96 161.55 850.26 161.54 848.55 C161.54 843.92 161.57 839.29 161.59 834.66 C161.62 829.82 161.62 824.98 161.63 820.15 C161.64 810.98 161.67 801.82 161.71 792.66 C161.76 782.23 161.78 771.8 161.8 761.37 C161.84 739.91 161.91 718.46 162 697 C160.83 697.02 159.66 697.05 158.45 697.07 C156.9 697.09 155.35 697.11 153.8 697.12 C153.03 697.14 152.25 697.16 151.46 697.18 C145.52 697.23 141.2 696.54 137 692 C127.81 679.83 131 675.53 131 656 C98.66 656 66.32 656 33 656 C33 664.25 33 672.5 33 681 C27.38 692.23 27.38 692.23 23 695 C22.01 695.66 21.02 696.32 20 697 C17.52 697.2 17.52 697.2 14.81 697.12 C13.91 697.11 13.01 697.09 12.08 697.07 C11.74 697.06 11.74 697.06 10 697 C10 697.87 10.01 698.73 10.01 699.62 C10.07 720.68 10.12 741.74 10.16 762.79 C10.17 772.98 10.19 783.16 10.23 793.34 C10.26 802.22 10.28 811.09 10.28 819.97 C10.29 824.67 10.3 829.37 10.32 834.07 C10.34 838.49 10.34 842.92 10.34 847.34 C10.34 848.96 10.35 850.59 10.36 852.21 C10.37 854.43 10.37 856.64 10.36 858.86 C10.36 860.1 10.37 861.34 10.37 862.62 C9.82 867.68 8.2 870.91 4.44 874.31 C-0.5 877.73 -5.1 877.74 -11 877 C-15.32 874.92 -17.92 871.22 -20 867 C-20.37 863.73 -20.37 863.73 -20.36 859.94 C-20.36 859.25 -20.37 858.55 -20.37 857.83 C-20.37 855.49 -20.36 853.16 -20.34 850.83 C-20.34 849.15 -20.34 847.48 -20.34 845.8 C-20.34 841.26 -20.33 836.71 -20.3 832.17 C-20.29 827.41 -20.28 822.66 -20.28 817.91 C-20.27 808.92 -20.25 799.92 -20.22 790.92 C-20.18 780.68 -20.17 770.44 -20.15 760.2 C-20.12 739.13 -20.07 718.07 -20 697 C-20.69 697.01 -21.38 697.03 -22.1 697.04 C-22.55 697.05 -22.55 697.05 -24.84 697.07 C-25.29 697.08 -25.29 697.08 -27.56 697.11 C-30.6 696.97 -32.15 696.24 -34.44 694.25 C-35.05 693.74 -35.67 693.23 -36.31 692.7 C-41.34 687.63 -43.27 682.99 -43.2 675.82 C-43.19 674.67 -43.18 673.51 -43.18 672.32 C-43.16 671.12 -43.14 669.92 -43.12 668.69 C-43.12 667.47 -43.11 666.25 -43.1 665 C-43.07 662 -43.04 659 -43 656 C-43.59 656.01 -44.18 656.02 -44.79 656.03 C-50.97 656.12 -57.15 656.18 -63.33 656.22 C-65.63 656.24 -67.93 656.27 -70.24 656.3 C-73.56 656.35 -76.88 656.37 -80.21 656.39 C-81.22 656.41 -82.24 656.43 -83.28 656.45 C-95.93 656.46 -107.04 651.49 -115.75 642.31 C-122.41 634.24 -125.12 625.23 -125.13 614.89 C-125.14 613.68 -125.14 612.46 -125.14 611.22 C-125.14 609.88 -125.14 608.55 -125.14 607.21 C-125.14 605.79 -125.15 604.36 -125.15 602.93 C-125.16 599.02 -125.16 595.11 -125.16 591.2 C-125.16 586.98 -125.17 582.76 -125.18 578.54 C-125.19 569.31 -125.2 560.08 -125.2 550.85 C-125.2 545.09 -125.21 539.33 -125.21 533.57 C-125.22 517.61 -125.23 501.65 -125.24 485.69 C-125.24 484.67 -125.24 483.64 -125.24 482.59 C-125.24 481.57 -125.24 480.55 -125.24 479.49 C-125.24 477.42 -125.24 475.34 -125.24 473.27 C-125.24 472.24 -125.24 471.21 -125.24 470.15 C-125.24 453.48 -125.26 436.81 -125.29 420.14 C-125.31 403.02 -125.32 385.9 -125.32 368.78 C-125.32 359.17 -125.33 349.56 -125.35 339.95 C-125.36 331.77 -125.37 323.59 -125.36 315.4 C-125.36 311.23 -125.36 307.06 -125.37 302.88 C-125.38 299.06 -125.38 295.23 -125.37 291.41 C-125.37 289.38 -125.38 287.35 -125.39 285.32 C-125.31 270.78 -121.27 260.74 -110.69 250.62 C-106.21 246.83 -101.55 244.77 -96 243 C-95.01 242.67 -94.02 242.34 -93 242 C-91.36 241.91 -89.71 241.88 -88.07 241.89 C-87.07 241.89 -86.07 241.89 -85.04 241.89 C-83.96 241.89 -82.88 241.9 -81.77 241.9 C-81.22 241.9 -81.22 241.9 -78.42 241.91 C-74.88 241.91 -71.35 241.92 -67.81 241.94 C-65.42 241.94 -63.02 241.95 -60.63 241.95 C-54.75 241.96 -48.88 241.98 -43 242 C-43.02 241.24 -43.03 240.49 -43.05 239.71 C-43.11 236.26 -43.15 232.82 -43.19 229.38 C-43.21 228.19 -43.24 227 -43.26 225.77 C-43.35 214.89 -43.35 214.89 -40 210 C-39.42 209.13 -38.85 208.27 -38.25 207.38 C-33.99 202.88 -30.41 200.74 -24.26 200.89 C-23.46 200.91 -22.66 200.92 -21.83 200.94 C-21.23 200.96 -20.62 200.98 -20 201 C-20.01 200.02 -20.01 199.05 -20.02 198.04 C-20.15 174.26 -20.25 150.48 -20.31 126.7 C-20.34 115.21 -20.38 103.71 -20.45 92.21 C-20.51 82.18 -20.55 72.16 -20.56 62.14 C-20.57 56.83 -20.59 51.52 -20.63 46.22 C-20.68 41.22 -20.69 36.22 -20.68 31.23 C-20.68 29.4 -20.69 27.56 -20.72 25.73 C-20.91 9.04 -20.91 9.04 -15.68 3.3 C-10.76 -0.5 -6.05 -0.77 0 0 Z " fill="#A8B1B3" transform="translate(430,73)"/>
<path d="M0 0 C4.92 2.37 7.37 5.27 10 10 C10.37 12.8 10.53 15.19 10.48 17.97 C10.48 18.76 10.49 19.54 10.49 20.35 C10.5 22.97 10.48 25.59 10.45 28.21 C10.45 30.1 10.45 31.98 10.46 33.86 C10.46 38.97 10.43 44.07 10.41 49.18 C10.38 54.51 10.38 59.85 10.37 65.19 C10.36 75.29 10.33 85.4 10.29 95.5 C10.24 107 10.22 118.51 10.2 130.01 C10.16 153.68 10.09 177.34 10 201 C10.31 200.99 10.31 200.99 11.86 200.95 C12.66 200.93 13.47 200.92 14.3 200.9 C14.7 200.89 14.7 200.89 16.72 200.85 C22.49 201.23 26.12 205.96 29.7 210.02 C35.97 219.57 33 230.98 33 242 C65.67 242 98.34 242 132 242 C132 232.76 132 223.52 132 214 C136.51 207.23 136.51 207.23 139.62 204.69 C140.22 204.2 140.81 203.71 141.41 203.2 C145.22 200.32 149.06 200.89 153.62 200.94 C154.43 200.94 155.23 200.95 156.05 200.95 C158.04 200.96 160.02 200.98 162 201 C162 199.99 161.99 198.99 161.99 197.95 C161.9 173.48 161.83 149.01 161.79 124.54 C161.77 112.71 161.74 100.88 161.7 89.04 C161.66 78.73 161.63 68.42 161.62 58.11 C161.62 52.64 161.61 47.18 161.58 41.72 C161.55 36.58 161.54 31.45 161.55 26.31 C161.55 24.42 161.54 22.53 161.52 20.64 C161.5 18.07 161.51 15.5 161.52 12.92 C161.51 12.17 161.5 11.42 161.48 10.65 C161.52 7.2 161.75 5.33 163.85 2.54 C166.83 0.41 168.41 0.34 172 1 C175.55 3.72 176.86 5.19 177.62 9.66 C177.64 11.11 177.63 12.56 177.6 14 C177.61 14.8 177.61 15.61 177.61 16.43 C177.62 19.11 177.59 21.79 177.57 24.47 C177.57 26.39 177.57 28.31 177.57 30.23 C177.57 35.45 177.54 40.67 177.51 45.88 C177.48 51.34 177.47 56.79 177.47 62.24 C177.45 72.56 177.41 82.89 177.36 93.21 C177.3 104.96 177.28 116.72 177.25 128.47 C177.2 152.65 177.11 176.82 177 201 C178.03 200.98 179.06 200.97 180.12 200.95 C181.49 200.93 182.85 200.92 184.21 200.91 C184.55 200.9 184.55 200.9 186.27 200.87 C191.73 200.83 195.8 201.41 200 205 C204.95 210.42 207.13 214.56 207.1 221.98 C207.09 223.14 207.09 224.31 207.09 225.51 C207.08 226.72 207.07 227.94 207.06 229.19 C207.06 230.41 207.05 231.64 207.05 232.9 C207.04 235.94 207.02 238.97 207 242 C207.61 241.99 208.21 241.99 208.84 241.98 C215.18 241.91 221.52 241.87 227.87 241.84 C230.23 241.82 232.6 241.8 234.96 241.77 C238.37 241.74 241.78 241.72 245.18 241.71 C246.23 241.69 247.28 241.68 248.36 241.66 C261.29 241.66 271.4 246.55 280.36 255.87 C285.48 262.54 289.12 270.38 289.13 278.8 C289.13 280.01 289.14 281.23 289.14 282.48 C289.14 283.84 289.14 285.2 289.13 286.56 C289.14 287.99 289.14 289.43 289.14 290.87 C289.15 294.82 289.15 298.78 289.15 302.74 C289.15 307 289.15 311.26 289.16 315.53 C289.16 323.89 289.17 332.24 289.17 340.6 C289.17 347.4 289.17 354.19 289.17 360.98 C289.18 380.24 289.19 399.49 289.19 418.75 C289.19 419.27 289.19 419.27 289.19 421.9 C289.19 422.94 289.19 423.98 289.19 425.05 C289.18 441.9 289.19 458.75 289.21 475.6 C289.22 492.89 289.23 510.18 289.23 527.48 C289.23 537.19 289.23 546.9 289.24 556.61 C289.25 564.88 289.25 573.15 289.25 581.42 C289.24 585.64 289.24 589.86 289.25 594.08 C289.26 597.95 289.26 601.81 289.25 605.68 C289.25 607.07 289.25 608.47 289.26 609.87 C289.31 624.44 286.8 634.76 276.7 645.59 C266.68 654.52 256.77 656.16 243.91 656.1 C242.86 656.1 241.8 656.09 240.71 656.09 C237.35 656.09 233.99 656.08 230.62 656.06 C228.34 656.06 226.05 656.05 223.77 656.05 C218.18 656.04 212.59 656.02 207 656 C207.01 656.39 207.01 656.39 207.08 658.35 C207.18 661.9 207.25 665.45 207.31 669 C207.35 670.22 207.4 671.44 207.44 672.7 C207.55 681.18 206.52 686.49 200.45 692.55 C195.41 697 191.26 697.14 184.81 697.06 C184.06 697.06 183.31 697.05 182.54 697.05 C180.69 697.04 178.85 697.02 177 697 C177 697.89 177.01 698.78 177.01 699.69 C177.1 721.28 177.17 742.87 177.21 764.46 C177.23 774.9 177.26 785.34 177.3 795.78 C177.34 804.88 177.37 813.98 177.38 823.08 C177.38 827.9 177.39 832.72 177.42 837.54 C177.45 842.07 177.46 846.61 177.45 851.14 C177.45 852.81 177.46 854.47 177.48 856.14 C177.5 858.41 177.49 860.68 177.48 862.95 C177.48 864.22 177.49 865.5 177.49 866.81 C176.91 870.58 176.06 871.77 173 874 C169.15 874.55 167.01 874.73 163.81 872.41 C161.35 869.14 161.51 867.03 161.52 862.95 C161.52 862.24 161.51 861.53 161.51 860.8 C161.5 858.42 161.52 856.04 161.55 853.67 C161.55 851.96 161.55 850.26 161.54 848.55 C161.54 843.92 161.57 839.29 161.59 834.66 C161.62 829.82 161.62 824.98 161.63 820.15 C161.64 810.98 161.67 801.82 161.71 792.66 C161.76 782.23 161.78 771.8 161.8 761.37 C161.84 739.91 161.91 718.46 162 697 C160.83 697.02 159.66 697.05 158.45 697.07 C156.9 697.09 155.35 697.11 153.8 697.12 C153.03 697.14 152.25 697.16 151.46 697.18 C145.52 697.23 141.2 696.54 137 692 C127.81 679.83 131 675.53 131 656 C98.66 656 66.32 656 33 656 C33 664.25 33 672.5 33 681 C27.38 692.23 27.38 692.23 23 695 C22.01 695.66 21.02 696.32 20 697 C17.52 697.2 17.52 697.2 14.81 697.12 C13.91 697.11 13.01 697.09 12.08 697.07 C11.74 697.06 11.74 697.06 10 697 C10 697.87 10.01 698.73 10.01 699.62 C10.07 720.68 10.12 741.74 10.16 762.79 C10.17 772.98 10.19 783.16 10.23 793.34 C10.26 802.22 10.28 811.09 10.28 819.97 C10.29 824.67 10.3 829.37 10.32 834.07 C10.34 838.49 10.34 842.92 10.34 847.34 C10.34 848.96 10.35 850.59 10.36 852.21 C10.37 854.43 10.37 856.64 10.36 858.86 C10.36 860.1 10.37 861.34 10.37 862.62 C9.82 867.68 8.2 870.91 4.44 874.31 C-0.5 877.73 -5.1 877.74 -11 877 C-15.32 874.92 -17.92 871.22 -20 867 C-20.37 863.73 -20.37 863.73 -20.36 859.94 C-20.36 859.25 -20.37 858.55 -20.37 857.83 C-20.37 855.49 -20.36 853.16 -20.34 850.83 C-20.34 849.15 -20.34 847.48 -20.34 845.8 C-20.34 841.26 -20.33 836.71 -20.3 832.17 C-20.29 827.41 -20.28 822.66 -20.28 817.91 C-20.27 808.92 -20.25 799.92 -20.22 790.92 C-20.18 780.68 -20.17 770.44 -20.15 760.2 C-20.12 739.13 -20.07 718.07 -20 697 C-20.69 697.01 -21.38 697.03 -22.1 697.04 C-22.55 697.05 -22.55 697.05 -24.84 697.07 C-25.29 697.08 -25.29 697.08 -27.56 697.11 C-30.6 696.97 -32.15 696.24 -34.44 694.25 C-35.05 693.74 -35.67 693.23 -36.31 692.7 C-41.34 687.63 -43.27 682.99 -43.2 675.82 C-43.19 674.67 -43.18 673.51 -43.18 672.32 C-43.16 671.12 -43.14 669.92 -43.12 668.69 C-43.12 667.47 -43.11 666.25 -43.1 665 C-43.07 662 -43.04 659 -43 656 C-43.59 656.01 -44.18 656.02 -44.79 656.03 C-50.97 656.12 -57.15 656.18 -63.33 656.22 C-65.63 656.24 -67.93 656.27 -70.24 656.3 C-73.56 656.35 -76.88 656.37 -80.21 656.39 C-81.22 656.41 -82.24 656.43 -83.28 656.45 C-95.93 656.46 -107.04 651.49 -115.75 642.31 C-122.41 634.24 -125.12 625.23 -125.13 614.89 C-125.14 613.68 -125.14 612.46 -125.14 611.22 C-125.14 609.88 -125.14 608.55 -125.14 607.21 C-125.14 605.79 -125.15 604.36 -125.15 602.93 C-125.16 599.02 -125.16 595.11 -125.16 591.2 C-125.16 586.98 -125.17 582.76 -125.18 578.54 C-125.19 569.31 -125.2 560.08 -125.2 550.85 C-125.2 545.09 -125.21 539.33 -125.21 533.57 C-125.22 517.61 -125.23 501.65 -125.24 485.69 C-125.24 484.67 -125.24 483.64 -125.24 482.59 C-125.24 481.57 -125.24 480.55 -125.24 479.49 C-125.24 477.42 -125.24 475.34 -125.24 473.27 C-125.24 472.24 -125.24 471.21 -125.24 470.15 C-125.24 453.48 -125.26 436.81 -125.29 420.14 C-125.31 403.02 -125.32 385.9 -125.32 368.78 C-125.32 359.17 -125.33 349.56 -125.35 339.95 C-125.36 331.77 -125.37 323.59 -125.36 315.4 C-125.36 311.23 -125.36 307.06 -125.37 302.88 C-125.38 299.06 -125.38 295.23 -125.37 291.41 C-125.37 289.38 -125.38 287.35 -125.39 285.32 C-125.31 270.78 -121.27 260.74 -110.69 250.62 C-106.21 246.83 -101.55 244.77 -96 243 C-95.01 242.67 -94.02 242.34 -93 242 C-91.36 241.91 -89.71 241.88 -88.07 241.89 C-87.07 241.89 -86.07 241.89 -85.04 241.89 C-83.96 241.89 -82.88 241.9 -81.77 241.9 C-81.22 241.9 -81.22 241.9 -78.42 241.91 C-74.88 241.91 -71.35 241.92 -67.81 241.94 C-65.42 241.94 -63.02 241.95 -60.63 241.95 C-54.75 241.96 -48.88 241.98 -43 242 C-43.02 241.24 -43.03 240.49 -43.05 239.71 C-43.11 236.26 -43.15 232.82 -43.19 229.38 C-43.21 228.19 -43.24 227 -43.26 225.77 C-43.35 214.89 -43.35 214.89 -40 210 C-39.42 209.13 -38.85 208.27 -38.25 207.38 C-33.99 202.88 -30.41 200.74 -24.26 200.89 C-23.46 200.91 -22.66 200.92 -21.83 200.94 C-21.23 200.96 -20.62 200.98 -20 201 C-20.01 200.02 -20.01 199.05 -20.02 198.04 C-20.15 174.26 -20.25 150.48 -20.31 126.7 C-20.34 115.21 -20.38 103.71 -20.45 92.21 C-20.51 82.18 -20.55 72.16 -20.56 62.14 C-20.57 56.83 -20.59 51.52 -20.63 46.22 C-20.68 41.22 -20.69 36.22 -20.68 31.23 C-20.68 29.4 -20.69 27.56 -20.72 25.73 C-20.91 9.04 -20.91 9.04 -15.68 3.3 C-10.76 -0.5 -6.05 -0.77 0 0 Z M-107 264 C-111.22 270.21 -113.12 275.33 -113.13 282.84 C-113.14 284.04 -113.14 285.24 -113.15 286.48 C-113.15 287.81 -113.15 289.15 -113.15 290.48 C-113.15 291.9 -113.15 293.31 -113.16 294.73 C-113.17 298.62 -113.17 302.52 -113.17 306.42 C-113.18 310.61 -113.19 314.81 -113.2 319.01 C-113.22 329.16 -113.23 339.3 -113.24 349.45 C-113.24 354.23 -113.25 359 -113.25 363.78 C-113.27 379.66 -113.28 395.54 -113.29 411.42 C-113.29 415.54 -113.29 419.66 -113.3 423.78 C-113.3 424.8 -113.3 425.83 -113.3 426.88 C-113.3 443.48 -113.33 460.07 -113.36 476.66 C-113.4 493.7 -113.41 510.73 -113.42 527.77 C-113.42 537.33 -113.43 546.9 -113.45 556.46 C-113.48 564.61 -113.48 572.75 -113.47 580.9 C-113.47 585.05 -113.47 589.21 -113.49 593.36 C-113.51 597.17 -113.51 600.98 -113.49 604.78 C-113.49 606.81 -113.5 608.83 -113.52 610.85 C-113.44 622.25 -110.43 630.2 -102 638 C-96.53 642.05 -92.16 644.12 -85.27 644.13 C-84.67 644.14 -84.67 644.14 -81.63 644.15 C-80.29 644.15 -78.95 644.15 -77.61 644.15 C-76.19 644.15 -74.77 644.15 -73.35 644.16 C-69.45 644.17 -65.54 644.17 -61.63 644.17 C-57.42 644.18 -53.21 644.19 -49 644.2 C-38.82 644.22 -28.65 644.23 -18.47 644.24 C-13.68 644.24 -8.89 644.25 -4.1 644.25 C11.82 644.27 27.75 644.28 43.68 644.29 C47.81 644.29 51.94 644.29 56.08 644.3 C57.1 644.3 58.13 644.3 59.19 644.3 C75.83 644.3 92.47 644.33 109.11 644.36 C126.2 644.4 143.28 644.41 160.36 644.42 C169.96 644.42 179.55 644.43 189.14 644.45 C197.31 644.48 205.48 644.48 213.65 644.47 C217.82 644.47 221.99 644.47 226.15 644.49 C229.97 644.51 233.79 644.51 237.61 644.49 C239.64 644.49 241.67 644.5 243.69 644.52 C253.36 644.45 262.17 642.78 269.41 635.93 C276.56 627.25 277.87 618.39 277.75 607.48 C277.75 606.05 277.76 604.62 277.77 603.19 C277.79 599.29 277.78 595.39 277.76 591.49 C277.74 587.27 277.75 583.05 277.77 578.83 C277.79 570.58 277.77 562.33 277.75 554.08 C277.72 544.46 277.72 534.85 277.73 525.23 C277.73 508.08 277.71 490.92 277.67 473.76 C277.63 457.12 277.62 440.49 277.63 423.85 C277.64 405.71 277.64 387.58 277.62 369.44 C277.62 367.51 277.62 365.58 277.61 363.64 C277.61 362.69 277.61 361.74 277.61 360.76 C277.6 354.06 277.6 347.36 277.61 340.66 C277.61 332.5 277.6 324.34 277.57 316.17 C277.56 312.01 277.55 307.85 277.56 303.68 C277.57 299.87 277.56 296.06 277.53 292.24 C277.52 290.22 277.53 288.19 277.54 286.16 C277.44 274.92 274.53 266.6 266 259 C260.63 255.58 255.65 253.88 249.27 253.87 C248.67 253.87 248.67 253.87 245.62 253.86 C244.28 253.86 242.94 253.86 241.6 253.86 C240.18 253.86 238.76 253.85 237.34 253.85 C233.44 253.84 229.53 253.84 225.62 253.84 C221.4 253.84 217.19 253.83 212.98 253.82 C203.76 253.81 194.54 253.8 185.33 253.8 C179.57 253.8 173.82 253.79 168.06 253.79 C152.13 253.78 136.2 253.77 120.27 253.76 C119.25 253.76 118.23 253.76 117.18 253.76 C116.67 253.76 116.67 253.76 114.08 253.76 C112.01 253.76 109.94 253.76 107.87 253.76 C107.35 253.76 107.35 253.76 104.75 253.76 C88.11 253.76 71.46 253.74 54.81 253.71 C37.72 253.69 20.63 253.68 3.54 253.68 C-6.06 253.68 -15.65 253.67 -25.25 253.65 C-33.42 253.64 -41.59 253.63 -49.77 253.64 C-53.93 253.64 -58.1 253.64 -62.27 253.63 C-66.09 253.62 -69.91 253.62 -73.73 253.63 C-75.76 253.63 -77.79 253.62 -79.82 253.61 C-91.03 253.67 -99.39 255.36 -107 264 Z " fill="#273137" transform="translate(430,73)"/>
<path d="M0 0 C1.12 6.62 1.12 6.62 0 10 C-3.06 11.19 -3.06 11.19 -6 12 C-6 12.66 -6 13.32 -6 14 C-11.99 18 -19.12 17.13 -26.09 17.1 C-27.14 17.1 -28.2 17.09 -29.29 17.09 C-32.65 17.09 -36.01 17.08 -39.38 17.06 C-41.66 17.06 -43.95 17.05 -46.23 17.05 C-51.82 17.04 -57.41 17.02 -63 17 C-62.97 17.78 -62.95 18.55 -62.92 19.35 C-62.82 22.9 -62.75 26.45 -62.69 30 C-62.65 31.22 -62.6 32.44 -62.56 33.7 C-62.45 42.18 -63.48 47.49 -69.55 53.55 C-74.59 58 -78.74 58.14 -85.19 58.06 C-85.94 58.06 -86.69 58.05 -87.46 58.05 C-89.31 58.04 -91.15 58.02 -93 58 C-93 58.89 -92.99 59.78 -92.99 60.69 C-92.9 82.28 -92.83 103.87 -92.79 125.46 C-92.77 135.9 -92.74 146.34 -92.7 156.78 C-92.66 165.88 -92.63 174.98 -92.62 184.08 C-92.62 188.9 -92.61 193.72 -92.58 198.54 C-92.55 203.07 -92.54 207.61 -92.55 212.14 C-92.55 213.81 -92.54 215.47 -92.52 217.14 C-92.5 219.41 -92.51 221.68 -92.52 223.95 C-92.52 225.22 -92.51 226.5 -92.51 227.81 C-93.09 231.58 -93.94 232.77 -97 235 C-100.85 235.55 -102.99 235.73 -106.19 233.41 C-108.65 230.14 -108.49 228.03 -108.48 223.95 C-108.48 223.24 -108.49 222.53 -108.49 221.8 C-108.5 219.42 -108.48 217.04 -108.45 214.67 C-108.45 212.96 -108.45 211.26 -108.46 209.55 C-108.46 204.92 -108.43 200.29 -108.41 195.66 C-108.38 190.82 -108.38 185.98 -108.37 181.15 C-108.36 171.98 -108.33 162.82 -108.29 153.66 C-108.24 143.23 -108.22 132.8 -108.2 122.37 C-108.16 100.91 -108.09 79.46 -108 58 C-109.17 58.02 -110.34 58.05 -111.55 58.07 C-113.1 58.09 -114.65 58.11 -116.2 58.12 C-116.97 58.14 -117.75 58.16 -118.54 58.18 C-124.48 58.23 -128.8 57.54 -133 53 C-142.19 40.83 -139 36.53 -139 17 C-171.34 17 -203.68 17 -237 17 C-237 25.25 -237 33.5 -237 42 C-242.62 53.23 -242.62 53.23 -247 56 C-247.99 56.66 -248.98 57.32 -250 58 C-252.48 58.2 -252.48 58.2 -255.19 58.12 C-256.09 58.11 -256.99 58.09 -257.92 58.07 C-258.61 58.05 -259.29 58.02 -260 58 C-260 58.87 -259.99 59.73 -259.99 60.62 C-259.93 81.68 -259.88 102.74 -259.84 123.79 C-259.83 133.98 -259.81 144.16 -259.77 154.34 C-259.74 163.22 -259.72 172.09 -259.72 180.97 C-259.71 185.67 -259.7 190.37 -259.68 195.07 C-259.66 199.49 -259.66 203.92 -259.66 208.34 C-259.66 209.96 -259.65 211.59 -259.64 213.21 C-259.63 215.43 -259.63 217.64 -259.64 219.86 C-259.64 221.1 -259.63 222.34 -259.63 223.62 C-260.18 228.68 -261.8 231.91 -265.56 235.31 C-270.5 238.73 -275.1 238.74 -281 238 C-285.32 235.92 -287.92 232.22 -290 228 C-290.37 224.73 -290.37 224.73 -290.36 220.94 C-290.36 220.25 -290.37 219.55 -290.37 218.83 C-290.37 216.49 -290.36 214.16 -290.34 211.83 C-290.34 210.15 -290.34 208.48 -290.34 206.8 C-290.34 202.26 -290.33 197.71 -290.3 193.17 C-290.29 188.41 -290.28 183.66 -290.28 178.91 C-290.27 169.92 -290.25 160.92 -290.22 151.92 C-290.18 141.68 -290.17 131.44 -290.15 121.2 C-290.12 100.13 -290.07 79.07 -290 58 C-290.69 58.01 -291.38 58.03 -292.1 58.04 C-292.55 58.05 -292.55 58.05 -294.84 58.07 C-295.29 58.08 -295.29 58.08 -297.56 58.11 C-300.6 57.97 -302.15 57.24 -304.44 55.25 C-304.75 54.99 -304.75 54.99 -306.31 53.7 C-311.34 48.63 -313.27 43.99 -313.2 36.82 C-313.19 35.78 -313.19 34.74 -313.18 33.66 C-313.16 32.35 -313.14 31.04 -313.12 29.69 C-313.08 25.5 -313.04 21.31 -313 17 C-329.17 17 -345.34 17 -362 17 C-362 16.67 -362 16.34 -362 16 C-345.5 16 -329 16 -312 16 C-311.67 14.35 -311.34 12.7 -311 11 C-310.34 9.35 -309.68 7.7 -309 6 C-324.51 6 -340.02 6 -356 6 C-356 5.67 -356 5.34 -356 5 C-355.64 5 -355.64 5 -353.83 5 C-311.45 4.96 -269.06 4.91 -226.67 4.82 C-221.58 4.81 -216.49 4.8 -211.4 4.79 C-210.38 4.79 -209.37 4.79 -208.32 4.79 C-191.92 4.76 -175.52 4.74 -159.11 4.73 C-142.27 4.71 -125.44 4.69 -108.6 4.65 C-98.21 4.62 -87.83 4.61 -77.44 4.61 C-70.32 4.61 -63.19 4.59 -56.06 4.57 C-51.96 4.55 -47.85 4.54 -43.74 4.55 C-39.97 4.56 -36.2 4.55 -32.43 4.53 C-30.44 4.52 -28.44 4.53 -26.45 4.54 C-19.2 4.47 -13.28 3.5 -6.51 0.86 C-4 0 -4 0 0 0 Z " fill="#283338" transform="translate(700,712)"/>
<path d="M0 0 C2.5 0.25 2.5 0.25 4.5 2.25 C5.05 8.25 3.65 13.59 2.12 19.38 C1.9 20.26 1.68 21.14 1.45 22.04 C-0.22 28.58 -0.22 28.58 -1.47 31.59 C-2.73 34.84 -3.52 38.1 -4.33 41.49 C-5.75 47.3 -7.24 53.09 -8.82 58.86 C-9.02 59.56 -9.21 60.27 -9.41 61 C-10 63.15 -10.59 65.29 -11.19 67.44 C-11.99 70.33 -12.78 73.22 -13.57 76.11 C-13.92 77.36 -14.27 78.61 -14.62 79.91 C-15.35 82.68 -15.98 85.43 -16.5 88.25 C-15.94 88.24 -15.38 88.24 -14.81 88.23 C-9 88.16 -3.19 88.12 2.62 88.09 C4.79 88.07 6.95 88.05 9.12 88.02 C12.24 87.99 15.35 87.97 18.46 87.96 C18.95 87.95 18.95 87.95 21.41 87.91 C22.31 87.91 23.21 87.91 24.14 87.91 C24.94 87.9 25.73 87.9 26.55 87.89 C28.5 88.25 28.5 88.25 30.5 91.25 C30.42 97.13 27.31 101.05 24.06 105.69 C22.96 107.3 21.86 108.91 20.76 110.52 C20.21 111.31 19.66 112.11 19.09 112.94 C16.82 116.25 14.6 119.59 12.38 122.94 C10.02 126.47 7.67 130 5.31 133.53 C-2.39 145.05 -10 156.62 -17.61 168.2 C-25.11 179.6 -32.63 190.98 -40.22 202.32 C-42.84 206.26 -45.46 210.21 -48.07 214.16 C-49.5 216.25 -49.5 216.25 -50.5 217.25 C-53.44 217.44 -53.44 217.44 -56.5 217.25 C-58.5 215.25 -58.5 215.25 -58.77 212.15 C-58.47 207.8 -57.47 203.95 -56.19 199.81 C-55.64 197.97 -55.09 196.12 -54.55 194.27 C-54.39 193.74 -54.39 193.74 -53.59 191.02 C-52.29 186.54 -51.06 182.04 -49.83 177.54 C-49.59 176.67 -49.36 175.81 -49.11 174.92 C-48.15 171.4 -47.19 167.88 -46.24 164.36 C-43.85 155.58 -41.43 146.83 -38.72 138.14 C-38.51 137.47 -38.3 136.8 -38.09 136.11 C-37.34 133.75 -36.61 131.47 -35.5 129.25 C-36.07 129.25 -36.64 129.26 -37.23 129.26 C-43.17 129.31 -49.11 129.34 -55.04 129.36 C-57.26 129.37 -59.48 129.38 -61.7 129.4 C-64.88 129.43 -68.06 129.44 -71.24 129.45 C-71.74 129.45 -71.74 129.45 -74.26 129.48 C-74.72 129.48 -74.72 129.48 -77.05 129.48 C-77.86 129.48 -78.68 129.49 -79.51 129.49 C-81.5 129.25 -81.5 129.25 -83.5 127.25 C-83.31 121.65 -81.47 118.01 -78.27 113.58 C-77.35 112.26 -76.44 110.93 -75.52 109.6 C-75.27 109.25 -75.27 109.25 -74.03 107.47 C-71.34 103.57 -68.76 99.6 -66.16 95.64 C-65.02 93.9 -63.88 92.16 -62.73 90.42 C-62.14 89.52 -61.56 88.63 -60.95 87.71 C-49.02 69.58 -37.02 51.49 -24.95 33.45 C-23.86 31.81 -22.77 30.18 -21.68 28.55 C-21.16 27.77 -20.64 27 -20.11 26.2 C-15.98 20 -11.93 13.76 -7.93 7.49 C-3.35 0.33 -3.35 0.33 0 0 Z " fill="#263137" transform="translate(532.5,412.75)"/>
<path d="M0 0 C1.58 4.21 2.25 7.68 2.25 12.17 C2.26 13.39 2.26 14.61 2.27 15.87 C2.26 17.22 2.26 18.57 2.25 19.92 C2.26 21.36 2.26 22.8 2.26 24.23 C2.27 28.18 2.27 32.13 2.26 36.08 C2.26 40.35 2.26 44.61 2.27 48.87 C2.28 57.22 2.28 65.57 2.27 73.91 C2.27 80.7 2.27 87.48 2.27 94.27 C2.27 95.23 2.27 96.2 2.27 97.19 C2.27 99.16 2.27 101.12 2.27 103.08 C2.28 121.48 2.27 139.87 2.26 158.27 C2.25 174.05 2.25 189.83 2.26 205.62 C2.27 223.94 2.28 242.27 2.27 260.6 C2.27 262.55 2.27 264.51 2.27 266.46 C2.27 267.42 2.27 268.39 2.27 269.38 C2.26 276.15 2.27 282.93 2.27 289.7 C2.28 297.96 2.28 306.22 2.27 314.48 C2.26 318.7 2.26 322.91 2.27 327.12 C2.27 330.98 2.27 334.84 2.26 338.7 C2.26 340.09 2.26 341.49 2.26 342.88 C2.31 357.65 -0.31 367.74 -10.47 378.72 C-14.23 382.11 -18.33 384.15 -23 386 C-23 385.34 -23 384.68 -23 384 C-21.02 383.34 -19.04 382.68 -17 382 C-17.19 380.72 -17.37 379.44 -17.56 378.12 C-18.12 374.25 -18.12 374.25 -17 372 C-18.98 372.33 -20.96 372.66 -23 373 C-22.28 372.34 -21.56 371.68 -20.81 371 C-14.76 364.94 -10.76 357.58 -10.74 348.96 C-10.73 347.74 -10.72 346.52 -10.71 345.26 C-10.71 343.91 -10.71 342.56 -10.71 341.21 C-10.71 339.77 -10.7 338.33 -10.7 336.89 C-10.68 332.94 -10.67 328.99 -10.67 325.04 C-10.66 320.78 -10.65 316.52 -10.63 312.26 C-10.6 303.92 -10.58 295.57 -10.57 287.22 C-10.55 277.51 -10.52 267.8 -10.49 258.08 C-10.44 240.76 -10.4 223.43 -10.37 206.11 C-10.33 189.28 -10.29 172.46 -10.24 155.63 C-10.24 154.6 -10.24 153.56 -10.23 152.49 C-10.23 151.46 -10.23 150.42 -10.22 149.36 C-10.17 130.22 -10.12 111.08 -10.07 91.94 C-10.06 85.16 -10.04 78.39 -10.02 71.61 C-10 63.36 -9.98 55.11 -9.96 46.86 C-9.95 42.64 -9.94 38.43 -9.93 34.22 C-9.92 30.36 -9.91 26.51 -9.91 22.66 C-9.91 21.26 -9.9 19.86 -9.9 18.47 C-9.89 16.57 -9.89 14.68 -9.89 12.79 C-9.88 11.74 -9.88 10.68 -9.88 9.6 C-10 7 -10 7 -11 4 C-10.34 4 -9.68 4 -9 4 C-9 3.01 -9 2.02 -9 1 C-2.25 0 -2.25 0 0 0 Z " fill="#263137" transform="translate(717,340)"/>
<path d="M0 0 C1.35 2.69 0.66 3.64 -0.26 6.47 C-1.38 10.02 -2.46 13.56 -3.43 17.16 C-3.67 18.02 -3.9 18.89 -4.14 19.79 C-4.65 21.65 -5.15 23.51 -5.65 25.37 C-6.89 29.98 -8.16 34.57 -9.5 39.15 C-9.62 39.55 -9.62 39.55 -10.2 41.57 C-10.64 43.06 -11.08 44.54 -11.53 46.01 C-12.92 50.82 -13.27 55 -13 60 C-10.82 62.18 -5.75 61.26 -2.71 61.32 C-1.78 61.34 -0.85 61.36 0.11 61.38 C3.09 61.44 6.08 61.5 9.06 61.56 C11.08 61.61 13.1 61.65 15.12 61.69 C20.08 61.8 25.04 61.9 30 62 C25.05 70.75 19.68 79.16 14.06 87.5 C13.29 88.64 12.53 89.79 11.76 90.93 C10.24 93.2 8.72 95.46 7.2 97.73 C4.47 101.79 1.76 105.86 -0.95 109.93 C-2.78 112.67 -4.6 115.4 -6.43 118.14 C-8 120.48 -9.56 122.82 -11.13 125.17 C-11.93 126.36 -12.72 127.55 -13.52 128.75 C-14.7 130.51 -15.88 132.27 -17.05 134.03 C-17.74 135.06 -18.43 136.08 -19.13 137.14 C-20.82 139.73 -22.43 142.34 -24 145 C-25.48 142.03 -24.42 140.25 -23.52 137.09 C-23.18 135.88 -22.85 134.67 -22.5 133.42 C-22.12 132.12 -21.75 130.81 -21.38 129.5 C-21 128.18 -20.63 126.85 -20.26 125.53 C-19.52 122.9 -18.78 120.27 -18.03 117.64 C-17.15 114.52 -16.28 111.41 -15.42 108.29 C-15.2 107.47 -14.97 106.66 -14.74 105.82 C-14.35 104.37 -13.95 102.91 -13.55 101.46 C-12.73 98.5 -11.86 95.6 -10.85 92.7 C-9.89 89.66 -10.05 88.01 -11 85 C-13.18 82.82 -18.25 83.74 -21.29 83.68 C-21.75 83.67 -21.75 83.67 -24.11 83.62 C-27.09 83.56 -30.08 83.5 -33.06 83.44 C-35.08 83.39 -37.1 83.35 -39.12 83.31 C-44.08 83.2 -49.04 83.1 -54 83 C-52.46 79.86 -50.75 76.97 -48.82 74.05 C-48.17 73.05 -47.52 72.05 -46.85 71.03 C-46.13 69.95 -45.42 68.86 -44.69 67.75 C-43.94 66.61 -43.19 65.46 -42.44 64.32 C-40.82 61.86 -39.2 59.4 -37.59 56.94 C-34.91 52.86 -32.23 48.77 -29.55 44.69 C-28.17 42.58 -26.79 40.48 -25.41 38.37 C-24.53 37.02 -23.64 35.67 -22.76 34.33 C-16.92 25.41 -11.03 16.52 -5.11 7.65 C-3.4 5.1 -1.7 2.55 0 0 Z " fill="#555F61" transform="translate(518,449)"/>
<path d="M0 0 C3.55 2.72 4.86 4.19 5.62 8.66 C5.64 10.11 5.63 11.56 5.6 13 C5.6 13.4 5.6 13.4 5.61 15.43 C5.62 18.11 5.59 20.79 5.57 23.47 C5.57 25.39 5.57 27.31 5.57 29.23 C5.57 34.45 5.54 39.67 5.51 44.88 C5.48 50.34 5.47 55.79 5.47 61.24 C5.45 71.56 5.41 81.89 5.36 92.21 C5.3 103.96 5.28 115.72 5.25 127.47 C5.2 151.65 5.11 175.82 5 200 C0.05 200 -4.9 200 -10 200 C-10.09 174.51 -10.16 149.03 -10.21 123.54 C-10.23 111.71 -10.26 99.88 -10.3 88.04 C-10.34 77.73 -10.37 67.42 -10.38 57.11 C-10.38 51.64 -10.39 46.18 -10.42 40.72 C-10.45 35.58 -10.46 30.45 -10.45 25.31 C-10.45 23.42 -10.46 21.53 -10.48 19.64 C-10.5 17.07 -10.49 14.5 -10.48 11.92 C-10.49 11.17 -10.5 10.42 -10.52 9.65 C-10.48 6.2 -10.25 4.33 -8.15 1.54 C-5.17 -0.59 -3.59 -0.66 0 0 Z " fill="#BE3230" transform="translate(602,74)"/>
<path d="M0 0 C4.95 0 9.9 0 15 0 C15.09 22.49 15.16 44.97 15.21 67.46 C15.23 77.9 15.26 88.34 15.3 98.78 C15.34 107.88 15.37 116.98 15.38 126.08 C15.38 130.9 15.39 135.72 15.42 140.54 C15.45 145.07 15.46 149.61 15.45 154.14 C15.45 155.81 15.46 157.47 15.48 159.14 C15.5 161.41 15.49 163.68 15.48 165.95 C15.48 167.22 15.49 168.5 15.49 169.81 C14.91 173.58 14.06 174.77 11 177 C7.15 177.55 5.01 177.73 1.81 175.41 C-0.65 172.14 -0.49 170.03 -0.48 165.95 C-0.48 165.24 -0.49 164.53 -0.49 163.8 C-0.5 161.42 -0.48 159.04 -0.45 156.67 C-0.45 154.96 -0.45 153.26 -0.46 151.55 C-0.46 146.92 -0.43 142.29 -0.41 137.66 C-0.38 132.82 -0.38 127.98 -0.37 123.15 C-0.36 113.98 -0.33 104.82 -0.29 95.66 C-0.24 85.23 -0.22 74.8 -0.2 64.37 C-0.16 42.91 -0.09 21.46 0 0 Z " fill="#BB3030" transform="translate(592,770)"/>
<path d="M0 0 C5.09 3.87 9.49 8.46 10.09 15.01 C10.29 22.82 9.81 29.5 4.02 35.23 C-2.42 40.35 -8.94 42.51 -17.14 41.41 C-24.41 39.2 -29.23 34.32 -32.52 27.6 C-34.29 18.56 -33.24 11.92 -27.96 4.22 C-20.32 -3.41 -9.67 -5.56 0 0 Z " fill="#273138" transform="translate(650.14453125,422.58984375)"/>
<path d="M0 0 C17.16 0 34.32 0 52 0 C52 24 52 24 50 28 C47.71 29.14 46.35 29.16 43.8 29.21 C42.93 29.23 42.06 29.25 41.17 29.27 C37.2 29.32 33.24 29.37 29.27 29.41 C27.18 29.43 25.08 29.46 22.99 29.51 C19.98 29.57 16.96 29.6 13.95 29.62 C13.01 29.65 12.07 29.68 11.11 29.71 C10.67 29.7 10.67 29.7 8.46 29.7 C8.08 29.7 8.08 29.7 6.14 29.73 C4 29 4 29 0 23 C0 15.41 0 7.82 0 0 Z " fill="#A7B0B2" transform="translate(573,729)"/>
<path d="M0 0 C17.16 0 34.32 0 52 0 C52 23 52 23 49 28 C46.73 29.14 45.41 29.15 42.89 29.19 C42.47 29.2 42.47 29.2 40.32 29.24 C36.45 29.29 32.57 29.33 28.7 29.35 C26.65 29.37 24.61 29.39 22.56 29.43 C19.62 29.49 16.67 29.51 13.73 29.52 C13.27 29.53 13.27 29.53 10.96 29.59 C10.1 29.59 9.25 29.59 8.37 29.58 C8 29.59 8 29.59 6.1 29.61 C4 29 4 29 0 24 C0 16.08 0 8.16 0 0 Z " fill="#A6B0B2" transform="translate(399,729)"/>
<path d="M0 0 C5.55 3.3 10.08 8.07 12.55 14.09 C13.45 21.43 13.12 28.08 8.55 34.09 C3.19 39.9 -1.94 42.1 -9.83 42.53 C-17.03 42.38 -21.62 39.37 -26.33 34.09 C-30.67 27.96 -31.27 22.45 -30.45 15.09 C-28.45 8.09 -23.66 3.71 -17.62 -0.05 C-12.3 -2.16 -5.33 -1.98 0 0 Z " fill="#273237" transform="translate(363.453125,343.91015625)"/>
<path d="M0 0 C0.82 -0.02 1.65 -0.03 2.5 -0.05 C2.94 -0.04 2.94 -0.04 5.16 -0.02 C6.07 -0.02 6.98 -0.03 7.92 -0.03 C9.85 -0.03 11.78 -0.03 13.7 -0 C16.65 0.02 19.59 -0 22.53 -0.04 C24.41 -0.03 26.28 -0.03 28.16 -0.02 C29.03 -0.03 29.91 -0.04 30.81 -0.05 C31.64 -0.03 32.46 -0.02 33.31 0 C34.03 0 34.75 0.01 35.49 0.01 C37.66 0.65 37.66 0.65 42.66 5.65 C42.66 13.57 42.66 21.49 42.66 29.65 C25.5 29.65 8.34 29.65 -9.34 29.65 C-9.34 0.05 -9.34 0.05 0 0 Z " fill="#A6AFB1" transform="translate(408.34375,285.35302734375)"/>
<path d="M0 0 C0.85 -0.02 1.7 -0.03 2.57 -0.05 C6.44 -0.09 10.32 -0.13 14.19 -0.16 C16.24 -0.17 18.28 -0.2 20.33 -0.24 C23.27 -0.29 26.22 -0.32 29.16 -0.33 C30.08 -0.35 30.99 -0.38 31.93 -0.4 C32.79 -0.4 33.64 -0.39 34.52 -0.39 C35.27 -0.4 36.02 -0.41 36.79 -0.42 C38.89 0.19 38.89 0.19 42.89 5.19 C42.89 13.11 42.89 21.03 42.89 29.19 C25.73 29.19 8.57 29.19 -9.11 29.19 C-9.11 6.19 -9.11 6.19 -6.11 1.19 C-3.84 0.06 -2.52 0.04 0 0 Z " fill="#A6AFB1" transform="translate(582.11083984375,285.80712890625)"/>
<path d="M0 0 C5.54 3.29 10.11 8.07 12.55 14.09 C13.44 21.23 13.45 27.54 9.04 33.44 C3.83 39.19 -1.31 42.34 -9.2 42.59 C-17.05 42.46 -21.63 39.06 -26.89 33.53 C-30.86 27.34 -31.51 21.31 -30.45 14.09 C-25.06 1.89 -13.07 -4.85 0 0 Z " fill="#29353B" transform="translate(678.453125,658.91015625)"/>
<path d="M0 0 C3.55 2.72 4.86 4.19 5.62 8.66 C5.64 10.11 5.63 11.56 5.6 13 C5.6 13.4 5.6 13.4 5.61 15.43 C5.62 18.11 5.59 20.79 5.57 23.47 C5.57 25.39 5.57 27.31 5.57 29.23 C5.57 34.45 5.54 39.67 5.51 44.88 C5.48 50.34 5.47 55.79 5.47 61.24 C5.45 71.56 5.41 81.89 5.36 92.21 C5.3 103.96 5.28 115.72 5.25 127.47 C5.2 151.65 5.11 175.82 5 200 C0.05 200 -4.9 200 -10 200 C-10.09 174.51 -10.16 149.03 -10.21 123.54 C-10.23 111.71 -10.26 99.88 -10.3 88.04 C-10.34 77.73 -10.37 67.42 -10.38 57.11 C-10.38 51.64 -10.39 46.18 -10.42 40.72 C-10.45 35.58 -10.46 30.45 -10.45 25.31 C-10.45 23.42 -10.46 21.53 -10.48 19.64 C-10.5 17.07 -10.49 14.5 -10.48 11.92 C-10.49 11.17 -10.5 10.42 -10.52 9.65 C-10.48 6.2 -10.25 4.33 -8.15 1.54 C-5.17 -0.59 -3.59 -0.66 0 0 Z M-8 4 C-8 67.69 -8 131.38 -8 197 C-4.37 197 -0.74 197 3 197 C3.09 172.3 3.16 147.59 3.21 122.89 C3.23 111.42 3.26 99.95 3.3 88.48 C3.34 78.48 3.37 68.49 3.38 58.49 C3.38 53.2 3.39 47.9 3.42 42.61 C3.45 37.63 3.46 32.65 3.45 27.67 C3.45 25.84 3.46 24.01 3.48 22.18 C3.5 19.68 3.49 17.19 3.48 14.69 C3.49 13.97 3.5 13.24 3.52 12.49 C3.48 9.13 3.2 7.28 1.22 4.52 C-2.07 2.27 -4.34 2.78 -8 4 Z " fill="#A03938" transform="translate(602,74)"/>
<path d="M0 0 C0.39 -0.01 0.39 -0.01 2.35 -0.05 C4.38 0.31 4.38 0.31 6.38 3.31 C6.45 5.64 6.46 7.98 6.38 10.31 C5.7 10.4 5.02 10.49 4.33 10.57 C-2.88 11.71 -2.88 11.71 -6.25 14.44 C-8.06 18.22 -8.32 21.2 -7.62 25.31 C-5.99 29.07 -4.52 30.98 -0.62 32.31 C1.37 32.7 3.37 33.04 5.38 33.31 C5.05 35.29 4.71 37.27 4.38 39.31 C4.87 39.48 4.87 39.48 7.38 40.31 C7.7 40.97 8.04 41.63 8.38 42.31 C3.87 44.56 -2.34 44.2 -6.95 42.41 C-13.04 38.78 -17.34 34.09 -19.62 27.31 C-20.53 20.26 -19.96 14.09 -15.62 8.31 C-11.14 3.64 -6.68 0.03 0 0 Z " fill="#29343A" transform="translate(352.625,342.6875)"/>
<path d="M0 0 C5.03 1.98 8 6.1 10 11 C10.9 18.14 10.89 24.44 6.5 30.35 C2.63 34.61 -0.89 37.9 -6.92 38.1 C-8 38.09 -9.08 38.07 -10.19 38.06 C-10.73 38.06 -10.73 38.06 -13.48 38.04 C-14.31 38.02 -15.14 38.01 -16 38 C-16 36.35 -16 34.7 -16 33 C-15.34 33 -14.68 33 -14 33 C-14 31.68 -14 30.36 -14 29 C-11 29 -8 29 -5 29 C-4.9 28.44 -4.79 27.89 -4.69 27.31 C-4 25 -4 25 -2.44 22.62 C-0.16 18.47 -0.8 15.11 -1.62 10.56 C-2.07 6.35 -1.37 3.96 0 0 Z " fill="#263238" transform="translate(681,662)"/>
<path d="M0 0 C4.95 0 9.9 0 15 0 C15.09 22.49 15.16 44.97 15.21 67.46 C15.23 77.9 15.26 88.34 15.3 98.78 C15.34 107.88 15.37 116.98 15.38 126.08 C15.38 130.9 15.39 135.72 15.42 140.54 C15.45 145.07 15.46 149.61 15.45 154.14 C15.45 155.81 15.46 157.47 15.48 159.14 C15.5 161.41 15.49 163.68 15.48 165.95 C15.48 167.22 15.49 168.5 15.49 169.81 C14.91 173.58 14.06 174.77 11 177 C7.15 177.55 5.01 177.73 1.81 175.41 C-0.65 172.14 -0.49 170.03 -0.48 165.95 C-0.48 165.24 -0.49 164.53 -0.49 163.8 C-0.5 161.42 -0.48 159.04 -0.45 156.67 C-0.45 154.96 -0.45 153.26 -0.46 151.55 C-0.46 146.92 -0.43 142.29 -0.41 137.66 C-0.38 132.82 -0.38 127.98 -0.37 123.15 C-0.36 113.98 -0.33 104.82 -0.29 95.66 C-0.24 85.23 -0.22 74.8 -0.2 64.37 C-0.16 42.91 -0.09 21.46 0 0 Z M2 2 C0.56 4.88 0.86 7.37 0.85 10.6 C0.85 11.28 0.85 11.97 0.84 12.68 C0.83 14.98 0.83 17.29 0.82 19.6 C0.82 21.25 0.81 22.9 0.8 24.55 C0.79 29.04 0.78 33.54 0.77 38.03 C0.76 40.83 0.76 43.64 0.75 46.44 C0.73 55.21 0.72 63.97 0.71 72.74 C0.7 82.87 0.67 93 0.63 103.13 C0.6 110.95 0.59 118.78 0.58 126.6 C0.58 131.28 0.57 135.95 0.55 140.63 C0.52 145.03 0.52 149.42 0.53 153.82 C0.53 155.44 0.52 157.05 0.51 158.67 C0.49 160.87 0.5 163.07 0.51 165.27 C0.51 166.51 0.51 167.74 0.51 169.01 C1 172 1 172 2.87 173.89 C5.55 175.29 7.02 175.52 10 175 C12.97 172.77 13.91 171.59 14.49 167.87 C14.49 166.63 14.48 165.38 14.48 164.1 C14.48 163.41 14.49 162.72 14.49 162 C14.5 159.68 14.48 157.36 14.45 155.03 C14.45 153.37 14.45 151.7 14.46 150.04 C14.46 145.51 14.43 140.99 14.41 136.47 C14.38 131.74 14.38 127.02 14.37 122.29 C14.36 113.34 14.33 104.39 14.29 95.44 C14.24 85.25 14.22 75.07 14.2 64.88 C14.16 43.92 14.09 22.96 14 2 C12.02 1.95 10.04 1.91 8.06 1.88 C7.51 1.86 7.51 1.86 4.72 1.8 C3.82 1.87 2.93 1.93 2 2 Z " fill="#984646" transform="translate(592,770)"/>
<path d="M0 0 C3.11 1.71 5.39 3.77 7 7 C7.06 12.73 6.32 16.94 2 21 C-1.72 22.24 -5.14 22.54 -9 22 C-12.97 19.67 -14.83 17.45 -16 13 C-16.72 8.83 -16.03 6.49 -13.62 3.12 C-9.69 -1.07 -5.44 -1.29 0 0 Z " fill="#BA3430" transform="translate(643,431)"/>
<path d="M0 0 C2.37 1.75 4.03 3.78 5.66 6.22 C5 6.99 4.34 7.75 3.66 8.54 C0.6 13 1.33 18.03 1.66 23.22 C1 23.22 0.34 23.22 -0.34 23.22 C-0.57 23.97 -0.79 24.71 -1.03 25.47 C-2.71 28.99 -3.92 30.3 -7.34 32.22 C-10.79 32.84 -13.9 32.91 -17.34 32.22 C-20.34 29.72 -20.34 29.72 -22.34 27.22 C-23 27.22 -23.66 27.22 -24.34 27.22 C-24.7 25.64 -25.06 24.06 -25.4 22.47 C-25.5 22.03 -25.5 22.03 -26 19.8 C-26.35 17.16 -26.34 15.68 -25.34 13.22 C-23.5 11.29 -21.47 9.85 -19.34 8.22 C-20.02 7.67 -20.7 7.11 -21.4 6.54 C-23.34 4.22 -23.34 4.22 -23.4 1.6 C-22.34 -0.78 -22.34 -0.78 -20.11 -1.9 C-13.23 -4.08 -6.27 -3.59 0 0 Z M-22.41 13.09 C-24.09 16.94 -23.64 20.3 -22.34 24.22 C-20.52 27.04 -19.33 28.73 -16.34 30.22 C-11.09 30.57 -7.51 30.8 -3.34 27.22 C-0.74 23.19 0.46 20.01 -0.34 15.22 C-2.18 12.3 -4.2 9.79 -7.34 8.22 C-13.86 7.19 -18.39 7.48 -22.41 13.09 Z " fill="#273037" transform="translate(650.33984375,422.77734375)"/>
<path d="M0 0 C3.53 2.42 5.69 5 6.35 9.29 C6.16 13.63 5.28 15.66 2.5 19.06 C-1.38 21.76 -5.45 21.93 -10 21 C-12.87 19.21 -14.49 18.02 -16 15 C-16.67 10.76 -17.07 6.73 -14.75 2.97 C-10.3 -1.4 -5.82 -2.32 0 0 Z " fill="#A5AEB0" transform="translate(675,669)"/>
<path d="M0 0 C3.31 2.09 4.72 3.48 5.44 7.38 C5.65 11.74 5.43 14.29 3.12 18.06 C-0.43 21.31 -3.07 21.33 -7.74 21.29 C-11.09 20.86 -12.76 19.45 -15 17 C-16.24 13.27 -16.67 9.87 -16 6 C-11.95 -1.05 -7.44 -1.81 0 0 Z " fill="#A6AEB1" transform="translate(360,354)"/>
<path d="M0 0 C3.55 2.71 4.86 4.19 5.62 8.65 C5.64 10.09 5.63 11.53 5.6 12.97 C5.6 13.36 5.6 13.36 5.61 15.38 C5.62 18.05 5.59 20.71 5.57 23.38 C5.57 25.29 5.57 27.2 5.57 29.11 C5.57 34.3 5.54 39.49 5.51 44.68 C5.48 50.11 5.47 55.53 5.47 60.95 C5.45 71.22 5.41 81.49 5.36 91.76 C5.3 103.46 5.28 115.15 5.25 126.84 C5.2 150.9 5.11 174.95 5 199 C4.67 199 4.34 199 4 199 C4 198.58 4 198.58 3.99 196.43 C3.88 175.68 3.77 154.94 3.66 134.19 C3.61 124.16 3.55 114.12 3.5 104.09 C3.46 95.33 3.41 86.58 3.36 77.82 C3.34 73.19 3.31 68.57 3.29 63.94 C3.2 44.27 3.02 24.65 2 5 C-4.62 4 -4.62 4 -8 4 C-8 5.32 -8 6.64 -8 8 C-8.66 8 -9.32 8 -10 8 C-9.65 5.37 -9.28 3.42 -7.81 1.19 C-5.02 -0.64 -3.26 -0.52 0 0 Z " fill="#9C4E4C" transform="translate(602,74)"/>
<path d="M0 0 C0.9 0.02 1.79 0.03 2.71 0.05 C3.61 0.05 4.51 0.06 5.44 0.06 C6.17 0.16 6.9 0.26 7.65 0.36 C7.98 1.02 8.31 1.68 8.65 2.36 C9.27 2.63 9.89 2.9 10.53 3.18 C13.5 4.84 14.32 6.22 15.65 9.36 C16.38 14.12 16.14 17.43 13.9 21.74 C11.27 24.8 9.3 27.04 5.25 27.83 C-1.68 27.92 -1.68 27.92 -5.35 24.86 C-6.01 24.04 -6.67 23.21 -7.35 22.36 C-8.01 22.36 -8.67 22.36 -9.35 22.36 C-9.71 20.78 -10.06 19.2 -10.41 17.61 C-10.61 16.73 -10.8 15.85 -11.01 14.94 C-11.36 12.31 -11.34 10.81 -10.35 8.36 C-8.39 6.65 -6.38 4.98 -4.35 3.36 C-2.35 0.36 -2.35 0.36 0 0 Z M-7.41 8.23 C-9.1 12.08 -8.65 15.44 -7.35 19.36 C-5.53 22.18 -4.34 23.87 -1.35 25.36 C3.91 25.71 7.48 25.94 11.65 22.36 C14.25 18.33 15.45 15.15 14.65 10.36 C12.81 7.44 10.79 4.93 7.65 3.36 C1.13 2.33 -3.4 2.62 -7.41 8.23 Z " fill="#412529" transform="translate(635.34765625,427.63671875)"/>
<path d="M0 0 C2.38 -0.19 2.38 -0.19 5 0 C7.43 3.64 7.16 5.71 7 10 C6.31 10.13 5.63 10.27 4.92 10.4 C4.47 10.49 4.47 10.49 2.19 10.94 C1.29 11.11 0.4 11.29 -0.52 11.46 C-3 12 -3 12 -6 13 C-6 12.01 -6 11.02 -6 10 C-6.66 10 -7.32 10 -8 10 C-6.54 4.42 -6.54 4.42 -4.12 2.56 C-1.68 1.92 -0.35 2.16 2 3 C2 2.34 2 1.68 2 1 C1.34 0.67 0.68 0.34 0 0 Z " fill="#232E34" transform="translate(352,343)"/>
<path d="M0 0 C4.66 2.26 7.74 5.36 10 10 C9.81 12.94 9.81 12.94 9 15 C8.59 14.32 8.17 13.64 7.75 12.94 C7.17 12.3 6.6 11.66 6 11 C3.88 11.06 3.88 11.06 2 12 C1.67 12.99 1.34 13.98 1 15 C-2 15 -2 15 -3.81 13.31 C-5 11 -5 11 -4.38 8.31 C-3 6 -3 6 0 5 C0 3.35 0 1.7 0 0 Z " fill="#2F383E" transform="translate(626,276)"/>
<path d="M0 0 C3.11 1.71 5.39 3.77 7 7 C7.06 12.73 6.32 16.94 2 21 C-1.72 22.24 -5.14 22.54 -9 22 C-12.97 19.67 -14.83 17.45 -16 13 C-16.72 8.83 -16.03 6.49 -13.62 3.12 C-9.69 -1.07 -5.44 -1.29 0 0 Z M-14 6 C-15.2 10.72 -14.65 13.97 -12.06 18.06 C-7.95 20.67 -4.75 21.05 0 20 C3.04 18.01 4.62 16.68 5.44 13.06 C5.67 9.22 5.23 7.36 3.12 4.06 C0.43 1.45 -0.48 1.06 -4.25 0.62 C-9.13 1.11 -10.86 2.25 -14 6 Z " fill="#8E3E3F" transform="translate(643,431)"/>
<path d="M0 0 C2.41 1.24 3.75 2.29 4.66 4.88 C5.07 7.04 5.27 8.81 5 11 C2.81 13.12 2.81 13.12 0 14 C-2.19 13.25 -2.19 13.25 -4 12 C-4.66 11.67 -5.32 11.34 -6 11 C-5.67 9.02 -5.34 7.04 -5 5 C-6.98 5 -8.96 5 -11 5 C-11 4.67 -11 4.34 -11 4 C-10.37 3.88 -9.75 3.76 -9.1 3.63 C-8.28 3.47 -7.47 3.3 -6.62 3.12 C-5.81 2.96 -5 2.8 -4.16 2.63 C-2 2 -2 2 0 0 Z " fill="#2C393F" transform="translate(363,371)"/>
<path d="M0 0 C5 0.48 7.98 2.03 12 5 C11.34 6.65 10.68 8.3 10 10 C9.34 10 8.68 10 8 10 C6.88 12 6.88 12 6 14 C4.02 13.01 2.04 12.02 0 11 C0.19 10.3 0.37 9.6 0.56 8.88 C1.05 5.66 0.66 3.16 0 0 Z " fill="#2D363D" transform="translate(357,343)"/>
<path d="M0 0 C-0.33 1.98 -0.66 3.96 -1 6 C-0.01 6.33 0.98 6.66 2 7 C2.33 7.66 2.66 8.32 3 9 C0.36 10.32 -1.68 10.1 -4.62 10.06 C-5.63 10.05 -6.63 10.04 -7.66 10.04 C-8.43 10.02 -9.21 10.01 -10 10 C-9.69 8.52 -9.38 7.04 -9.06 5.56 C-8.89 4.74 -8.71 3.92 -8.54 3.07 C-7.37 -1.44 -4.08 -0.07 0 0 Z " fill="#212D31" transform="translate(358,376)"/>
<path d="M0 0 C3 3 6 6 9 9 C4.57 14.78 4.57 14.78 1.69 15.88 C1.41 15.9 1.41 15.9 0 16 C0 15.01 0 14.02 0 13 C0.66 13 1.32 13 2 13 C1.69 10.56 1.69 10.56 1 8 C0.01 7.67 -0.98 7.34 -2 7 C-2.33 6.01 -2.66 5.02 -3 4 C-2.34 3.67 -1.68 3.34 -1 3 C-0.67 2.01 -0.34 1.02 0 0 Z " fill="#2B373C" transform="translate(624,753)"/>
<path d="M0 0 C2.17 1.14 2.17 1.14 4 3 C4.45 5.82 4.45 5.82 4.39 9.2 C4.38 10.41 4.36 11.62 4.35 12.86 C4.32 14.12 4.28 15.39 4.25 16.69 C4.23 17.96 4.21 19.24 4.2 20.55 C4.15 23.7 4.08 26.85 4 30 C3.67 30 3.34 30 3 30 C2.67 21.75 2.34 13.5 2 5 C-5 4 -5 4 -8 4 C-8 5.32 -8 6.64 -8 8 C-8.66 8 -9.32 8 -10 8 C-9.65 5.37 -9.28 3.42 -7.81 1.19 C-5.1 -0.59 -3.17 -0.39 0 0 Z " fill="#A74746" transform="translate(602,74)"/>
<path d="M0 0 C0.66 0.33 1.32 0.66 2 1 C1.34 1.66 0.68 2.32 0 3 C-0.2 5.6 -0.2 5.6 -0.12 8.62 C-0.11 9.63 -0.09 10.63 -0.07 11.66 C-0.05 12.43 -0.02 13.21 0 14 C0.66 14 1.32 14 2 14 C2 14.66 2 15.32 2 16 C2.55 15.84 3.11 15.69 3.68 15.53 C4.4 15.33 5.13 15.14 5.88 14.94 C6.23 14.84 6.23 14.84 8.05 14.34 C10 14 10 14 12 15 C12 15.66 12 16.32 12 17 C8.51 18.75 4.81 18.56 1 18 C-2.22 15.97 -3.68 14.59 -4.44 10.8 C-4.65 6.76 -4.54 4.69 -2 1.44 C-1.34 0.96 -0.68 0.49 0 0 Z " fill="#B03634" transform="translate(633,433)"/>
<path d="M0 0 C0 0.66 0 1.32 0 2 C-0.62 1.99 -0.62 1.99 -3.75 1.94 C-6.66 1.93 -9.21 2.07 -12 3 C-11.67 4.32 -11.34 5.64 -11 7 C-11.58 7.19 -12.15 7.37 -12.75 7.56 C-15.2 9.13 -15.78 10.12 -17.12 12.62 C-17.43 13.18 -17.43 13.18 -19 16 C-19.66 16 -20.32 16 -21 16 C-20.84 9.62 -17.35 6.23 -13 2 C-8.55 -1.77 -5.45 -1.02 0 0 Z " fill="#30383C" transform="translate(583,275)"/>
<path d="M0 0 C0.66 0.17 0.66 0.17 4 1 C3.52 1.79 3.03 2.58 2.53 3.39 C0.58 7.99 0.52 11.83 0.49 16.77 C0.47 17.7 0.45 18.62 0.43 19.57 C0.38 22.51 0.35 25.44 0.31 28.38 C0.28 30.37 0.24 32.37 0.21 34.36 C0.12 39.24 0.06 44.12 0 49 C-0.33 49 -0.66 49 -1 49 C-1.02 42.83 -1.04 36.65 -1.05 30.48 C-1.06 28.38 -1.07 26.28 -1.08 24.18 C-1.09 21.16 -1.09 18.13 -1.1 15.11 C-1.1 14.18 -1.11 13.24 -1.11 12.27 C-1.11 8.06 -1.09 4.11 0 0 Z " fill="#2F3639" transform="translate(306,343)"/>
<path d="M0 0 C0.57 0.16 1.15 0.32 1.74 0.49 C3.94 0.99 5.88 1.16 8.13 1.21 C8.53 1.22 8.53 1.22 10.55 1.27 C10.98 1.27 10.98 1.27 13.14 1.32 C14.02 1.34 14.9 1.36 15.81 1.38 C18.63 1.44 21.44 1.5 24.25 1.56 C26.16 1.61 28.07 1.65 29.98 1.69 C34.65 1.8 39.33 1.9 44 2 C44 2.33 44 2.66 44 3 C29.48 3.33 14.96 3.66 0 4 C0 2.68 0 1.36 0 0 Z " fill="#212B30" transform="translate(401,757)"/>
<path d="M0 0 C2.31 0 4.62 0 7 0 C7.38 1.99 7.71 3.99 8 6 C6.25 7.75 3.8 7.09 1.44 7.06 C0.43 7.05 -0.59 7.04 -1.63 7.04 C-2.41 7.02 -3.19 7.01 -4 7 C-3.37 6.71 -2.73 6.43 -2.08 6.13 C0.42 4.77 0.96 3.59 2 1 C1.34 0.67 0.68 0.34 0 0 Z " fill="#1E2B31" transform="translate(638,456)"/>
<path d="M0 0 C0.91 0.02 1.81 0.05 2.75 0.07 C5.65 0.15 8.56 0.23 11.46 0.32 C13.43 0.37 15.39 0.42 17.36 0.47 C22.19 0.6 27.01 0.74 31.84 0.88 C31.84 1.21 31.84 1.54 31.84 1.88 C17.65 2.21 3.46 2.54 -11.16 2.88 C-11.16 2.22 -11.16 1.56 -11.16 0.88 C-7.72 -0.84 -3.78 -0.12 0 0 Z " fill="#1F292D" transform="translate(413.1640625,283.12109375)"/>
<path d="M0 0 C0.78 2.83 1.16 5.51 1.38 8.44 C1.76 12.29 2.65 14.84 5 18 C2.12 17.62 2.12 17.62 -1 16 C-2.79 11.48 -3.7 6.65 -2 2 C-1.34 1.34 -0.68 0.68 0 0 Z " fill="#37272B" transform="translate(627,434)"/>
<path d="M0 0 C0.33 0 0.66 0 1 0 C0.92 0.95 0.84 1.9 0.75 2.88 C1 6 1 6 2.69 7.38 C5.34 8.09 7.26 8.34 10 8 C12.31 6.5 12.31 6.5 14 5 C13.62 7.44 13.62 7.44 13 10 C9.91 11.55 7.41 11.29 4 11 C1.56 9.44 1.56 9.44 0 7 C-0.25 3.25 -0.25 3.25 0 0 Z " fill="#A04445" transform="translate(592,936)"/>
<path d="M0 0 C0.6 0.23 1.2 0.45 1.81 0.69 C0.94 4.56 0.94 4.56 -0.19 5.69 C1.13 6.35 2.45 7.01 3.81 7.69 C0.84 7.69 -2.13 7.69 -5.19 7.69 C-5.42 4.84 -5.55 3.23 -3.94 0.81 C-2.19 -0.31 -2.19 -0.31 0 0 Z " fill="#2A383B" transform="translate(638.1875,456.3125)"/>
<path d="M0 0 C1.98 0.66 3.96 1.32 6 2 C6 2.99 6 3.98 6 5 C5.34 5 4.68 5 4 5 C4 5.66 4 6.32 4 7 C2.02 7.33 0.04 7.66 -2 8 C-1.48 5.24 -0.89 2.67 0 0 Z " fill="#2B363C" transform="translate(645,421)"/>
</svg>
