<?xml version="1.0" encoding="UTF-8"?>
<!-- Generator: visioncortex VTracer 0.6.12 -->
<svg version="1.1" xmlns="http://www.w3.org/2000/svg" width="1024" height="1024" viewBox="0 0 1024 1024">
<path d="M0 0 C337.92 0 675.84 0 1024 0 C1024 337.92 1024 675.84 1024 1024 C686.08 1024 348.16 1024 0 1024 C0 686.08 0 348.16 0 0 Z " fill="#FEFEFE" transform="translate(0,0)"/>
<path d="M0 0 C1.1 -0 2.21 -0 3.34 -0.01 C5.66 -0.01 7.98 -0 10.29 0 C13.83 0.02 17.37 0 20.91 -0.01 C23.17 -0.01 25.43 -0 27.69 0 C28.74 -0 29.79 -0.01 30.88 -0.01 C36.01 0.02 40.28 0.21 45.08 2.27 C45.08 2.93 45.08 3.59 45.08 4.27 C46.03 4.37 46.98 4.47 47.95 4.58 C51.08 5.27 51.08 5.27 53.08 8.27 C52.2 11.95 52.2 11.95 51.08 15.27 C50.09 15.27 49.1 15.27 48.08 15.27 C48.08 14.28 48.08 13.29 48.08 12.27 C45.11 12.93 42.14 13.59 39.08 14.27 C39.51 15.5 39.94 16.74 40.39 18.02 C40.94 20.21 40.94 20.21 41.08 22.27 C39.14 24.83 39.14 24.83 36.08 26.27 C31.45 26.44 29.01 25.45 25.7 22.39 C21.27 18.3 16.76 16.28 10.67 16.25 C0.81 17.55 -6.57 24.04 -12.36 31.77 C-13.58 33.58 -14.77 35.41 -15.92 37.27 C-16.33 37.92 -16.74 38.58 -17.16 39.25 C-22.15 48.25 -24.52 59.05 -24.92 69.27 C-24.97 70.07 -25.02 70.87 -25.08 71.69 C-25.79 91.28 -18.73 108.06 -10 125.15 C-6.46 132.1 -3.18 139.17 0.08 146.27 C0.58 147.34 1.07 148.41 1.59 149.51 C3.94 154.82 5.54 159.93 6.71 165.63 C6.97 166.88 7.23 168.12 7.5 169.41 C7.69 170.35 7.88 171.29 8.08 172.27 C8.97 172.26 9.87 172.26 10.79 172.25 C14.19 172.23 17.59 172.22 20.98 172.21 C22.44 172.21 23.89 172.2 25.35 172.19 C32.85 172.15 40.34 172.19 47.83 172.56 C48.92 172.61 50.01 172.66 51.14 172.72 C55.97 173.62 59.16 176.41 62.08 180.27 C63.14 183.46 63.21 185.76 63.23 189.12 C63.23 189.73 63.23 189.73 63.25 192.83 C63.25 194.18 63.25 195.54 63.26 196.9 C63.26 198.32 63.27 199.75 63.28 201.18 C63.3 205.87 63.31 210.56 63.32 215.25 C63.32 216.87 63.32 218.48 63.33 220.1 C63.35 227.69 63.36 235.28 63.37 242.87 C63.38 251.62 63.41 260.38 63.45 269.14 C63.48 275.91 63.49 282.68 63.5 289.45 C63.5 293.49 63.51 297.54 63.53 301.58 C63.55 305.38 63.56 309.19 63.55 312.99 C63.55 314.39 63.55 315.78 63.57 317.17 C63.65 326.36 63.33 332.02 56.64 338.7 C52.78 340.4 50.52 340.43 46.36 340.36 C45.18 340.35 44.01 340.34 42.8 340.32 C41.9 340.3 41 340.28 40.08 340.27 C39.98 345.78 39.91 351.3 39.86 356.82 C39.84 358.7 39.81 360.57 39.78 362.45 C39.73 365.15 39.71 367.84 39.69 370.54 C39.67 371.38 39.65 372.22 39.62 373.09 C39.62 375.46 39.62 375.46 40.08 379.27 C42.01 380.72 42.01 380.72 44.08 381.27 C49.12 386.27 50.25 389.99 50.32 396.91 C50.32 397.67 50.33 398.43 50.34 399.21 C50.35 400.82 50.37 402.43 50.37 404.04 C50.39 406.49 50.43 408.94 50.48 411.39 C50.49 412.96 50.5 414.53 50.5 416.09 C50.52 416.82 50.54 417.55 50.56 418.3 C50.54 423.43 49.45 426.41 46.08 430.27 C44.43 430.93 42.78 431.59 41.08 432.27 C41.08 439.53 41.08 446.79 41.08 454.27 C43.1 454.24 45.11 454.22 47.19 454.2 C53.88 454.14 60.57 454.09 67.26 454.06 C71.32 454.04 75.37 454.01 79.42 453.96 C83.34 453.92 87.25 453.9 91.17 453.89 C92.66 453.88 94.15 453.86 95.64 453.84 C111.45 453.62 111.45 453.62 117.08 458.27 C123.15 464.94 123.95 470.93 123.85 479.71 C123.86 480.32 123.86 480.32 123.89 483.4 C123.91 486.71 123.9 490.01 123.88 493.32 C123.87 496.8 123.88 500.28 123.89 503.76 C123.9 509.6 123.89 515.44 123.86 521.28 C123.83 528.02 123.84 534.75 123.87 541.48 C123.9 547.28 123.9 553.09 123.89 558.89 C123.88 562.34 123.88 565.8 123.9 569.25 C123.92 573.11 123.89 576.96 123.85 580.82 C123.86 581.39 123.86 581.39 123.89 584.25 C123.77 591.74 122.16 596.66 117.08 602.27 C110.25 607.96 100.98 606.88 92.57 606.87 C90.97 606.87 89.36 606.88 87.75 606.89 C84.39 606.91 81.03 606.91 77.67 606.9 C73.38 606.89 69.09 606.92 64.79 606.97 C61.47 607 58.16 607 54.84 606.99 C53.26 606.99 51.68 607 50.09 607.02 C35.19 607.19 35.19 607.19 30.23 601.85 C27.08 597.52 27.08 597.52 27.08 594.27 C9.53 593.57 9.53 593.57 4.06 597.35 C1.89 599.95 1.89 599.95 -0.07 602.69 C-5.19 609.81 -13.47 613.08 -21.92 614.27 C-38.37 615.54 -52.43 612.25 -67.92 607.02 C-68.99 606.66 -70.06 606.3 -71.16 605.93 C-79.98 602.85 -79.98 602.85 -83.74 600.52 C-95.21 593.47 -107.02 594.28 -120.13 594.36 C-122.56 594.35 -124.98 594.34 -127.4 594.33 C-133.74 594.29 -140.08 594.3 -146.41 594.32 C-152.89 594.33 -159.38 594.3 -165.86 594.28 C-178.55 594.24 -191.23 594.24 -203.92 594.27 C-204.2 595.04 -204.48 595.8 -204.77 596.6 C-206.76 601.22 -210.25 604.46 -214.92 606.27 C-218.02 606.53 -218.02 606.53 -221.71 606.56 C-222.04 606.56 -222.04 606.56 -223.75 606.58 C-225.97 606.6 -228.19 606.6 -230.41 606.6 C-231.96 606.61 -233.51 606.61 -235.06 606.62 C-238.31 606.63 -241.55 606.64 -244.8 606.64 C-248.95 606.64 -253.1 606.66 -257.26 606.7 C-260.46 606.72 -263.66 606.72 -266.86 606.72 C-268.39 606.73 -269.92 606.73 -271.45 606.75 C-273.59 606.77 -275.73 606.76 -277.88 606.75 C-278.49 606.75 -278.49 606.75 -281.57 606.76 C-287.76 605.85 -291.4 602.22 -294.92 597.27 C-296.19 594.74 -296.06 592.97 -296.08 590.14 C-296.08 589.05 -296.09 587.96 -296.1 586.84 C-296.11 585.65 -296.11 584.45 -296.11 583.22 C-296.12 581.96 -296.13 580.7 -296.14 579.41 C-296.17 575.23 -296.18 571.05 -296.2 566.88 C-296.2 565.44 -296.21 564 -296.21 562.56 C-296.23 556.58 -296.25 550.6 -296.26 544.61 C-296.28 536.04 -296.31 527.47 -296.37 518.9 C-296.41 512.87 -296.43 506.85 -296.43 500.82 C-296.44 497.22 -296.45 493.62 -296.48 490.02 C-296.52 486 -296.51 481.98 -296.51 477.96 C-296.52 476.77 -296.54 475.59 -296.56 474.36 C-296.5 467.28 -295.78 463.52 -290.92 458.27 C-284.44 452.81 -276.84 453.75 -268.8 453.88 C-267.33 453.88 -265.86 453.89 -264.39 453.89 C-260.54 453.91 -256.69 453.95 -252.85 453.99 C-248.91 454.03 -244.98 454.05 -241.04 454.07 C-233.33 454.11 -225.63 454.18 -217.92 454.27 C-217.93 453.4 -217.94 452.54 -217.95 451.66 C-218.03 443.52 -218.09 435.38 -218.13 427.25 C-218.15 423.07 -218.18 418.88 -218.22 414.7 C-218.27 410.66 -218.29 406.62 -218.3 402.58 C-218.31 401.04 -218.32 399.51 -218.34 397.97 C-218.55 382.85 -218.55 382.85 -213.92 377.27 C-211.17 375.83 -211.17 375.83 -208.92 375.27 C-208.97 374.55 -209.01 373.84 -209.06 373.11 C-209.37 364.95 -208.29 360.91 -202.67 354.83 C-198.85 352.66 -196.27 352.97 -191.92 353.27 C-191.75 349.75 -191.88 346.64 -192.92 343.27 C-195.02 341.32 -197.06 340.11 -199.6 338.81 C-203.07 336.5 -205.48 333.53 -206.3 329.34 C-206.45 327.15 -206.48 324.99 -206.45 322.8 C-206.46 322.4 -206.46 322.4 -206.46 320.38 C-206.47 318.7 -206.46 317.02 -206.44 315.33 C-206.42 312.77 -206.44 310.21 -206.47 307.65 C-206.47 306.01 -206.46 304.37 -206.45 302.73 C-206.46 301.97 -206.47 301.22 -206.48 300.43 C-206.39 295.29 -205.44 292.25 -201.92 288.27 C-195.45 282.91 -188.11 283.65 -180.05 283.66 C-178.59 283.66 -177.14 283.65 -175.69 283.64 C-172.65 283.62 -169.62 283.62 -166.58 283.63 C-162.7 283.65 -158.83 283.61 -154.95 283.57 C-151.95 283.54 -148.96 283.53 -145.96 283.54 C-144.53 283.54 -143.1 283.53 -141.67 283.51 C-128.25 283.34 -128.25 283.34 -123.03 288.69 C-120.19 292.73 -120.72 297.41 -120.68 302.13 C-120.68 302.57 -120.68 302.57 -120.66 304.77 C-120.65 306.62 -120.63 308.46 -120.63 310.31 C-120.61 313.12 -120.57 315.94 -120.52 318.75 C-120.51 320.55 -120.5 322.34 -120.5 324.13 C-120.49 324.55 -120.49 324.55 -120.44 326.68 C-120.46 331.83 -121.03 334.54 -124.92 338.27 C-130.33 342.27 -130.33 342.27 -132.92 342.27 C-132.92 345.9 -132.92 349.53 -132.92 353.27 C-103.88 353.27 -74.84 353.27 -44.92 353.27 C-44.92 348.65 -44.92 344.03 -44.92 339.27 C-46.94 339.35 -48.96 339.43 -51.05 339.52 C-56.54 339.51 -59.83 339.25 -63.92 335.27 C-66.69 331.42 -67.3 328.78 -67.3 324.08 C-67.31 322.83 -67.32 321.59 -67.33 320.31 C-67.32 318.93 -67.32 317.56 -67.31 316.19 C-67.31 314.74 -67.32 313.29 -67.33 311.84 C-67.34 307.91 -67.33 303.97 -67.32 300.04 C-67.32 295.92 -67.32 291.8 -67.33 287.68 C-67.33 280.76 -67.33 273.85 -67.31 266.93 C-67.3 258.94 -67.3 250.94 -67.32 242.95 C-67.33 236.08 -67.33 229.22 -67.33 222.35 C-67.32 218.25 -67.32 214.15 -67.33 210.05 C-67.34 206.2 -67.33 202.34 -67.32 198.49 C-67.31 197.07 -67.31 195.66 -67.32 194.25 C-67.33 192.31 -67.32 190.38 -67.3 188.45 C-67.3 187.37 -67.3 186.29 -67.3 185.18 C-66.56 179.5 -63.48 176.45 -58.92 173.27 C-55.92 172.27 -53.95 172.15 -50.82 172.17 C-49.83 172.17 -48.85 172.17 -47.84 172.18 C-46.81 172.19 -45.79 172.19 -44.73 172.2 C-44.22 172.21 -44.22 172.21 -41.6 172.22 C-39.04 172.23 -36.48 172.25 -33.92 172.27 C-34.2 171.62 -34.48 170.98 -34.76 170.32 C-36.9 165.22 -38.18 160.76 -38.92 155.27 C-39.93 152.63 -40.98 150.13 -42.17 147.58 C-42.34 147.2 -42.34 147.2 -43.2 145.3 C-45.5 140.28 -47.85 135.28 -50.2 130.29 C-51.07 128.43 -51.94 126.58 -52.81 124.73 C-53.65 122.94 -54.5 121.15 -55.35 119.36 C-64.35 100.24 -71.38 76.53 -65.92 55.27 C-65.26 55.27 -64.6 55.27 -63.92 55.27 C-63.75 54.58 -63.58 53.89 -63.41 53.18 C-59.95 39.77 -59.95 39.77 -56.92 35.27 C-55.93 35.27 -54.94 35.27 -53.92 35.27 C-53.82 33.97 -53.72 32.67 -53.61 31.33 C-53.43 29.11 -53.43 29.11 -52.92 27.27 C-51.93 26.94 -50.94 26.61 -49.92 26.27 C-49.92 25.61 -49.92 24.95 -49.92 24.27 C-48.55 22.64 -48.55 22.64 -46.92 21.27 C-46.26 21.27 -45.6 21.27 -44.92 21.27 C-44.92 20.28 -44.92 19.29 -44.92 18.27 C-43.23 16.02 -43.23 16.02 -40.92 14.27 C-38.23 14.27 -38.23 14.27 -35.92 15.27 C-35.11 17.02 -35.11 17.02 -34.92 19.27 C-34.82 20.09 -34.72 20.92 -34.61 21.77 C-35.02 25.08 -36.5 26.07 -38.92 28.27 C-38.92 28.93 -38.92 29.59 -38.92 30.27 C-40.24 30.27 -41.56 30.27 -42.92 30.27 C-42.84 31.01 -42.76 31.75 -42.67 32.52 C-42.92 35.27 -42.92 35.27 -44.8 37.05 C-47.36 39.72 -48.06 41.93 -49.11 45.45 C-50.85 51.2 -50.85 51.2 -51.92 52.27 C-52.08 55 -52.18 57.72 -52.24 60.46 C-52.25 60.87 -52.25 60.87 -52.3 62.94 C-52.37 65.57 -52.43 68.2 -52.48 70.83 C-52.53 72.61 -52.57 74.38 -52.62 76.16 C-52.72 80.53 -52.82 84.9 -52.92 89.27 C-52.26 89.27 -51.6 89.27 -50.92 89.27 C-50.57 90.46 -50.22 91.66 -49.86 92.89 C-48.26 97.71 -46.07 102.11 -43.75 106.61 C-41.11 111.8 -38.77 117.09 -36.48 122.44 C-34.73 126.51 -32.84 130.46 -30.8 134.39 C-24.91 145.98 -19.92 159.18 -19.92 172.27 C-15.63 172.27 -11.34 172.27 -6.92 172.27 C-12.39 157.86 -18.39 143.98 -25.43 130.27 C-29.28 122.73 -32.33 115.33 -34.92 107.27 C-35.49 105.92 -36.07 104.59 -36.67 103.27 C-38.83 98.08 -39.05 93.04 -39.05 87.47 C-39.06 86.18 -39.06 84.89 -39.06 83.56 C-39.06 82.9 -39.05 82.23 -39.05 81.54 C-39.05 79.54 -39.05 77.53 -39.06 75.52 C-39.05 68.37 -38.84 61.36 -37.92 54.27 C-37.26 54.27 -36.6 54.27 -35.92 54.27 C-35.8 53.52 -35.67 52.78 -35.55 52.02 C-34.92 49.27 -34.92 49.27 -33.94 47.36 C-32.89 45.2 -32.46 43.37 -32.05 41.02 C-30.52 33.8 -27.7 28.03 -21.92 23.27 C-21.18 23.14 -20.44 23.02 -19.67 22.89 C-19.09 22.68 -18.52 22.48 -17.92 22.27 C-17.17 18.7 -17.17 18.7 -16.92 15.27 C-18.9 14.61 -20.88 13.95 -22.92 13.27 C-22.59 11.95 -22.26 10.63 -21.92 9.27 C-22.58 9.27 -23.24 9.27 -23.92 9.27 C-24.61 6.89 -24.61 6.89 -24.92 4.27 C-17.71 -0.54 -8.38 -0.03 0 0 Z " fill="#232E35" transform="translate(603.921875,182.734375)"/>
<path d="M0 0 C3.45 0.02 6.89 0 10.34 -0.03 C12.57 -0.02 14.79 -0.02 17.02 -0.01 C17.52 -0.01 17.52 -0.01 20.09 -0.03 C30.45 0.1 39.58 3.13 48.2 8.83 C48.79 9.22 49.38 9.61 49.98 10.01 C53.93 12.68 57.38 15.56 60.56 19.11 C61.89 20.52 61.89 20.52 64.89 22.52 C65.22 23.51 65.55 24.5 65.89 25.52 C66.49 26.04 67.09 26.55 67.7 27.08 C70.38 30.07 71.42 32.94 72.81 36.67 C74.31 40.64 76.03 44.49 77.74 48.37 C80.75 56.64 81.15 64.32 81.01 73.08 C81 74.19 81 75.29 80.99 76.43 C80.96 79.13 80.93 81.82 80.89 84.52 C80.23 84.52 79.57 84.52 78.89 84.52 C78.94 85.49 79 86.45 79.06 87.45 C79.05 92.16 77.68 96.27 76.2 100.71 C75.92 101.55 75.65 102.4 75.36 103.27 C69.35 121.33 59.99 137.37 50.33 153.69 C47.96 157.7 45.6 161.71 43.33 165.77 C42.87 166.58 42.42 167.39 41.95 168.22 C40.89 170.52 40.89 170.52 39.89 175.52 C26.69 175.52 13.49 175.52 -0.11 175.52 C-1.34 171.83 -2.4 168.44 -3.3 164.71 C-6.68 152.3 -12.3 140.91 -18.4 129.64 C-22.58 121.83 -25.91 113.77 -29.11 105.52 C-29.47 104.72 -29.83 103.91 -30.2 103.08 C-37.01 83.98 -35.5 60.74 -27.11 42.52 C-25.01 38.97 -22.68 35.74 -20.11 32.52 C-19.35 31.47 -18.58 30.42 -17.8 29.33 C-11.65 22.9 -4.36 17.35 4.89 17.52 C9.96 18.69 14.18 20.67 18.01 24.21 C21.86 27.3 23.99 27.52 28.89 27.52 C31.01 26.58 31.01 26.58 31.89 24.52 C31.5 21.71 30.74 19.25 29.89 16.52 C33.51 15.21 35.98 14.52 39.89 14.52 C39.89 15.51 39.89 16.5 39.89 17.52 C40.88 17.19 41.87 16.86 42.89 16.52 C43.58 12.96 43.58 12.96 43.89 9.52 C42.73 9.07 41.58 8.61 40.39 8.15 C39.23 7.61 38.08 7.07 36.89 6.52 C36.89 5.86 36.89 5.2 36.89 4.52 C36.08 4.54 35.28 4.56 34.45 4.58 C31.89 4.52 31.89 4.52 30.89 3.52 C29.35 3.42 27.8 3.38 26.25 3.38 C25.26 3.37 24.28 3.36 23.26 3.36 C22.18 3.36 21.1 3.35 19.99 3.35 C18.88 3.35 17.77 3.35 16.63 3.34 C14.28 3.34 11.93 3.34 9.57 3.34 C6 3.33 2.42 3.32 -1.15 3.3 C-3.44 3.29 -5.73 3.29 -8.01 3.29 C-8.54 3.29 -8.54 3.29 -11.23 3.27 C-18.82 3.29 -25.89 4.11 -33.11 6.52 C-32.95 7.35 -32.95 7.35 -32.11 11.52 C-31.45 11.52 -30.79 11.52 -30.11 11.52 C-30.11 12.84 -30.11 14.16 -30.11 15.52 C-28.13 16.18 -26.15 16.84 -24.11 17.52 C-24.69 19.91 -25.33 22.19 -26.11 24.52 C-27.1 24.85 -28.09 25.18 -29.11 25.52 C-30.47 27.17 -31.8 28.83 -33.11 30.52 C-33.44 30.69 -33.44 30.69 -35.11 31.52 C-37.04 35.38 -38.26 38.93 -39.11 43.15 C-39.85 46.81 -41.05 49.38 -43.11 52.52 C-43.8 54.83 -43.8 54.83 -44.11 56.52 C-44.77 56.52 -45.43 56.52 -46.11 56.52 C-46.16 62.07 -46.2 67.62 -46.22 73.17 C-46.23 75.06 -46.24 76.94 -46.26 78.83 C-46.29 81.55 -46.3 84.27 -46.31 86.99 C-46.32 87.82 -46.33 88.66 -46.34 89.52 C-46.34 94.86 -45.6 99.38 -44.11 104.52 C-43.84 105.47 -43.57 106.42 -43.29 107.4 C-39.85 118.07 -34.86 127.95 -29.94 137.99 C-29.38 139.16 -28.81 140.32 -28.22 141.52 C-27.09 143.84 -25.96 146.15 -24.82 148.45 C-15.11 168.35 -15.11 168.35 -15.11 174.52 C-19.4 174.52 -23.69 174.52 -28.11 174.52 C-28.38 173.24 -28.65 171.95 -28.92 170.63 C-32.46 154.39 -37.84 139.4 -45.54 124.66 C-47.96 119.83 -50.08 114.88 -52.22 109.93 C-53.76 106.38 -55.37 102.99 -57.34 99.66 C-59.11 96.52 -59.54 95.04 -59.11 91.52 C-59.77 91.52 -60.43 91.52 -61.11 91.52 C-61.16 86.31 -61.2 81.09 -61.22 75.88 C-61.23 74.1 -61.24 72.33 -61.26 70.56 C-61.29 68.01 -61.3 65.46 -61.31 62.91 C-61.32 62.11 -61.33 61.32 -61.34 60.5 C-61.34 56.64 -61.31 54.81 -59.11 51.52 C-58.32 48.93 -57.66 46.33 -56.99 43.7 C-56.7 42.98 -56.41 42.26 -56.11 41.52 C-55.62 41.36 -55.62 41.36 -53.11 40.52 C-53.15 39.57 -53.19 38.62 -53.24 37.65 C-53.11 34.52 -53.11 34.52 -51.11 32.52 C-49.79 32.52 -48.47 32.52 -47.11 32.52 C-47.44 31.53 -47.77 30.54 -48.11 29.52 C-47.45 29.52 -46.79 29.52 -46.11 29.52 C-45.78 28.53 -45.45 27.54 -45.11 26.52 C-44.45 26.52 -43.79 26.52 -43.11 26.52 C-43.38 21.06 -43.38 21.06 -44.11 18.52 C-46.67 17.02 -46.67 17.02 -49.11 16.52 C-49.26 16.85 -49.26 16.85 -49.99 18.52 C-50.36 19.18 -50.73 19.84 -51.11 20.52 C-51.77 20.52 -52.43 20.52 -53.11 20.52 C-53.11 21.51 -53.11 22.5 -53.11 23.52 C-53.77 23.52 -54.43 23.52 -55.11 23.52 C-55.44 24.51 -55.77 25.5 -56.11 26.52 C-56.77 26.52 -57.43 26.52 -58.11 26.52 C-58.11 27.18 -58.11 27.84 -58.11 28.52 C-58.77 28.85 -59.43 29.18 -60.11 29.52 C-60.74 31.37 -60.74 31.37 -61.24 33.58 C-61.4 34.32 -61.57 35.05 -61.74 35.81 C-61.87 36.37 -61.99 36.94 -62.11 37.52 C-63.1 37.52 -64.09 37.52 -65.11 37.52 C-65.29 38.07 -65.47 38.61 -65.66 39.17 C-66.19 40.76 -66.72 42.34 -67.25 43.93 C-67.82 45.63 -68.37 47.34 -68.91 49.05 C-69.16 49.85 -69.41 50.64 -69.67 51.46 C-69.9 52.19 -70.13 52.92 -70.36 53.67 C-71.11 55.52 -71.11 55.52 -73.11 57.52 C-73.11 40.45 -62.07 25.94 -50.17 14.71 C-34.73 1.41 -19.69 -0.15 0 0 Z " fill="#AC3538" transform="translate(612.111083984375,180.478515625)"/>
<path d="M0 0 C0.01 1.14 0.02 2.28 0.02 3.46 C0.1 14.22 0.19 24.97 0.29 35.73 C0.34 41.26 0.38 46.79 0.42 52.32 C0.46 57.65 0.51 62.99 0.56 68.32 C0.58 70.36 0.59 72.4 0.6 74.43 C0.62 77.28 0.65 80.14 0.68 82.99 C0.68 83.83 0.69 84.67 0.69 85.54 C0.75 89.83 1.07 93.08 3 97 C3.33 97.99 3.66 98.98 4 100 C5.75 101.06 5.75 101.06 8 102 C8.35 102.17 8.35 102.17 10.11 103.04 C13.91 104.3 17.55 104.32 21.52 104.34 C22.34 104.34 23.15 104.35 24 104.36 C25.72 104.37 27.45 104.37 29.17 104.37 C31.79 104.37 34.41 104.41 37.03 104.45 C38.72 104.46 40.4 104.46 42.08 104.46 C42.86 104.48 43.63 104.49 44.43 104.5 C49.99 104.46 54.38 103.18 59 100 C59.33 99.34 59.66 98.68 60 98 C60.66 98 61.32 98 62 98 C62.82 94.38 63.15 91 63.21 87.29 C63.23 86.17 63.25 85.05 63.27 83.9 C63.28 82.7 63.3 81.5 63.32 80.26 C63.33 79.64 63.33 79.64 63.38 76.52 C63.43 73.24 63.48 69.97 63.53 66.7 C63.58 63.35 63.64 60.01 63.69 56.66 C63.8 50.11 63.9 43.55 64 37 C67.63 36.67 71.26 36.34 75 36 C75 67.68 75 99.36 75 132 C70.88 132.16 70.88 132.16 50 133 C45.06 137.73 42.64 140.11 39.29 145.38 C34.89 150.92 27.32 152.53 20.61 153.26 C-0.64 154.21 -24.21 142.87 -42.34 132.96 C-45.51 131.24 -48.74 129.67 -52 128.12 C-59.45 124.43 -66.21 119.77 -73 115 C-73.35 114.75 -73.35 114.75 -75.13 113.51 C-77.24 112.01 -79.34 110.51 -81.44 109 C-82.09 108.53 -82.75 108.06 -83.43 107.58 C-84.99 106.44 -86.5 105.22 -88 104 C-88 103.34 -88 102.68 -88 102 C-88.76 101.73 -89.53 101.46 -90.31 101.19 C-92.89 100.05 -94.27 99.19 -96 97 C-96 96.34 -96 95.68 -96 95 C-96.65 94.81 -97.3 94.61 -97.97 94.41 C-100 93 -100 93 -100.49 89.31 C-100.5 87.69 -100.49 86.06 -100.47 84.44 C-100.47 83.55 -100.47 82.66 -100.48 81.75 C-100.48 78.81 -100.45 75.87 -100.43 72.93 C-100.42 70.9 -100.42 68.86 -100.42 66.83 C-100.41 62.56 -100.39 58.29 -100.36 54.02 C-100.32 48.54 -100.3 43.06 -100.29 37.57 C-100.28 32.36 -100.26 27.15 -100.24 21.93 C-100.23 20.93 -100.23 19.93 -100.23 18.9 C-100.22 16.08 -100.2 13.26 -100.18 10.44 C-100.17 9.59 -100.17 8.75 -100.17 7.88 C-100.11 2.11 -100.11 2.11 -99 1 C-96.21 0.87 -93.45 0.81 -90.66 0.79 C-90.22 0.79 -90.22 0.79 -88.01 0.76 C-85.1 0.73 -82.19 0.71 -79.28 0.68 C-77.26 0.66 -75.24 0.64 -73.22 0.62 C-67.88 0.57 -62.55 0.52 -57.21 0.47 C-51.81 0.42 -46.41 0.36 -41 0.31 C-33.08 0.23 -25.16 0.15 -17.25 0.08 C-16.43 0.07 -15.6 0.06 -14.76 0.05 C-9.84 0.01 -4.92 -0.01 0 0 Z " fill="#596469" transform="translate(555,632)"/>
<path d="M0 0 C0.43 -0 0.43 -0 2.6 -0.02 C3.08 -0.02 3.08 -0.02 5.47 -0 C5.97 -0.01 5.97 -0.01 8.48 -0.02 C11.78 -0.02 15.07 -0.02 18.37 -0.01 C20.65 -0.01 22.93 -0.01 25.21 -0.02 C30 -0.02 34.78 -0.02 39.57 -0.01 C45.72 0 51.87 -0 58.02 -0.01 C62.73 -0.02 67.44 -0.02 72.15 -0.01 C74.42 -0.01 76.69 -0.01 78.96 -0.02 C82.12 -0.02 85.29 -0.02 88.45 -0 C89.4 -0.01 90.34 -0.01 91.32 -0.02 C93.51 -0 95.7 0.11 97.89 0.25 C99.21 2.88 99.02 4.82 99.02 7.76 C99.02 8.35 99.02 8.35 99.03 11.31 C99.03 11.96 99.03 11.96 99.02 15.22 C99.02 16.59 99.03 17.96 99.03 19.33 C99.03 23.05 99.03 26.77 99.03 30.49 C99.03 34.38 99.03 38.27 99.03 42.15 C99.03 48.68 99.03 55.21 99.02 61.74 C99.02 69.29 99.02 76.85 99.03 84.41 C99.03 90.89 99.03 97.37 99.03 103.85 C99.03 107.72 99.03 111.59 99.03 115.47 C99.03 119.11 99.03 122.75 99.03 126.39 C99.02 128.37 99.03 130.35 99.03 132.33 C99.03 133.5 99.02 134.67 99.02 135.87 C99.02 136.38 99.02 136.38 99.02 138.97 C98.89 141.25 98.89 141.25 97.89 142.25 C94.73 142.35 91.59 142.39 88.43 142.38 C87.44 142.39 86.45 142.39 85.42 142.39 C82.12 142.39 78.82 142.39 75.52 142.39 C73.24 142.39 70.95 142.39 68.67 142.39 C63.88 142.39 59.09 142.39 54.29 142.38 C48.14 142.38 41.98 142.38 35.82 142.39 C31.11 142.39 26.39 142.39 21.67 142.39 C19.4 142.39 17.13 142.39 14.86 142.39 C11.69 142.39 8.52 142.39 5.35 142.38 C4.41 142.39 3.46 142.39 2.48 142.39 C-3.99 142.37 -3.99 142.37 -5.11 141.25 C-5.22 139.46 -5.26 137.67 -5.28 135.87 C-5.29 134.7 -5.3 133.53 -5.32 132.33 C-5.33 131.04 -5.33 129.74 -5.34 128.41 C-5.36 127.05 -5.37 125.68 -5.38 124.31 C-5.42 120.59 -5.45 116.87 -5.48 113.15 C-5.49 110.83 -5.51 108.51 -5.53 106.18 C-5.6 98.09 -5.66 90 -5.72 81.9 C-5.77 74.34 -5.84 66.79 -5.91 59.23 C-5.97 52.75 -6.02 46.28 -6.07 39.8 C-6.09 35.92 -6.12 32.05 -6.16 28.18 C-6.2 24.54 -6.23 20.89 -6.24 17.25 C-6.26 15.27 -6.28 13.29 -6.3 11.31 C-6.31 10.14 -6.31 8.97 -6.32 7.76 C-6.32 6.74 -6.33 5.72 -6.34 4.67 C-5.92 0.36 -3.83 0 0 0 Z " fill="#384248" transform="translate(555.1060943603516,367.74603271484375)"/>
<path d="M0 0 C0.83 -0 1.67 -0 2.53 -0.01 C5.34 -0.01 8.15 -0.01 10.96 -0.01 C12.97 -0.01 14.98 -0.02 16.98 -0.02 C22.45 -0.03 27.92 -0.03 33.38 -0.03 C37.94 -0.03 42.5 -0.04 47.05 -0.04 C57.79 -0.05 68.53 -0.05 79.28 -0.05 C90.38 -0.05 101.48 -0.06 112.58 -0.08 C122.1 -0.09 131.61 -0.1 141.13 -0.1 C146.82 -0.09 152.51 -0.1 158.2 -0.11 C163.54 -0.12 168.89 -0.12 174.24 -0.11 C176.21 -0.11 178.18 -0.11 180.14 -0.12 C182.82 -0.13 185.49 -0.12 188.17 -0.11 C188.96 -0.12 189.75 -0.12 190.56 -0.13 C192.38 -0.12 194.2 -0 196.02 0.13 C203.48 15.04 197.02 33.46 197.02 50.13 C128.71 50.13 60.4 50.13 -9.98 50.13 C-9.98 33.96 -9.98 17.79 -9.98 1.13 C-6.83 -0.44 -3.46 -0.01 0 0 Z " fill="#586368" transform="translate(409.97840881347656,569.8662872314453)"/>
<path d="M0 0 C1.31 -0.01 2.63 -0.01 3.98 -0.02 C5.43 -0.02 6.87 -0.01 8.31 -0.01 C9.78 -0.01 11.25 -0.01 12.72 -0.01 C15.81 -0.02 18.9 -0.01 21.99 -0 C25.95 0.01 29.91 0 33.87 -0.01 C36.91 -0.02 39.95 -0.01 42.99 -0.01 C44.45 -0.01 45.91 -0.01 47.37 -0.01 C49.41 -0.02 51.45 -0.01 53.49 0 C54.07 0 54.07 0 57.01 0 C59.75 0.26 59.75 0.26 61.75 2.26 C62 4.39 62 4.39 62.01 7.08 C62.02 8.1 62.03 9.12 62.04 10.16 C62.04 11.29 62.04 12.41 62.04 13.56 C62.04 14.74 62.05 15.92 62.06 17.13 C62.07 20.36 62.08 23.6 62.08 26.83 C62.08 29.53 62.09 32.22 62.1 34.92 C62.11 41.28 62.12 47.64 62.12 54 C62.12 60.56 62.14 67.13 62.17 73.7 C62.19 79.33 62.21 84.97 62.2 90.6 C62.2 93.97 62.21 97.33 62.23 100.7 C62.25 104.45 62.24 108.2 62.23 111.96 C62.24 113.08 62.25 114.2 62.27 115.35 C62.26 116.37 62.25 117.39 62.24 118.44 C62.24 119.33 62.24 120.21 62.24 121.13 C61.75 123.26 61.75 123.26 59.89 124.54 C57.1 125.47 54.71 125.51 51.77 125.52 C50.57 125.52 49.36 125.53 48.12 125.54 C46.82 125.53 45.52 125.53 44.19 125.52 C42.84 125.53 41.49 125.53 40.14 125.53 C37.31 125.53 34.48 125.53 31.66 125.52 C28.04 125.51 24.43 125.51 20.81 125.53 C18.02 125.53 15.24 125.53 12.45 125.53 C10.47 125.52 8.49 125.53 6.51 125.54 C5.91 125.53 5.91 125.53 2.85 125.52 C1.79 125.52 0.73 125.51 -0.36 125.51 C-3.37 125.25 -5.5 124.43 -8.25 123.26 C-8.3 107.52 -8.34 91.78 -8.36 76.03 C-8.37 68.72 -8.38 61.42 -8.4 54.11 C-8.42 47.74 -8.44 41.37 -8.44 35 C-8.44 31.63 -8.45 28.25 -8.47 24.88 C-8.48 21.12 -8.48 17.36 -8.48 13.59 C-8.49 12.47 -8.5 11.34 -8.5 10.19 C-8.5 9.17 -8.5 8.14 -8.49 7.09 C-8.5 6.2 -8.5 5.31 -8.5 4.39 C-7.92 -0.68 -4.18 0.01 0 0 Z " fill="#596369" transform="translate(651.25390625,650.7412109375)"/>
<path d="M0 0 C0.65 0 0.65 0 3.94 0 C5.33 0.01 6.72 0.01 8.11 0.02 C9.37 0.02 10.62 0.02 11.92 0.02 C16.64 0.02 21.36 0.04 26.07 0.05 C31.34 0.06 31.34 0.06 58.01 0.11 C58.01 41.03 58.01 81.95 58.01 124.11 C54.84 125.17 52.55 125.25 49.21 125.27 C48.02 125.28 46.83 125.29 45.6 125.3 C44.31 125.31 43.03 125.31 41.7 125.32 C40.37 125.32 39.03 125.33 37.7 125.33 C34.9 125.34 32.11 125.35 29.32 125.35 C25.73 125.36 22.15 125.38 18.57 125.41 C15.82 125.43 13.06 125.44 10.31 125.44 C8.35 125.44 6.38 125.46 4.42 125.48 C3.23 125.48 2.04 125.47 0.81 125.47 C-0.24 125.47 -1.29 125.48 -2.37 125.48 C-5.46 125.05 -6.13 124.56 -7.99 122.11 C-8.34 119.86 -8.34 119.86 -8.32 117.17 C-8.32 116.15 -8.31 115.12 -8.31 114.07 C-8.29 112.95 -8.27 111.83 -8.25 110.68 C-8.25 109.5 -8.24 108.32 -8.23 107.11 C-8.21 103.88 -8.17 100.64 -8.12 97.41 C-8.08 94.03 -8.05 90.65 -8.02 87.27 C-7.97 81.59 -7.91 75.92 -7.84 70.25 C-7.75 62.95 -7.68 55.66 -7.62 48.37 C-7.56 42.11 -7.5 35.85 -7.43 29.59 C-7.41 27.57 -7.39 25.55 -7.37 23.54 C-7.33 19.79 -7.29 16.04 -7.24 12.29 C-7.24 11.73 -7.24 11.73 -7.21 8.88 C-7.2 7.87 -7.18 6.85 -7.17 5.81 C-7.16 4.92 -7.15 4.03 -7.14 3.12 C-6.82 -1.17 -3.61 -0.01 0 0 Z " fill="#5A646A" transform="translate(328.988525390625,650.886474609375)"/>
<path d="M0 0 C9.76 9.18 14.4 19.72 18.03 32.35 C18.21 32.97 18.39 33.58 18.57 34.22 C21.93 49.81 18.8 67 14.64 82.09 C13.85 85.03 13.2 88 12.53 90.97 C11.29 95.84 9.49 100.34 7.49 104.94 C5.38 109.86 3.48 114.85 1.56 119.84 C0.03 123.82 -1.57 127.75 -3.28 131.66 C-5.61 137.36 -6.19 143.27 -6.97 149.35 C-11.59 149.35 -16.21 149.35 -20.97 149.35 C-21.18 148.39 -21.38 147.43 -21.6 146.45 C-25.02 131.35 -30.91 118.04 -38.26 104.47 C-42.44 96.66 -45.76 88.59 -48.97 80.35 C-49.33 79.54 -49.69 78.74 -50.05 77.91 C-56.87 58.8 -55.36 35.57 -46.97 17.35 C-44.87 13.8 -42.53 10.57 -39.97 7.35 C-39.21 6.3 -38.44 5.24 -37.66 4.16 C-26.13 -7.9 -13.37 -11.22 0 0 Z " fill="#FDFAFA" transform="translate(631.96875,205.65234375)"/>
<path d="M0 0 C14.52 0 29.04 0 44 0 C44.12 21.84 44.12 21.84 44.15 31.13 C44.16 37.48 44.19 43.83 44.23 50.18 C44.26 55.29 44.28 60.41 44.28 65.52 C44.29 67.48 44.3 69.43 44.32 71.39 C44.34 74.12 44.34 76.85 44.34 79.58 C44.35 80.39 44.36 81.21 44.37 82.04 C44.34 87.52 44.34 87.52 42.6 89.96 C38.83 92.4 35.4 92.18 31.04 92.2 C30.64 92.21 30.64 92.21 28.64 92.22 C26.97 92.23 25.3 92.24 23.63 92.24 C21.08 92.25 18.52 92.28 15.96 92.31 C14.34 92.32 12.72 92.32 11.1 92.33 C10.33 92.34 9.57 92.35 8.78 92.37 C3.45 92.34 3.45 92.34 1.3 90.71 C-0.96 87.73 -0.39 84.08 -0.34 80.49 C-0.34 79.62 -0.34 78.75 -0.34 77.86 C-0.34 74.98 -0.32 72.11 -0.29 69.24 C-0.29 67.25 -0.28 65.26 -0.28 63.26 C-0.27 58.02 -0.24 52.78 -0.21 47.54 C-0.17 41.25 -0.16 34.96 -0.14 28.67 C-0.11 19.11 -0.05 9.56 0 0 Z " fill="#596469" transform="translate(399,632)"/>
<path d="M0 0 C0.43 0 0.43 0 2.62 0 C5.39 0.01 8.16 0.02 10.93 0.04 C12.81 0.04 14.68 0.04 16.56 0.05 C21.16 0.06 25.77 0.08 30.37 0.1 C30.42 11.78 30.45 23.46 30.47 35.15 C30.49 40.57 30.5 45.99 30.52 51.42 C30.54 56.65 30.56 61.88 30.56 67.12 C30.56 69.12 30.57 71.11 30.58 73.11 C30.6 75.91 30.6 78.7 30.6 81.5 C30.61 82.33 30.61 83.16 30.62 84.01 C30.61 87.9 30.58 89.79 28.37 93.1 C25.71 93.4 23.29 93.52 20.62 93.5 C19.86 93.5 19.09 93.5 18.3 93.5 C16.68 93.51 15.05 93.5 13.43 93.49 C10.95 93.47 8.46 93.49 5.98 93.51 C4.4 93.51 2.83 93.5 1.25 93.5 C0.51 93.5 -0.24 93.51 -1 93.51 C-6.17 93.44 -6.17 93.44 -8.33 91.81 C-10.59 88.84 -10.03 85.19 -9.99 81.6 C-9.99 80.74 -9.99 79.87 -9.99 78.98 C-9.99 76.11 -9.98 73.24 -9.96 70.37 C-9.95 68.38 -9.95 66.39 -9.95 64.4 C-9.95 60.24 -9.93 56.07 -9.91 51.9 C-9.88 46.55 -9.87 41.19 -9.87 35.84 C-9.86 31.73 -9.85 27.63 -9.84 23.52 C-9.83 21.54 -9.83 19.57 -9.83 17.59 C-9.82 14.84 -9.81 12.09 -9.79 9.33 C-9.79 8.51 -9.79 7.69 -9.79 6.84 C-9.72 -1.28 -7.31 -0.04 0 0 Z " fill="#586368" transform="translate(576.62890625,631.90234375)"/>
<path d="M0 0 C0.55 -0 0.55 -0 3.34 -0.01 C5.66 -0.01 7.98 -0 10.29 0 C13.83 0.02 17.37 0 20.91 -0.01 C23.17 -0.01 25.43 -0 27.69 0 C28.74 -0 29.79 -0.01 30.88 -0.01 C36.01 0.02 40.28 0.21 45.08 2.27 C45.08 2.93 45.08 3.59 45.08 4.27 C46.03 4.37 46.98 4.47 47.95 4.58 C51.08 5.27 51.08 5.27 53.08 8.27 C52.2 11.95 52.2 11.95 51.08 15.27 C50.09 15.27 49.1 15.27 48.08 15.27 C48.08 14.28 48.08 13.29 48.08 12.27 C45.11 12.93 42.14 13.59 39.08 14.27 C39.51 15.5 39.94 16.74 40.39 18.02 C40.94 20.21 40.94 20.21 41.08 22.27 C39.14 24.83 39.14 24.83 36.08 26.27 C31.45 26.44 29.01 25.45 25.7 22.39 C21.27 18.3 16.76 16.28 10.67 16.25 C0.81 17.55 -6.57 24.04 -12.36 31.77 C-13.58 33.58 -14.77 35.41 -15.92 37.27 C-16.33 37.92 -16.74 38.58 -17.16 39.25 C-22.15 48.25 -24.52 59.05 -24.92 69.27 C-24.97 70.07 -25.02 70.87 -25.08 71.69 C-25.79 91.28 -18.73 108.06 -10 125.15 C7.08 158.7 7.08 158.7 7.08 172.27 C2.46 172.27 -2.16 172.27 -6.92 172.27 C-7.21 171.51 -7.21 171.51 -8.65 167.71 C-13.62 154.86 -19.14 142.53 -25.43 130.27 C-29.28 122.73 -32.33 115.33 -34.92 107.27 C-35.49 105.92 -36.07 104.59 -36.67 103.27 C-38.83 98.08 -39.05 93.04 -39.05 87.47 C-39.06 86.18 -39.06 84.89 -39.06 83.56 C-39.06 82.9 -39.05 82.23 -39.05 81.54 C-39.05 79.54 -39.05 77.53 -39.06 75.52 C-39.05 68.37 -38.84 61.36 -37.92 54.27 C-37.26 54.27 -36.6 54.27 -35.92 54.27 C-35.8 53.52 -35.67 52.78 -35.55 52.02 C-34.92 49.27 -34.92 49.27 -33.94 47.36 C-32.89 45.2 -32.46 43.37 -32.05 41.02 C-30.52 33.8 -27.7 28.03 -21.92 23.27 C-21.18 23.14 -20.44 23.02 -19.67 22.89 C-19.09 22.68 -18.52 22.48 -17.92 22.27 C-17.17 18.7 -17.17 18.7 -16.92 15.27 C-18.9 14.61 -20.88 13.95 -22.92 13.27 C-22.59 11.95 -22.26 10.63 -21.92 9.27 C-22.58 9.27 -23.24 9.27 -23.92 9.27 C-24.61 6.89 -24.61 6.89 -24.92 4.27 C-17.71 -0.54 -8.38 -0.03 0 0 Z " fill="#AF3137" transform="translate(603.921875,182.734375)"/>
<path d="M0 0 C2.31 1 2.31 1 3.12 2.75 C3.19 3.49 3.25 4.24 3.31 5 C3.36 5.41 3.36 5.41 3.62 7.5 C3.21 10.81 1.73 11.81 -0.69 14 C-0.69 14.66 -0.69 15.32 -0.69 16 C-2.01 16 -3.33 16 -4.69 16 C-4.65 16.37 -4.65 16.37 -4.44 18.25 C-4.69 21 -4.69 21 -6.57 22.79 C-9.12 25.46 -9.82 27.66 -10.88 31.19 C-12.62 36.93 -12.62 36.93 -13.69 38 C-13.85 40.74 -13.95 43.45 -14 46.19 C-14.02 47.01 -14.05 47.83 -14.07 48.68 C-14.13 51.3 -14.19 53.93 -14.25 56.56 C-14.29 58.34 -14.34 60.12 -14.38 61.9 C-14.49 66.26 -14.59 70.63 -14.69 75 C-14.03 75 -13.37 75 -12.69 75 C-12.34 76.2 -11.99 77.39 -11.62 78.62 C-10.03 83.44 -7.84 87.84 -5.52 92.35 C-2.87 97.53 -0.54 102.82 1.75 108.17 C3.51 112.24 5.39 116.19 7.44 120.12 C13.32 131.71 18.31 144.91 18.31 158 C22.6 158 26.89 158 31.31 158 C31.31 158.33 31.31 158.66 31.31 159 C15.14 159 -1.03 159 -17.69 159 C-17.69 158.67 -17.69 158.34 -17.69 158 C-10.43 158 -3.17 158 4.31 158 C2.99 154.7 1.67 151.4 0.31 148 C-0.04 145.67 -0.37 143.34 -0.69 141 C-1.7 138.36 -2.75 135.86 -3.94 133.31 C-4.28 132.56 -4.62 131.81 -4.97 131.04 C-7.26 126.01 -9.62 121.02 -11.97 116.02 C-12.84 114.17 -13.71 112.31 -14.57 110.46 C-15.42 108.67 -16.27 106.89 -17.12 105.1 C-26.12 85.98 -33.15 62.26 -27.69 41 C-27.03 41 -26.37 41 -25.69 41 C-25.6 40.66 -25.6 40.66 -25.17 38.91 C-21.72 25.51 -21.72 25.51 -18.69 21 C-17.7 21 -16.71 21 -15.69 21 C-15.58 19.7 -15.48 18.4 -15.38 17.06 C-15.2 14.85 -15.2 14.85 -14.69 13 C-13.7 12.67 -12.71 12.34 -11.69 12 C-11.69 11.34 -11.69 10.68 -11.69 10 C-10.31 8.38 -10.31 8.38 -8.69 7 C-8.03 7 -7.37 7 -6.69 7 C-6.69 6.01 -6.69 5.02 -6.69 4 C-4.55 1.15 -3.64 0 0 0 Z " fill="#AD3335" transform="translate(565.6875,197)"/>
<path d="M0 0 C2.19 0.88 2.19 0.88 4 2 C4 1.34 4 0.68 4 0 C4.99 0 5.98 0 7 0 C9.11 5.08 9.42 9.97 9.75 15.39 C10 18 10 18 11 20 C12.6 42.24 8.15 62.94 -0.04 83.48 C-1.24 86.62 -2.16 89.75 -3 93 C-2.86 92.73 -2.86 92.73 -2.15 91.36 C-0.86 88.92 0.44 86.49 1.75 84.06 C2.19 83.21 2.64 82.36 3.09 81.49 C3.53 80.68 3.97 79.87 4.42 79.04 C4.82 78.29 5.22 77.54 5.63 76.77 C7.29 74.63 8.37 74.35 11 74 C11 72.68 11 71.36 11 70 C11.83 69.84 11.83 69.84 16 69 C16 67.35 16 65.7 16 64 C16.99 64 17.98 64 19 64 C19 65.32 19 66.64 19 68 C19.99 68.33 20.98 68.66 22 69 C21.67 71.97 21.34 74.94 21 78 C20.34 78 19.68 78 19 78 C19 80.64 19 83.28 19 86 C18.01 86 17.02 86 16 86 C15.84 86.5 15.84 86.5 15 89 C13.5 92.46 11.6 95.25 9 98 C6.25 98.81 6.25 98.81 4 99 C3.46 102.06 3 104.89 3 108 C2.67 108.16 2.67 108.16 1 109 C1 109.74 1 110.49 1 111.25 C1 114.3 0.26 116.25 -1 119 C-1.66 119 -2.32 119 -3 119 C-3 119.99 -3 120.98 -3 122 C-5.4 123.2 -6.89 123.11 -9.57 123.1 C-10.47 123.09 -11.36 123.09 -12.29 123.09 C-12.75 123.08 -12.75 123.08 -15.12 123.06 C-16.07 123.06 -17.01 123.05 -17.99 123.05 C-20.33 123.04 -22.66 123.02 -25 123 C-25.19 116.93 -25.35 111.7 -23 106 C-22.55 104.69 -22.12 103.38 -21.69 102.06 C-21.56 101.68 -21.56 101.68 -20.92 99.77 C-20.2 97.6 -19.5 95.43 -18.8 93.26 C-18.37 91.92 -17.93 90.59 -17.5 89.25 C-17.1 88 -16.7 86.74 -16.28 85.45 C-15.12 82.32 -13.94 79.71 -12 77 C-11.34 77 -10.68 77 -10 77 C-10.06 76.22 -10.12 75.43 -10.19 74.62 C-10.13 73.76 -10.06 72.89 -10 72 C-9.5 71.67 -9.5 71.67 -7 70 C-7.03 67.97 -7.08 65.94 -7.16 63.92 C-6.78 56.87 -4.22 49.67 -2 43 C-1.9 40.24 -1.86 37.51 -1.87 34.75 C-1.87 33.95 -1.87 33.14 -1.86 32.31 C-1.86 30.6 -1.87 28.89 -1.87 27.19 C-1.87 24.58 -1.87 21.97 -1.86 19.36 C-1.86 17.7 -1.87 16.04 -1.87 14.38 C-1.87 13.6 -1.86 12.82 -1.86 12.02 C-1.88 8.51 -2.06 5.38 -3 2 C-2.01 1.34 -1.02 0.68 0 0 Z " fill="#AF3436" transform="translate(654,230)"/>
<path d="M0 0 C1.31 -0.01 2.63 -0.01 3.98 -0.02 C5.43 -0.02 6.87 -0.01 8.31 -0.01 C9.78 -0.01 11.25 -0.01 12.72 -0.01 C15.81 -0.02 18.9 -0.01 21.99 -0 C25.95 0.01 29.91 0 33.87 -0.01 C36.91 -0.02 39.95 -0.01 42.99 -0.01 C44.45 -0.01 45.91 -0.01 47.37 -0.01 C49.41 -0.02 51.45 -0.01 53.49 0 C54.07 0 54.07 0 57.01 0 C59.75 0.26 59.75 0.26 61.75 2.26 C61.75 11.5 61.75 20.74 61.75 30.26 C38.65 30.26 15.55 30.26 -8.25 30.26 C-8.25 0.01 -8.25 0.01 0 0 Z " fill="#848E92" transform="translate(651.25390625,650.7412109375)"/>
<path d="M0 0 C19.14 0 38.28 0 58 0 C57.94 22.56 57.94 22.56 57.85 29.65 C57.86 31.52 57.88 33.38 57.9 35.25 C57.88 36.21 57.85 37.17 57.83 38.16 C57.97 44.99 57.97 44.99 61.05 48.01 C62.67 49.18 64.31 50.32 65.98 51.44 C68 53 68 53 69.02 56.09 C68.97 57.1 68.93 58.11 68.88 59.15 C68.85 60.26 68.82 61.36 68.79 62.5 C68.75 63.07 68.75 63.07 68.56 65.94 C68.54 66.52 68.54 66.52 68.44 69.46 C68.33 72.31 68.17 75.15 68 78 C60.74 78 53.48 78 46 78 C45.99 75.39 45.97 72.77 45.96 70.08 C45.93 67.54 45.89 65.01 45.85 62.47 C45.82 60.71 45.81 58.95 45.8 57.19 C45.8 54.65 45.75 52.12 45.71 49.58 C45.71 48.8 45.71 48.01 45.72 47.21 C45.61 42.93 45.37 41.44 42.52 38.03 C41.69 37.36 40.86 36.69 40 36 C37.62 33.62 38.2 27.76 37.89 24.52 C36.69 19.76 34.34 17.48 30.24 14.89 C27.27 13.71 24.68 13.67 21.48 13.59 C20.23 13.55 18.98 13.51 17.7 13.47 C16.39 13.44 15.09 13.41 13.75 13.38 C12.43 13.34 11.12 13.3 9.76 13.26 C6.51 13.16 3.25 13.08 0 13 C0 8.71 0 4.42 0 0 Z " fill="#5A656C" transform="translate(573,523)"/>
<path d="M0 0 C4.37 0.52 6.66 2 10 4.81 C10.83 5.5 11.65 6.19 12.5 6.89 C13.33 7.59 14.15 8.28 15 9 C15.83 9.62 16.67 10.24 17.53 10.88 C31.39 22.75 34.76 40.66 35.34 57.99 C35.68 80.47 25 99.13 14.44 118.38 C14.02 119.14 13.6 119.9 13.17 120.68 C10.25 125.87 10.25 125.87 8 127 C8.62 122.15 10.04 117.84 11.81 113.31 C12.35 111.9 12.9 110.48 13.44 109.06 C13.7 108.37 13.97 107.68 14.24 106.97 C15.28 104.26 16.3 101.54 17.31 98.81 C17.62 97.99 17.92 97.18 18.24 96.33 C21.75 85.58 26.19 61.37 21 51 C20.69 47.89 20.49 44.77 20.28 41.65 C20 39 20 39 19 38 C18.96 36.33 18.96 34.67 19 33 C18.01 33 17.02 33 16 33 C16 33.66 16 34.32 16 35 C15.38 34.79 14.76 34.59 14.12 34.38 C13.77 34.31 13.77 34.31 12 34 C11.34 34.66 10.68 35.32 10 36 C10.33 36.99 10.66 37.98 11 39 C11.12 41.7 11.19 44.37 11.2 47.07 C11.21 47.87 11.21 48.66 11.22 49.48 C11.23 51.17 11.24 52.85 11.24 54.54 C11.25 57.09 11.28 59.65 11.31 62.2 C11.37 70.4 11.25 77.36 8 85 C7.55 87.05 7.14 89.11 6.81 91.19 C6.65 92.15 6.5 93.11 6.33 94.11 C6 97 6 97 6.14 100.24 C6.09 101.15 6.05 102.06 6 103 C5.01 103.66 4.02 104.32 3 105 C2.31 107.62 2.31 107.62 2 110 C1.34 110 0.68 110 0 110 C-1.67 114.03 -3.07 118.11 -4.44 122.25 C-4.66 122.91 -4.88 123.58 -5.1 124.26 C-5.74 126.17 -6.37 128.09 -7 130 C-7.56 131.69 -8.12 133.38 -8.69 135.06 C-8.92 135.76 -9.14 136.45 -9.38 137.17 C-9.92 138.75 -10.52 140.32 -11.12 141.88 C-12.43 146.54 -12.65 151.17 -13 156 C-5.74 155.67 1.52 155.34 9 155 C9 154.01 9 153.02 9 152 C9.66 152 10.32 152 11 152 C11.12 151.32 11.25 150.64 11.38 149.94 C12 147 12 147 13.06 143.44 C14 140 14 140 14 136 C14.61 134.31 15.27 132.64 16 131 C17.65 131 19.3 131 21 131 C21.33 130.01 21.66 129.02 22 128 C22.66 127.34 23.32 126.68 24 126 C24.62 123.38 24.62 123.38 25 121 C25.66 121 26.32 121 27 121 C27.33 120.34 27.66 119.68 28 119 C28.66 119 29.32 119 30 119 C28.7 122.44 27.2 125.58 25.36 128.77 C24.84 129.66 24.33 130.55 23.8 131.46 C23.27 132.38 22.74 133.3 22.19 134.25 C20.62 136.96 19.06 139.67 17.5 142.39 C16.52 144.1 15.53 145.8 14.53 147.5 C14.31 147.89 14.31 147.89 13.18 149.86 C12.78 150.54 12.38 151.22 11.97 151.92 C11 154 11 154 10 159 C-3.2 159 -16.4 159 -30 159 C-30 158.67 -30 158.34 -30 158 C-25.71 158 -21.42 158 -17 158 C-16.97 157.05 -16.97 157.05 -16.81 152.25 C-16.62 146.27 -14.79 141.74 -12.41 136.27 C-10.01 130.7 -7.97 125 -5.88 119.31 C-5.45 118.15 -5.02 117 -4.57 115.8 C-1.04 106.22 2.19 96.74 4.62 86.81 C4.84 85.95 5.06 85.09 5.28 84.2 C10.53 63.01 10.92 38.9 -1.51 20.09 C-2 19.4 -2.49 18.71 -3 18 C-3.49 17.29 -3.98 16.58 -4.49 15.84 C-5.64 14.21 -6.82 12.6 -8 11 C-6.91 11.06 -5.81 11.12 -4.69 11.19 C-1 11 -1 11 1.06 10 C2.68 6.55 1.1 3.54 0 0 Z " fill="#AA3436" transform="translate(642,197)"/>
<path d="M0 0 C1.68 1.45 1.68 1.45 3.31 3.25 C5.71 5.77 8.06 7.86 10.94 9.81 C11.95 10.53 12.96 11.26 14 12 C14 12.66 14 13.32 14 14 C14.66 14.21 15.32 14.41 16 14.62 C19.34 16.16 21.9 18.09 24.8 20.34 C27.87 22.65 31.08 24.72 34.31 26.8 C34.87 27.2 35.43 27.59 36 28 C36 28.33 36 28.66 36 29 C8.28 29 -19.44 29 -48 29 C-48 4 -48 4 -47 2 C-44.31 1.77 -41.71 1.67 -39.02 1.66 C-38.62 1.65 -38.62 1.65 -36.58 1.61 C-33.99 1.57 -31.4 1.53 -28.81 1.5 C-25.42 1.46 -22.03 1.4 -18.64 1.34 C-17.87 1.34 -17.09 1.33 -16.3 1.33 C-10.93 1.23 -4.81 -2.17 0 0 Z " fill="#5B656A" transform="translate(448,734)"/>
<path d="M0 0 C10.89 0 21.78 0 33 0 C33.17 2.64 33.17 2.64 34 16 C36.29 17.15 37.6 17.14 40.15 17.16 C41.02 17.17 41.89 17.18 42.79 17.19 C43.74 17.19 44.7 17.2 45.68 17.21 C46.18 17.21 46.18 17.21 48.73 17.24 C52.06 17.27 55.39 17.29 58.73 17.32 C61.03 17.34 63.34 17.36 65.65 17.38 C71.73 17.43 77.8 17.48 83.88 17.53 C90.08 17.58 96.28 17.64 102.48 17.69 C114.66 17.8 126.83 17.9 139 18 C139.12 25.88 139.12 25.88 138 27 C136.48 27.1 134.96 27.13 133.44 27.13 C132.46 27.13 131.48 27.13 130.46 27.14 C129.37 27.13 128.28 27.13 127.16 27.13 C126.02 27.13 124.88 27.13 123.71 27.13 C119.92 27.14 116.13 27.14 112.34 27.13 C109.72 27.13 107.11 27.13 104.49 27.14 C98.99 27.14 93.49 27.14 87.99 27.13 C81.63 27.12 75.26 27.13 68.9 27.13 C62.79 27.14 56.67 27.14 50.56 27.13 C47.96 27.13 45.35 27.13 42.74 27.14 C39.11 27.14 35.47 27.13 31.84 27.13 C31.29 27.13 31.29 27.13 28.54 27.14 C27.55 27.13 26.57 27.13 25.56 27.13 C24.69 27.13 23.83 27.13 22.95 27.13 C21 27 21 27 20 26 C19.7 24.09 19.44 22.17 19.19 20.25 C18.43 15.46 17.71 12.36 14 9 C11.3 7.65 8.88 7.66 5.88 7.44 C5.33 7.4 5.33 7.4 2.55 7.18 C1.71 7.12 0.87 7.06 0 7 C0 4.69 0 2.38 0 0 Z " fill="#5A646B" transform="translate(425,531)"/>
<path d="M0 0 C0 0.66 0 1.32 0 2 C-0.74 2.57 -1.49 3.14 -2.25 3.72 C-10.5 10.56 -14.54 23.2 -18 33 C-18.26 33.58 -18.52 34.16 -18.79 34.76 C-21.31 40.61 -21.46 46 -21.38 52.31 C-21.37 53.36 -21.36 54.41 -21.35 55.49 C-21.1 69.1 -19.53 82.46 -14 95 C-13.47 96.24 -12.95 97.48 -12.42 98.71 C-9.38 105.78 -6.14 112.75 -2.77 119.67 C-2.2 120.84 -1.63 122.01 -1.04 123.21 C0.08 125.51 1.21 127.8 2.34 130.08 C12 149.79 12 149.79 12 156 C7.71 156 3.42 156 -1 156 C-1.27 154.72 -1.54 153.43 -1.81 152.11 C-5.36 135.84 -10.8 120.91 -18.43 106.11 C-29.83 83.59 -38.47 54.49 -29.19 29.61 C-27.43 25.76 -25.55 22.38 -23 19 C-22.68 18.56 -22.68 18.56 -21.07 16.35 C-8.5 0 -8.5 0 0 0 Z " fill="#F8ECEB" transform="translate(585,199)"/>
<path d="M0 0 C5.28 0 10.56 0 16 0 C16 29.7 16 59.4 16 90 C1 90 1 90 0 89 C-0.1 86.23 -0.13 83.49 -0.11 80.72 C-0.11 79.85 -0.11 78.98 -0.11 78.09 C-0.11 75.2 -0.11 72.32 -0.1 69.43 C-0.1 67.44 -0.09 65.45 -0.09 63.45 C-0.09 58.19 -0.08 52.93 -0.07 47.67 C-0.06 42.31 -0.05 36.95 -0.05 31.59 C-0.04 21.06 -0.02 10.53 0 0 Z " fill="#858C90" transform="translate(400,633)"/>
<path d="M0 0 C0.55 -0 0.55 -0 3.34 -0.01 C5.66 -0.01 7.98 -0 10.29 0 C13.83 0.02 17.37 0 20.91 -0.01 C23.17 -0.01 25.43 -0 27.69 0 C28.74 -0 29.79 -0.01 30.88 -0.01 C36.01 0.02 40.28 0.21 45.08 2.27 C45.08 2.93 45.08 3.59 45.08 4.27 C46.03 4.37 46.98 4.47 47.95 4.58 C51.08 5.27 51.08 5.27 53.08 8.27 C52.2 11.95 52.2 11.95 51.08 15.27 C50.09 15.27 49.1 15.27 48.08 15.27 C48.08 14.28 48.08 13.29 48.08 12.27 C45.11 12.93 42.14 13.59 39.08 14.27 C39.51 15.5 39.94 16.74 40.39 18.02 C40.94 20.21 40.94 20.21 41.08 22.27 C39.14 24.83 39.14 24.83 36.08 26.27 C32.52 26.45 32.52 26.45 29.08 25.27 C27.44 23.06 26.35 20.72 25.08 18.27 C22.83 17.33 22.83 17.33 21.08 17.27 C21.08 16.61 21.08 15.95 21.08 15.27 C20.44 15.12 19.8 14.98 19.14 14.83 C17.08 14.27 17.08 14.27 16.08 13.27 C11.95 13.07 8.14 13.49 4.08 14.27 C4.08 14.93 4.08 15.59 4.08 16.27 C2.76 16.27 1.44 16.27 0.08 16.27 C-0.25 17.26 -0.58 18.25 -0.92 19.27 C-4.36 22.71 -7.9 25.67 -12.92 25.64 C-13.91 25.52 -14.9 25.39 -15.92 25.27 C-15.92 25.93 -15.92 26.59 -15.92 27.27 C-15.26 27.27 -14.6 27.27 -13.92 27.27 C-13.92 28.26 -13.92 29.25 -13.92 30.27 C-15.24 30.27 -16.56 30.27 -17.92 30.27 C-17.92 31.26 -17.92 32.25 -17.92 33.27 C-20.89 33.27 -23.86 33.27 -26.92 33.27 C-26.48 28.22 -24.36 25.79 -20.92 22.27 C-19.93 22.27 -18.94 22.27 -17.92 22.27 C-17.59 19.96 -17.26 17.65 -16.92 15.27 C-18.9 14.61 -20.88 13.95 -22.92 13.27 C-22.59 11.95 -22.26 10.63 -21.92 9.27 C-22.58 9.27 -23.24 9.27 -23.92 9.27 C-24.61 6.89 -24.61 6.89 -24.92 4.27 C-17.71 -0.54 -8.38 -0.03 0 0 Z " fill="#B03337" transform="translate(603.921875,182.734375)"/>
<path d="M0 0 C1.31 -0.01 2.63 -0.01 3.98 -0.02 C5.43 -0.02 6.87 -0.01 8.31 -0.01 C9.78 -0.01 11.25 -0.01 12.72 -0.01 C15.81 -0.02 18.9 -0.01 21.99 -0 C25.95 0.01 29.91 0 33.87 -0.01 C36.91 -0.02 39.95 -0.01 42.99 -0.01 C44.45 -0.01 45.91 -0.01 47.37 -0.01 C49.41 -0.02 51.45 -0.01 53.49 0 C54.07 0 54.07 0 57.01 0 C59.75 0.26 59.75 0.26 61.75 2.26 C61.75 6.55 61.75 10.84 61.75 15.26 C38.65 15.26 15.55 15.26 -8.25 15.26 C-8.25 0.01 -8.25 0.01 0 0 Z " fill="#596369" transform="translate(651.25390625,650.7412109375)"/>
<path d="M0 0 C1.28 0 2.56 0 3.88 0 C5.29 0.01 6.7 0.01 8.11 0.02 C9.54 0.02 10.98 0.02 12.41 0.02 C16.19 0.02 19.97 0.03 23.75 0.04 C27.6 0.06 31.46 0.06 35.31 0.06 C42.88 0.08 50.44 0.09 58.01 0.11 C58.04 2.22 58.06 4.32 58.07 6.43 C58.09 7.6 58.1 8.77 58.11 9.98 C58.01 13.11 58.01 13.11 57.01 16.11 C35.89 16.11 14.77 16.11 -6.99 16.11 C-6.99 -0.01 -6.99 -0.01 0 0 Z " fill="#596369" transform="translate(328.988525390625,650.886474609375)"/>
<path d="M0 0 C3.63 0 7.26 0 11 0 C11 30.36 11 60.72 11 92 C3 92 3 92 1.02 90.73 C-0.82 87.61 -0.39 84.02 -0.34 80.49 C-0.34 79.62 -0.34 78.75 -0.34 77.86 C-0.34 74.98 -0.32 72.11 -0.29 69.24 C-0.29 67.25 -0.28 65.26 -0.28 63.26 C-0.27 58.02 -0.24 52.78 -0.21 47.54 C-0.18 42.19 -0.16 36.84 -0.15 31.49 C-0.11 20.99 -0.06 10.5 0 0 Z " fill="#818A8F" transform="translate(567,633)"/>
<path d="M0 0 C4.37 0.52 6.66 2 10 4.81 C10.83 5.5 11.65 6.19 12.5 6.89 C13.33 7.59 14.15 8.28 15 9 C15.83 9.62 16.67 10.24 17.53 10.88 C31.39 22.75 34.76 40.66 35.34 57.99 C35.68 80.47 25 99.13 14.44 118.38 C14.02 119.14 13.6 119.9 13.17 120.68 C10.25 125.87 10.25 125.87 8 127 C8.62 122.15 10.04 117.84 11.81 113.31 C12.36 111.88 12.9 110.46 13.45 109.03 C14.35 106.68 15.26 104.34 16.18 102 C26.34 75.5 27.29 43.98 15 18 C11.59 11.59 7.81 6.4 2 2 C1.34 1.34 0.68 0.68 0 0 Z " fill="#F7E9E9" transform="translate(642,197)"/>
<path d="M0 0 C3.45 0.02 6.89 0 10.34 -0.03 C12.57 -0.02 14.79 -0.02 17.02 -0.01 C17.52 -0.01 17.52 -0.01 20.09 -0.03 C30.45 0.1 39.58 3.13 48.2 8.83 C48.79 9.22 49.38 9.61 49.98 10.01 C53.93 12.68 57.38 15.56 60.56 19.11 C61.89 20.52 61.89 20.52 64.89 22.52 C65.22 23.51 65.55 24.5 65.89 25.52 C67.18 26.89 68.51 28.23 69.89 29.52 C69.56 30.18 69.23 30.84 68.89 31.52 C68.56 31.03 68.56 31.03 66.89 28.52 C65.9 28.19 64.91 27.86 63.89 27.52 C63.2 24.96 63.2 24.96 62.89 22.52 C61.9 22.52 60.91 22.52 59.89 22.52 C58.2 20.88 56.53 19.21 54.89 17.52 C54.39 17.36 54.39 17.36 51.89 16.52 C51.72 16.03 51.72 16.03 50.89 13.52 C50.29 13.38 49.69 13.23 49.08 13.08 C46.89 12.52 46.89 12.52 45.01 10.58 C42.48 8.12 40.26 7.44 36.89 6.52 C36.89 5.86 36.89 5.2 36.89 4.52 C36.08 4.54 35.28 4.56 34.45 4.58 C31.89 4.52 31.89 4.52 30.89 3.52 C29.35 3.42 27.8 3.38 26.25 3.38 C25.26 3.37 24.28 3.36 23.26 3.36 C22.18 3.36 21.1 3.35 19.99 3.35 C18.88 3.35 17.77 3.35 16.63 3.34 C14.28 3.34 11.93 3.34 9.57 3.34 C6 3.33 2.42 3.32 -1.15 3.3 C-3.44 3.29 -5.73 3.29 -8.01 3.29 C-8.54 3.29 -8.54 3.29 -11.23 3.27 C-18.82 3.29 -25.89 4.11 -33.11 6.52 C-32.95 7.35 -32.95 7.35 -32.11 11.52 C-31.45 11.52 -30.79 11.52 -30.11 11.52 C-30.11 12.84 -30.11 14.16 -30.11 15.52 C-28.13 16.18 -26.15 16.84 -24.11 17.52 C-24.69 19.91 -25.33 22.19 -26.11 24.52 C-27.1 24.85 -28.09 25.18 -29.11 25.52 C-30.47 27.17 -31.8 28.83 -33.11 30.52 C-33.44 30.69 -33.44 30.69 -35.11 31.52 C-37.04 35.38 -38.26 38.93 -39.11 43.15 C-39.85 46.81 -41.05 49.38 -43.11 52.52 C-43.8 54.83 -43.8 54.83 -44.11 56.52 C-44.77 56.52 -45.43 56.52 -46.11 56.52 C-46.44 68.07 -46.77 79.62 -47.11 91.52 C-47.44 91.52 -47.77 91.52 -48.11 91.52 C-49.11 84.84 -49.33 78.27 -49.36 71.52 C-49.38 70.48 -49.4 69.44 -49.42 68.37 C-49.46 62.03 -48.74 57.26 -46.11 51.52 C-45.66 50.32 -45.21 49.12 -44.75 47.88 C-36.79 27.21 -36.79 27.21 -29.11 20.52 C-28.45 20.52 -27.79 20.52 -27.11 20.52 C-27.11 19.86 -27.11 19.2 -27.11 18.52 C-41.84 26.36 -53.26 38.38 -57.54 54.88 C-59.64 68.27 -58.34 82.24 -56.11 95.52 C-55.77 97.85 -55.44 100.19 -55.11 102.52 C-57.89 99.74 -59.06 97.74 -59.24 93.77 C-59.19 93.03 -59.15 92.29 -59.11 91.52 C-59.77 91.52 -60.43 91.52 -61.11 91.52 C-61.16 86.31 -61.2 81.09 -61.22 75.88 C-61.23 74.1 -61.24 72.33 -61.26 70.56 C-61.29 68.01 -61.3 65.46 -61.31 62.91 C-61.32 62.11 -61.33 61.32 -61.34 60.5 C-61.34 56.64 -61.31 54.81 -59.11 51.52 C-58.32 48.93 -57.66 46.33 -56.99 43.7 C-56.7 42.98 -56.41 42.26 -56.11 41.52 C-55.62 41.36 -55.62 41.36 -53.11 40.52 C-53.15 39.57 -53.19 38.62 -53.24 37.65 C-53.11 34.52 -53.11 34.52 -51.11 32.52 C-49.79 32.52 -48.47 32.52 -47.11 32.52 C-47.44 31.53 -47.77 30.54 -48.11 29.52 C-47.45 29.52 -46.79 29.52 -46.11 29.52 C-45.78 28.53 -45.45 27.54 -45.11 26.52 C-44.45 26.52 -43.79 26.52 -43.11 26.52 C-43.38 21.06 -43.38 21.06 -44.11 18.52 C-46.67 17.02 -46.67 17.02 -49.11 16.52 C-49.26 16.85 -49.26 16.85 -49.99 18.52 C-50.36 19.18 -50.73 19.84 -51.11 20.52 C-51.77 20.52 -52.43 20.52 -53.11 20.52 C-53.11 21.51 -53.11 22.5 -53.11 23.52 C-53.77 23.52 -54.43 23.52 -55.11 23.52 C-55.44 24.51 -55.77 25.5 -56.11 26.52 C-56.77 26.52 -57.43 26.52 -58.11 26.52 C-58.11 27.18 -58.11 27.84 -58.11 28.52 C-58.77 28.85 -59.43 29.18 -60.11 29.52 C-60.74 31.37 -60.74 31.37 -61.24 33.58 C-61.4 34.32 -61.57 35.05 -61.74 35.81 C-61.87 36.37 -61.99 36.94 -62.11 37.52 C-63.1 37.52 -64.09 37.52 -65.11 37.52 C-65.29 38.07 -65.47 38.61 -65.66 39.17 C-66.19 40.76 -66.72 42.34 -67.25 43.93 C-67.82 45.63 -68.37 47.34 -68.91 49.05 C-69.16 49.85 -69.41 50.64 -69.67 51.46 C-69.9 52.19 -70.13 52.92 -70.36 53.67 C-71.11 55.52 -71.11 55.52 -73.11 57.52 C-73.11 40.45 -62.07 25.94 -50.17 14.71 C-34.73 1.41 -19.69 -0.15 0 0 Z " fill="#A83737" transform="translate(612.111083984375,180.478515625)"/>
<path d="M0 0 C21.12 0 42.24 0 64 0 C64 4.62 64 9.24 64 14 C42.88 14 21.76 14 0 14 C0 9.38 0 4.76 0 0 Z " fill="#879094" transform="translate(322,667)"/>
<path d="M0 0 C0.99 0.33 1.98 0.66 3 1 C3 4.63 3 8.26 3 12 C2.34 12 1.68 12 1 12 C1.01 12.69 1.01 13.38 1.02 14.1 C1.04 17.21 1.05 20.32 1.06 23.44 C1.07 24.53 1.08 25.61 1.09 26.74 C1.09 27.77 1.09 28.81 1.1 29.87 C1.1 30.83 1.11 31.79 1.11 32.78 C1 35 1 35 0 36 C0.6 41.05 1.65 46.07 3.12 50.94 C4 54 4 54 4 58 C4.66 58 5.32 58 6 58 C6.78 60.56 7.52 63.12 8.25 65.69 C8.47 66.41 8.7 67.13 8.93 67.87 C10.01 71.81 10.35 73.32 8.42 77.08 C6 79 6 79 3.42 79.21 C-0.11 77.45 -0.46 75.36 -1.69 71.69 C-2.96 67.98 -4.22 64.49 -6 61 C-6.68 58.67 -7.35 56.34 -8 54 C-8.33 53.34 -8.66 52.68 -9 52 C-9.13 49.33 -9.04 46.68 -9 44 C-9.66 44 -10.32 44 -11 44 C-11.03 40.04 -11.05 36.08 -11.06 32.12 C-11.07 31.02 -11.08 29.91 -11.09 28.77 C-11.11 22.11 -10.83 15.61 -10 9 C-9.34 9 -8.68 9 -8 9 C-8 7.68 -8 6.36 -8 5 C-6.19 3.62 -6.19 3.62 -4 3 C-3.01 3.66 -2.02 4.32 -1 5 C-0.67 3.35 -0.34 1.7 0 0 Z " fill="#AE3234" transform="translate(576,228)"/>
<path d="M0 0 C4.95 0 9.9 0 15 0 C15 12.54 15 25.08 15 38 C10.05 38 5.1 38 0 38 C0 25.46 0 12.92 0 0 Z " fill="#566167" transform="translate(434,481)"/>
<path d="M0 0 C3.24 3.77 4.97 8.09 6.88 12.62 C7.22 13.46 7.57 14.29 7.93 15.15 C10.3 20.95 12.31 26.78 14 32.81 C14.21 33.55 14.41 34.28 14.63 35.04 C15.76 39.29 16 42.49 16 47 C20.29 47 24.58 47 29 47 C29 47.33 29 47.66 29 48 C12.83 48 -3.34 48 -20 48 C-20 47.67 -20 47.34 -20 47 C-12.74 47 -5.48 47 2 47 C0.68 43.7 -0.64 40.4 -2 37 C-2.16 35.83 -2.33 34.65 -2.5 33.45 C-3.17 28.82 -5.01 25.07 -7 20.88 C-11.43 11.44 -11.43 11.44 -12 7 C-9.76 8.92 -8.88 10.28 -7.69 13.06 C-5.57 16.75 -4 16.96 0 18 C0.33 18.66 0.66 19.32 1 20 C3.09 13.98 3.01 11.8 0.66 6.07 C0 4 0 4 0 0 Z " fill="#A93639" transform="translate(568,308)"/>
<path d="M0 0 C0.7 0.54 1.4 1.07 2.12 1.62 C2.12 2.28 2.12 2.94 2.12 3.62 C2.91 3.69 3.69 3.75 4.5 3.81 C7.12 4.62 7.12 4.62 8.44 7.19 C8.55 7.59 8.55 7.59 9.12 9.62 C8.57 9.29 8.01 8.95 7.44 8.6 C-4.79 1.46 -4.79 1.46 -12.25 3.56 C-24.93 8.61 -34.04 18.94 -38.88 31.62 C-41.53 39.55 -43.55 47.26 -43.88 55.62 C-43.93 56.43 -43.98 57.23 -44.03 58.05 C-44.57 72.88 -40.69 86.18 -34.88 99.62 C-33.8 102.61 -32.83 105.6 -31.88 108.62 C-32.53 108.62 -33.2 108.62 -33.88 108.62 C-33.88 107.97 -33.88 107.31 -33.88 106.62 C-34.53 106.62 -35.2 106.62 -35.88 106.62 C-36 105.99 -36.12 105.35 -36.25 104.69 C-36.88 102.62 -36.88 102.62 -38.88 101.62 C-39.51 98.9 -39.51 98.9 -40 95.56 C-40.08 95.01 -40.08 95.01 -40.51 92.21 C-40.57 91.79 -40.57 91.79 -40.88 89.62 C-41.53 89.62 -42.2 89.62 -42.88 89.62 C-42.94 89.29 -42.94 89.29 -43.24 87.61 C-43.41 86.73 -43.58 85.85 -43.75 84.94 C-43.91 84.07 -44.07 83.2 -44.24 82.3 C-44.88 79.62 -44.88 79.62 -45.91 77.16 C-47 74.31 -47.28 71.85 -47.5 68.81 C-47.57 67.84 -47.65 66.86 -47.73 65.86 C-47.78 65.12 -47.82 64.38 -47.88 63.62 C-47.54 63.62 -47.22 63.62 -46.88 63.62 C-46.54 57.03 -46.22 50.43 -45.88 43.62 C-45.22 43.62 -44.55 43.62 -43.88 43.62 C-43.99 41.81 -44.12 40 -44.25 38.19 C-44.32 37.18 -44.39 36.17 -44.46 35.13 C-44.6 34.3 -44.73 33.48 -44.88 32.62 C-45.53 32.3 -46.2 31.97 -46.88 31.62 C-47.04 32.45 -47.04 32.45 -47.88 36.62 C-49.52 36.3 -51.17 35.97 -52.88 35.62 C-51.19 24.33 -51.19 24.33 -47.88 19.62 C-47.18 17.97 -46.5 16.31 -45.88 14.62 C-44.88 16.62 -44.88 16.62 -45.88 19.62 C-45.13 19.44 -44.39 19.25 -43.62 19.06 C-40.93 18.63 -39.43 18.77 -36.88 19.62 C-36.88 18.63 -36.88 17.65 -36.88 16.62 C-35.55 16.62 -34.24 16.62 -32.88 16.62 C-32.88 15.63 -32.88 14.65 -32.88 13.62 C-33.53 13.62 -34.2 13.62 -34.88 13.62 C-34.88 12.97 -34.88 12.31 -34.88 11.62 C-34.38 11.6 -34.38 11.6 -31.88 11.5 C-26.96 10.83 -23.45 7.92 -19.88 4.62 C-19.54 3.97 -19.22 3.31 -18.88 2.62 C-17.55 2.62 -16.24 2.62 -14.88 2.62 C-14.88 1.97 -14.88 1.31 -14.88 0.62 C-9.51 -1.42 -5.34 -2.56 0 0 Z " fill="#AA3635" transform="translate(622.875,196.375)"/>
<path d="M0 0 C0.66 0 1.32 0 2 0 C2 1.32 2 2.64 2 4 C2.99 4 3.98 4 5 4 C5.07 9.1 5.13 14.21 5.16 19.31 C5.18 21.05 5.2 22.78 5.23 24.51 C5.26 27.02 5.28 29.52 5.29 32.03 C5.31 32.79 5.32 33.55 5.34 34.34 C5.34 39.31 4.46 43.36 2.72 48.03 C1.74 50.7 1.26 53.38 0.81 56.19 C0.73 56.67 0.73 56.67 0.33 59.11 C0 62 0 62 0.14 65.24 C0.09 66.15 0.05 67.06 0 68 C-0.99 68.66 -1.98 69.32 -3 70 C-3.69 72.62 -3.69 72.62 -4 75 C-4.66 75 -5.32 75 -6 75 C-7.67 79.03 -9.07 83.11 -10.44 87.25 C-10.66 87.91 -10.88 88.58 -11.1 89.26 C-11.74 91.17 -12.37 93.09 -13 95 C-13.56 96.69 -14.12 98.38 -14.69 100.06 C-14.92 100.76 -15.14 101.45 -15.38 102.17 C-15.92 103.75 -16.52 105.32 -17.12 106.88 C-18.43 111.54 -18.65 116.17 -19 121 C-11.74 120.67 -4.48 120.34 3 120 C3 119.01 3 118.02 3 117 C3.66 117 4.32 117 5 117 C5.12 116.32 5.25 115.64 5.38 114.94 C6 112 6 112 7.06 108.44 C8 105 8 105 8 101 C8.61 99.31 9.27 97.64 10 96 C11.65 96 13.3 96 15 96 C15.16 95.5 15.16 95.5 16 93 C16.66 92.34 17.32 91.68 18 91 C18.62 88.38 18.62 88.38 19 86 C19.66 86 20.32 86 21 86 C21.33 85.34 21.66 84.68 22 84 C22.66 84 23.32 84 24 84 C22.7 87.44 21.2 90.58 19.36 93.77 C18.84 94.66 18.33 95.55 17.8 96.46 C17.27 97.38 16.74 98.3 16.19 99.25 C14.62 101.96 13.06 104.67 11.5 107.39 C10.52 109.1 9.53 110.8 8.53 112.5 C8.09 113.28 7.64 114.06 7.18 114.86 C6.78 115.54 6.38 116.22 5.97 116.92 C5 119 5 119 4 124 C-9.2 124 -22.4 124 -36 124 C-36 123.67 -36 123.34 -36 123 C-31.71 123 -27.42 123 -23 123 C-22.97 122.05 -22.97 122.05 -22.81 117.25 C-22.62 111.27 -20.79 106.74 -18.41 101.27 C-16.01 95.7 -13.97 90 -11.88 84.31 C-11.45 83.15 -11.02 82 -10.57 80.8 C-7.04 71.22 -3.81 61.74 -1.38 51.81 C-1.16 50.95 -0.94 50.09 -0.72 49.2 C1.46 40.41 2.18 32.3 2.19 23.25 C2.2 22.12 2.21 20.99 2.22 19.83 C2.24 12.97 1.67 6.66 0 0 Z " fill="#914D4D" transform="translate(648,232)"/>
<path d="M0 0 C1.01 0.01 2.02 0.02 3.07 0.03 C3.46 0.03 3.46 0.03 5.44 0.06 C5.56 5.08 5.65 10.1 5.71 15.11 C5.74 16.82 5.77 18.52 5.81 20.23 C5.88 22.69 5.9 25.14 5.93 27.6 C5.95 28.36 5.98 29.11 6 29.89 C6.01 33.75 5.62 36.41 3.34 39.59 C-0.22 42.62 -2.01 42.6 -6.56 42.06 C-6.59 36.24 -6.61 30.42 -6.62 24.6 C-6.62 22.62 -6.63 20.64 -6.64 18.66 C-6.65 15.81 -6.66 12.97 -6.66 10.13 C-6.67 9.24 -6.67 8.35 -6.68 7.43 C-6.68 -0.08 -6.68 -0.08 0 0 Z " fill="#5D686F" transform="translate(625.5625,613.9375)"/>
<path d="M0 0 C0.33 0 0.66 0 1 0 C1.33 2.64 1.66 5.28 2 8 C2.66 7.67 3.32 7.34 4 7 C4.34 19.03 4.43 30.35 1 42 C0.81 42.68 0.61 43.36 0.41 44.06 C-8.26 74.13 -8.26 74.13 -16 78 C-15.67 75.69 -15.34 73.38 -15 71 C-14.34 71 -13.68 71 -13 71 C-12.95 69.52 -12.91 68.04 -12.88 66.56 C-12.85 65.74 -12.83 64.92 -12.8 64.07 C-12.87 63.38 -12.93 62.7 -13 62 C-13.66 61.67 -14.32 61.34 -15 61 C-16.12 58.94 -16.12 58.94 -17 57 C-17 59.31 -17 61.62 -17 64 C-18.98 63.67 -20.96 63.34 -23 63 C-23 64.32 -23 65.64 -23 67 C-23.5 67.16 -23.5 67.16 -26 68 C-24.74 63.84 -23.12 60.07 -21.18 56.19 C-13.77 41.26 -11.36 27.57 -11 11 C-10.67 11 -10.34 11 -10 11 C-8.28 17.65 -8.84 24.08 -9.77 30.79 C-11.12 40.69 -10.86 50.07 -10 60 C-9.34 60 -8.68 60 -8 60 C-7.9 59.03 -7.79 58.06 -7.69 57.06 C-7.57 56.56 -7.57 56.56 -7 54 C-6.5 53.83 -6.5 53.83 -4 53 C-4.04 52.09 -4.08 51.19 -4.12 50.25 C-4 47 -4 47 -3.03 45.27 C-1.56 42.03 -1.6 39.03 -1.44 35.5 C-1.09 28.34 -1.09 28.34 -0.49 26.13 C0.12 23.49 0.11 21.07 0.1 18.36 C0.1 17.82 0.1 17.82 0.09 15.12 C0.08 14.01 0.07 12.89 0.06 11.75 C0.06 10.62 0.05 9.5 0.05 8.34 C0.04 5.56 0.02 2.78 0 0 Z " fill="#A0393C" transform="translate(688,237)"/>
<path d="M0 0 C3.3 0 6.6 0 10 0 C10.22 3.98 10.39 7.96 10.49 11.95 C10.56 13.96 10.68 15.98 10.79 17.99 C11.01 27.63 11.01 27.63 7.99 31.72 C2.12 37 2.12 37 0 37 C0 24.79 0 12.58 0 0 Z " fill="#5C666E" transform="translate(460,481)"/>
<path d="M0 0 C3.3 0 6.6 0 10 0 C10 12.21 10 24.42 10 37 C9.67 36.34 9.34 35.68 9 35 C7.36 34.28 5.69 33.61 4 33 C4 32.34 4 31.68 4 31 C2.68 30.67 1.36 30.34 0 30 C0 20.1 0 10.2 0 0 Z " fill="#5E666D" transform="translate(412,481)"/>
<path d="M0 0 C0.33 0 0.66 0 1 0 C1.03 0.99 1.05 1.98 1.08 2.99 C1.17 6.69 1.27 10.39 1.37 14.09 C1.42 15.68 1.46 17.28 1.5 18.87 C1.56 21.17 1.62 23.48 1.68 25.78 C1.7 26.48 1.72 27.19 1.73 27.91 C1.75 28.59 1.77 29.27 1.79 29.97 C1.81 30.56 1.83 31.14 1.84 31.75 C1.98 33.75 2.24 35.75 2.51 37.75 C3.03 41.86 3.13 45.93 3.11 50.07 C3.11 50.83 3.11 51.59 3.11 52.38 C3.11 54.87 3.11 57.35 3.1 59.84 C3.1 61.58 3.09 63.32 3.09 65.06 C3.09 69.61 3.08 74.16 3.07 78.71 C3.06 83.36 3.05 88.01 3.05 92.66 C3.04 101.78 3.02 110.89 3 120 C2.34 120 1.68 120 1 120 C0.67 121.32 0.34 122.64 0 124 C0 83.08 0 42.16 0 0 Z " fill="#20252B" transform="translate(308,652)"/>
<path d="M0 0 C0.66 0.66 1.32 1.32 2 2 C1.6 6.15 -0.02 9.84 -1.56 13.69 C-4 19.78 -4 19.78 -4 22 C-0.7 16.06 2.6 10.12 6 4 C6.33 4.99 6.66 5.98 7 7 C6.04 8.69 5.03 10.35 4 12 C3.67 13.03 3.34 14.06 3 15.12 C1.99 18.03 1.2 18.99 -1 21 C-1.18 21.36 -1.18 21.36 -2.06 23.19 C-2.37 23.79 -2.68 24.38 -3 25 C-3.66 25 -4.32 25 -5 25 C-5.14 25.37 -5.14 25.37 -5.88 27.25 C-6.82 29.57 -7.85 31.78 -9 34 C-10.48 31.04 -10.06 28.26 -10 25 C-11.81 24.31 -11.81 24.31 -14 24 C-15.62 25.44 -15.62 25.44 -17 27 C-17.66 27 -18.32 27 -19 27 C-19.14 27.78 -19.29 28.57 -19.44 29.38 C-20 32 -20 32 -21 34 C-21.66 34 -22.32 34 -23 34 C-22.56 28.86 -21.25 24.95 -19.05 20.29 C-17.51 16.93 -16.26 13.48 -15 10 C-14.34 10.66 -13.68 11.32 -13 12 C-10 12 -10 12 -8 10 C-7.67 11.32 -7.34 12.64 -7 14 C-6.34 14 -5.68 14 -5 14 C-4.67 13.01 -4.34 12.02 -4 11 C-3.34 11 -2.68 11 -2 11 C-1.34 7.37 -0.68 3.74 0 0 Z " fill="#A53A3A" transform="translate(655,301)"/>
<path d="M0 0 C0.66 0 1.32 0 2 0 C2.12 0.64 2.24 1.28 2.37 1.94 C2.53 2.81 2.7 3.67 2.88 4.56 C3.04 5.41 3.2 6.26 3.37 7.13 C5.08 14.89 7.92 21.93 11 29.25 C11.45 30.34 11.9 31.43 12.37 32.55 C15.74 40.61 15.74 40.61 18 44 C18 44.99 18 45.98 18 47 C18.66 47 19.32 47 20 47 C20.99 49.97 21.98 52.94 23 56 C23.99 56 24.98 56 26 56 C26 58.31 26 60.62 26 63 C26.66 63 27.32 63 28 63 C30.22 68.95 32.36 74.86 34 81 C37.3 81.33 40.6 81.66 44 82 C43.67 81.67 43.67 81.67 42 80 C41.59 77.18 41.59 77.18 41.38 73.88 C41.3 72.78 41.23 71.68 41.15 70.55 C41.1 69.71 41.05 68.87 41 68 C40.34 68 39.68 68 39 68 C38.87 67.52 38.87 67.52 38.2 65.08 C37.84 63.81 37.49 62.55 37.12 61.25 C36.78 60 36.43 58.74 36.07 57.45 C35 54 35 54 33.8 51.8 C32.77 49.48 33.31 48.38 34 46 C35.64 49.64 37.26 53.29 38.88 56.94 C39.34 57.96 39.8 58.98 40.27 60.03 C43.68 67.78 46 74.5 46 83 C41.38 83 36.76 83 32 83 C31.43 81.5 30.86 79.99 30.27 78.45 C25.3 65.6 19.78 53.26 13.49 41.01 C10.08 34.31 7.15 27.78 4.85 20.62 C4.13 18.39 3.29 16.41 2.25 14.31 C0.48 9.62 0.26 4.97 0 0 Z " fill="#8D494D" transform="translate(565,272)"/>
<path d="M0 0 C0.66 0.33 1.32 0.66 2 1 C2 2.32 2 3.64 2 5 C2.66 5 3.32 5 4 5 C4 5.66 4 6.32 4 7 C4.99 7 5.98 7 7 7 C8.61 9.23 8.61 9.23 10.19 12.19 C10.72 13.15 11.25 14.11 11.79 15.11 C13.01 18.02 13.26 19.88 13 23 C11.68 22.67 10.36 22.34 9 22 C9 20.68 9 19.36 9 18 C8.34 18 7.68 18 7 18 C6.88 18.54 6.75 19.07 6.62 19.62 C5.88 22.46 4.95 25.22 4 28 C4.99 28 5.98 28 7 28 C6.67 29.32 6.34 30.64 6 32 C6 31.34 6 30.68 6 30 C5.01 30 4.02 30 3 30 C1.08 26.81 0 24.75 0 21 C-0.66 21 -1.32 21 -2 21 C-3.29 18.59 -3.29 18.59 -4.62 15.5 C-5.07 14.48 -5.52 13.46 -5.98 12.41 C-6.15 12.01 -6.15 12.01 -7 10 C-6.36 9.87 -5.73 9.74 -5.07 9.61 C-3 9 -3 9 -1.81 7.25 C-0.95 4.85 -0.42 2.52 0 0 Z " fill="#A73639" transform="translate(585,298)"/>
<path d="M0 0 C0 0.66 0 1.32 0 2 C-0.74 2.57 -1.49 3.14 -2.25 3.72 C-9.77 9.95 -13.79 21.28 -16.99 30.26 C-17.86 32.61 -18.82 34.79 -20 37 C-20.84 32.98 -21.05 29.98 -20 26 C-20.78 26.5 -21.57 26.99 -22.38 27.5 C-25 29 -25 29 -27 29 C-26.79 29.76 -26.59 30.53 -26.38 31.31 C-26 34 -26 34 -28 37 C-28.66 37 -29.32 37 -30 37 C-29.02 29.88 -27.31 24.75 -23 19 C-22.36 18.12 -21.72 17.24 -21.06 16.34 C-8.49 0 -8.49 0 0 0 Z " fill="#F3E0DE" transform="translate(585,199)"/>
<path d="M0 0 C3.45 0.02 6.89 0 10.34 -0.03 C12.57 -0.02 14.79 -0.02 17.02 -0.01 C17.52 -0.01 17.52 -0.01 20.09 -0.03 C30.45 0.1 39.58 3.13 48.2 8.83 C48.79 9.22 49.38 9.61 49.98 10.01 C53.93 12.68 57.38 15.56 60.56 19.11 C61.89 20.52 61.89 20.52 64.89 22.52 C65.05 23.02 65.05 23.02 65.89 25.52 C67.18 26.89 68.51 28.23 69.89 29.52 C69.56 30.18 69.23 30.84 68.89 31.52 C68.56 31.03 68.56 31.03 66.89 28.52 C66.39 28.36 66.39 28.36 63.89 27.52 C63.2 24.96 63.2 24.96 62.89 22.52 C61.9 22.52 60.91 22.52 59.89 22.52 C58.2 20.88 56.53 19.21 54.89 17.52 C54.39 17.36 54.39 17.36 51.89 16.52 C51.72 16.03 51.72 16.03 50.89 13.52 C50.29 13.38 49.69 13.23 49.08 13.08 C46.89 12.52 46.89 12.52 45.01 10.58 C42.48 8.12 40.26 7.44 36.89 6.52 C36.89 5.86 36.89 5.2 36.89 4.52 C36.08 4.54 35.28 4.56 34.45 4.58 C31.89 4.52 31.89 4.52 30.89 3.52 C29.35 3.42 27.8 3.38 26.25 3.38 C25.26 3.37 24.28 3.36 23.26 3.36 C22.18 3.36 21.1 3.35 19.99 3.35 C18.88 3.35 17.77 3.35 16.63 3.34 C14.28 3.34 11.93 3.34 9.57 3.34 C6 3.33 2.42 3.32 -1.15 3.3 C-3.44 3.29 -5.73 3.29 -8.01 3.29 C-8.54 3.29 -8.54 3.29 -11.23 3.27 C-27.91 3.32 -27.91 3.32 -31.11 6.52 C-32.78 6.56 -34.44 6.56 -36.11 6.52 C-34.29 2.87 -30.29 2.47 -26.57 1.38 C-17.92 -0.56 -8.81 -0.07 0 0 Z " fill="#884A4D" transform="translate(612.111083984375,180.478515625)"/>
<path d="M0 0 C0.66 0.33 1.32 0.66 2 1 C1.42 2.03 0.85 3.06 0.25 4.12 C-4.21 13.08 -6.61 23.03 -7 33 C-7.05 33.8 -7.1 34.6 -7.16 35.43 C-7.7 50.25 -3.82 63.56 2 77 C3.07 79.98 4.05 82.98 5 86 C4.34 86 3.68 86 3 86 C3 85.34 3 84.68 3 84 C2.34 84 1.68 84 1 84 C0.88 83.36 0.75 82.72 0.62 82.06 C0 80 0 80 -2 79 C-2.63 76.28 -2.63 76.28 -3.12 72.94 C-3.21 72.39 -3.21 72.39 -3.63 69.59 C-3.69 69.16 -3.69 69.16 -4 67 C-4.66 67 -5.32 67 -6 67 C-6.06 66.67 -6.06 66.67 -6.37 64.99 C-6.53 64.11 -6.7 63.22 -6.88 62.31 C-7.04 61.44 -7.2 60.57 -7.37 59.68 C-8 57 -8 57 -9.03 54.53 C-10.12 51.69 -10.41 49.22 -10.62 46.19 C-10.7 45.21 -10.77 44.24 -10.85 43.23 C-10.9 42.49 -10.95 41.76 -11 41 C-10.67 41 -10.34 41 -10 41 C-9.67 34.4 -9.34 27.8 -9 21 C-8.34 21 -7.68 21 -7 21 C-7.33 16.05 -7.66 11.1 -8 6 C-7.34 6.66 -6.68 7.32 -6 8 C-5.01 7.67 -4.02 7.34 -3 7 C-3 5.35 -3 3.7 -3 2 C-2.01 2 -1.02 2 0 2 C0 1.34 0 0.68 0 0 Z " fill="#8C4041" transform="translate(586,219)"/>
<path d="M0 0 C1.65 0 3.3 0 5 0 C4.17 0.95 3.35 1.9 2.5 2.88 C-9.77 17.24 -9.77 17.24 -12 23 C-12.28 23.67 -12.55 24.34 -12.84 25.04 C-17.75 39.26 -15.44 56.46 -13 71 C-12.66 73.33 -12.33 75.67 -12 78 C-14.78 75.22 -15.94 73.22 -16.12 69.25 C-16.08 68.51 -16.04 67.76 -16 67 C-16.66 67 -17.32 67 -18 67 C-18.05 61.79 -18.09 56.57 -18.11 51.36 C-18.12 49.58 -18.13 47.81 -18.15 46.03 C-18.18 43.49 -18.19 40.94 -18.2 38.39 C-18.21 37.59 -18.22 36.8 -18.23 35.98 C-18.23 32.12 -18.19 30.29 -16 27 C-15.21 24.41 -14.54 21.8 -13.88 19.18 C-13.59 18.46 -13.3 17.74 -13 17 C-12.01 16.67 -11.02 16.34 -10 16 C-10.04 15.05 -10.08 14.1 -10.12 13.12 C-10 10 -10 10 -8 8 C-6.68 8 -5.36 8 -4 8 C-4.33 7.01 -4.66 6.02 -5 5 C-4.34 5 -3.68 5 -3 5 C-2.67 4.01 -2.34 3.02 -2 2 C-1.34 2 -0.68 2 0 2 C0 1.34 0 0.68 0 0 Z " fill="#904143" transform="translate(569,205)"/>
<path d="M0 0 C1.65 0 3.3 0 5 0 C3.68 0.33 2.36 0.66 1 1 C1 18.49 1 35.98 1 54 C1.66 54 2.32 54 3 54 C3 64.56 3 75.12 3 86 C6.96 86.33 10.92 86.66 15 87 C15 87.66 15 88.32 15 89 C10.05 89 5.1 89 0 89 C-1.26 85.21 -1.09 81.71 -1.02 77.76 C-1.01 76.93 -1 76.09 -0.99 75.22 C-0.96 72.45 -0.92 69.67 -0.88 66.89 C-0.85 64.97 -0.83 63.05 -0.81 61.12 C-0.74 56.06 -0.68 50.99 -0.61 45.93 C-0.53 40.76 -0.47 35.59 -0.4 30.42 C-0.28 20.28 -0.14 10.14 0 0 Z " fill="#7E878C" transform="translate(401,634)"/>
<path d="M0 0 C7.59 0 15.18 0 23 0 C23 2.64 23 5.28 23 8 C15.41 8 7.82 8 0 8 C0 5.36 0 2.72 0 0 Z " fill="#FBFBFB" transform="translate(409,550)"/>
<path d="M0 0 C0 0.99 0 1.98 0 3 C0.99 3.33 1.98 3.66 3 4 C4.12 7.44 4.12 7.44 5 11 C5.33 11.66 5.66 12.32 6 13 C5.67 13.17 5.67 13.17 4 14 C3.27 15.98 2.6 17.98 2 20 C1.67 19.01 1.34 18.02 1 17 C0.34 17 -0.32 17 -1 17 C-1.33 17.66 -1.66 18.32 -2 19 C-2 18.01 -2 17.02 -2 16 C-2.61 15.91 -3.23 15.83 -3.86 15.74 C-6.63 14.78 -7.03 13.81 -8.25 11.19 C-8.59 10.5 -8.92 9.81 -9.27 9.11 C-10 7 -10 7 -10 3 C-6.67 0.34 -4.22 -0.36 0 0 Z " fill="#B13234" transform="translate(567,309)"/>
<path d="M0 0 C7.26 0 14.52 0 22 0 C22 2.64 22 5.28 22 8 C14.74 8 7.48 8 0 8 C0 5.36 0 2.72 0 0 Z " fill="#F8F9F9" transform="translate(577,550)"/>
<path d="M0 0 C0.33 0.66 0.66 1.32 1 2 C-0.27 5.14 -1.21 7.43 -4 9.44 C-8.66 13.08 -9.35 19.43 -10.46 24.93 C-11.16 27.62 -12.48 29.68 -14 32 C-14.69 34.31 -14.69 34.31 -15 36 C-15.66 36 -16.32 36 -17 36 C-17.33 47.55 -17.66 59.1 -18 71 C-18.33 71 -18.66 71 -19 71 C-20 64.32 -20.22 57.75 -20.25 51 C-20.27 49.96 -20.29 48.92 -20.31 47.84 C-20.34 41.51 -19.63 36.74 -17 31 C-16.55 29.8 -16.1 28.6 -15.64 27.36 C-11.84 17.5 -7.88 7.34 0 0 Z " fill="#8E4545" transform="translate(583,201)"/>
<path d="M0 0 C0 0.99 0 1.98 0 3 C2.31 3.33 4.62 3.66 7 4 C3.59 5.04 0.48 5.12 -3.08 5.1 C-4.24 5.09 -5.4 5.09 -6.59 5.09 C-7.8 5.08 -9.01 5.07 -10.25 5.06 C-11.47 5.06 -12.69 5.05 -13.95 5.05 C-16.97 5.04 -19.98 5.02 -23 5 C-23 4.67 -23 4.34 -23 4 C-21.35 4 -19.7 4 -18 4 C-18 3.34 -18 2.68 -18 2 C-20.15 2.31 -22.29 2.62 -24.44 2.94 C-25.63 3.11 -26.83 3.29 -28.06 3.46 C-31 4 -31 4 -32 5 C-34 5.04 -36 5.04 -38 5 C-38 4.34 -38 3.68 -38 3 C-45.26 2.67 -52.52 2.34 -60 2 C-60 1.67 -60 1.34 -60 1 C-53.87 0.86 -47.73 0.71 -41.6 0.57 C-39.52 0.52 -37.44 0.48 -35.36 0.43 C-23.57 0.15 -11.79 -0.08 0 0 Z " fill="#2D2225" transform="translate(612,355)"/>
<path d="M0 0 C0.16 0.33 0.16 0.33 1 2 C0.03 2.6 -0.94 3.2 -1.94 3.81 C-5 6 -5 6 -6 9 C-6.99 9 -7.98 9 -9 9 C-9.7 10.32 -10.37 11.65 -11 13 C-11.66 13 -12.32 13 -13 13 C-13 13.99 -13 14.98 -13 16 C-13.66 16 -14.32 16 -15 16 C-15.33 16.99 -15.66 17.98 -16 19 C-16.66 19 -17.32 19 -18 19 C-18 19.66 -18 20.32 -18 21 C-18.66 21.33 -19.32 21.66 -20 22 C-20.63 23.85 -20.63 23.85 -21.12 26.06 C-21.29 26.8 -21.46 27.53 -21.63 28.29 C-21.75 28.85 -21.88 29.42 -22 30 C-22.99 30 -23.98 30 -25 30 C-25.18 30.55 -25.36 31.09 -25.55 31.65 C-26.08 33.24 -26.61 34.82 -27.14 36.41 C-27.71 38.11 -28.26 39.82 -28.8 41.53 C-29.05 42.33 -29.3 43.12 -29.56 43.94 C-29.79 44.67 -30.02 45.4 -30.25 46.15 C-31 48 -31 48 -33 50 C-33 32.81 -21.83 18.19 -9.75 7 C-6.67 4.26 -3.59 2.04 0 0 Z " fill="#8D4545" transform="translate(572,188)"/>
<path d="M0 0 C0.7 0.54 1.4 1.07 2.12 1.62 C2.12 2.28 2.12 2.94 2.12 3.62 C2.91 3.69 3.69 3.75 4.5 3.81 C7.12 4.62 7.12 4.62 8.44 7.19 C8.55 7.59 8.55 7.59 9.12 9.62 C8.57 9.29 8.01 8.95 7.44 8.6 C-4.79 1.46 -4.79 1.46 -12.25 3.56 C-21.66 7.28 -28.22 13.37 -33.88 21.62 C-35.08 18 -34.42 16.98 -32.88 13.62 C-33.53 13.62 -34.2 13.62 -34.88 13.62 C-34.88 12.97 -34.88 12.31 -34.88 11.62 C-33.88 11.58 -32.89 11.54 -31.88 11.5 C-26.96 10.83 -23.45 7.92 -19.88 4.62 C-19.54 3.97 -19.22 3.31 -18.88 2.62 C-17.55 2.62 -16.24 2.62 -14.88 2.62 C-14.88 1.97 -14.88 1.31 -14.88 0.62 C-9.51 -1.42 -5.34 -2.56 0 0 Z " fill="#9A4E50" transform="translate(622.875,196.375)"/>
<path d="M0 0 C30.69 -0.31 30.69 -0.31 34 3 C30.44 5.37 29.13 5.19 24.94 5.01 C23.75 4.96 22.56 4.92 21.33 4.87 C20.71 4.84 20.71 4.84 17.56 4.69 C16.32 4.64 15.08 4.59 13.8 4.54 C3.77 4.11 3.77 4.11 0 3 C0 2.01 0 1.02 0 0 Z " fill="#3C292D" transform="translate(626,355)"/>
<path d="M0 0 C0.66 0 1.32 0 2 0 C0.71 3.41 -0.78 6.54 -2.61 9.7 C-3.11 10.57 -3.62 11.45 -4.14 12.35 C-4.67 13.27 -5.2 14.18 -5.75 15.12 C-6.83 17.01 -7.92 18.89 -9 20.77 C-9.52 21.67 -10.04 22.57 -10.57 23.5 C-13.12 27.96 -15.58 32.47 -18 37 C-18.33 35.68 -18.66 34.36 -19 33 C-18.34 33 -17.68 33 -17 33 C-16.88 32.32 -16.75 31.64 -16.62 30.94 C-16 28 -16 28 -14.94 24.44 C-14 21 -14 21 -14 17 C-13.39 15.31 -12.73 13.64 -12 12 C-10.35 12 -8.7 12 -7 12 C-6.67 11.01 -6.34 10.02 -6 9 C-5.34 8.34 -4.68 7.68 -4 7 C-3.38 4.38 -3.38 4.38 -3 2 C-2.34 2 -1.68 2 -1 2 C-0.67 1.34 -0.34 0.68 0 0 Z " fill="#9C3E41" transform="translate(670,316)"/>
<path d="M0 0 C0.33 0 0.66 0 1 0 C2.94 7.53 1.97 15.14 1.12 22.75 C1.05 23.48 0.97 24.22 0.89 24.97 C0.41 28.94 -0.3 32.38 -2 36 C-2.66 36 -3.32 36 -4 36 C-4.29 36.87 -4.58 37.73 -4.88 38.62 C-5.92 41.75 -6.96 44.88 -8 48 C-8.66 48 -9.32 48 -10 48 C-10 49.32 -10 50.64 -10 52 C-10.66 52 -11.32 52 -12 52 C-12 53.32 -12 54.64 -12 56 C-12.5 56.17 -12.5 56.17 -15 57 C-13.74 52.84 -12.12 49.07 -10.18 45.19 C-2.77 30.26 -0.36 16.57 0 0 Z " fill="#8F4A4A" transform="translate(677,248)"/>
<path d="M0 0 C0.98 3.05 0.98 4.95 0 8 C0.33 8 0.66 8 1 8 C1 10.64 1 13.28 1 16 C8.26 15.67 15.52 15.34 23 15 C23.16 15.66 23.16 15.66 24 19 C10.8 19 -2.4 19 -16 19 C-16 18.67 -16 18.34 -16 18 C-11.71 18 -7.42 18 -3 18 C-2.88 15.96 -2.75 13.92 -2.62 11.81 C-2.36 7.44 -1.85 3.98 0 0 Z " fill="#99565A" transform="translate(628,337)"/>
<path d="M0 0 C3.25 4.09 5.06 8.4 7.06 13.19 C7.41 14 7.77 14.81 8.13 15.65 C11.12 22.76 13 29.25 13 37 C8.38 37 3.76 37 -1 37 C-3 32 -3 32 -2 29 C0 31 0 31 1 35 C4.3 35.33 7.6 35.66 11 36 C10.34 35.34 9.68 34.68 9 34 C8.59 31.18 8.59 31.18 8.38 27.88 C8.34 27.33 8.34 27.33 8.15 24.55 C8.1 23.71 8.05 22.87 8 22 C7.34 22 6.68 22 6 22 C5.73 21.04 5.47 20.07 5.2 19.08 C4.84 17.81 4.49 16.55 4.12 15.25 C3.95 14.62 3.95 14.62 3.07 11.45 C2 8 2 8 0.87 5.8 C0 4 0 4 0 0 Z " fill="#914D53" transform="translate(598,318)"/>
<path d="M0 0 C8.21 12.31 6.66 33.09 4.5 47.06 C4.36 48.02 4.21 48.98 4.07 49.97 C3.72 52.32 3.36 54.66 3 57 C2.67 57 2.34 57 2 57 C1.97 55.46 1.95 53.92 1.94 52.38 C1.93 51.52 1.91 50.66 1.9 49.77 C2 47 2 47 2.5 44.18 C3.11 40.34 3.15 36.63 3.12 32.75 C3.13 32.03 3.13 31.31 3.14 30.57 C3.13 25.25 3.13 25.25 2 23 C1.82 21.11 1.68 19.21 1.56 17.31 C1.3 13.72 0.99 10.43 -0.12 7 C-0.98 4.06 -1.12 2.8 0 0 Z " fill="#914E54" transform="translate(661,225)"/>
<path d="M0 0 C1.94 0.94 1.94 0.94 4 3 C4.67 6.03 4.82 8.88 5 12 C8.96 12 12.92 12 17 12 C16.84 10.68 16.84 10.68 16 4 C18 7 18 7 18 13 C22.29 13 26.58 13 31 13 C31 13.33 31 13.66 31 14 C14.83 14 -1.34 14 -18 14 C-18 13.67 -18 13.34 -18 13 C-10.74 13 -3.48 13 4 13 C2.68 9.7 1.36 6.4 0 3 C0 2.01 0 1.02 0 0 Z " fill="#785255" transform="translate(566,342)"/>
<path d="M0 0 C0.66 0.33 1.32 0.66 2 1 C1.42 2.03 0.85 3.06 0.25 4.12 C-4.22 13.1 -6.54 23.01 -7 33 C-9.57 30.43 -9.22 29.42 -9.12 25.88 C-9.11 24.96 -9.09 24.05 -9.07 23.12 C-9.05 22.42 -9.02 21.72 -9 21 C-8.34 21 -7.68 21 -7 21 C-7.33 16.05 -7.66 11.1 -8 6 C-7.34 6.66 -6.68 7.32 -6 8 C-5.01 7.67 -4.02 7.34 -3 7 C-3 5.35 -3 3.7 -3 2 C-2.01 2 -1.02 2 0 2 C0 1.34 0 0.68 0 0 Z " fill="#944548" transform="translate(586,219)"/>
<path d="M0 0 C1.75 2.62 2.61 4.5 3.56 7.44 C3.69 7.82 3.69 7.82 4.32 9.75 C5.56 13.85 6.12 17.32 6.1 21.64 C6.1 22.18 6.1 22.18 6.09 24.88 C6.08 25.99 6.07 27.11 6.06 28.25 C6.06 29.38 6.05 30.5 6.05 31.66 C6.04 34.44 6.02 37.22 6 40 C5.67 40 5.34 40 5 40 C4.95 38.81 4.9 37.62 4.85 36.39 C4.78 34.82 4.7 33.25 4.62 31.69 C4.59 30.9 4.56 30.12 4.53 29.31 C4.49 28.55 4.45 27.79 4.41 27.01 C4.4 26.66 4.4 26.66 4.32 24.9 C4 23 4 23 2 20 C0.41 13.37 -0.26 6.8 0 0 Z " fill="#AF6867" transform="translate(687,225)"/>
<path d="M0 0 C0.92 -0 1.85 -0 2.8 -0 C9.47 0.11 9.47 0.11 12.88 2.38 C12.26 2.39 11.65 2.41 11.01 2.44 C8.18 2.53 5.34 2.64 2.5 2.75 C1.53 2.78 0.57 2.81 -0.43 2.84 C-17.27 3.52 -17.27 3.52 -20.12 6.38 C-21.79 6.42 -23.46 6.42 -25.12 6.38 C-23.3 2.72 -19.09 2.31 -15.37 1.2 C-10.28 0.04 -5.2 0 0 0 Z " fill="#86484D" transform="translate(601.125,180.625)"/>
<path d="M0 0 C1 3 1 3 1 6 C1.99 5.34 2.98 4.68 4 4 C2.24 8.8 -0.12 13.24 -2.5 17.75 C-2.9 18.53 -3.31 19.31 -3.72 20.11 C-4.11 20.85 -4.5 21.6 -4.91 22.36 C-5.26 23.03 -5.61 23.71 -5.98 24.41 C-7 26 -7 26 -9 27 C-8.36 21.97 -6.89 17.62 -5.06 12.94 C-4.93 12.59 -4.93 12.59 -4.26 10.83 C-2.87 7.21 -1.45 3.6 0 0 Z " fill="#E5AEB0" transform="translate(659,297)"/>
<path d="M0 0 C0.33 0 0.66 0 1 0 C0.34 13.2 -0.32 26.4 -1 40 C-1.33 40 -1.66 40 -2 40 C-3 33.32 -3.22 26.75 -3.25 20 C-3.27 18.96 -3.29 17.92 -3.31 16.84 C-3.34 10.49 -2.65 5.79 0 0 Z " fill="#A2585B" transform="translate(566,232)"/>
<path d="M0 0 C0 0.66 0 1.32 0 2 C-0.74 2.55 -1.48 3.11 -2.24 3.68 C-5.57 6.48 -7.18 9.33 -9.19 13.12 C-12.79 19.79 -12.79 19.79 -15 22 C-14.39 17.14 -12.27 13.26 -10 9 C-10.99 9 -11.98 9 -13 9 C-13.7 10.32 -14.37 11.65 -15 13 C-15.66 13 -16.32 13 -17 13 C-15.47 8.86 -12.5 6.76 -9.06 4.25 C-8.52 3.84 -7.99 3.43 -7.43 3 C-3.38 0 -3.38 0 0 0 Z " fill="#DFA59E" transform="translate(585,199)"/>
<path d="M0 0 C8.97 -0.9 17 8.7 23.32 14.24 C25 16 25 16 26 19 C27.29 20.37 28.62 21.71 30 23 C29.67 23.66 29.34 24.32 29 25 C28.34 24.01 27.68 23.02 27 22 C26.01 21.67 25.02 21.34 24 21 C23.31 18.44 23.31 18.44 23 16 C22.01 16 21.02 16 20 16 C18.31 14.35 16.65 12.69 15 11 C14.01 10.67 13.02 10.34 12 10 C11.67 9.01 11.34 8.02 11 7 C10.4 6.86 9.8 6.71 9.19 6.56 C6.25 5.81 5.05 4.18 3 2 C2.01 1.34 1.02 0.68 0 0 Z " fill="#965558" transform="translate(652,187)"/>
<path d="M0 0 C0.33 0.16 0.33 0.16 2 1 C2 1.66 2 2.32 2 3 C2.99 3.33 3.98 3.66 5 4 C6.64 6.16 8.11 8.28 9.56 10.56 C9.96 11.16 10.36 11.75 10.77 12.37 C13.62 16.81 14.94 20.83 16 26 C15.34 26 14.68 26 14 26 C14 24.68 14 23.36 14 22 C13.01 21.67 12.02 21.34 11 21 C10 18.67 9 16.33 8 14 C7.01 13.67 6.02 13.34 5 13 C4.38 11.26 4.38 11.26 4 9.12 C3.31 5.83 2.67 4.18 0 2 C0 1.34 0 0.68 0 0 Z " fill="#8E4646" transform="translate(645,199)"/>
<path d="M0 0 C4.95 0 9.9 0 15 0 C15 0.99 15 1.98 15 3 C17.31 3.33 19.62 3.66 22 4 C18.59 5.04 15.48 5.12 11.92 5.1 C10.76 5.09 9.6 5.09 8.41 5.09 C7.2 5.08 5.99 5.07 4.75 5.06 C3.53 5.06 2.31 5.05 1.05 5.05 C-1.97 5.04 -4.98 5.02 -8 5 C-8 4.67 -8 4.34 -8 4 C-6.35 4 -4.7 4 -3 4 C-3 3.34 -3 2.68 -3 2 C-1.68 2 -0.36 2 1 2 C0.67 1.34 0.34 0.68 0 0 Z " fill="#38282F" transform="translate(597,355)"/>
<path d="M0 0 C3 1 3 1 3.91 2.67 C4.03 3.01 4.03 3.01 4.62 4.75 C4.86 5.43 5.1 6.1 5.35 6.8 C6 9 6 9 6.33 11.23 C7.51 16.11 10.04 20.47 12.29 24.94 C12.65 25.67 13.01 26.41 13.38 27.16 C13.72 27.83 14.05 28.49 14.4 29.18 C15 31 15 31 14 34 C9.74 25.86 5.71 17.74 2.5 9.12 C2.37 8.78 2.37 8.78 1.73 7.05 C0 2.29 0 2.29 0 0 Z " fill="#904B4F" transform="translate(541,281)"/>
<path d="M0 0 C2.4 3.59 2.26 6.15 2.2 10.29 C2.19 11 2.19 11.71 2.19 12.43 C2.18 14.68 2.15 16.94 2.12 19.19 C2.11 20.72 2.11 22.24 2.1 23.77 C2.08 27.51 2.04 31.26 2 35 C-0.52 30.47 -1.13 26.23 -1.13 21.09 C-1.13 20.18 -1.14 19.28 -1.14 18.34 C-1.13 17.4 -1.13 16.47 -1.12 15.5 C-1.13 14.56 -1.13 13.63 -1.14 12.66 C-1.14 11.75 -1.13 10.84 -1.13 9.91 C-1.13 9.08 -1.13 8.26 -1.13 7.42 C-0.99 4.86 -0.56 2.49 0 0 Z " fill="#83474B" transform="translate(538,238)"/>
<path d="M0 0 C0.33 0 0.66 0 1 0 C0.93 0.59 0.87 1.17 0.8 1.77 C-0.02 9.44 -0.34 17.09 -0.61 24.79 C-0.79 29.6 -1.03 34.26 -2 39 C-2.33 39 -2.66 39 -3 39 C-3.03 35.04 -3.05 31.08 -3.06 27.12 C-3.07 26.02 -3.08 24.91 -3.09 23.77 C-3.11 17.11 -2.83 10.61 -2 4 C-1.34 4 -0.68 4 0 4 C0 2.68 0 1.36 0 0 Z " fill="#A7383D" transform="translate(568,233)"/>
<path d="M0 0 C7.26 0 14.52 0 22 0 C18.62 3.38 18.62 3.38 14.55 3.29 C13.7 3.28 12.86 3.27 11.98 3.26 C11.1 3.24 10.22 3.21 9.31 3.19 C8.42 3.17 7.53 3.16 6.61 3.15 C4.4 3.11 2.2 3.06 0 3 C0 2.01 0 1.02 0 0 Z " fill="#344147" transform="translate(619,601)"/>
<path d="M0 0 C2 0.67 4 1.33 6 2 C6 1.34 6 0.68 6 0 C8.58 -0.03 11.17 -0.05 13.75 -0.06 C14.48 -0.07 15.21 -0.08 15.96 -0.09 C20.39 -0.11 24.02 0.01 28 2 C26.17 3.83 23.24 3.24 20.78 3.32 C19.52 3.36 18.26 3.4 16.96 3.44 C15.62 3.48 14.28 3.52 12.94 3.56 C11.59 3.61 10.25 3.65 8.9 3.69 C5.6 3.8 2.3 3.9 -1 4 C-0.67 2.68 -0.34 1.36 0 0 Z " fill="#1E282F" transform="translate(322,648)"/>
<path d="M0 0 C3.26 4.11 5.06 8.44 7.06 13.25 C7.41 14.07 7.77 14.89 8.13 15.74 C10.24 20.77 11.82 25.67 13 31 C12.34 31.33 11.68 31.66 11 32 C10.33 29.88 9.66 27.75 9 25.62 C8.63 24.44 8.26 23.26 7.88 22.04 C7 19 7 19 7 17 C6.34 17 5.68 17 5 17 C4.32 15.34 3.66 13.67 3 12 C2.74 11.35 2.47 10.7 2.2 10.03 C2.06 9.68 2.06 9.68 1.38 7.94 C1.11 7.29 0.85 6.64 0.59 5.96 C0 4 0 4 0 0 Z " fill="#8D484C" transform="translate(568,308)"/>
<path d="M0 0 C4.37 0.52 6.66 2 10 4.81 C10.83 5.5 11.65 6.19 12.5 6.89 C13.33 7.59 14.15 8.28 15 9 C16.66 10.34 18.33 11.67 20 13 C19.67 13.66 19.34 14.32 19 15 C18.17 14.5 18.17 14.5 14 12 C14.33 13.32 14.66 14.64 15 16 C12.62 13.79 10.83 11.74 9.06 9 C6.98 5.97 4.94 4.17 2 2 C1.34 1.34 0.68 0.68 0 0 Z " fill="#E3ACAD" transform="translate(642,197)"/>
<path d="M0 0 C0.33 0.99 0.66 1.98 1 3 C0.04 4.69 -0.97 6.35 -2 8 C-2.33 9.03 -2.66 10.06 -3 11.12 C-4.01 14.03 -4.8 14.99 -7 17 C-7.35 17.72 -7.7 18.44 -8.06 19.19 C-8.22 19.49 -8.22 19.49 -9 21 C-9.66 21 -10.32 21 -11 21 C-11.29 21.74 -11.58 22.49 -11.88 23.25 C-12.82 25.57 -13.85 27.78 -15 30 C-16.49 27.01 -15.23 25.42 -14.06 22.38 C-13.68 21.37 -13.3 20.37 -12.91 19.34 C-12.61 18.57 -12.31 17.79 -12 17 C-11.34 17.33 -10.68 17.66 -10 18 C-6.7 12.06 -3.4 6.12 0 0 Z " fill="#A65957" transform="translate(661,305)"/>
<path d="M0 0 C0.33 0 0.66 0 1 0 C1.7 10.35 2.15 20.62 2 31 C2.66 31 3.32 31 4 31 C4.33 33.64 4.66 36.28 5 39 C3.05 38.46 3.05 38.46 1 37 C0.51 34.41 0.3 32.23 0.25 29.62 C0.22 28.89 0.19 28.15 0.16 27.39 C-0.15 18.27 -0.08 9.13 0 0 Z " fill="#9C393B" transform="translate(539,243)"/>
<path d="M0 0 C0.33 0 0.66 0 1 0 C1.05 0.65 1.1 1.3 1.15 1.97 C1.39 4.96 1.63 7.95 1.88 10.94 C1.95 11.96 2.03 12.98 2.11 14.03 C2.57 19.53 3.23 24.74 4.7 30.06 C5.05 32.31 4.68 33.85 4 36 C-0.75 27.94 -0.14 19.04 -0.06 9.94 C-0.06 9.46 -0.06 9.46 -0.05 7.03 C-0.04 4.68 -0.02 2.34 0 0 Z " fill="#AF6165" transform="translate(552,247)"/>
<path d="M0 0 C0.66 0 1.32 0 2 0 C2 1.32 2 2.64 2 4 C2.99 4 3.98 4 5 4 C5 11.92 5 19.84 5 28 C4.67 28 4.34 28 4 28 C3.88 26.82 3.76 25.63 3.63 24.41 C2.77 16.18 1.83 8.09 0 0 Z " fill="#894645" transform="translate(648,232)"/>
<path d="M0 0 C0.99 0.33 1.98 0.66 3 1 C3.05 2.77 3.09 4.54 3.12 6.31 C3.15 7.3 3.17 8.28 3.2 9.3 C3 12 3 12 1 15 C-0.32 14.67 -1.64 14.34 -3 14 C-2.34 14 -1.68 14 -1 14 C-1.01 13.24 -1.02 12.48 -1.04 11.7 C-1.04 10.71 -1.05 9.71 -1.06 8.69 C-1.07 7.7 -1.09 6.72 -1.1 5.7 C-1 3 -1 3 0 0 Z " fill="#3F444A" transform="translate(396,544)"/>
<path d="M0 0 C0.66 0 1.32 0 2 0 C2 11.22 2 22.44 2 34 C1.67 34 1.34 34 1 34 C0.23 30.6 -0.11 27.5 -0.06 24.02 C-0.05 23.11 -0.05 22.19 -0.04 21.24 C-0.03 20.77 -0.03 20.77 0 18.38 C0.03 16.49 0.05 14.6 0.06 12.71 C0.07 11.88 0.09 11.05 0.1 10.19 C0 8 0 8 -1 5 C-0.56 2.31 -0.56 2.31 0 0 Z " fill="#20272D" transform="translate(481,479)"/>
<path d="M0 0 C1.51 3.92 0.44 6.67 -0.81 10.56 C-1.17 11.7 -1.53 12.83 -1.89 14 C-3 17 -3 17 -5 20 C-5.68 11.89 -4.65 6.72 0 0 Z " fill="#944345" transform="translate(662,282)"/>
<path d="M0 0 C1.98 0 3.96 0 6 0 C5.67 1.32 5.34 2.64 5 4 C5.66 4 6.32 4 7 4 C8.32 6.21 9.49 8.38 10.62 10.69 C10.95 11.31 11.27 11.94 11.61 12.58 C13.41 16.19 14.42 18.96 14 23 C11.79 20.79 11.37 19.43 10.38 16.5 C8.34 11.16 5.3 7.25 1.61 2.93 C0 1 0 1 0 0 Z " fill="#8F494C" transform="translate(634,208)"/>
<path d="M0 0 C5.06 7.6 4.22 16.21 4 25 C1.38 22.38 1.68 20.97 1.5 17.31 C1.27 13.71 1 10.44 -0.12 7 C-0.98 4.06 -1.12 2.8 0 0 Z " fill="#914246" transform="translate(661,225)"/>
<path d="M0 0 C0.66 0 1.32 0 2 0 C1.4 4.08 0.05 7.15 -1.94 10.75 C-2.46 11.71 -2.99 12.68 -3.53 13.67 C-5 16 -5 16 -7 17 C-6.67 14.69 -6.34 12.38 -6 10 C-5.34 10 -4.68 10 -4 10 C-3.93 9.53 -3.93 9.53 -3.56 7.12 C-3 4 -3 4 -2 2 C-1.34 2 -0.68 2 0 2 C0 1.34 0 0.68 0 0 Z " fill="#914345" transform="translate(679,298)"/>
<path d="M0 0 C2.3 3.45 2.43 4.95 2 9 C1.01 9.66 0.02 10.32 -1 11 C-1.69 13.62 -1.69 13.62 -2 16 C-2.66 16 -3.32 16 -4 16 C-3.66 10.01 -3.18 5.25 0 0 Z " fill="#983E43" transform="translate(646,291)"/>
<path d="M0 0 C0.66 0 1.32 0 2 0 C2 2.31 2 4.62 2 7 C2.66 7 3.32 7 4 7 C4.7 8.79 5.38 10.58 6.06 12.38 C6.25 12.87 6.25 12.87 7.22 15.4 C8 18 8 18 7 20 C2.75 17.88 1.44 11.29 0 7 C-0.35 4.47 -0.29 2.55 0 0 Z " fill="#963F44" transform="translate(589,328)"/>
<path d="M0 0 C4.63 -0.32 7.28 0.16 11 3 C11 3.66 11 4.32 11 5 C11.78 5.06 12.57 5.12 13.38 5.19 C16 6 16 6 17.31 8.56 C17.43 8.96 17.43 8.96 18 11 C15.87 9.81 13.73 8.63 11.6 7.44 C9.87 6.48 8.14 5.53 6.4 4.59 C5.59 4.15 4.77 3.71 3.94 3.25 C3.18 2.84 2.43 2.44 1.65 2.02 C1.11 1.68 0.56 1.35 0 1 C0 0.67 0 0.34 0 0 Z " fill="#904242" transform="translate(614,195)"/>
<path d="M0 0 C1.92 2.89 2.27 3.75 2.56 7 C2.8 9.6 3.16 11.48 4 14 C0.7 14 -2.6 14 -6 14 C-6.66 11.69 -7.32 9.38 -8 7 C-6 8 -6 8 -5.38 10.06 C-5.25 10.7 -5.13 11.34 -5 12 C-3.68 12 -2.36 12 -1 12 C-0.67 8.04 -0.34 4.08 0 0 Z " fill="#A83739" transform="translate(605,340)"/>
<path d="M0 0 C2.09 2.65 3.68 5.18 5.04 8.26 C5.39 9.05 5.75 9.84 6.11 10.65 C6.29 11.06 6.29 11.06 7.19 13.12 C7.37 13.54 7.37 13.54 8.3 15.62 C11 21.74 11 21.74 11 24 C8 23 8 23 6.72 20.27 C6.32 19.13 5.91 17.99 5.5 16.81 C4.26 13.35 3.05 10.09 1.34 6.82 C0 4 0 4 0 0 Z " fill="#894B4F" transform="translate(557,284)"/>
<path d="M0 0 C3 1 3 1 4.12 3.12 C6.32 10.34 6.11 17.54 6 25 C5.67 25 5.34 25 5 25 C4.89 24.08 4.78 23.16 4.67 22.22 C3.78 15.36 2.65 9.38 0 3 C0 2.01 0 1.02 0 0 Z " fill="#944B4C" transform="translate(671,223)"/>
<path d="M0 0 C0.64 0.29 1.28 0.58 1.94 0.88 C2.69 3.44 2.69 3.44 2.94 5.88 C3.6 5.88 4.26 5.88 4.94 5.88 C4.94 6.53 4.94 7.19 4.94 7.88 C4.44 7.73 3.95 7.59 3.44 7.44 C-0.04 6.66 -3.52 6.29 -7.06 5.88 C-6.73 5.22 -6.4 4.56 -6.06 3.88 C-5.4 3.88 -4.74 3.88 -4.06 3.88 C-4.06 2.88 -4.06 1.9 -4.06 0.88 C-2.06 -0.12 -2.06 -0.12 0 0 Z " fill="#A33C3D" transform="translate(577.0625,186.125)"/>
<path d="M0 0 C0.33 0.66 0.66 1.32 1 2 C0.03 2.6 -0.94 3.2 -1.94 3.81 C-5 6 -5 6 -6 9 C-6.99 9 -7.98 9 -9 9 C-9.29 9.64 -9.58 10.28 -9.88 10.94 C-11 13 -11 13 -13.62 13.75 C-14.41 13.83 -15.19 13.91 -16 14 C-11.38 8.05 -6.3 4.1 0 0 Z " fill="#88494A" transform="translate(572,188)"/>
<path d="M0 0 C1.32 0 2.64 0 4 0 C4 0.66 4 1.32 4 2 C5.32 2 6.64 2 8 2 C9.5 3.38 9.5 3.38 11 5 C11.7 5.29 12.4 5.58 13.12 5.88 C15 7 15 7 15.75 9.62 C15.79 10.02 15.79 10.02 16 12 C12.24 9.81 8.71 7.43 5.19 4.88 C4.21 4.17 3.24 3.47 2.23 2.74 C1.49 2.17 0.76 1.59 0 1 C0 0.67 0 0.34 0 0 Z " fill="#90474B" transform="translate(645,197)"/>
<path d="M0 0 C2.79 4.76 2.61 9.58 3 15 C-0.96 15 -4.92 15 -9 15 C-8.67 13.68 -8.34 12.36 -8 11 C-8 11.99 -8 12.98 -8 14 C-5.03 14 -2.06 14 1 14 C0.65 12.62 0.3 11.24 -0.06 9.81 C-0.87 6.22 -1.16 3.58 0 0 Z " fill="#96373A" transform="translate(580,339)"/>
<path d="M0 0 C-1.67 6.16 -4.88 11.48 -8 17 C-8.33 15.68 -8.66 14.36 -9 13 C-8.34 13 -7.68 13 -7 13 C-6.88 12.32 -6.75 11.64 -6.62 10.94 C-5.91 7.56 -5.07 4.29 -4 1 C-2 0 -2 0 0 0 Z " fill="#944949" transform="translate(660,336)"/>
<path d="M0 0 C1.65 0 3.3 0 5 0 C1.49 4.18 -2.08 8.2 -6 12 C-6 11.01 -6 10.02 -6 9 C-6.66 8.67 -7.32 8.34 -8 8 C-6.68 8 -5.36 8 -4 8 C-4.33 7.01 -4.66 6.02 -5 5 C-4.34 5 -3.68 5 -3 5 C-2.67 4.01 -2.34 3.02 -2 2 C-1.34 2 -0.68 2 0 2 C0 1.34 0 0.68 0 0 Z " fill="#9B424B" transform="translate(569,205)"/>
<path d="M0 0 C0.66 0 1.32 0 2 0 C0.79 7.35 -1.29 14.07 -4 21 C-4.33 21 -4.66 21 -5 21 C-4.41 16.15 -3.42 11.67 -2 7 C-1.62 5.69 -1.25 4.38 -0.88 3.06 C-0.73 2.56 -0.73 2.56 0 0 Z " fill="#8D4B4C" transform="translate(687,276)"/>
</svg>
